<svg id="レイヤー_1" data-name="レイヤー 1" xmlns="http://www.w3.org/2000/svg" width="282.31848" height="48.80179" viewBox="0 0 282.31848 48.80179"><defs><style>.cls-1{fill:#fff000;}</style></defs><title>about_txt02_sp</title><rect class="cls-1" y="40.64041" width="282.31848" height="8.16139"/><rect class="cls-1" x="27" y="10.64041" width="228.31848" height="8.16139"/><path d="M39.46594,10.48828c-.35156.17578-.64453.3125-.89844.44922-1.60156.82031-2.28515,1.26953-2.85156,1.52344a.98616.98616,0,0,1-.44922.09765,1.02075,1.02075,0,0,1-.99609-1.03515,1.09855,1.09855,0,0,1,.80078-1.01563c.68359-.2539,2.87109-1.17187,4.21875-1.75781-.3125-2.46094-.37109-2.92969-.42969-3.33984,0-.0586-.01953-.11719-.01953-.15625a.91261.91261,0,0,1,.957-.918,1.05772,1.05772,0,0,1,1.03516.957,21.24121,21.24121,0,0,1,.15625,2.22656,4.24836,4.24836,0,0,0,.01953.48828c1.26953-.52734,2.793-1.09375,4.27734-1.543.09766-.58593.15625-1.13281.23438-1.5625.13672-.80078.11719-.72265.27344-1.543a.9584.9584,0,0,1,.97656-.76172.8746.8746,0,0,1,.957.83984,18.92487,18.92487,0,0,1-.42969,1.875c-.05859.21484-.09765.42969-.15625.66406a18.44778,18.44778,0,0,1,3.16407-.37109c.85937,0,1.8164.13672,1.8164,1.09375a.97251.97251,0,0,1-1.05469.957,1.20137,1.20137,0,0,1-.2539-.01953,8.7297,8.7297,0,0,0-1.38672-.09766,14.28814,14.28814,0,0,0-2.63672.25391c-.46875,2.32422-1.03516,4.62891-2.59766,4.62891-1.05468,0-1.71875-1.28907-1.71875-1.67969a.89084.89084,0,0,1,.80079-.87891.77782.77782,0,0,1,.66406.42969c.07812.13672.15625.19531.23437.19531.21485,0,.52735-.70312.80078-2.24609A34.78575,34.78575,0,0,0,41.14563,9.707c.05859.70313.13672,1.40625.17578,1.95313.17578,2.24609.64453,2.87109,2.51953,2.87109a10.56011,10.56011,0,0,0,2.77344-.48828,2.15226,2.15226,0,0,1,.35156-.03906.99312.99312,0,0,1,1.03516.97656.96614.96614,0,0,1-.78125.918,10.79326,10.79326,0,0,1-2.92969.39062c-3.84766,0-4.39453-1.75781-4.668-4.375Zm9.98047-6.25a7.21857,7.21857,0,0,0-1.40625-1.48437.72559.72559,0,0,1-.39062-.58594.78305.78305,0,0,1,.82031-.70313c.44922,0,2.42187,1.28907,2.42187,2.1875a.9557.9557,0,0,1-.8789.9375A.62192.62192,0,0,1,49.44641,4.23828Zm2.168-1.5039a7.25376,7.25376,0,0,0-1.46484-1.42579.70084.70084,0,0,1-.39063-.58593A.79824.79824,0,0,1,50.57922,0c.35157,0,2.46094,1.17188,2.46094,2.12891a.95571.95571,0,0,1-.87891.9375A.631.631,0,0,1,51.61438,2.73438Z"/><path d="M66.97083,8.61328c-.01954,0-.01954,0-.01954.01953a.84573.84573,0,0,1,.01954.09766,2.76694,2.76694,0,0,1,.03906.58594c0,2.89062-2.69531,7.63671-7.12891,7.63671-1.8164,0-3.457-.99609-3.457-3.90624,0-3.06641,1.44531-5.66407,3.20313-8.4961.03906-.05859.03906-.07812.03906-.09766s0-.03906-.03906-.03906c-.01954,0-.03907.01953-.07813.01953a7.23744,7.23744,0,0,1-1.50391.19532c-.99609,0-1.30859-.46875-1.30859-.97657a.97768.97768,0,0,1,1.03516-.957.8759.8759,0,0,1,.21484.01953,4.48474,4.48474,0,0,0,.74219.03907,6.56829,6.56829,0,0,0,1.85547-.27344c1.30859-.39063,1.03515-.46875,1.79687-.70313a1.59719,1.59719,0,0,1,.41016-.05859.87159.87159,0,0,1,.89844.89844,1.118,1.118,0,0,1-.76172,1.01562c-1.09375.41016-4.64844,5.21485-4.64844,8.96485,0,1.71875.80078,2.36328,1.83594,2.36328,1.91406,0,5.07812-2.2461,5.07812-6.48438a4.86873,4.86873,0,0,0-.19531-1.48437,10.54777,10.54777,0,0,0-.52734-1.05469A1.45843,1.45843,0,0,1,64.295,5.293a.946.946,0,0,1,.957-.957,1.35343,1.35343,0,0,1,1.1914.9375,6.7197,6.7197,0,0,0,3.94531,3.35937A1.12035,1.12035,0,0,1,71.131,9.668a1.01217,1.01217,0,0,1-1.03515,1.01562c-1.19141,0-2.98829-1.91406-2.98829-1.91406C67.02942,8.67188,66.99036,8.61328,66.97083,8.61328Z"/><path d="M81.547,16.64062c-4.043,0-6.21094-1.875-6.21094-2.98828a1.05563,1.05563,0,0,1,1.01562-1.05468,1.16868,1.16868,0,0,1,.87891.48828,4.598,4.598,0,0,0,3.71094,1.48437,13.5374,13.5374,0,0,0,3.32031-.48828,1.8932,1.8932,0,0,1,.44922-.05859.97985.97985,0,0,1,1.05469.99609A1.3151,1.3151,0,0,1,84.672,16.25,12.56659,12.56659,0,0,1,81.547,16.64062ZM82.97278,6.48438a12.42406,12.42406,0,0,1-5.293-1.25,1.09781,1.09781,0,0,1-.64453-.9961.8554.8554,0,0,1,.8789-.89844,1.63091,1.63091,0,0,1,.56641.11719,12.75247,12.75247,0,0,0,4.707,1.01563,1.00159,1.00159,0,0,1,1.01563.99609C84.20325,5.97656,83.81262,6.48438,82.97278,6.48438Z"/><path d="M96.98059,16.64062c-4.043,0-6.21094-1.875-6.21094-2.98828a1.05564,1.05564,0,0,1,1.01563-1.05468,1.16864,1.16864,0,0,1,.8789.48828,4.598,4.598,0,0,0,3.71094,1.48437,13.53733,13.53733,0,0,0,3.32031-.48828,1.8932,1.8932,0,0,1,.44922-.05859.97985.97985,0,0,1,1.05469.99609A1.31509,1.31509,0,0,1,100.10559,16.25,12.56653,12.56653,0,0,1,96.98059,16.64062ZM98.40637,6.48438a12.42411,12.42411,0,0,1-5.293-1.25,1.09781,1.09781,0,0,1-.64453-.9961.8554.8554,0,0,1,.87891-.89844,1.6309,1.6309,0,0,1,.5664.11719,12.75248,12.75248,0,0,0,4.707,1.01563,1.00158,1.00158,0,0,1,1.01562.99609C99.63684,5.97656,99.24622,6.48438,98.40637,6.48438Z"/><path d="M116.61438,16.60156h-.19531c-4.23828-.39062-6.91407-3.32031-6.91407-6.32812a5.498,5.498,0,0,1,1.40625-3.57422.40188.40188,0,0,0,.09766-.17578.042.042,0,0,0-.03906-.03906.66.66,0,0,0-.19531.07812c-3.06641,1.582-3.4375,1.69922-3.86719,1.69922A1.11174,1.11174,0,0,1,105.71594,7.207a1.11975,1.11975,0,0,1,.89844-1.01562c.41016-.13672,1.52344-.46875,2.10937-.6836.918-.332,2.53907-.83984,4.47266-1.60156a14.91107,14.91107,0,0,1,5.17578-1.21094c.97656,0,1.32813.44922,1.32813.957,0,.9961-.82032,1.21094-1.5625,1.21094a3.61035,3.61035,0,0,1-.44922-.01953,3.76366,3.76366,0,0,0-.46875-.01953c-3.02735,0-5.9961,2.57812-5.9961,5.19531,0,2.34375,2.22657,4.33594,5.293,4.33594.97657,0,1.44532.56641,1.44532,1.15234C117.962,16.05469,117.51282,16.60156,116.61438,16.60156Zm1.67969-6.85547a7.403,7.403,0,0,0-1.66016-1.21093.65541.65541,0,0,1-.48828-.60547A.82642.82642,0,0,1,117.005,7.168c.25391,0,2.63672.89844,2.63672,1.91406a.93318.93318,0,0,1-.83984.918A.67469.67469,0,0,1,118.29407,9.74609ZM120.54016,8.125a6.857,6.857,0,0,0-1.69922-1.15234.67851.67851,0,0,1-.50781-.60547.84178.84178,0,0,1,.85937-.78125c.3125,0,2.65625.83984,2.65625,1.85547a.90212.90212,0,0,1-.82031.918A.715.715,0,0,1,120.54016,8.125Z"/><path d="M130.48645,16.77734c-3.90625,0-4.0625-2.26562-4.0625-4.19922,0-2.22656.23438-5.05859.23438-7.36328a18.47966,18.47966,0,0,0-.11719-2.22656c0-.05859-.01953-.13672-.01953-.19531a.96245.96245,0,0,1,1.01562-.97656,1.06029,1.06029,0,0,1,1.09375.9375q.05859.64452.0586,1.40625c0,2.40234-.41016,5.46875-.41016,8.08593,0,1.60157.07812,2.57813,2.01172,2.57813a13.42759,13.42759,0,0,0,4.668-1.01563,1.56117,1.56117,0,0,1,.60547-.13671.91793.91793,0,0,1,.957.9375,1.34436,1.34436,0,0,1-.957,1.23046A15.22218,15.22218,0,0,1,130.48645,16.77734Z"/><path d="M144.76868,8.4375a10.72287,10.72287,0,0,1-2.207.37109.85009.85009,0,0,1-.918-.8789.942.942,0,0,1,.97656-.97657,14.61948,14.61948,0,0,0,3.22266-.44921,8.28033,8.28033,0,0,0,.957-2.98829.8272.8272,0,0,1,.8789-.70312.98391.98391,0,0,1,1.05469.89844,6.67887,6.67887,0,0,1-.70312,2.36328h.15625c2.22656,0,2.28515,2.40234,2.28515,3.30078,0,1.73828-.07812,6.62109-3.6914,6.62109-1.11329,0-2.5586-.50781-2.5586-1.44531a.99556.99556,0,0,1,1.42578-.918,2.62276,2.62276,0,0,0,1.09375.293c1.26953,0,1.85547-1.36719,1.85547-4.78516,0-.80078-.11719-1.38671-.74219-1.38671a1.20512,1.20512,0,0,0-.35156.03906c-.07812.01953-.19531.05859-.3125.07812-1.46484,2.75391-3.51562,5.957-4.76562,8.08594a1.15742,1.15742,0,0,1-1.01563.56641.91115.91115,0,0,1-.99609-.83985A1.19425,1.19425,0,0,1,140.64758,15c.85938-1.30859,2.89063-4.16016,4.27735-6.60156ZM155.589,11.13281a6.20918,6.20918,0,0,0-3.35938-3.10547.70958.70958,0,0,1-.52734-.66406.91155.91155,0,0,1,.9375-.85937c.99609,0,4.82422,2.42187,4.82422,4.21875a1.04086,1.04086,0,0,1-1.03516,1.03515A.91016.91016,0,0,1,155.589,11.13281Z"/><path d="M162.6261,9.88281c-1.32813,1.07422-1.6211,1.21094-1.91406,1.21094a.971.971,0,0,1-.9375-.97656.88519.88519,0,0,1,.46875-.78125,13.62265,13.62265,0,0,0,4.55078-4.6875.86267.86267,0,0,1,.72265-.44922,1.06236,1.06236,0,0,1,1.03516.99609.94508.94508,0,0,1-.17578.52735,23.32218,23.32218,0,0,1-1.89453,2.36328l-.21485,8.80859a.90823.90823,0,0,1-.97656.87891.83422.83422,0,0,1-.89844-.83985v-.03906Zm-1.67969-3.4375a.91914.91914,0,0,1-.97656-.8789,1.12679,1.12679,0,0,1,.64453-.918,10.725,10.725,0,0,0,3.75-3.78906.912.912,0,0,1,.78125-.48829.98854.98854,0,0,1,.97656.957,1.047,1.047,0,0,1-.19531.58594C164.34485,4.19922,161.923,6.44531,160.94641,6.44531Zm13.47656,5.9961v1.52343l.03907,1.52344v.03906c0,.9961-.83985,2.14844-2.98829,2.14844-.82031,0-1.89453-.01953-1.89453-.99609a.8619.8619,0,0,1,.85938-.89844.7327.7327,0,0,1,.19531.01953,5.03091,5.03091,0,0,0,1.03516.13672c.625,0,1.07422-.21484,1.07422-.957v-.03906l-.03907-2.5h-6.5625a.74317.74317,0,1,1,0-1.48438h6.5625l-.01953-.70312a.72285.72285,0,0,1,.17578-.46875h-6.13281a.74317.74317,0,1,1,0-1.48438h9.35547a.74219.74219,0,0,1,0,1.48438h-1.83594a.659.659,0,0,1,.15625.44922V10.957h2.2461a.74219.74219,0,0,1,0,1.48438Zm-.78125-5.11719c-.64453.03906-1.46484.05859-2.28515.05859-2.5586,0-4.043-.01953-4.1211-1.67969-.01953-.332-.01953-.72265-.01953-1.13281,0-.64453.01953-1.32812.03906-1.89453A1.82139,1.82139,0,0,1,169.16907.957C169.83313.9375,170.61438.918,171.41516.918c.78125,0,1.5625.01953,2.1875.03906a1.9233,1.9233,0,0,1,1.875,1.582c.03906.54688.05859,1.21094.05859,1.83594,0,.44922,0,.89844-.01953,1.28906A1.7286,1.7286,0,0,1,173.64172,7.32422Zm-4.41406,7.91016a4.805,4.805,0,0,0-1.62109-1.13282.58836.58836,0,0,1-.3711-.50781.93243.93243,0,0,1,.918-.82031c.56641,0,2.53906.8789,2.53906,1.73828a1.01452,1.01452,0,0,1-.9375.97656A.68252.68252,0,0,1,169.22766,15.23438ZM173.77844,3.457c0-.11719-.01953-.23437-.01953-.35156-.03906-.74219-.11719-.76172-2.36328-.76172-.66406,0-1.34766.01953-1.79688.03906-.5664.01953-.68359.3711-.70312.74219,0,.09766-.01953.21484-.01953.332ZM168.8761,4.78516c0,1.1914.01953,1.21093,2.38281,1.21093,2.207,0,2.48047-.01953,2.51953-.68359,0-.15625.01953-.35156.01953-.52734Z"/><path d="M185.131,17.57812c-.74219,0-1.07422-.42968-1.07422-.8789a.93548.93548,0,0,1,.89844-.918c3.457-.27344,6.26953-2.30469,6.26953-3.86719a1.3713,1.3713,0,0,0-1.5039-1.25c-1.50391,0-4.27735,2.46094-4.57032,2.8125a1.451,1.451,0,0,1-1.07422.6836c-.42968,0-1.62109-.42969-1.62109-3.20313a8.54,8.54,0,0,1,.35156-2.53906,8.39277,8.39277,0,0,0,.19532-1.64063v-.332c0-1.26953.58593-1.91406,1.93359-2.65625.46875-.2539,1.03516-.48828,1.03516-.72265,0-.15625-.21485-.3125-.74219-.48829a.87993.87993,0,0,1-.72266-.80078.97616.97616,0,0,1,1.05469-.8789c.70312,0,3.14453,1.15234,3.14453,2.5,0,.918-.72266,1.05468-1.69922,1.21094A3.96184,3.96184,0,0,0,186.06848,5c-1.23047.56641-1.44531,1.07422-1.44531,1.67969,0,.09765.01953.21484.01953.332v.21484a5.90457,5.90457,0,0,1-.05859.78125,18.25754,18.25754,0,0,0-.332,2.57813c0,.05859,0,.83984.23437.83984a.44971.44971,0,0,0,.17578-.05859c.39063-.23438,1.13281-.74219,1.99219-1.23047A6.58265,6.58265,0,0,1,189.799,9.082c1.69922,0,3.37891,1.09375,3.37891,2.85156,0,1.25-.85938,2.75391-2.92969,4.10157A12.707,12.707,0,0,1,185.131,17.57812Z"/><path d="M198.22278,13.71094c.01953-.03906.13672-.15625.293-.39063.21484-.3125.37109-.60547.5664-.9375a18.76307,18.76307,0,0,1,1.48438-2.10937c.2539-.44922.46875-.87891.64453-1.26953l.05859-.54688a7.47414,7.47414,0,0,0-1.73828.85938,1.239,1.239,0,0,1-.70312.27343.79528.79528,0,0,1-.74219-.85937c0-.64453.15625-.85938,3.39844-2.26563.15625-1.60156.27343-3.00781.27343-3.86718a.8501.8501,0,0,1,.87891-.918.93683.93683,0,0,1,.97656.89843c0,.58594-.23437,2.53907-.35156,3.53516a.79824.79824,0,0,1,.44922.78125c1.44531-1.34765,2.94922-2.5,4.41406-2.5A2.08848,2.08848,0,0,1,210.215,6.71875a2.74959,2.74959,0,0,1-.01954.39063c-.13671,1.26953-.70312,3.33984-.918,5.13671a4.37214,4.37214,0,0,0-.0586.66407c0,.60546.21485.85937.918.85937a5.77662,5.77662,0,0,0,2.168-.625,1.43948,1.43948,0,0,1,.52734-.11719.8672.8672,0,0,1,.85938.918A1.124,1.124,0,0,1,212.96887,15a7.20035,7.20035,0,0,1-2.793.60547c-1.5039,0-2.8125-.48828-2.8125-2.46094a4.73,4.73,0,0,1,.07813-.87891c.27344-1.77734.80078-3.82812.8789-5.09765V6.95312c0-.64453-.23437-.8789-.58593-.8789-1.03516,0-3.30078,2.14844-4.88282,4.10156-.07812,1.03516-.13671,2.08984-.13671,3.08594a17.06659,17.06659,0,0,0,.19531,2.7539.80126.80126,0,0,1,.01953.21485,1.012,1.012,0,0,1-1.03516,1.01562c-1.03515,0-1.05468-1.15234-1.05468-2.55859,0-.68359.01953-1.42578.07812-2.22656-.42969.70312-.83984,1.52344-1.19141,2.207a1.62566,1.62566,0,0,1-1.36718,1.01562.72391.72391,0,0,1-.78125-.72265,2.03674,2.03674,0,0,1,.58593-1.13282Z"/><path d="M223.83313,4.375a51.17619,51.17619,0,0,1-3.94531,7.48047,1.10018,1.10018,0,0,1-.97657.58594.86467.86467,0,0,1-.918-.83985,1.20445,1.20445,0,0,1,.21484-.66406,43.15646,43.15646,0,0,0,3.457-5.70312,5.98581,5.98581,0,0,1-2.46094.78124c-1.28906,0-1.28906-.8789-1.28906-.957a.88733.88733,0,0,1,.89844-.918,1.45894,1.45894,0,0,1,.39062.0586.91379.91379,0,0,0,.332.03906,7.88978,7.88978,0,0,0,2.75391-1.01562c.05859-.46875.03906-.918.07813-1.50391a.86452.86452,0,0,1,.918-.85937.88863.88863,0,0,1,.9375.83984v.41016a.83032.83032,0,0,1,.21485-.03907.8006.8006,0,0,1,.78125.80078c0,.66407-.83985,1.17188-1.38672,1.48438Zm-.56641,12.92969c-1.77734,0-3.26172-1.26953-3.26172-2.38281,0-1.28907,1.71875-2.2461,4.23829-2.2461.293,0,.60546.01953.89843.03906-.13672-1.5625-.13672-1.64062-.13672-1.85546,0-1.26954.41016-2.42188,2.69532-3.94532a.34878.34878,0,0,0,.17578-.23437c0-.11719-.17578-.11719-.25391-.11719a7.06512,7.06512,0,0,0-1.25.23438,1.20137,1.20137,0,0,1-.2539.01953.66633.66633,0,0,1-.74219-.64453c0-.50782.5664-1.09376,2.59765-1.09376,1.42579,0,3.14454.82032,3.14454,1.71876a1.00041,1.00041,0,0,1-.9961.8789c-1.5625.13672-3.49609,1.17188-3.49609,3.22266a5.88886,5.88886,0,0,0,.09765.957c.0586.39062.13672.80078.19532,1.21094,1.21093.37109,3.10547,1.23047,3.10547,2.34375a.96353.96353,0,0,1-.89844,1.01562,1.1463,1.1463,0,0,1-.80078-.39062,6.429,6.429,0,0,0-1.48438-1.05469A3.85,3.85,0,0,1,223.26672,17.30469Zm.54688-3.125c-1.15235,0-2.12891.39062-2.12891.74219s.6836.76171,1.44531.76171a1.94748,1.94748,0,0,0,1.99219-1.34765A5.98816,5.98816,0,0,0,223.8136,14.17969Z"/><path d="M240.9679,15.09766a3.65728,3.65728,0,0,1-2.32422-1.01563c-1.97266-1.69922-2.53907-4.35547-2.85157-5.87891-.15625-.74218-.37109-1.93359-.37109-2.08984a.95776.95776,0,0,1,.97656-.9375,1.022,1.022,0,0,1,.97657.918c.11718.625.15625,1.28906.27343,1.91406.80078,4.55078,2.63672,4.72657,2.75391,4.72657.19531,0,.37109-.15626.54687-.625s.3125-1.03516.54688-1.66016a.76258.76258,0,0,1,.72266-.54688,1.05941,1.05941,0,0,1,1.03515.97657c0,.05859-.01953.09765-.01953.15625-.11719.64453-.50781,1.91406-.56641,2.51953A1.6166,1.6166,0,0,1,240.9679,15.09766Zm7.5-4.4336a6.88744,6.88744,0,0,0-2.5586-3.94531.77906.77906,0,0,1-.332-.625.84932.84932,0,0,1,.87891-.80078,1.27347,1.27347,0,0,1,.82031.332c.82031.70312,3.24219,2.85156,3.24219,4.82422a1.067,1.067,0,0,1-1.07422,1.11328A.96929.96929,0,0,1,248.4679,10.66406Z"/><path d="M18.36536,43.81567a.92654.92654,0,0,1-1.83594,0v-.01953l.05859-3.6914c-1.52343.15625-4.14062.35156-5.83984.35156a.80818.80818,0,0,1-.83984-.83984.78325.78325,0,0,1,.80078-.82032h.80078c1.25,0,2.55859-.03906,3.88672-.09765l.05859-.01953A9.327,9.327,0,0,0,12.506,36.86255a.53941.53941,0,0,1-.39062-.52734.98982.98982,0,0,1,.9375-.918,3.96741,3.96741,0,0,1,1.5625.66406,5.89664,5.89664,0,0,0,.918-1.36719c.01953-.03906.05859-.05859.07812-.09765H10.1427a.707.707,0,1,1,0-1.40625l6.28906.01953v-.87891l-4.375.01953a.67649.67649,0,0,1-.72265-.68359.66626.66626,0,0,1,.72265-.6836l4.35547.01954v-.83985l-5.46875.01953a.71347.71347,0,1,1,0-1.42578l5.46875.01953v-.89843a.84842.84842,0,0,1,.957-.82032.87722.87722,0,0,1,.97657.82032v.89843l5.52734-.01953a.713.713,0,1,1,0,1.42578l-5.52734-.01953v.83985l4.41406-.01954a.671.671,0,0,1,.70312.6836.66054.66054,0,0,1-.70312.68359l-4.4336-.01953v.87891l6.38672-.01953a.70415.70415,0,1,1,0,1.40625l-7.26562-.01954h-.48828a.67824.67824,0,0,1,.2539.50782c0,.52734-1.25,1.77734-1.28906,1.8164.332.23438.64453.46875.89844.6836l.05859.05859a16.48279,16.48279,0,0,0,2.5586-2.67578.8211.8211,0,0,1,.64453-.3125.96632.96632,0,0,1,.99609.85937.9502.9502,0,0,1-.25391.60547,17.41073,17.41073,0,0,1-2.67578,2.40235c1.15235-.07813,2.28516-.19532,3.35938-.3125a2.59793,2.59793,0,0,0-.3711-.27344.71789.71789,0,0,1-.37109-.58594.79823.79823,0,0,1,.82031-.72265c.6836,0,3.16407,1.89453,3.16407,2.87109a.965.965,0,0,1-.87891.97656.82334.82334,0,0,1-.68359-.41015,8.45633,8.45633,0,0,0-.52735-.72266c-1.26953.19531-2.77344.39062-4.35547.56641l.0586,3.86718Zm-7.75391.3711a.97205.97205,0,0,1-1.01562-.957A.81774.81774,0,0,1,10.299,42.429a11.99836,11.99836,0,0,0,3.84766-1.64063.84954.84954,0,0,1,.44922-.13672.92231.92231,0,0,1,.8789.918.82092.82092,0,0,1-.39062.68359A13.14783,13.14783,0,0,1,10.61145,44.18677ZM23.131,43.718a8.62592,8.62592,0,0,0-3.16406-1.64063.68407.68407,0,0,1-.56641-.66406.93513.93513,0,0,1,.957-.89844c.15625,0,4.45313,1.01563,4.45313,2.42188A1.01025,1.01025,0,0,1,23.131,43.718Z"/><path d="M30.09,30.78833a.78329.78329,0,1,1,0-1.5625h3.02734l-.01953-1.07422v-.01953a.94917.94917,0,0,1,1.875,0v.01953l-.01953,1.07422h3.39843a.78149.78149,0,1,1,0,1.5625Zm15.11718,2.168a17.2911,17.2911,0,0,1-1.73828,6.93359,9.55239,9.55239,0,0,0,2.85156,2.69532.85708.85708,0,0,1,.46875.76171,1.03448,1.03448,0,0,1-1.03515.9961c-.89844,0-2.30469-1.48438-3.28125-2.91016a8.03012,8.03012,0,0,1-3.84766,3.04688.99.99,0,0,1-.9375-.918,2.78282,2.78282,0,0,1-1.64062.42969c-.66407,0-1.81641-.01954-1.81641-.957a.79529.79529,0,0,1,.74219-.85937.54076.54076,0,0,1,.17578.01953,5.38653,5.38653,0,0,0,.87891.13672c.50781,0,.85937-.23438.85937-1.11328,0,0,0-4.64844-.03906-6.42578,0-.58594-.19531-.60547-2.67578-.60547-2.92969,0-2.92969.01953-2.92969.60547-.01953,1.05468-.03906,3.00781-.03906,4.96093,0,1.42579,0,2.85157.03906,3.92579v.01953a.74725.74725,0,0,1-.80078.76172.79369.79369,0,0,1-.83985-.78125c-.01953-.9961-.01953-2.40235-.01953-3.88672,0-1.99219,0-4.10157.01953-5.3125.01954-1.09375.42969-1.6211,1.71875-1.64063h.52735A4.68875,4.68875,0,0,0,31.34,31.74536a.58111.58111,0,0,1-.09766-.293c0-.332.46875-.54687.89844-.54687,1.03515,0,1.38672,1.66015,1.38672,1.77734,0,.03906-.01954.09766-.01954.13672h1.09375c0-.03906.01954-.05859.03907-.09766a4.84251,4.84251,0,0,0,.48828-1.38671.56512.56512,0,0,1,.625-.46875c.46875,0,1.01562.3125,1.01562.76171a6.08757,6.08757,0,0,1-.44922,1.21094h.44922c1.15235.03906,1.67969.52735,1.71875,1.5625v.15625a27.53853,27.53853,0,0,0,1.97266-6.34765.82069.82069,0,0,1,.85937-.6836.8567.8567,0,0,1,.918.80078,17.97858,17.97858,0,0,1-.82031,3.04688h4.58984a.79154.79154,0,1,1,0,1.582Zm-9.17968,3.98437L34.797,36.92114v.82032l.11718.01953a1.15887,1.15887,0,0,1,1.23047.99609c.01953.44922.03907.87891.03907,1.28906,0,1.50391-.19532,1.875-2.28516,1.875-.89844,0-1.91406-.11718-1.97266-1.09375-.01953-.293-.01953-.58593-.01953-.8789,0-.41016,0-.80078.01953-1.19141.01953-.54687.41016-.957,1.25-.99609H33.215v-.83985l-1.13282.01953h-.01953a.63932.63932,0,0,1-.66406-.68359.66138.66138,0,0,1,.66406-.68359h.01953l1.13282.03906v-.50781a.74311.74311,0,0,1,.80078-.74219.75367.75367,0,0,1,.80078.74219v.01953l-.01953.48828,1.23047-.03906H36.047a.68634.68634,0,0,1,0,1.36718Zm-1.21094,2.832c0-.83985-.01953-.87891-.78125-.87891-.72266,0-.80078.01953-.80078.918,0,.85937.03906.85937.83984.85937C34.797,40.67114,34.81653,40.57349,34.81653,39.77271ZM39.797,35.41724a.98609.98609,0,0,1-.85938.54687.78741.78741,0,0,1-.42969-.11719c.01954,1.42579.01954,3.125.01954,3.63282,0,.3125.01953,1.48437.03906,2.14843a2.80379,2.80379,0,0,1-.15625.9961,8.65457,8.65457,0,0,0,3.125-2.75391,16.0204,16.0204,0,0,1-1.6211-4.6875Zm1.40625-2.46094a12.95476,12.95476,0,0,0,1.25,5.19531,16.273,16.273,0,0,0,.99609-5.19531Z"/><path d="M56.89172,31.23755A51.17522,51.17522,0,0,1,52.94641,38.718a1.10017,1.10017,0,0,1-.97656.58594.86468.86468,0,0,1-.918-.83985,1.20443,1.20443,0,0,1,.21484-.66406,43.15589,43.15589,0,0,0,3.457-5.70313,5.98567,5.98567,0,0,1-2.46093.78125c-1.28907,0-1.28907-.8789-1.28907-.957a.88734.88734,0,0,1,.89844-.918,1.459,1.459,0,0,1,.39063.0586.91374.91374,0,0,0,.332.03906,7.88974,7.88974,0,0,0,2.7539-1.01562c.0586-.46875.03907-.918.07813-1.50391a.86453.86453,0,0,1,.918-.85938.88864.88864,0,0,1,.9375.83985v.41015a.83065.83065,0,0,1,.21484-.03906.80058.80058,0,0,1,.78125.80078c0,.66407-.83984,1.17188-1.38672,1.48438Zm-.5664,12.92969c-1.77735,0-3.26172-1.26953-3.26172-2.38282,0-1.28906,1.71875-2.24609,4.23828-2.24609.293,0,.60547.01953.89844.03906-.13672-1.5625-.13672-1.64062-.13672-1.85547,0-1.26953.41015-2.42187,2.69531-3.94531a.34874.34874,0,0,0,.17578-.23437c0-.11719-.17578-.11719-.2539-.11719a7.06547,7.06547,0,0,0-1.25.23437,1.2009,1.2009,0,0,1-.25391.01954.66634.66634,0,0,1-.74219-.64454c0-.50781.56641-1.09375,2.59766-1.09375,1.42578,0,3.14453.82032,3.14453,1.71875a1.0004,1.0004,0,0,1-.99609.87891c-1.5625.13672-3.4961,1.17188-3.4961,3.22266a5.88783,5.88783,0,0,0,.09766.957c.05859.39062.13672.80078.19531,1.21094,1.21094.37109,3.10547,1.23046,3.10547,2.34375a.96353.96353,0,0,1-.89844,1.01562,1.14633,1.14633,0,0,1-.80078-.39062A6.42891,6.42891,0,0,0,59.89954,41.843,3.85,3.85,0,0,1,56.32532,44.16724Zm.54687-3.125c-1.15234,0-2.1289.39062-2.1289.74218s.68359.76172,1.44531.76172a1.94749,1.94749,0,0,0,1.99219-1.34765A5.98825,5.98825,0,0,0,56.87219,41.04224Z"/><path d="M79.51379,40.39771v3.3789a.90722.90722,0,0,1-1.79687,0v-3.3789H76.0177a.78742.78742,0,0,1-.87891-.78125.84609.84609,0,0,1,.87891-.85938h1.69922V38.2688l.05859-3.37891a18.663,18.663,0,0,1-4.12109,5.54688.97474.97474,0,0,1-.70313.293.9197.9197,0,0,1-.78125-.42969l-.05859,3.457a.89554.89554,0,0,1-.957.89844.85973.85973,0,0,1-.918-.87891v-.01953l.19531-9.02344c-1.25,1.6211-1.77734,1.91407-2.207,1.91407a.89344.89344,0,0,1-.918-.85938.94416.94416,0,0,1,.332-.68359,18.008,18.008,0,0,0,4.45313-7.07032.87517.87517,0,0,1,.83984-.625,1.06987,1.06987,0,0,1,1.09375.957,15.16419,15.16419,0,0,1-1.67968,3.53515l-.15625,7.5586a1.11437,1.11437,0,0,1,.2539-.27344,17.70582,17.70582,0,0,0,4.7461-6.07422l-3.32032.05859h-.01953a.79506.79506,0,0,1-.8789-.82031.86638.86638,0,0,1,.89843-.87891h3.8086V28.15161a.8503.8503,0,0,1,.918-.83984.87461.87461,0,0,1,.957.83984v3.32031h4.35547a.82939.82939,0,0,1,.85937.85938.798.798,0,0,1-.83984.83984h-.01953l-3.90625-.05859a18.8049,18.8049,0,0,0,5.11718,5.54687.95508.95508,0,0,1,.41016.78125.97517.97517,0,0,1-.957.97657,1.29767,1.29767,0,0,1-.78125-.3125,20.8375,20.8375,0,0,1-4.33594-5.19532l.05859,3.33985v.50781h1.73829a.82054.82054,0,1,1,0,1.64063Z"/><path d="M87.95715,41.7063a1.11327,1.11327,0,0,1,.17578-.54688,6.48747,6.48747,0,0,0,.72266-2.4414.62234.62234,0,0,1,.60547-.66406.67592.67592,0,0,1,.70312.76171c0,.80079-.48828,3.61329-1.5039,3.61329A.70461.70461,0,0,1,87.95715,41.7063Zm6.32813-5.78125c.332,0,1.71875.05859,1.71875,1.97266,0,3.3789-.46875,6.15234-3.457,6.15234-1.26953,0-1.91407-.21484-1.91407-.99609a.78083.78083,0,0,1,.76172-.83985.876.876,0,0,1,.21485.01953,4.74388,4.74388,0,0,0,1.07422.15625c.74218,0,1.40625-.39062,1.5625-2.48047a.50955.50955,0,0,1-.41016.21485.39117.39117,0,0,1-.39063-.35156,7.38687,7.38687,0,0,0-.64453-1.52344.44523.44523,0,0,1-.05859-.21485c0-.19531.19531-.332.42969-.332.60547,0,1.09375,1.38672,1.13281,1.52344.01953-.41016.01953-.78125.01953-1.03516,0-.76171-.09766-.83984-1.48437-.83984-.66407,0-1.40625.01953-2.01172.01953a1.60022,1.60022,0,0,1-1.79688-1.64062c-.01953-.76172-.01953-1.95313-.01953-3.125s0-2.32422.01953-2.96875a1.72776,1.72776,0,0,1,1.79688-1.81641c.54687-.01953,1.69922-.01953,2.7539-.01953.76172,0,1.48438,0,1.875.01953a.66141.66141,0,0,1,.64453.70313.7434.7434,0,0,1-.74218.76171H93.54309v1.28907h1.30859a.67548.67548,0,1,1,0,1.34765H93.54309v1.3086h1.30859a.67548.67548,0,1,1,0,1.34765H93.54309v1.34766Zm-3.82813,5.05859v-.07812c.01953-.293.03907-.625.03907-.9375,0-.58594-.03907-1.13281-.0586-1.36719v-.07812a.45875.45875,0,0,1,.44922-.50782c.27344,0,.66406.01953.66406,2.51953,0,.293-.01953.957-.625.957A.46227.46227,0,0,1,90.45715,40.98364Zm1.582-11.71875c-.37109,0-.68359.01953-.85937.01953-.293.01954-.52734.15625-.54688.625,0,.17579-.01953.41016-.01953.66407h1.42578Zm0,2.65625H90.6134v1.3086h1.42578Zm0,2.65625H90.6134c0,.27344.01953.52735.01953.74219a.574.574,0,0,0,.60547.60547h.80078Zm-.01953,5.78125a8.3561,8.3561,0,0,0-.37109-1.83593.85966.85966,0,0,1-.03906-.19532.42548.42548,0,0,1,.44922-.42968.50621.50621,0,0,1,.46875.332,7.23667,7.23667,0,0,1,.50781,2.01172.55548.55548,0,0,1-.54688.58593A.47073.47073,0,0,1,92.01965,40.35864Zm9.35547-7.32422v1.23047c.54688,0,1.09375,0,1.5625.01953A1.62528,1.62528,0,0,1,104.715,35.593a9.01223,9.01223,0,0,1,.03906,1.07422c0,.3125,0,.64453-.01953.918-.0586.8789-.72266,1.5039-1.89453,1.543-.3125.01954-.6836.01954-1.03516.01954a7.48921,7.48921,0,0,0,3.457,3.418.93193.93193,0,0,1,.54688.82032.95776.95776,0,0,1-.9375.97656c-.85938,0-3.125-1.77734-4.25782-4.21875a6.68659,6.68659,0,0,1-4.72656,4.41406.93924.93924,0,0,1-.87891-.9375.79469.79469,0,0,1,.58594-.78125,5.67423,5.67423,0,0,0,3.69141-3.6914c-2.14844,0-2.94922,0-2.94922-2.36329,0-.39062,0-.78125.01953-1.09375a1.53629,1.53629,0,0,1,1.69922-1.40625c.50781-.01953,1.07422-.01953,1.66016-.01953V33.03442H98.32825a.6335.6335,0,0,1-.625-.50781l-.64453.64453a.86227.86227,0,0,1-.625.27344.895.895,0,0,1-.87891-.83984.7769.7769,0,0,1,.3125-.60547,15.2451,15.2451,0,0,0,3.00781-3.69141,1.73607,1.73607,0,0,1,1.48438-.89844,2.15652,2.15652,0,0,1,1.60156.82032,25.55239,25.55239,0,0,0,3.457,3.35937.94374.94374,0,0,1,.37109.72266,1.00337,1.00337,0,0,1-.9375.99609c-.39062,0-.5664-.17578-1.44531-1.05469v.03907a.70438.70438,0,0,1-.68359.74218Zm-3.418,3.67188c0,.9375,0,1.09375,1.66016,1.09375a13.94618,13.94618,0,0,0,.09766-2.207C97.99622,35.593,97.95715,35.593,97.95715,36.7063Zm4.76563-5.15625c-.74219-.80078-1.44531-1.62109-1.99219-2.28516a.40774.40774,0,0,0-.3125-.15625.26787.26787,0,0,0-.25391.15625,26.26117,26.26117,0,0,1-1.62109,2.28516Zm-1.38672,5.27344c-.01953.3125-.07813.64453-.11719.97656,1.85547,0,1.875-.03906,1.875-1.21094,0-.9375,0-.99609-1.73828-.99609C101.35559,36.19849,101.33606,36.7063,101.33606,36.82349Z"/><path d="M117.1427,38.50317a10.425,10.425,0,0,1-.03906,1.07422A1.16137,1.16137,0,0,1,116.049,40.7688a.81537.81537,0,0,1-.80078-.918v-.17578a10.62861,10.62861,0,0,0,.07812-1.30859c-.41015.21484-2.22656,1.17187-2.22656,2.40234,0,.332.15625,1.48437,2.14844,1.48437a9.07125,9.07125,0,0,0,2.46094-.41015,1.57827,1.57827,0,0,1,.48828-.07813.94277.94277,0,0,1,1.01562.918c0,.41016-.15625,1.40625-3.49609,1.40625-3.20313,0-4.375-1.67969-4.375-3.10547,0-2.38281,2.77344-3.86718,3.78906-4.39453-.23437-.76172-.625-1.15234-1.15234-1.15234a1.92561,1.92561,0,0,0-1.01563.35156c-.82031.918-1.30859,1.19141-1.73828,1.19141a.77979.77979,0,0,1-.83984-.74219,1.06549,1.06549,0,0,1,.44922-.80078,10.19282,10.19282,0,0,0,2.5-2.96875,5.7271,5.7271,0,0,1-.957.07812c-1.97266,0-1.99219-1.09375-1.99219-1.25a.83016.83016,0,0,1,.80078-.85937,1.24258,1.24258,0,0,1,.70312.2539,1.32373,1.32373,0,0,0,.72266.15625,7.54588,7.54588,0,0,0,1.543-.21484,7.51825,7.51825,0,0,0,.35156-1.543.76742.76742,0,0,1,.82031-.68359.99649.99649,0,0,1,1.05469.85937,3.7248,3.7248,0,0,1-.11719.72266c.58594-.293.66407-.3125.80079-.3125a.85034.85034,0,0,1,.83984.85937c0,.64454-.50781,1.03516-2.53906,1.52344a21.00965,21.00965,0,0,1-1.11328,1.95313,2.611,2.611,0,0,1,2.46093,1.83593,22.68709,22.68709,0,0,1,4.51172-1.582,1.03956,1.03956,0,0,1,1.09375,1.01563.807.807,0,0,1-.52734.76172c-.60547.2539-1.25.332-2.26563.64453-.82031.2539-1.66015.5664-2.42187.8789A7.22042,7.22042,0,0,1,117.1427,38.50317Z"/><path d="M142.24524,39.22583l-5.70313-.11719a22.19129,22.19129,0,0,0,6.19141,3.1836.80192.80192,0,0,1,.60547.76172,1.15334,1.15334,0,0,1-1.15234,1.05468c-.70313,0-4.00391-1.69922-6.50391-3.80859l.03906,3.63281v.01953a.82532.82532,0,0,1-.918.74219c-.46875,0-.918-.25391-.918-.74219v-.01953l.03907-3.59375c-2.26563,2.01172-5.9375,3.90625-6.6211,3.90625a.93813.93813,0,0,1-.97656-.8789.877.877,0,0,1,.64453-.78125,19.56252,19.56252,0,0,0,6.01563-3.47657l-5.52735.11719h-.01953a.82042.82042,0,1,1,.01953-1.64062h6.44532l-.01954-.54688a.82685.82685,0,0,1,.918-.85937.83652.83652,0,0,1,.918.82031v.58594h6.52344a.82042.82042,0,1,1,.01953,1.64062ZM127.32336,36.218a.90345.90345,0,0,1-.89843-.9375.83561.83561,0,0,1,.60547-.80078,9.37374,9.37374,0,0,0,2.832-1.25.7399.7399,0,0,1,1.13281.72265.85462.85462,0,0,1-.37109.70313A9.5102,9.5102,0,0,1,127.32336,36.218Zm2.05079-4.57031a11.68209,11.68209,0,0,0-1.97266-1.38672.67077.67077,0,0,1-.41016-.60547.9749.9749,0,0,1,.9375-.918c.82032,0,2.59766,1.42578,2.59766,1.42578a.999.999,0,0,1,.332.74219.95573.95573,0,0,1-.87891.99609A.91177.91177,0,0,1,129.37415,31.64771Zm8.75-.97657c.01953.70313.05859,1.64063.05859,2.5,0,.50782-.01953.97657-.03906,1.34766a1.57377,1.57377,0,0,1-1.5625,1.5625c-.42969.03906-1.32813.07812-2.12891.07812-1.40625,0-2.87109-.01953-2.92969-1.543-.01953-.48829-.01953-1.23047-.01953-1.95313,0-.74219,0-1.46484.01953-1.93359a1.48535,1.48535,0,0,1,1.5625-1.46485c.15625,0,.3711-.01953.625-.01953.09766-.37109.19532-.85937.25391-1.23047a.88181.88181,0,0,1,.918-.74218.92134.92134,0,0,1,.99609.82031,4.33957,4.33957,0,0,1-.3125,1.13281C136.52258,29.22583,138.08508,29.22583,138.12415,30.67114Zm-1.582,1.26953c0-.35156-.01953-.68359-.01953-.9375-.01953-.44921-.03906-.50781-1.66015-.50781-.48828,0-.97657,0-1.17188.01953-.60547.03907-.60547.3125-.60547,1.42578Zm-3.457,1.34766c0,.42969,0,.78125.01953,1.01563.03907.52734.48829.52734,1.75782.52734.48828,0,.957,0,1.15234-.01953.52734-.03906.52734-.39063.52734-1.52344Zm6.34766-1.25a.897.897,0,0,1-.85938-.87891.65169.65169,0,0,1,.41016-.60546,9.19461,9.19461,0,0,0,2.14844-1.50391.90072.90072,0,0,1,1.5625.68359.94373.94373,0,0,1-.3711.72266S140.1554,32.03833,139.43274,32.03833Zm1.97266,3.76953a8.14442,8.14442,0,0,0-2.12891-1.36719.737.737,0,0,1-.54688-.68359.87392.87392,0,0,1,.918-.80078,7.42687,7.42687,0,0,1,2.8711,1.30859,1.11076,1.11076,0,0,1,.44922.85938.93467.93467,0,0,1-.89844.957A1.05542,1.05542,0,0,1,141.4054,35.80786Z"/><path d="M152.66028,43.63989c-3.90625,0-4.0625-2.26562-4.0625-4.19922,0-2.22656.23437-5.05859.23437-7.36328a18.47985,18.47985,0,0,0-.11718-2.22656c0-.05859-.01954-.13672-.01954-.19531a.96246.96246,0,0,1,1.01563-.97656,1.06029,1.06029,0,0,1,1.09375.9375q.05859.64452.05859,1.40625c0,2.40234-.41015,5.46875-.41015,8.08593,0,1.60157.07812,2.57813,2.01172,2.57813a13.42752,13.42752,0,0,0,4.668-1.01563,1.56128,1.56128,0,0,1,.60547-.13672.91793.91793,0,0,1,.957.9375,1.34435,1.34435,0,0,1-.957,1.23047A15.222,15.222,0,0,1,152.66028,43.63989Z"/><path d="M171.08411,43.19067c-.97657,0-2.65625-.293-2.65625-2.07031a3.74474,3.74474,0,0,1,.15625-.97656,5.67356,5.67356,0,0,0,.332-1.52344c0-.44922-.15625-.60547-.42969-.60547a4.9472,4.9472,0,0,0-3.418,3.53516c-.48828,1.50391-.99609,1.64062-1.52344,1.64062a.89168.89168,0,0,1-.957-.8789,1.68166,1.68166,0,0,1,.17578-.66406,64.30893,64.30893,0,0,1,3.26172-5.78125c1.09375-1.73829,1.97266-3.39844,2.85157-4.90235.3125-.54687.80078-1.25.99609-1.62109a.91694.91694,0,0,1,.83984-.52735,1.114,1.114,0,0,1,1.11328,1.05469c0,.39063-.19531.78125-1.05468,1.83594a28.8999,28.8999,0,0,0-2.168,2.98828c-.58594.918-1.05469,1.73828-1.48438,2.36328-.03906.0586-.05859.07813-.05859.09766h.01953a.70511.70511,0,0,1,.09766-.07813,3.06721,3.06721,0,0,1,1.75781-.52734c.918,0,1.79687.42969,1.79687,1.97266V38.718a7.55417,7.55417,0,0,1-.37109,1.52344,1.53213,1.53213,0,0,0-.03906.27343c0,.54688.42969.80078,1.05469.80078,1.89453,0,4.19921-2.07031,4.82421-4.707a1.02718,1.02718,0,0,1,1.03516-.8789,1.05011,1.05011,0,0,1,1.09375,1.01562,1.32727,1.32727,0,0,1-.05859.3711C176.43567,42.44849,172.62708,43.19067,171.08411,43.19067Z"/><path d="M192.9054,43.46411h-.19532c-4.23828-.39062-6.91406-3.32031-6.91406-6.32812a5.4979,5.4979,0,0,1,1.40625-3.57422.402.402,0,0,0,.09766-.17578.042.042,0,0,0-.03907-.03907.66015.66015,0,0,0-.19531.07813c-3.0664,1.582-3.4375,1.69922-3.86719,1.69922a1.04547,1.04547,0,0,1-.293-2.07031c.41015-.13672,1.52343-.46875,2.10937-.6836.918-.332,2.53906-.83984,4.47266-1.60156a14.911,14.911,0,0,1,5.17578-1.21094c.97656,0,1.32812.44922,1.32812.957,0,.9961-.82031,1.21094-1.5625,1.21094a3.61035,3.61035,0,0,1-.44922-.01953,3.76366,3.76366,0,0,0-.46875-.01953c-3.02734,0-5.99609,2.57812-5.99609,5.19531,0,2.34375,2.22656,4.33594,5.293,4.33594.97656,0,1.44531.5664,1.44531,1.15234C194.25305,42.91724,193.80383,43.46411,192.9054,43.46411Zm1.67968-6.85547a7.40292,7.40292,0,0,0-1.66015-1.21093.6554.6554,0,0,1-.48828-.60547.82642.82642,0,0,1,.85937-.76172c.25391,0,2.63672.89844,2.63672,1.91406a.93319.93319,0,0,1-.83984.918A.67473.67473,0,0,1,194.58508,36.60864Zm2.2461-1.62109a6.85721,6.85721,0,0,0-1.69922-1.15234.67851.67851,0,0,1-.50781-.60547.84178.84178,0,0,1,.85937-.78125c.3125,0,2.65625.83984,2.65625,1.85547a.90211.90211,0,0,1-.82031.918A.71494.71494,0,0,1,196.83118,34.98755Z"/><path d="M207.96887,44.38208a.97842.97842,0,0,1-.918-.64453,27.49048,27.49048,0,0,0-3.92578-6.15234,3.50344,3.50344,0,0,1-.918-2.05079,2.976,2.976,0,0,1,.76172-1.8164,46.73107,46.73107,0,0,0,3.65235-5.13672.92477.92477,0,0,1,.82031-.50781,1.2519,1.2519,0,0,1,1.23047,1.15234,1.06665,1.06665,0,0,1-.17578.56641c-.78125,1.25-2.96875,3.6914-4.00391,4.9414a1.11639,1.11639,0,0,0-.3125.72266,1.68417,1.68417,0,0,0,.46875.99609c1.99219,2.57813,3.53516,4.043,4.43359,6.26953a1.548,1.548,0,0,1,.09766.48829A1.2213,1.2213,0,0,1,207.96887,44.38208Z"/><path d="M221.11829,32.58521a92.75923,92.75923,0,0,1-4.53125,10.2539.99613.99613,0,0,1-.9375.54688.92939.92939,0,0,1-1.01563-.83985,1.06813,1.06813,0,0,1,.15625-.54687,60.43761,60.43761,0,0,0,4.23828-8.82813l-.21484.0586a6.03038,6.03038,0,0,1-1.66016.2539c-.19531,0-1.71875,0-1.71875-1.05468a.92444.92444,0,0,1,.85938-.9961,1.19934,1.19934,0,0,1,.58593.15625,1.08125,1.08125,0,0,0,.50782.11719,8.71084,8.71084,0,0,0,2.28515-.54688,7.37813,7.37813,0,0,0,.13672-1.5625.97947.97947,0,0,1,1.07422-.918.83008.83008,0,0,1,.918.70312,1.78714,1.78714,0,0,1,.01953.332,2.49058,2.49058,0,0,1-.01953.3711.98914.98914,0,0,1,.25391-.03907.92573.92573,0,0,1,.918.89844c0,.50781-.35156.85938-1.79687,1.50391Zm5.957,10.99609c-3.20313,0-5.3125-1.69922-5.3125-2.69531a1.02922,1.02922,0,0,1,.957-1.03516.94663.94663,0,0,1,.76172.42969c.74218.99609,1.36718,1.13281,3.92578,1.30859a.9673.9673,0,0,1,.99609.97656C228.40344,43.5813,227.38782,43.5813,227.07532,43.5813Zm1.13281-7.34375a10.99,10.99,0,0,0-3.457-.89844,2.38315,2.38315,0,0,0-.66406.07813,1.00788,1.00788,0,0,1-.21485.03906.76731.76731,0,0,1-.74219-.80078c0-.3125.09766-1.03516,1.83594-1.03516a11.09531,11.09531,0,0,1,3.96485.87891.90586.90586,0,0,1,.625.85937.954.954,0,0,1-.9375.957A1.02007,1.02007,0,0,1,228.20813,36.23755Zm-.44922-4.43359a6.72028,6.72028,0,0,0-1.582-1.15235.616.616,0,0,1-.44922-.58594.79862.79862,0,0,1,.82031-.72265c.27344,0,2.48047.8789,2.48047,1.83594a.89.89,0,0,1-.78125.8789A.61086.61086,0,0,1,227.75891,31.804Zm1.75781-1.75782a7.03742,7.03742,0,0,0-1.60156-1.09375.65281.65281,0,0,1-.48828-.58593.78487.78487,0,0,1,.82031-.72266c.42969,0,2.51953.85937,2.51953,1.75781a.85568.85568,0,0,1-.78125.85938A.61577.61577,0,0,1,229.51672,30.04614Z"/><path d="M240.34192,32.09692a6.46513,6.46513,0,0,1-.957-2.207.83538.83538,0,0,1,.89844-.83984,1.19125,1.19125,0,0,1,1.13281.9375,9.66144,9.66144,0,0,0,.70312,1.66016c.293-.09766.58594-.19532.87891-.3125a1.63068,1.63068,0,0,1,.56641-.11719.88755.88755,0,0,1,.918.89844c0,.74218-.52734.89843-1.48437,1.17187,1.69922,3.02734,2.67578,4.82422,2.67578,6.05469,0,.78125-.39062,1.09375-.85937,1.09375a1.57716,1.57716,0,0,1-1.01563-.41016c-.72266-.60547-3.125-1.05469-4.51172-1.05469-1.5625,0-2.34375.76172-2.34375,1.3086,0,.85937,1.67969,1.44531,3.418,1.44531.3125,0,.625-.01953.9375-.03906h.17578c.76172,0,1.13281.44922,1.13281.9375a1.16779,1.16779,0,0,1-1.26953,1.11328c-3.98437,0-6.32812-1.543-6.32812-3.30078,0-.957,1.03515-3.10547,4.43359-3.10547a24.81188,24.81188,0,0,1,3.61328.42969c.07813,0,.13672.01953.17578.01953s.0586-.01953.0586-.03906c0-.03907-.03906-.78125-2.01172-4.043a13.3154,13.3154,0,0,1-2.168.3125c-2.26562,0-4.16016-1.9336-4.16016-2.73438a.87954.87954,0,0,1,.9375-.82031,1.19383,1.19383,0,0,1,.918.42969,3.35976,3.35976,0,0,0,2.51953,1.34765,2.127,2.127,0,0,0,.3711-.01953Z"/><path d="M256.10852,41.96021a3.6573,3.6573,0,0,1-2.32422-1.01563c-1.97265-1.69922-2.53906-4.35547-2.85156-5.87891-.15625-.74218-.37109-1.93359-.37109-2.08984a.95775.95775,0,0,1,.97656-.9375,1.022,1.022,0,0,1,.97656.918c.11719.625.15625,1.28906.27344,1.91406.80078,4.55078,2.63672,4.72656,2.7539,4.72656.19532,0,.3711-.15625.54688-.625s.3125-1.03515.54687-1.66015a.76258.76258,0,0,1,.72266-.54688,1.05942,1.05942,0,0,1,1.03516.97657c0,.05859-.01953.09765-.01953.15625-.11719.64453-.50782,1.91406-.56641,2.51953A1.61661,1.61661,0,0,1,256.10852,41.96021Zm7.5-4.4336a6.88742,6.88742,0,0,0-2.55859-3.94531.779.779,0,0,1-.332-.625.84931.84931,0,0,1,.8789-.80078,1.27343,1.27343,0,0,1,.82031.332c.82032.70312,3.24219,2.85156,3.24219,4.82422a1.067,1.067,0,0,1-1.07422,1.11328A.96929.96929,0,0,1,263.60852,37.52661Z"/><path d="M271.70032,44.67505a2.22657,2.22657,0,1,1,2.22656-2.22656A2.22558,2.22558,0,0,1,271.70032,44.67505Zm0-3.69141a1.46718,1.46718,0,0,0-1.48438,1.46485,1.48438,1.48438,0,0,0,2.96875,0A1.46718,1.46718,0,0,0,271.70032,40.98364Z"/></svg>