<svg id="レイヤー_1" data-name="レイヤー 1" xmlns="http://www.w3.org/2000/svg" width="95" height="95.00397" viewBox="0 0 95 95.00397"><defs><style>.cls-1{fill:#d61521;}.cls-2{fill:#fff;}.cls-3{fill:none;stroke:#fff;stroke-linecap:round;stroke-miterlimit:10;stroke-width:0.82467px;}</style></defs><title>sdgs_01</title><rect class="cls-1" width="95" height="95.00397"/><path class="cls-2" d="M74.92786,48.06037a2.6294,2.6294,0,1,1,2.63237,2.63051,2.63269,2.63269,0,0,1-2.63237-2.63051"/><path class="cls-2" d="M80.6295,51.70562a3.50413,3.50413,0,0,1,3.18282,3.49178v7.29a1.01865,1.01865,0,1,1-2.03729,0V56.22714c0-.23556-.06905-.55244-.49962-.55244-.29655,0-.35755.31478-.3697.51388V74.957a1.46552,1.46552,0,0,1-2.931,0V64.14285a.39767.39767,0,0,0-.41643-.43069.40482.40482,0,0,0-.42449.43069V74.957a1.46354,1.46354,0,1,1-2.92707,0V56.18858c-.01016-.1991-.07513-.51388-.36758-.51388-.43268,0-.49764.31688-.49764.55244v6.26027a1.0197,1.0197,0,1,1-2.0394,0v-7.29a3.50458,3.50458,0,0,1,3.187-3.49178,1.37928,1.37928,0,0,1,.19291-.01624h5.74837a1.47362,1.47362,0,0,1,.19911.01624"/><path class="cls-2" d="M59.28859,49.44158A2.4903,2.4903,0,1,0,56.80028,51.934a2.49066,2.49066,0,0,0,2.48831-2.49241"/><path class="cls-2" d="M51.782,55.08309,49.7121,61.82277s-.3697,1.23492.67839,1.54362c1.042.30883,1.3589-.89572,1.3589-.89572l1.6697-5.62651s.09137-.43255.41643-.33709c.32494.09137.20308.55455.20308.55455L51.134,67.60152h2.70155v7.55a1.29691,1.29691,0,0,0,2.59382,0v-7.55h.73728v7.55a1.298,1.298,0,0,0,2.59593,0v-7.55H62.4641l-2.90462-10.5399s-.12187-.46318.20307-.55455c.327-.09546.41643.33709.41643.33709l1.6697,5.62651s.31689,1.20455,1.3589.89572c1.05007-.3087.6784-1.54362.6784-1.54362l-2.0699-6.73968s-.73927-1.9479-2.37847-1.9479H54.16046c-1.63709,0-2.37847,1.9479-2.37847,1.9479"/><path class="cls-2" d="M44.3721,49.44158A2.48931,2.48931,0,1,0,41.88378,51.934a2.49066,2.49066,0,0,0,2.48832-2.49241"/><path class="cls-2" d="M36.86438,55.08309,34.7966,61.82277s-.37181,1.23492.67839,1.54362c1.03991.30883,1.35679-.89572,1.35679-.89572l1.67168-5.62651s.08939-.43255.41446-.33709c.327.09137.20307.55455.20307.55455l-2.90463,10.5399h2.70156v7.55a1.2979,1.2979,0,0,0,2.5958,0v-7.55h.7374v7.55a1.29691,1.29691,0,0,0,2.59382,0v-7.55h2.70353l-2.90462-10.5399s-.12187-.46318.20109-.55455c.32506-.09546.41842.33709.41842.33709l1.66772,5.62651s.31688,1.20455,1.35889.89572c1.05008-.3087.6784-1.54362.6784-1.54362l-2.0699-6.73968s-.73728-1.9479-2.37649-1.9479H39.245c-1.63722,0-2.38058,1.9479-2.38058,1.9479"/><path class="cls-2" d="M67.65272,63.38015a2.07281,2.07281,0,1,0-2.074-2.07386,2.07176,2.07176,0,0,0,2.074,2.07386"/><path class="cls-2" d="M62.68254,69.81994a.71968.71968,0,0,0,.30052.98114.69195.69195,0,0,0,.88977-.29047l1.12731-3.59318s.195-.23977.195.008v8.4601h.00607a1.06334,1.06334,0,1,0,2.12668,0V72.04617s-.063-.47123.31886-.47123c.37987,0,.321.47123.321.47123v3.33941a1.06532,1.06532,0,0,0,2.13064,0v-8.4601c0-.24782.132-.071.132-.071l.88358,2.46178a5.91427,5.91427,0,0,0,.50173,1.14764.78236.78236,0,0,0,1.02577-.42449.77328.77328,0,0,0-.08319-.75762l.00806-.00607c-.0264-.07922-1.32034-3.2561-1.47258-3.70092-.46726-1.365-1.31836-1.35282-2.13684-1.37514-.8206-.02033-1.31018,0-1.31018,0s-.524-.02231-1.60672.01017c-1.07859.03248-1.42188.587-2.61216,3.65207-.1706.44284-.74535,1.87079-.75353,1.95609Z"/><path class="cls-2" d="M22.13051,48.06037a2.62946,2.62946,0,1,0-2.6325,2.63051,2.6328,2.6328,0,0,0,2.6325-2.63051"/><path class="cls-2" d="M16.42763,51.70562a3.50414,3.50414,0,0,0-3.18295,3.49178v7.29a1.01964,1.01964,0,1,0,2.03928,0V56.22714c0-.23556.06707-.55244.49763-.55244.29655,0,.35755.31478.3697.51388V74.957a1.46453,1.46453,0,1,0,2.92905,0V64.14285a.40067.40067,0,0,1,.41841-.43069h.002a.40124.40124,0,0,1,.42052.43069V74.957a1.46453,1.46453,0,1,0,2.92905,0V56.18858c.00806-.1991.07711-.51388.36969-.51388.43256,0,.49764.31688.49764.55244v6.26027a1.01865,1.01865,0,1,0,2.03729,0v-7.29a3.50294,3.50294,0,0,0-3.187-3.49178,1.3481,1.3481,0,0,0-.19092-.01624H16.62872a1.50109,1.50109,0,0,0-.20109.01624"/><line class="cls-3" x1="14.12974" y1="63.5531" x2="11.80396" y2="75.92326"/><path class="cls-2" d="M27.00436,62.2945a.75576.75576,0,0,0-1.39547.40019,1.35788,1.35788,0,0,0,.07513.33114l2.08812,3.78a1.35009,1.35009,0,0,1,.12794.49974v8.12078h.00409a1.0207,1.0207,0,1,0,2.04139,0V72.2211s-.05691-.453.30869-.453.30672.453.30672.453v3.20527a1.02373,1.02373,0,0,0,2.04746,0V67.30559a1.36641,1.36641,0,0,1,.126-.49974l1.93166-3.48954a3.40154,3.40154,0,0,0,.23766-.62162.7554.7554,0,0,0-.75761-.75352.744.744,0,0,0-.63786.35333l-.01016-.004c-.06088.05071-1.02776,1.77521-1.34663,2.0942a.84187.84187,0,0,1-.63984.30262H28.999a.84174.84174,0,0,1-.63984-.30262c-.32295-.319-1.28785-2.04349-1.34873-2.0942Z"/><path class="cls-2" d="M30.25413,63.38015a2.07281,2.07281,0,1,0-2.07188-2.07386,2.0705,2.0705,0,0,0,2.07188,2.07386"/><polygon class="cls-2" points="30.258 66.29 32.602 67.999 33.713 72.098 30.258 72.098 26.799 72.098 27.914 67.999 30.258 66.29"/><polygon class="cls-2" points="13.706 12.495 13.735 12.495 13.735 27.158 16.954 27.158 16.954 8.002 14.383 8.002 11.417 11.477 11.417 14.839 11.445 14.839 13.706 12.495"/><path class="cls-2" d="M32.0002,13.6171H28.86412v.32916H32.0002Zm0-.85505H28.86412v.33708H32.0002Zm-.00607-.86945h-3.128v.33722h3.128Zm1.47679-1.36906a5.35419,5.35419,0,0,1-.98932-.63165,2.65451,2.65451,0,0,1-.09943.54239c-.20518.72712-1.0197.77187-1.57622.79208l-.33523-.63166c.28241,0,.86733,0,.99738-.36362a1.65582,1.65582,0,0,0,.06905-.323H30.4789A3.625,3.625,0,0,1,29.10785,11.269h3.75361v3.30891h-.89771a3.6425,3.6425,0,0,0,1.80162.64789l-.49963.82679a7.87473,7.87473,0,0,1-2.34611-1.02168l.47941-.453H29.33733l.457.40825a.22493.22493,0,0,1,.08133.126c0,.069-.08133.09546-.12794.09546a.21308.21308,0,0,1-.124-.03459,8.50628,8.50628,0,0,1-2.07584.89783l-.50372-.77584a4.13969,4.13969,0,0,0,1.78129-.71707h-.76171v-2.7747a3.8795,3.8795,0,0,1-.62149.23977l-.44284-.711a3.51378,3.51378,0,0,0,2.33793-1.42386H28.18771a4.09562,4.09562,0,0,1-.847.47334L26.73335,9.768A4.04612,4.04612,0,0,0,28.925,7.84852l.92014.30263a.11208.11208,0,0,1,.07724.11368c0,.1179-.12187.16055-.19712.16861a4.87792,4.87792,0,0,1-.77584.81861h2.77048a9.29984,9.29984,0,0,1-.86113-.92424l.81452-.48747a5.272,5.272,0,0,0,2.36025,1.87277Z"/><path class="cls-2" d="M40.24854,14.22049a7.42437,7.42437,0,0,1-1.17206-1.74272v2.44356H38.2844V12.50418a5.68728,5.68728,0,0,1-1.27162,1.69809l-.57078-.59521a5.46974,5.46974,0,0,0,1.60672-2.27693H36.74066v-.74547H38.2539v-1.166l.80026.07315c.06906.00818.1422.01624.1422.124a.16626.16626,0,0,1-.09744.12385v.845h1.47866v.74547H39.2979a6.26332,6.26332,0,0,0,1.56,2.25871Zm.61753-5.00489H36.43394v5.93719h4.43213ZM35.57467,8.397h6.1891v7.55606h-6.1891Z"/><path class="cls-2" d="M49.48708,12.03245a.22535.22535,0,0,1-.11381-.04265c-.54028.18287-1.58639.59719-2.082.8227v1.35282l-.88755-.00607c.00608-.124.00608-.256.00608-.40428V13.2634c-.60128.28031-.90192.63984-.90192,1.04412,0,.35135.34539.5362,1.02986.5362a11.375,11.375,0,0,0,2.19164-.15646l.01228.98114a9.12323,9.12323,0,0,1-1.93378.10563c-1.47258,0-2.212-.46317-2.212-1.40563a1.73246,1.73246,0,0,1,.61752-1.26344,5.40286,5.40286,0,0,1,1.14356-.75761c-.01426-.394-.13613-.59509-.35346-.59509a1.08649,1.08649,0,0,0-.77385.333,6.48777,6.48777,0,0,0-.579.59719c-.2782.30672-.4509.518-.55851.6236-.13414-.15844-.3454-.394-.62161-.71906a6.37129,6.37129,0,0,0,1.89509-2.38256c-.40007.05281-.8449.08728-1.32431.11368-.03248-.331-.07513-.63983-.12187-.912A12.7186,12.7186,0,0,0,45.642,9.31676a7.11444,7.11444,0,0,0,.25588-1.21062l1.0176.2275a.10571.10571,0,0,1,.08938.10563c0,.05281-.03855.09756-.11976.132-.03657.15038-.10773.37788-.20518.67443a11.56911,11.56911,0,0,0,1.4096-.323l-.08529.96478c-.41234.08938-.97085.17666-1.66152.27212a5.57208,5.57208,0,0,1-.46714.87961,1.51075,1.51075,0,0,1,.42858-.061c.46107,0,.76171.30672.89573.94048.60128-.31688,1.28785-.64182,2.03121-.97494l.34738.98313c0,.06905-.0305.1055-.09137.1055"/><path class="cls-2" d="M32.80468,22.41491a4.64072,4.64072,0,0,0-1.82814-1.01164l.43478-.87738a4.62574,4.62574,0,0,1,1.87476,1.01152ZM30.7938,25.352a1.27838,1.27838,0,0,0-.5362-.09546c-.28651,0-.646.08728-.66017.49962-.01426.40627.41433.58913.71088.58913.27622,0,.48139-.061.49565-.43874.00608-.18287-.00211-.3697-.01016-.55455m1.87277,1.26542a6.3641,6.3641,0,0,0-.99937-.9039,2.76249,2.76249,0,0,1-.002.28849c-.03261.90589-.62161,1.15173-1.3,1.15173a2.18885,2.18885,0,0,1-.711-.11381,1.33918,1.33918,0,0,1-.88555-1.24719,1.31084,1.31084,0,0,1,1.37315-1.33448,3.67625,3.67625,0,0,1,.61541.05083c-.00818-.41234-.02231-.82468-.00607-1.23913a1.79652,1.79652,0,0,1,.1117-.59719h.67839c.04265,0,.26407-.03447.26.07116a.081.081,0,0,1-.00806.03657,1.09579,1.09579,0,0,0-.15645.53421c-.01624.46516-.0041.92213.01624,1.38729a5.40473,5.40473,0,0,1,1.59457,1.0461c-.18485.29854-.37577.59719-.581.86932m-2.10225-5.3726c-.36771.10562-.72923.193-1.09694.26208a18.19819,18.19819,0,0,1-1.6392,4.12132c-.28031-.14009-.55851-.30672-.82866-.47532a14.314,14.314,0,0,0,1.50507-3.53839,7.62584,7.62584,0,0,1-1.12124.09348c-.03855-.30473-.08331-.61343-.12187-.92821a3.518,3.518,0,0,0,.41433.01624,6.72514,6.72514,0,0,0,1.04821-.07116,9.43339,9.43339,0,0,0,.20109-1.51733c.35333.05281.70071.09546,1.046.17468-.08938.40428-.17864.81861-.30051,1.22078a7.35227,7.35227,0,0,0,.90378-.30064c0,.31081-.01.62571-.01.94247"/><path class="cls-2" d="M38.29853,27.19045a14.50359,14.50359,0,0,0-2.208-2.606,6.59114,6.59114,0,0,0-.63984-.58293,1.91184,1.91184,0,0,1-.36969-.34329.764.764,0,0,1-.132-.47942,1.01228,1.01228,0,0,1,.36362-.73728c.3697-.37986.75353-.72922,1.11715-1.11714.5383-.587,1.08466-1.17207,1.61081-1.79157.21522.18894.42858.36969.64182.55851a1.4704,1.4704,0,0,1,.24585.21745.11726.11726,0,0,1,.03446.07711c-.002.126-.16861.14022-.25192.11989-.50569.46515-1.02776.916-1.54163,1.38927-.21733.195-.41644.41036-.62968.60946a4.04129,4.04129,0,0,0-.3087.28229.579.579,0,0,0-.18893.34738.33264.33264,0,0,0,.12992.266c.30883.30474.65608.56868.973.85717a15.43751,15.43751,0,0,1,1.95411,2.19573c-.27015.24176-.53223.49764-.80027.73729"/><path class="cls-2" d="M44.18886,23.36989a2.06418,2.06418,0,0,0-.67641,1.887c.1422.85717,1.176.97507,1.7183.97507.1727,0,.35346-.00818.53421-.02641-.08319.33313-.18075.65807-.26394.983h-.15844c-1.06037,0-2.57969-.19093-2.71581-1.828a2.99612,2.99612,0,0,1,.6236-2.25871,15.59372,15.59372,0,0,0-2.63647.61343c-.04885-.33523-.124-.66426-.18894-.99131a6.67928,6.67928,0,0,0,1.39745-.329,9.964,9.964,0,0,0,1.82207-1.83013,12.21407,12.21407,0,0,1-1.58639.04265c.004-.3087,0-.61951-.01835-.92213a9.86412,9.86412,0,0,0,2.38467-.01624,2.26254,2.26254,0,0,0,.59918-.21126c.15236.27622.30275.5626.43875.847a20.589,20.589,0,0,0-2.28512,2.05353c1.11714-.14418,2.2364-.24572,3.35156-.31886-.01426.35135-.01215.70691-.0305,1.05825a3.93336,3.93336,0,0,0-2.30942.27213"/><path class="cls-2" d="M51.6455,20.936a11.22145,11.22145,0,0,0-2.17342-.8227c.14617-.329.28229-.65806.43057-.98709a8.34032,8.34032,0,0,1,2.22424.83274c-.15435.329-.30671.65608-.48139.977m-1.34464,6.58918c-.28242-.26-.56682-.528-.86734-.76369a3.68907,3.68907,0,0,0,2.212-1.56408,3.66511,3.66511,0,0,0,.31279-1.38927c.05281-.79629-.17679-1.27161-.88965-1.31823a6.33422,6.33422,0,0,0-2.23032.81452c-.04463-.13823-.35135-1.08875-.34528-1.168.0041-.063.07922-.04872.11171-.04674a4.77,4.77,0,0,0,.96477-.197,5.29179,5.29179,0,0,1,1.816-.33721c1.22475.08331,1.696,1.08664,1.6066,2.42322a4.00692,4.00692,0,0,1-2.69126,3.54645"/></svg>