<svg id="レイヤー_1" data-name="レイヤー 1" xmlns="http://www.w3.org/2000/svg" width="95" height="95.00812" viewBox="0 0 95 95.00812"><defs><style>.cls-1{fill:#009ac8;}.cls-2{fill:#fff;}</style></defs><title>sdgs_06</title><rect class="cls-1" width="95" height="95.00812"/><path class="cls-2" d="M62.61048,46.05215a4.28264,4.28264,0,0,0-3.25611.195c-4.276,1.73468-7.1868,2.35831-11.68408.95063-2.83371-.88771-5.48244-2.74432-8.61482-1.61287a17.76757,17.76757,0,0,1-6.368,1.44221l-1.357-6.96122H63.58758ZM51.676,66.72064a5.52475,5.52475,0,0,1-4.11133,1.43408,5.53154,5.53154,0,0,1-4.11741-1.43408,6.10715,6.10715,0,0,1-.76385-7.44673c.55655-1.04008,4.5237-6.99786,4.865-7.50364v-.04066a.18464.18464,0,0,1,.01625.02033l.01425-.02033v.04066c.331.50578,4.30425,6.46356,4.86092,7.50364a6.10713,6.10713,0,0,1-.76384,7.44673m13.32137-28.0381a.41665.41665,0,0,0-.31082-.13607H30.21935a.412.412,0,0,0-.30871.13607.42393.42393,0,0,0-.0874.32706l5.79127,35.02169a.40379.40379,0,0,0,.3981.33723h7.10547l.48762,5.70387-2.99216.00409,6.9593,6.95923,6.97541-6.97547-2.98806.004.48352-5.69575h7.23144a.39705.39705,0,0,0,.39612-.3433L65.08874,39.0096a.41231.41231,0,0,0-.09138-.32706"/><path class="cls-2" d="M12.05479,19.31734c.05691-1.0725.50782-1.751,1.52348-1.751,1.103,0,1.52756.67848,1.52756,1.92164v3.3354c0,1.21265-.45091,1.91959-1.55385,1.91959-1.07467,0-1.49719-.73334-1.49719-1.91959ZM13.552,27.37145c3.41654,0,4.74711-1.86473,4.74711-4.83246V19.71346c0-3.13634-1.24514-4.71871-3.56086-4.71871a2.758,2.758,0,0,0-2.657,1.556h-.02641V12.42518c0-1.1599.36773-1.97849,1.52348-1.97849,1.16,0,1.49917.67843,1.49917,1.86474V13.583h2.93723V12.56534c0-2.82559-.93233-4.802-4.4912-4.802-3.39026,0-4.66181,2.17556-4.66181,5.1697v9.32367c0,2.96773,1.30006,5.11477,4.69032,5.11477"/><path class="cls-2" d="M30.1281,12.2438c-.16241.32495-.3128.66013-.48141.9831a9.4682,9.4682,0,0,1,1.2594.47739,5.52388,5.52388,0,0,0,.71512-1.46049Zm2.76056-1.3346V9.8204H28.60674v1.0888h-.90395V9.03635h2.535V8.0207l.971.05889c.071,0,.15634,0,.15634.10768,0,.067-.07712.10358-.126.13v.71909h2.598V10.9092Zm-.22539,1.32641a8.06638,8.06638,0,0,1-.94263,1.86276,16.35316,16.35316,0,0,1,2.08412,1.237l-.60528.774a11.85549,11.85549,0,0,0-2.07606-1.41376,6.43509,6.43509,0,0,1-3.06927,1.28172L27.524,15.177a5.25284,5.25284,0,0,0,2.73824-.89583,10.868,10.868,0,0,0-1.8364-.50987,10.68205,10.68205,0,0,0,.76174-1.53569H27.36965v-.79217h2.15926a12.25047,12.25047,0,0,0,.53621-1.51939l1.0035.30871a.09872.09872,0,0,1,.07117.08735c0,.08734-.10972.12392-.17072.132-.15634.33314-.30264.66627-.46716.99129h3.65433v.79217Z"/><path class="cls-2" d="M39.12714,9.15252A7.97154,7.97154,0,0,1,37.498,11.08427h3.305a9.47855,9.47855,0,0,1-1.67585-1.93175m3.1506,3.00424a8.43709,8.43709,0,0,1-.90605-.62356v.35954H39.59231v1.08874h2.18157v.79832H39.59231v1.26752h2.75647v.78207h-6.3539v-.78207h2.6853V13.7798H36.5068v-.79832h2.17338V11.89274H36.94755V11.5332a6.9097,6.9097,0,0,1-.92019.61544l-.57489-.77389a6.94148,6.94148,0,0,0,3.21147-3.38213l.99135.16656a.13157.13157,0,0,1,.1096.1158.13707.13707,0,0,1-.03856.08735,7.90808,7.90808,0,0,0,3.18718,2.97585Z"/><path class="cls-2" d="M49.97162,11.59271A4.97224,4.97224,0,0,0,48.0581,10.5832l.45712-.87549a4.90679,4.90679,0,0,1,1.95815,1.00951Zm-2.08821,2.68134a1.3444,1.3444,0,0,0-.56672-.09751c-.29656,0-.66825.08939-.66825.50175,0,.40424.457.587.76372.587.29049,0,.50373-.0589.50373-.43877,0-.18281-.01413-.36767-.03248-.55252m2.009,1.26553a7.1368,7.1368,0,0,0-1.07864-.906c.00819.09751.00819.193.00819.29049,0,.90394-.60739,1.14973-1.31433,1.14973a2.43321,2.43321,0,0,1-.74958-.11375,1.407,1.407,0,0,1-.977-1.24725,1.28729,1.28729,0,0,1,1.38734-1.33459,4.34046,4.34046,0,0,1,.64594.05083c-.0243-.41037-.0548-.82472-.0548-1.235a1.65128,1.65128,0,0,1,.09547-.60131h.70681c.04675,0,.27636-.03248.27636.07315a.0517.0517,0,0,1-.00818.03657,1.0646,1.0646,0,0,0-.14419.53424c0,.46517.03446.92217.07314,1.38734a5.95548,5.95548,0,0,1,1.70834,1.04616c-.18089.29656-.36971.59517-.5749.86941M47.721,10.33939c-.38806.10563-.76583.193-1.1498.26209a17.83459,17.83459,0,0,1-1.71639,4.1215c-.29458-.14221-.58309-.30673-.86738-.47534a14.01833,14.01833,0,0,0,1.5763-3.53854,8.68811,8.68811,0,0,1-1.1741.09546c-.03868-.30871-.0853-.61544-.126-.93233a3.05507,3.05507,0,0,0,.43468.02033,7.64591,7.64591,0,0,0,1.09488-.07315A9.03084,9.03084,0,0,0,46.0025,8.3c.36971.05282.73322.09751,1.09686.17674-.09547.40219-.19093.8166-.3169,1.22084a9.26032,9.26032,0,0,0,.94461-.29861c0,.30878-.00607.62362-.00607.94046"/><path class="cls-2" d="M58.79919,15.09877a9.07156,9.07156,0,0,1-2.53306-3.78433c0,1.01769.00818,2.02727.00818,3.047,0,1.168-.36363,1.65149-1.39552,1.84645l-.6602-.7556a3.48424,3.48424,0,0,0,.50373-.08735c.56883-.20314.59722-.61755.59722-1.21476,0-1.5011-.00608-3.01243-.00608-4.51557V8.15987l1.00958.15838a.1115.1115,0,0,1,.09956.10563.22347.22347,0,0,1-.15647.18281v2.12882a20.91544,20.91544,0,0,0,2.0618-1.25736c.071.10564.59115.88566.59115.88566a.43456.43456,0,0,1,.07922.17674.101.101,0,0,1-.10563.08933.27189.27189,0,0,1-.14022-.06293c-.55048.18281-1.09277.40418-1.63519.59716a6.99518,6.99518,0,0,0,2.43957,3.12822Zm-3.99145-4.09311a8.19937,8.19937,0,0,1-1.08681,2.78492,4.59055,4.59055,0,0,1-1.07864,1.14974l-.73942-.59722a4.70413,4.70413,0,0,0,.65413-.589,5.70066,5.70066,0,0,0,1.33862-2.89055H52.25845V10.049H54.8706v.59722a1.78079,1.78079,0,0,1-.06286.35948"/><path class="cls-2" d="M64.03155,15.69629c-1.10715,0-2.87028-.1665-2.87028-1.8444A2.58906,2.58906,0,0,1,62.961,11.585,13.1671,13.1671,0,0,1,62.65226,8.475c.23557.01828.47324.03657.70682.05486.11381.00607.22961.01624.34541.03248.03856.01017.0853.02641.0853.08127a.16814.16814,0,0,1-.05282.09546,5.67015,5.67015,0,0,0-.04674.80848,5.1261,5.1261,0,0,0,.1463,1.57221.09953.09953,0,0,0,.071.0264,8.79455,8.79455,0,0,0,1.9501-.78207c.11369.37783.19093.774.28639,1.162-.96692.21734-4.04029.78-4.04029,2.23036,0,.8166,1.1436.975,1.67994.975a6.79607,6.79607,0,0,0,2.48223-.39612c.04463.36972.0853.7455.10972,1.12532a11.73594,11.73594,0,0,1-2.34411.23562"/><path class="cls-2" d="M72.054,13.57219a11.19642,11.19642,0,0,0-2.2122-1.42187c0,.1422-.008.28435-.008.42048v2.00694c0,.52809.01624,1.06642.0243,1.59253H68.79973c.05282-1.14564.061-2.29135.061-3.439,0-1.33459-.00818-2.66919-.03856-3.9956l1.08868.11779a.10372.10372,0,0,1,.10365.10767.19367.19367,0,0,1-.11989.1605c-.02232.81455-.03657,1.63115-.05282,2.44366a3.03041,3.03041,0,0,0,.26408-.43877,10.50619,10.50619,0,0,1,2.54521,1.50724c-.20308.31076-.4022.62561-.59709.93841"/><path class="cls-2" d="M79.19008,9.4789A10.294,10.294,0,0,1,77.7762,11.173v4.993h-.99532l.02232-4.23122a12.22486,12.22486,0,0,1-.99532.71705,10.71427,10.71427,0,0,1-1.16195.64395l-.62759-.87753a7.91389,7.91389,0,0,0,1.57828-.81456,8.83244,8.83244,0,0,0,1.426-1.16393,7.77037,7.77037,0,0,0,1.32028-1.78551l.95267.61141a.11015.11015,0,0,1,.05281.09547c0,.10154-.10563.11778-.15832.11778"/><path class="cls-2" d="M82.883,15.77533a3.32029,3.32029,0,0,0-.54043.32911c-.23556-.22546-.47323-.46109-.717-.66423a2.02565,2.02565,0,0,0,.10563-.73328c0-.53424-.01624-1.07665-.01624-1.61083,0-1.34878-.02244-2.78089-.03868-4.13172l1.04416.12392a.11454.11454,0,0,1,.10564.1117.22436.22436,0,0,1-.11382.16862c-.03446,1.25741-.05071,2.61228-.05071,3.8656v1.34265c0,.04469.02021.05486.05071.05486a.348.348,0,0,0,.09758-.01829A8.41722,8.41722,0,0,0,86.068,11.97073c.09745-.14016.18684-.29049.28838-.43065.01017-.01829.03249-.04469.05282-.04469.02851,0,.02851.05486.03856.08127.04475.44081.10166.88156.18485,1.32238A9.69363,9.69363,0,0,1,82.883,15.77533"/><path class="cls-2" d="M34.18786,23.37548a.22436.22436,0,0,1-.11791-.04463c-.56671.18684-1.65948.5992-2.17958.82466v1.35493l-.92825-.00812c.00806-.12392.00806-.256.00806-.40424v-.49363c-.63168.28236-.94659.64191-.94659,1.04615,0,.35142.36364.53621,1.07863.53621a7.27739,7.27739,0,0,0,2.29129-.35136l-.03037,1.0278a6.79161,6.79161,0,0,1-1.9765.256q-2.31573,0-2.31572-1.40569a1.72364,1.72364,0,0,1,.64594-1.26752,5.77813,5.77813,0,0,1,1.19642-.75362c-.01414-.39407-.1401-.59715-.36761-.59715a1.17315,1.17315,0,0,0-.81257.33307,7.21061,7.21061,0,0,0-.60726.59722c-.29048.30877-.47137.518-.58308.62362-.1401-.15845-.35954-.39407-.652-.71909a6.39621,6.39621,0,0,0,1.98456-2.38068q-.62766.07615-1.38735.11171c-.02839-.33109-.07724-.63987-.126-.91207a14.40692,14.40692,0,0,0,1.8038-.08734,6.96439,6.96439,0,0,0,.26606-1.21471l1.0645.22955c.063.01625.09546.05282.09546.10564s-.04066.09751-.126.132c-.04067.15032-.11171.37783-.21325.67644a13.4774,13.4774,0,0,0,1.47265-.323l-.08729.96284c-.4348.08939-1.01565.17878-1.73883.27424a5.30279,5.30279,0,0,1-.4896.87754,1.65375,1.65375,0,0,1,.44894-.06094c.48141,0,.79633.30673.93642.94046.6297-.31485,1.34681-.64185,2.12479-.975l.36153.98316c0,.071-.0305.10557-.09336.10557"/><path class="cls-2" d="M40.53705,22.38946h-1.0319v1.8038h1.0319Zm.92837,0v2.592h-2.8419v-2.592H37.61606V26.117h4.71462v.85925H36.69376V22.38946H35.54619v-.8409h1.14757V19.59642l.93854.05486c.0548,0,.126.03453.126.10359a.16879.16879,0,0,1-.13415.15033v1.64336h.98317V19.42173l.91411.0447c.0548,0,.126.03453.126.10365a.1804.1804,0,0,1-.126.15026v1.82822h1.00747V19.42173l.92837.0447a.11586.11586,0,0,1,.126.10365c0,.07308-.07923.132-.13415.15026v1.82822H42.672v.8409Z"/><path class="cls-2" d="M49.17752,21.75983h-1.4564v.75566h1.4564Zm0-1.51945h-1.4564v.78h1.4564Zm-2.3136,1.51945H45.48674v.75566h1.37718Zm0-1.51945H45.48674v.78h1.37718ZM50.51627,25.475a6.68932,6.68932,0,0,1-1.67585-1.0278v2.74834H47.975V23.7261c-.15844-.18485-.30871-.37783-.457-.56876h-.5201a6.18194,6.18194,0,0,1-.55853.6297l.40219.063c.04463.00812.12386.03453.12386.10359a.18112.18112,0,0,1-.132.16049,4.254,4.254,0,0,1-.63776,2.336,2.85185,2.85185,0,0,1-1.11112.89582l-.70694-.60534c1.14968-.43269,1.48691-1.1436,1.54183-2.45178a6.76532,6.76532,0,0,1-1.77132,1.168l-.5444-.72925a6.49956,6.49956,0,0,0,1.37111-.71909,3.65152,3.65152,0,0,0,.88969-.85113h-1.2594V19.4929h5.47028v3.66444H48.619a5.50365,5.50365,0,0,0,2.466,1.5174Z"/><path class="cls-2" d="M57.60389,21.53734H55.83257v2.38273h1.77132Zm-2.69969,0H53.18781v2.38273H54.9042Zm.93655,3.17286v2.529h-.92638v-2.529H52.27581V20.71262h2.598V19.22975l.977.07724a.11806.11806,0,0,1,.124.10563.17089.17089,0,0,1-.134.15027v1.14973H58.5423V24.7102Z"/><path class="cls-2" d="M66.44261,21.497a5.95923,5.95923,0,0,0-1.76115-.10768,8.07523,8.07523,0,0,0-1.21675.21331c-.0305-.32706-.05281-.73533-.09348-1.06239a9.2799,9.2799,0,0,1,1.72457-.20717,6.29805,6.29805,0,0,1,1.43409.07308c-.02839.36159-.05071.72926-.08728,1.09085m.19093,5.08229a6.12372,6.12372,0,0,1-1.38945.07717c-1.08471-.03248-2.09627-.2112-2.22831-1.87484.25391-.191.51191-.39611.77389-.57892.0021.9425.44087,1.369,1.14979,1.38939a4.7906,4.7906,0,0,0,1.71032-.20519c-.00607.39612-.01215.79019-.01624,1.19239m-4.91572.26c-.27425.02846-.54849.065-.82881.09956a11.658,11.658,0,0,1-.39612-3.45119A22.24639,22.24639,0,0,1,60.889,19.6038l.6602.1564a2.08635,2.08635,0,0,1,.32693.08332.11357.11357,0,0,1,.08543.11778.126.126,0,0,1-.124.11983,17.96609,17.96609,0,0,0-.44076,4.03012c0,.32706.01625.65.01625.98112.13613-.4144.26408-.83489.41025-1.24725.18895.17476.37988.35757.56882.53021a8.6064,8.6064,0,0,0-.67433,2.46393"/></svg>