<svg id="レイヤー_1" data-name="レイヤー 1" xmlns="http://www.w3.org/2000/svg" width="95" height="95.00812" viewBox="0 0 95 95.00812"><defs><style>.cls-1{fill:#006dac;}.cls-2{fill:#fff;}</style></defs><title>sdgs_14</title><rect class="cls-1" width="95" height="95.00812"/><path class="cls-2" d="M59.21576,70.793a3.15969,3.15969,0,1,1,3.16276-3.16071A3.16166,3.16166,0,0,1,59.21576,70.793m13.72556-1.47271C71.74478,67.70542,64.02176,57.85768,53.195,57.85768c-9.403,0-19.4619,8.52945-19.4619,8.52945s-3.77832-7.73319-11.50741-8.47868c-.04675,0-.09336-.00813-.14419-.00813h-.04873a.31254.31254,0,0,0-.29458.30469.8629.8629,0,0,0,.11989.28441c.9973,1.65347,3.54053,6.36,3.54053,11.0604,0,4.71673-2.55947,9.4334-3.5466,11.08079l-.06509.10359a.31394.31394,0,0,0-.04873.16452.30569.30569,0,0,0,.28441.3027l.0853-.00614a.28979.28979,0,0,0,.08121-.00812c7.75154-.72107,11.544-8.47862,11.544-8.47862S43.792,81.23793,53.195,81.23793c10.82676,0,18.54978-9.84774,19.74632-11.46061.03248-.04265.05889-.0812.08319-.10966a.32044.32044,0,0,0,.02442-.11784.30334.30334,0,0,0-.02442-.11778c-.0243-.03453-.05071-.07111-.08319-.11177"/><path class="cls-2" d="M33.0238,49.03265a.37864.37864,0,0,1,.08319-.08734.336.336,0,0,1,.17073-.05685.30854.30854,0,0,1,.21114.0853c.0021.00614.01016.01017.01425.01426,5.903,5.62669,12.09434,1.06642,13.38225,0l.126-.11989a.33446.33446,0,0,1,.11778-.02027.34488.34488,0,0,1,.12386.02027l.12807.11989c1.28779,1.06642,7.47518,5.62669,13.38213,0,0-.00409.0062-.00812.01016-.01426a.29664.29664,0,0,1,.20928-.0853.31734.31734,0,0,1,.1706.05685.32629.32629,0,0,1,.08741.08734c1.1436,1.12538,6.08783,5.383,11.32045.83694a.31009.31009,0,0,0,.09137-.21939V47.4889a.30859.30859,0,0,0-.30871-.30877.28377.28377,0,0,0-.06708.0142c-.04872.02237-.09757.04878-.15646.07724a9.52109,9.52109,0,0,1-11.11935-1.56006c-.04054-.03862-.0853-.07922-.12993-.12392a.26928.26928,0,0,0-.132-.03049.1964.1964,0,0,0-.09547.02442.25811.25811,0,0,0-.15646.11574c-1.34879,1.02581-7.54015,5.21841-13.05308.07519l-.08134-.08127a.31823.31823,0,0,0-.22341-.0853.30581.30581,0,0,0-.21535.0853l-.0853.08127c-5.511,5.14322-11.70839.95062-13.05519-.07519a.24949.24949,0,0,0-.15237-.11574.21816.21816,0,0,0-.09944-.02442.26475.26475,0,0,0-.12807.03049c-.04463.0447-.08939.0853-.134.12392A9.51808,9.51808,0,0,1,22.142,47.27157c-.05678-.02846-.1096-.05487-.15845-.07724a.25938.25938,0,0,0-.06087-.0142.3104.3104,0,0,0-.31082.30877v2.1613a.30849.30849,0,0,0,.08939.21939c5.22864,4.54607,10.17685.28844,11.32255-.83694"/><path class="cls-2" d="M21.98306,39.35024a.40841.40841,0,0,0-.061-.01215.31126.31126,0,0,0-.31082.3128v2.15522a.30748.30748,0,0,0,.09149.22342c5.22654,4.54,10.17475.28646,11.32045-.83892a.28587.28587,0,0,1,.08319-.08734.31786.31786,0,0,1,.17073-.05685.30827.30827,0,0,1,.21114.0853c.0021.00409.01016.00812.01425.01221,5.905,5.63481,12.09447,1.07045,13.38424,0l.126-.1158a.25562.25562,0,0,1,.11778-.02436.26716.26716,0,0,1,.12188.02436l.12807.1158c1.28779,1.07045,7.47717,5.63481,13.38213,0,0-.00409.0062-.00812.01016-.01221a.30037.30037,0,0,1,.20928-.0853.31356.31356,0,0,1,.17271.05685.32563.32563,0,0,1,.08728.08734c1.1436,1.12538,6.08784,5.37891,11.31847.83892a.316.316,0,0,0,.09137-.22342V39.65089a.30783.30783,0,0,0-.30673-.3128.41355.41355,0,0,0-.06905.01215c-.04873.02845-.09745.05281-.15647.08127a9.51219,9.51219,0,0,1-11.11935-1.562c-.04054-.03862-.0853-.07922-.12993-.12392a.3143.3143,0,0,0-.132-.02845.47343.47343,0,0,0-.09348.0142.33907.33907,0,0,0-.15634.12187c-1.3509,1.02786-7.54027,5.21842-13.05519.07724l-.07923-.07922a.349.349,0,0,0-.22354-.09349.33784.33784,0,0,0-.21733.09349l-.0853.07922c-5.511,5.14118-11.70839.95062-13.05519-.07724a.32681.32681,0,0,0-.15237-.12187.51271.51271,0,0,0-.09745-.0142.3359.3359,0,0,0-.132.02845,1.51406,1.51406,0,0,1-.132.12392,9.5092,9.5092,0,0,1-11.11737,1.562c-.05678-.02846-.1096-.05282-.15832-.08127"/><polygon class="cls-2" points="12.722 8.007 12.722 27.154 9.503 27.154 9.503 12.496 9.474 12.496 7.215 14.843 7.187 14.843 7.187 11.481 10.15 8.007 12.722 8.007"/><path class="cls-2" d="M16.6215,21.5366l2.88243-7.88351h.02839V21.5366Zm5.90509,5.6226V24.0513h1.29994V21.5366H22.52659V8.002H19.36173L13.796,22.07282V24.0513h5.67956v3.1079Z"/><path class="cls-2" d="M36.25127,11.13733H35.585L35.50788,12.419h.73534c.008-.17059.008-.34125.008-.52Zm-.78405,2.04953-.08133,1.33664h.74153a7.80057,7.80057,0,0,0,.09943-1.33664Zm-1.32449-2.04953L34.04528,12.419h.67446l.06906-1.28171Zm-.15832,2.04953-.1158,1.33664h.72715l.08331-1.33664Zm3.07733,0c-.00608.44081-.02839.87753-.07514,1.3163H37.531v.79832h-.72108a1.80453,1.80453,0,0,1-.8572.98316l-.67446-.50987a1.39157,1.39157,0,0,0,.63578-.47329H32.9788c.0915-.69876.1463-1.4057.21535-2.11462H32.603V12.419h.63788l.1158-1.57629a3.36247,3.36247,0,0,1-.36773.43877l-.58494-.49363a7.2194,7.2194,0,0,0,1.39553-2.95347l.95875.3839a.13274.13274,0,0,1,.08331.10768.165.165,0,0,1-.16254.15231c-.07513.17878-.16663.35142-.24374.5302h3.07336v.79627H34.0981a5.91837,5.91837,0,0,1-.37579.59108h3.38617c-.00806.67037-.01426,1.35288-.02839,2.02318h.70284v.76782Zm-4.743-3.38208a8.251,8.251,0,0,0-1.18426-.85925l.587-.87753a7.92337,7.92337,0,0,1,1.12736,1.07454Zm-.6561,5.97a.73538.73538,0,0,1,.03037.18077c0,.05077-.03037.10767-.07711.10767s-.81865-.57483-.91-.63782a13.3858,13.3858,0,0,0,1.07045-2.93729l.72107.77191c-.23966.85925-.522,1.69209-.83476,2.51476m.29048-3.84936a13.96321,13.96321,0,0,0-1.27167-.85918l.5139-.85113A7.22225,7.22225,0,0,1,32.404,11.2287Z"/><path class="cls-2" d="M40.31363,11.59153a3.91883,3.91883,0,0,0-.19093,1.235c0,.36766.061,1.32436.44485,1.32436.13613,0,.25192-.17264.33524-.28844a8.55352,8.55352,0,0,0,.98714-3.89195,2.59627,2.59627,0,0,0-1.5763,1.621m2.41329,4.15194c-.21337-.26-.4043-.54031-.61755-.79218a2.42605,2.42605,0,0,0,2.0861-2.54725,2.37752,2.37752,0,0,0-1.4321-2.44974c-.18684,1.556-.55047,4.03211-1.627,4.9523a.97534.97534,0,0,1-.63788.28844,1.01067,1.01067,0,0,1-.73323-.52407,3.51461,3.51461,0,0,1-.43876-1.8444c0-2.208,1.39143-3.766,3.02451-3.766,1.50724,0,2.73217,1.18018,2.73217,3.27849a3.21666,3.21666,0,0,1-2.35626,3.40446"/><path class="cls-2" d="M51.60668,10.40014h-.67855v.43871h.67855Zm0-1.0177h-.67855V9.811h.67855Zm-1.43409,1.0177h-.63986v.43871h.63986Zm-.01016-1.0177h-.63181V9.811h.63181Zm-1.25543,5.129c.07922.2722.17469.53628.24374.8166h1.33664l.22751-.8166Zm2.45594-1.14974H48.33222v.52612h3.03072Zm-2.59-2.96159h-.67644v.43871H48.773Zm-.00818-1.0177h-.66826V9.811h.66826Zm-1.46855,2.04345V8.71412h1.45442V8.0357l.7962.065a.10881.10881,0,0,1,.1158.10359.16532.16532,0,0,1-.12386.14828v.36159h.62363V8.0357l.78814.065a.10943.10943,0,0,1,.11779.10359.15968.15968,0,0,1-.11779.14828v.36159h1.48691v2.71177Zm-.59722.31895h6.28286v.711H46.699Zm-.04463,4.286v-.70279H48.3383a5.94728,5.94728,0,0,0-.36562-.59722c.1158-.07922.24164-.15032.36153-.21938h-.81258V12.74629h4.68624v1.76518h-.88151l.325.132a.11815.11815,0,0,1,.07315.09546c0,.08939-.09546.12392-.15435.12392-.08939.14828-.1706.3169-.258.46518h1.751v.70279Z"/><path class="cls-2" d="M59.79835,13.60653c-.16043-.25186-.33921-.48954-.518-.73328.21535-.03658.75566-.16657.75566-.49766a4.22885,4.22885,0,0,0-1.06438-1.96832c.258-.16657.516-.34132.776-.50584a5.00837,5.00837,0,0,1,1.233,2.61227c0,.69876-.72926.93439-1.18228,1.09283M57.96417,15.258a1.1313,1.1313,0,0,1-.83488.26209,1.72764,1.72764,0,0,1-.72517-.16656c-.0305-.33928-.04475-.67241-.08939-1.00555a1.62451,1.62451,0,0,0,.81456.25391c.59721,0,.591-1.97439.591-2.46393,0-.3575.0062-1.00549-.41434-1.00549a1.86382,1.86382,0,0,0-.44286.0711,17.44265,17.44265,0,0,1-1.57419,4.34492c-.2885-.14215-.56274-.325-.85323-.4733a12.22922,12.22922,0,0,0,1.49508-3.71521c-.34119.0711-.68053.14828-1.01354.24374-.0305-.11375-.21535-.91814-.21535-.95068,0-.02839.01624-.03651.03855-.03651.065,0,.126.01828.19093.01828a6.90777,6.90777,0,0,0,1.18625-.14834,15.42379,15.42379,0,0,0,.26408-2.08815c.23767.05889.4591.132.68872.2011a1.45433,1.45433,0,0,1,.28838.09546c.03657.01829.08939.03453.08939.08735,0,.06093-.061.09751-.09745.11375-.08741.49971-.18486.99532-.31082,1.47674a3.67164,3.67164,0,0,1,.44484-.04265.88718.88718,0,0,1,.98317.74147,4.9187,4.9187,0,0,1,.14221,1.3305c0,.77593-.11184,2.33189-.64595,2.856"/><path class="cls-2" d="M65.64467,10.48662c.46716.89991.89576,1.82822,1.32845,2.75652l-.63379.61545a2.77074,2.77074,0,0,0-1.89319-.91814c-.43678,0-1.02581.19911-1.02581.841,0,.88361.93233.971,1.47673.971a6.36564,6.36564,0,0,0,1.27168-.13811c-.01625.325-.03658.64191-.05691.96079a7.45942,7.45942,0,0,1-1.16393.06707c-1.0319,0-2.39693-.20314-2.39693-1.79164,0-1.28786.96891-1.6474,1.87484-1.6474a3.61218,3.61218,0,0,1,1.19034.2316c-.12385-.30878-.27214-.60937-.41645-.91-.12187-.23972-.23767-.48954-.36562-.72926a9.748,9.748,0,0,1-2.23029.56678c-.09348-.30878-.21536-.60738-.31491-.91008a6.58047,6.58047,0,0,0,2.09428-.43673,9.78521,9.78521,0,0,0-.71909-1.24315.11661.11661,0,0,1-.09955-.10359.10772.10772,0,0,1,.06509-.09342c.27412-.13.56064-.22546.83079-.32706.28032.455.50981.93438.75554,1.424a8.57553,8.57553,0,0,0,1.3814-.85113c.14617.31076.27214.6297.41025.93848a8.53377,8.53377,0,0,1-1.36292.72715"/><path class="cls-2" d="M74.71747,12.103a.19245.19245,0,0,1-.11382-.04463c-.54031.18684-1.58646.5992-2.08.82671v1.35288l-.88968-.00813c.00806-.12391.00806-.25391.00806-.40423V13.334c-.60131.28032-.90184.64191-.90184,1.04609,0,.34944.34529.53628,1.02978.53628a6.61661,6.61661,0,0,0,2.18777-.35341l-.0305,1.0278a6.17154,6.17154,0,0,1-1.885.25392c-1.47476,0-2.21009-.46313-2.21009-1.40564a1.73352,1.73352,0,0,1,.61544-1.26349,5.33439,5.33439,0,0,1,1.14162-.75566c-.01426-.39606-.134-.59715-.35136-.59715a1.09612,1.09612,0,0,0-.776.33307,7.063,7.063,0,0,0-.57886.59722c-.27834.30877-.451.52-.55668.62362-.132-.15845-.34529-.39407-.62362-.71909A6.36265,6.36265,0,0,0,70.598,10.27684c-.40021.05077-.84307.08734-1.32448.11375-.0284-.33518-.073-.63986-.11779-.91411a13.10524,13.10524,0,0,0,1.72049-.08734,7.3355,7.3355,0,0,0,.25391-1.21266l1.01565.22955c.05889.01829.0915.05077.0915.10359,0,.05486-.03868.09751-.12187.132-.03658.15032-.10564.37981-.20321.67644a11.89736,11.89736,0,0,0,1.4057-.325l-.08121.96686c-.41447.08939-.971.17469-1.66172.2722a5.40241,5.40241,0,0,1-.46716.87959,1.52831,1.52831,0,0,1,.4286-.063c.46109,0,.75976.30878.89589.94046.60118-.31485,1.28581-.6398,2.0292-.975l.34528.98316c0,.071-.02839.10557-.08926.10557"/><path class="cls-2" d="M33.60044,25.91871a13.23456,13.23456,0,0,0-1.46856-1.52757c.21114-.22751.41435-.47535.63169-.70285a19.45053,19.45053,0,0,1,1.41375,1.60679Zm3.15469-3.81279V20.9643H32.37352v1.13555h-.83488V20.14777h2.51892v-1.0624l.93233.06906a.10322.10322,0,0,1,.11369.10768.17084.17084,0,0,1-.12187.14016v.7455h2.64687v1.95815Zm-.73533,1.3447v1.68806c0,1.37922-.38595,1.881-1.5479,2.06379l-.52617-.73738c.83488-.12392,1.19443-.24778,1.19443-1.33658,0-.56268,0-1.11521-.00806-1.67789H31.22385V22.626h3.90007v-1.2493l.89588.063c.05071,0,.128.0264.128.10563a.17525.17525,0,0,1-.128.14828v.9324h1.93175v.82466Z"/><path class="cls-2" d="M41.71648,27.09721a4.20214,4.20214,0,0,0-.40431-.719c-.01624-.02846-.03855-.05486-.03855-.07923,0-.0264.03855-.03452.05281-.04469a6.86431,6.86431,0,0,0,1.1131-.14016,1.66591,1.66591,0,0,0,1.49509-1.6779,1.09648,1.09648,0,0,0-1.233-1.21265,2.53621,2.53621,0,0,0-1.97043,1.23094c-.30065.39407-.57279.80643-.83489,1.229-.25391-.2275-.50981-.46518-.76372-.70285A26.20694,26.20694,0,0,0,41.28168,22.021a7.71465,7.71465,0,0,0,.64594-1.16188c-.197.04674-.392.10563-.587.16049-.35335.09546-.71289.2011-1.07455.28032-.0548-.34126-.10761-.68456-.17258-1.02786a16.80173,16.80173,0,0,0,2.466-.43065,3.35285,3.35285,0,0,0,.518-.16862,6.00224,6.00224,0,0,1,.47324.74959c0,.08735-.08939.11376-.14221.12188a15.0918,15.0918,0,0,0-1.53364,2.02113,3.60469,3.60469,0,0,1,.97709-.15032A1.93731,1.93731,0,0,1,44.90353,24.55c0,1.87087-1.89319,2.47819-3.18705,2.54725"/><path class="cls-2" d="M49.83983,20.98265a10.94825,10.94825,0,0,0-2.12677-.79019c.14221-.31485.28032-.63174.42253-.94864a8.29645,8.29645,0,0,1,2.17958.80036c-.15039.31689-.30263.63174-.47534.93847m-1.3142,6.33357c-.27834-.25392-.55456-.51793-.85113-.74544a3.623,3.623,0,0,0,2.16533-1.52961,2.77975,2.77975,0,0,0,.29458-1.29188c0-.78-.25391-1.229-.95478-1.229a6.186,6.186,0,0,0-2.12677.94052c-.05281-.13409-.41434-1.036-.41434-1.11726,0-.06094.07315-.05077.10352-.05077a4.92215,4.92215,0,0,0,.93246-.256,5.19413,5.19413,0,0,1,1.753-.44887c1.20249,0,1.72867.95062,1.72867,2.26085a3.75,3.75,0,0,1-2.63051,3.46738"/></svg>