<svg id="レイヤー_1" data-name="レイヤー 1" xmlns="http://www.w3.org/2000/svg" width="95" height="95.00403" viewBox="0 0 95 95.00403"><defs><style>.cls-1{fill:#e1680e;}.cls-2{fill:#fff;}</style></defs><title>sdgs_09</title><rect class="cls-1" width="95" height="95.00403"/><path class="cls-2" d="M70.61277,76.94409,60.47491,82.796V71.09216l10.13786-5.85194ZM37.12411,82.796V71.98183L46.488,77.391Zm-1.54163,0L25.44661,76.94409V65.24022l10.13587,5.85194ZM46.488,50.42251l-9.36388,5.40913V45.01542Zm12.44727,5.40913L49.5694,50.42251l9.36586-5.40709ZM49.5694,63.90572l10.13575-5.8499,10.13773,5.8499-10.13773,5.854Zm-2.31152-1.33451L37.894,57.16411,47.25788,51.757Zm10.90551-5.4071-9.36388,5.4071V51.757ZM47.25788,76.05646l-9.366-5.40914,9.366-5.4071Zm24.51071-12.819L60.47491,56.72132V43.6809a.76863.76863,0,0,0-.38581-.66623l-11.67552-6.7416a.76676.76676,0,0,0-.76977,0L35.9663,43.01467a.77092.77092,0,0,0-.38382.66623V56.72132L24.29091,63.23744a.76956.76956,0,0,0-.38594.66828V77.391a.76871.76871,0,0,0,.38594.66624L35.9663,84.79881a.78416.78416,0,0,0,.77188,0l11.29157-6.51817,11.28946,6.51817a.78038.78038,0,0,0,.76989,0L71.76859,78.0572a.773.773,0,0,0,.38581-.66624V63.90572a.77386.77386,0,0,0-.38581-.66828"/><path class="cls-2" d="M15.10221,15.80757c-.05691,1.07248-.50781,1.7509-1.5254,1.7509-1.09892,0-1.52552-.67842-1.52552-1.92152V12.30572c0-1.21465.451-1.91948,1.55391-1.91948,1.07252,0,1.497.73325,1.497,1.91948Zm3.19113-2.93717c0-2.96556-1.3-5.11052-4.68814-5.11052-3.41652,0-4.74281,1.86261-4.74281,4.8282v2.82339c0,3.13416,1.241,4.71649,3.55661,4.71649a2.75636,2.75636,0,0,0,2.65482-1.55186h.02839v4.1193c0,1.15781-.45288,1.98045-1.61069,1.98045s-1.58032-.68047-1.58032-1.8667V21.53964H8.9741v1.01765c0,2.82339,1.01759,4.79975,4.57631,4.79975,3.386,0,4.74293-2.17543,4.74293-5.1674Z"/><path class="cls-2" d="M29.33386,9.69136c.10773.29453.26618.80844.34738,1.1111a.29593.29593,0,0,1-.38383-.063h1.58627c.09955-.34531.187-.69265.256-1.04812Zm-1.13338,6.29879V15.2772h2.13485v-.79013H29.202v-.68248h1.13338v-.65813h-.94866a6.60713,6.60713,0,0,1-.54834,1.34873l-.6236-.4164a7.38774,7.38774,0,0,0,.66216-2.38058l.79827.22344a.1039.1039,0,0,1,.08939.09546c0,.0711-.05889.09952-.11381.10764-.03037.10767-.06087.2133-.08939.31893h.76791v-.83486l.91606.07922c.04463,0,.07512.063.07512.10969,0,.08734-.09955.14016-.15844.15844V12.401h1.93985v.72718H31.162v.65812h1.54784v.70077H31.162V15.261h2.21607v.72919Zm.03868-4.51336c.00607.22954.01215.453.01215.68453a9.93711,9.93711,0,0,1-.33722,2.75229,4.40138,4.40138,0,0,1-.53421,1.22485l-.69873-.50579a5.894,5.894,0,0,0,.72315-3.25808c0-.54233-.01624-1.09278-.03868-1.63511h1.48684c-.13191-.26609-.262-.54032-.40416-.8003l.54847-.24782H27.34331V8.88294h2.44356V7.977l.90192.06094c.06695,0,.14207,0,.14207.10764a.16686.16686,0,0,1-.1117.132v.60531h2.54919v.80842H31.554l.48748.18689a.094.094,0,0,1,.07525.08734c0,.05281-.061.08124-.09757.08936-.11369.2336-.21733.46314-.34738.68453h1.85257v.73731Z"/><path class="cls-2" d="M37.42327,10.5603l.11381.61548h1.22475c.05281-.20515.09955-.41439.14431-.61548Zm3.8513,5.533a5.30041,5.30041,0,0,1-2.66907-1.63307v1.73058h-.83485V14.442a5.65266,5.65266,0,0,1-2.602,1.6087l-.49553-.72919a5.14886,5.14886,0,0,0,2.45769-1.32638H34.96557V13.274h2.80508v-.35141H35.67447v-.66013h2.09618v-.38393H35.21538v-.70278h1.5559c-.08331-.20515-.15844-.41439-.25589-.61548h-1.6392V9.82094h1.27757A7.76718,7.76718,0,0,0,35.52408,8.785l.80436-.49156c.17877.43063.35345.86733.516,1.3081l-.4204.21937h.68447V8.14519l.84291.07718a.07821.07821,0,0,1,.08133.08939c0,.06093-.06707.11173-.1117.13v1.3792h.51177V8.135l.85717.06908a.09128.09128,0,0,1,.08132.09748c0,.06093-.07525.10563-.11381.1219V9.81282h.63377l-.37776-.20109c.1665-.44076.3392-.87139.46714-1.3284l.85717.41436a.15491.15491,0,0,1,.09745.13c0,.09952-.128.10563-.18076.10563-.18683.30061-.37577.58907-.5626.87951h1.32232v.74748h-1.623c-.11989.21126-.23965.41033-.36152.61548H41.2582v.70278H38.59731v.38393h2.15718v.66013H38.59731V13.274H41.4309v.72108H39.17628A5.40242,5.40242,0,0,0,41.762,15.3032Z"/><path class="cls-2" d="M46.10131,16.02527c-1.05429,0-2.73813-.16653-2.73813-1.84432a2.56655,2.56655,0,0,1,1.71843-2.26888A13.57666,13.57666,0,0,1,44.787,8.80431c.22142.01624.44892.03453.67232.05281.10972.00813.21944.01625.33114.03453.03657.00812.07922.02641.07922.07922a.16383.16383,0,0,1-.05083.09546,6.38655,6.38655,0,0,0-.04265.81046,5.39278,5.39278,0,0,0,.13811,1.57012.09361.09361,0,0,0,.06707.02641,8.11771,8.11771,0,0,0,1.85852-.78c.10972.37781.18485.77187.27225,1.1578-.92015.22139-3.84919.78406-3.84919,2.23231,0,.81656,1.09073.975,1.60065.975a6.2981,6.2981,0,0,0,2.3683-.394c.04265.36765.07922.74546.10166,1.12328a10.64951,10.64951,0,0,1-2.2323.23763"/><path class="cls-2" d="M53.97934,12.17614a5.18879,5.18879,0,0,0,.85109,1.58233,4.93694,4.93694,0,0,0,.74546-1.58233Zm2.77457,4.14772a5.42721,5.42721,0,0,1-1.93166-1.33652,5.42524,5.42524,0,0,1-1.98448,1.25529l-.59521-.66625a4.50734,4.50734,0,0,0,2.011-1.239,7.06058,7.06058,0,0,1-1.0197-1.8362l.327-.30672H52.986V11.4652h1.31414V10.342H52.852V9.5579h1.41778v-1.3l.89374.07922c.069.01017.12187.03657.12187.132,0,.0711-.09955.12389-.14431.14217v.94045h1.83831V10.342H55.127V11.4652h1.44828v.52813c0,.02437-.09559.325-.11381.37779a5.74154,5.74154,0,0,1-1.07251,2.00075,4.8259,4.8259,0,0,0,1.9236,1.12529Zm-4.61685-3.75165v1.887a2.02954,2.02954,0,0,1-.95275,1.89106l-.64988-.59716a1.44144,1.44144,0,0,0,.78191-1.4056V12.9419c-.20716.14016-.42449.2539-.62756.40423-.0041.069-.03658.1828-.11171.1828-.04264,0-.059-.04265-.07314-.08734l-.2539-.96686c.35953-.15642.71695-.31688,1.06631-.48952V10.736H50.4288V9.96413h.87948v-1.696l.85915.11374a.09028.09028,0,0,1,.08133.07718c0,.063-.06707.12391-.10364.15233V9.96413h.54239V10.736h-.55863v.98514l.63376-.325v.82469c-.20716.12388-.41842.2275-.62558.35138"/><path class="cls-2" d="M64.38907,11.93v2.81326c0,.88763-.30461,1.39745-1.044,1.61481l-.55244-.68655a.907.907,0,0,0,.77795-1.02577V11.93h-.64393v-.7617h2.03729V11.93ZM63.24762,9.82156v-.648a.08957.08957,0,0,1-.09546.06906c-.11381.31688-.22551.64188-.35147.95672L62.2645,9.9536c.10352-.40218.17257-.80845.262-1.21063l.70083.34125.02033.03657V8.96235H64.836v.85921Zm-.67851,5.04351a14.40686,14.40686,0,0,1-.41631-2.671l.70071-.20921a14.613,14.613,0,0,0,.39411,2.48416ZM60.869,12.3626a16.70854,16.70854,0,0,1-.41036,3.055l-.64182-.56877a13.39265,13.39265,0,0,0,.321-2.9879l.77584.28843a.10007.10007,0,0,1,.05281.08938c0,.05282-.06694.10563-.09744.12389m-.75365-3.10166a7.81212,7.81212,0,0,1-1.4096,1.64934l-.60327-.55249a5.48168,5.48168,0,0,0,1.36907-1.889l.77187.53623a.15043.15043,0,0,1,.073.11579.16054.16054,0,0,1-.20109.14015m1.82009,1.83621v5.18366h-.82878V11.1053h-.93031v-.11375c-.1727.33514-.33722.66826-.53012.9831v4.33056h-.82878V13.06337a4.56071,4.56071,0,0,1-.43875.44891l-.41842-.69469a7.21272,7.21272,0,0,0,1.67777-2.60808l.5383.4814v-.33312h.916V8.45253l.85717.08734c.05281.01014.12794.02641.12794.10563a.18974.18974,0,0,1-.14207.16653v1.54576h1.02168v.73936Z"/><path class="cls-2" d="M71.06342,12.08108H69.75733v1.00749h1.30609Zm-.98524-2.214H68.67056v.47935h1.40762Zm-1.13537,2.214H67.68756v1.00749h1.25525Zm.82878,3.0793V16.4868h-.82878V15.16038H66.04427v-.784h2.89854v-.56672H66.87912v-2.411h2.06369V10.972H67.82765V9.9036H66.27784V9.12972H67.8134v-.8714l.86535.063a.0975.0975,0,0,1,.09546.0853c0,.05486-.07513.11781-.1117.14421v.57891h1.4096v-.8714l.86535.063a.098.098,0,0,1,.09744.0853c0,.05486-.07513.11781-.10959.14421v.57891h1.497V9.9036H70.93337V10.972h-1.174v.42657h2.15717v2.411H69.75932v.56672H72.729v.784Z"/><path class="cls-2" d="M79.77171,11.9775v4.31432H78.9288V11.9775H78.358c-.00608,1.46653-.23568,3.34337-1.26344,4.26962l-.61145-.53421c1.04-.97091,1.08268-2.62434,1.08268-4.101,0-.81858-.02641-1.64732-.03459-2.46386l.49975.03453a2.30406,2.30406,0,0,0,.49156-.1422A10.38094,10.38094,0,0,0,79.786,8.47974l.57078,1.03185a.12527.12527,0,0,1-.12807.13408.2057.2057,0,0,1-.14207-.05486,15.96785,15.96785,0,0,1-1.71446.28642v1.36091h2.09221v.73936Zm-4.51135-1.91341c.07922.32906.27622,1.07047.34131,1.40765-.1422.07311-.392-.2783-.53223-.21736h.776c.09336-.39.17878-.79013.24981-1.19029Zm.843,1.90324-.00819.52609h1.1355v.70282H76.19477a3.61154,3.61154,0,0,0,.9282.91609l-.41234.66013a3.2541,3.2541,0,0,1-.60723-.5992v2.1815h-.78006v-2.082a4.33367,4.33367,0,0,1-.99118,1.1456l-.5424-.61343a4.50387,4.50387,0,0,0,1.30609-1.60871H74.04577v-.70282h1.27757v-.52609H74.003v-.713h.85109c-.12186-.33718-.24981-.67437-.40007-.99528l.52-.195h-.84093V9.31456h1.17V8.28476l.86324.05281a.11187.11187,0,0,1,.11579.10563.16153.16153,0,0,1-.11579.15234v.719h1.0502v.74953h-.8206l.51388.29249a.125.125,0,0,1,.071.0975c0,.09953-.10563.12593-.16451.12593-.09956.23159-.21324.453-.329.67437h.77188v.713Z"/><path class="cls-2" d="M82.72059,11.841a3.76606,3.76606,0,0,0-.20319,1.24512c0,.37375.06508,1.33655.47333,1.33655.14617,0,.27015-.17267.35544-.29048a8.2981,8.2981,0,0,0,1.04611-3.92429,2.69134,2.69134,0,0,0-1.67169,1.6331m2.55935,4.19037c-.22551-.264-.4287-.54434-.65409-.80029,1.14962-.3453,2.21-.845,2.21-2.5715a2.38669,2.38669,0,0,0-1.51945-2.47c-.19489,1.57012-.58082,4.07056-1.72239,4.99681a1.059,1.059,0,0,1-.67641.28843,1.07049,1.07049,0,0,1-.778-.52609,3.41984,3.41984,0,0,1-.46714-1.86264c0-2.22419,1.47668-3.79632,3.20923-3.79632,1.59854,0,2.89855,1.1923,2.89855,3.3068a3.2664,3.2664,0,0,1-2.50034,3.43477"/><path class="cls-2" d="M31.14353,22.64829H29.21794v.38594h1.92559Zm0-.95873H29.21794v.36154h1.92559Zm0-.98514H29.21794v.37781h1.92559Zm-.44482,3.02447h-1.105a5.4145,5.4145,0,0,1-1.06631,1.2025h1.23294v-.77391l.82666.063a.09491.09491,0,0,1,.09757.08935.1685.1685,0,0,1-.1117.14016v.48142h1.2167a5.51694,5.51694,0,0,1-1.09086-1.2025m2.57162,2.16121a4.98715,4.98715,0,0,1-1.26343-.77389v.52609h-1.426v.57891h2.2323v.71295H27.57068v-.71295h2.19771V25.6423H28.377v-.589a6.24693,6.24693,0,0,1-1.27757.81046l-.49566-.66829a4.79618,4.79618,0,0,0,1.97035-1.42389H26.84145V22.9997h1.558V20.70442H27.11371v-.75359H28.3852v-.94045l.85717.05282a.091.091,0,0,1,.08938.0975c0,.06094-.06707.11375-.11381.13v.66014h1.93179v-.94045l.87341.05282a.09721.09721,0,0,1,.09744.0975c0,.06094-.069.11375-.11368.13v.66014h1.19029v.75359H32.0069V22.9997h1.51932v.77184H31.74481a4.68721,4.68721,0,0,0,2.05961,1.35279Z"/><path class="cls-2" d="M40.02031,24.87021h-.6479v1.38937h.6479Zm-.74547-2.75635a4.40621,4.40621,0,0,0,.53421.49764,2.38686,2.38686,0,0,0,.50384-.49764ZM38.635,24.87021h-.60723v1.38937H38.635Zm-1.34253,0h-.6236v1.38937h.6236Zm-1.01561-4.2351v.67843l.49553-.03654a7.10284,7.10284,0,0,0-.49553-.64189m1.02776-.43871H36.27686v.42247c.17865-.12391.35953-.24578.54029-.36154.1422.21125.2782.43264.41433.652l-.42859.36765.50173-.03453Zm-2.29937,6.76395v-.71094h.8491V24.18367h4.97031v2.06574h.7658v.71094Zm6.46545-2.74014a4.78212,4.78212,0,0,1-1.684-.72107,5.02787,5.02787,0,0,1-1.3832.57078L37.983,23.491a1.05752,1.05752,0,0,1-.80436.65l-.4814-.518c.42251-.12391.6236-.25595.6236-.80841v-.96689l-.24783.02641v1.42389h-.60934V21.94526l-.18683.01624a3.66792,3.66792,0,0,1-.72315,2.3542l-.65409-.40422a2.99759,2.99759,0,0,0,.61554-1.85248c-.1179.0244-.23766.06094-.35953.08735-.01426.06093-.05889.12186-.11989.12186-.05281,0-.07513-.06905-.09137-.12186l-.18695-.78812c.24783,0,.50384,0,.75365-.01828,0-.59921-.01624-1.20653-.01624-1.80168h.782c.09137-.22954.1665-.46516.23965-.70279l.9344.11375a.11271.11271,0,0,1,.08728.10358c0,.11577-.12794.16046-.20307.16858-.08939.10563-.18076.21125-.27634.31688H38.0724v3.13417a2.55719,2.55719,0,0,1-.08938.80029,4.027,4.027,0,0,0,1.16388-.457,5.15558,5.15558,0,0,1-.66216-.68453,3.6882,3.6882,0,0,1,.31081-.21733h-.52813V21.47h.54226l-.62347-.28843a2.09848,2.09848,0,0,0,.34527-1.302c0-.20108-.00818-.41234-.01425-.61343H40.6439c-.00607.34329-.01624.68655-.01624,1.02779,0,.21938.04674.2986.24175.2986a1.78574,1.78574,0,0,0,.849-.42248l-.05889.90592a2.18077,2.18077,0,0,1-.94854.24578c-.5647,0-.8734-.063-.8734-.782,0-.193.01016-.39607.01016-.587h-.53421A2.17358,2.17358,0,0,1,38.84018,21.47h2.51671v.50169a3.20994,3.20994,0,0,1-.91,1.04406,4.26666,4.26666,0,0,0,1.44419.44077Z"/><path class="cls-2" d="M49.05168,23.10406a.20847.20847,0,0,1-.11381-.04265c-.54029.18485-1.58441.59719-2.07994.82468v1.35279l-.88766-.01016c.00607-.12187.00607-.2539.00607-.40422V24.335c-.60128.28031-.9018.63984-.9018,1.04406,0,.35141.34726.53622,1.02974.53622a6.59587,6.59587,0,0,0,2.18768-.35137l-.0305,1.02779a6.10991,6.10991,0,0,1-1.88493.25591c-1.47469,0-2.21-.46717-2.21-1.40762a1.72993,1.72993,0,0,1,.61542-1.2634,5.41433,5.41433,0,0,1,1.14157-.75563c-.01426-.39406-.134-.59716-.35135-.59716a1.10644,1.10644,0,0,0-.776.33309,6.863,6.863,0,0,0-.57686.59924c-.27833.30668-.4509.51592-.55653.62155-.13612-.15844-.34539-.39406-.62359-.71906a6.35708,6.35708,0,0,0,1.8931-2.38058c-.39821.05077-.84092.08734-1.32232.11375-.02852-.33517-.07513-.64189-.11989-.91407a13.12417,13.12417,0,0,0,1.72041-.08734,7.17941,7.17941,0,0,0,.256-1.21264l1.0135.22749c.063.01829.0915.05282.0915.10563s-.03658.09751-.12187.132c-.03657.15032-.10364.37781-.20109.67641a12.08451,12.08451,0,0,0,1.40551-.325l-.08319.96686c-.41234.08734-.969.17673-1.66164.27014a5.65291,5.65291,0,0,1-.465.88156,1.43877,1.43877,0,0,1,.42858-.06093c.459,0,.75762.30467.89374.9384.60116-.31685,1.28575-.64185,2.03122-.975l.34527.98313c0,.07107-.02852.1056-.09137.1056"/><path class="cls-2" d="M54.78617,26.06661a6.7297,6.7297,0,0,1-1.34873.36359c-.23159-.27622-.44892-.56874-.69476-.81858a10.09511,10.09511,0,0,0,1.73268-.459,2.15248,2.15248,0,0,0,1.58838-2.10027c-.02443-1.15983-.6236-1.52748-1.50308-1.50513-1.2167.03453-2.342.95263-3.52822,1.29186-.04067-.11986-.38792-1.09688-.39-1.13952,0-.08734.10761-.05688.15844-.05688a6.43323,6.43323,0,0,0,1.8057-.50576,6.69287,6.69287,0,0,1,2.19784-.54437,2.18861,2.18861,0,0,1,2.24049,2.346,2.98339,2.98339,0,0,1-2.25871,3.12806"/><path class="cls-2" d="M62.445,26.9782a14.63065,14.63065,0,0,0-2.26281-2.55526,7.45415,7.45415,0,0,0-.65409-.5728,1.89769,1.89769,0,0,1-.37775-.33312.746.746,0,0,1-.1422-.47328,1.0137,1.0137,0,0,1,.34527-.74748c.36362-.38593.73728-.74546,1.09074-1.14153.52615-.59719,1.06036-1.19435,1.57213-1.82812.21745.18485.43677.36158.65211.54643a1.45663,1.45663,0,0,1,.24981.2092.10909.10909,0,0,1,.03657.08124c0,.11985-.16451.13814-.24782.11985-.49566.47529-1.00743.9425-1.51126,1.42389-.21126.20311-.40615.42248-.61542.62357-.09744.09751-.21125.18485-.30262.29047a.57606.57606,0,0,0-.17878.35141.334.334,0,0,0,.13613.264c.31477.2986.66823.55454.99118.83281a15.40247,15.40247,0,0,1,2.00072,2.15308c-.26407.24578-.52.50985-.78191.7556"/><path class="cls-2" d="M67.38717,26.8736a4.101,4.101,0,0,0-.40627-.72108.15717.15717,0,0,1-.03657-.07922c0-.0264.03657-.03248.05281-.04466a6.56978,6.56978,0,0,0,1.109-.13814c.78415-.20313,1.49912-.60733,1.49912-1.67779a1.09711,1.09711,0,0,0-1.23505-1.21264A2.53579,2.53579,0,0,0,66.40194,24.231c-.30065.39406-.57277.8064-.83486,1.22687-.25588-.2275-.51177-.46311-.76567-.70078a25.57519,25.57519,0,0,0,2.149-2.96152,7.89208,7.89208,0,0,0,.6479-1.15983c-.197.0447-.392.10563-.587.15844-.35334.09751-.715.20314-1.0745.28031-.0548-.34124-.10761-.6845-.17258-1.02779a16.45879,16.45879,0,0,0,2.46377-.43062,3.36519,3.36519,0,0,0,.52008-.16657,6.14038,6.14038,0,0,1,.47321.74752c0,.08734-.09137.11374-.1422.12186a15.24939,15.24939,0,0,0-1.53357,2.0231,3.614,3.614,0,0,1,.97506-.15032,1.9371,1.9371,0,0,1,2.05354,2.13278c0,1.87278-1.8951,2.47809-3.18692,2.54916"/><path class="cls-2" d="M75.42153,20.52118a10.76579,10.76579,0,0,0-2.12668-.81247c.1422-.325.27833-.65.42053-.975a8.164,8.164,0,0,1,2.17949.82264c-.15038.323-.30064.648-.47334.96481m-1.31612,6.50394c-.27635-.262-.55455-.53216-.84911-.76576a3.642,3.642,0,0,0,2.16523-1.57012,2.94534,2.94534,0,0,0,.29457-1.32434c0-.80438-.25589-1.26545-.95462-1.26545a6.14837,6.14837,0,0,0-2.12878.96481c-.05281-.13609-.41433-1.06436-.41433-1.1456,0-.063.07513-.05482.10563-.05482a4.8782,4.8782,0,0,0,.9323-.26,5.01971,5.01971,0,0,1,1.7509-.4611c1.20455,0,1.73058.977,1.73058,2.31763a3.841,3.841,0,0,1-2.63237,3.56476"/></svg>