<svg id="レイヤー_1" data-name="レイヤー 1" xmlns="http://www.w3.org/2000/svg" width="95" height="95.00614" viewBox="0 0 95 95.00614"><defs><style>.cls-1{fill:#ba1b2a;}.cls-2{fill:#fff;}</style></defs><title>sdgs_04</title><rect class="cls-1" width="95" height="95.00614"/><polygon class="cls-2" points="42.127 51.293 25.088 41.456 25.088 73.282 42.127 78.423 42.127 51.293"/><polygon class="cls-2" points="44 51.359 44 78.434 61.15 73.279 61.15 41.457 44 51.359"/><polygon class="cls-2" points="70.994 72.718 70.494 72.718 72.511 79.764 74.524 72.718 74.022 72.718 74.524 72.718 74.524 44.402 74.022 44.402 73.523 44.402 72.992 44.402 71.989 44.402 71.493 44.402 70.994 44.402 70.492 44.402 70.492 72.718 70.994 72.718"/><polygon class="cls-2" points="64.809 42.822 62.983 41.38 62.983 74.146 44.052 80.262 43.174 80.262 43.002 80.262 42.126 80.262 23.28 74.997 23.28 41.38 21.45 42.822 21.45 76.279 42.041 81.979 43.002 81.979 43.174 81.979 44.137 81.979 63.131 75.948 64.809 75.454 64.809 42.822"/><path class="cls-2" d="M74.52461,40.65088a2.01608,2.01608,0,1,0-4.03215,0v2.17346h4.03215Z"/><path class="cls-2" d="M12.02813,21.53851l2.88237-7.88329h.02839v7.88329Zm2.854,5.62043H17.933V24.05117h1.3V21.53851h-1.3V8.00218H14.76631L9.20465,22.07471v1.97646h5.67746Z"/><path class="cls-2" d="M31.82325,13.665H28.64234v.35136h3.18091Zm0-.90392H28.64234v.34329h3.18091Zm-.00607-.91409H28.64234v.35953h3.17484Zm.90181-1.71239v.86946h-.86524V10.09h-.59311a1.8827,1.8827,0,0,1-.70693,1.13341h2.15723v3.43494h-.88769a4.05885,4.05885,0,0,0,1.84232.63167l-.55654.82879a9.60013,9.60013,0,0,1-2.38261-1.01154c.1665-.15844.35333-.28242.51178-.44892H29.25975c.06707.07922.45909.44892.45909.52a.09782.09782,0,0,1-.10352.08728.36294.36294,0,0,1-.09149-.01822,8.1101,8.1101,0,0,1-2.19578.84293l-.4793-.71908a3.6284,3.6284,0,0,0,1.81591-.71287h-.81454V11.22339h2.47c-.15039-.08729-.29247-.19093-.43467-.28838a1.33967,1.33967,0,0,0,.61741-1.3102c0-.43058-.01016-.86934-.03248-1.3l.69267.05282a5.18079,5.18079,0,0,0,1.48079-.38595l.69267.711c.02839.03446.08121.07922.08121.132,0,.071-.09745.07922-.134.07922a.39824.39824,0,0,1-.197-.05282c-.59311.071-1.18833.132-1.78144.15845,0,.12993,0,.2539-.00608.38594h2.3887v.72912Zm-3.17272-.07922.00805.94868H28.756v-.975H28.2523a2.48514,2.48514,0,0,1-.82668,1.625l-.63787-.44893c.648-.52616.66018-1.0258.66018-1.87691,0-.327-.01215-.652-.02851-.97707l.69068.05281A6.854,6.854,0,0,0,29.599,8.00788l.60947.73941c0,.06906-.07525.09546-.12187.09546a.32705.32705,0,0,1-.15038-.05281c-.54836.10563-1.105.16663-1.65945.21944,0,.12385,0,.23767-.00819.36152h2.68327v.68449Z"/><path class="cls-2" d="M35.92545,11.48585a3.44934,3.44934,0,0,0-.21126,1.20457c0,.35941.069,1.29186.48946,1.29186.15039,0,.27623-.16663.36772-.28243A7.6236,7.6236,0,0,0,37.654,9.9055a2.7128,2.7128,0,0,0-1.7285,1.58035m2.6447,4.05025c-.2337-.25391-.44285-.528-.67444-.77177,1.18622-.33313,2.28318-.81863,2.28318-2.48626a2.30638,2.30638,0,0,0-1.57018-2.38882c-.2032,1.51936-.6013,3.93656-1.78145,4.83032a1.13938,1.13938,0,0,1-.69874.28032,1.12023,1.12023,0,0,1-.80437-.50782,3.14094,3.14094,0,0,1-.48351-1.80165A3.45919,3.45919,0,0,1,38.1578,9.01781,2.94067,2.94067,0,0,1,41.158,12.21509a3.19694,3.19694,0,0,1-2.5878,3.321"/><path class="cls-2" d="M46.54233,13.76308H44.99446v.65808h1.54787Zm.37578-3.19926H44.53946v.54637h2.37865Zm-2.71575,2.57354h3.14236v1.942H44.20236ZM43.721,9.922h4.04418v1.80165H43.721Zm3.707,6.0815-.5708-.713c.52418-.1055.97707-.17468.97707-.93839V12.74336H43.69851v3.05706h-.85507V12.05888h5.87843V14.4131a1.38189,1.38189,0,0,1-1.294,1.59039m-4.818-6.37819V8.825H45.2382V7.96375l.94261.063a.10757.10757,0,0,1,.11976.10563.19148.19148,0,0,1-.12794.15038V8.825h2.71376V9.6253Z"/><path class="cls-2" d="M55.58407,14.12A8.02242,8.02242,0,0,0,54.31056,10.411c.31069-.14828.59919-.323.912-.46319A9.50829,9.50829,0,0,1,56.549,13.665c-.31887.16651-.63985.3128-.96492.455m-3.67038,1.42588a.799.799,0,0,1-.587-.25589,4.602,4.602,0,0,1-.88161-2.89452,14.512,14.512,0,0,1,.15237-2.41312c.03658-.30672.07513-.60538.12386-.908a6.11753,6.11753,0,0,1,1.06646.39412.11088.11088,0,0,1,.0548.09547.19051.19051,0,0,1-.15436.17059,9.25612,9.25612,0,0,0-.28849,1.77525,8.88587,8.88587,0,0,0-.01625,1.11729,4.39639,4.39639,0,0,0,.18287,1.172c.05071.16253.16452.5667.35347.56063.35953-.01017.81044-1.172.96678-1.52953l.47335,1.12126c-.22341.587-.85111,1.57825-1.44621,1.59449"/><path class="cls-2" d="M62.71766,10.66387l-.07513.19291a9.69147,9.69147,0,0,0,.52,2.08,9.07761,9.07761,0,0,0,.42054-2.2729Zm1.75714,5.37471a6.44557,6.44557,0,0,1-1.3-1.46865,5.709,5.709,0,0,1-1.8546,1.56411l-.54848-.68461a3.827,3.827,0,0,0,1.89935-1.633,8.70971,8.70971,0,0,1-.58307-1.749,4.025,4.025,0,0,1-.30263.48339l-.52-.56063a9.98035,9.98035,0,0,0,1.19032-3.963l.95265.29867a.16545.16545,0,0,1,.09745.14828c0,.07922-.11171.15026-.16452.16861-.10352.41222-.21734.83276-.34528,1.23693h1.88707v.78416H64.4686a8.5306,8.5306,0,0,1-.77387,3.16876,5.30991,5.30991,0,0,0,1.43617,1.48688ZM60.10147,9.90612v.782a8.43383,8.43383,0,0,0,.46516-.782ZM61.93573,9.055a12.07636,12.07636,0,0,1-.9162,1.65152H61.507v.71089h-.96282c-.1117.14022-.21733.28032-.33709.42054H61.245v.60724a7.95187,7.95187,0,0,1-.81255.86128v.21944c.41235-.06906.83288-.14022,1.24722-.23767l-.06707.81045c-.37578.10563-.75962.16452-1.1354.24374v.518a1.25458,1.25458,0,0,1-1.06038,1.37319l-.55443-.642c.64592-.18485.77994-.30871.77994-1.109-.3392.07922-.68448.15026-1.0217.22949-.00608.05281-.05282.14827-.10563.14827-.04476,0-.06906-.03248-.08133-.07922l-.34528-.89376c.50782-.063,1.01972-.15237,1.52345-.24783,0-.28032-.01414-.5708-.01414-.8531l.459.0284a2.07589,2.07589,0,0,0,.28441-.39612h-.69056A5.88451,5.88451,0,0,1,58.32,13.42834l-.518-.5972a6.18656,6.18656,0,0,0,1.75913-1.42179H57.98888V10.678h1.26148V9.92446h-.96691V9.118h.96083V8.02722l.89574.07923a.08347.08347,0,0,1,.08939.0874.199.199,0,0,1-.1117.15845v.77387h1.08468L60.6885,9.634a11.48551,11.48551,0,0,0,.49555-1.31826l.82073.50174a.16318.16318,0,0,1,.08728.14208c0,.09546-.10364.10365-.15633.09546"/><path class="cls-2" d="M69.00795,9.66845c-.31689.29866-.61754.63378-.95476.906.75974-.0264,1.52543-.07922,2.28517-.124-.13613-.12187-.26408-.262-.39-.394.21733-.12187.43467-.24585.64593-.388Zm1.48885,3.73348H67.60228v.4307H70.4968Zm-2.89452-1.046v.396h2.88634l.00818-.396Zm2.61619,3.67447-.54228-.652c.50372-.0874.81243-.18286.81243-.85929H67.60835v1.44026h-.847V11.68967h4.60691v3.00424a1.169,1.169,0,0,1-1.14977,1.33649m.59324-6.36195c.459.53633.94645,1.03807,1.38322,1.5987l-.67642.61741a6.73749,6.73749,0,0,0-.60936-.77387c-1.54787.1422-3.10379.18287-4.66171.28031l-.17877-.85111h.77387A.42663.42663,0,0,0,67.135,10.416a4.27379,4.27379,0,0,0,.587-.74759H65.81885V8.91293h2.75232V8.009l1.05828.06906c.0548,0,.09137.063.09137.12385,0,.07922-.10352.15039-.15634.17679v.53423h2.77464v.75552Z"/><path class="cls-2" d="M79.51,12.42015a.20043.20043,0,0,1-.10972-.04265c-.54438.18088-1.58853.5972-2.08407.82272v1.35285l-.88769-.00818c.00819-.12187.00819-.25391.00819-.40219v-.49157c-.6013.28031-.90195.63985-.90195,1.04414,0,.35136.34528.53621,1.02989.53621a6.673,6.673,0,0,0,2.1876-.35135l-.02839,1.02778a6.264,6.264,0,0,1-1.88708.2539c-1.47472,0-2.212-.46318-2.212-1.40566a1.74327,1.74327,0,0,1,.61754-1.26545,5.33435,5.33435,0,0,1,1.14159-.75366c-.01426-.396-.13613-.59708-.35346-.59708a1.087,1.087,0,0,0-.774.333,6.99446,6.99446,0,0,0-.57885.59522c-.27833.31082-.453.52-.55654.6256-.13415-.15845-.3454-.394-.62572-.71908a6.31652,6.31652,0,0,0,1.89724-2.38261c-.39809.05281-.84293.08939-1.32235.11579-.0305-.33313-.07712-.642-.12187-.9121a13.04038,13.04038,0,0,0,1.72044-.08939,6.97187,6.97187,0,0,0,.256-1.21462l1.01563.23159a.1022.1022,0,0,1,.08939.10352c0,.05282-.03658.09758-.11989.132-.03657.15039-.10364.37789-.20109.67444a11.50941,11.50941,0,0,0,1.40356-.323l-.08121.9648c-.41433.08939-.971.17667-1.66156.27424a5.48555,5.48555,0,0,1-.46715.87752,1.51055,1.51055,0,0,1,.4286-.061c.459,0,.75961.30883.89376.9405.60117-.31689,1.28578-.64184,2.03126-.975l.34528.98315c0,.071-.02852.10551-.09138.10551"/><path class="cls-2" d="M28.00137,24.93489c0,.22949.08133.42859.28242.42859a.37761.37761,0,0,0,.31689-.16253A4.74153,4.74153,0,0,0,29.21,23.85826c-.526.04873-1.20867.31082-1.20867,1.07663m5.30578.72912a11.51191,11.51191,0,0,0-1.02183-.75553,4.65312,4.65312,0,0,1-1.54985,2.22418l-.77995-.52a3.81429,3.81429,0,0,0,1.5315-2.11457,5.56435,5.56435,0,0,0-1.40356-.53014,9.40243,9.40243,0,0,1-.36362.9141c-.323.72713-.72912,1.46654-1.49494,1.46654-.63179,0-1.07452-.60936-1.07452-1.3691a1.90425,1.90425,0,0,1,1.39141-1.8505,3.17675,3.17675,0,0,1,.91608-.0812,14.298,14.298,0,0,0,.54848-2.15921l-1.60069.28032L28.231,20.12081h.0853a10.38623,10.38623,0,0,0,2.533-.32916,5.52712,5.52712,0,0,0,.36759.42252c-.15844.55455-.331,1.10093-.49554,1.65548-.12807.42252-.24783.84305-.392,1.25131a5.50033,5.50033,0,0,1,1.40554.4591,8.34691,8.34691,0,0,0,.24995-1.8262c.30052.20716.59918.41036.88756.63786a9.98816,9.98816,0,0,1-.28032,1.58643,8.96289,8.96289,0,0,1,1.1437.66626c-.13613.33511-.27833.68448-.42859,1.0196"/><path class="cls-2" d="M38.8915,27.02231c-.99939,0-.92426-1.06633-.92426-1.89711v-.81863c0-.24374.00608-.53831-.27225-.53831a.75761.75761,0,0,0-.20109.03459c-1.12932.327-1.55792,2.07589-1.91336,3.17483-.29867-.16253-.59113-.329-.8836-.49356.30673-.8552.652-1.686,1.00745-2.52494.39611-.9343.78615-1.88087,1.19441-2.8153.22539-.518.43467-1.04613.67643-1.55791a9.24515,9.24515,0,0,1,.94657.48748.0906.0906,0,0,1,.05281.08728.121.121,0,0,1-.126.10973c-.50583.87342-.95475,1.80177-1.41583,2.6995-.04463.08939-.08728.16663-.134.24374a2.12914,2.12914,0,0,1,.99939-.329c.72924,0,.95674.56274.95674,1.31628,0,.44893-.01017.88967-.01017,1.3407,0,.22539.03038.53621.28639.53621a1.62879,1.62879,0,0,0,.94856-.55257,5.23494,5.23494,0,0,0,.76383-1.14147c.12187.41433.23965.82061.34727,1.23705a2.79983,2.79983,0,0,1-2.29931,1.40145"/><path class="cls-2" d="M48.12975,22.47665a4.60992,4.60992,0,0,0-1.82819-1.00956l.4348-.87751a4.611,4.611,0,0,1,1.8748,1.00955ZM46.1208,25.41382a1.297,1.297,0,0,0-.54029-.09546c-.28441,0-.64395.08728-.65808.49963-.01624.40628.41632.58914.70891.58914.2782,0,.4855-.061.49765-.43875.00607-.18287-.00211-.36772-.00819-.55456m1.87084,1.26545a6.36488,6.36488,0,0,0-.99939-.90393,2.76136,2.76136,0,0,1-.002.2885c-.0326.90591-.62162,1.15176-1.3,1.15176a2.18866,2.18866,0,0,1-.711-.11382,1.33477,1.33477,0,0,1-.88359-1.24722,1.30827,1.30827,0,0,1,1.3712-1.3345,3.67658,3.67658,0,0,1,.61543.05083c-.00819-.41235-.02232-.8247-.00819-1.23916a1.85142,1.85142,0,0,1,.11382-.59721h.67642c.04463,0,.26407-.03446.262.07117a.04918.04918,0,0,1-.01017.03657,1.11652,1.11652,0,0,0-.15435.53422c-.01624.46517-.00409.92216.01624,1.38732a5.34145,5.34145,0,0,1,1.5925,1.04613c-.18274.30065-.37367.5972-.57885.86934m-2.1023-5.37273c-.36772.10563-.72924.193-1.097.26209A18.112,18.112,0,0,1,43.15115,25.69c-.27833-.14009-.55654-.30672-.8247-.47322a14.43366,14.43366,0,0,0,1.50311-3.54057,7.62748,7.62748,0,0,1-1.12126.09348c-.03856-.30474-.08331-.61345-.11976-.92823a3.44794,3.44794,0,0,0,.41222.01624,6.68133,6.68133,0,0,0,1.04613-.07116,8.997,8.997,0,0,0,.2032-1.51737c.35334.05281.70073.09546,1.046.17468-.08939.4043-.17865.81863-.30052,1.22082a7.35487,7.35487,0,0,0,.9038-.30065c0,.31081-.01.62572-.01.94248"/><path class="cls-2" d="M56.35484,21.7055a6.02094,6.02094,0,0,0-1.75913-.10563,8.14878,8.14878,0,0,0-1.2187.20928c-.0305-.323-.05282-.72106-.09348-1.042a9.47275,9.47275,0,0,1,1.72454-.20307,6.52981,6.52981,0,0,1,1.43405.06905c-.02839.35545-.04872.717-.08728,1.07241m.19093,4.98678a6.24927,6.24927,0,0,1-1.38943.07514c-1.08468-.03249-2.09622-.20717-2.22826-1.83823.25589-.18894.51191-.388.77387-.56881.00211.92624.44087,1.34268,1.14767,1.365A4.9314,4.9314,0,0,0,56.562,25.5223c-.00608.39-.01017.77387-.01624,1.17m-4.91562.2559c-.27424.0264-.54649.063-.82879.09757a11.24273,11.24273,0,0,1-.39413-3.3861,21.38684,21.38684,0,0,1,.39413-3.81072l.66018.15237a2.33119,2.33119,0,0,1,.32693.08133.11085.11085,0,0,1,.08542.11567.1234.1234,0,0,1-.12187.1158,17.22028,17.22028,0,0,0-.44285,3.9549c0,.325.01624.63986.01624.96282.13613-.40417.26408-.81652.41025-1.2228.191.17258.37987.35136.56881.52207a8.3619,8.3619,0,0,0-.67432,2.41709"/></svg>