<svg id="レイヤー_1" data-name="レイヤー 1" xmlns="http://www.w3.org/2000/svg" width="95" height="95.00614" viewBox="0 0 95 95.00614"><defs><style>.cls-1{fill:#004980;}.cls-2{fill:#fff;}</style></defs><title>sdgs_16</title><rect class="cls-1" width="95" height="95.00614"/><path class="cls-2" d="M63.79131,37.88179a3.56176,3.56176,0,0,0-.68461,2.52488,3.564,3.564,0,0,0,1.70421,1.98858,3.55709,3.55709,0,0,0,.68051-2.52484,3.55587,3.55587,0,0,0-1.70011-1.98862"/><path class="cls-2" d="M62.22075,45.18579a3.56453,3.56453,0,0,0,.6825-2.52485A3.54852,3.54852,0,0,0,61.201,40.67437a3.55066,3.55066,0,0,0-.68461,2.52284,3.5729,3.5729,0,0,0,1.70433,1.98858"/><path class="cls-2" d="M66.17888,43.81651a3.16625,3.16625,0,0,0,2.17545.92221,3.31141,3.31141,0,0,0,2.017-1.29393,3.15905,3.15905,0,0,0-2.17544-.92419,3.31074,3.31074,0,0,0-2.017,1.29591"/><path class="cls-2" d="M67.84614,38.337a3.831,3.831,0,0,0-.81057,2.64877,3.65733,3.65733,0,0,0,2.60615-.8125,3.81861,3.81861,0,0,0,.80846-2.64672,3.65576,3.65576,0,0,0-2.604.81045"/><path class="cls-2" d="M65.76591,47.61762a3.30569,3.30569,0,0,0,2.24041-.85312,3.16827,3.16827,0,0,0-1.93988-1.34876,3.314,3.314,0,0,0-2.24042.85517,3.16,3.16,0,0,0,1.93989,1.34671"/><path class="cls-2" d="M66.797,66.17157H58.17026a1.21978,1.21978,0,1,0,0,2.43955H66.797a1.21978,1.21978,0,0,0,0-2.43955"/><path class="cls-2" d="M66.797,79.62439H58.17026a1.21978,1.21978,0,1,0,0,2.43956H66.797a1.21978,1.21978,0,0,0,0-2.43956"/><path class="cls-2" d="M28.00174,63.20917a5.42717,5.42717,0,0,0-.59931-.15435s.22143.069.59931.15435"/><path class="cls-2" d="M41.983,68.48885c.56683.01016,1.13762-.00812,1.70829-.04671v4.50735L41.983,72.91091Zm24.49712.975H58.485a.69571.69571,0,0,0-.69465.69472v2.42126l-5.21837.57281L44.9507,72.978V68.32228a21.012,21.012,0,0,0,3.03275-.61546c7.33692-2.06985,8.93748-6.64018,8.779-10.8388-.16043-4.27583,1.20668-5.93534,3.175-6.67475a8.73234,8.73234,0,0,1,1.627-.4306,13.11861,13.11861,0,0,0,.70482,3.72533c.17468-.01017.34738-.02439.52009-.0447a12.38866,12.38866,0,0,1-.71908-3.75375,8.99195,8.99195,0,0,1,1.74078-.05281,11.10777,11.10777,0,0,1-1.65548-1.18019c.329-2.02314,1.53559-3.26627,2.77674-4.53782a14.8155,14.8155,0,0,0,1.946-2.28315l-.43269-.28032a14.518,14.518,0,0,1-1.883,2.20393,8.94808,8.94808,0,0,0-2.84778,4.51548,16.47009,16.47009,0,0,1-1.25739-1.26548c-1.80984-2.02921-4.13765-.53828-7.45879,2.55535-3.32522,3.09159-7.50354,3.19718-11.58627-.97909C36.02748,42.87263,31.32907,42.9031,28.1075,43.2159c2.204.93845,2.97585,2.99813,4.091,8.23272,1.168,5.4905,4.11534,7.97676,8.14935,8.32-1.86873.30061-2.35423.56063-5.35847,2.63658-2.34815,1.621-5.64895,1.10908-6.98754.80437,2.45787.76579,5.36665,3.3455,7.97069,4.23926a19.304,19.304,0,0,0,4.7532.975v4.45863l-14.46058-.31282v3.10987l26.30684-.583,5.21837.57486v2.41922a.69568.69568,0,0,0,.69465.69468h7.99511a.69568.69568,0,0,0,.69465-.69468V70.15856a.69571.69571,0,0,0-.69465-.69472"/><path class="cls-2" d="M25.51871,75.1662a1.11568,1.11568,0,0,1-1.02183,1.1883h-.61345a1.117,1.117,0,0,1-1.0217-1.1883V73.01712a1.11442,1.11442,0,0,1,1.0217-1.18827h.61345a1.1131,1.1131,0,0,1,1.02183,1.18827Z"/><polygon class="cls-2" points="7.102 11.475 7.102 14.837 7.131 14.837 9.39 12.493 9.42 12.493 9.42 27.154 12.64 27.154 12.64 8 10.07 8 7.102 11.475"/><path class="cls-2" d="M20.72149,22.83117c0,1.2147-.45289,1.92361-1.554,1.92361-1.07452,0-1.497-.73531-1.497-1.92361v-3.5019c.05492-1.07452.50781-1.75094,1.52555-1.75094,1.09894,0,1.52543.67642,1.52543,1.92157Zm3.1912-.28032V19.72538c0-3.13627-1.24325-4.71861-3.5588-4.71861A2.75132,2.75132,0,0,0,17.699,16.56068h-.02851v-4.1255c0-1.1578.36573-1.97845,1.52555-1.97845,1.15783,0,1.497.67844,1.497,1.8647V13.595h2.93717V12.57738c0-2.82549-.93034-4.80189-4.49112-4.80189-3.39018,0-4.66381,2.17343-4.66381,5.16955v9.32144c0,2.9677,1.30214,5.11472,4.6922,5.11472,3.4166,0,4.74515-1.86469,4.74515-4.83035"/><path class="cls-2" d="M36.50269,9.92229c-.26407.55657-.52815,1.10908-.82669,1.64331l-.67035-.31485c.24783-.66015.47335-1.33658.67035-2.01908l.90182.41236a.17736.17736,0,0,1,.10365.14827c0,.09751-.12187.13-.17878.13m-4.19456,1.61079c-.26407-.62562-.53621-1.25732-.85111-1.84641l.80437-.43876a10.47211,10.47211,0,0,1,.70693,1.89721Zm2.14916,1.19438v2.88237h-.91012V12.72746H30.69133v-.86125h2.85584V8.94934H31.08942v-.843h5.8338v.843H34.44911v2.91687h2.858v.86125Z"/><path class="cls-2" d="M44.32064,9.65236H43.03486v4.66379h1.28578ZM42.2,8.84393h2.986v6.26642H42.2Zm-.11976-.20112a.2028.2028,0,0,1-.11989-.04467,9.08267,9.08267,0,0,1-1.04415.34327v1.17813h.99741v.79018h-.99741v.21733a5.83164,5.83164,0,0,0,1.18424,1.51127l-.50979.69673a5.11993,5.11993,0,0,1-.67445-.92423v3.22359H40.051v-3.1789a5.3439,5.3439,0,0,1-1.08469,1.60673l-.59918-.62361a5.91089,5.91089,0,0,0,1.501-2.52891H38.6128v-.79018H40.051V9.09173c-.384.06906-.7678.11986-1.15176.16452l-.323-.76374a6.82392,6.82392,0,0,0,3.00622-.79829,7.1179,7.1179,0,0,1,.61754.8247.1184.1184,0,0,1-.11976.12389"/><path class="cls-2" d="M49.94888,15.4331c-1.07464,0-2.791-.16653-2.791-1.84436a2.57247,2.57247,0,0,1,1.75293-2.26688A13.49362,13.49362,0,0,1,48.60818,8.214c.2275.01419.46108.03453.68448.05077.11382.01016.2275.01828.33723.03657.03868.00812.08331.02641.08331.07718a.17881.17881,0,0,1-.05282.09751,5.98851,5.98851,0,0,0-.04264.80843,5.3392,5.3392,0,0,0,.14009,1.5722.114.114,0,0,0,.07116.02641,8.45619,8.45619,0,0,0,1.89315-.78206c.11171.37782.18882.77189.27821,1.15988-.94037.21935-3.92441.782-3.92441,2.23235,0,.81656,1.1132.975,1.62908.975a6.45529,6.45529,0,0,0,2.41522-.39813c.04463.36968.0812.7475.10563,1.12734a11.21013,11.21013,0,0,1-2.277.23562"/><path class="cls-2" d="M60.07878,12.059A8.12913,8.12913,0,0,1,57.7103,8.58147c.30275-.16861.59522-.35343.89586-.52a6.44437,6.44437,0,0,0,2.12871,3.25205Zm-.7435,3.68876c-.15026-.28032-.29246-.56268-.44273-.843-1.36091.20311-2.728.34326-4.09711.50171-.0305.04469-.08319.10358-.136.10358-.04674,0-.06918-.03453-.08133-.07718l-.27821-.88765A5.67628,5.67628,0,0,0,54.96,14.466c.17878-.04268.2032-.063.30672-.23767a16.29266,16.29266,0,0,0,.84306-1.80782,17.13573,17.13573,0,0,0,.62361-1.69612l.94856.50782a.1675.1675,0,0,1,.09137.12392c0,.09751-.11369.14827-.18275.15844A29.32611,29.32611,0,0,1,56.065,14.38682c.81255-.07923,1.625-.17469,2.43555-.28032-.21125-.388-.42859-.76377-.66229-1.13344.24783-.17673.49567-.3433.74548-.50986.53224.89581,1.02183,1.82611,1.49506,2.76456ZM56.516,8.64036a8.1998,8.1998,0,0,1-2.08407,3.42877l-.68263-.52811a6.86813,6.86813,0,0,0,1.8505-3.55877l.99133.39608a.1188.1188,0,0,1,.08319.11375.1654.1654,0,0,1-.15832.14828"/><path class="cls-2" d="M61.54705,15.371v-.82468H62.6967V10.34766l.88769.05893a.11444.11444,0,0,1,.11976.10764.15957.15957,0,0,1-.11976.14828v3.88377h1.06026v-5.395H61.87609V8.29h6.13643v.87141H65.577V11.215h2.05159v.89782H65.56073v2.39687h2.60813V15.371Z"/><path class="cls-2" d="M75.567,11.94606a.18249.18249,0,0,1-.11183-.04467c-.54228.18482-1.58841.59717-2.082.82672v1.35078l-.88967-.00813c.00806-.12187.00806-.2539.00806-.40218V13.175c-.59919.28233-.90182.64187-.90182,1.0461,0,.35141.34528.53624,1.02977.53624a6.66486,6.66486,0,0,0,2.18772-.35139l-.0305,1.02781a6.18377,6.18377,0,0,1-1.88707.25391c-1.47262,0-2.20992-.46312-2.20992-1.40564a1.73256,1.73256,0,0,1,.61741-1.26343,5.3116,5.3116,0,0,1,1.1416-.75565c-.01426-.39608-.134-.59717-.35347-.59717a1.09091,1.09091,0,0,0-.77188.3331,6.73206,6.73206,0,0,0-.58084.5972c-.27635.30673-.451.52-.55667.62361-.134-.15844-.34527-.39406-.6215-.72112A6.35078,6.35078,0,0,0,71.44759,10.12c-.39822.05077-.84305.08734-1.32446.1117-.03037-.33313-.07513-.63985-.11976-.912a13.13576,13.13576,0,0,0,1.72243-.08735,7.17809,7.17809,0,0,0,.25391-1.21266l1.01563.22955a.10245.10245,0,0,1,.09149.10358c0,.05282-.03657.09751-.12187.132-.03657.15032-.10364.37782-.20109.67844a12.15565,12.15565,0,0,0,1.40554-.327l-.08319.96688c-.41446.08533-.971.17673-1.66168.27219a5.40232,5.40232,0,0,1-.46715.87954,1.51055,1.51055,0,0,1,.42859-.06094c.46108,0,.75974.30468.89376.93641.60328-.31484,1.28578-.63985,2.03337-.973l.34317.98315c0,.07107-.03037.1056-.08926.1056"/><path class="cls-2" d="M33.7169,22.76189c-.34541,0-.49567.38595-.49567.74548,0,.29045.09137.713.3981.713.329,0,.392-.49157.392-.79219,0-.23766,0-.66626-.29444-.66626m3.35361-1.24923c-.30883-.01624-.61555-.02638-.9162-.02638-.45289,0-.90393-.00815-1.34665.01826.00607.325-.00819.65.01413.975a2.81424,2.81424,0,0,1,.28032,1.38735,3.21033,3.21033,0,0,1-1.85038,3.23376c-.27226-.22955-.55666-.43064-.82074-.66828a2.29413,2.29413,0,0,0,1.63119-1.51126,1.15409,1.15409,0,0,1-.62163.14016c-.64184,0-1.01563-.7983-1.01563-1.47469,0-.843.42661-1.67783,1.21672-1.67783a1.16819,1.16819,0,0,1,.30065.03452c0-.14015-.00608-.28031-.01624-.42047-.5098.00812-1.02171.06094-1.52345.10362-.48946.05278-.97087.11576-1.45228.195-.02852-.33514-.01426-.67642-.02852-1.01157.99741-.04264,1.9906-.067,2.99-.13-.02232-.43265-.03657-.85923-.04463-1.30205.21932.02033.45091.05486.66824.08939a2.219,2.219,0,0,1,.27833.04265c.05282.01016.11369.02845.11369.10563a.25158.25158,0,0,1-.09745.18485c-.00818.28031-.01624.56264-.01624.843.7678-.02641,1.54167-.06094,2.30749-.10563Z"/><path class="cls-2" d="M43.55892,21.52428a10.09057,10.09057,0,0,0-.6013-1.23907l.57489-.325a12.45477,12.45477,0,0,1,.56869,1.23907Zm-.95265.41232c-.18076-.42249-.392-.82467-.6013-1.2289l.5708-.33515a9.73754,9.73754,0,0,1,.57885,1.231Zm1.24722,4.88518c-.382-.4753-.83289-.96688-1.23309-1.493-.47323-.62361-.96282-1.27564-1.4198-1.88909-.15646-.21125-.31491-.43876-.47533-.652-.08121-.10358-.18684-.29655-.329-.29655-.20308,0-.4002.35953-.51191.51593-.15026.2214-.30065.457-.44285.67032-.25589.386-.48141.78-.72912,1.15985v.04265c0,.06905-.02851.13-.09757.13l-.83487-.76172a11.32416,11.32416,0,0,0,.8857-1.07251c.28639-.39608.54229-.83484.84293-1.23092a1.13014,1.13014,0,0,1,.9405-.57079.99881.99881,0,0,1,.74338.43875c.16464.18687.32507.43061.47533.62563.35346.46517.70494.93842,1.06646,1.37923.55456.69468,1.2776,1.51734,1.86464,2.16937Z"/><path class="cls-2" d="M51.52279,21.24372c-.0305,0-.06708-.00812-.09757-.00812a2.86383,2.86383,0,0,0-1.07452.18283,3.02574,3.02574,0,0,0-1.71438,2.793c0,1.82,1.46047,2.02921,2.68327,2.02921-.05889.3433-.11989.69468-.2011,1.038H50.952a4.58984,4.58984,0,0,1-1.684-.31689,2.55038,2.55038,0,0,1-1.564-2.48626,4.863,4.863,0,0,1,.80437-2.74017c-.90194.16657-1.80376.35954-2.69145.587-.05083-.34937-.12187-.69062-.16452-1.03392a44.03485,44.03485,0,0,0,4.64547-.85313,10.03743,10.03743,0,0,0,1.06026-.33514c.03658.13405.27015.98516.27015,1.05422,0,.0711-.05281.08936-.1055.08936"/><path class="cls-2" d="M54.25465,22.89315a3.38243,3.38243,0,0,0-.21126,1.2025c0,.36155.06695,1.2939.48947,1.2939.15038,0,.27833-.16858.36561-.28233a7.58246,7.58246,0,0,0,1.0827-3.79439,2.69918,2.69918,0,0,0-1.72652,1.58032m2.6447,4.05031c-.23369-.2539-.44285-.52607-.67642-.77185,1.18821-.33518,2.28517-.8186,2.28517-2.48831a2.30381,2.30381,0,0,0-1.57019-2.38674c-.2032,1.51939-.60129,3.93458-1.78343,4.83035a.93715.93715,0,0,1-1.50323-.22954,3.14577,3.14577,0,0,1-.4793-1.80172,3.45663,3.45663,0,0,1,3.31294-3.6705,2.94122,2.94122,0,0,1,3.00016,3.19926,3.19465,3.19465,0,0,1-2.5857,3.31905"/><path class="cls-2" d="M66.91383,27.15531a7.60126,7.60126,0,0,1-2.77278-3.82281,9.7681,9.7681,0,0,1-.40826,1.15173,5.72708,5.72708,0,0,1-1.63106,2.143,4.34754,4.34754,0,0,1-.77189.49969l-.66216-.73736a4.39263,4.39263,0,0,0,.89376-.57077A5.62229,5.62229,0,0,0,63.418,22.36563a16.04885,16.04885,0,0,0,.12187-2.74017l1.044.11576c.061.00812.14419.04265.14419.13a.17835.17835,0,0,1-.13811.15845c-.01215.36158-.02232.711-.02232,1.0725a6.60617,6.60617,0,0,0,1.17209,3.39221,6.4188,6.4188,0,0,0,1.956,1.78956Z"/><path class="cls-2" d="M74.60309,21.89457a5.60128,5.60128,0,0,0-1.66764-.24579,7.61624,7.61624,0,0,0-1.17407.10359c-.00608-.31686,0-.62358-.01426-.94047a8.852,8.852,0,0,1,1.6535-.13811,5.994,5.994,0,0,1,1.36289.1828c-.05479.34125-.10153.69469-.16042,1.038m.43665,4.60081a8.57254,8.57254,0,0,1-1.32223.11576c-1.1437,0-2.21215-.14016-2.401-1.73061.26407-.193.526-.39611.79829-.581.03038.906.50373,1.3,1.24921,1.3a6.61021,6.61021,0,0,0,1.74276-.24374q-.03348.56367-.06707,1.13955m-4.623.46513c-.27226.02845-.5424.063-.81863.09956a10.84725,10.84725,0,0,1-.39-3.313,20.44539,20.44539,0,0,1,.39-3.72534l.652.1503a1.8297,1.8297,0,0,1,.323.07922.10959.10959,0,0,1,.08529.11174.1219.1219,0,0,1-.12187.11576,16.663,16.663,0,0,0-.43665,3.86549c0,.31689.01624.62361.01624.94047.134-.39608.262-.80031.40616-1.19639.187.16858.3759.34326.56273.50983a8.03772,8.03772,0,0,0-.66824,2.36234"/></svg>