<svg id="レイヤー_1" data-name="レイヤー 1" xmlns="http://www.w3.org/2000/svg" width="95" height="95.00614" viewBox="0 0 95 95.00614"><defs><style>.cls-1{fill:#cb8e0a;}.cls-2{fill:#fff;}.cls-3{fill:none;stroke:#fff;stroke-miterlimit:10;stroke-width:1.54376px;}</style></defs><title>sdgs_12</title><rect class="cls-1" width="95" height="95.00614"/><path class="cls-2" d="M72.62935,47.82873a16.24183,16.24183,0,0,0-12.27906-3.01838l-.24783.05691c-2.44758.57885-6.33753,1.53559-10.88951,7.18454-.02641.03447-.05083.065-.07724.09745l-.05691.069a.38136.38136,0,0,0-.07513.21945.38717.38717,0,0,0,.04872.19092l.10563.1727c.5708.95662,1.292,2.1876,1.90134,3.321a.13864.13864,0,0,1,.01624.03453.39047.39047,0,0,0,.34738.2133.37507.37507,0,0,0,.268-.10972.92888.92888,0,0,0,.08331-.11573c4.04219-5.588,7.21913-6.3599,9.36817-6.86561l.258-.061A11.7592,11.7592,0,0,1,69.82,51.38554c2.38882,1.885,3.60145,4.88717,3.60145,8.92123,0,6.76618-3.28853,9.41287-6.05113,10.44276a11.2824,11.2824,0,0,1-8.40933-.5566l-.18485-.08939c-2.35026-1.01966-5.85612-3.14235-9.161-9.78052-6.66259-13.37987-12.2343-14.63924-15.921-15.47411l-.197-.04265A15.91417,15.91417,0,0,0,21.405,47.81459c-2.39489,1.9094-5.24676,5.62255-5.24676,12.46578,0,4.16815.85718,6.92053,3.059,9.8171.48141.66018,5.41537,6.9977,14.95216,5.16958a14.33041,14.33041,0,0,0,5.86826-2.726L42.138,74.43423a.34265.34265,0,0,0,.48141-.02436.32034.32034,0,0,0,.08331-.2275V74.156L44.218,64.84054v-.10359a.332.332,0,0,0-.1117-.24777.31566.31566,0,0,0-.22341-.08536l-.063.00614-.09956.01017-8.92321,2.49841-.16254.02641a.31372.31372,0,0,0-.16861.09955.33573.33573,0,0,0,.02443.48345l.1055.09745,1.99878,1.80581a9.29374,9.29374,0,0,1-3.27439,1.38533c-6.90014,1.31628-10.30855-3.20329-10.4386-3.38l-.04873-.067c-1.60266-2.10441-2.14507-3.894-2.14507-7.08914,0-4.04628,1.19242-7.04842,3.54256-8.92533a11.42374,11.42374,0,0,1,8.26315-2.13081l.20109.04475c3.02049.68449,7.16025,1.61891,12.862,13.07315,2.96147,5.9455,6.67066,9.83538,11.34042,11.88487a16.45137,16.45137,0,0,0,7.10545,1.64736,14.12,14.12,0,0,0,4.95219-.87752c2.70558-1.00949,9.00045-4.45857,9.00045-14.69007,0-6.83715-2.8965-10.56047-5.32586-12.478"/><path class="cls-3" d="M72.18625,48.25286A16.17665,16.17665,0,0,0,60.11845,45.338l-.24176.05493c-2.407.55852-6.2278,1.48278-10.70057,6.93882-.0264.03248-.05083.06285-.07525.09335l-.05678.06707a.35719.35719,0,0,0-.07526.21325.36153.36153,0,0,0,.04885.18286l.10352.16861c.56274.92216,1.26954,2.11043,1.86873,3.20528a.17363.17363,0,0,1,.01636.03453.38762.38762,0,0,0,.34119.20512.37823.37823,0,0,0,.26408-.10563c.02839-.03651.0569-.07309.0812-.11171,3.97115-5.397,7.09317-6.14244,9.20576-6.63005l.25391-.05889a11.721,11.721,0,0,1,8.27332,2.09226c2.34815,1.82,3.54045,4.7206,3.54045,8.61656,0,6.53458-3.23373,9.0899-5.94749,10.0852a11.2484,11.2484,0,0,1-8.26526-.53825l-.18076-.08536c-2.30959-.98513-5.75458-3.03468-9.00256-9.44535-6.5468-12.92282-12.02094-14.13954-15.64483-14.946l-.19291-.04265a15.85663,15.85663,0,0,0-11.88282,2.90679C19.49534,50.083,16.69418,53.67034,16.69418,60.278a13.98863,13.98863,0,0,0,3.00424,9.48192c.47322.63781,5.32189,6.758,14.69416,4.99286a14.18285,14.18285,0,0,0,5.76673-2.63256l2.06374,1.82819a.34223.34223,0,0,0,.47335-.02238.30243.30243,0,0,0,.0812-.21938v-.02641l1.48886-8.99847.00211-.09955a.31833.31833,0,0,0-.11171-.23761.30972.30972,0,0,0-.21944-.08331l-.063.00607-.09745.01017-8.76688,2.41318-.16055.02436a.32636.32636,0,0,0-.1422.56466l.10364.09143L36.77519,69.116a9.21048,9.21048,0,0,1-3.21748,1.3386c-6.78038,1.27152-10.1299-3.09363-10.25784-3.26423l-.04674-.065c-1.57626-2.0333-2.1085-3.76187-2.1085-6.84738,0-3.90612,1.17209-6.80672,3.48168-8.61866a11.3841,11.3841,0,0,1,8.11884-2.05966l.19713.04476c2.96965.66006,7.03627,1.564,12.64046,12.6262,2.91088,5.74243,6.55486,9.49823,11.14354,11.47667a16.37118,16.37118,0,0,0,6.98147,1.59251,14.14,14.14,0,0,0,4.86689-.847c2.65884-.975,8.84412-4.30831,8.84412-14.18839,0-6.60365-2.8458-10.19889-5.23251-12.0515"/><polygon class="cls-2" points="9.931 12.484 9.959 12.484 9.959 27.147 13.181 27.147 13.181 7.992 10.607 7.992 7.641 11.468 7.641 14.83 7.67 14.83 9.931 12.484"/><path class="cls-2" d="M15.09932,11.948v2.31567h2.93915V11.86076c0-1.15585.56472-1.49506,1.24115-1.49506.62361,0,1.15982.25391,1.15982,1.44026v1.58233a3.79608,3.79608,0,0,1-1.18623,3.30489l-1.80785,1.92154c-1.75293,1.86464-2.403,3.10777-2.403,5.003V27.148h8.3647V24.51956H18.12179v-.90181a3.65578,3.65578,0,0,1,1.35483-2.93928L21.54037,18.503a6.027,6.027,0,0,0,2.03535-4.83243V11.806c0-2.74017-1.32645-4.03822-4.2108-4.03822-2.82547,0-4.2656,1.497-4.2656,4.1803"/><path class="cls-2" d="M34.90548,15.07849a6.90091,6.90091,0,0,1-1.39761.32507c-.23147-.27833-.45091-.579-.69874-.83288a10.88479,10.88479,0,0,0,1.7957-.41434,2.15039,2.15039,0,0,0,1.68586-2.05556c0-1.15994-.61134-1.54589-1.52134-1.54589-1.2533,0-2.43556.88769-3.66852,1.19441-.03657-.12385-.37578-1.107-.37578-1.15176,0-.08728.11381-.0507.16663-.0507a6.79108,6.79108,0,0,0,1.87071-.45711,7.11616,7.11616,0,0,1,2.27909-.48339,2.23494,2.23494,0,0,1,2.26087,2.407,2.97375,2.97375,0,0,1-2.39687,3.06511"/><path class="cls-2" d="M42.90667,15.87939a14.41726,14.41726,0,0,0-2.265-2.5573,6.826,6.826,0,0,0-.652-.5708,1.83174,1.83174,0,0,1-.37578-.33313.76327.76327,0,0,1-.1422-.47533,1.026,1.026,0,0,1,.3433-.74746c.36152-.386.7373-.74747,1.09076-1.13949.52815-.5972,1.06039-1.19651,1.57217-1.82818.21944.18287.43677.35953.65411.54439a1.527,1.527,0,0,1,.24783.21126.10644.10644,0,0,1,.03856.07922c0,.12187-.16651.13811-.24783.12187-.49765.47322-1.00745.93839-1.51328,1.42389-.20916.20109-.40219.42053-.61543.62361-.09745.09745-.20928.18485-.30065.29048a.56833.56833,0,0,0-.18076.34937.34151.34151,0,0,0,.134.26408c.319.29854.67035.55244.9953.83487a15.05952,15.05952,0,0,1,1.99679,2.15511c-.26209.24374-.516.50782-.77994.75354"/><path class="cls-2" d="M47.94638,14.24536c-.14418,0-.23357.06087-.23357.23556,0,.327.42859.3697.62361.3697-.03856-.25391-.11369-.60526-.39-.60526m.63589,1.432c-.62163,0-1.63118-.25589-1.63118-1.17606a1.01582,1.01582,0,0,1,1.08468-.95873,1.11162,1.11162,0,0,1,1.038.78813,2.15875,2.15875,0,0,1,.07525.4855,1.33631,1.33631,0,0,0,.96071-1.302,1.23833,1.23833,0,0,0-1.31417-1.34268c-1.13552,0-1.7895,1.044-2.49643,1.91546-.23357-.23766-.46715-.47335-.70085-.711A18.67286,18.67286,0,0,0,48.44812,9.669c-.60129.13811-1.20246.2539-1.80376.37577l-.16452-1.03807a1.55464,1.55464,0,0,0,.23965.01228,7.77148,7.77148,0,0,0,.99939-.08741,12.69576,12.69576,0,0,0,1.37728-.24783,4.70386,4.70386,0,0,0,.47322-.15026c.17271.23766.34528.46715.518.70481a2.51735,2.51735,0,0,0-.22552.193,6.38339,6.38339,0,0,0-.48748.587c-.36152.47533-.70073.96678-1.046,1.45029a2.62917,2.62917,0,0,1,.69056-.07922,1.87637,1.87637,0,0,1,2.00287,1.97646,2.22468,2.22468,0,0,1-2.43952,2.31146"/><path class="cls-2" d="M58.16121,13.78837H54.95178v.31491h3.20943Zm0-.8795H54.95178v.31491h3.20943Zm-.01017-.85111H54.94967v.29866H58.151Zm-4.97463-.86128V10.51h2.923v-.27014H54.01537v-.644h2.08408v-.2885H53.52789V8.57818h2.56337V7.89172l.92426.063a.11346.11346,0,0,1,.12187.10563.16346.16346,0,0,1-.12187.15026v.36759h2.63256v.72924H56.99321v.2885h2.05965v.644H56.99321V10.51h2.93308v.68647ZM59.46732,16.169a6.20146,6.20146,0,0,1-2.30761-.9059l.45909-.518H55.54291l.44483.48352a.10527.10527,0,0,1-.09757.1117.26389.26389,0,0,1-.136-.04066,6.35992,6.35992,0,0,1-2.05978.843l-.56472-.74759a3.68814,3.68814,0,0,0,1.8505-.65h-.85111V11.46056h4.88933v3.28455h-.89587a4.5561,4.5561,0,0,0,1.91758.5708Z"/><path class="cls-2" d="M66.43589,12.31278v2.63256H68.197v.79222H63.79119v-.79222h1.73668V12.31278h-1.9012v-.782h1.9012v-1.757c-.49765.07922-1.00137.14022-1.499.195l-.33722-.776a9.99093,9.99093,0,0,0,3.75989-.94855l.67643.97707a.1263.1263,0,0,1-.13006.10352.24613.24613,0,0,1-.132-.05281c-.47521.132-.94038.256-1.42179.34329v1.91547H68.3697v.782ZM63.88876,8.64836c-.21126.579-.43678,1.15783-.69267,1.71449v5.586h-.87144V11.77447a3.26835,3.26835,0,0,1-.54848.78416l-.54848-.66837a8.98713,8.98713,0,0,0,1.78751-3.908l1.0015.41024a.12283.12283,0,0,1,.07315.10762c0,.09558-.1422.14022-.20109.14828"/><path class="cls-2" d="M34.72906,26.42127a7.03768,7.03768,0,0,1-1.39761.32507c-.23147-.2823-.45091-.579-.69874-.83685a10.2893,10.2893,0,0,0,1.7957-.41037,2.15408,2.15408,0,0,0,1.68585-2.05556c0-1.15994-.61133-1.54589-1.52133-1.54589-1.2533,0-2.43556.88769-3.66852,1.19441-.03658-.12386-.37578-1.10911-.37578-1.15176,0-.08728.11381-.05071.16663-.05071a6.70832,6.70832,0,0,0,1.87071-.45909,7.1161,7.1161,0,0,1,2.27909-.48339,2.23664,2.23664,0,0,1,2.26087,2.409,2.97681,2.97681,0,0,1-2.39687,3.06512"/><path class="cls-2" d="M44.06834,24.858c-.16452-.256-.34739-.49158-.526-.73743.21734-.03657.76569-.16848.76569-.50161a4.21535,4.21535,0,0,0-1.08258-1.97647c.26408-.16861.526-.34131.78813-.5098a5.007,5.007,0,0,1,1.25528,2.62636c0,.70482-.74349.9405-1.20048,1.09895m-1.86463,1.65945a1.16163,1.16163,0,0,1-.85111.26618,1.785,1.785,0,0,1-.73532-.1706c-.02851-.34131-.04475-.67444-.09149-1.00955a1.69838,1.69838,0,0,0,.82681.25589c.61133,0,.60117-1.98651.60117-2.47808,0-.36165.01016-1.01166-.42041-1.01166a2.05635,2.05635,0,0,0-.45091.07116A17.26211,17.26211,0,0,1,39.48176,26.808c-.29246-.14208-.57079-.325-.86326-.47521a12.28076,12.28076,0,0,0,1.51737-3.73349c-.3454.06906-.69068.14828-1.02988.24784-.0305-.1158-.21734-.92228-.21734-.95885a.0319.0319,0,0,1,.03447-.03447c.06905,0,.13005.01624.19712.01624a6.87429,6.87429,0,0,0,1.20247-.15038,14.64157,14.64157,0,0,0,.27015-2.09821c.24176.063.46926.132.70072.20109a1.85158,1.85158,0,0,1,.29458.09745c.03657.01835.08938.03657.08938.0874,0,.063-.06087.09745-.09744.1158-.0915.49963-.18895.99939-.31491,1.48278a4.137,4.137,0,0,1,.45091-.04265.89892.89892,0,0,1,.99741.74548,4.88142,4.88142,0,0,1,.14418,1.33661c0,.78193-.11368,2.34406-.654,2.87209"/><path class="cls-2" d="M49.9376,21.09045a10.82311,10.82311,0,0,0-2.12672-.79222c.1422-.31689.27833-.63378.42041-.94869a8.464,8.464,0,0,1,2.18363.7983c-.15237.31689-.30462.63378-.47732.94261m-1.31417,6.33132c-.28032-.2539-.55666-.51785-.85111-.74535a3.62864,3.62864,0,0,0,2.16528-1.52754,2.81219,2.81219,0,0,0,.29457-1.29186c0-.782-.258-1.231-.95475-1.231a6.24961,6.24961,0,0,0-2.12871.9405c-.05492-.132-.41235-1.03807-.41235-1.11518,0-.063.07314-.05492.10352-.05492a4.76492,4.76492,0,0,0,.93244-.25391,5.1952,5.1952,0,0,1,1.75293-.4488c1.20246,0,1.72652.94855,1.72652,2.25876a3.75312,3.75312,0,0,1-2.62834,3.46928"/><path class="cls-2" d="M58.069,25.12793H54.85954v.31887H58.069Zm0-.87541H54.85954v.31478H58.069Zm-.0041-.85322H54.85954v.29655h3.20533ZM53.08628,22.538v-.68449h2.927v-.27424H53.92921v-.63985h2.08407V20.649H53.43974v-.72924h2.56338v-.68448l.92425.061a.11433.11433,0,0,1,.11989.10563.15329.15329,0,0,1-.11989.14828v.36958h2.63256V20.649H56.907v.29048h2.05978v.63985H56.907v.27424h2.9311V22.538Zm6.29289,4.97252a6.23541,6.23541,0,0,1-2.30761-.90591l.45711-.518h-2.076l.44694.48352A.111.111,0,0,1,55.8,26.686a.30663.30663,0,0,1-.13613-.04475,6.25394,6.25394,0,0,1-2.05767.84094l-.56472-.74548a3.68837,3.68837,0,0,0,1.84852-.65h-.847V22.80209h4.88512v3.28456h-.89376a4.57989,4.57989,0,0,0,1.91757.5729Z"/><path class="cls-2" d="M66.26108,23.65358v2.63454h1.75913v.79222H63.61638v-.79222h1.7347V23.65358H63.44987v-.78206h1.90121v-1.755c-.49566.07724-.99939.14022-1.495.19093l-.33921-.77189a10.00359,10.00359,0,0,0,3.75989-.95054l.67643.975a.12434.12434,0,0,1-.12795.10563.28559.28559,0,0,1-.13613-.05083c-.47322.132-.93839.25391-1.4198.34132v1.91546h1.92353v.78206ZM63.714,19.99113c-.21126.579-.43678,1.15994-.69267,1.71239V27.2916h-.87355V23.11725a3.33107,3.33107,0,0,1-.54637.78205l-.55047-.66824a8.94626,8.94626,0,0,0,1.78951-3.90817l.99938.41235a.12027.12027,0,0,1,.07724.10563c0,.09757-.14418.14022-.20307.15026"/></svg>