<svg id="レイヤー_1" data-name="レイヤー 1" xmlns="http://www.w3.org/2000/svg" width="95" height="95.00403" viewBox="0 0 95 95.00403"><defs><style>.cls-1{fill:#15315e;}.cls-2{fill:#fff;}</style></defs><title>sdgs_17</title><rect class="cls-1" width="95" height="95.00403"/><path class="cls-2" d="M56.46839,58.26666a12.34156,12.34156,0,0,0,3.967-9.06736,12.70628,12.70628,0,0,0-.10352-1.58231,9.864,9.864,0,0,1,5.57568,17.12518,12.393,12.393,0,0,0-9.43913-6.47551m8.40108,12.28072A9.86538,9.86538,0,0,1,50.11279,79.1313,12.32412,12.32412,0,0,0,53.511,70.63066a12.453,12.453,0,0,0-.22948-2.36839,12.34515,12.34515,0,0,0,11.3869.31077,9.90339,9.90339,0,0,1,.20109,1.97434m-33.6125.08328a9.7113,9.7113,0,0,1,.21534-2.04747,12.355,12.355,0,0,0,11.35245-.31077,12.51591,12.51591,0,0,0-.21324,2.275,12.33633,12.33633,0,0,0,3.49772,8.60829,9.86324,9.86324,0,0,1-14.85227-8.525M26.969,57.442a9.89607,9.89607,0,0,1,8.82371-9.825,12.29307,12.29307,0,0,0,3.93845,10.72278,12.40139,12.40139,0,0,0-9.48785,6.4288A9.84858,9.84858,0,0,1,26.969,57.442M48.06124,39.31744a9.89384,9.89384,0,0,1,9.05926,5.94131,12.421,12.421,0,0,0-9.05926,6.95285,12.40555,12.40555,0,0,0-9.05716-6.95285,9.89071,9.89071,0,0,1,9.05716-5.94131m2.35219,22.47744a9.8513,9.8513,0,0,1,13.43238,4.39961,9.8513,9.8513,0,0,1-13.43238-4.39961m-4.73686.067a9.84349,9.84349,0,0,1-13.36544,4.3468,9.84354,9.84354,0,0,1,13.36544-4.3468M38.30932,47.68A9.78544,9.78544,0,0,1,46.6049,58.96132,9.78537,9.78537,0,0,1,38.30932,47.68M48.108,77.62617a9.85186,9.85186,0,0,1-.0915-14.07632,9.85186,9.85186,0,0,1,.0915,14.07632m9.8351-28.42687a9.88772,9.88772,0,0,1-8.42339,9.762A9.79807,9.79807,0,0,1,57.81514,47.68a9.838,9.838,0,0,1,.12794,1.51935M71.64573,57.442A12.38961,12.38961,0,0,0,59.72858,45.078a12.3737,12.3737,0,0,0-23.33468,0,12.36568,12.36568,0,0,0-7.14174,22.1179,12.36694,12.36694,0,0,0,18.87,13.63963A12.36556,12.36556,0,0,0,66.89065,67.18166,12.363,12.363,0,0,0,71.64573,57.442"/><polygon class="cls-2" points="13.503 8.005 13.503 27.16 10.282 27.16 10.282 12.496 10.253 12.496 7.993 14.842 7.964 14.842 7.964 11.481 10.932 8.005 13.503 8.005"/><polygon class="cls-2" points="14.971 8.005 23.051 8.005 23.051 10.971 18.843 27.16 15.647 27.16 19.944 10.632 14.971 10.632 14.971 8.005"/><path class="cls-2" d="M36.46865,8.406c-.21931,0-.392.23766-.392.522s.1727.52.392.52a.48171.48171,0,0,0,.40218-.52.47709.47709,0,0,0-.40218-.522m0,1.499a.8841.8841,0,0,1-.74744-.977.776.776,0,1,1,1.499,0,.89061.89061,0,0,1-.75154.977m-.15236,4.90336a15.90446,15.90446,0,0,0-1.7488-4.60678l.77187-.65a16.83226,16.83226,0,0,1,1.84228,4.489ZM33.556,10.53064a10.36976,10.36976,0,0,1-.24175,1.109,9.15653,9.15653,0,0,1-1.60871,3.50792,9.451,9.451,0,0,0-.81861-.652,8.48757,8.48757,0,0,0,1.7793-4.95007l.977.72919a.13641.13641,0,0,1,.04265.10563.16937.16937,0,0,1-.12993.15029"/><path class="cls-2" d="M42.86864,12.34775c-.40837-.02638-.73133-.02638-1.06445-.02638-.37775-.01016-2.82949,0-3.73947.03453-.01414-.36157-.03658-.82062-.04464-1.09077-.00607-.13408.05282-.1422.09547-.13408a3.35091,3.35091,0,0,0,.41432.063c.43875.02641,1.09892.0203,1.60263.0203,1.04,0,1.60871-.03046,2.77061-.0467-.02033.35953-.02839.82062-.03447,1.18012"/><path class="cls-2" d="M47.61815,13.04164a10.71779,10.71779,0,0,0-2.10436-1.434c0,.14827-.00608.29047-.00608.42452v2.02309c0,.53015.01414,1.07044.02021,1.60264H44.52459c.04674-1.15375.05888-2.30951.05888-3.46323,0-1.34262-.01214-2.68729-.03657-4.0218l1.03185.11781a.10427.10427,0,0,1,.09955.10764.19261.19261,0,0,1-.11381.1625c-.02231.82063-.03657,1.64122-.0507,2.46185a3.17976,3.17976,0,0,0,.24981-.44281,9.86076,9.86076,0,0,1,2.41913,1.51529c-.1929.31685-.37986.63373-.56458.94652"/><path class="cls-2" d="M54.96221,11.40082c-.35147,0-.70281-.00812-1.05428-.00812H52.76636c-.02021,1.96623-.524,3.50792-2.03928,4.31026a6.14886,6.14886,0,0,0-.80844-.67641c1.39745-.6845,1.87277-1.81184,1.90736-3.644-.82468.03654-1.64937.07516-2.468.11781,0-.3697-.00806-.73936-.02839-1.10906.457.01829.918.02641,1.36894.02641h.8775c.09348,0,.17877,0,.26617-.00812.00608-.128.00608-.25189.00608-.38795,0-.61142-.02232-1.22485-.05083-1.8403l.99738.12593c.04265.01017.10761.03658.10761.10969a.19752.19752,0,0,1-.08529.1422l-.02232,1.84026c.73319-.0264,1.46453-.05483,2.2059-.10764,0,.36967-.0305.73936-.03856,1.109"/><path class="cls-2" d="M60.753,12.34775c-.40838-.02638-.73332-.02638-1.06036-.02638-.38185-.01016-2.55725,0-3.46934.03453-.01215-.36157-.03446-.82062-.04264-1.09077-.00806-.13408.05083-.1422.09347-.13408a3.376,3.376,0,0,0,.41644.063c.43862.02641,1.55787.0203,2.0575.0203,1.042,0,.8796-.03046,2.04138-.0467-.02232.35953-.02839.82062-.03645,1.18012"/><path class="cls-2" d="M64.88906,10.17622a7.53784,7.53784,0,0,0-1.50717-1.07248c.16042-.28843.31279-.59719.45908-.90592a5.58316,5.58316,0,0,1,1.57015,1.06232c-.16055.31688-.33932.61544-.52206.91608m-2.03531,5.23444c-.04673-.10563-.47929-.96686-.47929-1.0095,0-.063.071-.0711.09943-.08127a7.38543,7.38543,0,0,0,1.3041-.40218,11.02546,11.02546,0,0,0,3.75361-2.92495c.02641.44891.06707.8978.11579,1.33655a9.80412,9.80412,0,0,1-4.79364,3.08135m1.07053-3.24184a8.76141,8.76141,0,0,0-1.62705-1.3081c.17666-.3006.3351-.60527.50371-.90387a6.85236,6.85236,0,0,1,1.6433,1.28169Z"/><path class="cls-2" d="M71.25818,12.44284a11.02249,11.02249,0,0,0-.54847-1.86264c.25589-.08936.5119-.17468.76977-.27219a9.3907,9.3907,0,0,1,.52813,1.8606c-.24981.08126-.50172.17468-.74943.27423m2.48-1.52952a8.72755,8.72755,0,0,1-1.22885,3.48759A4.31645,4.31645,0,0,1,70.5695,15.902c-.19489-.24373-.40218-.47324-.60327-.719,2.00692-.60736,2.72189-2.36233,2.93723-4.83025l.88358.34125a.08429.08429,0,0,1,.04661.07922.16211.16211,0,0,1-.09546.14015M69.946,12.91608a11.30636,11.30636,0,0,0-.57078-1.9337l.77795-.31484a9.86354,9.86354,0,0,1,.54834,1.92153c-.24981.12593-.5078.22142-.75551.327"/><path class="cls-2" d="M80.16955,8.05665a.44174.44174,0,0,0-.37986.48545.42759.42759,0,0,0,.37986.46516.43872.43872,0,0,0,.38382-.46516.44684.44684,0,0,0-.38382-.48545m0,1.37919a.81992.81992,0,0,1-.713-.89374.8174.8174,0,0,1,.713-.9039.82647.82647,0,0,1,.71695.9039.82565.82565,0,0,1-.71695.89374m-.41433.69668a8.7434,8.7434,0,0,1-2.32578,4.38338,4.85067,4.85067,0,0,1-1.33658.9039c-.26407-.28843-.54847-.56266-.83275-.81656a5.524,5.524,0,0,0,3.43066-4.32241c-1.21459.01624-2.42931.1056-3.646.16656-.02033-.35953-.03459-.7211-.04067-1.08063.32507.00815.65212.0264.979.0264.63984,0,1.27769-.01825,1.91555-.0264.329-.00608.66,0,.98709-.02436a.53976.53976,0,0,0,.36164-.132,6.34314,6.34314,0,0,1,.63971.76171c0,.0711-.09744.12593-.13191.16045"/><path class="cls-2" d="M86.97581,11.50685a9.10786,9.10786,0,0,0-.40826-1.28575l.48748-.27218c.14629.41435.28241.8267.40428,1.2492Zm-.79618.30471c-.12186-.41235-.258-.82469-.40428-1.21469l.49156-.26a9.13528,9.13528,0,0,1,.37577,1.20045Zm.585-2.17547c-.03049-.002-.05492-.01825-.0874-.0203a2.36342,2.36342,0,0,0-.9039.17673A2.9965,2.9965,0,0,0,84.2357,12.429c-.06695,1.72654,1.14156,1.96826,2.16325,2.00484-.05678.327-.12584.65607-.199.98105-.04674-.002-.09348-.00406-.1463-.00608a3.46227,3.46227,0,0,1-1.39336-.35141,2.46076,2.46076,0,0,1-1.21273-2.405,5.21053,5.21053,0,0,1,.77808-2.604c-.7658.132-1.51945.28641-2.273.47938-.02641-.33718-.06906-.6642-.09546-.99937.69054-.08328,1.371-.17468,2.05353-.28638A14.372,14.372,0,0,0,86.663,8.56361c.0305.14425.19093.90186.187.99125-.00211.067-.04066.08328-.0853.08123"/><path class="cls-2" d="M35.60529,24.67318H32.44676v1.4503h3.15853Zm0-2.1206H32.44676V23.8485h3.15853Zm0-2.18556H32.44676v1.31215h3.15853Zm-3.969-.88968h4.812v7.49925h-4.812Z"/><path class="cls-2" d="M43.25743,21.36858h-.40627v.83687h.40627Zm.65,5.49851a6.25965,6.25965,0,0,1-1.14765-1.42386l.648-.44687a4.49617,4.49617,0,0,0,1.03991,1.29387Zm-1.71025-5.49851h-.38593v.83687h.38593Zm0-1.21263h-.38593v.54437h.38593Zm-1.0197,1.21263h-.3656v.83687h.3656Zm-.69674,1.80983h3.19312v.66014H40.48075ZM42.5018,24.8298c0,.40419.0062.81653.0062,1.22075,0,.83482-.48549,1.01155-1.04821,1.09889l-.43466-.66826c.29258-.061.67232-.061.67232-.55454V24.8298H39.96278v-.68453h4.25955v.68453Zm.3718-4.67385v.54437h1.105v2.11856H40.14366V20.70032h1.00743V20.156h-1.231v-.719h4.27976v.719Zm-1.62705,5.42133a5.26169,5.26169,0,0,1-1.0197,1.2634l-.53421-.54435a3.05512,3.05512,0,0,0,.98523-1.35077l.69055.47328a.08906.08906,0,0,1,.0264.0711c0,.09546-.08938.10562-.14827.08734M39.82071,23.8812a4.97186,4.97186,0,0,1-.2885-.44077v3.62979h-.75972V23.69638a3.37611,3.37611,0,0,1-.55442.98514l-.52206-.62561a5.913,5.913,0,0,0,1.02578-2.47607h-.73741v-.79217h.78V19.07535l.76778.063a.117.117,0,0,1,.11989.11576.16937.16937,0,0,1-.11989.13814v1.39544h.43057v.79217H39.524v.43063a5.57186,5.57186,0,0,0,.711,1.16794c-.14021.23766-.27225.47529-.41432.70279"/><path class="cls-2" d="M51.16484,23.25072a.19281.19281,0,0,1-.10364-.04466c-.50781.18481-1.48684.59716-1.94791.82465V25.3835l-.83286-.00812c.00818-.12187.00818-.2539.00818-.40422v-.49153c-.56273.28031-.843.64185-.843,1.044,0,.35141.323.53827.9628.53827a5.87917,5.87917,0,0,0,2.04746-.35138l-.02839,1.02574a5.39224,5.39224,0,0,1-1.76715.2539c-1.37712,0-2.06568-.46311-2.06568-1.4056a1.77573,1.77573,0,0,1,.57685-1.2634,5.03668,5.03668,0,0,1,1.06843-.7556c-.01637-.39611-.126-.59924-.33114-.59924a1.0007,1.0007,0,0,0-.72514.33517c-.14021.14217-.321.327-.54239.59716-.26.30671-.4204.52-.51995.62359-.126-.15844-.321-.394-.58294-.719a6.30336,6.30336,0,0,0,1.77323-2.38058c-.37379.05281-.78812.08938-1.239.11375-.02852-.33313-.06906-.64186-.11381-.914a11.21555,11.21555,0,0,0,1.61279-.08734,7.498,7.498,0,0,0,.23767-1.21263l.95064.22749a.10744.10744,0,0,1,.08529.10764c0,.05282-.03458.09751-.1138.13-.03447.15029-.09745.37983-.18882.67638a10.36267,10.36267,0,0,0,1.31414-.325l-.07711.96686c-.388.08737-.908.17471-1.556.27218a5.15159,5.15159,0,0,1-.43466.8775,1.40014,1.40014,0,0,1,.40218-.06093c.42858,0,.70889.30873.837.94045.5626-.31688,1.20244-.64186,1.89707-.975l.323.9831c0,.0711-.02641.10764-.08319.10764"/><path class="cls-2" d="M55.84207,21.61437c.02839.22954.069.455.09546.68453h.86733c.04265-.22954.08939-.455.12385-.68453Zm1.88492.01627c-.08938.21327-.17257.43872-.2539.66215h1.11318v.67641H56.74994v.40422h1.45845v.66014H56.74994v.36967h1.86273v.69469H56.75614v.82466h-.74757v-.82466H54.28208v-.69469h1.72649v-.36967H54.65178v-.66014h1.35679V22.9692H54.26993v-.67641h.99726c-.063-.22343-.11777-.44888-.195-.66215h-.81241v-.67843h1.73256v-.49767H54.48119v-.72919h1.507v-.70483l.7679.06093c.063.00611.132,0,.132.10358,0,.067-.06905.10157-.11182.128v.41234h1.62507v.72919H56.77027v.49767h1.85654v.67843Zm-4.0421-.652a10.49581,10.49581,0,0,0-1.09284-.90186l.54847-.79828a7.74609,7.74609,0,0,1,.9892,1.0542Zm4.76327,5.97581c-.36573.00815-.72724.0264-1.09285.0264a6.07986,6.07986,0,0,1-3.73947-.9892,5.29352,5.29352,0,0,1-.524,1.06436l-.59719-.44687a6.13982,6.13982,0,0,0,.784-3.46728h-.86734v-.76577h1.65756a12.85567,12.85567,0,0,1-.27635,2.74826,5.02636,5.02636,0,0,0,3.69894,1.04809c.394,0,.79208-.03248,1.18421-.05077Z"/><path class="cls-2" d="M65.66614,19.53136c-.16662.29859-.327.60531-.50173.89578l-.63773-.24578a11.604,11.604,0,0,0,.38792-1.30809l.80845.35949a.18233.18233,0,0,1,.1117.15643c0,.08936-.1117.13405-.16861.14217m.20927,7.57643a5.75045,5.75045,0,0,1-1.53767-1.66354,4.51486,4.51486,0,0,1-1.692,1.60871l-.5688-.59515a4.3923,4.3923,0,0,0,1.83633-1.83623,10.59487,10.59487,0,0,1-.82072-3.32713H61.40262v.04674c0,.33312.00608.66013.00608.99527h1.64118c-.01413.67641-.01413,1.363-.08938,2.03326-.13191,1.10295-.4509,1.45436-1.302,1.54576l-.38185-.715c.84291-.10764.95263-.46921.96689-1.50106l.00806-.61545h-.86325a7.38025,7.38025,0,0,1-.88965,3.97915l-.65409-.51592a6.098,6.098,0,0,0,.76381-3.62371c0-.81452-.04264-1.63716-.05492-2.45168h2.48224c-.04066-.53421-.05492-1.07654-.069-1.60871l.91394.12593c.04885.01016.14431.03657.14431.128a.25294.25294,0,0,1-.132.18891c-.00608.21733-.00608.42452-.00608.64185,0,.17062,0,.35343.00608.52405h2.22623v.84092H63.92949a10.51728,10.51728,0,0,0,.42251,2.3684,8.85252,8.85252,0,0,0,.48747-1.94387l.86733.5992a.20729.20729,0,0,1,.0853.16049c0,.09952-.13811.13811-.195.14421A11.08869,11.08869,0,0,1,64.83947,24.65a4.99379,4.99379,0,0,0,1.61887,1.57418Z"/><path class="cls-2" d="M71.49423,26.25347a3.09741,3.09741,0,0,1-1.86273.59719c-.99937,0-1.62693-.71094-1.68185-1.95606-.01414-.1686-.00608-.33516-.00608-.50374,0-.47328.00608-.94857.02033-1.432.02034-1.13342.03459-2.27294.04873-3.40635.21733.03452.44284.07922.66227.13a1.53023,1.53023,0,0,1,.27411.06093c.05691.02842.126.063.126.14217a.18373.18373,0,0,1-.10562.15032c-.0853,1.52747-.14617,3.07323-.14617,4.6007,0,.78405.28031,1.25733.93639,1.25733a1.83611,1.83611,0,0,0,.89163-.25595,3.55758,3.55758,0,0,0,1.41171-1.83418l.516,1.14153a4.1651,4.1651,0,0,1-1.08466,1.3081"/><path class="cls-2" d="M76.2239,24.87306a2.04679,2.04679,0,0,0-.92833-.22749.61922.61922,0,0,0-.62558.55451c0,.54233.48946.68249.83684.68249.4225,0,.71707-.19093.71707-.76372Zm2.45372,1.66152a8.12115,8.12115,0,0,0-1.59655-1.24716A1.36289,1.36289,0,0,1,75.56373,26.754c-.69464,0-1.76715-.43872-1.76715-1.493a1.39721,1.39721,0,0,1,1.54164-1.42386,3.37729,3.37729,0,0,1,.8775.11375c0-1.22891-.04674-2.468-.14009-3.6887-.02641-.29857-.04265-.59716-.0915-.88764l.93441.15032c.04463.00812.12186.05282.12186.12388a.17855.17855,0,0,1-.07723.1219v.33313c0,.3859-.00806.77388.00619,1.15982h.08319a7.05684,7.05684,0,0,0,.971-.05282c.25588-.03452.49962-.09549.74745-.13814,0,.34125-.01426.68249-.02232,1.0339-.39412.03453-.79629.06093-1.1883.06093-.18274,0-.3635-.00812-.55653-.01624.02232.70077.02839,1.40561.04872,2.11856a11.33305,11.33305,0,0,1,2.20193,1.3345Z"/><path class="cls-2" d="M83.5578,20.55044a9.75624,9.75624,0,0,0-1.98857-.79013c.134-.31483.26-.63373.392-.95061a7.59556,7.59556,0,0,1,2.04337.80234c-.1422.31685-.28428.63168-.44681.9384M82.329,26.88376c-.2601-.2539-.52007-.51794-.79629-.74543A3.39228,3.39228,0,0,0,83.5578,24.6068,2.90272,2.90272,0,0,0,83.834,23.319c0-.782-.23965-1.22888-.89374-1.22888a5.62989,5.62989,0,0,0-1.99056.9384c-.04872-.13-.38593-1.03795-.38593-1.11513,0-.063.06905-.05485.09955-.05485a4.26631,4.26631,0,0,0,.86932-.25391,4.6115,4.6115,0,0,1,1.64119-.44684c1.12334,0,1.61689.94857,1.61689,2.25667a3.72266,3.72266,0,0,1-2.46179,3.4693"/></svg>