<svg id="レイヤー_1" data-name="レイヤー 1" xmlns="http://www.w3.org/2000/svg" width="95" height="95.004" viewBox="0 0 95 95.004"><defs><style>.cls-1{fill:#2e9f39;}.cls-2{fill:#fff;}</style></defs><title>sdgs_15</title><rect class="cls-1" width="95" height="95.004"/><path class="cls-2" d="M36.538,64.23559h2.79912a.21125.21125,0,0,1,.21125.21125v6.91629a.21125.21125,0,0,1-.21125.21125h-2.799a.20927.20927,0,0,1-.20927-.20927V64.44473A.20915.20915,0,0,1,36.538,64.23559Z"/><path class="cls-2" d="M70.08128,74.54335H23.95022a.21638.21638,0,0,0-.21113.21739v2.81933a.2102.2102,0,0,0,.21113.20716H70.08128a.2102.2102,0,0,0,.21113-.20716V74.76074a.21638.21638,0,0,0-.21113-.21739"/><path class="cls-2" d="M70.08128,80.14686H23.95022a.21026.21026,0,0,0-.21113.20722v2.8295a.212.212,0,0,0,.21113.20921H70.08128a.212.212,0,0,0,.21113-.20921v-2.8295a.21026.21026,0,0,0-.21113-.20722"/><path class="cls-2" d="M61.30307,56.57749a6.83431,6.83431,0,0,0-3.9914-1.50308,5.33373,5.33373,0,0,0-3.70488,1.57418.39461.39461,0,0,0-.122.28843v.25192a.40794.40794,0,0,0,.13.31682.37537.37537,0,0,0,.327.07519.44183.44183,0,0,0,.0853-.02238.631.631,0,0,0,.23159-.14623,3.72171,3.72171,0,0,1,1.84636-.38389,6.9784,6.9784,0,0,1,4.753,1.99062l.04265.03855a.56042.56042,0,0,0,.4023.16656.54616.54616,0,0,0,.3899-.16247l.03868-.03861a7.003,7.003,0,0,1,4.75905-1.99465,3.73242,3.73242,0,0,1,1.85244.38389.69164.69164,0,0,0,.256.1564.58128.58128,0,0,0,.27015.00812.396.396,0,0,0,.28836-.38185v-.22142a.393.393,0,0,0-.12186-.28433,5.345,5.345,0,0,0-3.74952-1.61689,6.77736,6.77736,0,0,0-3.98321,1.50512"/><path class="cls-2" d="M58.4406,38.19173a.38751.38751,0,0,0-.20122.24175l-.04661.15435a.39027.39027,0,0,0,.06087.34738.37157.37157,0,0,0,.2844.15435.138.138,0,0,0,.05691.002.49093.49093,0,0,0,.2234-.05485,1.14821,1.14821,0,0,1,.28031-.03249,4.00607,4.00607,0,0,1,3.29663,2.15309l.01426.03043a.47982.47982,0,0,0,.29655.23562.54976.54976,0,0,0,.14629.02238.48736.48736,0,0,0,.23146-.05691l.03248-.01624a4.59986,4.59986,0,0,1,2.05763-.5078,3.13732,3.13732,0,0,1,2.10238.67232.49016.49016,0,0,0,.15633.17269,1.25674,1.25674,0,0,0,.1484.07309.352.352,0,0,0,.06694.00812.15151.15151,0,0,0,.04265.00409.39421.39421,0,0,0,.18287-.04674.38267.38267,0,0,0,.195-.23561l.04054-.13607a.4058.4058,0,0,0,.01426-.11374.38094.38094,0,0,0-.05282-.19706,3.46729,3.46729,0,0,0-3.128-1.8809,4.94939,4.94939,0,0,0-1.66152.31081A4.03065,4.03065,0,0,0,60.16906,37.753a3.821,3.821,0,0,0-1.72846.43869"/><path class="cls-2" d="M48.69277,45.28877l.01215.20723a.39486.39486,0,0,0,.49565.35748.64288.64288,0,0,0,.06695-.02033.48422.48422,0,0,0,.1991-.14828,3.40288,3.40288,0,0,1,1.759-.39808,5.69237,5.69237,0,0,1,3.6481,1.37916l.03249.03249a.54936.54936,0,0,0,.35754.13408h.03248a.52837.52837,0,0,0,.36152-.17264l.03248-.03657a5.53531,5.53531,0,0,1,4.04222-1.8667,2.786,2.786,0,0,1,1.20442.21733.59883.59883,0,0,0,.23977.126.53965.53965,0,0,0,.16849.01017.5582.5582,0,0,0,.09756-.02238.39619.39619,0,0,0,.262-.396l-.01016-.18081a.39772.39772,0,0,0-.14009-.27418,4.52854,4.52854,0,0,0-2.95137-1.1619,5.50637,5.50637,0,0,0-3.45309,1.42795A5.76028,5.76028,0,0,0,52.07259,43.481a4.40289,4.40289,0,0,0-3.27221,1.5112.41315.41315,0,0,0-.10761.29655"/><path class="cls-2" d="M25.3473,48.99229a5.00136,5.00136,0,0,1,5.0008-5.0008c.10761,0,.21535.01017.321.01624a6.76289,6.76289,0,1,1,12.823,3.46115A7.55943,7.55943,0,0,1,41.85291,62.4085c-.30473,0-10.09111-.05889-10.09111-.05889A5.348,5.348,0,0,1,27.866,53.329a4.99482,4.99482,0,0,1-2.51869-4.33667"/><polygon class="cls-2" points="7.271 11.478 7.271 14.84 7.299 14.84 9.558 12.496 9.588 12.496 9.588 27.159 12.808 27.159 12.808 8.003 10.236 8.003 7.271 11.478"/><path class="cls-2" d="M20.46415,14.07811a2.90464,2.90464,0,0,0-2.71172,1.32641h-.02851V10.63115H23.261V8.00479H14.78681V18.79668h2.93711v-.4266c0-1.12731.5078-1.74886,1.41171-1.74886.9892,0,1.3853.67641,1.3853,1.72245v4.63322c0,1.01765-.36759,1.72245-1.35679,1.72245-1.1009,0-1.495-.73325-1.495-1.86465V20.43582H14.72991v2.17546c0,2.90872,1.15781,4.77337,4.43423,4.77337,3.2499,0,4.57631-1.72251,4.57631-4.37931V18.31528c0-3.02246-1.5518-4.23717-3.2763-4.23717"/><path class="cls-2" d="M40.29739,11.57715a3.94032,3.94032,0,0,0-.19092,1.237c0,.36765.061,1.3243.44482,1.3243.13613,0,.25391-.17263.33523-.28843a8.55306,8.55306,0,0,0,.9871-3.89177,2.59754,2.59754,0,0,0-1.57623,1.61887m2.41319,4.1538c-.21337-.26-.40429-.54029-.61753-.79214a2.426,2.426,0,0,0,2.086-2.54714A2.37743,2.37743,0,0,0,42.747,9.942c-.18683,1.5559-.55045,4.03194-1.62693,4.95209a.97529.97529,0,0,1-.63785.28842,1.01415,1.01415,0,0,1-.73319-.524,3.51919,3.51919,0,0,1-.43875-1.84432c0-2.208,1.39138-3.76588,3.02438-3.76588,1.50717,0,2.734,1.18012,2.734,3.27834A3.2179,3.2179,0,0,1,42.71058,15.731"/><path class="cls-2" d="M51.5902,10.38767h-.67852v.43868h.67852Zm0-1.01766h-.67852v.43063h.67852Zm-1.434,1.01766h-.63984v.43868h.63984ZM50.146,9.37h-.63178v.43063H50.146Zm-1.25736,5.12881c.0812.27219.17667.53626.24374.81656H50.469l.22948-.81656Zm2.45782-1.14969H48.31588v.52609h3.03059Zm-2.58985-2.96146h-.67641v.43868h.67641ZM48.74843,9.37h-.66822v.43063h.66822Zm-1.47059,2.04337V8.70172H48.7343V8.02333l.79617.065a.1088.1088,0,0,1,.1158.10358.16533.16533,0,0,1-.12386.14828v.36157h.6236V8.02333l.78811.065a.10941.10941,0,0,1,.11778.10358.15969.15969,0,0,1-.11778.14828v.36157H52.421v2.71166Zm-.59707.31892h6.28246v.713H46.68077Zm-.04265,4.28584v-.70276H48.322a5.946,5.946,0,0,0-.36561-.59719c.1158-.07922.24163-.15032.35953-.21937h-.81055v-1.7651h4.686v1.7651h-.88147l.32494.132a.11815.11815,0,0,1,.07315.09546c0,.08939-.09745.12392-.15435.12392-.08939.14827-.17059.31688-.258.46515h1.75289v.70276Z"/><path class="cls-2" d="M59.78139,13.59392c-.16042-.25186-.3392-.48952-.518-.73325.21535-.03658.75563-.16656.75563-.49764a4.22878,4.22878,0,0,0-1.06433-1.96824c.258-.16656.516-.3413.776-.50582a5.00821,5.00821,0,0,1,1.23293,2.61217c0,.69872-.72922.93434-1.18223,1.09278M57.9473,15.24528a1.13133,1.13133,0,0,1-.83485.26208,1.7582,1.7582,0,0,1-.72514-.16656c-.0305-.33926-.04475-.67238-.08938-1.0055a1.62443,1.62443,0,0,0,.81452.2539c.59719,0,.591-1.97431.591-2.46383,0-.35953.0062-1.00544-.41433-1.00544a1.86324,1.86324,0,0,0-.44284.0711,17.442,17.442,0,0,1-1.57412,4.34472c-.28849-.14214-.56272-.325-.8532-.47328a12.23743,12.23743,0,0,0,1.495-3.71306c-.34118.06911-.6805.14629-1.0135.24175-.03049-.1117-.21534-.9181-.21534-.95065,0-.02839.01624-.03651.03855-.03651.065,0,.126.01829.19093.01829a6.71706,6.71706,0,0,0,1.1862-.14834,15.42224,15.42224,0,0,0,.26406-2.08806c.23766.05889.45908.132.68869.20109a1.59265,1.59265,0,0,1,.28836.09342c.03658.02033.08939.03657.08939.08938,0,.06094-.061.09751-.09744.11375-.08741.49969-.18485.99528-.31081,1.47667a3.6733,3.6733,0,0,1,.44482-.04264.88824.88824,0,0,1,.98313.74143,4.90989,4.90989,0,0,1,.1422,1.33045c0,.77794-.11183,2.33179-.64591,2.85584"/><path class="cls-2" d="M65.716,10.56253c.46714.89988.89572,1.82815,1.3284,2.75641l-.63377.61542a2.77062,2.77062,0,0,0-1.8931-.9181c-.43677,0-1.02578.1991-1.02578.84092,0,.88358.9323.97092,1.47668.97092A6.36561,6.36561,0,0,0,66.24,14.69c-.01624.325-.03657.64188-.0569.96075a7.46,7.46,0,0,1-1.16388.06707c-1.03185,0-2.39682-.20314-2.39682-1.79157,0-1.2878.96887-1.64733,1.87475-1.64733a3.622,3.622,0,0,1,1.19029.23159c-.12385-.30876-.27212-.60934-.41643-.91-.12187-.23971-.23766-.48952-.3656-.72923a9.74786,9.74786,0,0,1-2.2302.56676c-.09348-.30876-.21535-.60736-.3149-.91a6.58024,6.58024,0,0,0,2.0942-.43671,9.78612,9.78612,0,0,0-.71906-1.2431.1166.1166,0,0,1-.09955-.10358A.10452.10452,0,0,1,63.701,8.6512c.27411-.13.56062-.22545.83076-.327.2823.455.50979.93435.75551,1.42393a8.57554,8.57554,0,0,0,1.38134-.8511c.14616.31075.27212.62763.41023.93844a8.533,8.533,0,0,1-1.36286.72711"/><path class="cls-2" d="M33.406,25.90575a13.05317,13.05317,0,0,0-1.46651-1.5275c.21113-.2275.41433-.47533.63166-.70282a19.44885,19.44885,0,0,1,1.41369,1.60672Zm3.15654-3.81262V20.95156H32.18108v1.13549h-.83485v-1.952H33.865V19.07271l.9323.06906a.1012.1012,0,0,1,.1117.10562.16881.16881,0,0,1-.11988.1422v.74547h2.64675v1.95807Zm-.7353,1.34464v1.688c0,1.37916-.38593,1.88089-1.54783,2.06369l-.52615-.73734c.83485-.12391,1.19438-.24777,1.19438-1.33652,0-.56266,0-1.11516-.00806-1.67782H31.03146v-.82463h3.8999V21.3639l.89584.06094a.11722.11722,0,0,1,.128.10767.17527.17527,0,0,1-.128.14828v.93235h1.93167v.82463Z"/><path class="cls-2" d="M41.524,27.0842a4.20254,4.20254,0,0,0-.40429-.719c-.01624-.02845-.03856-.05281-.03856-.07922s.03856-.03452.05282-.04674a6.64042,6.64042,0,0,0,1.11305-.13811,1.66582,1.66582,0,0,0,1.495-1.67782,1.09643,1.09643,0,0,0-1.23293-1.2126,2.5361,2.5361,0,0,0-1.97035,1.23089c-.30064.39405-.57277.8064-.83485,1.22686-.2539-.22545-.50979-.46311-.76567-.70077a25.97559,25.97559,0,0,0,2.151-2.95948,7.71511,7.71511,0,0,0,.64592-1.16184c-.197.04674-.392.10563-.587.16048-.35333.09547-.715.20109-1.07449.28031-.0548-.34124-.10762-.68453-.17258-1.02782a17.07412,17.07412,0,0,0,2.46588-.43063,3.35323,3.35323,0,0,0,.518-.1686,6.002,6.002,0,0,1,.47321.74955c0,.08735-.08939.11375-.1422.12187a15.09189,15.09189,0,0,0-1.53358,2.021,3.60485,3.60485,0,0,1,.97705-.15032,1.93723,1.93723,0,0,1,2.05155,2.1348c0,1.87079-1.89311,2.47808-3.18691,2.54714"/><path class="cls-2" d="M49.64688,20.9701a10.9466,10.9466,0,0,0-2.12667-.79016c.1422-.31484.28031-.63172.42251-.95059a8.37344,8.37344,0,0,1,2.17949.80231c-.15039.31688-.30263.63172-.47533.93844m-1.31414,6.33329c-.27832-.2539-.55454-.51791-.85109-.74541a3.6228,3.6228,0,0,0,2.16523-1.52954,2.7797,2.7797,0,0,0,.29457-1.29183c0-.78-.2539-1.22891-.95473-1.22891a6.18586,6.18586,0,0,0-2.12668.94048c-.05282-.13408-.41433-1.038-.41433-1.1172,0-.06094.07315-.05282.10352-.05282a4.91154,4.91154,0,0,0,.93242-.2539,5.1478,5.1478,0,0,1,1.75289-.44885c1.20244,0,1.72859.95058,1.72859,2.26075a3.75239,3.75239,0,0,1-2.63039,3.46723"/><path class="cls-2" d="M31.84585,10.91066v2.61012a1.34183,1.34183,0,0,0,.66823-1.2573,1.51544,1.51544,0,0,0-.66823-1.35282m0-1.82809v1.73058c.21932-.57072.42859-1.14151.60116-1.73058Zm5.74429,3.75163A4.0637,4.0637,0,0,1,36.5542,12.95a1.61031,1.61031,0,0,1-.73741-.11579.16233.16233,0,0,1-.11976.16656v.6947h1.57v.70281H35.68079v.81452H37.5677v.715H32.89183v-.715h1.948v-.81452h-1.497v-.70281h1.47456V12.66565l.86337.08121a.81476.81476,0,0,1-.256-.67635v-.82469h-.518a3.0105,3.0105,0,0,1-1.18818,2.09823l-.4876-.38594a1.92435,1.92435,0,0,1-.84291,1.23908l-.54227-.56267V16.0598H31.011V8.32087h2.35417v.69265c-.256.54636-.50371,1.08875-.774,1.625a2.37565,2.37565,0,0,1,.67443,2.09016,2.14711,2.14711,0,0,0,.85109-1.48281H33.162v-.74751H34.8235V9.73258H33.4708V8.98711h1.34662v-.9039l.88568.06905a.1086.1086,0,0,1,.11977.10563.1554.1554,0,0,1-.11977.14827v.58095h1.57016v.74547H35.68885v.76573H37.521v.74751H36.22107c0,.16657-.00607.33313-.00607.49969,0,.40422.12583.47327.4509.47327a2.435,2.435,0,0,0,1.0135-.27218Z"/><path class="cls-2" d="M72.4905,15.89708c-1.05218.01016-2.074-.43869-2.09023-1.85449,0-.21126.02244-.42245.03868-.63172-.54847-.1929-1.28786-.43869-1.302-1.2573a3.23151,3.23151,0,0,1,.331-1.12328c.2844.06094.57078.14828.85109.20921a1.65388,1.65388,0,0,0-.3697.776c.00818.30672.43466.43671.63786.49157.12186-.6947.25588-1.38128.37775-2.07387-.13613.16657-.26407.33313-.39.49969a14.75491,14.75491,0,0,0-1.20442-1.03594c.16452-.26407.3392-.52814.51995-.79221a11.18678,11.18678,0,0,1,1.11926.96689,11.29564,11.29564,0,0,0,.23964-1.755c.24175.04265.48946.11177.73121.17468a1.75123,1.75123,0,0,1,.29866.07922c.05281.01624.10562.0447.10562.11375a.33785.33785,0,0,1-.1422.2275c-.05281.193-.09955.40626-.14431.59719-.08938.41438-.17864.82673-.27621,1.24105-.14419.648-.29457,1.30813-.40825,1.96626.30262.05486.60934.05486.91.08126l-.134.84905a6.16243,6.16243,0,0,1-.88568-.06912,2.0599,2.0599,0,0,0-.0243.38594.97618.97618,0,0,0,1.09074,1.02782c.63773-.00812.92423-.3961.916-1.12328a3.73378,3.73378,0,0,0-1.10289-2.2059,6.73512,6.73512,0,0,0,.82457-.40422,4.13707,4.13707,0,0,1,1.26145,2.8559,1.69115,1.69115,0,0,1-1.7793,1.78339"/></svg>