<svg id="レイヤー_1" data-name="レイヤー 1" xmlns="http://www.w3.org/2000/svg" width="95" height="95.00607" viewBox="0 0 95 95.00607"><defs><style>.cls-1{fill:#cda102;}.cls-2{fill:#fff;}</style></defs><title>sdgs_02</title><rect class="cls-1" width="95" height="95.00607"/><path class="cls-2" d="M38.75562,80.01772v1.28181a.15712.15712,0,0,0-.0062.0305.11538.11538,0,0,0,.0062.02839.60254.60254,0,0,0,.591.57687l.01227.002.01414-.002H54.41247l.01426.002.01215-.002A.60376.60376,0,0,0,55.032,81.332l.00211-.002-.00211-.0062v-1.4503c8.46636-2.77674,14.81-9.63832,16.20347-18.001.004-.01624.00608-.03447.01017-.05071a.59356.59356,0,0,0,.00806-.08331.60813.60813,0,0,0-.60936-.60737H22.7106a.60856.60856,0,0,0-.61134.60737l.03248.27213c1.46456,8.444,7.98284,15.34418,16.62388,18.00711"/><path class="cls-2" d="M55.0191,40.67233c-.19911.28031-4.82834,6.949.10352,12.33993,2.26075,2.47411,2.06374,4.65774,1.41782,6.13247h3.16467c.642-2.17756.37788-4.90756-2.19169-7.7127-3.63393-3.97325.04674-9.34387.10154-9.42718a1.18558,1.18558,0,0,0-.51191-1.77116,1.68177,1.68177,0,0,0-2.084.43864"/><path class="cls-2" d="M47.00539,59.145h3.16467c.63985-2.17743.37578-4.90743-2.1938-7.71467-3.63591-3.97313.04265-9.33978.10154-9.42905a1.18553,1.18553,0,0,0-.51389-1.76731,1.68037,1.68037,0,0,0-2.082.43876c-.19712.28031-4.83441,6.949.10352,12.33993,2.26286,2.47412,2.06375,4.65775,1.41993,6.13234"/><path class="cls-2" d="M35.94454,40.67233c-.19911.28031-4.83243,6.949.10154,12.33993,2.26273,2.47411,2.06783,4.65774,1.4219,6.13247h3.16467c.63986-2.17558.37578-4.90756-2.19578-7.7127-3.63392-3.97325.04674-9.34387.10353-9.42917a1.18644,1.18644,0,0,0-.51588-1.76917,1.67435,1.67435,0,0,0-2.08.43864"/><path class="cls-2" d="M17.94363,24.53047H12.66029v-.9038a3.66076,3.66076,0,0,1,1.35484-2.93729l2.06176-2.17545a6.02651,6.02651,0,0,0,2.03523-4.8323V11.81687c0-2.74017-1.32632-4.0381-4.2087-4.0381-2.82546,0-4.26572,1.497-4.26572,4.1803v2.31567H12.577v-2.401c0-1.15784.56261-1.497,1.24115-1.497.6215,0,1.15981.25391,1.15981,1.44013V13.3992a3.801,3.801,0,0,1-1.18833,3.30688l-1.80785,1.91956c-1.75094,1.86674-2.40084,3.10987-2.40084,5.001v3.53227h8.36271Z"/><path class="cls-2" d="M49.97256,12.12049a.22526.22526,0,0,1-.11381-.04265c-.5403.18287-1.58643.59721-2.08408.82471v1.35087l-.88557-.00608c.00607-.124.00607-.25391.00607-.40429v-.49158c-.60328.28032-.90194.642-.90194,1.04415,0,.35135.3454.5362,1.02989.5362a11.3748,11.3748,0,0,0,2.19169-.15646l.01227.98117a9.13723,9.13723,0,0,1-1.93381.10761c-1.47262,0-2.212-.46516-2.212-1.40765a1.73245,1.73245,0,0,1,.61754-1.26346,5.41145,5.41145,0,0,1,1.14358-.75565c-.01426-.394-.13613-.59708-.35347-.59708a1.103,1.103,0,0,0-.776.333,6.56681,6.56681,0,0,0-.57885.59931c-.27622.30672-.44893.518-.55654.6215-.13414-.15844-.3454-.394-.62163-.71907A6.37141,6.37141,0,0,0,45.851,10.29243c-.40008.05282-.84492.08939-1.32632.1158-.0305-.33313-.07315-.642-.11989-.91211a13.05341,13.05341,0,0,0,1.72255-.08939,7.19238,7.19238,0,0,0,.2559-1.21263l1.01563.2275a.10575.10575,0,0,1,.09137.10563c0,.05281-.03856.09757-.11977.132-.03657.15038-.10773.37788-.20518.67642A12.02475,12.02475,0,0,0,48.575,9.01074l-.08529.96679c-.41235.08939-.97088.17679-1.66156.27225a5.6506,5.6506,0,0,1-.46715.87752,1.56764,1.56764,0,0,1,.42859-.05889c.46108,0,.75962.30672.89575.93839.60129-.3149,1.28788-.64183,2.03126-.975l.34738.98315c0,.06905-.0305.1055-.09137.1055"/><path class="cls-2" d="M29.427,12.38767H28.41335v.48339H29.427Zm0-1.13552H28.41335v.52H29.427Zm4.9543,4.32858a1.789,1.789,0,0,1-.89587.31689c-.89984,0-1.02989-.55443-1.02989-1.41782,0-1.688,0-3.36985-.01624-5.05782h-.7921v1.82c0,1.69007-.061,3.71315-1.37318,4.85673l-.73532-.46517a2.435,2.435,0,0,0,.48749-.522l-.21734.15237c-.063-.11381-.134-.2296-.19093-.34329-.6784.31689-1.38124.57079-2.06981.87132-.00819.04265-.04873.14827-.10365.14827a.13009.13009,0,0,1-.12794-.08529l-.40021-.81243c.22354-.05083.44893-.10365.66428-.17469V10.98807c-.10365.08741-.20109.18486-.3128.26408l-.55046-.61543a6.1716,6.1716,0,0,0,1.92563-2.665l.88768.21944c.03249.00806.11977.03447.11977.08728a.08345.08345,0,0,1-.07315.08741A6.43515,6.43515,0,0,0,30.6762,9.65766l-.59509.64593A9.75421,9.75421,0,0,1,29.098,9.1315a7.19113,7.19113,0,0,1-1.14978,1.52344h.6866V9.88925l.8247.06088c.061.00818.15026.00818.15026.10563,0,.06905-.08926.12187-.136.14828v.4509h.786V13.452H28.41137v1.19639c.27833-.09745.56063-.22142.839-.33511a4.77557,4.77557,0,0,0-.35148-.44893c.22341-.12187.455-.25391.67841-.37578.24994.3676.49567.74548.72118,1.13341a7.25121,7.25121,0,0,0,.455-2.89452c0-1.04-.02244-2.08407-.04885-3.122H33.392c-.03447,1.9601-.04054,3.93048-.04054,5.89269,0,.20308-.01624.47533.23766.47533a1.40406,1.40406,0,0,0,.849-.54649Z"/><path class="cls-2" d="M42.39513,9.35317c-.18287.33524-.3433.69267-.53224,1.02791l-.59919-.29048c.15436-.45711.25193-.94261.3738-1.41584l.89574.47323c.02232.01016.0305.063.0305.08939,0,.09546-.10774.11579-.16861.11579m-2.11457.04265L40.179,9.36941a4.6073,4.6073,0,0,1-.42054.24784V10.769h.55059c-.0062-.45909-.02442-.91409-.02851-1.37318m.05889,2.12883h-.60328V12.457c.18287-.0874.36772-.1665.54439-.25391l.00409.79222c-.17469.09336-.36561.15634-.5403.25391v1.3a1.843,1.843,0,0,1-.1158.652,3.42025,3.42025,0,0,0,1.07043-1.239,7.69253,7.69253,0,0,1-.35953-2.43754m-1.37306,0h-.62771V10.769h.62771V9.91591c-.17072.07711-.33722.1665-.51191.2275l-.193-.2275-.26606.25589a5.36613,5.36613,0,0,1-.66626-.93442c-.12993.24585-.27424.48351-.42649.713.23556.0264.46517.05281.70271.07922.05282.01016.16055.01624.16055.10563,0,.07922-.07723.13005-.132.15646v.42252h.5972v2.27091c.24374-.08939.48947-.16861.73532-.26408Zm-1.48489.94856h-.72713v.52815h.72713Zm-.72515-1.15783v.5424h.71907l.00608-.5424Zm.09955-1.28578c-.16861.23568-.34329.46516-.53422.68461h.53422ZM41.991,16.15177a4.84847,4.84847,0,0,1-.93244-1.33648,4.2132,4.2132,0,0,1-1.17,1.1618l-.39-.52a1.605,1.605,0,0,1-.786.69465l-.518-.591c.60117-.24374.778-.518.778-1.24722,0-.2559-.00607-.50175-.00607-.75565l-.29867.15646c0,.0812-.05281.195-.12993.195a.0945.0945,0,0,1-.06905-.061l-.23767-.67035v.37987H36.75635v1.2228c.24374-.1158.50583-.21126.74337-.3433-.08529-.15844-.17865-.31689-.2782-.46715l.61344-.34937c.26.455.49567.92215.717,1.39748l-.56262.41235c-.0548-.11368-.126-.21931-.18683-.32494-.55865.28031-1.13143.54439-1.69615.80846,0,.07922-.03657.16849-.11369.16849a.1.1,0,0,1-.07724-.05282l-.44892-.80226c.18287-.061.35954-.1158.53224-.193v-4.03a1.50773,1.50773,0,0,1-.258.23767L35.237,10.574a5.68368,5.68368,0,0,0,1.627-2.52693l.90194.28242a.06963.06963,0,0,1,.04674.065.09956.09956,0,0,1-.04066.069,3.82572,3.82572,0,0,0,.589.88967,4.5488,4.5488,0,0,0,1.46666-.87342c.14617.22142.29854.42251.44484.63377-.00818-.26407-.00818-.52815-.00818-.79011V8.173l.94657.18485a.10445.10445,0,0,1,.09137.10563c0,.09745-.09943.14828-.16861.16663-.03856.6256-.03856,1.25727-.03856,1.883v.23755H42.387v.78416H41.11952a9.54615,9.54615,0,0,0,.10761,1.48476,6.90211,6.90211,0,0,0,.258-1.25726l.76581.53819a.12509.12509,0,0,1,.05889.11183.17208.17208,0,0,1-.13.15026,6.44734,6.44734,0,0,1-.57885,1.41583,3.35647,3.35647,0,0,0,1.05418,1.39749Z"/><path class="cls-2" d="M33.52089,20.53019a10.2524,10.2524,0,0,0-.76173-1.29793l.59919-.37776a8.82668,8.82668,0,0,1,.71908,1.25937Zm-1.15176.384a9.082,9.082,0,0,0-.73532-1.25937l.61754-.35755a9.80149,9.80149,0,0,1,.69477,1.22081Zm1.08481,1.14556c-.10166.16861-.187.33933-.28032.49777a9.30523,9.30523,0,0,1-1.76731,2.31964,5.4657,5.4657,0,0,0-.82867-.61952,6.18489,6.18489,0,0,0,1.3955-1.822c-.29457.03645-.59113.09547-.87963.1401-.43875.07315-.87131.1422-1.31007.22551-.01017.34938-.01835.69664-.01835,1.042v1.27562c0,.72514.3392.79222.90591.79222a9.64488,9.64488,0,0,0,2.48626-.30276c-.02641.39413-.0853.79024-.11778,1.17618-.81243.07514-1.623.11171-2.4456.11171-.95475,0-1.88509-.27015-1.88509-1.53969v-2.405c-.60117.10364-1.18412.23357-1.77524.34937-.04265-.3676-.0853-.74338-.13613-1.1111.63576-.05281,1.26954-.11988,1.90133-.22142v-2.08l1.13539.134c.06708.00819.14221.03658.14221.13006a.19194.19194,0,0,1-.12795.15844c-.01426.49964-.02442.99728-.03248,1.5051.80226-.12187,1.60676-.27412,2.41113-.40417a2.60031,2.60031,0,0,0,.62559-.17878,7.64869,7.64869,0,0,1,.69267.73532c0,.05492-.061.08133-.09137.09137"/><path class="cls-2" d="M40.292,21.69472H36.94839v3.59735H40.292Zm0,5.01306v-.46913H36.94839v.50781h-1.042c0-2.00076.01017-3.99954.01017-6.00241.92624,0,1.86265.02034,2.789.02034.88557,0,1.77326-.02034,2.65276-.02034,0,1.89724.00818,3.78419.00818,5.68354v.28019Z"/><path class="cls-2" d="M49.51037,21.82068a5.91125,5.91125,0,0,0-1.7631-.10972,8.14877,8.14877,0,0,0-1.21883.21337c-.03037-.32706-.05269-.73532-.09335-1.06237a9.29453,9.29453,0,0,1,1.72454-.20717,6.42377,6.42377,0,0,1,1.436.071c-.02839.36363-.04873.73122-.0853,1.09485m.27622,4.91153a6.25554,6.25554,0,0,1-1.3893.07525c-1.08679-.03459-2.10031-.20928-2.23235-1.87282.25589-.195.51191-.39821.77586-.58307.0021.94459.44086,1.3712,1.14977,1.39141a4.79688,4.79688,0,0,0,1.71227-.20506c-.004.39611-.01005.78813-.01625,1.19429m-4.83428.42859c-.27635.02851-.54848.06509-.83091.09955a11.73977,11.73977,0,0,1-.394-3.453,22.2255,22.2255,0,0,1,.394-3.88387l.6623.15435a1.883,1.883,0,0,1,.32693.08332.11184.11184,0,0,1,.08542.1179.12565.12565,0,0,1-.12187.11976,17.86387,17.86387,0,0,0-.44285,4.032c0,.32916.01624.65.01624.98116.13613-.41434.26606-.83487.41024-1.24722.18895.1727.382.35544.5708.53224a8.52708,8.52708,0,0,0-.6763,2.46382"/></svg>