<svg id="レイヤー_1" data-name="レイヤー 1" xmlns="http://www.w3.org/2000/svg" width="95" height="95.00201" viewBox="0 0 95 95.00201"><defs><style>.cls-1{fill:#eeb600;}.cls-2{fill:#fff;}</style></defs><title>sdgs_07</title><rect class="cls-1" width="95" height="95.00201"/><path class="cls-2" d="M47.53769,67.9698a7.24376,7.24376,0,0,1-2.153-14.15933v2.69542a4.74076,4.74076,0,1,0,4.29393-.00613V53.80644A7.24355,7.24355,0,0,1,47.53769,67.9698M46.50375,52.411a1.0369,1.0369,0,0,1,2.06986,0v4.78139a1.03748,1.03748,0,0,1-2.06986,0Zm1.032-5.50043A13.92474,13.92474,0,1,0,61.45725,60.83429,13.92479,13.92479,0,0,0,47.5357,46.91057"/><path class="cls-2" d="M31.55261,60.71254A1.1644,1.1644,0,0,0,30.4821,59.569H24.3866a1.1466,1.1466,0,0,0,0,2.28916h6.0955a1.16489,1.16489,0,0,0,1.07051-1.14564"/><path class="cls-2" d="M71.76969,60.71254a1.1644,1.1644,0,0,0-1.0705-1.14352H64.60368a1.1466,1.1466,0,0,0,0,2.28916h6.09551a1.16489,1.16489,0,0,0,1.0705-1.14564"/><path class="cls-2" d="M47.54178,84.94548A1.16528,1.16528,0,0,0,48.6832,83.8751V77.77953a1.14766,1.14766,0,0,0-2.29115,0V83.8751a1.17038,1.17038,0,0,0,1.14973,1.07038"/><path class="cls-2" d="M68.57,72.74871a1.16394,1.16394,0,0,0-.35952-1.52338l-5.29327-3.02847A1.14667,1.14667,0,0,0,61.7797,70.1834l5.29315,3.02847a1.16423,1.16423,0,0,0,1.4971-.46316"/><path class="cls-2" d="M35.5045,81.74679a1.16578,1.16578,0,0,0,1.52338-.3615l3.02841-5.29123a1.14715,1.14715,0,0,0-1.98654-1.1395l-3.02841,5.29328a1.16855,1.16855,0,0,0,.46316,1.499"/><path class="cls-2" d="M59.6191,81.71877a1.15955,1.15955,0,0,0,.457-1.49492l-3.0387-5.28714a1.14664,1.14664,0,0,0-1.98444,1.14154l3.04069,5.28509a1.16421,1.16421,0,0,0,1.52548.35543"/><path class="cls-2" d="M26.53443,72.79619a1.16557,1.16557,0,0,0,1.497.457l5.28509-3.04063a1.14626,1.14626,0,0,0-1.13956-1.98449l-5.28708,3.03864a1.17046,1.17046,0,0,0-.35543,1.52945"/><path class="cls-2" d="M47.54178,44.72827a1.1636,1.1636,0,0,0,1.14142-1.06833V37.56233a1.14766,1.14766,0,0,0-2.29115,0v6.09761a1.16871,1.16871,0,0,0,1.14973,1.06833"/><path class="cls-2" d="M33.66548,52.77208a1.1617,1.1617,0,0,0-.36163-1.52338l-5.29116-3.02643a1.14569,1.14569,0,0,0-1.13746,1.98449l5.29316,3.02848a1.16423,1.16423,0,0,0,1.49709-.46316"/><path class="cls-2" d="M55.481,46.84127a1.16377,1.16377,0,0,0,1.52338-.35946l3.02841-5.29327a1.14607,1.14607,0,0,0-1.98654-1.13541l-3.02841,5.28918a1.1658,1.1658,0,0,0,.46316,1.499"/><path class="cls-2" d="M39.57205,46.8559a1.16412,1.16412,0,0,0,.457-1.497l-3.04069-5.28509a1.14576,1.14576,0,0,0-1.98245,1.14155l3.03659,5.283a1.16839,1.16839,0,0,0,1.52958.35748"/><path class="cls-2" d="M61.39861,52.7479a1.163,1.163,0,0,0,1.49487.457l5.28509-3.04063a1.14611,1.14611,0,0,0-1.13944-1.98449L61.754,51.21845a1.1684,1.1684,0,0,0-.35543,1.52945"/><polygon class="cls-2" points="9.685 10.631 14.657 10.631 10.363 27.157 13.556 27.157 17.765 10.97 17.765 8.003 9.685 8.003 9.685 10.631"/><polygon class="cls-2" points="25.706 15.172 25.706 14.156 27.914 14.156 27.914 10.32 26.076 10.32 26.076 9.302 30.678 9.302 30.678 10.32 28.834 10.32 28.834 14.156 31.076 14.156 31.076 15.172 25.706 15.172"/><path class="cls-2" d="M37.05242,14.16559a8.90478,8.90478,0,0,0-1.46449-1.71226l.5037-.77793a6.84049,6.84049,0,0,1,1.56,1.61475ZM34.9786,9.13235a8.17358,8.17358,0,0,0-1.3751-1.042c.15434-.29251.29852-.57281.45089-.86527a8.09256,8.09256,0,0,1,1.47255,1.06227c-.17666.29251-.35333.57281-.54834.845m.31081,3.07719v1.06233c0,.80638.00607,1.61481.00607,2.41505H34.42c0-.87946,0-1.7549.00818-2.63033a6.243,6.243,0,0,1-1.74888,1.20855,7.78141,7.78141,0,0,0-.63574-.89577,5.59442,5.59442,0,0,0,3.17669-2.96959c-.79207.00812-1.58624.09751-2.38053.14425-.01624-.37986-.02839-.74954-.05071-1.12934,1.02167,0,2.05151-.00812,3.07515-.05894a1.80319,1.80319,0,0,0,.44693-.067l.25786.50575a19.03255,19.03255,0,0,1-1.27952,2.41505"/><path class="cls-2" d="M42.90878,14.82a12.73542,12.73542,0,0,1-1.15369.73938,5.41963,5.41963,0,0,1-.54635-.51393,1.82552,1.82552,0,0,0,.06906-.48139V13.34947c0-1.5173-.02034-3.065-.04265-4.58229l.96277.1564a.10942.10942,0,0,1,.07513.11777.22339.22339,0,0,1-.10364.1686c-.01426.4225-.00806.83682-.00806,1.25932,0,1.19436-.01426,2.4171-.03459,3.60941a6.33146,6.33146,0,0,0,1.59653-1.46654c.14629-.1787.27621-.38592.41431-.58292.01625-.02033.02852-.04872.04873-.04872.03458,0,.03458.09744.03458.11778.02839.41438.07513.80842.132,1.21059A7.59708,7.59708,0,0,1,42.90878,14.82M40.35159,9.35413c-.04277,2.03118.17865,3.91408-.80842,5.6a3.3751,3.3751,0,0,1-.66834.82665c-.2234-.199-.55441-.5037-.721-.6601,1.08662-.95669,1.308-2.17739,1.308-3.9039,0-.72921-.01624-1.497-.03037-2.22823l.92012.11783a.09022.09022,0,0,1,.07513.10154.21846.21846,0,0,1-.07513.14622"/><path class="cls-2" d="M50.82124,9.13253a15.74467,15.74467,0,0,0-.44879-1.6026l.63165-.25185a11.113,11.113,0,0,1,.42448,1.48483Zm-1.07646.23363a14.79591,14.79591,0,0,0-.45709-1.56l.65619-.27628a13.836,13.836,0,0,1,.41221,1.48687Zm-1.01757,3.90589c.04265.89372.0812,1.77728.1381,2.671-.29654.0305-.59321.04271-.88975.08126-.03037-.90184-.07513-1.79556-.09943-2.6974-.782.02641-1.556.0569-2.32982.1117-.00806-.3351-.01426-.67026-.02232-1.00542.17877.01426.35345.01828.5342.02238.59309.01419,1.1801-.03862,1.7691-.05282-.0243-.52-.04265-1.02984-.073-1.55183-.53222.00608-1.05823.03862-1.59045.065-.00818-.33517-.03459-.68049-.04872-1.01764.518.0142,1.044.00812,1.568-.01624-.02839-.55856-.06707-1.107-.10972-1.66762l.94257.11579a.13708.13708,0,0,1,.11368.1422.19277.19277,0,0,1-.11368.17263c.00607.40824.02021.81041.0243,1.21872a16.32618,16.32618,0,0,0,1.66756-.128c-.00806.3555,0,.69673-.00806,1.042-.53618-.004-1.07658.002-1.61078.0163.0264.51182.04265,1.02371.07314,1.53757.74136-.03049,1.48681-.07717,2.22817-.15236.00818.34533-.00608.68861.00211,1.02371-.71905-.00812-1.44627.04066-2.16519.06905"/><path class="cls-2" d="M57.52483,12.75106c-.42052-.02635-.75363-.02635-1.09282-.02635-.392-.01016-3.08532,0-4.0238.03651-.01624-.3615-.03657-.82262-.04264-1.09276-.01017-.13408.05083-.1422.09546-.13408a3.524,3.524,0,0,0,.42857.063c.45089.02641.93029.02033,1.44825.02033,1.07039,0,2.02709-.03049,3.22553-.04673-.02442.36156-.03049.81859-.03855,1.1801"/><path class="cls-2" d="M64.11845,12.0428a.16409.16409,0,0,1-.09558-.04463c-.45895.18887-1.34461.61342-1.765.849v1.39134l-.75153-.00812c.00608-.128.00608-.262.00608-.41642v-.50575a1.26637,1.26637,0,0,0-.76578,1.07448c0,.36156.29245.55044.87339.55044a4.742,4.742,0,0,0,1.85451-.36151l-.02641,1.05823a4.38683,4.38683,0,0,1-1.59851.26407q-1.87391,0-1.87273-1.44826a1.95348,1.95348,0,0,1,.52193-1.302,4.46331,4.46331,0,0,1,.96884-.7739c-.01413-.40824-.11579-.61745-.29852-.61745a.85663.85663,0,0,0-.658.34527,6.785,6.785,0,0,0-.49155.61341c-.23568.31688-.382.53216-.47123.64392-.11579-.16457-.29257-.40831-.52812-.7434a6.49565,6.49565,0,0,0,1.60458-2.4476c-.3372.05281-.713.08938-1.12121.11579-.02641-.34328-.063-.66016-.10153-.93842a8.93436,8.93436,0,0,0,1.4604-.09143,9.103,9.103,0,0,0,.21534-1.2471l.86112.23561a.10906.10906,0,0,1,.07723.10767.14907.14907,0,0,1-.10153.134c-.03248.15646-.09137.39-.1727.69878a8.65754,8.65754,0,0,0,1.19237-.33516l-.07314.99321c-.34936.09143-.82058.18081-1.40759.2803a6.14484,6.14484,0,0,1-.39411.90389,1.04354,1.04354,0,0,1,.36361-.06094c.38792,0,.64392.31483.7576.96482.5099-.325,1.09072-.66015,1.72248-1.00337l.29246,1.01149c0,.07315-.02443.10966-.07712.10966"/><path class="cls-2" d="M65.95251,13.5676c-.0062.2397.065.45095.2477.455a.33239.33239,0,0,0,.2865-.16451,5.4615,5.4615,0,0,0,.58081-1.38527,1.09984,1.09984,0,0,0-1.115,1.0948m4.65953.88151a10.44952,10.44952,0,0,0-.86732-.81245,5.00088,5.00088,0,0,1-1.40362,2.2912l-.66413-.5606a4.04179,4.04179,0,0,0,1.38528-2.17945,4.147,4.147,0,0,0-1.21469-.58094c-.10364.31886-.20517.64187-.33113.94449-.29853.75357-.70677,1.51731-1.39544,1.499-.56668-.01425-.94852-.66418-.93017-1.45433a1.9715,1.9715,0,0,1,1.29378-1.90323,2.43448,2.43448,0,0,1,.82678-.065c.16042-.6358.40824-1.5315.57065-2.20994l-1.41974.10159-.10154-.99122.07315.00607a8.71357,8.71357,0,0,0,2.32362-.1117c.07315.16247.16452.32091.25192.47934a14.81868,14.81868,0,0,0-.54648,1.52543c-.12186.43465-.23158.87134-.37167,1.29589a4.17816,4.17816,0,0,1,1.20849.50779,10.15109,10.15109,0,0,0,.26406-1.90119c.256.2275.51189.44482.75153.68855a12.10736,12.10736,0,0,1-.28031,1.65138,8.26073,8.26073,0,0,1,.977.721c-.12794.34936-.26.70888-.40006,1.05823"/><path class="cls-2" d="M75.639,15.67961c-.908.00409-.84091-1.07039-.84091-1.91129l-.00211-.83279c.00211-.24578.00607-.54232-.24782-.54028a.5801.5801,0,0,0-.18076.03453c-1.02575.33714-1.41577,2.1063-1.73463,3.21939-.27212-.16451-.54027-.33107-.80842-.49558.2803-.86732.59519-1.70822.91616-2.5593.35952-.94858.71495-1.90119,1.08464-2.84772.20306-.52813.392-1.06226.6154-1.57824a8.15008,8.15008,0,0,1,.85913.48343.10284.10284,0,0,1,.04674.08734.11682.11682,0,0,1-.11579.11579c-.457.88765-.86521,1.824-1.28163,2.736-.04265.08932-.08331.16854-.12187.24776a1.77887,1.77887,0,0,1,.90587-.33715c.66425-.00409.86942.56668.87141,1.32428-.002.457-.00819.90389-.00819,1.35887,0,.22749.0305.54033.26208.54033a1.14337,1.14337,0,0,0,.76777-.47531,4.44335,4.44335,0,0,0,.60127-1.07044c.10971.41841.21931.83074.31476,1.24915a2.07716,2.07716,0,0,1-1.9031,1.2512"/><path class="cls-2" d="M83.75168,10.98909a3.55716,3.55716,0,0,0-1.61487-.80843l.38593-.85715a3.64046,3.64046,0,0,1,1.65343.81048Zm-1.90534,3.05085a1.04844,1.04844,0,0,0-.48535-.13612c-.26406-.02027-.5952.04264-.62569.46112a.64345.64345,0,0,0,.62358.64794c.258.02027.44692-.02845.47531-.41035.01215-.18683.01426-.37167.01215-.56259m1.66149,1.41571a6.47931,6.47931,0,0,0-.87339-.98714c-.002.09949-.00806.197-.01624.29246a1.023,1.023,0,0,1-1.239,1.07652,1.8025,1.8025,0,0,1-.6459-.16854,1.4069,1.4069,0,0,1-.7576-1.32639,1.21075,1.21075,0,0,1,1.31412-1.25727,3.10953,3.10953,0,0,1,.5606.0975c.01017-.42045-.04673-.83279-.02839-1.24921a1.95558,1.95558,0,0,1,.1117-.60121c.20518.01017.41234.01829.62148.02845.04066.002.24373-.0264.23766.07922,0,.02027-.002.03044-.01017.03651a1.20693,1.20693,0,0,0-.14616.53625c-.02244.47326.0264.9567.0243,1.43a5.15646,5.15646,0,0,1,1.41577,1.174,8.76951,8.76951,0,0,1-.56879.83886m-1.962-5.35421c-.33522.061-.61751.10767-.94864.13612a17.62447,17.62447,0,0,1-1.499,3.88358c-.24174-.14827-.47729-.31886-.711-.49149a15.68571,15.68571,0,0,0,1.39755-3.39413,8.05319,8.05319,0,0,1-1.08464-.02641c.004-.30057.004-.60325.008-.914a2.60863,2.60863,0,0,0,.35953.06292,5.64055,5.64055,0,0,0,.9262.04271,8.978,8.978,0,0,0,.20926-1.37716c.36349,0,.69053.03044.94852.04872a10.46359,10.46359,0,0,1-.31278,1.31015,6.24553,6.24553,0,0,0,.82665-.191c-.03657.29661-.0812.60332-.11976.91"/><path class="cls-2" d="M35.97956,26.57993a2.69017,2.69017,0,0,1-1.71033.59718c-.91405,0-1.48879-.71092-1.5416-1.96212-.01017-.16656-.00608-.3351-.00608-.50166,0-.47326.00608-.94858.02021-1.432.01835-1.13745.03261-2.283.04475-3.41843.199.03657.40626.0812.60735.134a1.09167,1.09167,0,0,1,.25179.06094c.04884.0264.1138.06093.1138.14015a.17635.17635,0,0,1-.09545.14833c-.07724,1.53349-.13613,3.08129-.13613,4.61477,0,.782.258,1.25734.85914,1.25734a1.59034,1.59034,0,0,0,.81859-.2539,3.57255,3.57255,0,0,0,1.29391-1.84026l.47122,1.14558a4.18514,4.18514,0,0,1-.99117,1.31008"/><path class="cls-2" d="M42.40087,21.14086c-.02443-.002-.05282-.01214-.07724-.01214a1.914,1.914,0,0,0-.87339.14827A3.14985,3.14985,0,0,0,39.96951,24.017c-.065,1.81992,1.10088,2.08194,2.08808,2.1226-.061.34124-.12187.69059-.20109,1.03183l-.132-.00614a3.10376,3.10376,0,0,1-1.34473-.37371A3.295,3.295,0,0,1,39.09,23.93986a4.78188,4.78188,0,0,1,.83881-2.6568c-.74136.063-1.48681.15441-2.22011.27826-.002-.35134-.01414-.7007-.00806-1.046a28.33675,28.33675,0,0,0,3.81254-.325,7.41529,7.41529,0,0,0,.88765-.21329c.01413.13612.09137,1.00951.08926,1.07856-.004.07315-.04662.08734-.08926.08529"/><path class="cls-2" d="M48.97032,21.82352c-.10563.3514-.195.715-.3108,1.05625A8.9825,8.9825,0,0,1,47.0082,25.955a6.15081,6.15081,0,0,1-1.83009,1.46648c-.2296-.28433-.46924-.56668-.711-.83279a6.478,6.478,0,0,0,1.07051-.63369,6.07583,6.07583,0,0,0,1.16584-1.18214,8.20246,8.20246,0,0,0,1.25126-2.81115l-1.53354.02839a9.33522,9.33522,0,0,1-1.47268,2.1673c-.20716-.24169-.41233-.49559-.63375-.72308a8.71351,8.71351,0,0,0,2.02312-3.93645L47.2011,19.9a.14792.14792,0,0,1,.08331.13612.12882.12882,0,0,1-.126.12794c-.09545.262-.17876.53625-.29456.78.55044,0,1.103-.00812,1.65542-.00812a1.14015,1.14015,0,0,0,.35344-.04879c.08121.16458.1727.31285.24782.47941-.04673.15434-.10364.31074-.15025.457"/><path class="cls-2" d="M54.725,20.55813c0,.5342.01413,1.06232.01413,1.59857a7.62021,7.62021,0,0,1-.84289,4.29387,3.15056,3.15056,0,0,1-.91194.94045,8.36328,8.36328,0,0,0-.76578-.60529,3.83323,3.83323,0,0,0,.86929-.843,5.64217,5.64217,0,0,0,.72512-3.3839c0-.80638-.04066-1.61481-.08331-2.41307l.98112.11176a.12928.12928,0,0,1,.11778.12391.22591.22591,0,0,1-.10352.17666M51.96873,20.548v.36969c0,1.17607,0,2.36224.00607,3.54036h-.9324c.00819-.21937.01624-.44079.01624-.65V22.5081c0-.7739-.008-1.54576-.03644-2.31148l.98707.10563a.07567.07567,0,0,1,.06707.0812.218.218,0,0,1-.10761.16451"/><path class="cls-2" d="M61.45365,24.018c-.41853-.02634-.74954-.02634-1.08476-.02634-.38989-.00819-2.99395,0-3.92622.03651-.01426-.35141-.03856-.7982-.04463-1.06431-.00819-.132.05281-.14015.09744-.132a3.50872,3.50872,0,0,0,.4225.063c.44891.02437,1.32428.01624,1.83616.01624,1.06431,0,1.54781-.0264,2.736-.04264-.02231.34935-.02839.80024-.03645,1.1496"/><path class="cls-2" d="M64.31817,22.57281a9.86018,9.86018,0,0,0-1.28572-1.75489c.25191-.262.48957-.54437.7333-.8186a8.72757,8.72757,0,0,1,1.24109,1.72447,6.03079,6.03079,0,0,1-.68867.849m.1484,3.80641a4.76628,4.76628,0,0,1-1.13138.50779c-.03868-.1117-.44283-1.176-.44283-1.176,0-.03861.0305-.03861.05083-.03861a.94017.94017,0,0,0,.27621-.04668,5.94549,5.94549,0,0,0,2.05151-1.11111,12.50871,12.50871,0,0,0,2.39677-2.4983c.05281.4631.11579.92416.17467,1.38726a11.37956,11.37956,0,0,1-3.37578,2.97566"/><path class="cls-2" d="M74.87559,21.69112a4.88121,4.88121,0,0,0-1.59045-.1117,6.4838,6.4838,0,0,0-1.09877.21534c-.02852-.32909-.04885-.73528-.08331-1.06232a7.5994,7.5994,0,0,1,1.55388-.20716,5.04739,5.04739,0,0,1,1.29589.071c-.02443.36157-.04265.72921-.07724,1.09481m.24981,4.90939a5.00676,5.00676,0,0,1-1.25325.07717c-.981-.03452-1.89505-.21125-2.01493-1.87478.23158-.193.46118-.39814.70082-.58093.002.94448.39808,1.369,1.03592,1.39134a3.90867,3.90867,0,0,0,1.54768-.20715c-.00608.39609-.01017.79218-.01624,1.19435m-4.36286.43056c-.24782.02845-.49366.063-.74756.09955a12.84453,12.84453,0,0,1-.35741-3.453A24.61237,24.61237,0,0,1,70.015,19.792l.5952.1544a1.93158,1.93158,0,0,1,.29443.0853.11023.11023,0,0,1,.07724.11783.11643.11643,0,0,1-.10972.11778,19.79773,19.79773,0,0,0-.39808,4.03191c0,.329.01215.652.01215.983.124-.41431.24175-.83477.3718-1.24915.17058.17673.34526.35748.51387.53216a9.38894,9.38894,0,0,0-.60933,2.46582"/><path class="cls-2" d="M90.68611,10.15934a4.62381,4.62381,0,0,0-1.5478-.10972,6.1678,6.1678,0,0,0-1.07038.21534c-.02852-.32908-.04674-.73528-.08133-1.06028a7.35558,7.35558,0,0,1,1.51334-.20715,4.96319,4.96319,0,0,1,1.2613.071c-.02442.36157-.04265.72921-.07513,1.09078m.24373,4.89718a4.74776,4.74776,0,0,1-1.22076.07717c-.95459-.03452-1.84434-.2092-1.96-1.8687.2234-.193.44878-.3961.68036-.58094.00211.9425.388,1.365,1.00951,1.38936a3.77358,3.77358,0,0,0,1.50516-.20722c-.00409.39405-.01017.7881-.01426,1.19033m-4.31822.53414c-.24175.02845-.48151.063-.72921.09955a13.19092,13.19092,0,0,1-.34738-3.44286,25.13876,25.13876,0,0,1,.34738-3.87341l.58081.1523a1.84071,1.84071,0,0,1,.2865.08331.11439.11439,0,0,1,.07711.11982.11767.11767,0,0,1-.10761.11784,20.08066,20.08066,0,0,0-.38791,4.0197c0,.329.01215.64794.01215.979.11976-.41233.23555-.83279.36151-1.24512.16662.17672.33522.35748.49973.53011a9.5931,9.5931,0,0,0-.59308,2.45975"/><path class="cls-2" d="M28.77053,23.446a2.08178,2.08178,0,0,0-.5668,1.83213c.14021.82672,1.06641.91808,1.55189.908.15435-.002.31477-.0163.47532-.03459-.06906.323-.14828.63784-.21535.95267l-.14219.002c-.94654.02033-2.30739-.134-2.45975-1.70817a3.05646,3.05646,0,0,1,.51387-2.18961,13.0762,13.0762,0,0,0-2.342.63778c-.0507-.321-.12385-.63579-.18682-.94858a5.57529,5.57529,0,0,0,1.239-.34731,9.24669,9.24669,0,0,0,1.59454-1.7976,9.75613,9.75613,0,0,1-1.41378.07109c-.004-.29859-.01215-.59717-.03447-.88963a8.21421,8.21421,0,0,0,2.12862-.059,1.93168,1.93168,0,0,0,.53023-.21732c.14207.26406.28229.53829.40824.80843a19.06851,19.06851,0,0,0-2.00278,2.0251c.99525-.16049,1.99262-.27832,2.98787-.37174-.00607.34124.002.68247-.01016,1.02166a3.28055,3.28055,0,0,0-2.05548.30467"/></svg>