<svg id="レイヤー_1" data-name="レイヤー 1" xmlns="http://www.w3.org/2000/svg" width="34.29701" height="35.72691" viewBox="0 0 34.29701 35.72691">
  <defs>
    <style>
      .cls-1 {
        fill: #fff;
      }

      .cls-2 {
        fill: #18b7cd;
      }
    </style>
  </defs>
  <title>access_icon01</title>
  <g>
    <rect class="cls-1" width="34.29701" height="35.72691" rx="17.14849"/>
    <path class="cls-2" d="M26.89,16.20135h-.00851L25.30158,7.58249a.81994.81994,0,0,0-.79846-.69084H9.9666a.82154.82154,0,0,0-.79563.69084l-1.5771,8.61886H7.40416A1.369,1.369,0,0,0,6.0649,17.60289v7.36457c0,1.192.38508,1.57427,1.529,1.57427h.42755V28.2972a.52908.52908,0,0,0,.51814.54082H10.346a.52909.52909,0,0,0,.51815-.54082V26.54173H23.43V28.2972a.52907.52907,0,0,0,.51815.54082h1.80927a.52859.52859,0,0,0,.51532-.54082V26.54173H26.706c1.13823,0,1.52614-.38227,1.52614-1.57427V17.60289A1.37131,1.37131,0,0,0,26.89,16.20135m-16.42226-7.121a.82683.82683,0,0,1,.79846-.68807H23.20633a.81709.81709,0,0,1,.79562.68807l1.05047,6.096a.83864.83864,0,0,1-.79846,1.00795H10.23841A.84011.84011,0,0,1,9.44,15.17638Zm-.22935,14.3892a1.68769,1.68769,0,1,1,1.61391-1.68746,1.6537,1.6537,0,0,1-1.61391,1.68746m9.88166.73058a.67179.67179,0,0,1-.65688.688H14.52236a.67413.67413,0,0,1-.65973-.688V22.47864a.676.676,0,0,1,.65973-.68806h4.94083a.67363.67363,0,0,1,.65688.68806Zm3.9357-.73058a1.68769,1.68769,0,1,1,1.6139-1.68746,1.65371,1.65371,0,0,1-1.6139,1.68746"/>
  </g>
</svg>
