<svg xmlns="http://www.w3.org/2000/svg" width="152" height="152" viewBox="0 0 152 152">
  <title>apple-touch-icon</title>
  <g id="レイヤー_2" data-name="レイヤー 2">
    <path d="M67.144,79.28229a44.90759,44.90759,0,0,0-15.6176,2.59213C39.4082,86.37177,32.18264,93.95375,30.05709,104.40653c-2.7023,13.33-.97853,22.02664,5.761,29.07724C44.91648,142.98393,60.33319,148.22,79.22983,148.22a116.40523,116.40523,0,0,0,28.98652-3.83636,6.297,6.297,0,0,0,3.94-3.03927,6.018,6.018,0,0,0,.47306-4.78249l-1.60712-5.05465c-30.87229,9.62329-56.91674,4.28349-66.8122-6.05911-4.89265-5.1065-4.36126-10.84807-3.32441-16.7711,1.26366-7.2126,6.47385-12.857,14.652-15.90273,19.73909-7.30981,49.19867,8.85214,49.49029,9.02062l2.7995,1.5488,7.70511-4.19277a3.76655,3.76655,0,0,0,1.67193-4.80841L95.04832,42.1338l23.86057-1.03038a4.45249,4.45249,0,0,0,4.2511-4.63019l-.30458-7.164-32.6479,1.40947-.22681-.52814L78.76973,3.78,68.08366,8.31619l9.73346,22.94037L37.91125,32.97709l.499,11.59979,44.25418-1.90846.22681.52815,18.71519,44.09865-1.85985-.75172C90.65465,82.86591,78.80213,79.28229,67.144,79.28229Z"/>
  </g>
</svg>
