<svg id="レイヤー_1" data-name="レイヤー 1" xmlns="http://www.w3.org/2000/svg" width="245.41797" height="98.28357" viewBox="0 0 245.41797 98.28357"><title>about_txt01_sp</title><path d="M24.2041,5.05859a6.46541,6.46541,0,0,1-.957-2.207.83538.83538,0,0,1,.89844-.83984,1.19124,1.19124,0,0,1,1.13281.9375,9.66159,9.66159,0,0,0,.70313,1.66016c.293-.09766.58593-.19532.8789-.3125a1.63077,1.63077,0,0,1,.56641-.11719.88755.88755,0,0,1,.918.89843c0,.74219-.52735.89844-1.48438,1.17188,1.69922,3.02734,2.67578,4.82422,2.67578,6.05469,0,.78125-.39062,1.09375-.85937,1.09375a1.57718,1.57718,0,0,1-1.01563-.41016c-.72265-.60547-3.125-1.05469-4.51172-1.05469-1.5625,0-2.34375.76172-2.34375,1.3086,0,.85937,1.67969,1.44531,3.418,1.44531.3125,0,.625-.01953.9375-.03906h.17578c.76172,0,1.13282.44922,1.13282.9375a1.1678,1.1678,0,0,1-1.26953,1.11328c-3.98438,0-6.32813-1.543-6.32813-3.30078,0-.957,1.03516-3.10547,4.43359-3.10547a24.8122,24.8122,0,0,1,3.61329.42969c.07812,0,.13671.01953.17578.01953s.05859-.01953.05859-.03907c0-.03906-.03906-.78124-2.01172-4.043a13.31668,13.31668,0,0,1-2.168.3125c-2.26562,0-4.16015-1.9336-4.16015-2.73438A.87954.87954,0,0,1,19.751,3.418a1.19385,1.19385,0,0,1,.918.42969,3.35973,3.35973,0,0,0,2.51953,1.34765,2.12691,2.12691,0,0,0,.37109-.01953Z"/><path d="M36.31738,16.5625a1.03488,1.03488,0,0,1-.957-.83984,14.27992,14.27992,0,0,1-.58594-4.25782,21.65287,21.65287,0,0,1,.13672-2.53906c.23438-2.1875.6836-4.12109.82032-5.332a.8949.8949,0,0,1,.89843-.918.995.995,0,0,1,1.01563.957c0,.03907-.01953.09766-.01953.15625-.13672.83985-.48828,2.207-.76172,3.63282a19.05426,19.05426,0,0,0-.42969,3.35937c0,.72266.11719.87891.15625.87891.05859,0,.15625-.11719.27344-.35157.54687-1.1914.85937-1.40625,1.17187-1.40625a.85219.85219,0,0,1,.82032.82032.80789.80789,0,0,1-.09766.37109,11.97094,11.97094,0,0,0-1.543,3.84766c0,.23437.05859.46875.05859.70312A.951.951,0,0,1,36.31738,16.5625ZM46.62988,2.85156c-.05859.56641-.11718,1.17188-.13672,1.81641q.49806-.08789,1.05469-.17578a1.20146,1.20146,0,0,1,.25391-.01953.892.892,0,0,1,.99609.83984c0,.41016-.332.83984-1.05469.9375-.44921.05859-.8789.11719-1.26953.17578.01953,1.44531.07813,2.8711.17578,3.90625a20.22343,20.22343,0,0,1,.15625,2.168v.21484a7.75992,7.75992,0,0,1,2.2461,1.36719,1.09487,1.09487,0,0,1,.37109.80078,1.04422,1.04422,0,0,1-.99609,1.09375.94.94,0,0,1-.70313-.35156,6.6266,6.6266,0,0,0-1.40625-1.13281A4.51818,4.51818,0,0,1,42.665,16.52344c-1.60156,0-3.02734-1.17188-3.02734-2.44141,0-1.48437,1.8164-2.08984,3.61328-2.08984a9.74182,9.74182,0,0,1,1.8164.19531,4.93843,4.93843,0,0,0,.01953-.54688c0-.332-.01953-.68359-.05859-1.09374-.07812-.83985-.17578-2.28516-.23437-3.8086a7.20874,7.20874,0,0,0-3.51563,1.42578.92924.92924,0,0,1-.625.27344A.94377.94377,0,0,1,39.75488,7.5c0-.42969.27344-1.42578,5-2.48047,0-.82031.01953-1.60156.0586-2.22656a.83379.83379,0,0,1,.89843-.80078,1.01609,1.01609,0,0,1,.74219.293.75314.75314,0,0,1,.76172-.70313c.3125,0,2.36328.85938,2.36328,1.73828a.81224.81224,0,0,1-.72265.82031.61044.61044,0,0,1-.46875-.23437A6.00477,6.00477,0,0,0,46.88379,2.832a.80266.80266,0,0,1-.25391-.15625Zm-3.6914,10.64453c-1.52344,0-1.60157.48829-1.60157.66407,0,.23437.25391.72265,1.11329.72265a2.85887,2.85887,0,0,0,2.168-1.13281A6.3724,6.3724,0,0,0,42.93848,13.49609ZM50.02832,2.28516A6.35235,6.35235,0,0,0,48.50488,1.25a.61185.61185,0,0,1-.44922-.56641A.72462.72462,0,0,1,48.81738,0c.13672,0,2.40235.68359,2.40235,1.67969A.8284.8284,0,0,1,50.47754,2.5.57848.57848,0,0,1,50.02832,2.28516Z"/><path d="M60.93262,13.55469a1.42163,1.42163,0,0,0,1.46484,1.28906,9.21055,9.21055,0,0,0,3.26172-.72266,1.33946,1.33946,0,0,1,.625-.15625.92967.92967,0,0,1,.957.9375c0,1.42578-2.92969,1.75782-4.31641,1.75782-2.53906,0-3.51562-1.19141-3.67187-2.46094-.09766-.76172-.293-1.07422-.58594-1.07422-.625,0-1.64062,1.52344-2.7539,2.71484a1.53605,1.53605,0,0,1-1.21094.64454c-.9375,0-1.19141-.52735-1.19141-.83985a1.13331,1.13331,0,0,1,.46875-.80078A67.13373,67.13373,0,0,0,61.69434,7.5a.59057.59057,0,0,0,.11718-.17578.01913.01913,0,0,0-.01953-.01953,2.30608,2.30608,0,0,0-.2539.11719c-.9375.42968-3.65235,1.62109-4.86329,1.62109a.8968.8968,0,0,1-.99609-.87891.94127.94127,0,0,1,.87891-.918A40.43354,40.43354,0,0,0,61.57715,5.918c.50781-.15625.50781-.21485,1.01562-.41016a1.66233,1.66233,0,0,1,.50782-.09765,1.256,1.256,0,0,1,1.26953,1.21093,1.31459,1.31459,0,0,1-.39063.89844c-.918.957-3.33984,3.37891-4.375,4.25781C60.50293,11.81641,60.77637,12.85156,60.93262,13.55469Zm1.30859-9.14063c-1.17187,0-3.71094-1.543-3.71094-2.40234A.83747.83747,0,0,1,59.42871,1.25a1.28218,1.28218,0,0,1,.83984.332,3.598,3.598,0,0,0,2.2461.97656c.58594.0586.83984.41016.83984.80079A1.07243,1.07243,0,0,1,62.24121,4.41406Z"/><path d="M77.59766,12.91016c0,1.38672.66406,2.207,1.60156,2.207.11719,0,2.1289-.21485,2.1289-1.97266,0-.99609-.68359-2.32422-2.57812-3.84765a1.23514,1.23514,0,0,1-.52734-.87891.86578.86578,0,0,1,.9375-.80078,1.35336,1.35336,0,0,1,.82031.3125c2.32422,1.93359,3.28125,3.76953,3.28125,5.293,0,2.30468-2.28516,3.75-4.14063,3.75-1.77734,0-3.26171-1.3086-3.26171-3.98438v-.03906c0-.48828,0-.9961.01953-1.48438-1.543-.42968-2.89063-.83984-2.89063-2.26562a3.297,3.297,0,0,1,.70313-1.85547.93687.93687,0,0,0,.19531-.54687c0-.46876-.70313-1.05469-1.85547-1.48438a.89873.89873,0,0,1-.68359-.78125.86765.86765,0,0,1,.9375-.80078c.625,0,3.418,1.21094,3.418,2.87109a2.49739,2.49739,0,0,1-.72265,1.543,1.26577,1.26577,0,0,0-.37109.76172c0,.293.2539.42969.54687.50781.25391.0586.52734.11719.80078.19532.19531-4.14063.19531-4.86329.19531-5.3711,0-.80078-.01953-1.34766-.01953-2.07031a.8748.8748,0,0,1,.918-.9375c1.01563,0,1.03516.918,1.03516,1.40625,0,.70312-.09766,1.36719-.13672,2.26562-.07813,1.77735-.21484,3.4961-.293,5.21485,1.13281.42969,1.64063.78125,1.64063,1.36719a.99185.99185,0,0,1-.918,1.01562,1.26265,1.26265,0,0,1-.78125-.332Z"/><path d="M100.00488,8.98438c0-2.168-1.69922-4.02344-4.53125-4.02344h-.03906a.88285.88285,0,0,1,.54688.82031v.09766c0,2.05078-2.01172,5.60547-4.16016,7.71484a2.11855,2.11855,0,0,1-1.46484.66406c-1.38672,0-2.63672-1.5625-2.63672-3.6914,0-3.53516,3.47656-7.12891,7.87109-7.12891,3.94531,0,6.40625,2.61719,6.40625,5.66406a5.98672,5.98672,0,0,1-.42969,2.207C99.84863,15.64453,94.53613,16.25,94.2627,16.25a1.02708,1.02708,0,0,1-1.11329-.957c0-.42969.332-.83985,1.07422-.97656C97.77832,13.73047,100.00488,11.543,100.00488,8.98438ZM94.36035,5.05859c-2.4414.48829-4.88281,3.08594-4.88281,5.41016,0,1.46484.97656,1.64063,1.03516,1.64063a.51732.51732,0,0,0,.37109-.15626c.58594-.52734,3.02734-3.418,3.10547-6.05468A1.01017,1.01017,0,0,1,94.36035,5.05859Z"/><path d="M111.39648,15.85938a1.09335,1.09335,0,0,1-1.17187-1.05469,1.00789,1.00789,0,0,1,.97656-.957c3.69141-.52735,7.98828-2.48047,7.98828-5.09766a2.66419,2.66419,0,0,0-2.85156-2.46094,7.65441,7.65441,0,0,0-2.46094.52735c-1.85547.64453-4.19922,2.05078-6.1914,2.96875a1.41275,1.41275,0,0,1-.64453.15625,1.05565,1.05565,0,0,1-1.09375-1.03516,1.08609,1.08609,0,0,1,.76171-.99609c1.875-.74219,4.96094-2.32422,6.91407-2.8711a10.9449,10.9449,0,0,1,2.94922-.48828,4.497,4.497,0,0,1,4.76562,4.29688c0,1.44531-.87891,2.832-2.59766,4.17968A18.20639,18.20639,0,0,1,111.39648,15.85938Zm8.30079-11.36719a6.72013,6.72013,0,0,0-1.582-1.15235.616.616,0,0,1-.44921-.58593.79862.79862,0,0,1,.82031-.72266c.27344,0,2.48047.87891,2.48047,1.83594a.89.89,0,0,1-.78125.8789A.61085.61085,0,0,1,119.69727,4.49219Zm1.77734-1.71875a7.03786,7.03786,0,0,0-1.60156-1.09375.6528.6528,0,0,1-.48828-.58594.78488.78488,0,0,1,.82031-.72266c.42969,0,2.51953.85938,2.51953,1.75782a.85568.85568,0,0,1-.78125.85937A.61576.61576,0,0,1,121.47461,2.77344Z"/><path d="M132.69043,17.34375a.97841.97841,0,0,1-.918-.64453,27.49083,27.49083,0,0,0-3.92578-6.15234,3.50347,3.50347,0,0,1-.918-2.05079,2.976,2.976,0,0,1,.76172-1.8164A46.731,46.731,0,0,0,131.34277,1.543a.92479.92479,0,0,1,.82032-.50781,1.25189,1.25189,0,0,1,1.23046,1.15234,1.06656,1.06656,0,0,1-.17578.56641c-.78125,1.25-2.96875,3.6914-4.0039,4.9414a1.11634,1.11634,0,0,0-.3125.72266,1.68417,1.68417,0,0,0,.46875.99609c1.99218,2.57813,3.53515,4.043,4.43359,6.26953a1.54825,1.54825,0,0,1,.09766.48829A1.2213,1.2213,0,0,1,132.69043,17.34375Z"/><path d="M141.40527,17.46094a.96735.96735,0,0,1-.99609-.957,1.03976,1.03976,0,0,1,.72266-.9375c4.0039-1.64063,5.11718-4.55079,5.11718-7.32422a12.86717,12.86717,0,0,0-.332-2.793c-.19531-.918-.625-1.28906-1.09375-1.28906a2.08657,2.08657,0,0,0-1.44531.9375,6.71241,6.71241,0,0,0-1.07422,4.16015c-.03906,1.05469-.54687,1.52344-1.03516,1.52344-.97656,0-.97656-1.28906-.97656-1.5625a16.77663,16.77663,0,0,1,.78125-4.19922c.293-.99609.78125-2.42187,1.01563-3.61328a.79134.79134,0,0,1,.82031-.68359,1.09346,1.09346,0,0,1,1.11328,1.01562c0,.0586-.01953.11719-.01953.17578a3.38843,3.38843,0,0,1-.60547,1.36719c-.13672.21484-.15625.293-.13672.293.03906,0,.15625-.11719.293-.25391a2.5874,2.5874,0,0,1,1.75781-.83984c2.34375,0,2.92969,3.90625,2.92969,5.9375,0,3.26172-1.42578,6.81641-6.23047,8.90625A1.42564,1.42564,0,0,1,141.40527,17.46094Z"/><path d="M156.83984,16.71875a.85749.85749,0,0,1-.957.80078.83856.83856,0,0,1-.9375-.80078v-.01953c.03907-2.46094.07813-6.38672.07813-9.90234h-1.34766a.86023.86023,0,1,1,0-1.71876h1.34766c-.01953-1.52343-.03906-2.87109-.07813-3.88671V1.15234a.84688.84688,0,0,1,.918-.82031.87971.87971,0,0,1,.97656.83985v.01953c-.01953,1.07421-.03906,2.42187-.03906,3.88671h1.11328a.8181.8181,0,0,1,.85938.85938.8181.8181,0,0,1-.85938.85938h-1.13281c0,3.49609.01953,7.32421.05859,9.90234Zm10.21485-3.4375-.01953.35156.03906,1.52344v.05859A2.15729,2.15729,0,0,1,164.65234,17.5c-1.30859,0-1.69922-.39062-1.69922-.99609a.81637.81637,0,0,1,.82032-.83985.95093.95093,0,0,1,.23437.01953,4.37151,4.37151,0,0,0,.74219.11719c.39062,0,.60547-.19531.60547-.918v-.05859l-.01953-1.543L158.5,13.30078a.71782.71782,0,0,1-.76172-.72266.70735.70735,0,0,1,.76172-.72265l6.81641.01953-.01953-.41016v-.01953c0-.48828.44921-.72265.89843-.72265a.76817.76817,0,0,1,.85938.72265v.41016h2.207a.69086.69086,0,0,1,.74219.72265.70083.70083,0,0,1-.74219.72266Zm-2.32422-9.707v.99609c.72265,0,1.40625,0,1.89453.01953,1.23047.03907,1.875.6836,1.93359,1.46485a11.95237,11.95237,0,0,1,.03907,1.23047c0,.60546-.01954,1.25-.03907,1.73828a1.72231,1.72231,0,0,1-1.83593,1.60156c-.64454.03906-1.64063.05859-2.63672.05859-1.15235,0-2.32422-.01953-3.00782-.05859-1.93359-.07812-1.93359-1.19141-1.93359-2.89062,0-.58594.01953-1.17188.03906-1.582.03907-.72265.48829-1.52343,1.89453-1.5625.44922-.01953,1.09376-.01953,1.79688-.01953V3.57422l-3.47656.03906a.74786.74786,0,1,1,0-1.48437L162.875,2.168V1.15234a.92909.92909,0,0,1,1.85547,0V2.168l2.24609-.01953a4.22889,4.22889,0,0,0-1.23047-.82032.44631.44631,0,0,1-.293-.42968.86078.86078,0,0,1,.82032-.76172c.39062,0,2.05078.66406,2.05078,1.48437a.98234.98234,0,0,1-.15625.52735l.44922-.01953a.74591.74591,0,1,1,0,1.48437Zm-2.832,12.24609a4.53554,4.53554,0,0,0-1.60156-1.07422.5062.5062,0,0,1-.332-.46875.96941.96941,0,0,1,.9375-.83984c.46875,0,2.36328.74219,2.36328,1.64062a1.01051,1.01051,0,0,1-.8789.97657A.64825.64825,0,0,1,161.89844,15.82031Zm1.07422-10.03906c-1.89454,0-2.05078,0-2.08985.625,0,.15625-.01953.37109-.01953.58594h2.10938Zm0,2.34375h-2.10938c0,.9375,0,1.30859.74219,1.32812.3125,0,.80078.01954,1.36719.01954Zm3.90625-1.13281c0-.21485-.01953-.41016-.01953-.56641-.01954-.64453-.09766-.64453-2.2461-.64453V6.99219ZM164.61328,8.125V9.47266c1.91406,0,2.22656,0,2.2461-.64454,0-.19531.01953-.44921.01953-.70312Z"/><path d="M182.27539,14.49219c-.50781,0-.99609-.01953-1.48437-.01953a.80563.80563,0,0,1,.39062.66406c0,1.03516-3.20312,2.67578-6.543,2.69531a.894.894,0,0,1-.99609-.85937.815.815,0,0,1,.918-.80078h.09765a7.71771,7.71771,0,0,0,4.76563-1.50391,1.39933,1.39933,0,0,1,.293-.21485c-.39063,0-.74219-.01953-1.11328-.01953-1.32813-.01953-2.03125-.66406-2.08985-1.52343-.01953-.54688-.03906-1.17188-.03906-1.75782,0-.60546.01953-1.21093.03906-1.69922.03906-.70312.58594-1.44531,2.03125-1.46484.97656-.01953,2.01172-.01953,3.04688-.01953,1.28906,0,2.59765,0,3.94531.03906a1.84136,1.84136,0,0,1,1.95312,1.34766,16.77583,16.77583,0,0,1,.07813,1.77734,17.2644,17.2644,0,0,1-.07813,1.77735,1.89246,1.89246,0,0,1-2.05078,1.543c-.42968,0-.85937.01954-1.30859.01954-.01953.2539-.01953.50781-.01953.78125.03906.66406.64453.74218,1.91406.74218,1.91406,0,2.51953-.37109,2.51953-1.38671a.84424.84424,0,0,1,.918-.85938.95731.95731,0,0,1,1.03516.957c0,2.46094-2.05078,2.77344-4.47266,2.77344-1.83594,0-3.75,0-3.75-1.81641Zm-.60547-8.28125a.59989.59989,0,0,1,.625.60547.62014.62014,0,0,1-.64453.625c-.46875.01953-1.52344.03906-2.59766.03906-1.32812,0-2.67578-.01953-3.0664-.03906-.9375-.0586-1.60156-.48829-1.64063-1.46485-.03906-.72265-.05859-1.36718-.05859-1.99218s.01953-1.25.05859-1.9336A1.50051,1.50051,0,0,1,175.9668.68359h5.60547a.6054.6054,0,0,1,.64453.60547.62562.62562,0,0,1-.66407.625h-2.24609v.70313c.46875,0,.83984.01953,1.07422.01953,1.23047.05859,1.26953.60547,1.26953,1.543s-.25391,1.26953-2.34375,1.26953V6.25c1.01563,0,1.97266-.01953,2.34375-.03906Zm-1.46484-2.34375c-.01953-.19531-.11719-.27344-.39063-.293H175.9082v.85937c1.03516,0,3.125,0,3.82813-.01953.35156-.01953.44922-.07812.46875-.293Zm-2.40235-1.95313h-1.32812c-.3125.01953-.50781.07813-.52734.42969l-.01954.27344h1.875Zm0,3.55469c-.68359,0-1.36718,0-1.875-.01953l.01954.37109c.01953.42969.19531.42969,1.85546.42969Zm7.98829,5.37109H178.1543V11.582H185.791Zm-.03907-.99609c-.01953-.41016-.19531-.60547-.82031-.625-1.09375-.01953-2.40234-.03906-3.67187-.03906-.78125,0-1.5625,0-2.2461.01953-.58594.01953-.80078.3125-.82031.64453v.05859H185.752Zm.01953,2.67578h-7.57812v.09766c.01953.66406.17578.68359,4.23828.68359,2.92969,0,3.26172,0,3.32031-.68359Zm-1.38671-8.88672c-.76172,1.03516-1.05469,1.38672-1.543,1.38672a.84789.84789,0,0,1-.89844-.72265.73183.73183,0,0,1,.21484-.46876,9.71865,9.71865,0,0,0,1.97266-3.0664A.6988.6988,0,0,1,184.834.332c.46875,0,.9961.332.9961.80078a.7666.7666,0,0,1-.0586.27344,7.25688,7.25688,0,0,1-.41015.76172l4.12109-.01953a.72753.72753,0,0,1,.78125.74218.73193.73193,0,0,1-.78125.76172Zm-.74219,3.30078a.76494.76494,0,0,1-.82031-.76171.75083.75083,0,0,1,.82031-.74219h5.50781a.7525.7525,0,1,1,0,1.5039Z"/><path d="M203.08105,2.75391c-.21484-.23438-.37109-.35157-.50781-.35157s-.27344.11719-.46875.35157A30.13856,30.13856,0,0,1,195.835,8.61328a1.46348,1.46348,0,0,1-.82031.27344,1.06335,1.06335,0,0,1-1.07422-1.03516,1.06908,1.06908,0,0,1,.625-.918,21.09453,21.09453,0,0,0,6.17187-5.48828,2.17979,2.17979,0,0,1,1.69922-.9375,2.51709,2.51709,0,0,1,1.83594.9375,23.04189,23.04189,0,0,0,6.32813,4.88281.917.917,0,0,1,.52734.83985,1.17985,1.17985,0,0,1-1.15234,1.15234C208.9209,8.32031,205.249,5.17578,203.08105,2.75391Zm-.99609,8.418a32.1152,32.1152,0,0,1-1.42578,3.80859c1.79687-.13672,3.57422-.35156,5.27344-.60547a12.948,12.948,0,0,0-1.42578-1.13281.79446.79446,0,0,1-.41016-.66407.88722.88722,0,0,1,.918-.80078c1.15234,0,4.668,3.26172,4.668,4.41407a1.11051,1.11051,0,0,1-1.09375,1.05468.884.884,0,0,1-.80078-.52734,8.69661,8.69661,0,0,0-.64454-.99609,79.97915,79.97915,0,0,1-10.50781,1.32812.924.924,0,0,1-.89844-.97656.8193.8193,0,0,1,.80079-.87891c.68359-.01953,1.38671-.03906,2.08984-.07812a22.73759,22.73759,0,0,0,1.38672-3.92578l-3.69141.01953a.83193.83193,0,0,1-.918-.83985.891.891,0,0,1,.918-.918h12.40235a.88126.88126,0,0,1,.9375.89844.86307.86307,0,0,1-.9375.85938ZM199.8584,7.57812a.861.861,0,0,1-.918-.8789.87167.87167,0,0,1,.918-.87891h5.60547a.87167.87167,0,0,1,.918.87891.861.861,0,0,1-.918.8789Z"/><path d="M225.86035,16.42578H225.665c-4.23828-.39062-6.91406-3.32031-6.91406-6.32812a5.4979,5.4979,0,0,1,1.40625-3.57422.40194.40194,0,0,0,.09765-.17578.042.042,0,0,0-.03906-.03907.66.66,0,0,0-.19531.07813c-3.06641,1.582-3.4375,1.69922-3.86719,1.69922a1.11175,1.11175,0,0,1-1.19141-1.05469,1.11976,1.11976,0,0,1,.89844-1.01563c.41016-.13671,1.52344-.46874,2.10938-.68359.918-.332,2.53906-.83984,4.47265-1.60156a14.91112,14.91112,0,0,1,5.17578-1.21094c.97657,0,1.32813.44922,1.32813.957,0,.9961-.82031,1.21094-1.5625,1.21094a3.61035,3.61035,0,0,1-.44922-.01953,3.76366,3.76366,0,0,0-.46875-.01953c-3.02734,0-5.99609,2.57812-5.99609,5.19531,0,2.34375,2.22656,4.33594,5.293,4.33594.97656,0,1.44531.5664,1.44531,1.15234C227.208,15.87891,226.75879,16.42578,225.86035,16.42578ZM227.54,9.57031a7.403,7.403,0,0,0-1.66016-1.21093.65541.65541,0,0,1-.48828-.60547.82643.82643,0,0,1,.85938-.76172c.2539,0,2.63672.89843,2.63672,1.91406a.93319.93319,0,0,1-.83985.918A.67473.67473,0,0,1,227.54,9.57031Zm2.24609-1.62109a6.85657,6.85657,0,0,0-1.69922-1.15234.67851.67851,0,0,1-.50781-.60547.84179.84179,0,0,1,.85938-.78125c.3125,0,2.65625.83984,2.65625,1.85546a.90212.90212,0,0,1-.82032.918A.71494.71494,0,0,1,229.78613,7.94922Z"/><path d="M27.09668,28.60107c.78125.03907,1.19141.44922,1.19141,1.03516a6.18451,6.18451,0,0,1-.6836,1.99219c.15625,0,.293.01953.39063.01953a1.51722,1.51722,0,0,1,1.52343,1.543c.01954.78125.0586,1.83594.0586,2.8125,0,2.65625,0,3.20312-3.28125,3.20312-1.83594,0-2.89063-.03906-2.94922-1.66015-.01953-.52735-.03906-1.3086-.03906-2.10938,0-.54687.01953-1.11328.01953-1.582a.757.757,0,0,1-.50781.19531.81963.81963,0,0,1-.83985-.76172.93687.93687,0,0,1,.19531-.54687A14.93271,14.93271,0,0,0,24.61621,27.644a.75117.75117,0,0,1,.78125-.58593.73715.73715,0,0,1,.85938.957l-.17579.58593Zm-5.07813,14.707a.99661.99661,0,0,1,.25391-.625,5.26127,5.26127,0,0,0,.9375-2.36329.65382.65382,0,0,1,.66406-.66406.77164.77164,0,0,1,.78125.72266c0,.70312-.50781,3.63281-1.85547,3.63281A.74413.74413,0,0,1,22.01855,43.30811Zm4.55079-13.10547c0-.11719-.11719-.13672-.25391-.13672-.15625,0-.52734,0-.85938.01953-.2539.52734-.54687,1.05469-.83984,1.582A.54076.54076,0,0,1,24.792,31.648c.293-.01953.76172-.03906,1.25-.03906A6.37157,6.37157,0,0,0,26.56934,30.20264Zm-.78125,5.70312H24.65527c0,1.75781.01953,1.85547.54688,1.89453a4.61986,4.61986,0,0,0,.58594.01953Zm0-3.02734c-.19532,0-.39063.01953-.50782.01953-.60547.03906-.60547.3125-.60547,1.75781h1.11329ZM25.124,42.91748v-.50781c0-.76172-.03906-1.60156-.07812-2.01172v-.09766a.55386.55386,0,0,1,.5664-.60547.70069.70069,0,0,1,.6836.54688,14.95106,14.95106,0,0,1,.23437,2.40234c0,.89844-.66406.9375-.80078.9375A.60109.60109,0,0,1,25.124,42.91748Zm2.75391-.05859a.56262.56262,0,0,1-.56641-.50782,11.73475,11.73475,0,0,0-.52734-1.99218.85966.85966,0,0,1-.03906-.19532.54836.54836,0,0,1,.58593-.50781.65757.65757,0,0,1,.60547.35156,9.6333,9.6333,0,0,1,.70313,2.10938A.7576.7576,0,0,1,27.87793,42.85889Zm.27344-8.20313c0-.42969-.01953-.82031-.01953-1.09375-.01954-.48828-.15625-.66406-.60547-.66406h-.50782v1.75781Zm-1.13282,1.25v1.91406a4.61986,4.61986,0,0,0,.58594-.01953c.56641-.03906.56641-.3125.56641-1.89453Zm2.207,5.78125a9.2365,9.2365,0,0,0-.72266-1.46484.62253.62253,0,0,1-.11719-.332.55382.55382,0,0,1,.60547-.48828c.68359,0,1.44531,1.60156,1.44531,1.99218a.72739.72739,0,0,1-.68359.72266A.56422.56422,0,0,1,29.22559,41.687Zm1.1914-7.168a.70339.70339,0,1,1,0-1.40625l3.33985.01953v-.8789L31.374,32.273a.66434.66434,0,1,1,0-1.32813l2.38282.01954V30.144l-2.832.01953a.71446.71446,0,1,1,0-1.42578l2.832.01953v-.957a.81809.81809,0,0,1,.85937-.85937.84485.84485,0,0,1,.87891.85937v.957l3.04687-.01953a.71347.71347,0,1,1,0,1.42578L35.49512,30.144v.82032l2.34375-.01954a.66434.66434,0,1,1,0,1.32813l-2.34375-.01953-.01953.8789,3.73046-.01953a.7034.7034,0,0,1,0,1.40625Zm6.25,6.5625H32.64355c0,.918.01954,1.83594.03907,2.63672v.01953a.77309.77309,0,0,1-.80078.82032.83121.83121,0,0,1-.83985-.83985c0-1.07422-.01953-2.22656-.01953-3.3789S31.042,38.0542,31.042,37.019c.01953-1.07422.42969-1.71875,1.75781-1.75781.64454-.01953,1.23047-.03906,1.83594-.03906.58594,0,1.19141.01953,1.83594.03906,1.19141.03906,1.75781.64453,1.77734,1.66016,0,2.73437.03907,4.78515.0586,5.23437v.03906a2.11461,2.11461,0,0,1-2.36328,2.168c-1.5625,0-1.71875-.50781-1.71875-.97656a.75638.75638,0,0,1,.72265-.82031.48541.48541,0,0,1,.15625.01953,3.54185,3.54185,0,0,0,.76172.09766c.42969,0,.78125-.17579.80078-.89844ZM32.64355,38.855v.957h4.043c0-.3125-.01953-.64453-.01953-.957Zm3.98438-1.66016c-.03906-.5664-.23438-.60546-2.07031-.60546-1.6211,0-1.83594.01953-1.875.60546l-.01953.39063h3.96484Z"/><path d="M45.92969,35.37842a8.08477,8.08477,0,0,0-2.53907-1.3086.68952.68952,0,0,1-.50781-.66406,1.00177,1.00177,0,0,1,.97657-.957,6.9102,6.9102,0,0,1,3.14453,1.21094.9687.9687,0,0,1,.42968.82031,1.077,1.077,0,0,1-.957,1.11328A.85084.85084,0,0,1,45.92969,35.37842Zm-1.543,8.59375a1.03482,1.03482,0,0,1-1.03516-.9961A.94662.94662,0,0,1,43.625,42.312a17.79517,17.79517,0,0,0,2.92969-4.76562.84623.84623,0,0,1,.80078-.52735.92884.92884,0,0,1,.957.9375,16.42611,16.42611,0,0,1-3.00781,5.54688A1.20981,1.20981,0,0,1,44.38672,43.97217Zm2.34375-12.69531A8.0824,8.0824,0,0,0,44.38672,29.48a.66616.66616,0,0,1-.41016-.58594,1.04731,1.04731,0,0,1,1.05469-.9375c.50781,0,3.39844,1.46485,3.39844,2.5586a1.12315,1.12315,0,0,1-1.03516,1.09375A.848.848,0,0,1,46.73047,31.27686Zm2.05078,11.97265a.86022.86022,0,1,1,0-1.71875L53,41.55029v-10.625l-3.14453.01953a.85959.85959,0,1,1,0-1.71875h8.73047a.86263.86263,0,1,1,0,1.71875l-3.61328-.01953v10.625l4.41406-.01953a.86263.86263,0,1,1,0,1.71875Z"/><path d="M71.75488,38.32764a10.42519,10.42519,0,0,1-.03906,1.07422,1.16135,1.16135,0,0,1-1.05469,1.1914.81538.81538,0,0,1-.80078-.918v-.17578a10.62677,10.62677,0,0,0,.07813-1.30859c-.41016.21484-2.22657,1.17187-2.22657,2.40234,0,.332.15625,1.48438,2.14844,1.48438a9.07121,9.07121,0,0,0,2.46094-.41016,1.57853,1.57853,0,0,1,.48828-.07812.94278.94278,0,0,1,1.01563.918c0,.41016-.15625,1.40625-3.4961,1.40625-3.20312,0-4.375-1.67968-4.375-3.10546,0-2.38282,2.77344-3.86719,3.78906-4.39454-.23437-.76171-.625-1.15234-1.15234-1.15234a1.92555,1.92555,0,0,0-1.01562.35156c-.82032.918-1.3086,1.19141-1.73829,1.19141a.77979.77979,0,0,1-.83984-.74219,1.06551,1.06551,0,0,1,.44922-.80078,10.19267,10.19267,0,0,0,2.5-2.96875,5.727,5.727,0,0,1-.957.07813c-1.97266,0-1.99219-1.09375-1.99219-1.25a.83017.83017,0,0,1,.80078-.85938,1.24263,1.24263,0,0,1,.70313.25391,1.32376,1.32376,0,0,0,.72265.15625,7.54539,7.54539,0,0,0,1.543-.21485,7.51809,7.51809,0,0,0,.35156-1.543.76742.76742,0,0,1,.82032-.68359.99649.99649,0,0,1,1.05468.85938,3.72562,3.72562,0,0,1-.11718.72265c.58593-.293.66406-.3125.80078-.3125a.85035.85035,0,0,1,.83984.85938c0,.64453-.50781,1.03515-2.53906,1.52343a21.00608,21.00608,0,0,1-1.11328,1.95313,2.611,2.611,0,0,1,2.46094,1.83594,22.68615,22.68615,0,0,1,4.51171-1.582A1.03955,1.03955,0,0,1,76.93066,35.105a.807.807,0,0,1-.52734.76172c-.60547.25391-1.25.332-2.26562.64453-.82032.25391-1.66016.56641-2.42188.87891A7.22042,7.22042,0,0,1,71.75488,38.32764Z"/><path d="M83.44043,37.78076c-1.38672.52735-1.46484.54688-1.71875.54688a.96187.96187,0,0,1-.97656-.957.85233.85233,0,0,1,.66406-.83985c.74219-.23437,1.40625-.42969,2.03125-.64453V32.81982H81.78027a.8596.8596,0,0,1,0-1.71875h1.66016l-.01953-3.00781a.8958.8958,0,0,1,.9375-.918.86942.86942,0,0,1,.918.918v3.00781H86.585a.85938.85938,0,1,1,0,1.71875H85.27637v2.34375c.332-.15625.66406-.332,1.01562-.50781a.87617.87617,0,0,1,.3711-.09765.81962.81962,0,0,1,.76171.83984c0,.52734-.13671.625-2.168,1.60156v1.9336c0,.3125.05859,2.08984.07812,2.77343v.09766A2.17747,2.17747,0,0,1,82.874,44.148c-.9375,0-1.79687-.13672-1.79687-1.05469a.82176.82176,0,0,1,.76172-.89844.54053.54053,0,0,1,.17578.01954,3.19188,3.19188,0,0,0,.70312.09765c.41016,0,.70313-.17578.72266-.83984Zm13.94531,3.98438a.83451.83451,0,0,1,.87891.85937.86037.86037,0,0,1-.87891.87891c-1.34765.03906-3.39844.05859-5.39062.05859-1.77735,0-3.53516-.01953-4.72657-.05859a.87763.87763,0,0,1-.89843-.87891.85137.85137,0,0,1,.89843-.85937Zm-4.78515-1.79688c-.70313,0-1.42579-.01953-2.03125-.03906a2.08422,2.08422,0,0,1-2.22657-2.10938c-.03906-1.11328-.05859-2.32421-.05859-3.57421,0-1.36719.01953-2.793.05859-4.082.03907-1.11328.89844-1.8164,2.22657-1.91406.46875-.03906,1.03515-.03906,1.64062-.03906.80078,0,1.64063.01953,2.28516.03906a2.21222,2.21222,0,0,1,2.207,2.05078c.05859,1.15235.07812,2.44141.07812,3.78907,0,1.23046-.01953,2.48046-.07812,3.67187a2.18407,2.18407,0,0,1-2.14844,2.168C94.02637,39.94873,93.32324,39.96826,92.60059,39.96826Zm2.34375-6.97265c0-.83985-.01954-1.6211-.0586-2.30469-.03906-.70313-.13672-.918-2.36328-.918-1.95312,0-2.34375.13672-2.36328.918-.03906.70312-.05859,1.48437-.07813,2.30469Zm-4.86329,1.60156c0,.957.03907,1.91406.07813,2.8125.05859.83984.35156.918,2.40234.918.52735,0,1.05469-.01953,1.40625-.0586.97657-.11718.97657-.15625.97657-3.67187Z"/><path d="M103.77734,43.50342a.88109.88109,0,0,1,.56641-.82031c3.59375-1.582,4.76563-3.84766,4.76563-5.97657,0-.54687-.17579-3.3789-1.67969-3.3789a3.1121,3.1121,0,0,0-1.543.60547,4.32909,4.32909,0,0,1-2.05078.8789,1.03836,1.03836,0,1,1-.09766-2.07031,4.24031,4.24031,0,0,0,1.32813-.48828,6.04757,6.04757,0,0,1,2.48047-.625c3.4375,0,3.51562,4.64844,3.51562,5.03906,0,5.23438-5.44922,7.87109-6.25,7.87109A1.05425,1.05425,0,0,1,103.77734,43.50342Zm4.92188-13.4961a8.96087,8.96087,0,0,1-3.78906-.83984.91889.91889,0,0,1-.52735-.80078.87558.87558,0,0,1,.89844-.85938,1.43948,1.43948,0,0,1,.52734.11719,5.40877,5.40877,0,0,0,2.28516.42969c.23437,0,.44922,0,.68359-.01953h.07813a.8968.8968,0,0,1,.99609.8789A1.07422,1.07422,0,0,1,108.69922,30.00732Z"/><path d="M131.8291,34.49951c-1.44531-.01953-2.89062-.03906-4.3164-.03906-2.46094,0-4.84375.03906-6.97266.05859a.76134.76134,0,0,0-.85938.82032c0,.27343.01954.64453.01954,1.05468,0,1.9336-.21485,5.0586-1.83594,7.10938a1.18267,1.18267,0,0,1-.9375.48828.99185.99185,0,0,1-1.01563-.918,1.00622,1.00622,0,0,1,.293-.64453c1.42578-1.52344,1.67969-3.86719,1.67969-5.68359,0-.72266-.03906-1.34766-.05859-1.81641v-.07813A1.96054,1.96054,0,0,1,119.876,32.937c.74218,0,1.543-.01953,2.34375-.01953a7.06115,7.06115,0,0,0-.97657-1.26953.51735.51735,0,0,1-.15625-.37109c0-.39063.50782-.74219.9961-.74219a.75994.75994,0,0,1,.44922.13672c.21484.13672,1.52343,1.5039,1.52343,2.168v.07812h1.67969a10.15584,10.15584,0,0,0,.957-1.89453.80424.80424,0,0,1,.78125-.52734,1.06894,1.06894,0,0,1,1.09375.918,4.48,4.48,0,0,1-.85937,1.50391c1.38672,0,2.77344.01953,4.12109.01953a.78137.78137,0,1,1,.01953,1.5625Zm-13.0664-4.14062a.81061.81061,0,0,1,0-1.6211h5.05859v-.97656a.91761.91761,0,0,1,.99609-.89844.93586.93586,0,0,1,1.01563.89844v.01953l-.01953.957h4.9414a.8111.8111,0,0,1,0,1.6211Zm1.5625,13.47656a.772.772,0,1,1,0-1.543l4.72656.01953V40.82764h-2.69531a.70538.70538,0,1,1,0-1.40625h2.69531V38.0542h-2.42188c-1.13281,1.62109-1.38672,1.81641-1.8164,1.81641a.90484.90484,0,0,1-.9375-.76172.64545.64545,0,0,1,.21484-.46875,11.08768,11.08768,0,0,0,2.1875-3.28125.70629.70629,0,0,1,.68359-.42969.90287.90287,0,0,1,.9375.76172.61852.61852,0,0,1-.07812.3125c-.09766.19531-.21484.39062-.3125.58594h1.543V35.49561a.82939.82939,0,0,1,.85937-.85938.85.85,0,0,1,.89844.85938v1.09375l3.76953-.01954a.752.752,0,1,1,0,1.50391l-3.76953-.01953v1.36719h3.08594a.70313.70313,0,0,1,0,1.40625h-3.08594V42.312l4.90234-.01953a.77155.77155,0,0,1,0,1.543Z"/><path d="M152.59668,39.34326l-4.92188-.09765h-.58593a22.40754,22.40754,0,0,0,6.30859,2.89062.786.786,0,0,1,.60547.76172,1.0883,1.0883,0,0,1-1.03516,1.07422A21.07137,21.07137,0,0,1,146.21,40.398l.03906,3.35937v.01954a.82531.82531,0,0,1-.918.74218c-.46875,0-.918-.23437-.918-.74218v-.01954l.03906-3.33984c-2.42188,1.95313-6.13281,3.63281-6.75781,3.63281a.944.944,0,0,1-.9961-.8789c0-.3125.21485-.60547.6836-.78125a19.498,19.498,0,0,0,6.07421-3.14453h-.64453l-4.74609.09765h-.01953a.68546.68546,0,0,1-.72266-.72265.71682.71682,0,0,1,.74219-.74219l6.38672.03906-.01953-.85937-4.41407.01953a.65437.65437,0,1,1,0-1.3086l4.39454.01953v-.83984l-5.39063.01953a.71347.71347,0,1,1,0-1.42578l3.418.01953a5.10365,5.10365,0,0,0-.39063-.80078.44138.44138,0,0,1-.09765-.293.596.596,0,0,1,.48828-.50781l-4.47266.01953a.788.788,0,0,1-.82031-.82031.76786.76786,0,0,1,.80078-.80078h.01953l2.5586.03906a7.68975,7.68975,0,0,0-1.01563-1.25.633.633,0,0,1-.17578-.41016c0-.41015.50781-.78125.97656-.78125a.74116.74116,0,0,1,.44922.11719,6.14618,6.14618,0,0,1,1.582,2.34375l.6836.01953-.01953-2.59765v-.01954a.793.793,0,0,1,.85937-.80078.82455.82455,0,0,1,.87891.82032V30.437h1.13281V27.83936a.81421.81421,0,0,1,.87891-.82032.8045.8045,0,0,1,.85937.80078v.01954l-.03906,2.59765.66406-.01953a11.39249,11.39249,0,0,0,.97656-1.95312.85564.85564,0,0,1,.82032-.58594.98788.98788,0,0,1,1.01562.8789c0,.0586,0,.44922-.9375,1.64063l2.65625-.03906h.01953a.75184.75184,0,0,1,.78125.80078.77189.77189,0,0,1-.80078.82031l-4.707-.01953a.75557.75557,0,0,1,.48828.64453,3.91376,3.91376,0,0,1-.35156.957l3.39844-.01953a.713.713,0,1,1,0,1.42578l-5.35157-.01953v.83984l4.35547-.01953a.65437.65437,0,1,1,0,1.3086l-4.375-.01953-.01953.85937,6.38672-.03906a.68961.68961,0,0,1,.72266.74219.66969.66969,0,0,1-.70313.72265Zm-9.33594-7.38281a2.25066,2.25066,0,0,1,.9961,1.543l.01953.05859h2.14843a5.67332,5.67332,0,0,0,.41016-1.26953.48132.48132,0,0,1,.19531-.332Z"/><path d="M161.7041,35.12451a10.72221,10.72221,0,0,1-2.207.3711.8501.8501,0,0,1-.918-.87891.942.942,0,0,1,.97656-.97656,14.6191,14.6191,0,0,0,3.22266-.44922,8.28008,8.28008,0,0,0,.957-2.98828.82722.82722,0,0,1,.87891-.70313.98391.98391,0,0,1,1.05469.89844,6.67876,6.67876,0,0,1-.70313,2.36328h.15625c2.22656,0,2.28516,2.40234,2.28516,3.30078,0,1.73828-.07813,6.6211-3.69141,6.6211-1.11328,0-2.55859-.50782-2.55859-1.44532a.99556.99556,0,0,1,1.42578-.918,2.62257,2.62257,0,0,0,1.09375.293c1.26953,0,1.85547-1.36718,1.85547-4.78515,0-.80078-.11719-1.38672-.74219-1.38672a1.20508,1.20508,0,0,0-.35156.03906c-.07813.01953-.19532.05859-.3125.07813-1.46485,2.7539-3.51563,5.957-4.76563,8.08593a1.1574,1.1574,0,0,1-1.01562.56641.91115.91115,0,0,1-.9961-.83984,1.19427,1.19427,0,0,1,.23438-.6836c.85937-1.30859,2.89062-4.16015,4.27734-6.60156Zm10.82031,2.69531a6.20911,6.20911,0,0,0-3.35937-3.10546.7096.7096,0,0,1-.52734-.66407.91155.91155,0,0,1,.9375-.85937c.99609,0,4.82421,2.42187,4.82421,4.21875a1.04086,1.04086,0,0,1-1.03515,1.03515A.91018.91018,0,0,1,172.52441,37.81982Zm-.54687-5.15625a6.61288,6.61288,0,0,0-1.64063-1.07421c-.35156-.13672-.48828-.35157-.48828-.58594a.77917.77917,0,0,1,.80078-.72266c.09766,0,2.5586.70313,2.5586,1.73828a.854.854,0,0,1-.76172.85938A.61577.61577,0,0,1,171.97754,32.66357Zm1.67969-1.79687a6.69361,6.69361,0,0,0-1.66016-.99609.62209.62209,0,0,1-.50781-.60547A.79477.79477,0,0,1,172.29,28.523a5.7885,5.7885,0,0,1,2.28516,1.03516.87681.87681,0,0,1-.46875,1.52343A.64971.64971,0,0,1,173.65723,30.8667Z"/><path d="M193.15527,39.773l-5.50781-.11719a19.31052,19.31052,0,0,0,5.99609,2.65625.75846.75846,0,0,1,.58594.76172,1.02911,1.02911,0,0,1-.97656,1.03516,20.53406,20.53406,0,0,1-6.44531-3.35938l.03906,3.125V43.894c0,.48828-.44922.74219-.918.74219-.44922,0-.89844-.23437-.89844-.74219v-.01953l.03907-3.04687a18.83834,18.83834,0,0,1-6.543,3.418.87557.87557,0,0,1-.89844-.85938.86129.86129,0,0,1,.68359-.82031,17.0801,17.0801,0,0,0,5.83985-2.91016l-5.332.11719h-.01954a.75205.75205,0,0,1-.80078-.78125.80339.80339,0,0,1,.82032-.83984l6.23046.01953-.01953-.56641a.90582.90582,0,0,1,.07813-.41016c-1.23047,0-2.32422,0-3.08594-.01953-2.03125-.03906-2.03125-1.36718-2.03125-2.24609,0-.76172.01953-1.75781.05859-2.63672-.80078.80078-1.11328,1.03516-1.48437,1.03516a.89767.89767,0,0,1-.87891-.85938.82092.82092,0,0,1,.39063-.68359,12.57754,12.57754,0,0,0,3.65234-4.1211.868.868,0,0,1,.74219-.44921.95941.95941,0,0,1,.957.8789.71907.71907,0,0,1-.17578.48828c-.17578.21485-.35156.42969-.50781.64453.72265,0,1.62109-.01953,2.59765-.01953.23438-.41015.52735-.957.82032-1.582a.77246.77246,0,0,1,.72265-.42969.9287.9287,0,0,1,.97656.80079,3.35151,3.35151,0,0,1-.58593,1.21093c1.93359,0,3.84765.01953,4.84375.03907a.73432.73432,0,0,1-.03907,1.44531h-.01953c-.99609-.01953-2.98828-.01953-4.98047-.01953v.8789h3.94532a.54507.54507,0,0,1,.52734.60547.53862.53862,0,0,1-.52734.58594h-3.94532v.85937h3.94532a.54239.54239,0,0,1,.54687.58594.54848.54848,0,0,1-.54687.60547h-3.94532v.99609c2.07032-.01953,4.21875-.03906,5.332-.05859h.01953a.71906.71906,0,0,1,0,1.42578c-1.21094,0-3.47657.03906-5.6836.03906a.90783.90783,0,0,1,.09766.41016l-.01953.56641,6.34765-.01953a.75689.75689,0,0,1,.80079.80078.78326.78326,0,0,1-.80079.82031Zm-7.793-7.03125h-3.67187c0,.27344-.01953.56641-.01953.85937h3.6914Zm0,2.05078h-3.6914v.21484c0,.41016.21484.74219.82031.76172.64453.01953,1.69922.01953,2.87109.01953Zm0-4.12109c-1.23046,0-2.30468.01953-2.96875.01953a.58487.58487,0,0,0-.64453.625l-.01953.23437h3.63281Z"/><path d="M198.47363,43.13232a.81178.81178,0,0,1-.85937-.76171,1.05637,1.05637,0,0,1,.17578-.54688,9.34077,9.34077,0,0,0,1.15234-3.39844.74655.74655,0,0,1,.78125-.68359.8619.8619,0,0,1,.89844.85937,11.02643,11.02643,0,0,1-1.28906,4.043A1.02665,1.02665,0,0,1,198.47363,43.13232Zm2.57813.39063.05859-6.875c-1.11328.15625-2.36328.3125-2.5.3125a.75029.75029,0,0,1-.72265-.80078.67575.67575,0,0,1,.625-.72266c.2539-.01953.5664-.03906.918-.05859a14.60384,14.60384,0,0,0,1.17188-1.48438,16.2784,16.2784,0,0,0-2.207-1.79687.76821.76821,0,0,1,.41015-1.42578.95065.95065,0,0,1,.42969.11718l.11719.0586a13.32513,13.32513,0,0,0,1.48437-3.35938.75416.75416,0,0,1,.78125-.5664.91466.91466,0,0,1,.97657.82031,15.12109,15.12109,0,0,1-1.97266,4.02344c.3125.2539.60547.52734.87891.78125a22.40963,22.40963,0,0,0,1.48437-2.832.7386.7386,0,0,1,.72266-.48829.93325.93325,0,0,1,.97656.85938c0,.58594-1.67969,3.26172-3.10547,5.09766.72266-.07813,1.38672-.15625,1.875-.21485-.07812-.13672-.19531-.2539-.27344-.37109a.77925.77925,0,0,1-.17578-.46875.71919.71919,0,0,1,.76172-.64453c.83985,0,1.91406,2.03125,1.91406,2.7539a.91735.91735,0,0,1-.85937.957c-.46875,0-.58594-.27343-.80078-1.01562-.27344.05859-.6836.13672-1.17188.21484l.03907,7.12891a.87943.87943,0,0,1-.918.918.86438.86438,0,0,1-.918-.89844Zm3.00781-2.28516a7.79924,7.79924,0,0,0-.78125-2.4414.82048.82048,0,0,1-.11719-.41016.68746.68746,0,0,1,.74219-.64453.85829.85829,0,0,1,.70313.35156,6.70862,6.70862,0,0,1,1.17187,2.92969.96187.96187,0,0,1-.957.97656A.75756.75756,0,0,1,204.05957,41.23779ZM206.6377,35.73a.82492.82492,0,0,1-.85938-.83984.81431.81431,0,0,1,.85938-.83985h2.63671l-.01953-2.05078H206.3252a.80819.80819,0,0,1-.83985-.83984.798.798,0,0,1,.83985-.83985h2.92968l-.01953-2.10937a.85419.85419,0,0,1,.918-.85938.87775.87775,0,0,1,.957.85938v2.10937h3.37891a.85357.85357,0,0,1,.918.83985.84279.84279,0,0,1-.918.83984h-3.39844v2.05078h2.85156a.85357.85357,0,0,1,.918.83985.8428.8428,0,0,1-.918.83984Zm5.46875,8.20313c-.54688.03906-1.19141.05859-1.83594.05859-3.57422,0-3.90625-.37109-3.90625-3.28125,0-.54688,0-1.05469.03906-1.52344a1.89881,1.89881,0,0,1,1.97266-1.875c.5664-.03906,1.21093-.03906,1.85547-.03906.66406,0,1.30859,0,1.85546.03906a1.97813,1.97813,0,0,1,2.03125,1.79688c.03907.625.0586,1.25.0586,1.85547,0,.332,0,.66406-.01953.97656A1.97635,1.97635,0,0,1,212.10645,43.93311Zm.23437-4.35547c-.01953-.625-.293-.76172-1.99219-.76172-.50781,0-.99609.01953-1.40625.03906-.82031.01953-.82031.56641-.82031,1.91406,0,1.52344.03906,1.60157,2.207,1.60157,2.03125,0,2.05078-.19532,2.05078-1.69922C212.37988,40.30029,212.36035,39.9292,212.34082,39.57764Z"/><path d="M222.09082,43.75732a1.35293,1.35293,0,0,1-1.34766-1.28906,1.41086,1.41086,0,0,1,1.34766-1.34765,1.26048,1.26048,0,0,1,1.34766,1.34765A1.299,1.299,0,0,1,222.09082,43.75732Zm-.83984-4.96093v-.41016c0-1.89453-.19532-6.44531-.3125-9.51172v-.05859a1.05909,1.05909,0,0,1,1.13281-1.07422,1.10482,1.10482,0,0,1,1.17187,1.13281c0,2.30469-.3125,7.67578-.3125,9.57031,0,.46875,0,1.28907-.85937,1.28907a.83952.83952,0,0,1-.82031-.918Z"/><path d="M26.89941,66.63562c0,1.38672.66407,2.207,1.60157,2.207.11718,0,2.1289-.21484,2.1289-1.97265,0-.9961-.68359-2.32422-2.57812-3.84766a1.23512,1.23512,0,0,1-.52735-.87891.86579.86579,0,0,1,.9375-.80078,1.35342,1.35342,0,0,1,.82032.3125c2.32422,1.9336,3.28125,3.76953,3.28125,5.293,0,2.30469-2.28516,3.75-4.14063,3.75-1.77734,0-3.26172-1.30859-3.26172-3.98437v-.03907c0-.48828,0-.99609.01953-1.48437-1.543-.42969-2.89062-.83985-2.89062-2.26563a3.297,3.297,0,0,1,.70312-1.85547.93682.93682,0,0,0,.19532-.54687c0-.46875-.70313-1.05469-1.85547-1.48438a.89874.89874,0,0,1-.6836-.78125.86766.86766,0,0,1,.9375-.80078c.625,0,3.418,1.21094,3.418,2.8711a2.49749,2.49749,0,0,1-.72265,1.543,1.26578,1.26578,0,0,0-.3711.76171c0,.293.25391.42969.54688.50782.2539.05859.52734.11718.80078.19531.19531-4.14063.19531-4.86328.19531-5.37109,0-.80079-.01953-1.34766-.01953-2.07032a.8748.8748,0,0,1,.918-.9375c1.01562,0,1.03516.918,1.03516,1.40625,0,.70313-.09766,1.36719-.13672,2.26563-.07813,1.77734-.21485,3.49609-.293,5.21484,1.13281.42969,1.64062.78125,1.64062,1.36719a.99184.99184,0,0,1-.918,1.01562,1.26264,1.26264,0,0,1-.78125-.332Z"/><path d="M49.30664,62.70984c0-2.168-1.69922-4.02344-4.53125-4.02344h-.03906a.88286.88286,0,0,1,.54687.82031v.09766c0,2.05078-2.01172,5.60547-4.16015,7.71484a2.11859,2.11859,0,0,1-1.46485.66407c-1.38672,0-2.63672-1.5625-2.63672-3.69141,0-3.53516,3.47657-7.12891,7.8711-7.12891,3.94531,0,6.40625,2.61719,6.40625,5.66407a5.98679,5.98679,0,0,1-.42969,2.207c-1.71875,4.33594-7.03125,4.9414-7.30469,4.9414a1.02707,1.02707,0,0,1-1.11328-.957c0-.42968.332-.83984,1.07422-.97656C47.08008,67.45593,49.30664,65.26843,49.30664,62.70984Zm-5.64453-3.92578c-2.44141.48828-4.88281,3.08594-4.88281,5.41015,0,1.46485.97656,1.64063,1.03515,1.64063a.51731.51731,0,0,0,.3711-.15625c.58593-.52734,3.02734-3.418,3.10547-6.05469A1.01017,1.01017,0,0,1,43.66211,58.78406Z"/><path d="M60.69824,69.58484a1.09334,1.09334,0,0,1-1.17187-1.05469,1.00789,1.00789,0,0,1,.97656-.957c3.69141-.52734,7.98828-2.48047,7.98828-5.09766a2.66418,2.66418,0,0,0-2.85156-2.46093,7.65431,7.65431,0,0,0-2.46094.52734c-1.85547.64453-4.19922,2.05078-6.19141,2.96875a1.41256,1.41256,0,0,1-.64453.15625A1.05565,1.05565,0,0,1,55.249,62.63171a1.08611,1.08611,0,0,1,.76172-.99609c1.875-.74219,4.96094-2.32422,6.91406-2.87109a10.945,10.945,0,0,1,2.94922-.48828,4.497,4.497,0,0,1,4.76563,4.29687c0,1.44531-.87891,2.832-2.59766,4.17969A18.20648,18.20648,0,0,1,60.69824,69.58484ZM68.999,58.21765a6.71983,6.71983,0,0,0-1.582-1.15234.616.616,0,0,1-.44922-.58594.79863.79863,0,0,1,.82032-.72266c.27343,0,2.48046.87891,2.48046,1.83594a.89.89,0,0,1-.78125.87891A.61087.61087,0,0,1,68.999,58.21765Zm1.77735-1.71875a7.0377,7.0377,0,0,0-1.60157-1.09375.65281.65281,0,0,1-.48828-.58594.78488.78488,0,0,1,.82032-.72265c.42968,0,2.51953.85937,2.51953,1.75781a.85569.85569,0,0,1-.78125.85938A.61577.61577,0,0,1,70.77637,56.4989Z"/><path d="M81.99219,71.06921a.9784.9784,0,0,1-.918-.64453,27.49142,27.49142,0,0,0-3.92578-6.15234,3.50345,3.50345,0,0,1-.918-2.05078,2.976,2.976,0,0,1,.76172-1.81641,46.73,46.73,0,0,0,3.65234-5.13672.92477.92477,0,0,1,.82031-.50781A1.2519,1.2519,0,0,1,82.69531,55.913a1.06651,1.06651,0,0,1-.17578.56641c-.78125,1.25-2.96875,3.69141-4.00391,4.94141a1.11637,1.11637,0,0,0-.3125.72265,1.68424,1.68424,0,0,0,.46876.9961c1.99218,2.57812,3.53515,4.043,4.43359,6.26953a1.54816,1.54816,0,0,1,.09765.48828A1.2213,1.2213,0,0,1,81.99219,71.06921Z"/><path d="M90.707,71.1864a.96735.96735,0,0,1-.99609-.957,1.03977,1.03977,0,0,1,.72265-.9375c4.00391-1.64062,5.11719-4.55078,5.11719-7.32422a12.86732,12.86732,0,0,0-.332-2.793c-.19531-.918-.625-1.28906-1.09375-1.28906a2.0866,2.0866,0,0,0-1.44531.9375,6.71238,6.71238,0,0,0-1.07422,4.16016c-.03906,1.05468-.54688,1.52343-1.03516,1.52343-.97656,0-.97656-1.28906-.97656-1.5625A16.77645,16.77645,0,0,1,90.375,58.745c.293-.9961.78125-2.42188,1.01562-3.61329a.79135.79135,0,0,1,.82032-.68359,1.09347,1.09347,0,0,1,1.11328,1.01563c0,.05859-.01953.11718-.01953.17578a3.38852,3.38852,0,0,1-.60547,1.36718c-.13672.21485-.15625.293-.13672.293.03906,0,.15625-.11718.293-.2539a2.58737,2.58737,0,0,1,1.75781-.83985c2.34375,0,2.92969,3.90625,2.92969,5.9375,0,3.26172-1.42578,6.81641-6.23047,8.90625A1.42567,1.42567,0,0,1,90.707,71.1864Z"/><path d="M115.14551,62.70984c0-2.168-1.69922-4.02344-4.53125-4.02344h-.03906a.88286.88286,0,0,1,.54687.82031v.09766c0,2.05078-2.01172,5.60547-4.16016,7.71484a2.11857,2.11857,0,0,1-1.46484.66407c-1.38672,0-2.63672-1.5625-2.63672-3.69141,0-3.53516,3.47656-7.12891,7.8711-7.12891,3.94531,0,6.40625,2.61719,6.40625,5.66407a5.98679,5.98679,0,0,1-.42969,2.207c-1.71875,4.33594-7.03125,4.9414-7.30469,4.9414a1.02707,1.02707,0,0,1-1.11328-.957c0-.42968.332-.83984,1.07422-.97656C112.919,67.45593,115.14551,65.26843,115.14551,62.70984ZM109.501,58.78406c-2.44141.48828-4.88282,3.08594-4.88282,5.41015,0,1.46485.97657,1.64063,1.03516,1.64063a.51727.51727,0,0,0,.37109-.15625c.58594-.52734,3.02735-3.418,3.10547-6.05469A1.01015,1.01015,0,0,1,109.501,58.78406Z"/><path d="M121.18652,71.04968a.92711.92711,0,0,1-.957-.83984.91309.91309,0,0,1,.3125-.64453,7.45666,7.45666,0,0,0,2.1875-5.17578.71073.71073,0,0,1,.78125-.66407.78047.78047,0,0,1,.85938.72266,10.04243,10.04243,0,0,1-2.40235,6.25A1.03134,1.03134,0,0,1,121.18652,71.04968Zm12.793-3.47656a.80258.80258,0,0,1-.8789.76172.82407.82407,0,0,1-.89844-.78125v-.01953l.03906-4.49219a7.6983,7.6983,0,0,1-2.168,2.75391,4.0908,4.0908,0,0,1,.82031,1.582.70242.70242,0,0,1-.70312.64453.53186.53186,0,0,1-.52734-.39063l-.03907-.07812a13.39149,13.39149,0,0,1-2.63672.50781.77462.77462,0,0,1-.39062-.07812v.23437a.78855.78855,0,0,0,.76172.82031c.97656.07813,2.42187.11719,3.84765.11719,1.44532,0,2.89063-.03906,3.88672-.13672a1.11868,1.11868,0,0,0,1.17188-1.25.78427.78427,0,0,1,.8789-.78125.98185.98185,0,0,1,1.09375.957c0,2.89063-2.73437,2.91016-6.85546,2.91016-1.71875,0-3.4375-.05859-4.27735-.11719a2.05055,2.05055,0,0,1-2.207-2.207c0-.41015-.01953-.78125-.01953-1.13281,0-1.50391.05859-2.61719.09766-3.86719-3.55469,0-3.59375-.27344-3.59375-3.24219,0-.918.01953-1.89453.03906-2.51953.03906-1.66015,1.73828-1.66015,2.34375-1.66015a10.94754,10.94754,0,0,0,.27344-1.44532.71612.71612,0,0,1,.78125-.60546.87663.87663,0,0,1,.9375.82031,4.6018,4.6018,0,0,1-.3125,1.21094c1.44531,0,3.02734.03906,3.08593,1.62109.01953.78125.0586,1.75781.0586,2.67578,0,.52734-.01953,1.01563-.03907,1.42578-.05859.89844-.58593,1.543-1.85546,1.66016,0,1.25-.07813,2.24609-.09766,3.47656l.17578-.05859a19.39539,19.39539,0,0,0,.74219-2.53907.57091.57091,0,0,1,.60547-.44921.63607.63607,0,0,1,.68359.58593,15.22679,15.22679,0,0,1-.76172,2.26563c.39063-.0586.78125-.13672,1.15235-.19531-.09766-.17579-.21485-.3125-.27344-.41016a.52045.52045,0,0,1-.09766-.25391.49747.49747,0,0,1,.27344-.39062.6599.6599,0,0,1-.11719-.39063.80825.80825,0,0,1,.27344-.5664,12.10062,12.10062,0,0,0,2.59766-3.4375l-2.1875.05859h-.01954a.722.722,0,0,1-.76171-.74219.75362.75362,0,0,1,.76171-.78125h.01954l2.61718.01953-.01953-1.62109-1.97265.01953h-.01954a.72662.72662,0,0,1-.76171-.76172.74189.74189,0,0,1,.76171-.78125h.01954l1.93359.01953-.01953-1.5625v-.01953a.89009.89009,0,0,1,1.77734,0v.01953s-.01953.60547-.03906,1.5625l2.22656-.01953h.01953a.73749.73749,0,0,1,.74219.78125.72063.72063,0,0,1-.74219.76172H136.167l-2.24609-.01953c0,.50781-.01953,1.05469-.01953,1.62109l3.125-.01953a.74189.74189,0,0,1,.76172.78125.70553.70553,0,0,1-.74219.74219h-.01953l-2.73438-.05859a14.72683,14.72683,0,0,0,3.418,3.82812.90534.90534,0,0,1,.39063.70313.98483.98483,0,0,1-.9961.89843.90378.90378,0,0,1-.64453-.27343,18.41961,18.41961,0,0,1-2.53906-3.33985c.01953,2.34375.05859,4.62891.05859,4.62891Zm-9.76562-10.17578c-.19532,0-.39063.01953-.52735.01953-.60547.01953-.72265.25391-.72265,1.66016h1.25Zm0,2.92969h-1.25c0,1.69922.03906,1.75781.625,1.79687.13672,0,.35156.01953.625.01953Zm2.71484-1.25c0-.3711-.01953-.72266-.01953-.9961-.01953-.48828-.19531-.66406-.72266-.66406h-.50781V59.077Zm-1.25,1.25v1.8164c.27344,0,.48828-.01953.60547-.01953.64453-.03906.66406-.17578.66406-1.79687Z"/><path d="M154.415,58.04187a2.34849,2.34849,0,0,1,2.59766,2.42188c.01953.50781.05859,1.1914.05859,1.95312,0,4.707-.87891,8.53516-5.3125,8.53516a8.76316,8.76316,0,0,1-2.26563-.3125,1.00914,1.00914,0,0,1-.76171-.9961.918.918,0,0,1,.918-.97656,1.02442,1.02442,0,0,1,.332.03906,6.54225,6.54225,0,0,0,1.75781.27344c1.44531,0,3.33984-.58594,3.33984-6.48437,0-2.08985-.03906-2.67579-.97656-2.67579-.35156-.01953-.87891-.01953-1.50391-.01953s-1.34765,0-2.10937.01953c-.52735,4.82422-2.28516,9.19922-7.46094,11.32813a1.34264,1.34264,0,0,1-.46875.09766,1.05828,1.05828,0,0,1-1.01562-1.07422.95479.95479,0,0,1,.64453-.89844c4.41406-1.77734,5.85937-5.37109,6.28906-9.43359-2.63672.01953-5.11719.05859-5.11719.05859h-.01953a.899.899,0,0,1,.01953-1.79688s2.53906-.01953,5.23438-.03906c.03906-.957.03906-1.95312.03906-2.92969v-.01953a.9804.9804,0,0,1,1.05469-.957.92261.92261,0,0,1,.99609.918c0,.99609,0,1.97266-.05859,2.96875Z"/><path d="M163.38477,69.52625a12.5618,12.5618,0,0,1-.50782-3.73047c0-3.4375.9961-6.79688,1.09375-8.14453a.95978.95978,0,0,1,1.91407-.07813.48518.48518,0,0,1-.01954.15625c-.27343,1.42578-1.26953,5.03906-1.26953,6.97266,0,.72265.13672.80078.19532.80078.03906,0,.09765-.03906.13671-.13672.60547-1.15234.74219-1.38672,1.15235-1.38672a.84911.84911,0,0,1,.80078.82031.60261.60261,0,0,1-.09766.35157,10.13655,10.13655,0,0,0-1.46484,3.67187c0,.17578.01953.35156.01953.52734a.91781.91781,0,0,1-.97656,1.01563A1.04377,1.04377,0,0,1,163.38477,69.52625Zm10.85937-.11719c-3.37891,0-5.957-2.01172-5.957-2.96875a.979.979,0,0,1,1.01562-.918,1.14855,1.14855,0,0,1,.87891.42969,4.98038,4.98038,0,0,0,3.78906,1.30859,12.07236,12.07236,0,0,0,1.66016-.11719.95093.95093,0,0,1,.23437-.01953.90142.90142,0,0,1,.97657.9375C176.8418,69.077,175.98242,69.40906,174.24414,69.40906Zm-2.207-8.57422a11.02669,11.02669,0,0,1-2.63672-.293.9002.9002,0,0,1,.07813-1.79687.73274.73274,0,0,1,.19531.01953,9.18131,9.18131,0,0,0,1.89453.19531,18.69165,18.69165,0,0,0,2.40234-.19531c.0586,0,.11719-.01953.17578-.01953a.89691.89691,0,0,1,.9375.918C175.084,60.44421,174.53711,60.83484,172.03711,60.83484Z"/><path d="M186.57422,66.47937H182.668a13.009,13.009,0,0,1-1.13281,4.16016.91271.91271,0,0,1-.83985.5664.84542.84542,0,0,1-.8789-.78125.77026.77026,0,0,1,.09765-.39062,15.79631,15.79631,0,0,0,1.36719-7.28516c0-.64453-.01953-1.28906-.03906-1.93359a.8873.8873,0,0,1-.70313.35156.84856.84856,0,0,1-.89844-.76172.97471.97471,0,0,1,.21485-.52734,15.94378,15.94378,0,0,0,2.59765-5.39063.82148.82148,0,0,1,.85938-.625.83868.83868,0,0,1,.918.74219,2.81315,2.81315,0,0,1-.19531.76172h1.15234c1.26953,0,1.71875.46875,1.71875,1.03516,0,.2539-.05859.5664-.82031,2.07031.13672,0,.2539.01953.37109.01953,1.21094.03906,1.69922.60547,1.71875,1.69922v2.28515c0,3.82813,0,4.58985.0586,6.25v.07813c0,1.17187-.74219,2.28516-2.61719,2.28516-.9375,0-1.79688-.07813-1.79688-.97657a.83358.83358,0,0,1,.74219-.89843.54076.54076,0,0,1,.17578.01953,5.22106,5.22106,0,0,0,.918.13672c.52734,0,.918-.23438.918-1.09375Zm-1.64063-9.375c0-.25391-.2539-.27344-.625-.27344-.293,0-.66406,0-.918.01953-.66406,1.32813-.70312,1.42579-.85937,1.67969A3.499,3.499,0,0,1,183,58.49109c.332,0,.82031-.01953,1.34766-.01953A5.83176,5.83176,0,0,0,184.93359,57.10437ZM183.957,63.12h-1.09375c0,.625-.01953,1.28906-.05859,1.93359H183.957Zm0-3.20313h-.46875c-.50781,0-.625.25391-.625.625v1.21094H183.957Zm2.61719,1.83594c0-1.42578,0-1.83594-.66406-1.85547h-.54688v1.85547Zm.01953,3.30078c0-.625-.01953-1.28906-.01953-1.93359h-1.21094v1.93359Zm5.27344.54687c-1.89453,0-2.75391-.3125-2.832-1.75781-.01954-.42969-.03907-.99609-.03907-1.62109,0-.957.01953-1.99219.03907-2.61719.05859-1.875,1.52343-1.875,2.8125-1.875V55.13171a.90869.90869,0,0,1,1.8164,0v2.59766c.52735,0,.9961.01953,1.21094.03906a1.71474,1.71474,0,0,1,1.73828,1.5625c.01953.6836.03906,1.60157.03906,2.48047,0,.74219-.01953,1.42578-.03906,1.9336-.09766,1.77734-1.71875,1.85546-2.96875,1.85546v2.832c.44922-.09766.87891-.21485,1.25-.3125-.50781-.78125-.50781-.80079-.50781-1.01563a.742.742,0,0,1,.78125-.68359.9208.9208,0,0,1,.625.2539,7.91652,7.91652,0,0,1,1.75781,3.22266.95579.95579,0,0,1-.918.97656.842.842,0,0,1-.80078-.68359c-.05859-.21485-.17578-.46875-.27344-.72266a30.71008,30.71008,0,0,1-6.21093,1.40625.84587.84587,0,0,1-.918-.85937.87026.87026,0,0,1,.82031-.87891c.85938-.07812,1.75781-.19531,2.61719-.35156Zm.03906-6.26953c-.3125,0-.58594.01953-.72266.01953-.58593.03907-.58593.15625-.58593,2.36329,0,.70312,0,1.38671.01953,1.75781.03906.50781.35156.50781,1.28906.50781Zm1.69922,4.64844c1.05469,0,1.32812,0,1.36719-.60547.01953-.35156.03906-.82031.03906-1.32812,0-.76172-.01953-1.60157-.03906-2.14844-.01954-.56641-.21485-.56641-1.36719-.56641Z"/><path d="M201.87207,67.26062c.01953-.03906.13672-.15625.293-.39062.21484-.3125.37109-.60547.56641-.9375a18.76216,18.76216,0,0,1,1.48437-2.10938c.25391-.44922.46875-.87891.64453-1.26953l.0586-.54688a7.47459,7.47459,0,0,0-1.73829.85938,1.239,1.239,0,0,1-.70312.27344.79529.79529,0,0,1-.74219-.85938c0-.64453.15625-.85937,3.39844-2.26562.15625-1.60157.27344-3.00782.27344-3.86719a.85009.85009,0,0,1,.8789-.918.93684.93684,0,0,1,.97657.89844c0,.58594-.23438,2.53906-.35157,3.53515a.79824.79824,0,0,1,.44922.78125c1.44531-1.34765,2.94922-2.5,4.41406-2.5a2.08848,2.08848,0,0,1,2.08985,2.32422,2.751,2.751,0,0,1-.01953.39063c-.13672,1.26953-.70313,3.33984-.918,5.13672a4.3733,4.3733,0,0,0-.0586.66406c0,.60547.21485.85937.918.85937a5.77658,5.77658,0,0,0,2.168-.625,1.43949,1.43949,0,0,1,.52735-.11718.8672.8672,0,0,1,.85937.918,1.124,1.124,0,0,1-.72266,1.05468,7.20034,7.20034,0,0,1-2.793.60547c-1.50391,0-2.8125-.48828-2.8125-2.46094a4.73079,4.73079,0,0,1,.07812-.8789c.27344-1.77735.80078-3.82813.87891-5.09766v-.21484c0-.64453-.23438-.87891-.58594-.87891-1.03516,0-3.30078,2.14844-4.88281,4.10156-.07813,1.03516-.13672,2.08985-.13672,3.08594a17.06664,17.06664,0,0,0,.19531,2.75391.80119.80119,0,0,1,.01953.21484,1.012,1.012,0,0,1-1.03515,1.01563c-1.03516,0-1.05469-1.15235-1.05469-2.5586,0-.68359.01953-1.42578.07812-2.22656-.42968.70313-.83984,1.52344-1.1914,2.207a1.62567,1.62567,0,0,1-1.36719,1.01563.72392.72392,0,0,1-.78125-.72266,2.03668,2.03668,0,0,1,.58594-1.13281Z"/><path d="M223.22559,70.9325a7.4549,7.4549,0,0,0-2.40235-2.05079.87849.87849,0,0,1-.52734-.78125.86913.86913,0,0,1,.918-.85937c.68359,0,3.80859,1.71875,3.80859,3.04687a1.07956,1.07956,0,0,1-1.05469,1.07422A.889.889,0,0,1,223.22559,70.9325Z"/><path d="M5.11719,82.32654c.78125.03906,1.1914.44922,1.1914,1.03515A6.18439,6.18439,0,0,1,5.625,85.35388c.15625,0,.293.01953.39062.01953a1.51722,1.51722,0,0,1,1.52344,1.543c.01953.78125.0586,1.83594.0586,2.8125,0,2.65625,0,3.20313-3.28125,3.20313-1.83594,0-2.89063-.03907-2.94922-1.66016-.01953-.52734-.03907-1.30859-.03907-2.10937,0-.54688.01954-1.11329.01954-1.582a.757.757,0,0,1-.50782.19532A.81963.81963,0,0,1,0,87.014a.93685.93685,0,0,1,.19531-.54688,14.93285,14.93285,0,0,0,2.44141-5.09765.75117.75117,0,0,1,.78125-.58594.73713.73713,0,0,1,.85937.957l-.17578.58594ZM.03906,97.03357a.99663.99663,0,0,1,.25391-.625,5.26129,5.26129,0,0,0,.9375-2.36328.65382.65382,0,0,1,.66406-.66406.77164.77164,0,0,1,.78125.72265c0,.70313-.50781,3.63281-1.85547,3.63281A.74412.74412,0,0,1,.03906,97.03357ZM4.58984,83.9281c0-.11719-.11718-.13672-.2539-.13672-.15625,0-.52735,0-.85938.01953-.2539.52735-.54687,1.05469-.83984,1.582a.54076.54076,0,0,1,.17578-.01953c.293-.01953.76172-.03906,1.25-.03906A6.37107,6.37107,0,0,0,4.58984,83.9281Zm-.78125,5.70313H2.67578c0,1.75781.01953,1.85546.54688,1.89453a4.61968,4.61968,0,0,0,.58593.01953Zm0-3.02735c-.19531,0-.39062.01953-.50781.01953-.60547.03907-.60547.3125-.60547,1.75782H3.80859ZM3.14453,96.64294v-.50781c0-.76172-.03906-1.60156-.07812-2.01172v-.09765a.55385.55385,0,0,1,.5664-.60547.70068.70068,0,0,1,.6836.54687,14.95233,14.95233,0,0,1,.23437,2.40235c0,.89843-.66406.9375-.80078.9375A.60109.60109,0,0,1,3.14453,96.64294Zm2.75391-.05859a.56262.56262,0,0,1-.56641-.50781,11.73556,11.73556,0,0,0-.52734-1.99219.85966.85966,0,0,1-.03907-.19531.54836.54836,0,0,1,.58594-.50781.65756.65756,0,0,1,.60547.35156,9.63345,9.63345,0,0,1,.70313,2.10937A.7576.7576,0,0,1,5.89844,96.58435Zm.27344-8.20312c0-.42969-.01954-.82032-.01954-1.09375-.01953-.48829-.15625-.66407-.60546-.66407H5.03906v1.75782Zm-1.13282,1.25v1.91406a4.61986,4.61986,0,0,0,.58594-.01953c.56641-.03907.56641-.3125.56641-1.89453Zm2.207,5.78125a9.236,9.236,0,0,0-.72265-1.46485.6225.6225,0,0,1-.11719-.332.55382.55382,0,0,1,.60547-.48828c.68359,0,1.44531,1.60156,1.44531,1.99219a.72739.72739,0,0,1-.68359.72265A.56424.56424,0,0,1,7.24609,95.41248Zm1.19141-7.168a.70339.70339,0,1,1,0-1.40625l3.33984.01953v-.87891l-2.38281.01953a.66434.66434,0,1,1,0-1.32812l2.38281.01953v-.82031l-2.832.01953a.71446.71446,0,1,1,0-1.42578l2.832.01953v-.957a.8181.8181,0,0,1,.85938-.85938.84485.84485,0,0,1,.8789.85938v.957l3.04688-.01953a.71347.71347,0,1,1,0,1.42578l-3.04688-.01953v.82031l2.34376-.01953a.66434.66434,0,1,1,0,1.32812l-2.34376-.01953-.01953.87891,3.73047-.01953a.7034.7034,0,0,1,0,1.40625Zm6.25,6.5625H10.66406c0,.918.01953,1.83593.03906,2.63672v.01953a.77309.77309,0,0,1-.80078.82031.83121.83121,0,0,1-.83984-.83984c0-1.07422-.01953-2.22657-.01953-3.37891s.01953-2.28516.01953-3.32031c.01953-1.07422.42969-1.71875,1.75781-1.75782.64453-.01953,1.23047-.03906,1.83594-.03906.58594,0,1.19141.01953,1.83594.03906,1.1914.03907,1.75781.64454,1.77734,1.66016,0,2.73438.03906,4.78516.05859,5.23438v.03906a2.1146,2.1146,0,0,1-2.36328,2.168c-1.5625,0-1.71875-.50782-1.71875-.97657a.75639.75639,0,0,1,.72266-.82031.48541.48541,0,0,1,.15625.01953,3.54114,3.54114,0,0,0,.76172.09766c.42969,0,.78125-.17578.80078-.89844Zm-4.02344-2.22657v.957h4.043c0-.3125-.01953-.64454-.01953-.957Zm3.98438-1.66015c-.03906-.56641-.23438-.60547-2.07032-.60547-1.62109,0-1.83593.01953-1.875.60547l-.01953.39062h3.96485Z"/><path d="M23.9502,89.10388a8.08472,8.08472,0,0,0-2.53907-1.30859.68954.68954,0,0,1-.50781-.66406,1.00177,1.00177,0,0,1,.97656-.957,6.91012,6.91012,0,0,1,3.14453,1.21094.96873.96873,0,0,1,.42969.82031,1.077,1.077,0,0,1-.957,1.11329A.85085.85085,0,0,1,23.9502,89.10388Zm-1.543,8.59375a1.03482,1.03482,0,0,1-1.03516-.99609.94659.94659,0,0,1,.27344-.66406,17.79538,17.79538,0,0,0,2.92969-4.76563.84623.84623,0,0,1,.80078-.52734.92884.92884,0,0,1,.957.9375,16.42609,16.42609,0,0,1-3.00781,5.54687A1.20981,1.20981,0,0,1,22.40723,97.69763ZM24.751,85.00232a8.0824,8.0824,0,0,0-2.34375-1.79688.66616.66616,0,0,1-.41016-.58593,1.04731,1.04731,0,0,1,1.05469-.9375c.50781,0,3.39844,1.46484,3.39844,2.55859A1.12315,1.12315,0,0,1,25.415,85.33435.848.848,0,0,1,24.751,85.00232ZM26.80176,96.975a.86022.86022,0,1,1,0-1.71875l4.21875.01953v-10.625l-3.14453.01953a.85959.85959,0,1,1,0-1.71875h8.73047a.86263.86263,0,1,1,0,1.71875l-3.61329-.01953v10.625l4.41407-.01953a.86263.86263,0,1,1,0,1.71875Z"/><path d="M54.38574,89.57263c0-2.168-1.69922-4.02344-4.53125-4.02344h-.03906a.88286.88286,0,0,1,.54687.82032v.09765c0,2.05078-2.01171,5.60547-4.16015,7.71485a2.11857,2.11857,0,0,1-1.46485.66406c-1.38671,0-2.63671-1.5625-2.63671-3.69141,0-3.53515,3.47656-7.1289,7.87109-7.1289,3.94531,0,6.40625,2.61718,6.40625,5.66406a5.98676,5.98676,0,0,1-.42969,2.207c-1.71875,4.33594-7.03125,4.94141-7.30469,4.94141a1.02707,1.02707,0,0,1-1.11328-.957c0-.42969.332-.83985,1.07422-.97657C52.15918,94.31873,54.38574,92.13123,54.38574,89.57263Zm-5.64453-3.92578c-2.44141.48828-4.88281,3.08594-4.88281,5.41016,0,1.46484.97656,1.64062,1.03515,1.64062a.51731.51731,0,0,0,.3711-.15625c.58594-.52734,3.02734-3.418,3.10547-6.05469A1.01017,1.01017,0,0,1,48.74121,85.64685Z"/><path d="M67.22266,97.0531c-4.043,0-6.21094-1.875-6.21094-2.98828a1.05564,1.05564,0,0,1,1.01562-1.05469,1.16868,1.16868,0,0,1,.87891.48828,4.598,4.598,0,0,0,3.71094,1.48438,13.538,13.538,0,0,0,3.32031-.48828,1.89272,1.89272,0,0,1,.44922-.0586.97986.97986,0,0,1,1.05469.9961,1.31511,1.31511,0,0,1-1.09375,1.23047A12.56706,12.56706,0,0,1,67.22266,97.0531Zm1.42578-10.15625a12.4239,12.4239,0,0,1-5.293-1.25,1.0978,1.0978,0,0,1-.64453-.99609.8554.8554,0,0,1,.8789-.89844,1.63072,1.63072,0,0,1,.56641.11719,12.75268,12.75268,0,0,0,4.707,1.01562,1.00159,1.00159,0,0,1,1.01563.9961C69.87891,86.389,69.48828,86.89685,68.64844,86.89685Z"/><path d="M76.6416,94.12341c.01953-.03906.13672-.15625.293-.39062.21484-.3125.37109-.60547.56641-.9375a18.76307,18.76307,0,0,1,1.48437-2.10938c.25391-.44922.46875-.8789.64453-1.26953l.0586-.54687a7.47387,7.47387,0,0,0-1.73828.85937,1.2391,1.2391,0,0,1-.70313.27344.79529.79529,0,0,1-.74219-.85938c0-.64453.15625-.85937,3.39844-2.26562.15625-1.60156.27344-3.00781.27344-3.86719a.85009.85009,0,0,1,.8789-.918.93684.93684,0,0,1,.97657.89844c0,.58594-.23438,2.53906-.35157,3.53516a.79823.79823,0,0,1,.44922.78125c1.44532-1.34766,2.94922-2.5,4.41407-2.5a2.08847,2.08847,0,0,1,2.08984,2.32422,2.75092,2.75092,0,0,1-.01953.39062c-.13672,1.26953-.70313,3.33984-.918,5.13672a4.37328,4.37328,0,0,0-.05859.66406c0,.60547.21484.85938.918.85938a5.7768,5.7768,0,0,0,2.168-.625,1.43936,1.43936,0,0,1,.52735-.11719.8672.8672,0,0,1,.85937.918,1.124,1.124,0,0,1-.72265,1.05469,7.20039,7.20039,0,0,1-2.793.60546c-1.50391,0-2.8125-.48828-2.8125-2.46093a4.73082,4.73082,0,0,1,.07812-.87891c.27344-1.77734.80078-3.82812.87891-5.09766V87.3656c0-.64453-.23438-.87891-.58594-.87891-1.03516,0-3.30078,2.14844-4.88281,4.10157-.07813,1.03515-.13672,2.08984-.13672,3.08593a17.06664,17.06664,0,0,0,.19531,2.75391.80122.80122,0,0,1,.01953.21484,1.012,1.012,0,0,1-1.03515,1.01563c-1.03516,0-1.05469-1.15234-1.05469-2.55859,0-.6836.01953-1.42579.07812-2.22657-.42968.70313-.83984,1.52344-1.1914,2.207a1.62567,1.62567,0,0,1-1.36719,1.01563.72392.72392,0,0,1-.78125-.72266A2.03675,2.03675,0,0,1,76.583,94.2406Z"/><path d="M99.57715,88.85a10.72287,10.72287,0,0,1-2.207.37109.8501.8501,0,0,1-.918-.87891.942.942,0,0,1,.97656-.97656,14.61917,14.61917,0,0,0,3.22266-.44922,8.28008,8.28008,0,0,0,.957-2.98828.8272.8272,0,0,1,.8789-.70312.98391.98391,0,0,1,1.05469.89843,6.67852,6.67852,0,0,1-.70312,2.36328h.15625c2.22656,0,2.28515,2.40235,2.28515,3.30079,0,1.73828-.07812,6.62109-3.6914,6.62109-1.11328,0-2.5586-.50781-2.5586-1.44531a.99554.99554,0,0,1,1.42578-.918,2.62276,2.62276,0,0,0,1.09375.293c1.26954,0,1.85547-1.36719,1.85547-4.78516,0-.80078-.11718-1.38672-.74218-1.38672a1.20515,1.20515,0,0,0-.35157.03906c-.07812.01954-.19531.0586-.3125.07813-1.46484,2.75391-3.51562,5.957-4.76562,8.08594a1.15743,1.15743,0,0,1-1.01563.5664.91115.91115,0,0,1-.99609-.83984,1.19422,1.19422,0,0,1,.23437-.68359c.85938-1.3086,2.89063-4.16016,4.27735-6.60157Zm10.82031,2.69531a6.20916,6.20916,0,0,0-3.35937-3.10547.70959.70959,0,0,1-.52735-.66406.91156.91156,0,0,1,.9375-.85938c.9961,0,4.82422,2.42188,4.82422,4.21875a1.04087,1.04087,0,0,1-1.03516,1.03516A.91016.91016,0,0,1,110.39746,91.54529Z"/><path d="M119.42578,97.9906c-.74219,0-1.07422-.42969-1.07422-.87891a.93548.93548,0,0,1,.89844-.918c3.457-.27344,6.26953-2.30469,6.26953-3.86719a1.3713,1.3713,0,0,0-1.50391-1.25c-1.5039,0-4.27734,2.46094-4.57031,2.8125a1.45106,1.45106,0,0,1-1.07422.68359c-.42968,0-1.62109-.42969-1.62109-3.20312a8.54,8.54,0,0,1,.35156-2.53907,8.39266,8.39266,0,0,0,.19532-1.64062v-.332c0-1.26953.58593-1.91406,1.93359-2.65625.46875-.25391,1.03515-.48828,1.03515-.72266,0-.15625-.21484-.3125-.74218-.48828a.87992.87992,0,0,1-.72266-.80078.97616.97616,0,0,1,1.05469-.87891c.70312,0,3.14453,1.15235,3.14453,2.5,0,.918-.72266,1.05469-1.69922,1.21094a3.96187,3.96187,0,0,0-.9375.39063c-1.23047.5664-1.44531,1.07421-1.44531,1.67968,0,.09766.01953.21485.01953.332V87.639a5.90469,5.90469,0,0,1-.05859.78125,18.25773,18.25773,0,0,0-.332,2.57812c0,.0586,0,.83985.23437.83985a.4496.4496,0,0,0,.17578-.0586c.39063-.23437,1.13281-.74218,1.99219-1.23047a6.5826,6.5826,0,0,1,3.14453-1.05468c1.69922,0,3.37891,1.09375,3.37891,2.85156,0,1.25-.85938,2.75391-2.92969,4.10156A12.70707,12.70707,0,0,1,119.42578,97.9906Z"/><path d="M139.64551,92.0531a10.42519,10.42519,0,0,1-.03906,1.07422,1.16137,1.16137,0,0,1-1.05469,1.19141.81537.81537,0,0,1-.80078-.918V93.225a10.62865,10.62865,0,0,0,.07812-1.3086c-.41015.21485-2.22656,1.17188-2.22656,2.40235,0,.332.15625,1.48437,2.14844,1.48437a9.07075,9.07075,0,0,0,2.46093-.41016,1.57863,1.57863,0,0,1,.48829-.07812.94277.94277,0,0,1,1.01562.918c0,.41015-.15625,1.40625-3.49609,1.40625-3.20313,0-4.375-1.67969-4.375-3.10547,0-2.38281,2.77343-3.86719,3.78906-4.39453-.23438-.76172-.625-1.15235-1.15234-1.15235a1.92552,1.92552,0,0,0-1.01563.35157c-.82031.918-1.30859,1.1914-1.73828,1.1914a.77979.77979,0,0,1-.83984-.74218,1.06549,1.06549,0,0,1,.44921-.80079,10.19252,10.19252,0,0,0,2.5-2.96875,5.726,5.726,0,0,1-.957.07813c-1.97265,0-1.99218-1.09375-1.99218-1.25a.83017.83017,0,0,1,.80078-.85938,1.2426,1.2426,0,0,1,.70312.25391,1.32371,1.32371,0,0,0,.72266.15625,7.54588,7.54588,0,0,0,1.543-.21484,7.51906,7.51906,0,0,0,.35156-1.543.76742.76742,0,0,1,.82031-.6836.9965.9965,0,0,1,1.05469.85938,3.72582,3.72582,0,0,1-.11719.72266c.58594-.293.66406-.3125.80078-.3125a.85034.85034,0,0,1,.83985.85937c0,.64453-.50782,1.03516-2.53907,1.52344a21.00371,21.00371,0,0,1-1.11328,1.95312,2.611,2.611,0,0,1,2.46094,1.83594,22.68635,22.68635,0,0,1,4.51172-1.582,1.03956,1.03956,0,0,1,1.09375,1.01562.807.807,0,0,1-.52734.76172c-.60547.25391-1.25.332-2.26563.64453-.82031.25391-1.66016.56641-2.42187.87891A7.22042,7.22042,0,0,1,139.64551,92.0531Z"/><path d="M149.80762,92.40466a.8501.8501,0,1,1,0-1.69922l3.76953.01954v-3.75l-2.793.01953a.85959.85959,0,1,1,0-1.71875l2.793.01953V82.15076a.97638.97638,0,0,1,1.93359,0v3.14453h3.55469V82.15076a.97638.97638,0,0,1,1.93359,0v3.14453l2.96875-.01953a.86152.86152,0,0,1,0,1.71875L160.999,86.975v3.75l3.94532-.01954a.8511.8511,0,0,1,0,1.69922Zm.332,5.64453a1.03187,1.03187,0,0,1-1.07422-.99609,1.06591,1.06591,0,0,1,.89844-.97656,11.23556,11.23556,0,0,0,4.49218-2.57813.93686.93686,0,0,1,.64454-.27343,1.0652,1.0652,0,0,1,1.01562,1.03515.951.951,0,0,1-.332.70313C154.6709,95.93982,151.35059,98.04919,150.13965,98.04919ZM159.06543,86.975h-3.55469v3.75h3.55469Zm5.39062,10.99609c-.74218,0-3.86718-1.48438-5.66406-3.06641a.91927.91927,0,0,1-.35156-.72265,1.02348,1.02348,0,0,1,.99609-.97657,1.00426,1.00426,0,0,1,.64453.25391,12.15981,12.15981,0,0,0,4.60938,2.46094,1.04686,1.04686,0,0,1,.87891.99609A1.08891,1.08891,0,0,1,164.45605,97.97107Z"/><path d="M170.80859,96.389a12.56212,12.56212,0,0,1-.50781-3.73047c0-3.4375.9961-6.79688,1.09375-8.14453a.95978.95978,0,0,1,1.91406-.07813.48538.48538,0,0,1-.01953.15625c-.27344,1.42578-1.26953,5.03907-1.26953,6.97266,0,.72266.13672.80078.19531.80078.03907,0,.09766-.03906.13672-.13672.60547-1.15234.74219-1.38672,1.15235-1.38672a.84912.84912,0,0,1,.80078.82032.6026.6026,0,0,1-.09766.35156,10.13661,10.13661,0,0,0-1.46484,3.67187c0,.17578.01953.35157.01953.52735a.91781.91781,0,0,1-.97656,1.01562A1.04378,1.04378,0,0,1,170.80859,96.389Zm10.85938-.11719c-3.37891,0-5.957-2.01172-5.957-2.96875a.979.979,0,0,1,1.01562-.918,1.14855,1.14855,0,0,1,.87891.42969,4.98038,4.98038,0,0,0,3.78906,1.30859,12.0739,12.0739,0,0,0,1.66016-.11718.95045.95045,0,0,1,.23437-.01954.90142.90142,0,0,1,.97656.9375C184.26562,95.93982,183.40625,96.27185,181.668,96.27185Zm-2.207-8.57422a11.02613,11.02613,0,0,1-2.63672-.293.9002.9002,0,0,1,.07812-1.79687.73277.73277,0,0,1,.19532.01953,9.18131,9.18131,0,0,0,1.89453.19531,18.68986,18.68986,0,0,0,2.40234-.19531c.05859,0,.11719-.01953.17578-.01953a.89692.89692,0,0,1,.9375.918C182.50781,87.307,181.96094,87.69763,179.46094,87.69763Z"/><path d="M188.1582,97.20935a.88853.88853,0,0,1-.89843-.85937.93686.93686,0,0,1,.27343-.64454c1.543-1.62109,1.73828-3.94531,1.73828-5.66406,0-.625-.01953-1.1914-.01953-1.60156,0-1.23047.9375-1.62109,1.83594-1.64063.58594,0,1.13281-.01953,1.64063-.01953.74218,0,1.46484.01953,2.30468.03907,1.17188.03906,1.875.44921,1.9336,1.42578.01953.37109.03906.82031.03906,1.28906,0,2.03125-.05859,2.793-1.95313,2.8125-1.03515.01953-2.03125.01953-3.04687.01953H190.7168C190.3457,95.04138,189.19336,97.20935,188.1582,97.20935ZM191.49805,86.057a.70655.70655,0,0,1-.70313-.44922c-1.73828,1.79687-2.32422,1.83594-2.5,1.83594a1.02293,1.02293,0,0,1-1.01562-.9375.90135.90135,0,0,1,.46875-.76172,14.72319,14.72319,0,0,0,3.59375-3.53516,2.07134,2.07134,0,0,1,1.71875-.99609,2.41042,2.41042,0,0,1,1.83593.99609,18.94136,18.94136,0,0,0,3.06641,2.85156.80962.80962,0,0,1,.35156.64453,1.07639,1.07639,0,0,1-1.01562,1.01563c-.3125,0-.56641-.07813-1.79688-1.30859a.68938.68938,0,0,1-.74218.64453Zm2.30468,11.75781c-2.48046,0-3.49609,0-3.49609-1.91406,0-1.32813.01953-2.61719,1.543-2.71485.625-.03906,1.26953-.03906,1.91406-.03906.66406,0,1.32813,0,1.97266.03906a1.57885,1.57885,0,0,1,1.543,1.28907c.01953.27343.03906.5664.03906.8789,0,.97656-.05859,2.30469-1.62109,2.40235C195.05273,97.79529,194.42773,97.81482,193.80273,97.81482Zm-2.91015-7.63672c0,.27344-.01953.56641-.03906.87891.74218,0,1.40625.01953,2.05078.01953s1.26953-.01953,1.85547-.01953a.50235.50235,0,0,0,.54687-.50782c0-.11718.01953-.23437.01953-.37109Zm4.43359-1.19141c0-.13671-.01953-.293-.01953-.39062-.01953-.332-.23437-.46875-.54687-.46875-.58594-.01953-1.11329-.01953-1.64063-.01953-.50781,0-.99609,0-1.543.01953s-.66406.3125-.66406.72266v.13671Zm-.52734-4.33593c-.41016-.46875-.82031-.9375-1.15235-1.34766-.19531-.21484-.35156-.3125-.50781-.3125-.17578,0-.3125.13672-.46875.35156a14.50836,14.50836,0,0,1-.99609,1.3086ZM193.959,94.5531c-.46875,0-.918,0-1.36718.01953-.54688,0-.58594.44922-.58594,1.01563,0,.64453.01953.72265,1.79687.72265,1.543,0,1.77735,0,1.77735-.82031C195.58008,94.63123,195.56055,94.5531,193.959,94.5531Zm4.707-11.34766a.89865.89865,0,0,1,1.79687,0v9.96094a.90048.90048,0,0,1-1.79687,0Zm5.332,12.14844v.03906c0,1.17188-.74219,2.5586-2.98828,2.5586-1.6211,0-2.14844-.35156-2.14844-1.11328a.88812.88812,0,0,1,.80078-.97657.66414.66414,0,0,1,.19531.01954,6.29128,6.29128,0,0,0,1.21094.21484c.52734,0,.97656-.21484.99609-1.05469.01953-.72265.01953-6.15234.01953-9.78515V82.17029a.93835.93835,0,0,1,1.875,0V92.9906Z"/><path d="M217.3623,82.07263a1.10953,1.10953,0,0,1,1.19141,1.11328,1.44788,1.44788,0,0,1-.44922,1.01563c-1.34765,1.36719-3.3789,3.59375-3.92578,4.10156a6.63836,6.63836,0,0,1,3.16406-.76172c2.96875,0,4.82422,2.12891,4.82422,4.082,0,3.86719-5.23437,6.13282-9.27734,6.13282a1.052,1.052,0,0,1-1.13281-1.01563c0-.44922.332-.89844,1.07421-.918,5.25391-.15625,7.30469-2.65625,7.30469-4.21875,0-.70312-.66406-2.48047-3.16406-2.48047a6.73635,6.73635,0,0,0-4.94141,2.32422,21.28257,21.28257,0,0,0-1.34765,1.83594,1.1566,1.1566,0,0,1-.9375.48828,1.05937,1.05937,0,0,1-1.09375-.97656c0-.39063.19531-.66406,1.66015-2.22656,1.23047-1.28907,5.56641-6.40625,5.56641-6.50391h-.01953a.50808.50808,0,0,0-.13672.05859,14.42408,14.42408,0,0,1-3.82813,1.28907,1.05,1.05,0,0,1-1.07421-1.03516.97934.97934,0,0,1,1.05468-.9375,25.33983,25.33983,0,0,0,4.17969-.97656c.625-.23438.64453-.39063,1.28906-.39063Z"/><path d="M227.93359,97.22888a.8811.8811,0,0,1,.56641-.82031c3.59375-1.582,4.76562-3.84766,4.76562-5.97656,0-.54688-.17578-3.37891-1.67968-3.37891a3.1122,3.1122,0,0,0-1.543.60547,4.32913,4.32913,0,0,1-2.05078.87891,1.03836,1.03836,0,1,1-.09766-2.07032,4.24006,4.24006,0,0,0,1.32813-.48828,6.04772,6.04772,0,0,1,2.48046-.625c3.4375,0,3.51563,4.64844,3.51563,5.03906,0,5.23438-5.44922,7.8711-6.25,7.8711A1.05426,1.05426,0,0,1,227.93359,97.22888Zm4.92188-13.49609a8.96089,8.96089,0,0,1-3.78906-.83985.91889.91889,0,0,1-.52735-.80078.87557.87557,0,0,1,.89844-.85937,1.43927,1.43927,0,0,1,.52734.11719,5.40876,5.40876,0,0,0,2.28516.42968c.23438,0,.44922,0,.68359-.01953h.07813a.8968.8968,0,0,1,.99609.87891A1.07423,1.07423,0,0,1,232.85547,83.73279Z"/><path d="M244.07031,97.48279a1.35292,1.35292,0,0,1-1.34765-1.28906,1.41085,1.41085,0,0,1,1.34765-1.34766,1.26049,1.26049,0,0,1,1.34766,1.34766A1.299,1.299,0,0,1,244.07031,97.48279Zm-.83984-4.96094v-.41016c0-1.89453-.19531-6.44531-.3125-9.51171v-.0586a1.0591,1.0591,0,0,1,1.13281-1.07422A1.10484,1.10484,0,0,1,245.22266,82.6c0,2.30468-.3125,7.67578-.3125,9.57031,0,.46875,0,1.28906-.85938,1.28906a.83952.83952,0,0,1-.82031-.918Z"/></svg>