<svg id="レイヤー_1" data-name="レイヤー 1" xmlns="http://www.w3.org/2000/svg" width="496.63696" height="21.52738" viewBox="0 0 496.63696 21.52738"><defs><style>.cls-1{fill:#fff000;}</style></defs><title>about_txt02</title><rect class="cls-1" y="13.36599" width="496.63696" height="8.16139"/><path d="M8.68616,10.48828c-.35157.17578-.64453.3125-.89844.44922-1.60156.82031-2.28516,1.26953-2.85156,1.52344a.98616.98616,0,0,1-.44922.09765,1.02075,1.02075,0,0,1-.9961-1.03515,1.09856,1.09856,0,0,1,.80079-1.01563c.68359-.2539,2.87109-1.17187,4.21875-1.75781-.3125-2.46094-.3711-2.92969-.42969-3.33984,0-.0586-.01953-.11719-.01953-.15625a.91261.91261,0,0,1,.957-.918,1.0577,1.0577,0,0,1,1.03515.957,21.24121,21.24121,0,0,1,.15625,2.22656,4.2462,4.2462,0,0,0,.01954.48828c1.26953-.52734,2.793-1.09375,4.27734-1.543.09766-.58593.15625-1.13281.23437-1.5625.13672-.80078.11719-.72265.27344-1.543a.95841.95841,0,0,1,.97656-.76172.8746.8746,0,0,1,.957.83984,18.92487,18.92487,0,0,1-.42969,1.875c-.0586.21484-.09766.42969-.15625.66406A18.4478,18.4478,0,0,1,19.526,5.60547c.85938,0,1.81641.13672,1.81641,1.09375a.97251.97251,0,0,1-1.05469.957,1.20146,1.20146,0,0,1-.25391-.01953,8.7297,8.7297,0,0,0-1.38672-.09766,14.288,14.288,0,0,0-2.63671.25391c-.46875,2.32422-1.03516,4.62891-2.59766,4.62891-1.05469,0-1.71875-1.28907-1.71875-1.67969a.89083.89083,0,0,1,.80078-.87891.77781.77781,0,0,1,.66406.42969c.07813.13672.15625.19531.23438.19531.21484,0,.52734-.70312.80078-2.24609A34.78594,34.78594,0,0,0,10.36584,9.707c.0586.70313.13672,1.40625.17579,1.95313.17578,2.24609.64453,2.87109,2.51953,2.87109a10.56,10.56,0,0,0,2.77343-.48828,2.15238,2.15238,0,0,1,.35157-.03906.99311.99311,0,0,1,1.03515.97656.96613.96613,0,0,1-.78125.918,10.79319,10.79319,0,0,1-2.92968.39062c-3.84766,0-4.39454-1.75781-4.668-4.375Zm9.98047-6.25a7.21884,7.21884,0,0,0-1.40625-1.48437.7256.7256,0,0,1-.39063-.58594.78305.78305,0,0,1,.82031-.70313c.44922,0,2.42188,1.28907,2.42188,2.1875a.9557.9557,0,0,1-.87891.9375A.62191.62191,0,0,1,18.66663,4.23828Zm2.168-1.5039a7.25376,7.25376,0,0,0-1.46484-1.42579.70083.70083,0,0,1-.39062-.58593A.79824.79824,0,0,1,19.79944,0c.35156,0,2.46094,1.17188,2.46094,2.12891a.95571.95571,0,0,1-.87891.9375A.631.631,0,0,1,20.83459,2.73438Z"/><path d="M36.19153,8.61328c-.01953,0-.01953,0-.01953.01953a.84611.84611,0,0,1,.01953.09766,2.76694,2.76694,0,0,1,.03906.58594c0,2.89062-2.69531,7.63671-7.12891,7.63671-1.8164,0-3.457-.99609-3.457-3.90624,0-3.06641,1.44532-5.66407,3.20313-8.4961.03906-.05859.03906-.07812.03906-.09766s0-.03906-.03906-.03906c-.01953,0-.03906.01953-.07813.01953a7.23743,7.23743,0,0,1-1.5039.19532c-.9961,0-1.3086-.46875-1.3086-.97657a.97769.97769,0,0,1,1.03516-.957.8759.8759,0,0,1,.21484.01953,4.48474,4.48474,0,0,0,.74219.03907,6.56819,6.56819,0,0,0,1.85547-.27344c1.30859-.39063,1.03516-.46875,1.79687-.70313a1.59719,1.59719,0,0,1,.41016-.05859.87159.87159,0,0,1,.89844.89844,1.118,1.118,0,0,1-.76172,1.01562c-1.09375.41016-4.64844,5.21485-4.64844,8.96485,0,1.71875.80078,2.36328,1.83594,2.36328,1.91406,0,5.07812-2.2461,5.07812-6.48438a4.86873,4.86873,0,0,0-.19531-1.48437,10.54561,10.54561,0,0,0-.52734-1.05469,1.45841,1.45841,0,0,1-.17578-.64453.946.946,0,0,1,.957-.957,1.35341,1.35341,0,0,1,1.1914.9375A6.71973,6.71973,0,0,0,39.6095,8.63281,1.12035,1.12035,0,0,1,40.35168,9.668a1.01217,1.01217,0,0,1-1.03515,1.01562c-1.19141,0-2.98828-1.91406-2.98828-1.91406C36.25012,8.67188,36.21106,8.61328,36.19153,8.61328Z"/><path d="M50.76672,16.64062c-4.043,0-6.21093-1.875-6.21093-2.98828a1.05563,1.05563,0,0,1,1.01562-1.05468,1.16868,1.16868,0,0,1,.87891.48828,4.598,4.598,0,0,0,3.71093,1.48437,13.53749,13.53749,0,0,0,3.32032-.48828,1.8932,1.8932,0,0,1,.44922-.05859.97984.97984,0,0,1,1.05468.99609A1.31509,1.31509,0,0,1,53.89172,16.25,12.56653,12.56653,0,0,1,50.76672,16.64062ZM52.1925,6.48438a12.424,12.424,0,0,1-5.293-1.25,1.09782,1.09782,0,0,1-.64454-.9961.8554.8554,0,0,1,.87891-.89844,1.631,1.631,0,0,1,.56641.11719,12.75242,12.75242,0,0,0,4.707,1.01563,1.00158,1.00158,0,0,1,1.01562.99609C53.423,5.97656,53.03235,6.48438,52.1925,6.48438Z"/><path d="M66.20129,16.64062c-4.043,0-6.21093-1.875-6.21093-2.98828A1.05563,1.05563,0,0,1,61.006,12.59766a1.16868,1.16868,0,0,1,.87891.48828,4.598,4.598,0,0,0,3.71094,1.48437,13.53748,13.53748,0,0,0,3.32031-.48828,1.8932,1.8932,0,0,1,.44922-.05859.97984.97984,0,0,1,1.05468.99609A1.31509,1.31509,0,0,1,69.32629,16.25,12.56653,12.56653,0,0,1,66.20129,16.64062ZM67.62708,6.48438a12.42406,12.42406,0,0,1-5.293-1.25,1.09781,1.09781,0,0,1-.64453-.9961.8554.8554,0,0,1,.8789-.89844,1.631,1.631,0,0,1,.56641.11719,12.75247,12.75247,0,0,0,4.707,1.01563,1.00158,1.00158,0,0,1,1.01562.99609C68.85754,5.97656,68.46692,6.48438,67.62708,6.48438Z"/><path d="M85.83459,16.60156h-.19531c-4.23828-.39062-6.91406-3.32031-6.91406-6.32812a5.4979,5.4979,0,0,1,1.40625-3.57422.402.402,0,0,0,.09766-.17578.042.042,0,0,0-.03907-.03906.66005.66005,0,0,0-.19531.07812c-3.06641,1.582-3.4375,1.69922-3.86719,1.69922A1.11174,1.11174,0,0,1,74.93616,7.207a1.11974,1.11974,0,0,1,.89843-1.01562c.41016-.13672,1.52344-.46875,2.10938-.6836.918-.332,2.53906-.83984,4.47266-1.60156a14.911,14.911,0,0,1,5.17578-1.21094c.97656,0,1.32812.44922,1.32812.957,0,.9961-.82031,1.21094-1.5625,1.21094a3.61035,3.61035,0,0,1-.44922-.01953,3.76366,3.76366,0,0,0-.46875-.01953c-3.02734,0-5.99609,2.57812-5.99609,5.19531,0,2.34375,2.22656,4.33594,5.293,4.33594.97656,0,1.44531.56641,1.44531,1.15234C87.18225,16.05469,86.733,16.60156,85.83459,16.60156Zm1.67969-6.85547a7.40315,7.40315,0,0,0-1.66015-1.21093.65541.65541,0,0,1-.48829-.60547.82643.82643,0,0,1,.85938-.76172c.25391,0,2.63672.89844,2.63672,1.91406a.93319.93319,0,0,1-.83985.918A.67469.67469,0,0,1,87.51428,9.74609ZM89.76038,8.125a6.85721,6.85721,0,0,0-1.69922-1.15234.67851.67851,0,0,1-.50782-.60547.84179.84179,0,0,1,.85938-.78125c.3125,0,2.65625.83984,2.65625,1.85547a.90213.90213,0,0,1-.82031.918A.715.715,0,0,1,89.76038,8.125Z"/><path d="M99.70666,16.77734c-3.90625,0-4.0625-2.26562-4.0625-4.19922,0-2.22656.23438-5.05859.23438-7.36328a18.4776,18.4776,0,0,0-.11719-2.22656c0-.05859-.01953-.13672-.01953-.19531a.96246.96246,0,0,1,1.01563-.97656,1.06029,1.06029,0,0,1,1.09375.9375q.05859.64452.05859,1.40625c0,2.40234-.41016,5.46875-.41016,8.08593,0,1.60157.07813,2.57813,2.01172,2.57813a13.42753,13.42753,0,0,0,4.668-1.01563,1.56125,1.56125,0,0,1,.60547-.13671.91793.91793,0,0,1,.957.9375,1.34436,1.34436,0,0,1-.957,1.23046A15.22212,15.22212,0,0,1,99.70666,16.77734Z"/><path d="M113.98938,8.4375a10.72276,10.72276,0,0,1-2.207.37109.85009.85009,0,0,1-.918-.8789.942.942,0,0,1,.97656-.97657,14.61941,14.61941,0,0,0,3.22266-.44921,8.28014,8.28014,0,0,0,.957-2.98829.82721.82721,0,0,1,.87891-.70312.9839.9839,0,0,1,1.05468.89844,6.67863,6.67863,0,0,1-.70312,2.36328h.15625c2.22656,0,2.28515,2.40234,2.28515,3.30078,0,1.73828-.07812,6.62109-3.6914,6.62109-1.11328,0-2.5586-.50781-2.5586-1.44531a.99557.99557,0,0,1,1.42579-.918,2.62273,2.62273,0,0,0,1.09375.293c1.26953,0,1.85546-1.36719,1.85546-4.78516,0-.80078-.11718-1.38671-.74218-1.38671a1.20515,1.20515,0,0,0-.35157.03906c-.07812.01953-.19531.05859-.3125.07812-1.46484,2.75391-3.51562,5.957-4.76562,8.08594a1.15742,1.15742,0,0,1-1.01563.56641.91115.91115,0,0,1-.99609-.83985A1.19419,1.19419,0,0,1,109.86829,15c.85937-1.30859,2.89062-4.16016,4.27734-6.60156Zm10.82031,2.69531a6.20919,6.20919,0,0,0-3.35937-3.10547.70958.70958,0,0,1-.52735-.66406.91155.91155,0,0,1,.9375-.85937c.9961,0,4.82422,2.42187,4.82422,4.21875a1.04086,1.04086,0,0,1-1.03515,1.03515A.91016.91016,0,0,1,124.80969,11.13281Z"/><path d="M131.84631,9.88281c-1.32812,1.07422-1.62109,1.21094-1.91406,1.21094a.971.971,0,0,1-.9375-.97656.88521.88521,0,0,1,.46875-.78125,13.62248,13.62248,0,0,0,4.55078-4.6875.86267.86267,0,0,1,.72266-.44922,1.06235,1.06235,0,0,1,1.03515.99609.94508.94508,0,0,1-.17578.52735,23.32218,23.32218,0,0,1-1.89453,2.36328l-.21484,8.80859a.90823.90823,0,0,1-.97656.87891.83422.83422,0,0,1-.89844-.83985v-.03906Zm-1.67968-3.4375a.91914.91914,0,0,1-.97657-.8789,1.12681,1.12681,0,0,1,.64453-.918,10.725,10.725,0,0,0,3.75-3.78906.912.912,0,0,1,.78125-.48829.98854.98854,0,0,1,.97657.957,1.047,1.047,0,0,1-.19532.58594C133.56506,4.19922,131.14319,6.44531,130.16663,6.44531Zm13.47656,5.9961v1.52343l.03906,1.52344v.03906c0,.9961-.83984,2.14844-2.98828,2.14844-.82031,0-1.89453-.01953-1.89453-.99609a.8619.8619,0,0,1,.85937-.89844.73277.73277,0,0,1,.19532.01953,5.03082,5.03082,0,0,0,1.03515.13672c.625,0,1.07422-.21484,1.07422-.957v-.03906l-.03906-2.5h-6.5625a.74317.74317,0,1,1,0-1.48438h6.5625l-.01953-.70312a.7228.7228,0,0,1,.17578-.46875h-6.13281a.74317.74317,0,1,1,0-1.48438h9.35546a.74219.74219,0,1,1,0,1.48438h-1.83593a.65908.65908,0,0,1,.15625.44922V10.957h2.24609a.74219.74219,0,0,1,0,1.48438Zm-.78125-5.11719c-.64453.03906-1.46485.05859-2.28516.05859-2.55859,0-4.043-.01953-4.12109-1.67969-.01953-.332-.01953-.72265-.01953-1.13281,0-.64453.01953-1.32812.03906-1.89453A1.82137,1.82137,0,0,1,138.38928.957C139.05334.9375,139.83459.918,140.63538.918c.78125,0,1.5625.01953,2.1875.03906a1.92331,1.92331,0,0,1,1.875,1.582c.03906.54688.05859,1.21094.05859,1.83594,0,.44922,0,.89844-.01953,1.28906A1.7286,1.7286,0,0,1,142.86194,7.32422Zm-4.41406,7.91016a4.805,4.805,0,0,0-1.6211-1.13282.58836.58836,0,0,1-.37109-.50781.93243.93243,0,0,1,.918-.82031c.5664,0,2.53906.8789,2.53906,1.73828a1.01452,1.01452,0,0,1-.9375.97656A.68252.68252,0,0,1,138.44788,15.23438ZM142.99866,3.457c0-.11719-.01953-.23437-.01953-.35156-.03907-.74219-.11719-.76172-2.36329-.76172-.66406,0-1.34765.01953-1.79687.03906-.56641.01953-.68359.3711-.70313.74219,0,.09766-.01953.21484-.01953.332Zm-4.90235,1.32813c0,1.1914.01953,1.21093,2.38282,1.21093,2.207,0,2.48046-.01953,2.51953-.68359,0-.15625.01953-.35156.01953-.52734Z"/><path d="M154.35168,17.57812c-.74218,0-1.07421-.42968-1.07421-.8789a.93548.93548,0,0,1,.89843-.918c3.457-.27344,6.26953-2.30469,6.26953-3.86719a1.3713,1.3713,0,0,0-1.5039-1.25c-1.50391,0-4.27735,2.46094-4.57031,2.8125a1.45107,1.45107,0,0,1-1.07422.6836c-.42969,0-1.6211-.42969-1.6211-3.20313a8.53973,8.53973,0,0,1,.35157-2.53906,8.39356,8.39356,0,0,0,.19531-1.64063v-.332c0-1.26953.58594-1.91406,1.93359-2.65625.46875-.2539,1.03516-.48828,1.03516-.72265,0-.15625-.21485-.3125-.74219-.48829a.87993.87993,0,0,1-.72266-.80078.97616.97616,0,0,1,1.05469-.8789c.70313,0,3.14453,1.15234,3.14453,2.5,0,.918-.72265,1.05468-1.69922,1.21094A3.96184,3.96184,0,0,0,155.28918,5c-1.23046.56641-1.44531,1.07422-1.44531,1.67969,0,.09765.01953.21484.01953.332v.21484a5.90457,5.90457,0,0,1-.05859.78125,18.25754,18.25754,0,0,0-.332,2.57813c0,.05859,0,.83984.23437.83984a.44966.44966,0,0,0,.17578-.05859c.39063-.23438,1.13282-.74219,1.99219-1.23047A6.58265,6.58265,0,0,1,159.01965,9.082c1.69922,0,3.37891,1.09375,3.37891,2.85156,0,1.25-.85938,2.75391-2.92969,4.10157A12.707,12.707,0,0,1,154.35168,17.57812Z"/><path d="M167.4425,13.71094c.01954-.03906.13672-.15625.293-.39063.21485-.3125.3711-.60547.56641-.9375a18.76426,18.76426,0,0,1,1.48437-2.10937c.25391-.44922.46875-.87891.64454-1.26953l.05859-.54688a7.47414,7.47414,0,0,0-1.73828.85938,1.239,1.239,0,0,1-.70313.27343.79527.79527,0,0,1-.74218-.85937c0-.64453.15625-.85938,3.39843-2.26563.15625-1.60156.27344-3.00781.27344-3.86718a.8501.8501,0,0,1,.87891-.918.93683.93683,0,0,1,.97656.89843c0,.58594-.23438,2.53907-.35156,3.53516a.79824.79824,0,0,1,.44922.78125c1.44531-1.34765,2.94921-2.5,4.41406-2.5a2.08847,2.08847,0,0,1,2.08984,2.32422,2.751,2.751,0,0,1-.01953.39063c-.13672,1.26953-.70312,3.33984-.918,5.13671a4.37329,4.37329,0,0,0-.05859.66407c0,.60546.21484.85937.918.85937a5.77662,5.77662,0,0,0,2.168-.625,1.43948,1.43948,0,0,1,.52734-.11719.8672.8672,0,0,1,.85937.918A1.124,1.124,0,0,1,182.1886,15a7.20039,7.20039,0,0,1-2.793.60547c-1.50391,0-2.8125-.48828-2.8125-2.46094a4.73082,4.73082,0,0,1,.07812-.87891c.27344-1.77734.80079-3.82812.87891-5.09765V6.95312c0-.64453-.23437-.8789-.58594-.8789-1.03515,0-3.30078,2.14844-4.88281,4.10156-.07812,1.03516-.13672,2.08984-.13672,3.08594a17.06773,17.06773,0,0,0,.19531,2.7539.80086.80086,0,0,1,.01954.21485,1.012,1.012,0,0,1-1.03516,1.01562c-1.03516,0-1.05469-1.15234-1.05469-2.55859,0-.68359.01953-1.42578.07813-2.22656-.42969.70312-.83985,1.52344-1.19141,2.207a1.62567,1.62567,0,0,1-1.36719,1.01562.72392.72392,0,0,1-.78125-.72265,2.03677,2.03677,0,0,1,.58594-1.13282Z"/><path d="M193.05334,4.375a51.17522,51.17522,0,0,1-3.94531,7.48047,1.10017,1.10017,0,0,1-.97656.58594.86468.86468,0,0,1-.918-.83985,1.20445,1.20445,0,0,1,.21484-.66406,43.15765,43.15765,0,0,0,3.457-5.70312,5.98585,5.98585,0,0,1-2.46094.78124c-1.28906,0-1.28906-.8789-1.28906-.957a.88733.88733,0,0,1,.89843-.918,1.459,1.459,0,0,1,.39063.0586.91374.91374,0,0,0,.332.03906,7.88985,7.88985,0,0,0,2.75391-1.01562c.05859-.46875.03906-.918.07812-1.50391a.86452.86452,0,0,1,.918-.85937.88863.88863,0,0,1,.9375.83984v.41016a.83025.83025,0,0,1,.21484-.03907.80059.80059,0,0,1,.78125.80078c0,.66407-.83984,1.17188-1.38672,1.48438Zm-.5664,12.92969c-1.77735,0-3.26172-1.26953-3.26172-2.38281,0-1.28907,1.71875-2.2461,4.23828-2.2461.293,0,.60547.01953.89844.03906-.13672-1.5625-.13672-1.64062-.13672-1.85546,0-1.26954.41016-2.42188,2.69531-3.94532a.34874.34874,0,0,0,.17578-.23437c0-.11719-.17578-.11719-.2539-.11719a7.0648,7.0648,0,0,0-1.25.23438,1.20146,1.20146,0,0,1-.25391.01953.66633.66633,0,0,1-.74219-.64453c0-.50782.56641-1.09376,2.59766-1.09376,1.42578,0,3.14453.82032,3.14453,1.71876a1.0004,1.0004,0,0,1-.99609.8789c-1.5625.13672-3.4961,1.17188-3.4961,3.22266a5.889,5.889,0,0,0,.09766.957c.05859.39062.13672.80078.19531,1.21094,1.21094.37109,3.10547,1.23047,3.10547,2.34375a.96352.96352,0,0,1-.89844,1.01562,1.14633,1.14633,0,0,1-.80078-.39062,6.42891,6.42891,0,0,0-1.48437-1.05469A3.85,3.85,0,0,1,192.48694,17.30469Zm.54687-3.125c-1.15234,0-2.1289.39062-2.1289.74219s.68359.76171,1.44531.76171a1.94749,1.94749,0,0,0,1.99219-1.34765A5.98825,5.98825,0,0,0,193.03381,14.17969Z"/><path d="M210.18762,15.09766A3.6573,3.6573,0,0,1,207.8634,14.082c-1.97265-1.69922-2.53906-4.35547-2.85156-5.87891-.15625-.74218-.37109-1.93359-.37109-2.08984a.95776.95776,0,0,1,.97656-.9375,1.022,1.022,0,0,1,.97656.918c.11719.625.15625,1.28906.27344,1.91406.80078,4.55078,2.63672,4.72657,2.75391,4.72657.19531,0,.37109-.15626.54687-.625s.3125-1.03516.54688-1.66016a.76257.76257,0,0,1,.72265-.54688,1.05942,1.05942,0,0,1,1.03516.97657c0,.05859-.01953.09765-.01953.15625-.11719.64453-.50782,1.91406-.56641,2.51953A1.61661,1.61661,0,0,1,210.18762,15.09766Zm7.5-4.4336A6.88742,6.88742,0,0,0,215.129,6.71875a.779.779,0,0,1-.332-.625.84931.84931,0,0,1,.8789-.80078,1.27348,1.27348,0,0,1,.82032.332c.82031.70312,3.24218,2.85156,3.24218,4.82422a1.067,1.067,0,0,1-1.07422,1.11328A.9693.9693,0,0,1,217.68762,10.66406Z"/><path d="M233.25989,16.95312a.92654.92654,0,0,1-1.83594,0v-.01953l.05859-3.6914c-1.52343.15625-4.14062.35156-5.83984.35156a.80818.80818,0,0,1-.83984-.83984.78325.78325,0,0,1,.80078-.82032h.80078c1.25,0,2.55859-.03906,3.88672-.09765l.05859-.01953A9.327,9.327,0,0,0,227.40051,10a.53941.53941,0,0,1-.39062-.52734.98983.98983,0,0,1,.9375-.918,3.96759,3.96759,0,0,1,1.5625.66406,5.89633,5.89633,0,0,0,.918-1.36719c.01953-.03906.05859-.05859.07812-.09765h-5.46875a.707.707,0,1,1,0-1.40625l6.28906.01953V5.48828l-4.375.01953a.67649.67649,0,0,1-.72265-.68359.66626.66626,0,0,1,.72265-.6836l4.35547.01954V3.32031l-5.46875.01953a.70174.70174,0,0,1-.74218-.72265.69756.69756,0,0,1,.74218-.70313l5.46875.01953V1.03516a.84842.84842,0,0,1,.957-.82032.87721.87721,0,0,1,.97657.82032v.89843l5.52734-.01953a.68546.68546,0,0,1,.72266.72266.68071.68071,0,0,1-.72266.70312l-5.52734-.01953v.83985l4.41406-.01954a.671.671,0,0,1,.70312.6836.66054.66054,0,0,1-.70312.68359l-4.43359-.01953v.87891l6.38671-.01953a.70415.70415,0,1,1,0,1.40625l-7.26562-.01953h-.48828a.67822.67822,0,0,1,.2539.50781c0,.52734-1.25,1.77734-1.28906,1.8164.332.23438.64453.46875.89844.6836l.05859.05859a16.48279,16.48279,0,0,0,2.5586-2.67578.8211.8211,0,0,1,.64453-.3125.96632.96632,0,0,1,.99609.85938.95023.95023,0,0,1-.2539.60546,17.41034,17.41034,0,0,1-2.67579,2.40235c1.15235-.07813,2.28516-.19531,3.35938-.3125a2.59916,2.59916,0,0,0-.37109-.27344.71789.71789,0,0,1-.3711-.58594.79824.79824,0,0,1,.82031-.72265c.6836,0,3.16407,1.89453,3.16407,2.87109a.965.965,0,0,1-.87891.97656.82336.82336,0,0,1-.68359-.41015,8.45574,8.45574,0,0,0-.52735-.72266c-1.26953.19531-2.77343.39062-4.35547.56641l.0586,3.86718Zm-7.75391.3711a.97205.97205,0,0,1-1.01562-.957.81774.81774,0,0,1,.70312-.80078,11.99814,11.99814,0,0,0,3.84766-1.64063.84954.84954,0,0,1,.44922-.13672.92231.92231,0,0,1,.8789.918.8209.8209,0,0,1-.39062.68359A13.14783,13.14783,0,0,1,225.506,17.32422Zm12.51953-.46875a8.62592,8.62592,0,0,0-3.16406-1.64063.68407.68407,0,0,1-.56641-.66406.93513.93513,0,0,1,.957-.89844c.15625,0,4.45312,1.01563,4.45312,2.42188a1.01024,1.01024,0,0,1-1.67969.78125Z"/><path d="M244.984,3.92578a.78329.78329,0,1,1,0-1.5625h3.02734l-.01953-1.07422V1.26953a.94917.94917,0,0,1,1.875,0v.01953l-.01953,1.07422h3.39844a.75205.75205,0,0,1,.80078.78125.752.752,0,0,1-.80078.78125Zm15.11719,2.168a17.29127,17.29127,0,0,1-1.73829,6.93359,9.55242,9.55242,0,0,0,2.85157,2.69532.85711.85711,0,0,1,.46875.76172,1.03449,1.03449,0,0,1-1.03516.99609c-.89844,0-2.30469-1.48438-3.28125-2.91016a8.03012,8.03012,0,0,1-3.84766,3.04688.99.99,0,0,1-.9375-.918,2.7828,2.7828,0,0,1-1.64062.42969c-.66406,0-1.81641-.01953-1.81641-.957a.79529.79529,0,0,1,.74219-.85938.54076.54076,0,0,1,.17578.01953,5.38653,5.38653,0,0,0,.87891.13672c.50781,0,.85937-.23437.85937-1.11328,0,0,0-4.64844-.03906-6.42578,0-.58594-.19531-.60547-2.67578-.60547-2.92969,0-2.92969.01953-2.92969.60547-.01953,1.05469-.03906,3.00781-.03906,4.96093,0,1.42579,0,2.85157.03906,3.92579v.01953a.74724.74724,0,0,1-.80078.76172.79368.79368,0,0,1-.83984-.78125c-.01953-.9961-.01953-2.40235-.01953-3.88672,0-1.99219,0-4.10157.01953-5.3125.01953-1.09375.42968-1.6211,1.71875-1.64063h.52734a4.68875,4.68875,0,0,0-.50781-1.09375.58111.58111,0,0,1-.09766-.293c0-.332.46875-.54687.89844-.54687,1.03516,0,1.38672,1.66015,1.38672,1.77734,0,.03907-.01953.09766-.01953.13672h1.09375c0-.03906.01953-.05859.03906-.09765a4.84228,4.84228,0,0,0,.48828-1.38672.56512.56512,0,0,1,.625-.46875c.46875,0,1.01563.3125,1.01563.76171a6.08819,6.08819,0,0,1-.44922,1.21094h.44922c1.15234.03906,1.67968.52735,1.71875,1.5625v.15625a27.53849,27.53849,0,0,0,1.97265-6.34765.8207.8207,0,0,1,.85938-.6836.8567.8567,0,0,1,.918.80078,17.978,17.978,0,0,1-.82032,3.04688H260.902a.79154.79154,0,1,1,0,1.582Zm-9.17969,3.98437-1.23047-.01953v.82032l.11719.01953a1.15889,1.15889,0,0,1,1.23047.99609c.01953.44922.03906.87891.03906,1.28906,0,1.50391-.19531,1.875-2.28516,1.875-.89844,0-1.91406-.11718-1.97265-1.09375-.01954-.293-.01954-.58593-.01954-.8789,0-.41016,0-.80078.01954-1.19141.01953-.54687.41015-.957,1.25-.99609h.03906v-.83985l-1.13281.01953h-.01954a.63933.63933,0,0,1-.66406-.68359.66139.66139,0,0,1,.66406-.68359h.01954L248.109,8.75V8.24219A.74311.74311,0,0,1,248.90979,7.5a.75367.75367,0,0,1,.80078.74219v.01953L249.691,8.75l1.23047-.03906h.01953a.63081.63081,0,0,1,.625.68359.63081.63081,0,0,1-.625.68359Zm-1.21094,2.832c0-.83985-.01953-.87891-.78125-.87891-.72266,0-.80078.01953-.80078.918,0,.85937.03906.85937.83984.85937C249.691,13.80859,249.71057,13.71094,249.71057,12.91016ZM254.691,8.55469a.98607.98607,0,0,1-.85938.54687.78743.78743,0,0,1-.42968-.11718c.01953,1.42578.01953,3.125.01953,3.63281,0,.3125.01953,1.48437.03906,2.14843a2.80379,2.80379,0,0,1-.15625.9961,8.65457,8.65457,0,0,0,3.125-2.75391,16.02039,16.02039,0,0,1-1.62109-4.6875Zm1.40625-2.46094a12.95476,12.95476,0,0,0,1.25,5.19531,16.27274,16.27274,0,0,0,.99609-5.19531Z"/><path d="M271.78625,4.375a51.17522,51.17522,0,0,1-3.94531,7.48047,1.10017,1.10017,0,0,1-.97656.58594.86468.86468,0,0,1-.918-.83985,1.20445,1.20445,0,0,1,.21484-.66406,43.15765,43.15765,0,0,0,3.457-5.70312,5.98585,5.98585,0,0,1-2.46094.78124c-1.28906,0-1.28906-.8789-1.28906-.957a.88733.88733,0,0,1,.89843-.918,1.459,1.459,0,0,1,.39063.0586.91374.91374,0,0,0,.332.03906,7.88985,7.88985,0,0,0,2.75391-1.01562c.05859-.46875.03906-.918.07812-1.50391a.86452.86452,0,0,1,.918-.85937.88863.88863,0,0,1,.9375.83984v.41016a.83025.83025,0,0,1,.21484-.03907.80059.80059,0,0,1,.78125.80078c0,.66407-.83984,1.17188-1.38672,1.48438Zm-.5664,12.92969c-1.77735,0-3.26172-1.26953-3.26172-2.38281,0-1.28907,1.71875-2.2461,4.23828-2.2461.293,0,.60547.01953.89844.03906-.13672-1.5625-.13672-1.64062-.13672-1.85546,0-1.26954.41016-2.42188,2.69531-3.94532a.34874.34874,0,0,0,.17578-.23437c0-.11719-.17578-.11719-.2539-.11719a7.0648,7.0648,0,0,0-1.25.23438,1.20146,1.20146,0,0,1-.25391.01953.66633.66633,0,0,1-.74219-.64453c0-.50782.56641-1.09376,2.59766-1.09376,1.42578,0,3.14453.82032,3.14453,1.71876a1.0004,1.0004,0,0,1-.99609.8789c-1.5625.13672-3.4961,1.17188-3.4961,3.22266a5.889,5.889,0,0,0,.09766.957c.05859.39062.13672.80078.19531,1.21094,1.21094.37109,3.10547,1.23047,3.10547,2.34375a.96352.96352,0,0,1-.89844,1.01562,1.14633,1.14633,0,0,1-.80078-.39062,6.42891,6.42891,0,0,0-1.48437-1.05469A3.85,3.85,0,0,1,271.21985,17.30469Zm.54687-3.125c-1.15234,0-2.1289.39062-2.1289.74219s.68359.76171,1.44531.76171a1.94749,1.94749,0,0,0,1.99219-1.34765A5.98825,5.98825,0,0,0,271.76672,14.17969Z"/><path d="M294.4093,13.53516v3.3789a.90722.90722,0,0,1-1.79687,0v-3.3789h-1.69922a.78742.78742,0,0,1-.87891-.78125.84609.84609,0,0,1,.87891-.85938h1.69922v-.48828l.05859-3.37891a18.663,18.663,0,0,1-4.12109,5.54688.97476.97476,0,0,1-.70313.293.9197.9197,0,0,1-.78125-.42969l-.05859,3.457a.89554.89554,0,0,1-.957.89844.85973.85973,0,0,1-.918-.87891v-.01953l.19531-9.02344c-1.25,1.6211-1.77734,1.91407-2.207,1.91407a.89344.89344,0,0,1-.918-.85938.94416.94416,0,0,1,.332-.68359,18.008,18.008,0,0,0,4.45313-7.07031.87516.87516,0,0,1,.83984-.625,1.06987,1.06987,0,0,1,1.09375.957,15.16391,15.16391,0,0,1-1.67969,3.53515l-.15625,7.5586a1.11441,1.11441,0,0,1,.25391-.27344A17.70591,17.70591,0,0,0,292.08508,6.25l-3.32031.05859h-.01953a.79507.79507,0,0,1-.87891-.82031.86638.86638,0,0,1,.89844-.8789h3.80859V1.28906a.8503.8503,0,0,1,.918-.83984.87461.87461,0,0,1,.957.83984V4.60938h4.35547a.82939.82939,0,0,1,.85938.85937.798.798,0,0,1-.83985.83984h-.01953L294.89758,6.25a18.805,18.805,0,0,0,5.11719,5.54688.955.955,0,0,1,.41016.78124.97517.97517,0,0,1-.957.97657,1.29765,1.29765,0,0,1-.78125-.3125,20.83762,20.83762,0,0,1-4.33594-5.19531l.05859,3.33984v.50781h1.73828a.82054.82054,0,1,1,0,1.64063Z"/><path d="M302.85217,14.84375a1.11321,1.11321,0,0,1,.17578-.54687,6.48759,6.48759,0,0,0,.72266-2.44141.62234.62234,0,0,1,.60547-.66406.67592.67592,0,0,1,.70312.76171c0,.80079-.48828,3.61329-1.5039,3.61329A.70461.70461,0,0,1,302.85217,14.84375ZM309.1803,9.0625c.332,0,1.71875.05859,1.71875,1.97266,0,3.3789-.46875,6.15234-3.457,6.15234-1.26953,0-1.91407-.21484-1.91407-.99609a.78083.78083,0,0,1,.76172-.83985.876.876,0,0,1,.21485.01953,4.74388,4.74388,0,0,0,1.07422.15625c.74218,0,1.40625-.39062,1.5625-2.48046a.50957.50957,0,0,1-.41016.21484.39117.39117,0,0,1-.39063-.35156,7.38687,7.38687,0,0,0-.64453-1.52344.44523.44523,0,0,1-.05859-.21484c0-.19532.19531-.332.42969-.332.60547,0,1.09375,1.38672,1.13281,1.52344.01953-.41016.01953-.78125.01953-1.03516,0-.76171-.09766-.83984-1.48437-.83984-.66407,0-1.40625.01953-2.01172.01953a1.60022,1.60022,0,0,1-1.79688-1.64062c-.01953-.76172-.01953-1.95313-.01953-3.125s0-2.32422.01953-2.96875A1.72776,1.72776,0,0,1,305.72327.957c.54687-.01953,1.69922-.01953,2.7539-.01953.76172,0,1.48438,0,1.875.01953a.66141.66141,0,0,1,.64453.70313.74341.74341,0,0,1-.74218.76172h-1.81641V3.71094h1.30859a.67548.67548,0,1,1,0,1.34765h-1.30859v1.3086h1.30859a.67548.67548,0,1,1,0,1.34765h-1.30859V9.0625Zm-3.82813,5.05859V14.043c.01953-.293.03907-.625.03907-.9375,0-.58594-.03907-1.13281-.0586-1.36719v-.07812a.45875.45875,0,0,1,.44922-.50782c.27344,0,.66406.01954.66406,2.51954,0,.293-.01953.957-.625.957A.46227.46227,0,0,1,305.35217,14.12109Zm1.582-11.71875c-.37109,0-.68359.01954-.85937.01954-.293.01953-.52734.15624-.54688.625,0,.17578-.01953.41015-.01953.66406h1.42578Zm0,2.65625h-1.42578v1.3086h1.42578Zm0,2.65625h-1.42578c0,.27344.01953.52735.01953.74219a.574.574,0,0,0,.60547.60547h.80078Zm-.01953,5.78125a8.35635,8.35635,0,0,0-.37109-1.83593.85966.85966,0,0,1-.03906-.19532.42548.42548,0,0,1,.44922-.42968.50621.50621,0,0,1,.46875.332,7.23667,7.23667,0,0,1,.50781,2.01172.55548.55548,0,0,1-.54688.58593A.47073.47073,0,0,1,306.91467,13.49609Zm9.35547-7.32421V7.40234c.54688,0,1.09375,0,1.5625.01954A1.62526,1.62526,0,0,1,319.61,8.73047a9.01223,9.01223,0,0,1,.03906,1.07422c0,.3125,0,.64453-.01953.918-.0586.8789-.72266,1.5039-1.89453,1.543-.3125.01954-.6836.01954-1.03516.01954a7.48921,7.48921,0,0,0,3.457,3.418.93193.93193,0,0,1,.54688.82032.95776.95776,0,0,1-.9375.97656c-.85938,0-3.125-1.77734-4.25782-4.21875a6.68659,6.68659,0,0,1-4.72656,4.41406.93924.93924,0,0,1-.87891-.9375.79469.79469,0,0,1,.58594-.78125,5.67423,5.67423,0,0,0,3.69141-3.6914c-2.14844,0-2.94922,0-2.94922-2.36328,0-.39063,0-.78126.01953-1.09376a1.53628,1.53628,0,0,1,1.69922-1.40624c.50781-.01954,1.07422-.01954,1.66016-.01954V6.17188h-1.38672a.63351.63351,0,0,1-.625-.50782l-.64453.64453a.86227.86227,0,0,1-.625.27344.895.895,0,0,1-.87891-.83984.7769.7769,0,0,1,.3125-.60547,15.2451,15.2451,0,0,0,3.00781-3.69141,1.73606,1.73606,0,0,1,1.48438-.89843,2.15651,2.15651,0,0,1,1.60156.82031,25.55239,25.55239,0,0,0,3.457,3.35937.94374.94374,0,0,1,.37109.72266,1.00337,1.00337,0,0,1-.9375.99609c-.39062,0-.5664-.17578-1.44531-1.05469v.03907a.70439.70439,0,0,1-.68359.74219Zm-3.418,3.67187c0,.9375,0,1.09375,1.66016,1.09375a13.94618,13.94618,0,0,0,.09766-2.207C312.89124,8.73047,312.85217,8.73047,312.85217,9.84375ZM317.6178,4.6875c-.74219-.80078-1.44531-1.62109-1.99219-2.28516a.40774.40774,0,0,0-.3125-.15625.26787.26787,0,0,0-.25391.15625,26.25964,26.25964,0,0,1-1.62109,2.28516Zm-1.38672,5.27344c-.01953.3125-.07813.64453-.11719.97656,1.85547,0,1.875-.03906,1.875-1.21094,0-.9375,0-.99609-1.73828-.99609C316.25061,9.33594,316.23108,9.84375,316.23108,9.96094Z"/><path d="M332.03723,11.64062a10.425,10.425,0,0,1-.03906,1.07422,1.16137,1.16137,0,0,1-1.05469,1.19141.81537.81537,0,0,1-.80078-.918V12.8125a10.62874,10.62874,0,0,0,.07813-1.30859c-.41016.21484-2.22657,1.17187-2.22657,2.40234,0,.332.15625,1.48437,2.14844,1.48437a9.07125,9.07125,0,0,0,2.46094-.41015,1.57857,1.57857,0,0,1,.48828-.07813.94277.94277,0,0,1,1.01562.918c0,.41016-.15625,1.40625-3.49609,1.40625-3.20312,0-4.375-1.67968-4.375-3.10547,0-2.38281,2.77344-3.86718,3.78906-4.39453-.23437-.76172-.625-1.15234-1.15234-1.15234a1.92561,1.92561,0,0,0-1.01563.35156c-.82031.918-1.30859,1.19141-1.73828,1.19141a.77979.77979,0,0,1-.83984-.74219,1.06549,1.06549,0,0,1,.44922-.80078,10.19267,10.19267,0,0,0,2.5-2.96875,5.72694,5.72694,0,0,1-.957.07812c-1.97266,0-1.99219-1.09375-1.99219-1.25a.83017.83017,0,0,1,.80078-.85937,1.24263,1.24263,0,0,1,.70313.2539,1.32367,1.32367,0,0,0,.72265.15626,7.54627,7.54627,0,0,0,1.543-.21485,7.51825,7.51825,0,0,0,.35156-1.543.76742.76742,0,0,1,.82032-.68359.99649.99649,0,0,1,1.05468.85937,3.7256,3.7256,0,0,1-.11718.72266c.58593-.293.66406-.3125.80078-.3125a.85034.85034,0,0,1,.83984.85938c0,.64453-.50781,1.03515-2.53906,1.52343a21.00965,21.00965,0,0,1-1.11328,1.95313,2.611,2.611,0,0,1,2.46093,1.83594,22.68675,22.68675,0,0,1,4.51172-1.582A1.03956,1.03956,0,0,1,337.213,8.418a.807.807,0,0,1-.52734.76172c-.60547.2539-1.25.332-2.26563.64453-.82031.2539-1.66015.5664-2.42187.8789A7.22042,7.22042,0,0,1,332.03723,11.64062Z"/><path d="M357.14026,12.36328l-5.70313-.11719a22.191,22.191,0,0,0,6.19141,3.1836.80192.80192,0,0,1,.60547.76172,1.15335,1.15335,0,0,1-1.15235,1.05468c-.70312,0-4.0039-1.69921-6.5039-3.80859l.03906,3.63281v.01953a.82532.82532,0,0,1-.918.74219c-.46875,0-.918-.25391-.918-.74219v-.01953l.03907-3.59375c-2.26563,2.01172-5.9375,3.90625-6.6211,3.90625a.93813.93813,0,0,1-.97656-.8789.877.877,0,0,1,.64453-.78125,19.56252,19.56252,0,0,0,6.01563-3.47657l-5.52735.11719h-.01953a.82042.82042,0,1,1,.01953-1.64062h6.44531l-.01953-.54688a.82684.82684,0,0,1,.918-.85937.83652.83652,0,0,1,.918.82031v.58594h6.52344a.82042.82042,0,1,1,.01953,1.64062ZM342.21838,9.35547A.90345.90345,0,0,1,341.32,8.418a.83561.83561,0,0,1,.60546-.80078,9.37369,9.37369,0,0,0,2.832-1.25.7399.7399,0,0,1,1.13281.72265.85461.85461,0,0,1-.3711.70313A9.5101,9.5101,0,0,1,342.21838,9.35547Zm2.05078-4.57031a11.68168,11.68168,0,0,0-1.97265-1.38672.67077.67077,0,0,1-.41016-.60547.9749.9749,0,0,1,.9375-.918c.82031,0,2.59766,1.42578,2.59766,1.42578a.999.999,0,0,1,.332.74219.95574.95574,0,0,1-.87891.99609A.91181.91181,0,0,1,344.26916,4.78516Zm8.75-.97657c.01954.70313.0586,1.64063.0586,2.5,0,.50782-.01953.97657-.03906,1.34766a1.57377,1.57377,0,0,1-1.5625,1.5625c-.42969.03906-1.32813.07813-2.12891.07813-1.40625,0-2.87109-.01954-2.92969-1.543-.01953-.48829-.01953-1.23047-.01953-1.95313,0-.74219,0-1.46484.01953-1.93359a1.48535,1.48535,0,0,1,1.5625-1.46485c.15625,0,.3711-.01953.625-.01953.09766-.37109.19531-.85937.25391-1.23047a.88181.88181,0,0,1,.918-.74218.92134.92134,0,0,1,.99609.82031,4.33957,4.33957,0,0,1-.3125,1.13281C351.4176,2.36328,352.9801,2.36328,353.01916,3.80859Zm-1.582,1.26953c0-.35156-.01953-.68359-.01953-.9375-.01953-.44921-.03906-.50781-1.66015-.50781-.48829,0-.97657,0-1.17188.01953-.60547.03907-.60547.3125-.60547,1.42578Zm-3.457,1.34766c0,.42969,0,.78125.01953,1.01563.03907.52734.48828.52734,1.75782.52734.48828,0,.957,0,1.15234-.01953.52734-.03906.52734-.39063.52734-1.52344Zm6.34766-1.25a.897.897,0,0,1-.85938-.8789.65169.65169,0,0,1,.41016-.60547A9.19461,9.19461,0,0,0,356.027,2.1875a.90072.90072,0,0,1,1.5625.68359.94373.94373,0,0,1-.3711.72266S355.05041,5.17578,354.32776,5.17578Zm1.97265,3.76953a8.14421,8.14421,0,0,0-2.1289-1.36719.737.737,0,0,1-.54688-.68359.87393.87393,0,0,1,.918-.80078,7.42687,7.42687,0,0,1,2.8711,1.30859,1.11074,1.11074,0,0,1,.44921.85938.93467.93467,0,0,1-.89843.957A1.05544,1.05544,0,0,1,356.30041,8.94531Z"/><path d="M367.5553,16.77734c-3.90625,0-4.0625-2.26562-4.0625-4.19922,0-2.22656.23437-5.05859.23437-7.36328A18.47985,18.47985,0,0,0,363.61,2.98828c0-.05859-.01954-.13672-.01954-.19531a.96246.96246,0,0,1,1.01563-.97656,1.06029,1.06029,0,0,1,1.09375.9375q.05859.64452.05859,1.40625c0,2.40234-.41015,5.46875-.41015,8.08593,0,1.60157.07812,2.57813,2.01172,2.57813a13.42752,13.42752,0,0,0,4.668-1.01563,1.56125,1.56125,0,0,1,.60547-.13671.91793.91793,0,0,1,.957.9375,1.34435,1.34435,0,0,1-.957,1.23046A15.222,15.222,0,0,1,367.5553,16.77734Z"/><path d="M385.97864,16.32812c-.97656,0-2.65625-.293-2.65625-2.07031a3.74474,3.74474,0,0,1,.15625-.97656,5.67356,5.67356,0,0,0,.332-1.52344c0-.44922-.15625-.60547-.42969-.60547a4.94723,4.94723,0,0,0-3.418,3.53516c-.48828,1.50391-.99609,1.64062-1.52343,1.64062a.89169.89169,0,0,1-.957-.8789,1.68153,1.68153,0,0,1,.17579-.66406A64.30653,64.30653,0,0,1,380.92,9.00391c1.09375-1.73829,1.97266-3.39844,2.85157-4.90235.3125-.54687.80078-1.25.99609-1.62109a.917.917,0,0,1,.83984-.52735,1.114,1.114,0,0,1,1.11329,1.05469c0,.39063-.19532.78125-1.05469,1.83594a28.8999,28.8999,0,0,0-2.168,2.98828c-.58594.918-1.05469,1.73828-1.48438,2.36328-.03906.0586-.05859.07813-.05859.09766h.01953a.70511.70511,0,0,1,.09766-.07813,3.06721,3.06721,0,0,1,1.75781-.52734c.918,0,1.79688.42969,1.79688,1.97266v.19531a7.55485,7.55485,0,0,1-.3711,1.52344,1.53213,1.53213,0,0,0-.03906.27343c0,.54688.42969.80078,1.05469.80078,1.89453,0,4.19922-2.07031,4.82422-4.707a1.02716,1.02716,0,0,1,1.03515-.8789,1.05011,1.05011,0,0,1,1.09375,1.01562,1.32727,1.32727,0,0,1-.05859.3711C391.3302,15.58594,387.52161,16.32812,385.97864,16.32812Z"/><path d="M407.79993,16.60156h-.19532c-4.23828-.39062-6.91406-3.32031-6.91406-6.32812a5.4979,5.4979,0,0,1,1.40625-3.57422.40188.40188,0,0,0,.09766-.17578.042.042,0,0,0-.03906-.03906.66.66,0,0,0-.19532.07812c-3.0664,1.582-3.4375,1.69922-3.86718,1.69922A1.11174,1.11174,0,0,1,396.90149,7.207a1.11975,1.11975,0,0,1,.89844-1.01562c.41015-.13672,1.52343-.46875,2.10937-.6836.918-.332,2.53906-.83984,4.47266-1.60156a14.911,14.911,0,0,1,5.17578-1.21094c.97656,0,1.32812.44922,1.32812.957,0,.9961-.82031,1.21094-1.5625,1.21094a3.61028,3.61028,0,0,1-.44921-.01953,3.76366,3.76366,0,0,0-.46875-.01953c-3.02735,0-5.9961,2.57812-5.9961,5.19531,0,2.34375,2.22656,4.33594,5.293,4.33594.97656,0,1.44531.56641,1.44531,1.15234C409.14758,16.05469,408.69836,16.60156,407.79993,16.60156Zm1.67968-6.85547a7.40292,7.40292,0,0,0-1.66015-1.21093.65541.65541,0,0,1-.48828-.60547.82642.82642,0,0,1,.85937-.76172c.25391,0,2.63672.89844,2.63672,1.91406a.93319.93319,0,0,1-.83984.918A.67471.67471,0,0,1,409.47961,9.74609Zm2.2461-1.62109a6.857,6.857,0,0,0-1.69922-1.15234.67851.67851,0,0,1-.50781-.60547.84178.84178,0,0,1,.85937-.78125c.3125,0,2.65625.83984,2.65625,1.85547a.90212.90212,0,0,1-.82031.918A.715.715,0,0,1,411.72571,8.125Z"/><path d="M422.8634,17.51953a.97842.97842,0,0,1-.918-.64453,27.49048,27.49048,0,0,0-3.92578-6.15234,3.50351,3.50351,0,0,1-.918-2.05078,2.976,2.976,0,0,1,.76172-1.81641,46.73012,46.73012,0,0,0,3.65235-5.13672.92477.92477,0,0,1,.82031-.50781,1.2519,1.2519,0,0,1,1.23047,1.15234,1.06662,1.06662,0,0,1-.17578.56641c-.78125,1.25-2.96875,3.6914-4.00391,4.9414a1.11641,1.11641,0,0,0-.3125.72266,1.68417,1.68417,0,0,0,.46875.99609c1.99219,2.57813,3.53516,4.043,4.43359,6.26954a1.54791,1.54791,0,0,1,.09766.48828A1.2213,1.2213,0,0,1,422.8634,17.51953Z"/><path d="M436.01282,5.72266a92.75923,92.75923,0,0,1-4.53125,10.2539.99612.99612,0,0,1-.9375.54688.92939.92939,0,0,1-1.01563-.83985,1.06813,1.06813,0,0,1,.15625-.54687A60.43761,60.43761,0,0,0,433.923,6.30859l-.21484.0586a6.03038,6.03038,0,0,1-1.66016.2539c-.19531,0-1.71875,0-1.71875-1.05468a.92444.92444,0,0,1,.85938-.9961,1.19951,1.19951,0,0,1,.58594.15625,1.08124,1.08124,0,0,0,.50781.11719,8.71124,8.71124,0,0,0,2.28515-.54687,7.37826,7.37826,0,0,0,.13672-1.5625.97947.97947,0,0,1,1.07422-.918.83008.83008,0,0,1,.918.70312,1.7872,1.7872,0,0,1,.01953.332,2.49058,2.49058,0,0,1-.01953.3711.98921.98921,0,0,1,.25391-.03907.92574.92574,0,0,1,.918.89844c0,.50781-.35157.85938-1.79688,1.50391Zm5.957,10.99609c-3.20313,0-5.3125-1.69922-5.3125-2.69531a1.02922,1.02922,0,0,1,.957-1.03516.94661.94661,0,0,1,.76172.42969c.74219.99609,1.36719,1.13281,3.92578,1.30859a.9673.9673,0,0,1,.99609.97656C443.298,16.71875,442.28235,16.71875,441.96985,16.71875ZM443.10266,9.375a10.99,10.99,0,0,0-3.457-.89844,2.38315,2.38315,0,0,0-.66406.07813,1.00788,1.00788,0,0,1-.21485.03906.7673.7673,0,0,1-.74218-.80078c0-.3125.09765-1.03516,1.83593-1.03516a11.09531,11.09531,0,0,1,3.96485.87891.90584.90584,0,0,1,.625.85937.954.954,0,0,1-.9375.957A1.02007,1.02007,0,0,1,443.10266,9.375Zm-.44922-4.43359a6.71987,6.71987,0,0,0-1.582-1.15235.616.616,0,0,1-.44922-.58594.79862.79862,0,0,1,.82031-.72265c.27344,0,2.48047.87891,2.48047,1.83594a.89.89,0,0,1-.78125.8789A.61086.61086,0,0,1,442.65344,4.94141Zm1.75781-1.75782a7.03742,7.03742,0,0,0-1.60156-1.09375.65281.65281,0,0,1-.48828-.58593.78487.78487,0,0,1,.82031-.72266c.42969,0,2.51953.85937,2.51953,1.75781a.85568.85568,0,0,1-.78125.85938A.61577.61577,0,0,1,444.41125,3.18359Z"/><path d="M455.23694,5.23438a6.4652,6.4652,0,0,1-.957-2.207.83538.83538,0,0,1,.89843-.83984,1.19125,1.19125,0,0,1,1.13282.9375,9.66064,9.66064,0,0,0,.70312,1.66016c.293-.09766.58594-.19532.87891-.3125a1.63067,1.63067,0,0,1,.5664-.11719.88755.88755,0,0,1,.918.89844c0,.74218-.52734.89843-1.48437,1.17187,1.69922,3.02734,2.67578,4.82422,2.67578,6.05469,0,.78125-.39063,1.09375-.85938,1.09375a1.57716,1.57716,0,0,1-1.01562-.41016c-.72266-.60547-3.125-1.05468-4.51172-1.05468-1.5625,0-2.34375.76171-2.34375,1.30859,0,.85937,1.67969,1.44531,3.418,1.44531.3125,0,.625-.01953.9375-.03906h.17578c.76172,0,1.13281.44922,1.13281.9375A1.1678,1.1678,0,0,1,456.233,16.875c-3.98437,0-6.32812-1.543-6.32812-3.30078,0-.957,1.03515-3.10547,4.43359-3.10547a24.81188,24.81188,0,0,1,3.61328.42969c.07813,0,.13672.01953.17578.01953s.0586-.01953.0586-.03906c0-.03907-.03907-.78125-2.01172-4.043a13.3154,13.3154,0,0,1-2.168.3125c-2.26563,0-4.16016-1.9336-4.16016-2.73438a.87954.87954,0,0,1,.9375-.82031,1.19385,1.19385,0,0,1,.918.42969,3.35976,3.35976,0,0,0,2.51953,1.34765,2.127,2.127,0,0,0,.3711-.01953Z"/><path d="M471.00354,15.09766a3.6573,3.6573,0,0,1-2.32422-1.01563c-1.97266-1.69922-2.53906-4.35547-2.85156-5.87891-.15625-.74218-.3711-1.93359-.3711-2.08984a.95777.95777,0,0,1,.97657-.9375,1.022,1.022,0,0,1,.97656.918c.11719.625.15625,1.28906.27344,1.91406.80078,4.55078,2.63672,4.72657,2.7539,4.72657.19532,0,.3711-.15626.54688-.625s.3125-1.03516.54687-1.66016a.76258.76258,0,0,1,.72266-.54688,1.05942,1.05942,0,0,1,1.03516.97657c0,.05859-.01954.09765-.01954.15625-.11718.64453-.50781,1.91406-.5664,2.51953A1.61661,1.61661,0,0,1,471.00354,15.09766Zm7.5-4.4336A6.88742,6.88742,0,0,0,475.945,6.71875a.779.779,0,0,1-.332-.625.84932.84932,0,0,1,.87891-.80078,1.27343,1.27343,0,0,1,.82031.332c.82032.70312,3.24219,2.85156,3.24219,4.82422a1.067,1.067,0,0,1-1.07422,1.11328A.96929.96929,0,0,1,478.50354,10.66406Z"/><path d="M486.59485,17.8125a2.22656,2.22656,0,1,1,2.22656-2.22656A2.22557,2.22557,0,0,1,486.59485,17.8125Zm0-3.69141a1.46719,1.46719,0,0,0-1.48438,1.46485,1.48438,1.48438,0,0,0,2.96875,0A1.46718,1.46718,0,0,0,486.59485,14.12109Z"/></svg>