<svg id="レイヤー_1" data-name="レイヤー 1" xmlns="http://www.w3.org/2000/svg" width="455.49707" height="44.55811" viewBox="0 0 455.49707 44.55811"><title>about_txt01</title><path d="M25.5332,5.05859a6.46541,6.46541,0,0,1-.957-2.207.83538.83538,0,0,1,.89844-.83984,1.19124,1.19124,0,0,1,1.13281.9375,9.66159,9.66159,0,0,0,.70313,1.66016c.293-.09766.58593-.19532.8789-.3125a1.63077,1.63077,0,0,1,.56641-.11719.88755.88755,0,0,1,.918.89843c0,.74219-.52735.89844-1.48438,1.17188,1.69922,3.02734,2.67578,4.82422,2.67578,6.05469,0,.78125-.39062,1.09375-.85937,1.09375a1.57718,1.57718,0,0,1-1.01563-.41016c-.72265-.60547-3.125-1.05469-4.51171-1.05469-1.5625,0-2.34375.76172-2.34375,1.3086,0,.85937,1.67968,1.44531,3.418,1.44531.3125,0,.625-.01953.9375-.03906H26.666c.76171,0,1.13281.44922,1.13281.9375a1.1678,1.1678,0,0,1-1.26953,1.11328c-3.98438,0-6.32813-1.543-6.32813-3.30078,0-.957,1.03516-3.10547,4.4336-3.10547a24.81222,24.81222,0,0,1,3.61328.42969c.07812,0,.13672.01953.17578.01953s.05859-.01953.05859-.03907c0-.03906-.03906-.78124-2.01172-4.043a13.31668,13.31668,0,0,1-2.168.3125c-2.26562,0-4.16015-1.9336-4.16015-2.73438a.87954.87954,0,0,1,.9375-.82031,1.19385,1.19385,0,0,1,.918.42969,3.35973,3.35973,0,0,0,2.51953,1.34765,2.12686,2.12686,0,0,0,.37109-.01953Z"/><path d="M37.647,16.5625a1.03488,1.03488,0,0,1-.957-.83984,14.27992,14.27992,0,0,1-.58594-4.25782,21.65287,21.65287,0,0,1,.13672-2.53906c.23438-2.1875.6836-4.12109.82032-5.332a.8949.8949,0,0,1,.89843-.918.995.995,0,0,1,1.01563.957c0,.03907-.01953.09766-.01953.15625-.13672.83985-.48828,2.207-.76172,3.63282a19.05426,19.05426,0,0,0-.42969,3.35937c0,.72266.11719.87891.15625.87891.05859,0,.15625-.11719.27344-.35157.54687-1.1914.85937-1.40625,1.17187-1.40625a.85219.85219,0,0,1,.82032.82032.80789.80789,0,0,1-.09766.37109,11.97094,11.97094,0,0,0-1.543,3.84766c0,.23437.05859.46875.05859.70312A.951.951,0,0,1,37.647,16.5625ZM47.95947,2.85156c-.05859.56641-.11718,1.17188-.13672,1.81641q.49806-.08789,1.05469-.17578a1.20146,1.20146,0,0,1,.25391-.01953.892.892,0,0,1,.99609.83984c0,.41016-.332.83984-1.05469.9375-.44921.05859-.8789.11719-1.26953.17578.01953,1.44531.07813,2.8711.17578,3.90625a20.22343,20.22343,0,0,1,.15625,2.168v.21484a7.75992,7.75992,0,0,1,2.2461,1.36719,1.09487,1.09487,0,0,1,.37109.80078,1.04422,1.04422,0,0,1-.99609,1.09375.94.94,0,0,1-.70313-.35156A6.6266,6.6266,0,0,0,47.647,14.49219a4.51818,4.51818,0,0,1-3.65234,2.03125c-1.60156,0-3.02734-1.17188-3.02734-2.44141,0-1.48437,1.8164-2.08984,3.61328-2.08984a9.74182,9.74182,0,0,1,1.8164.19531,4.93843,4.93843,0,0,0,.01953-.54688c0-.332-.01953-.68359-.05859-1.09374-.07812-.83985-.17578-2.28516-.23437-3.8086a7.20874,7.20874,0,0,0-3.51563,1.42578.92924.92924,0,0,1-.625.27344A.94377.94377,0,0,1,41.08447,7.5c0-.42969.27344-1.42578,5-2.48047,0-.82031.01953-1.60156.0586-2.22656a.83379.83379,0,0,1,.89843-.80078,1.01609,1.01609,0,0,1,.74219.293.75314.75314,0,0,1,.76172-.70313c.3125,0,2.36328.85938,2.36328,1.73828a.81224.81224,0,0,1-.72265.82031.61044.61044,0,0,1-.46875-.23437A6.00477,6.00477,0,0,0,48.21338,2.832a.80266.80266,0,0,1-.25391-.15625Zm-3.6914,10.64453c-1.52344,0-1.60157.48829-1.60157.66407,0,.23437.25391.72265,1.11329.72265a2.85887,2.85887,0,0,0,2.168-1.13281A6.3724,6.3724,0,0,0,44.26807,13.49609ZM51.35791,2.28516A6.35235,6.35235,0,0,0,49.83447,1.25a.61185.61185,0,0,1-.44922-.56641A.72462.72462,0,0,1,50.147,0c.13672,0,2.40235.68359,2.40235,1.67969A.8284.8284,0,0,1,51.80713,2.5.57848.57848,0,0,1,51.35791,2.28516Z"/><path d="M62.26221,13.55469a1.42163,1.42163,0,0,0,1.46484,1.28906,9.21055,9.21055,0,0,0,3.26172-.72266,1.33946,1.33946,0,0,1,.625-.15625.92967.92967,0,0,1,.957.9375c0,1.42578-2.92969,1.75782-4.31641,1.75782-2.53906,0-3.51562-1.19141-3.67187-2.46094-.09766-.76172-.293-1.07422-.58594-1.07422-.625,0-1.64062,1.52344-2.7539,2.71484a1.53605,1.53605,0,0,1-1.21094.64454c-.9375,0-1.19141-.52735-1.19141-.83985a1.13331,1.13331,0,0,1,.46875-.80078A67.13373,67.13373,0,0,0,63.02393,7.5a.59057.59057,0,0,0,.11718-.17578.01913.01913,0,0,0-.01953-.01953,2.30608,2.30608,0,0,0-.2539.11719c-.9375.42968-3.65235,1.62109-4.86329,1.62109a.8968.8968,0,0,1-.99609-.87891.94127.94127,0,0,1,.87891-.918A40.43354,40.43354,0,0,0,62.90674,5.918c.50781-.15625.50781-.21485,1.01562-.41016a1.66233,1.66233,0,0,1,.50782-.09765,1.256,1.256,0,0,1,1.26953,1.21093,1.31459,1.31459,0,0,1-.39063.89844c-.918.957-3.33984,3.37891-4.375,4.25781C61.83252,11.81641,62.106,12.85156,62.26221,13.55469ZM63.5708,4.41406c-1.17187,0-3.71094-1.543-3.71094-2.40234A.83747.83747,0,0,1,60.7583,1.25a1.28218,1.28218,0,0,1,.83984.332,3.598,3.598,0,0,0,2.2461.97656c.58594.0586.83984.41016.83984.80079A1.07243,1.07243,0,0,1,63.5708,4.41406Z"/><path d="M78.92725,12.91016c0,1.38672.66406,2.207,1.60156,2.207.11719,0,2.1289-.21485,2.1289-1.97266,0-.99609-.68359-2.32422-2.57812-3.84765a1.23514,1.23514,0,0,1-.52734-.87891.86578.86578,0,0,1,.9375-.80078,1.35336,1.35336,0,0,1,.82031.3125c2.32422,1.93359,3.28125,3.76953,3.28125,5.293,0,2.30468-2.28516,3.75-4.14063,3.75-1.77734,0-3.26172-1.3086-3.26172-3.98438v-.03906c0-.48828,0-.9961.01954-1.48438-1.543-.42968-2.89063-.83984-2.89063-2.26562A3.297,3.297,0,0,1,75.021,7.34375a.93687.93687,0,0,0,.19531-.54687c0-.46876-.70313-1.05469-1.85547-1.48438a.89873.89873,0,0,1-.68359-.78125.86765.86765,0,0,1,.9375-.80078c.625,0,3.418,1.21094,3.418,2.87109a2.49739,2.49739,0,0,1-.72265,1.543,1.26579,1.26579,0,0,0-.3711.76172c0,.293.25391.42969.54688.50781.25391.0586.52734.11719.80078.19532.19531-4.14063.19531-4.86329.19531-5.3711,0-.80078-.01953-1.34766-.01953-2.07031a.8748.8748,0,0,1,.918-.9375c1.01563,0,1.03516.918,1.03516,1.40625,0,.70312-.09766,1.36719-.13672,2.26562-.07813,1.77735-.21485,3.4961-.293,5.21485,1.13281.42969,1.64062.78125,1.64062,1.36719A.99184.99184,0,0,1,79.7085,12.5a1.26265,1.26265,0,0,1-.78125-.332Z"/><path d="M101.33447,8.98438c0-2.168-1.69922-4.02344-4.53125-4.02344h-.03906a.88285.88285,0,0,1,.54688.82031v.09766c0,2.05078-2.01172,5.60547-4.16016,7.71484a2.11855,2.11855,0,0,1-1.46484.66406c-1.38672,0-2.63672-1.5625-2.63672-3.6914,0-3.53516,3.47656-7.12891,7.87109-7.12891,3.94531,0,6.40625,2.61719,6.40625,5.66406a5.98672,5.98672,0,0,1-.42969,2.207C101.17822,15.64453,95.86572,16.25,95.59229,16.25a1.02708,1.02708,0,0,1-1.11329-.957c0-.42969.332-.83985,1.07422-.97656C99.10791,13.73047,101.33447,11.543,101.33447,8.98438ZM95.68994,5.05859c-2.4414.48829-4.88281,3.08594-4.88281,5.41016,0,1.46484.97656,1.64063,1.03516,1.64063a.51732.51732,0,0,0,.37109-.15626c.58594-.52734,3.02734-3.418,3.10547-6.05468A1.01017,1.01017,0,0,1,95.68994,5.05859Z"/><path d="M112.72607,15.85938a1.09335,1.09335,0,0,1-1.17187-1.05469,1.00789,1.00789,0,0,1,.97656-.957c3.69141-.52735,7.98828-2.48047,7.98828-5.09766a2.66419,2.66419,0,0,0-2.85156-2.46094,7.65441,7.65441,0,0,0-2.46094.52735c-1.85547.64453-4.19922,2.05078-6.1914,2.96875a1.41275,1.41275,0,0,1-.64453.15625,1.05565,1.05565,0,0,1-1.09375-1.03516,1.08609,1.08609,0,0,1,.76171-.99609c1.875-.74219,4.96094-2.32422,6.91407-2.8711a10.9449,10.9449,0,0,1,2.94922-.48828,4.497,4.497,0,0,1,4.76562,4.29688c0,1.44531-.87891,2.832-2.59766,4.17968A18.20639,18.20639,0,0,1,112.72607,15.85938Zm8.30079-11.36719a6.72013,6.72013,0,0,0-1.582-1.15235.616.616,0,0,1-.44921-.58593.79862.79862,0,0,1,.82031-.72266c.27344,0,2.48047.87891,2.48047,1.83594a.89.89,0,0,1-.78125.8789A.61085.61085,0,0,1,121.02686,4.49219Zm1.77734-1.71875a7.03786,7.03786,0,0,0-1.60156-1.09375.6528.6528,0,0,1-.48828-.58594.78488.78488,0,0,1,.82031-.72266c.42969,0,2.51953.85938,2.51953,1.75782a.85568.85568,0,0,1-.78125.85937A.61576.61576,0,0,1,122.8042,2.77344Z"/><path d="M134.02,17.34375a.97841.97841,0,0,1-.918-.64453,27.49083,27.49083,0,0,0-3.92578-6.15234,3.50347,3.50347,0,0,1-.918-2.05079,2.976,2.976,0,0,1,.76172-1.8164A46.731,46.731,0,0,0,132.67236,1.543a.92479.92479,0,0,1,.82032-.50781,1.25189,1.25189,0,0,1,1.23046,1.15234,1.06656,1.06656,0,0,1-.17578.56641c-.78125,1.25-2.96875,3.6914-4.0039,4.9414a1.11634,1.11634,0,0,0-.3125.72266,1.68417,1.68417,0,0,0,.46875.99609c1.99218,2.57813,3.53515,4.043,4.43359,6.26953a1.54825,1.54825,0,0,1,.09766.48829A1.2213,1.2213,0,0,1,134.02,17.34375Z"/><path d="M142.73486,17.46094a.96735.96735,0,0,1-.99609-.957,1.03976,1.03976,0,0,1,.72266-.9375c4.0039-1.64063,5.11718-4.55079,5.11718-7.32422a12.86717,12.86717,0,0,0-.332-2.793c-.19531-.918-.625-1.28906-1.09375-1.28906a2.08657,2.08657,0,0,0-1.44531.9375,6.71241,6.71241,0,0,0-1.07422,4.16015c-.03906,1.05469-.54687,1.52344-1.03516,1.52344-.97656,0-.97656-1.28906-.97656-1.5625a16.77663,16.77663,0,0,1,.78125-4.19922c.293-.99609.78125-2.42187,1.01563-3.61328a.79134.79134,0,0,1,.82031-.68359,1.09346,1.09346,0,0,1,1.11328,1.01562c0,.0586-.01953.11719-.01953.17578a3.38843,3.38843,0,0,1-.60547,1.36719c-.13672.21484-.15625.293-.13672.293.03906,0,.15625-.11719.293-.25391a2.5874,2.5874,0,0,1,1.75781-.83984c2.34375,0,2.92969,3.90625,2.92969,5.9375,0,3.26172-1.42578,6.81641-6.23047,8.90625A1.42564,1.42564,0,0,1,142.73486,17.46094Z"/><path d="M158.16943,16.71875a.85749.85749,0,0,1-.957.80078.83856.83856,0,0,1-.9375-.80078v-.01953c.03906-2.46094.07813-6.38672.07813-9.90234h-1.34766a.86023.86023,0,1,1,0-1.71876H156.353c-.01953-1.52343-.03907-2.87109-.07813-3.88671V1.15234a.84688.84688,0,0,1,.918-.82031.87971.87971,0,0,1,.97656.83985v.01953c-.01953,1.07421-.03906,2.42187-.03906,3.88671h1.11328a.8181.8181,0,0,1,.85938.85938.8181.8181,0,0,1-.85938.85938h-1.13281c0,3.49609.01953,7.32421.05859,9.90234Zm10.21485-3.4375-.01953.35156.03906,1.52344v.05859A2.15729,2.15729,0,0,1,165.98193,17.5c-1.30859,0-1.69922-.39062-1.69922-.99609a.81637.81637,0,0,1,.82032-.83985.95093.95093,0,0,1,.23437.01953,4.37151,4.37151,0,0,0,.74219.11719c.39062,0,.60547-.19531.60547-.918v-.05859l-.01953-1.543-6.83594.01953a.71782.71782,0,0,1-.76172-.72266.70735.70735,0,0,1,.76172-.72265l6.81641.01953-.01954-.41016v-.01953c0-.48828.44922-.72265.89844-.72265a.76817.76817,0,0,1,.85938.72265v.41016h2.207a.69086.69086,0,0,1,.74219.72265.70083.70083,0,0,1-.74219.72266Zm-2.32422-9.707v.99609c.72265,0,1.40625,0,1.89453.01953,1.23047.03907,1.875.6836,1.93359,1.46485a11.95237,11.95237,0,0,1,.03907,1.23047c0,.60546-.01954,1.25-.03907,1.73828a1.72231,1.72231,0,0,1-1.83593,1.60156c-.64454.03906-1.64063.05859-2.63672.05859-1.15235,0-2.32422-.01953-3.00782-.05859-1.93359-.07812-1.93359-1.19141-1.93359-2.89062,0-.58594.01953-1.17188.03906-1.582.03907-.72265.48828-1.52343,1.89453-1.5625.44922-.01953,1.09375-.01953,1.79688-.01953V3.57422l-3.47656.03906a.74786.74786,0,1,1,0-1.48437l3.47656.03906V1.15234a.92909.92909,0,0,1,1.85547,0V2.168l2.24609-.01953a4.22889,4.22889,0,0,0-1.23047-.82032.44631.44631,0,0,1-.293-.42968A.86078.86078,0,0,1,167.603.13672c.39062,0,2.05078.66406,2.05078,1.48437a.98234.98234,0,0,1-.15625.52735l.44922-.01953a.74591.74591,0,1,1,0,1.48437Zm-2.832,12.24609a4.53548,4.53548,0,0,0-1.60157-1.07422.5062.5062,0,0,1-.332-.46875.96941.96941,0,0,1,.9375-.83984c.46875,0,2.36328.74219,2.36328,1.64062a1.01051,1.01051,0,0,1-.8789.97657A.64825.64825,0,0,1,163.228,15.82031Zm1.07422-10.03906c-1.89454,0-2.05079,0-2.08985.625,0,.15625-.01953.37109-.01953.58594h2.10938Zm0,2.34375h-2.10938c0,.9375,0,1.30859.74219,1.32812.3125,0,.80078.01954,1.36719.01954Zm3.90625-1.13281c0-.21485-.01954-.41016-.01954-.56641-.01953-.64453-.09765-.64453-2.24609-.64453V6.99219ZM165.94287,8.125V9.47266c1.91406,0,2.22656,0,2.24609-.64454,0-.19531.01954-.44921.01954-.70312Z"/><path d="M183.605,14.49219c-.50781,0-.99609-.01953-1.48437-.01953a.80563.80563,0,0,1,.39062.66406c0,1.03516-3.20312,2.67578-6.543,2.69531a.894.894,0,0,1-.99609-.85937.815.815,0,0,1,.918-.80078h.09765a7.71771,7.71771,0,0,0,4.76563-1.50391,1.39933,1.39933,0,0,1,.293-.21485c-.39063,0-.74219-.01953-1.11328-.01953-1.32813-.01953-2.03125-.66406-2.08985-1.52343-.01953-.54688-.03906-1.17188-.03906-1.75782,0-.60546.01953-1.21093.03906-1.69922.03906-.70312.58594-1.44531,2.03125-1.46484.97656-.01953,2.01172-.01953,3.04688-.01953,1.28906,0,2.59765,0,3.94531.03906a1.84136,1.84136,0,0,1,1.95312,1.34766,16.77583,16.77583,0,0,1,.07813,1.77734,17.2644,17.2644,0,0,1-.07813,1.77735,1.89246,1.89246,0,0,1-2.05078,1.543c-.42968,0-.85937.01954-1.30859.01954-.01953.2539-.01953.50781-.01953.78125.03906.66406.64453.74218,1.91406.74218,1.91406,0,2.51953-.37109,2.51953-1.38671a.84424.84424,0,0,1,.918-.85938.95731.95731,0,0,1,1.03516.957c0,2.46094-2.05078,2.77344-4.47266,2.77344-1.83594,0-3.75,0-3.75-1.81641Zm-.60547-8.28125a.59989.59989,0,0,1,.625.60547.62014.62014,0,0,1-.64453.625c-.46875.01953-1.52344.03906-2.59766.03906-1.32812,0-2.67578-.01953-3.0664-.03906-.9375-.0586-1.60156-.48829-1.64063-1.46485-.03906-.72265-.05859-1.36718-.05859-1.99218s.01953-1.25.05859-1.9336a1.50051,1.50051,0,0,1,1.6211-1.36719h5.60547a.6054.6054,0,0,1,.64453.60547.62562.62562,0,0,1-.66407.625h-2.24609v.70313c.46875,0,.83984.01953,1.07422.01953,1.23047.05859,1.26953.60547,1.26953,1.543s-.25391,1.26953-2.34375,1.26953V6.25c1.01563,0,1.97266-.01953,2.34375-.03906Zm-1.46484-2.34375c-.01953-.19531-.11719-.27344-.39063-.293h-3.90625v.85937c1.03516,0,3.125,0,3.82813-.01953.35156-.01953.44922-.07812.46875-.293Zm-2.40235-1.95313H177.8042c-.3125.01953-.50781.07813-.52734.42969l-.01954.27344h1.875Zm0,3.55469c-.68359,0-1.36718,0-1.875-.01953l.01954.37109c.01953.42969.19531.42969,1.85546.42969Zm7.98829,5.37109h-7.63672V11.582h7.63672Zm-.03907-.99609c-.01953-.41016-.19531-.60547-.82031-.625-1.09375-.01953-2.40234-.03906-3.67187-.03906-.78125,0-1.5625,0-2.2461.01953-.58594.01953-.80078.3125-.82031.64453v.05859h7.55859Zm.01953,2.67578H179.523v.09766c.01953.66406.17578.68359,4.23828.68359,2.92969,0,3.26172,0,3.32031-.68359Zm-1.38671-8.88672c-.76172,1.03516-1.05469,1.38672-1.543,1.38672a.84789.84789,0,0,1-.89844-.72265.73183.73183,0,0,1,.21484-.46876,9.71865,9.71865,0,0,0,1.97266-3.0664A.6988.6988,0,0,1,186.16357.332c.46875,0,.9961.332.9961.80078a.7666.7666,0,0,1-.0586.27344,7.25688,7.25688,0,0,1-.41015.76172l4.12109-.01953a.72753.72753,0,0,1,.78125.74218.73193.73193,0,0,1-.78125.76172Zm-.74219,3.30078a.76494.76494,0,0,1-.82031-.76171.75083.75083,0,0,1,.82031-.74219H190.48a.7525.7525,0,1,1,0,1.5039Z"/><path d="M204.41113,2.75391c-.21484-.23438-.37109-.35157-.50781-.35157s-.27344.11719-.46875.35157A30.13856,30.13856,0,0,1,197.165,8.61328a1.46348,1.46348,0,0,1-.82031.27344,1.06335,1.06335,0,0,1-1.07422-1.03516,1.06908,1.06908,0,0,1,.625-.918,21.09453,21.09453,0,0,0,6.17187-5.48828,2.17979,2.17979,0,0,1,1.69922-.9375,2.51709,2.51709,0,0,1,1.83594.9375,23.042,23.042,0,0,0,6.32812,4.88281.917.917,0,0,1,.52735.83985,1.17985,1.17985,0,0,1-1.15235,1.15234C210.251,8.32031,206.5791,5.17578,204.41113,2.75391Zm-.99609,8.418a32.1152,32.1152,0,0,1-1.42578,3.80859c1.79687-.13672,3.57422-.35156,5.27344-.60547a12.9472,12.9472,0,0,0-1.42579-1.13281.79447.79447,0,0,1-.41015-.66407.88722.88722,0,0,1,.918-.80078c1.15234,0,4.668,3.26172,4.668,4.41407a1.11051,1.11051,0,0,1-1.09375,1.05468.884.884,0,0,1-.80079-.52734,8.6952,8.6952,0,0,0-.64453-.99609,79.97915,79.97915,0,0,1-10.50781,1.32812.924.924,0,0,1-.89844-.97656.8193.8193,0,0,1,.80078-.87891c.6836-.01953,1.38672-.03906,2.08985-.07812a22.73759,22.73759,0,0,0,1.38672-3.92578l-3.69141.01953a.83193.83193,0,0,1-.918-.83985.891.891,0,0,1,.918-.918h12.40234a.88126.88126,0,0,1,.9375.89844.86307.86307,0,0,1-.9375.85938Zm-2.22656-3.59376a.861.861,0,0,1-.918-.8789.87167.87167,0,0,1,.918-.87891H206.794a.87166.87166,0,0,1,.918.87891.861.861,0,0,1-.918.8789Z"/><path d="M227.18994,16.42578h-.19531c-4.23828-.39062-6.91406-3.32031-6.91406-6.32812a5.4979,5.4979,0,0,1,1.40625-3.57422.40194.40194,0,0,0,.09765-.17578.042.042,0,0,0-.03906-.03907.66.66,0,0,0-.19531.07813c-3.06641,1.582-3.4375,1.69922-3.86719,1.69922a1.11175,1.11175,0,0,1-1.19141-1.05469,1.11976,1.11976,0,0,1,.89844-1.01563c.41016-.13671,1.52344-.46874,2.10938-.68359.918-.332,2.53906-.83984,4.47265-1.60156a14.91112,14.91112,0,0,1,5.17578-1.21094c.97657,0,1.32813.44922,1.32813.957,0,.9961-.82031,1.21094-1.5625,1.21094a3.61035,3.61035,0,0,1-.44922-.01953,3.76366,3.76366,0,0,0-.46875-.01953c-3.02734,0-5.99609,2.57812-5.99609,5.19531,0,2.34375,2.22656,4.33594,5.293,4.33594.97656,0,1.44531.5664,1.44531,1.15234C228.5376,15.87891,228.08838,16.42578,227.18994,16.42578Zm1.67969-6.85547a7.403,7.403,0,0,0-1.66016-1.21093.65541.65541,0,0,1-.48828-.60547.82643.82643,0,0,1,.85938-.76172c.2539,0,2.63672.89843,2.63672,1.91406a.93319.93319,0,0,1-.83985.918A.67473.67473,0,0,1,228.86963,9.57031Zm2.24609-1.62109a6.85657,6.85657,0,0,0-1.69922-1.15234.67851.67851,0,0,1-.50781-.60547.84179.84179,0,0,1,.85938-.78125c.3125,0,2.65625.83984,2.65625,1.85546a.90212.90212,0,0,1-.82032.918A.71494.71494,0,0,1,231.11572,7.94922Z"/><path d="M239.813,1.73828c.78125.03906,1.1914.44922,1.1914,1.03516a6.18436,6.18436,0,0,1-.68359,1.99218c.15625,0,.293.01954.39063.01954a1.51721,1.51721,0,0,1,1.52343,1.543c.01953.78126.0586,1.83594.0586,2.8125,0,2.65626,0,3.20313-3.28125,3.20313-1.83594,0-2.89063-.03906-2.94922-1.66016-.01953-.52734-.03906-1.30859-.03906-2.10937,0-.54688.01953-1.11328.01953-1.582a.757.757,0,0,1-.50782.19531.81963.81963,0,0,1-.83984-.76172.9368.9368,0,0,1,.19531-.54687A14.93271,14.93271,0,0,0,237.33252.78125a.75117.75117,0,0,1,.78125-.58594.83167.83167,0,0,1,.89844.74219.83025.83025,0,0,1-.03907.21484l-.17578.58594Zm-5.07813,14.707a.99665.99665,0,0,1,.25391-.625,5.26129,5.26129,0,0,0,.9375-2.36328.65382.65382,0,0,1,.66406-.66406.77164.77164,0,0,1,.78125.72265c0,.70313-.50781,3.63282-1.85547,3.63282A.74413.74413,0,0,1,234.73486,16.44531Zm4.55078-13.10547c0-.11718-.11718-.13672-.2539-.13672-.15625,0-.52735,0-.85938.01954-.2539.52734-.54687,1.05468-.83984,1.582a.54076.54076,0,0,1,.17578-.01953c.293-.01954.76172-.03907,1.25-.03907A6.37088,6.37088,0,0,0,239.28564,3.33984ZM238.50439,9.043h-1.13281c0,1.75781.01953,1.85547.54688,1.89453a4.61968,4.61968,0,0,0,.58593.01953Zm0-3.02735c-.19531,0-.39062.01954-.50781.01954-.60547.03906-.60547.3125-.60547,1.75781h1.11328Zm-.66406,10.03907v-.50781c0-.76172-.03906-1.60157-.07812-2.01172V13.4375a.55385.55385,0,0,1,.5664-.60547.70067.70067,0,0,1,.6836.54688,14.9522,14.9522,0,0,1,.23437,2.40234c0,.89844-.66406.9375-.80078.9375A.60109.60109,0,0,1,237.84033,16.05469Zm2.75391-.0586a.56262.56262,0,0,1-.56641-.50781,11.73607,11.73607,0,0,0-.52734-1.99219.85948.85948,0,0,1-.03906-.19531.54835.54835,0,0,1,.58593-.50781.65756.65756,0,0,1,.60547.35156,9.6333,9.6333,0,0,1,.70313,2.10938A.75759.75759,0,0,1,240.59424,15.99609Zm.27344-8.20312c0-.42969-.01954-.82031-.01954-1.09375-.01953-.48828-.15625-.66406-.60546-.66406h-.50782V7.793Zm-1.13282,1.25V10.957a4.61986,4.61986,0,0,0,.58594-.01953c.56641-.03906.56641-.3125.56641-1.89453Zm2.207,5.78125a9.23531,9.23531,0,0,0-.72265-1.46484.62253.62253,0,0,1-.11719-.332.55383.55383,0,0,1,.60547-.48828c.68359,0,1.44531,1.60156,1.44531,1.99219a.72739.72739,0,0,1-.68359.72266A.56423.56423,0,0,1,241.94189,14.82422Zm1.19141-7.168a.70339.70339,0,1,1,0-1.40625l3.33984.01953V5.39062l-2.38281.01954a.66434.66434,0,1,1,0-1.32813l2.38281.01953V3.28125l-2.832.01953a.71446.71446,0,1,1,0-1.42578l2.832.01953V.9375a.8181.8181,0,0,1,.85938-.85938.84486.84486,0,0,1,.87891.85938v.957L251.2583,1.875a.69757.69757,0,0,1,.74219.70312.70175.70175,0,0,1-.74219.72266l-3.04687-.01953v.82031l2.34375-.01953a.66434.66434,0,1,1,0,1.32813l-2.34375-.01954-.01954.87891L251.92236,6.25a.65936.65936,0,0,1,.6836.70312.65936.65936,0,0,1-.6836.70313Zm6.25,6.5625h-4.02344c0,.918.01953,1.83594.03907,2.63672V16.875a.77309.77309,0,0,1-.80079.82031.83121.83121,0,0,1-.83984-.83984c0-1.07422-.01953-2.22656-.01953-3.37891s.01953-2.28515.01953-3.32031c.01953-1.07422.42969-1.71875,1.75781-1.75781.64453-.01953,1.23047-.03906,1.83594-.03906.58594,0,1.19141.01953,1.83594.03906,1.1914.03906,1.75781.64453,1.77734,1.66015,0,2.73438.03906,4.78516.0586,5.23438V15.332a2.11461,2.11461,0,0,1-2.36329,2.168c-1.5625,0-1.71875-.50781-1.71875-.97656a.7564.7564,0,0,1,.72266-.82032.48518.48518,0,0,1,.15625.01954,3.54174,3.54174,0,0,0,.76172.09765c.42969,0,.78125-.17578.80078-.89843Zm-4.02344-2.22656v.957h4.043c0-.3125-.01953-.64453-.01953-.957Zm3.98438-1.66016c-.03906-.56641-.23438-.60547-2.07031-.60547-1.6211,0-1.83594.01953-1.875.60547l-.01954.39063h3.96485Z"/><path d="M258.64648,8.51562A8.08479,8.08479,0,0,0,256.10742,7.207a.68953.68953,0,0,1-.50781-.66406,1.00177,1.00177,0,0,1,.97656-.957,6.91016,6.91016,0,0,1,3.14453,1.21094.96871.96871,0,0,1,.42969.82031,1.077,1.077,0,0,1-.957,1.11328A.85084.85084,0,0,1,258.64648,8.51562Zm-1.543,8.59376a1.03483,1.03483,0,0,1-1.03516-.9961.94656.94656,0,0,1,.27344-.66406,17.795,17.795,0,0,0,2.92968-4.76563.84625.84625,0,0,1,.80079-.52734.92884.92884,0,0,1,.957.9375,16.426,16.426,0,0,1-3.00782,5.54687A1.20976,1.20976,0,0,1,257.10352,17.10938Zm2.34375-12.69532a8.0823,8.0823,0,0,0-2.34375-1.79687.66617.66617,0,0,1-.41016-.58594,1.04731,1.04731,0,0,1,1.05469-.9375c.50781,0,3.39843,1.46484,3.39843,2.55859a1.12315,1.12315,0,0,1-1.03515,1.09375A.848.848,0,0,1,259.44727,4.41406Zm2.05078,11.97266a.86022.86022,0,1,1,0-1.71875l4.21875.01953V4.0625l-3.14453.01953a.83452.83452,0,0,1-.87891-.85937.83452.83452,0,0,1,.87891-.85938h8.73046a.86263.86263,0,1,1,0,1.71875l-3.61328-.01953v10.625l4.41407-.01953a.86263.86263,0,1,1,0,1.71875Z"/><path d="M284.47217,11.46484a10.425,10.425,0,0,1-.03906,1.07422,1.16137,1.16137,0,0,1-1.05469,1.19141.81537.81537,0,0,1-.80078-.918v-.17578a10.62865,10.62865,0,0,0,.07812-1.3086c-.41015.21485-2.22656,1.17188-2.22656,2.40235,0,.332.15625,1.48437,2.14844,1.48437a9.07117,9.07117,0,0,0,2.46093-.41015,1.57837,1.57837,0,0,1,.48829-.07813.94277.94277,0,0,1,1.01562.918c0,.41016-.15625,1.40625-3.49609,1.40625-3.20313,0-4.375-1.67969-4.375-3.10547,0-2.38281,2.77343-3.86719,3.78906-4.39453-.23438-.76172-.625-1.15234-1.15234-1.15234a1.9255,1.9255,0,0,0-1.01563.35156c-.82031.918-1.30859,1.19141-1.73828,1.19141a.77979.77979,0,0,1-.83984-.74219,1.06548,1.06548,0,0,1,.44921-.80078,10.19252,10.19252,0,0,0,2.5-2.96875,5.72694,5.72694,0,0,1-.957.07812c-1.97265,0-1.99218-1.09375-1.99218-1.25a.83016.83016,0,0,1,.80078-.85937,1.24258,1.24258,0,0,1,.70312.2539,1.32371,1.32371,0,0,0,.72266.15625,7.54588,7.54588,0,0,0,1.543-.21484,7.5189,7.5189,0,0,0,.35156-1.543.76741.76741,0,0,1,.82031-.68359.9965.9965,0,0,1,1.05469.85937,3.72557,3.72557,0,0,1-.11719.72266c.58594-.293.66406-.3125.80078-.3125a.85034.85034,0,0,1,.83985.85937c0,.64453-.50782,1.03516-2.53907,1.52344a21.00509,21.00509,0,0,1-1.11328,1.95313,2.611,2.611,0,0,1,2.46094,1.83593,22.68709,22.68709,0,0,1,4.51172-1.582A1.03957,1.03957,0,0,1,289.648,8.24219a.807.807,0,0,1-.52734.76172c-.60547.2539-1.25.332-2.26563.64453-.82031.2539-1.66016.5664-2.42187.8789A7.22042,7.22042,0,0,1,284.47217,11.46484Z"/><path d="M296.15723,10.918c-1.38672.52734-1.46485.54687-1.71875.54687a.96188.96188,0,0,1-.97657-.957A.85234.85234,0,0,1,294.126,9.668c.74218-.23438,1.40625-.42969,2.03125-.64453V5.957h-1.66016a.81313.81313,0,0,1-.83984-.85937.81314.81314,0,0,1,.83984-.85938h1.66016l-.01953-3.00781a.8958.8958,0,0,1,.9375-.918.86941.86941,0,0,1,.918.918V4.23828h1.3086a.81809.81809,0,0,1,.85937.85938.81809.81809,0,0,1-.85937.85937h-1.3086V8.30078c.332-.15625.66407-.332,1.01563-.50781a.87618.87618,0,0,1,.37109-.09766.81963.81963,0,0,1,.76172.83985c0,.52734-.13672.625-2.168,1.60156v1.93359c0,.3125.0586,2.08985.07813,2.77344v.09766a2.17747,2.17747,0,0,1-2.46094,2.34375c-.9375,0-1.79687-.13672-1.79687-1.05469a.82175.82175,0,0,1,.76171-.89844.54082.54082,0,0,1,.17579.01953,3.19133,3.19133,0,0,0,.70312.09766c.41016,0,.70313-.17578.72266-.83984Zm13.94531,3.98437a.83452.83452,0,0,1,.87891.85938.86036.86036,0,0,1-.87891.8789c-1.34766.03907-3.39844.0586-5.39063.0586-1.77734,0-3.53515-.01953-4.72656-.0586a.87762.87762,0,0,1-.89844-.8789.85138.85138,0,0,1,.89844-.85938Zm-4.78516-1.79687c-.70312,0-1.42578-.01953-2.03125-.03906a2.08421,2.08421,0,0,1-2.22656-2.10938c-.03906-1.11328-.05859-2.32422-.05859-3.57422,0-1.36719.01953-2.793.05859-4.082.03906-1.11328.89844-1.8164,2.22656-1.91406.46875-.03906,1.03516-.03906,1.64063-.03906.80078,0,1.64062.01953,2.28515.03906a2.21223,2.21223,0,0,1,2.207,2.05078c.05859,1.15234.07812,2.44141.07812,3.78906,0,1.23047-.01953,2.48047-.07812,3.67188a2.18407,2.18407,0,0,1-2.14844,2.168C306.74316,13.08594,306.04,13.10547,305.31738,13.10547Zm2.34375-6.97266c0-.83984-.01953-1.62109-.05859-2.30469-.03906-.70312-.13672-.918-2.36328-.918-1.95313,0-2.34375.13672-2.36328.918-.03907.70313-.0586,1.48438-.07813,2.30469Zm-4.86328,1.60157c0,.957.03906,1.91406.07813,2.8125.05859.83984.35156.918,2.40234.918.52734,0,1.05469-.01953,1.40625-.05859.97656-.11719.97656-.15625.97656-3.67187Z"/><path d="M316.49414,16.64062a.88109.88109,0,0,1,.56641-.82031c3.59375-1.582,4.76562-3.84765,4.76562-5.97656,0-.54687-.17578-3.37891-1.67969-3.37891a3.11217,3.11217,0,0,0-1.543.60547,4.32912,4.32912,0,0,1-2.05079.87891,1.07246,1.07246,0,0,1-1.15234-1.03516,1.07707,1.07707,0,0,1,1.05469-1.03515,4.2402,4.2402,0,0,0,1.32812-.48829,6.04776,6.04776,0,0,1,2.48047-.625c3.4375,0,3.51563,4.64844,3.51563,5.03907,0,5.23437-5.44922,7.87109-6.25,7.87109A1.05425,1.05425,0,0,1,316.49414,16.64062ZM321.416,3.14453a8.961,8.961,0,0,1-3.78907-.83984.9189.9189,0,0,1-.52734-.80078.87557.87557,0,0,1,.89844-.85938,1.43927,1.43927,0,0,1,.52734.11719,5.40874,5.40874,0,0,0,2.28516.42969c.23437,0,.44922,0,.68359-.01953h.07813a.89679.89679,0,0,1,.99609.8789A1.07423,1.07423,0,0,1,321.416,3.14453Z"/><path d="M344.5459,7.63672c-1.44531-.01953-2.89063-.03906-4.31641-.03906-2.46094,0-4.84375.03906-6.97265.05859a.76133.76133,0,0,0-.85938.82031c0,.27344.01953.64453.01953,1.05469,0,1.93359-.21484,5.05859-1.83594,7.10937a1.18264,1.18264,0,0,1-.9375.48829.99185.99185,0,0,1-1.01562-.918,1.0062,1.0062,0,0,1,.293-.64453c1.42578-1.52344,1.67969-3.86719,1.67969-5.6836,0-.72265-.03907-1.34765-.0586-1.8164V7.98828a1.96054,1.96054,0,0,1,2.05078-1.91406c.74219,0,1.543-.01953,2.34375-.01953A7.0611,7.0611,0,0,0,333.96,4.78516a.51731.51731,0,0,1-.15625-.3711c0-.39062.50781-.74218.99609-.74218a.76.76,0,0,1,.44922.13671c.21485.13672,1.52344,1.50391,1.52344,2.168v.07813h1.67969a10.15675,10.15675,0,0,0,.957-1.89453.80424.80424,0,0,1,.78125-.52735,1.069,1.069,0,0,1,1.09375.918,4.47985,4.47985,0,0,1-.85938,1.50391c1.38672,0,2.77344.01953,4.1211.01953a.78137.78137,0,1,1,.01953,1.5625ZM331.47949,3.49609a.78325.78325,0,0,1-.80078-.82031.77846.77846,0,0,1,.80078-.80078h5.0586V.89844A.91761.91761,0,0,1,337.53418,0a.93586.93586,0,0,1,1.01562.89844V.918l-.01953.957h4.94141a.76729.76729,0,0,1,.78125.82031.762.762,0,0,1-.78125.80078Zm1.5625,13.47657a.772.772,0,1,1,0-1.543l4.72656.01953V13.96484h-2.69531a.70538.70538,0,1,1,0-1.40625h2.69531V11.19141h-2.42187c-1.13281,1.62109-1.38672,1.8164-1.81641,1.8164a.90484.90484,0,0,1-.9375-.76172.64547.64547,0,0,1,.21485-.46875,11.08742,11.08742,0,0,0,2.1875-3.28125.70628.70628,0,0,1,.68359-.42968.90287.90287,0,0,1,.9375.76171.61847.61847,0,0,1-.07812.3125c-.09766.19532-.21485.39063-.3125.58594h1.543V8.63281a.82939.82939,0,0,1,.85938-.85937.85.85,0,0,1,.89844.85937V9.72656L343.2959,9.707a.752.752,0,1,1,0,1.50391l-3.76953-.01953v1.36718h3.08593a.70313.70313,0,1,1,0,1.40625h-3.08593v1.48438l4.90234-.01953a.77155.77155,0,0,1,0,1.543Z"/><path d="M365.31348,12.48047l-4.92188-.09766h-.58594a22.40763,22.40763,0,0,0,6.3086,2.89063.786.786,0,0,1,.60547.76172,1.0883,1.0883,0,0,1-1.03516,1.07422,21.0716,21.0716,0,0,1-6.75781-3.57422l.03906,3.35937v.01953a.82532.82532,0,0,1-.918.74219c-.46875,0-.918-.23437-.918-.74219v-.01953l.03907-3.33984c-2.42188,1.95312-6.13282,3.63281-6.75782,3.63281a.944.944,0,0,1-.99609-.87891c0-.3125.21484-.60547.68359-.78125a19.49753,19.49753,0,0,0,6.07422-3.14453h-.64453l-4.74609.09766h-.01953a.68546.68546,0,0,1-.72266-.72266.71682.71682,0,0,1,.74219-.74219l6.38672.03907-.01954-.85938-4.41406.01953a.65437.65437,0,1,1,0-1.30859l4.39453.01953V8.08594l-5.39062.01953a.71347.71347,0,1,1,0-1.42578l3.418.01953a5.10365,5.10365,0,0,0-.39063-.80078.4414.4414,0,0,1-.09765-.293.596.596,0,0,1,.48828-.50781l-4.47266.01953a.788.788,0,0,1-.82031-.82031.76787.76787,0,0,1,.80078-.80079h.01953l2.55859.03907a7.68968,7.68968,0,0,0-1.01562-1.25.633.633,0,0,1-.17578-.41016c0-.41016.50781-.78125.97656-.78125a.74116.74116,0,0,1,.44922.11719,6.1461,6.1461,0,0,1,1.582,2.34375l.68359.01953L355.72363.97656V.957A.793.793,0,0,1,356.583.15625a.82454.82454,0,0,1,.8789.82031V3.57422h1.13282V.97656a.8142.8142,0,0,1,.8789-.82031A.8045.8045,0,0,1,360.333.957V.97656L360.294,3.57422l.66406-.01953a11.39294,11.39294,0,0,0,.97656-1.95313.85565.85565,0,0,1,.82031-.58594.98789.98789,0,0,1,1.01563.87891c0,.05859,0,.44922-.9375,1.64063l2.65625-.03907h.01953a.75186.75186,0,0,1,.78125.80079.7719.7719,0,0,1-.80078.82031l-4.707-.01953a.75559.75559,0,0,1,.48828.64453,3.91376,3.91376,0,0,1-.35156.957l3.39843-.01953a.713.713,0,1,1,0,1.42578l-5.35156-.01953v.83984l4.35547-.01953a.65437.65437,0,1,1,0,1.30859l-4.375-.01953-.01953.85938,6.38672-.03907a.68961.68961,0,0,1,.72265.74219.66968.66968,0,0,1-.70312.72266Zm-9.33594-7.38281a2.25057,2.25057,0,0,1,.99609,1.543l.01953.0586h2.14844a5.674,5.674,0,0,0,.41016-1.26953.48128.48128,0,0,1,.19531-.332Z"/><path d="M374.42041,8.26172a10.72276,10.72276,0,0,1-2.207.37109.85009.85009,0,0,1-.918-.8789.942.942,0,0,1,.97656-.97657,14.6191,14.6191,0,0,0,3.22266-.44922,8.28,8.28,0,0,0,.957-2.98828.82721.82721,0,0,1,.87891-.70312.9839.9839,0,0,1,1.05468.89844,6.67863,6.67863,0,0,1-.70312,2.36328h.15625c2.22656,0,2.28516,2.40234,2.28516,3.30078,0,1.73828-.07813,6.62109-3.69141,6.62109-1.11328,0-2.55859-.50781-2.55859-1.44531a.99556.99556,0,0,1,1.42578-.918,2.62273,2.62273,0,0,0,1.09375.293c1.26953,0,1.85547-1.36719,1.85547-4.78516,0-.80078-.11719-1.38672-.74219-1.38672a1.20475,1.20475,0,0,0-.35156.03907c-.07813.01953-.19532.05859-.3125.07812-1.46485,2.75391-3.51563,5.957-4.76563,8.08594a1.1574,1.1574,0,0,1-1.01562.56641.91115.91115,0,0,1-.9961-.83985,1.19424,1.19424,0,0,1,.23438-.68359c.85937-1.3086,2.89062-4.16016,4.27734-6.60156ZM385.24072,10.957a6.20916,6.20916,0,0,0-3.35937-3.10547.70959.70959,0,0,1-.52735-.66406.91156.91156,0,0,1,.9375-.85938c.9961,0,4.82422,2.42188,4.82422,4.21876a1.04086,1.04086,0,0,1-1.03515,1.03515A.91017.91017,0,0,1,385.24072,10.957Zm-.54687-5.15625a6.61291,6.61291,0,0,0-1.64063-1.07422c-.35156-.13672-.48828-.35156-.48828-.58594a.77917.77917,0,0,1,.80078-.72265c.09766,0,2.5586.70312,2.5586,1.73828a.854.854,0,0,1-.76172.85937A.61576.61576,0,0,1,384.69385,5.80078Zm1.67969-1.79687a6.69394,6.69394,0,0,0-1.66016-.9961.62208.62208,0,0,1-.50781-.60547.79477.79477,0,0,1,.80078-.74218,5.78852,5.78852,0,0,1,2.28515,1.03515.87681.87681,0,0,1-.46875,1.52344A.64972.64972,0,0,1,386.37354,4.00391Z"/><path d="M405.87158,12.91016l-5.50781-.11719a19.31052,19.31052,0,0,0,5.99609,2.65625.75846.75846,0,0,1,.58594.76172,1.02911,1.02911,0,0,1-.97656,1.03515,20.534,20.534,0,0,1-6.44531-3.35937l.03906,3.125v.01953c0,.48828-.44922.74219-.918.74219-.44922,0-.89844-.23438-.89844-.74219v-.01953l.03906-3.04688a18.83805,18.83805,0,0,1-6.543,3.418.87557.87557,0,0,1-.89844-.85937.86131.86131,0,0,1,.68359-.82032,17.0799,17.0799,0,0,0,5.83985-2.91015l-5.332.11719h-.01953a.75205.75205,0,0,1-.80078-.78125.8034.8034,0,0,1,.82031-.83985l6.23047.01953-.01953-.5664a.90582.90582,0,0,1,.07813-.41016c-1.23047,0-2.32422,0-3.08594-.01953-2.03125-.03906-2.03125-1.36719-2.03125-2.24609,0-.76172.01953-1.75782.05859-2.63672-.80078.80078-1.11328,1.03515-1.48437,1.03515a.89766.89766,0,0,1-.87891-.85937.82091.82091,0,0,1,.39063-.68359A12.57764,12.57764,0,0,0,394.4458.80078.868.868,0,0,1,395.188.35156a.95942.95942,0,0,1,.957.87891.71907.71907,0,0,1-.17578.48828c-.17578.21484-.35156.42969-.50781.64453.72265,0,1.62109-.01953,2.59765-.01953.23438-.41016.52735-.957.82031-1.582A.77248.77248,0,0,1,399.60205.332a.92869.92869,0,0,1,.97656.80078,3.35145,3.35145,0,0,1-.58593,1.21094c1.93359,0,3.84765.01953,4.84375.03906a.648.648,0,0,1,.58593.72266.65229.65229,0,0,1-.625.72265h-.01953c-.99609-.01953-2.98828-.01953-4.98047-.01953V4.6875h3.94532A.54507.54507,0,0,1,404.27,5.293a.53862.53862,0,0,1-.52734.58594h-3.94532v.85937h3.94532a.54239.54239,0,0,1,.54687.58594.54848.54848,0,0,1-.54687.60547h-3.94532v.99609c2.07032-.01953,4.21875-.03906,5.332-.05859h.01954a.65391.65391,0,0,1,.625.72265.64743.64743,0,0,1-.625.70313c-1.21094,0-3.47657.03906-5.6836.03906a.90783.90783,0,0,1,.09766.41016l-.01953.5664,6.34765-.01953a.75688.75688,0,0,1,.80078.80078.78325.78325,0,0,1-.80078.82032Zm-7.793-7.03125h-3.67187c0,.27343-.01953.5664-.01953.85937h3.6914Zm0,2.05078h-3.6914v.21484c0,.41016.21484.74219.82031.76172.64453.01953,1.69922.01953,2.87109.01953Zm0-4.1211c-1.23047,0-2.30468.01953-2.96875.01953a.58487.58487,0,0,0-.64453.625l-.01953.23438h3.63281Z"/><path d="M411.18994,16.26953a.81178.81178,0,0,1-.85937-.76172,1.05637,1.05637,0,0,1,.17578-.54687,9.34084,9.34084,0,0,0,1.15234-3.39844.74655.74655,0,0,1,.78125-.68359.8619.8619,0,0,1,.89844.85937,11.02648,11.02648,0,0,1-1.28906,4.043A1.02665,1.02665,0,0,1,411.18994,16.26953Zm2.57813.39063.05859-6.875c-1.11328.15625-2.36328.3125-2.5.3125a.75029.75029,0,0,1-.72266-.80078.67575.67575,0,0,1,.625-.72266c.25391-.01953.56641-.03906.918-.0586a14.60252,14.60252,0,0,0,1.17188-1.48437,16.2784,16.2784,0,0,0-2.207-1.79687.76822.76822,0,0,1,.41015-1.42579.95067.95067,0,0,1,.42969.11719l.11719.0586A13.32513,13.32513,0,0,0,413.55322.625a.75417.75417,0,0,1,.78125-.56641.91466.91466,0,0,1,.97657.82032,15.12105,15.12105,0,0,1-1.97266,4.02343c.3125.25391.60547.52735.87891.78125a22.41026,22.41026,0,0,0,1.48437-2.832.7386.7386,0,0,1,.72266-.48828.93324.93324,0,0,1,.97656.85938c0,.58593-1.67969,3.26172-3.10547,5.09765.72266-.07812,1.38672-.15625,1.875-.21484-.07812-.13672-.19531-.25391-.27344-.37109a.77927.77927,0,0,1-.17578-.46876.7192.7192,0,0,1,.76172-.64453c.83984,0,1.91406,2.03125,1.91406,2.75391a.91735.91735,0,0,1-.85937.957c-.46875,0-.58594-.27344-.80078-1.01562-.27344.05859-.6836.13671-1.17188.21484l.03906,7.12891a.87942.87942,0,0,1-.918.918.86438.86438,0,0,1-.918-.89843Zm3.00781-2.28516a7.79939,7.79939,0,0,0-.78125-2.44141.82031.82031,0,0,1-.11719-.41015.68745.68745,0,0,1,.74219-.64453.85823.85823,0,0,1,.70312.35156,6.70867,6.70867,0,0,1,1.17188,2.92969.96188.96188,0,0,1-.957.97656A.75756.75756,0,0,1,416.77588,14.375ZM419.354,8.86719a.82492.82492,0,0,1-.85937-.83985.81431.81431,0,0,1,.85937-.83984h2.63672l-.01953-2.05078H419.0415a.80818.80818,0,0,1-.83984-.83984.798.798,0,0,1,.83984-.83985h2.92969l-.01953-2.10937a.85419.85419,0,0,1,.918-.85938.87775.87775,0,0,1,.957.85938V3.457h3.37891a.85357.85357,0,0,1,.918.83985.8428.8428,0,0,1-.918.83984h-3.39844V7.1875h2.85156a.85357.85357,0,0,1,.918.83984.8428.8428,0,0,1-.918.83985Zm5.46875,8.20312c-.54687.03907-1.1914.0586-1.83593.0586-3.57422,0-3.90625-.3711-3.90625-3.28125,0-.54688,0-1.05469.03906-1.52344a1.8988,1.8988,0,0,1,1.97266-1.875c.5664-.03906,1.21093-.03906,1.85546-.03906.66407,0,1.3086,0,1.85547.03906a1.97812,1.97812,0,0,1,2.03125,1.79687c.03907.625.0586,1.25.0586,1.85547,0,.332,0,.66406-.01953.97656A1.97634,1.97634,0,0,1,424.82275,17.07031Zm.23438-4.35547c-.01953-.625-.293-.76172-1.99219-.76172-.50781,0-.99609.01954-1.40625.03907-.82031.01953-.82031.5664-.82031,1.91406,0,1.52344.03906,1.60156,2.207,1.60156,2.03125,0,2.05078-.19531,2.05078-1.69922C425.09619,13.4375,425.07666,13.06641,425.05713,12.71484Z"/><path d="M434.80713,16.89453a1.35293,1.35293,0,0,1-1.34766-1.28906,1.41086,1.41086,0,0,1,1.34766-1.34766,1.26049,1.26049,0,0,1,1.34766,1.34766A1.299,1.299,0,0,1,434.80713,16.89453Zm-.83984-4.96094v-.41015c0-1.89453-.19532-6.44532-.3125-9.51172v-.0586A1.05909,1.05909,0,0,1,434.7876.87891a1.10482,1.10482,0,0,1,1.17187,1.13281c0,2.30469-.3125,7.67578-.3125,9.57031,0,.46875,0,1.28906-.85937,1.28906a.83952.83952,0,0,1-.82031-.918Z"/><path d="M6.25,39.773c0,1.38672.66406,2.207,1.60156,2.207.11719,0,2.12891-.21484,2.12891-1.97266,0-.99609-.68359-2.32421-2.57813-3.84765a1.23514,1.23514,0,0,1-.52734-.87891A.86579.86579,0,0,1,7.8125,34.48a1.35338,1.35338,0,0,1,.82031.3125c2.32422,1.93359,3.28125,3.76953,3.28125,5.293,0,2.30469-2.28515,3.75-4.14062,3.75-1.77735,0-3.26172-1.30859-3.26172-3.98438V39.812c0-.48828,0-.99609.01953-1.48437-1.543-.42969-2.89063-.83985-2.89063-2.26563a3.297,3.297,0,0,1,.70313-1.85547.9368.9368,0,0,0,.19531-.54687c0-.46875-.70312-1.05469-1.85547-1.48438A.89873.89873,0,0,1,0,31.394a.86765.86765,0,0,1,.9375-.80078c.625,0,3.418,1.21094,3.418,2.8711a2.49741,2.49741,0,0,1-.72266,1.543,1.26585,1.26585,0,0,0-.37109.76172c0,.293.2539.42969.54687.50782.25391.05859.52735.11718.80079.19531.19531-4.14063.19531-4.86328.19531-5.3711,0-.80078-.01953-1.34765-.01953-2.07031a.8748.8748,0,0,1,.918-.9375c1.01563,0,1.03516.918,1.03516,1.40625,0,.70313-.09766,1.36719-.13672,2.26563-.07812,1.77734-.21484,3.49609-.293,5.21484,1.13282.42969,1.64063.78125,1.64063,1.36719a.99185.99185,0,0,1-.918,1.01562,1.26264,1.26264,0,0,1-.78125-.332Z"/><path d="M28.65723,35.84717c0-2.168-1.69922-4.02344-4.53125-4.02344h-.03907a.88286.88286,0,0,1,.54688.82031v.09766c0,2.05078-2.01172,5.60547-4.16016,7.71484a2.11857,2.11857,0,0,1-1.46484.66407c-1.38672,0-2.63672-1.5625-2.63672-3.69141,0-3.53516,3.47656-7.12891,7.87109-7.12891,3.94532,0,6.40625,2.61719,6.40625,5.66407a5.98678,5.98678,0,0,1-.42968,2.207c-1.71875,4.33593-7.03125,4.9414-7.30469,4.9414a1.02707,1.02707,0,0,1-1.11328-.957c0-.42969.332-.83984,1.07422-.97656C26.43066,40.59326,28.65723,38.40576,28.65723,35.84717ZM23.0127,31.92139c-2.44141.48828-4.88282,3.08593-4.88282,5.41015,0,1.46485.97657,1.64063,1.03516,1.64063a.51727.51727,0,0,0,.37109-.15625c.58594-.52735,3.02735-3.418,3.10547-6.05469A1.01015,1.01015,0,0,1,23.0127,31.92139Z"/><path d="M40.04883,42.72217A1.09336,1.09336,0,0,1,38.877,41.66748a1.0079,1.0079,0,0,1,.97657-.957c3.6914-.52734,7.98828-2.48047,7.98828-5.09766a2.66419,2.66419,0,0,0-2.85157-2.46093,7.65431,7.65431,0,0,0-2.46093.52734c-1.85547.64453-4.19922,2.05078-6.19141,2.96875a1.41259,1.41259,0,0,1-.64453.15625A1.05565,1.05565,0,0,1,34.59961,35.769a1.0861,1.0861,0,0,1,.76172-.99609c1.875-.74219,4.96094-2.32422,6.91406-2.87109a10.945,10.945,0,0,1,2.94922-.48829,4.497,4.497,0,0,1,4.76562,4.29688c0,1.44531-.8789,2.832-2.59765,4.17969A18.20658,18.20658,0,0,1,40.04883,42.72217ZM48.34961,31.355a6.72024,6.72024,0,0,0-1.582-1.15234.616.616,0,0,1-.44922-.58594.79862.79862,0,0,1,.82031-.72266c.27344,0,2.48047.87891,2.48047,1.83594a.89.89,0,0,1-.78125.87891A.61087.61087,0,0,1,48.34961,31.355ZM50.127,29.63623a7.03742,7.03742,0,0,0-1.60156-1.09375.65281.65281,0,0,1-.48828-.58594.78487.78487,0,0,1,.82031-.72265c.42969,0,2.51953.85937,2.51953,1.75781a.85567.85567,0,0,1-.78125.85937A.61576.61576,0,0,1,50.127,29.63623Z"/><path d="M61.34277,44.20654a.97842.97842,0,0,1-.918-.64453A27.49048,27.49048,0,0,0,56.499,37.40967a3.50351,3.50351,0,0,1-.918-2.05078,2.976,2.976,0,0,1,.76172-1.81641,46.73012,46.73012,0,0,0,3.65235-5.13672.92477.92477,0,0,1,.82031-.50781,1.2519,1.2519,0,0,1,1.23047,1.15234,1.0666,1.0666,0,0,1-.17578.56641c-.78125,1.25-2.96875,3.69141-4.00391,4.94141a1.11637,1.11637,0,0,0-.3125.72265,1.68422,1.68422,0,0,0,.46875.9961c1.99219,2.57812,3.53516,4.043,4.43359,6.26953a1.54791,1.54791,0,0,1,.09766.48828A1.2213,1.2213,0,0,1,61.34277,44.20654Z"/><path d="M70.05762,44.32373a.96736.96736,0,0,1-.9961-.957,1.03978,1.03978,0,0,1,.72266-.9375c4.00391-1.64063,5.11719-4.55078,5.11719-7.32422a12.86732,12.86732,0,0,0-.332-2.793c-.19532-.918-.625-1.28906-1.09375-1.28906a2.08657,2.08657,0,0,0-1.44532.9375,6.71249,6.71249,0,0,0-1.07422,4.16016C70.917,37.17529,70.40918,37.644,69.9209,37.644c-.97656,0-.97656-1.28906-.97656-1.5625a16.77663,16.77663,0,0,1,.78125-4.19922c.293-.99609.78125-2.42187,1.01562-3.61328a.79135.79135,0,0,1,.82031-.68359,1.09346,1.09346,0,0,1,1.11328,1.01562c0,.0586-.01953.11719-.01953.17579A3.38825,3.38825,0,0,1,72.0498,30.144c-.13671.21485-.15625.293-.13671.293.03906,0,.15625-.11719.293-.2539a2.58737,2.58737,0,0,1,1.75782-.83985c2.34375,0,2.92968,3.90625,2.92968,5.9375,0,3.26172-1.42578,6.81641-6.23046,8.90625A1.42571,1.42571,0,0,1,70.05762,44.32373Z"/><path d="M94.49609,35.84717c0-2.168-1.69921-4.02344-4.53125-4.02344h-.03906a.88286.88286,0,0,1,.54688.82031v.09766c0,2.05078-2.01172,5.60547-4.16016,7.71484a2.11857,2.11857,0,0,1-1.46484.66407c-1.38672,0-2.63672-1.5625-2.63672-3.69141,0-3.53516,3.47656-7.12891,7.87109-7.12891,3.94531,0,6.40625,2.61719,6.40625,5.66407a5.98679,5.98679,0,0,1-.42969,2.207c-1.71875,4.33593-7.03125,4.9414-7.30468,4.9414a1.02708,1.02708,0,0,1-1.11329-.957c0-.42969.332-.83984,1.07422-.97656C92.26953,40.59326,94.49609,38.40576,94.49609,35.84717Zm-5.64453-3.92578c-2.4414.48828-4.88281,3.08593-4.88281,5.41015,0,1.46485.97656,1.64063,1.03516,1.64063a.5173.5173,0,0,0,.37109-.15625c.58594-.52735,3.02734-3.418,3.10547-6.05469A1.01017,1.01017,0,0,1,88.85156,31.92139Z"/><path d="M100.53662,44.187a.92711.92711,0,0,1-.957-.83984.91308.91308,0,0,1,.3125-.64453,7.4567,7.4567,0,0,0,2.1875-5.17578.71073.71073,0,0,1,.78125-.66407.78046.78046,0,0,1,.85937.72266,10.04246,10.04246,0,0,1-2.40234,6.25A1.03134,1.03134,0,0,1,100.53662,44.187Zm12.793-3.47656a.80258.80258,0,0,1-.87891.76172.82406.82406,0,0,1-.89843-.78125v-.01953l.03906-4.49219a7.6983,7.6983,0,0,1-2.168,2.75391,4.09088,4.09088,0,0,1,.82031,1.582.70242.70242,0,0,1-.70312.64453.53187.53187,0,0,1-.52735-.39063l-.03906-.07812a13.39149,13.39149,0,0,1-2.63672.50781.77459.77459,0,0,1-.39062-.07812V41.355a.78855.78855,0,0,0,.76172.82031c.97656.07813,2.42187.11719,3.84765.11719,1.44531,0,2.89063-.03906,3.88672-.13672a1.11869,1.11869,0,0,0,1.17188-1.25.78426.78426,0,0,1,.8789-.78125.98185.98185,0,0,1,1.09375.957c0,2.89063-2.73437,2.91016-6.85547,2.91016-1.71875,0-3.4375-.05859-4.27734-.11719a2.05055,2.05055,0,0,1-2.207-2.207c0-.41016-.01953-.78125-.01953-1.13281,0-1.50391.05859-2.61719.09765-3.86719-3.55468,0-3.59375-.27344-3.59375-3.24219,0-.918.01953-1.89453.03907-2.51953.03906-1.66015,1.73828-1.66015,2.34375-1.66015a10.94743,10.94743,0,0,0,.27343-1.44532.71614.71614,0,0,1,.78125-.60547.87663.87663,0,0,1,.9375.82032,4.60125,4.60125,0,0,1-.3125,1.21093c1.44532,0,3.02735.03907,3.08594,1.6211.01953.78125.05859,1.75781.05859,2.67578,0,.52734-.01953,1.01562-.03906,1.42578-.05859.89844-.58594,1.543-1.85547,1.66016,0,1.25-.07812,2.24609-.09765,3.47656l.17578-.05859a19.39849,19.39849,0,0,0,.74219-2.53907.57091.57091,0,0,1,.60546-.44922.63608.63608,0,0,1,.6836.58594,15.22679,15.22679,0,0,1-.76172,2.26563c.39062-.0586.78125-.13672,1.15234-.19532-.09765-.17578-.21484-.3125-.27343-.41015a.52045.52045,0,0,1-.09766-.25391.49747.49747,0,0,1,.27344-.39062.6599.6599,0,0,1-.11719-.39063.80821.80821,0,0,1,.27344-.5664,12.10072,12.10072,0,0,0,2.59765-3.4375l-2.1875.05859h-.01953a.722.722,0,0,1-.76172-.74219.75363.75363,0,0,1,.76172-.78125h.01953l2.61719.01953-.01953-1.62109-1.97266.01953h-.01953a.72663.72663,0,0,1-.76172-.76172.74189.74189,0,0,1,.76172-.78125h.01953l1.9336.01953-.01953-1.5625v-.01953a.89009.89009,0,0,1,1.77734,0v.01953s-.01953.60547-.03906,1.5625l2.22656-.01953h.01953a.73749.73749,0,0,1,.74219.78125.72063.72063,0,0,1-.74219.76172h-.01953L113.271,31.1792c0,.50781-.01954,1.05469-.01954,1.62109l3.125-.01953a.74189.74189,0,0,1,.76172.78125.70553.70553,0,0,1-.74218.74219h-.01954l-2.73437-.05859a14.72683,14.72683,0,0,0,3.418,3.82812.90531.90531,0,0,1,.39062.70313.98482.98482,0,0,1-.99609.89843.90378.90378,0,0,1-.64453-.27343A18.41951,18.41951,0,0,1,113.271,36.062c.01953,2.34375.05859,4.62891.05859,4.62891ZM103.564,30.53467c-.19531,0-.39062.01953-.52734.01953-.60547.01953-.72266.25391-.72266,1.66016h1.25Zm0,2.92969h-1.25c0,1.69921.03907,1.75781.625,1.79687.13672,0,.35157.01953.625.01953Zm2.71485-1.25c0-.3711-.01953-.72266-.01953-.9961-.01953-.48828-.19532-.66406-.72266-.66406h-.50781v1.66016Zm-1.25,1.25v1.8164c.27344,0,.48828-.01953.60547-.01953.64453-.03906.66406-.17578.66406-1.79687Z"/><path d="M133.76514,31.1792a2.34847,2.34847,0,0,1,2.59765,2.42187c.01953.50782.0586,1.19141.0586,1.95313,0,4.707-.87891,8.53516-5.3125,8.53516a8.7631,8.7631,0,0,1-2.26563-.3125,1.00915,1.00915,0,0,1-.76172-.9961.918.918,0,0,1,.918-.97656,1.02433,1.02433,0,0,1,.332.03906,6.54232,6.54232,0,0,0,1.75782.27344c1.44531,0,3.33984-.58594,3.33984-6.48438,0-2.08984-.03906-2.67578-.97656-2.67578-.35157-.01953-.87891-.01953-1.50391-.01953s-1.34766,0-2.10937.01953c-.52735,4.82422-2.28516,9.19922-7.46094,11.32813a1.34263,1.34263,0,0,1-.46875.09765,1.05828,1.05828,0,0,1-1.01563-1.07421.95481.95481,0,0,1,.64453-.89844c4.41407-1.77735,5.85938-5.3711,6.28907-9.4336-2.63672.01954-5.11719.0586-5.11719.0586h-.01953a.899.899,0,0,1,.01953-1.79688s2.53906-.01953,5.23437-.03906c.03907-.957.03907-1.95312.03907-2.92969v-.01953a.98039.98039,0,0,1,1.05468-.957.92261.92261,0,0,1,.9961.918c0,.99609,0,1.97266-.0586,2.96875Z"/><path d="M142.73486,42.66357a12.562,12.562,0,0,1-.50781-3.73046c0-3.4375.99609-6.79688,1.09375-8.14454a.95978.95978,0,0,1,1.91406-.07812.48541.48541,0,0,1-.01953.15625c-.27344,1.42578-1.26953,5.03906-1.26953,6.97266,0,.72265.13672.80078.19531.80078.03907,0,.09766-.03907.13672-.13672.60547-1.15235.74219-1.38672,1.15235-1.38672a.84911.84911,0,0,1,.80078.82031.60256.60256,0,0,1-.09766.35156,10.13664,10.13664,0,0,0-1.46484,3.67188c0,.17578.01953.35156.01953.52734a.91782.91782,0,0,1-.97656,1.01563A1.04378,1.04378,0,0,1,142.73486,42.66357Zm10.85938-.11718c-3.37891,0-5.957-2.01172-5.957-2.96875a.97894.97894,0,0,1,1.01562-.918,1.14855,1.14855,0,0,1,.87891.42969A4.98042,4.98042,0,0,0,153.3208,40.398a12.07236,12.07236,0,0,0,1.66016-.11719.95093.95093,0,0,1,.23437-.01953.90142.90142,0,0,1,.97656.9375C156.19189,42.21436,155.33252,42.54639,153.59424,42.54639Zm-2.207-8.57422a11.02664,11.02664,0,0,1-2.63672-.293.90021.90021,0,0,1,.07812-1.79688.73241.73241,0,0,1,.19532.01954,9.182,9.182,0,0,0,1.89453.19531,18.69165,18.69165,0,0,0,2.40234-.19531c.05859,0,.11719-.01954.17578-.01954a.89692.89692,0,0,1,.9375.918C154.43408,33.58154,153.88721,33.97217,151.38721,33.97217Z"/><path d="M165.92432,39.6167h-3.90625a13.009,13.009,0,0,1-1.13282,4.16016.91269.91269,0,0,1-.83984.5664.84543.84543,0,0,1-.87891-.78125.77026.77026,0,0,1,.09766-.39062,15.79644,15.79644,0,0,0,1.36719-7.28516c0-.64453-.01953-1.28906-.03906-1.93359a.88731.88731,0,0,1-.70313.35156.84856.84856,0,0,1-.89844-.76172.97471.97471,0,0,1,.21485-.52734,15.94378,15.94378,0,0,0,2.59765-5.39063.82147.82147,0,0,1,.85938-.625.83868.83868,0,0,1,.918.74219,2.81337,2.81337,0,0,1-.19532.76172h1.15235c1.26953,0,1.71875.46875,1.71875,1.03515,0,.25391-.0586.56641-.82031,2.07032.13671,0,.2539.01953.37109.01953,1.21094.03906,1.69922.60547,1.71875,1.69922v2.28515c0,3.82813,0,4.58985.05859,6.25v.07813c0,1.17187-.74218,2.28515-2.61718,2.28515-.9375,0-1.79688-.07812-1.79688-.97656a.83359.83359,0,0,1,.74219-.89844.5405.5405,0,0,1,.17578.01954,5.221,5.221,0,0,0,.918.13671c.52734,0,.918-.23437.918-1.09375Zm-1.64063-9.375c0-.25391-.2539-.27344-.625-.27344-.293,0-.66406,0-.918.01953-.66406,1.32813-.70312,1.42578-.85937,1.67969a3.499,3.499,0,0,1,.46875-.03906c.332,0,.82031-.01953,1.34765-.01953A5.8316,5.8316,0,0,0,164.28369,30.2417Zm-.97656,6.01562h-1.09375c0,.625-.01953,1.28907-.05859,1.9336h1.15234Zm0-3.20312h-.46875c-.50781,0-.625.25391-.625.625v1.21094h1.09375Zm2.61719,1.83594c0-1.42578,0-1.83594-.66407-1.85547h-.54687v1.85547Zm.01953,3.30078c0-.625-.01953-1.28906-.01953-1.9336h-1.21094v1.9336Zm5.27344.54687c-1.89454,0-2.75391-.3125-2.832-1.75781-.01953-.42969-.03906-.99609-.03906-1.62109,0-.957.01953-1.99219.03906-2.61719.0586-1.875,1.52344-1.875,2.8125-1.875V28.269a.90869.90869,0,0,1,1.81641,0V30.8667c.52734,0,.99609.01953,1.21094.03906a1.71474,1.71474,0,0,1,1.73828,1.5625c.01953.6836.03906,1.60156.03906,2.48047,0,.74219-.01953,1.42578-.03906,1.93359-.09766,1.77735-1.71875,1.85547-2.96875,1.85547v2.832c.44922-.09765.87891-.21484,1.25-.3125-.50781-.78125-.50781-.80078-.50781-1.01562a.742.742,0,0,1,.78125-.68359.92082.92082,0,0,1,.625.2539,7.91652,7.91652,0,0,1,1.75781,3.22266.95579.95579,0,0,1-.918.97656.842.842,0,0,1-.80078-.68359c-.05859-.21485-.17578-.46875-.27344-.72266a30.71,30.71,0,0,1-6.21094,1.40625.84586.84586,0,0,1-.918-.85937.87026.87026,0,0,1,.82031-.87891c.85937-.07813,1.75781-.19531,2.61719-.35156Zm.03906-6.26953c-.3125,0-.58594.01953-.72266.01953-.58594.03907-.58594.15625-.58594,2.36328,0,.70313,0,1.38672.01954,1.75782.03906.50781.35156.50781,1.28906.50781Zm1.69922,4.64844c1.05468,0,1.32812,0,1.36718-.60547.01954-.35156.03907-.82031.03907-1.32812,0-.76172-.01953-1.60157-.03907-2.14844-.01953-.56641-.21484-.56641-1.36718-.56641Z"/><path d="M181.22266,40.398c.01953-.03906.13672-.15625.293-.39063.21485-.3125.3711-.60546.56641-.9375a18.76307,18.76307,0,0,1,1.48438-2.10937c.2539-.44922.46875-.87891.64453-1.26953l.05859-.54688a7.47414,7.47414,0,0,0-1.73828.85938,1.23907,1.23907,0,0,1-.70313.27344.79529.79529,0,0,1-.74218-.85938c0-.64453.15625-.85937,3.39844-2.26562.15624-1.60157.27343-3.00782.27343-3.86719a.8501.8501,0,0,1,.87891-.918.93683.93683,0,0,1,.97656.89844c0,.58593-.23437,2.53906-.35156,3.53515a.79824.79824,0,0,1,.44922.78125c1.44531-1.34765,2.94922-2.5,4.41406-2.5a2.08847,2.08847,0,0,1,2.08984,2.32422,2.751,2.751,0,0,1-.01953.39063c-.13672,1.26953-.70312,3.33984-.918,5.13672a4.37317,4.37317,0,0,0-.05859.66406c0,.60547.21484.85937.918.85937a5.77662,5.77662,0,0,0,2.168-.625,1.43944,1.43944,0,0,1,.52734-.11718.86719.86719,0,0,1,.85938.918,1.124,1.124,0,0,1-.72266,1.05469,7.20039,7.20039,0,0,1-2.793.60547c-1.5039,0-2.8125-.48828-2.8125-2.46094a4.73,4.73,0,0,1,.07813-.8789c.27343-1.77735.80078-3.82813.8789-5.09766v-.21484c0-.64453-.23437-.87891-.58593-.87891-1.03516,0-3.30079,2.14844-4.88282,4.10156-.07812,1.03516-.13672,2.08985-.13672,3.08594a17.06675,17.06675,0,0,0,.19532,2.75391.80119.80119,0,0,1,.01953.21484,1.012,1.012,0,0,1-1.03516,1.01563c-1.03515,0-1.05469-1.15235-1.05469-2.5586,0-.68359.01954-1.42578.07813-2.22656-.42969.70312-.83985,1.52344-1.19141,2.207a1.62566,1.62566,0,0,1-1.36718,1.01563.72393.72393,0,0,1-.78126-.72266,2.03675,2.03675,0,0,1,.58594-1.13281Z"/><path d="M202.57617,44.06982a7.455,7.455,0,0,0-2.40234-2.05078.87849.87849,0,0,1-.52735-.78125.86913.86913,0,0,1,.918-.85937c.6836,0,3.8086,1.71875,3.8086,3.04687a1.07956,1.07956,0,0,1-1.05469,1.07422A.889.889,0,0,1,202.57617,44.06982Z"/><path d="M215.19629,28.60107c.78125.03907,1.19141.44922,1.19141,1.03516a6.18451,6.18451,0,0,1-.6836,1.99219c.15625,0,.293.01953.39063.01953a1.51722,1.51722,0,0,1,1.52343,1.543c.01954.78125.0586,1.83594.0586,2.8125,0,2.65625,0,3.20312-3.28125,3.20312-1.83594,0-2.89063-.03906-2.94922-1.66015-.01953-.52735-.03906-1.3086-.03906-2.10938,0-.54687.01953-1.11328.01953-1.582a.757.757,0,0,1-.50781.19531.81963.81963,0,0,1-.83985-.76172.93687.93687,0,0,1,.19531-.54687,14.93271,14.93271,0,0,0,2.44141-5.09766.75117.75117,0,0,1,.78125-.58593.73715.73715,0,0,1,.85938.957l-.17579.58593Zm-5.07813,14.707a.99661.99661,0,0,1,.25391-.625,5.26127,5.26127,0,0,0,.9375-2.36329.65382.65382,0,0,1,.66406-.66406.77164.77164,0,0,1,.78125.72266c0,.70312-.50781,3.63281-1.85547,3.63281A.74413.74413,0,0,1,210.11816,43.30811ZM214.669,30.20264c0-.11719-.11719-.13672-.25391-.13672-.15625,0-.52734,0-.85938.01953-.2539.52734-.54687,1.05469-.83984,1.582a.54076.54076,0,0,1,.17578-.01953c.293-.01953.76172-.03906,1.25-.03906A6.37157,6.37157,0,0,0,214.669,30.20264Zm-.78125,5.70312h-1.13282c0,1.75781.01953,1.85547.54688,1.89453a4.61986,4.61986,0,0,0,.58594.01953Zm0-3.02734c-.19532,0-.39063.01953-.50782.01953-.60547.03906-.60547.3125-.60547,1.75781h1.11329Zm-.66407,10.03906v-.50781c0-.76172-.03906-1.60156-.07812-2.01172v-.09766a.55386.55386,0,0,1,.5664-.60547.70069.70069,0,0,1,.6836.54688,14.95106,14.95106,0,0,1,.23437,2.40234c0,.89844-.66406.9375-.80078.9375A.60109.60109,0,0,1,213.22363,42.91748Zm2.75391-.05859a.56262.56262,0,0,1-.56641-.50782,11.73475,11.73475,0,0,0-.52734-1.99218.85966.85966,0,0,1-.03906-.19532.54836.54836,0,0,1,.58593-.50781.65757.65757,0,0,1,.60547.35156,9.6333,9.6333,0,0,1,.70313,2.10938A.7576.7576,0,0,1,215.97754,42.85889Zm.27344-8.20313c0-.42969-.01953-.82031-.01953-1.09375-.01954-.48828-.15625-.66406-.60547-.66406h-.50782v1.75781Zm-1.13282,1.25v1.91406a4.61986,4.61986,0,0,0,.58594-.01953c.56641-.03906.56641-.3125.56641-1.89453Zm2.207,5.78125a9.2365,9.2365,0,0,0-.72266-1.46484.62253.62253,0,0,1-.11719-.332.55382.55382,0,0,1,.60547-.48828c.68359,0,1.44531,1.60156,1.44531,1.99218a.72739.72739,0,0,1-.68359.72266A.56422.56422,0,0,1,217.3252,41.687Zm1.1914-7.168a.70339.70339,0,1,1,0-1.40625l3.33985.01953v-.8789l-2.38282.01953a.66434.66434,0,1,1,0-1.32813l2.38282.01954V30.144l-2.832.01953a.71446.71446,0,1,1,0-1.42578l2.832.01953v-.957a.81809.81809,0,0,1,.85937-.85937.84485.84485,0,0,1,.87891.85937v.957l3.04687-.01953a.71347.71347,0,1,1,0,1.42578l-3.04687-.01953v.82032l2.34375-.01954a.66434.66434,0,1,1,0,1.32813l-2.34375-.01953-.01953.8789,3.73046-.01953a.7034.7034,0,0,1,0,1.40625Zm6.25,6.5625h-4.02344c0,.918.01954,1.83594.03907,2.63672v.01953a.77309.77309,0,0,1-.80078.82032.83121.83121,0,0,1-.83985-.83985c0-1.07422-.01953-2.22656-.01953-3.3789s.01953-2.28516.01953-3.32032c.01953-1.07422.42969-1.71875,1.75781-1.75781.64454-.01953,1.23047-.03906,1.83594-.03906.58594,0,1.19141.01953,1.83594.03906,1.19141.03906,1.75781.64453,1.77734,1.66016,0,2.73437.03907,4.78515.0586,5.23437v.03906a2.11461,2.11461,0,0,1-2.36328,2.168c-1.5625,0-1.71875-.50781-1.71875-.97656a.75638.75638,0,0,1,.72265-.82031.48541.48541,0,0,1,.15625.01953,3.54185,3.54185,0,0,0,.76172.09766c.42969,0,.78125-.17579.80078-.89844ZM220.74316,38.855v.957h4.043c0-.3125-.01953-.64453-.01953-.957Zm3.98438-1.66016c-.03906-.5664-.23438-.60546-2.07031-.60546-1.6211,0-1.83594.01953-1.875.60546l-.01953.39063h3.96484Z"/><path d="M234.02979,35.37842a8.08477,8.08477,0,0,0-2.53907-1.3086.68952.68952,0,0,1-.50781-.66406,1.00177,1.00177,0,0,1,.97656-.957,6.91012,6.91012,0,0,1,3.14453,1.21094.96871.96871,0,0,1,.42969.82031,1.077,1.077,0,0,1-.957,1.11328A.85084.85084,0,0,1,234.02979,35.37842Zm-1.543,8.59375a1.03482,1.03482,0,0,1-1.03516-.9961.94662.94662,0,0,1,.27344-.66406,17.79517,17.79517,0,0,0,2.92969-4.76562.84623.84623,0,0,1,.80078-.52735.92884.92884,0,0,1,.957.9375,16.42611,16.42611,0,0,1-3.00781,5.54688A1.20981,1.20981,0,0,1,232.48682,43.97217Zm2.34375-12.69531A8.0824,8.0824,0,0,0,232.48682,29.48a.66616.66616,0,0,1-.41016-.58594,1.04731,1.04731,0,0,1,1.05469-.9375c.50781,0,3.39844,1.46485,3.39844,2.5586a1.12316,1.12316,0,0,1-1.03516,1.09375A.848.848,0,0,1,234.83057,31.27686Zm2.05078,11.97265a.86022.86022,0,1,1,0-1.71875l4.21875.01953v-10.625l-3.14453.01953a.85959.85959,0,1,1,0-1.71875H246.686a.86263.86263,0,1,1,0,1.71875l-3.61329-.01953v10.625l4.41407-.01953a.86263.86263,0,1,1,0,1.71875Z"/><path d="M264.46533,35.84717c0-2.168-1.69922-4.02344-4.53125-4.02344H259.895a.88286.88286,0,0,1,.54687.82031v.09766c0,2.05078-2.01171,5.60547-4.16015,7.71484a2.11859,2.11859,0,0,1-1.46485.66407c-1.38671,0-2.63671-1.5625-2.63671-3.69141,0-3.53516,3.47656-7.12891,7.87109-7.12891,3.94531,0,6.40625,2.61719,6.40625,5.66407a5.98679,5.98679,0,0,1-.42969,2.207c-1.71875,4.33593-7.03125,4.9414-7.30469,4.9414a1.02707,1.02707,0,0,1-1.11328-.957c0-.42969.332-.83984,1.07422-.97656C262.23877,40.59326,264.46533,38.40576,264.46533,35.84717Zm-5.64453-3.92578c-2.44141.48828-4.88281,3.08593-4.88281,5.41015,0,1.46485.97656,1.64063,1.03515,1.64063a.51731.51731,0,0,0,.3711-.15625c.58594-.52735,3.02734-3.418,3.10547-6.05469A1.01017,1.01017,0,0,1,258.8208,31.92139Z"/><path d="M277.30225,43.32764c-4.043,0-6.21094-1.875-6.21094-2.98828a1.05564,1.05564,0,0,1,1.01562-1.05469,1.16868,1.16868,0,0,1,.87891.48828,4.598,4.598,0,0,0,3.71094,1.48437,13.53748,13.53748,0,0,0,3.32031-.48828,1.8932,1.8932,0,0,1,.44922-.05859.97985.97985,0,0,1,1.05469.99609,1.31509,1.31509,0,0,1-1.09375,1.23047A12.56665,12.56665,0,0,1,277.30225,43.32764ZM278.728,33.17139a12.42406,12.42406,0,0,1-5.293-1.25,1.09781,1.09781,0,0,1-.64453-.9961.85539.85539,0,0,1,.8789-.89843,1.63092,1.63092,0,0,1,.56641.11718,12.75247,12.75247,0,0,0,4.707,1.01563,1.00159,1.00159,0,0,1,1.01563.99609C279.9585,32.66357,279.56787,33.17139,278.728,33.17139Z"/><path d="M286.72119,40.398c.01953-.03906.13672-.15625.293-.39063.21484-.3125.37109-.60546.56641-.9375a18.763,18.763,0,0,1,1.48437-2.10937c.25391-.44922.46875-.87891.64453-1.26953l.0586-.54688a7.474,7.474,0,0,0-1.73828.85938,1.2391,1.2391,0,0,1-.70313.27344.79529.79529,0,0,1-.74219-.85938c0-.64453.15625-.85937,3.39844-2.26562.15625-1.60157.27344-3.00782.27344-3.86719a.85009.85009,0,0,1,.8789-.918.93684.93684,0,0,1,.97657.89844c0,.58593-.23438,2.53906-.35157,3.53515a.79824.79824,0,0,1,.44922.78125c1.44532-1.34765,2.94922-2.5,4.41407-2.5a2.08847,2.08847,0,0,1,2.08984,2.32422,2.751,2.751,0,0,1-.01953.39063c-.13672,1.26953-.70313,3.33984-.918,5.13672a4.37317,4.37317,0,0,0-.05859.66406c0,.60547.21484.85937.918.85937a5.77658,5.77658,0,0,0,2.168-.625,1.43953,1.43953,0,0,1,.52735-.11718.86719.86719,0,0,1,.85937.918,1.124,1.124,0,0,1-.72265,1.05469,7.20039,7.20039,0,0,1-2.793.60547c-1.50391,0-2.8125-.48828-2.8125-2.46094a4.73079,4.73079,0,0,1,.07812-.8789c.27344-1.77735.80078-3.82813.87891-5.09766v-.21484c0-.64453-.23438-.87891-.58594-.87891-1.03516,0-3.30078,2.14844-4.88281,4.10156-.07813,1.03516-.13672,2.08985-.13672,3.08594a17.06681,17.06681,0,0,0,.19531,2.75391.80119.80119,0,0,1,.01953.21484,1.012,1.012,0,0,1-1.03515,1.01563c-1.03516,0-1.05469-1.15235-1.05469-2.5586,0-.68359.01953-1.42578.07812-2.22656-.42968.70312-.83984,1.52344-1.1914,2.207a1.62567,1.62567,0,0,1-1.36719,1.01563.72392.72392,0,0,1-.78125-.72266,2.03675,2.03675,0,0,1,.58594-1.13281Z"/><path d="M309.65625,35.12451a10.72221,10.72221,0,0,1-2.207.3711.8501.8501,0,0,1-.918-.87891.942.942,0,0,1,.97656-.97656,14.6191,14.6191,0,0,0,3.22266-.44922,8.28008,8.28008,0,0,0,.957-2.98828.82722.82722,0,0,1,.87891-.70313.9839.9839,0,0,1,1.05468.89844,6.67863,6.67863,0,0,1-.70312,2.36328h.15625c2.22656,0,2.28516,2.40234,2.28516,3.30078,0,1.73828-.07813,6.6211-3.69141,6.6211-1.11328,0-2.55859-.50782-2.55859-1.44532a.99556.99556,0,0,1,1.42578-.918,2.62257,2.62257,0,0,0,1.09375.293c1.26953,0,1.85547-1.36718,1.85547-4.78515,0-.80078-.11719-1.38672-.74219-1.38672a1.20515,1.20515,0,0,0-.35157.03906c-.07812.01953-.19531.05859-.3125.07813-1.46484,2.7539-3.51562,5.957-4.76562,8.08593a1.15741,1.15741,0,0,1-1.01562.56641.91115.91115,0,0,1-.9961-.83984,1.19427,1.19427,0,0,1,.23438-.6836c.85937-1.30859,2.89062-4.16015,4.27734-6.60156Zm10.82031,2.69531a6.20911,6.20911,0,0,0-3.35937-3.10546.70959.70959,0,0,1-.52735-.66407.91156.91156,0,0,1,.9375-.85937c.9961,0,4.82422,2.42187,4.82422,4.21875a1.04086,1.04086,0,0,1-1.03515,1.03515A.91017.91017,0,0,1,320.47656,37.81982Z"/><path d="M329.50537,44.26514c-.74219,0-1.07422-.42969-1.07422-.87891a.93548.93548,0,0,1,.89844-.918c3.457-.27344,6.26953-2.30469,6.26953-3.86719a1.3713,1.3713,0,0,0-1.50391-1.25c-1.5039,0-4.27734,2.46094-4.57031,2.8125a1.451,1.451,0,0,1-1.07422.6836c-.42968,0-1.62109-.42969-1.62109-3.20313a8.54,8.54,0,0,1,.35156-2.53906,8.39278,8.39278,0,0,0,.19531-1.64062v-.332c0-1.26953.58594-1.91406,1.9336-2.65625.46875-.2539,1.03515-.48828,1.03515-.72265,0-.15625-.21484-.3125-.74218-.48828a.87992.87992,0,0,1-.72266-.80078.97616.97616,0,0,1,1.05469-.87891c.70312,0,3.14453,1.15234,3.14453,2.5,0,.918-.72266,1.05469-1.69922,1.21094a3.96184,3.96184,0,0,0-.9375.39062c-1.23047.56641-1.44531,1.07422-1.44531,1.67969,0,.09766.01953.21484.01953.332v.21484a5.90445,5.90445,0,0,1-.05859.78125,18.257,18.257,0,0,0-.332,2.57813c0,.05859,0,.83984.23438.83984a.44971.44971,0,0,0,.17578-.05859c.39063-.23438,1.13281-.74219,1.99219-1.23047a6.58262,6.58262,0,0,1,3.14453-1.05469c1.69922,0,3.37891,1.09375,3.37891,2.85157,0,1.25-.85938,2.7539-2.92969,4.10156A12.70707,12.70707,0,0,1,329.50537,44.26514Z"/><path d="M349.72461,38.32764a10.42519,10.42519,0,0,1-.03906,1.07422,1.16136,1.16136,0,0,1-1.05469,1.1914.81537.81537,0,0,1-.80078-.918v-.17578a10.62861,10.62861,0,0,0,.07812-1.30859c-.41015.21484-2.22656,1.17187-2.22656,2.40234,0,.332.15625,1.48438,2.14844,1.48438a9.07121,9.07121,0,0,0,2.46094-.41016,1.57853,1.57853,0,0,1,.48828-.07812.94277.94277,0,0,1,1.01562.918c0,.41016-.15625,1.40625-3.49609,1.40625-3.20313,0-4.375-1.67968-4.375-3.10546,0-2.38282,2.77344-3.86719,3.78906-4.39454-.23437-.76171-.625-1.15234-1.15234-1.15234a1.92561,1.92561,0,0,0-1.01563.35156c-.82031.918-1.30859,1.19141-1.73828,1.19141a.77979.77979,0,0,1-.83984-.74219,1.06548,1.06548,0,0,1,.44922-.80078,10.19282,10.19282,0,0,0,2.5-2.96875,5.72721,5.72721,0,0,1-.957.07813c-1.97265,0-1.99218-1.09375-1.99218-1.25a.83017.83017,0,0,1,.80078-.85938,1.2426,1.2426,0,0,1,.70312.25391,1.32379,1.32379,0,0,0,.72266.15625,7.54547,7.54547,0,0,0,1.543-.21485,7.51875,7.51875,0,0,0,.35156-1.543.76742.76742,0,0,1,.82031-.68359.99649.99649,0,0,1,1.05469.85938,3.72482,3.72482,0,0,1-.11719.72265c.58594-.293.66407-.3125.80078-.3125a.85035.85035,0,0,1,.83985.85938c0,.64453-.50781,1.03515-2.53906,1.52343a21.00631,21.00631,0,0,1-1.11329,1.95313,2.611,2.611,0,0,1,2.46094,1.83594,22.68635,22.68635,0,0,1,4.51172-1.582,1.03955,1.03955,0,0,1,1.09375,1.01562.807.807,0,0,1-.52734.76172c-.60547.25391-1.25.332-2.26563.64453-.82031.25391-1.66015.56641-2.42187.87891A7.22042,7.22042,0,0,1,349.72461,38.32764Z"/><path d="M359.88672,38.6792a.8501.8501,0,1,1,0-1.69922l3.76953.01953v-3.75l-2.793.01953a.85959.85959,0,1,1,0-1.71875l2.793.01953V28.42529a.97638.97638,0,0,1,1.93359,0v3.14453h3.55469V28.42529a.97638.97638,0,0,1,1.93359,0v3.14453l2.96876-.01953a.86152.86152,0,0,1,0,1.71875l-2.96876-.01953v3.75l3.94532-.01953a.8511.8511,0,0,1,0,1.69922Zm.332,5.64453a1.03187,1.03187,0,0,1-1.07422-.99609,1.06592,1.06592,0,0,1,.89844-.97657,11.23552,11.23552,0,0,0,4.49219-2.57812.93684.93684,0,0,1,.64453-.27344,1.0652,1.0652,0,0,1,1.01562,1.03516.951.951,0,0,1-.332.70312C364.75,42.21436,361.42969,44.32373,360.21875,44.32373Zm8.92578-11.07422h-3.55469v3.75h3.55469Zm5.39063,10.9961c-.74219,0-3.86719-1.48438-5.66407-3.06641a.91927.91927,0,0,1-.35156-.72266,1.02348,1.02348,0,0,1,.99609-.97656,1.00431,1.00431,0,0,1,.64454.25391,12.15981,12.15981,0,0,0,4.60937,2.46093,1.04687,1.04687,0,0,1,.87891.9961A1.08891,1.08891,0,0,1,374.53516,44.24561Z"/><path d="M380.88818,42.66357a12.562,12.562,0,0,1-.50781-3.73046c0-3.4375.99609-6.79688,1.09375-8.14454a.95978.95978,0,0,1,1.91406-.07812.48541.48541,0,0,1-.01953.15625c-.27344,1.42578-1.26953,5.03906-1.26953,6.97266,0,.72265.13672.80078.19531.80078.03907,0,.09766-.03907.13672-.13672.60547-1.15235.74219-1.38672,1.15235-1.38672a.84911.84911,0,0,1,.80078.82031.60256.60256,0,0,1-.09766.35156,10.13664,10.13664,0,0,0-1.46484,3.67188c0,.17578.01953.35156.01953.52734a.91782.91782,0,0,1-.97656,1.01563A1.04378,1.04378,0,0,1,380.88818,42.66357Zm10.85938-.11718c-3.37891,0-5.957-2.01172-5.957-2.96875a.97894.97894,0,0,1,1.01562-.918,1.14855,1.14855,0,0,1,.87891.42969,4.98042,4.98042,0,0,0,3.78906,1.30859,12.07236,12.07236,0,0,0,1.66016-.11719.95093.95093,0,0,1,.23437-.01953.90142.90142,0,0,1,.97656.9375C394.34521,42.21436,393.48584,42.54639,391.74756,42.54639Zm-2.207-8.57422a11.02664,11.02664,0,0,1-2.63672-.293.90021.90021,0,0,1,.07812-1.79688.73241.73241,0,0,1,.19532.01954,9.182,9.182,0,0,0,1.89453.19531,18.69165,18.69165,0,0,0,2.40234-.19531c.05859,0,.11719-.01954.17578-.01954a.89692.89692,0,0,1,.9375.918C392.5874,33.58154,392.04053,33.97217,389.54053,33.97217Z"/><path d="M398.2373,43.48389a.88854.88854,0,0,1-.89843-.85938.93684.93684,0,0,1,.27343-.64453c1.543-1.62109,1.73829-3.94531,1.73829-5.66406,0-.625-.01954-1.19141-.01954-1.60156,0-1.23047.9375-1.6211,1.83594-1.64063.58594,0,1.13281-.01953,1.64063-.01953.74218,0,1.46484.01953,2.30468.03906,1.17188.03906,1.875.44922,1.9336,1.42578.01953.3711.03906.82032.03906,1.28907,0,2.03125-.05859,2.793-1.95312,2.8125-1.03516.01953-2.03125.01953-3.04688.01953H400.7959C400.4248,41.31592,399.27246,43.48389,398.2373,43.48389Zm3.33985-11.15235a.70654.70654,0,0,1-.70313-.44922c-1.73828,1.79688-2.32422,1.83594-2.5,1.83594a1.02293,1.02293,0,0,1-1.01562-.9375.90136.90136,0,0,1,.46875-.76172,14.72317,14.72317,0,0,0,3.59375-3.53515,2.07138,2.07138,0,0,1,1.71875-.9961,2.41044,2.41044,0,0,1,1.83594.9961,18.94171,18.94171,0,0,0,3.0664,2.85156.80962.80962,0,0,1,.35156.64453,1.07639,1.07639,0,0,1-1.01562,1.01563c-.3125,0-.56641-.07813-1.79688-1.3086a.68938.68938,0,0,1-.74218.64453Zm2.30469,11.75782c-2.48047,0-3.4961,0-3.4961-1.91407,0-1.32812.01953-2.61718,1.543-2.71484.625-.03906,1.26953-.03906,1.91406-.03906.66407,0,1.32813,0,1.97266.03906a1.57884,1.57884,0,0,1,1.543,1.28906c.01953.27344.03906.56641.03906.87891,0,.97656-.05859,2.30469-1.62109,2.40234C405.13184,44.06982,404.50684,44.08936,403.88184,44.08936Zm-2.91016-7.63672c0,.27343-.01953.5664-.03906.8789.74218,0,1.40625.01953,2.05078.01953s1.26953-.01953,1.85547-.01953a.50235.50235,0,0,0,.54687-.50781c0-.11719.01953-.23437.01953-.37109Zm4.43359-1.19141c0-.13672-.01953-.293-.01953-.39062-.01953-.332-.23437-.46875-.54687-.46875-.58594-.01954-1.11328-.01954-1.64063-.01954-.50781,0-.99609,0-1.543.01954s-.66406.3125-.66406.72265v.13672Zm-.52734-4.33594c-.41016-.46875-.82031-.9375-1.15234-1.34765-.19532-.21485-.35157-.3125-.50782-.3125-.17578,0-.3125.13672-.46875.35156a14.50685,14.50685,0,0,1-.99609,1.30859Zm-.83984,9.90235c-.46875,0-.918,0-1.36719.01953-.54688,0-.58594.44922-.58594,1.01562,0,.64453.01953.72266,1.79688.72266,1.543,0,1.77734,0,1.77734-.82031C405.65918,40.90576,405.63965,40.82764,404.03809,40.82764Zm4.707-11.34766a.89865.89865,0,0,1,1.79687,0v9.96094a.90048.90048,0,0,1-1.79687,0Zm5.332,12.14844v.03906c0,1.17188-.74219,2.55859-2.98828,2.55859-1.6211,0-2.14844-.35156-2.14844-1.11328a.88812.88812,0,0,1,.80078-.97656.66446.66446,0,0,1,.19531.01953,6.29066,6.29066,0,0,0,1.21094.21485c.52734,0,.97656-.21485.99609-1.05469.01954-.72266.01954-6.15235.01954-9.78516V28.44482a.93835.93835,0,0,1,1.875,0V39.26514Z"/><path d="M427.44189,28.34717a1.10953,1.10953,0,0,1,1.19141,1.11328,1.44786,1.44786,0,0,1-.44922,1.01562c-1.34765,1.36719-3.3789,3.59375-3.92578,4.10157a6.63836,6.63836,0,0,1,3.16406-.76172c2.96875,0,4.82422,2.1289,4.82422,4.082,0,3.86719-5.23437,6.13281-9.27734,6.13281a1.052,1.052,0,0,1-1.13281-1.01562c0-.44922.332-.89844,1.07421-.918,5.25391-.15625,7.30469-2.65625,7.30469-4.21875,0-.70313-.66406-2.48047-3.16406-2.48047a6.73631,6.73631,0,0,0-4.94141,2.32422,21.28257,21.28257,0,0,0-1.34765,1.83594,1.1566,1.1566,0,0,1-.9375.48828,1.05937,1.05937,0,0,1-1.09375-.97657c0-.39062.19531-.66406,1.66015-2.22656,1.23047-1.28906,5.56641-6.40625,5.56641-6.5039H425.938a.50808.50808,0,0,0-.13672.05859,14.424,14.424,0,0,1-3.82813,1.28906,1.05,1.05,0,0,1-1.07421-1.03515.97934.97934,0,0,1,1.05468-.9375,25.33979,25.33979,0,0,0,4.17969-.97657c.625-.23437.64453-.39062,1.28906-.39062Z"/><path d="M438.01318,43.50342a.88109.88109,0,0,1,.56641-.82031c3.59375-1.582,4.76562-3.84766,4.76562-5.97657,0-.54687-.17578-3.3789-1.67968-3.3789a3.1121,3.1121,0,0,0-1.543.60547,4.32909,4.32909,0,0,1-2.05078.8789,1.03836,1.03836,0,1,1-.09766-2.07031,4.24031,4.24031,0,0,0,1.32813-.48828,6.04756,6.04756,0,0,1,2.48046-.625c3.4375,0,3.51563,4.64844,3.51563,5.03906,0,5.23438-5.44922,7.87109-6.25,7.87109A1.05425,1.05425,0,0,1,438.01318,43.50342Zm4.92188-13.4961a8.96087,8.96087,0,0,1-3.78906-.83984.91889.91889,0,0,1-.52735-.80078.87557.87557,0,0,1,.89844-.85938,1.43948,1.43948,0,0,1,.52734.11719,5.40877,5.40877,0,0,0,2.28516.42969c.23437,0,.44922,0,.68359-.01953h.07813a.8968.8968,0,0,1,.99609.8789A1.07422,1.07422,0,0,1,442.93506,30.00732Z"/><path d="M454.14941,43.75732a1.35293,1.35293,0,0,1-1.34765-1.28906,1.41085,1.41085,0,0,1,1.34765-1.34765,1.26048,1.26048,0,0,1,1.34766,1.34765A1.299,1.299,0,0,1,454.14941,43.75732Zm-.83984-4.96093v-.41016c0-1.89453-.19531-6.44531-.3125-9.51172v-.05859a1.0591,1.0591,0,0,1,1.13281-1.07422,1.10483,1.10483,0,0,1,1.17188,1.13281c0,2.30469-.3125,7.67578-.3125,9.57031,0,.46875,0,1.28907-.85938,1.28907a.83953.83953,0,0,1-.82031-.918Z"/></svg>