<svg id="レイヤー_1" data-name="レイヤー 1" xmlns="http://www.w3.org/2000/svg" width="95" height="95.00812" viewBox="0 0 95 95.00812"><defs><style>.cls-1{fill:#3e7637;}.cls-2{fill:#fff;}</style></defs><title>sdgs_13</title><rect class="cls-1" width="95" height="95.00812"/><path class="cls-2" d="M62.50336,63.47382c-.392-.10767-2.03936-2.38272-.73731-3.88184.21523-.24579-.43679-.96891-.258-.98515a1.19492,1.19492,0,0,1,1.27762,1.02377c.01426.28032.02442.56467.02442.84909a14.8181,14.8181,0,0,1-.30673,2.99413m-4.01586,7.402a2.53327,2.53327,0,0,1-.46109-.1706c-.80042-.40629-.70284.24375-1.097.10154-.396-.14828.44484-1.06035-.7393-.28844-1.1762.76986-.85931-.11983-1.37123-1.42392a2.65855,2.65855,0,0,1,1.51741-3.13226,18.79217,18.79217,0,0,1,2.661-.70489c1.76115-.43877,2.133-1.48486,2.45383-.847.061.11778.11778.23154.1706.33717a2.317,2.317,0,0,1,.2275.95676,14.68341,14.68341,0,0,1-3.36174,5.17168M48.14811,75.14365a14.73053,14.73053,0,0,1-4.1215-.58909.60473.60473,0,0,1-.17878-.71705,3.26611,3.26611,0,0,1,2.87227-1.74893c2.37671-.2316,5.50078,1.54176,5.99844,1.2553.49977-.28435,1.50327-1.59253,2.9779-1.53767a2.32886,2.32886,0,0,1,1.33862.33518,14.60469,14.60469,0,0,1-8.88695,3.00226m-1.99473-9.55731c-.2011.33115-.75355,2.79713-1.12327,2.51073-.37169-.28844.15027-2.86011.258-3.05712.57887-1.06035,1.8302-1.00753.86526.54639m5.98828-2.91083a1.32068,1.32068,0,0,1-1.4016-.126c-.36972-.2864.2337-.76174.455-.78.49369-.04469,1.233.646.94659.906m6.4697.02436c-.15634-.05684-.29657-.20717-.41633-.56671s.18275-.56474.47931-.42048a1.41642,1.41642,0,0,1,.6907.841c0,.23965-.59115.21126-.75368.14623m.62362.453c.49369-.04061,1.233.64191.94461.906A1.31423,1.31423,0,0,1,58.78,63.93088c-.3676-.28646.23358-.75976.455-.778M43.50664,68.999a4.16051,4.16051,0,0,1-.89986,1.87689,3.04711,3.04711,0,0,1-2.0008.76583c-.66627-.04879-.75777-1.83021-.75777-2.74432,0-.3169-.44683.62158-.68252-1.28376-.14828-1.22084-.93233.128-.98713-.68661-.05493-.81251-.44485-.65-.85721-1.15581-.40839-.50783-.92018.04879-1.491.30475-.56883.25391-.33525.38589-1.1436.132a.52708.52708,0,0,0-.05083-.02027,14.62986,14.62986,0,0,1-1.15179-5.708c0-.49363.02641-.98113.07117-1.46255a.9284.9284,0,0,1,.09137-.13613c.776-.91814.75765-1.13145.75765-1.13145l.85931-.29854a14.38084,14.38084,0,0,1,2.401.5992c.849.31894,2.18764,1.04,2.96562.72318.56473-.2316,1.00548-.54037.95069-1.00753-.063-.5891-.52618-.72926-1.08471-.33116-.20928.1463-.648-.88764-.99532-.83482-.34331.05077.4286,1.21266.136,1.26343-.29445.04878-.88559-1.21266-.98515-1.4158s-.55655-.70893-.96482-.32093c-.86538.82063-2.27108.76986-2.5514.98112-.85919.64185-1.08471-.21126-1.06636-.7313.03447-.11778.06906-.23767.10762-.3575A1.75128,1.75128,0,0,1,35.808,55.8402c.37976.25186.652-.065.8003-.21939a.52788.52788,0,0,0,.002-.59721c-.09546-.20315.19093-.35347.386-.40424a10.46314,10.46314,0,0,0,1.11322-.66219,3.64041,3.64041,0,0,1,2.22633-.01221,1.18039,1.18039,0,0,0,1.46247-.29656,3.927,3.927,0,0,1,1.0624-.88566c.21324-.09956-.52209-.7861-1.12736-.03862-.6054.7455-.91411.81456-1.19853.81456-.28639,0-1.97848-.42247-2.18764-.9567-.20519-.53424.53014-.93445,1.15377-1.23708a15.29588,15.29588,0,0,1,2.7706-.39408c.88981-.195,2.02523-.63986,2.59814-.24982.5687.38186-2.39084,1.05626-1.41784,1.58032.34528.19093,1.91141-.89985,2.44564-1.17812,1.26139-.65-1.22084-.86539-.89985-2.18777.36562-1.493-3.045-.9161-4.74512-.78815a14.65539,14.65539,0,0,1,22.1513,8.92557,2.48083,2.48083,0,0,1-.071.67644.9589.9589,0,0,1-1.71652.134c-.15026-.2153-.778-.80842-.75765.20518.02034,1.0177.98726,1.12129.05084,1.7327a3.61649,3.61649,0,0,1-1.54183.6155,1.992,1.992,0,0,0-.74748,1.75911c.10563.56064,1.44227,2.08814.45092,2.02522A5.753,5.753,0,0,1,55.796,62.21846c-.30462-.81047-.63776-1.60475-.87345-2.21412a.87363.87363,0,0,0-1.38127-.40628c-.52208.35756.14419.713-.22961,1.4768s-.64384,1.44425-1.19233.81455c-1.4321-1.64132-3.51213-.8308-3.83708-2.657-.1768-.98925-1.02991-.89378-1.74082-1.45442-.7171-.55655-1.11521-.85925-1.2351-.45706-.10563.35347,2.24059,2.21616,2.4092,2.6915.24771.70893-.70285,1.3346-1.4016,1.50116-.69268.16657-.99941-.39-1.68193-1.103-.68251-.711-.98118-1.21675-1.02991-.6602a3.20923,3.20923,0,0,0,1.3447,2.4335c.59312.37783,1.2594.54644,1.06648,1.15785-.193.60937-.00409.26408-.66838.92217a1.79432,1.79432,0,0,0-.74537,1.78558c.04872.91609-.18895.96891-.33314,1.7286-.1422.76174-.47137.10359-.75975,1.22084m-7.87539-16.159c.03248-.0406.063-.07309.07513-.08939a1.95449,1.95449,0,0,1,1.15587-.42247c.36562-.063.85311.11983.91.36358.063.24176-.91411.68456-1.09289.84908-.50572.46722-1.298,1.41785-1.76313,1.51945a.5355.5355,0,0,1-.37777-.04067,14.37423,14.37423,0,0,1,1.09277-2.17958m.75157-1.495c.18894-.27828.81864-1.07455.89588-1.1741a1.12363,1.12363,0,0,1,.70893-.29254c.22341-.04265.522.08332.55853.25193a1.95731,1.95731,0,0,1-.197.93234,2.43986,2.43986,0,0,1-1.556.7008c-.34131-.05281-.47732-.31689-.41037-.41843m46.61037,8.66347a43.45364,43.45364,0,0,0-69.74484,0c-.10761.15033-.197.28032-.27424.39005.07724.11375.16663.24374.27424.39611a43.45969,43.45969,0,0,0,69.74484,0c.1096-.15237.199-.28236.27016-.39611-.07117-.10973-.16056-.23972-.27016-.39005"/><polygon class="cls-2" points="12.882 8.007 12.882 27.154 9.661 27.154 9.661 12.496 9.634 12.496 7.375 14.843 7.347 14.843 7.347 11.481 10.311 8.007 12.882 8.007"/><path class="cls-2" d="M23.49984,12.159v1.66569a3.06247,3.06247,0,0,1-2.202,3.10591,2.94457,2.94457,0,0,1,2.37263,3.24805v2.82348c0,2.65492-1.41178,4.3795-4.65983,4.3795-3.27656,0-4.4343-1.86474-4.4343-4.77358V20.09328h2.93723v2.74227c0,1.1294.394,1.8607,1.49707,1.8607.98714,0,1.43818-.70284,1.43818-1.72054V19.813c0-1.01764-.451-1.55392-1.58038-1.55392H17.51354V15.80118h1.21464c1.04417,0,1.72061-.53628,1.72061-1.55193v-2.0618c0-1.04609-.36562-1.72253-1.38127-1.72253-1.01776,0-1.38536.67644-1.38536,1.86269V14.2777H14.7448V12.58357c0-2.82553,1.15786-4.802,4.48923-4.802,2.96773,0,4.26581,1.66773,4.26581,4.37745"/><path class="cls-2" d="M36.96454,15.90049a4.261,4.261,0,0,1-1.684-3.88178l-1.46458.00812.66838.31683c.04463.01631.128.06094.128.13006,0,.10557-.128.15838-.195.16657a5.8377,5.8377,0,0,1-.54241,1.07249,13.2,13.2,0,0,1,1.105,1.08068l-.61346.65c-.33313-.35954-.64991-.72919-1.00945-1.05421a5.34018,5.34018,0,0,1-1.92567,1.37111l-.6602-.66014a4.70786,4.70786,0,0,0,1.9703-1.26349c-.37777-.24579-.76173-.48346-1.15178-.69472a9.0536,9.0536,0,0,0,.49568-.782,9.49768,9.49768,0,0,1,1.15178.782,5.02448,5.02448,0,0,0,.4286-1.107l-2.61029.00812v-.76378c1.74491,0,3.48783-.01624,5.23274-.03658A6.44274,6.44274,0,0,0,36.19052,12.36a2.918,2.918,0,0,0,1.41376,2.76663Zm-4.4648-6.36816c-.10564.15647-.20928.323-.3231.48148l4.20692-.00818v.77395H32.132v-.70483a4.19438,4.19438,0,0,1-.72107.87952l-.72319-.518A5.44934,5.44934,0,0,0,32.16858,7.694l.94052.30877c.06695.02641.128.05282.128.15033,0,.07718-.10563.12187-.15845.13811-.061.15033-.134.30066-.20308.44082H36.9137v.80029Z"/><path class="cls-2" d="M44.93093,15.99862a4.19786,4.19786,0,0,1-1.84434-1.944,3.43045,3.43045,0,0,1-1.84248,1.83628l-.50163-.57893a3.01358,3.01358,0,0,0,1.76723-1.80987h-1.2656v-.75566h1.4078c.01624-.193.01624-.39606.01624-.587v-.21127H42.1643a3.32772,3.32772,0,0,1-.43877.72721l-.58494-.3839a5.57851,5.57851,0,0,0,.68449-1.70629h-.5403V9.86405h2.141l.02232-.83483-1.885.01829v-.78h2.76453c-.01414.52611-.04265,1.05223-.05889,1.58032h.87146v.73738H42.40407l.29248.14016a.05859.05859,0,0,1,.04463.05486c0,.07923-.08121.10359-.134.10359l-.12795.29861h2.41118v.76576H43.51718c-.00608.26408-.00608.53628-.02232.79832H45.2601v.75566H43.65938A3.31738,3.31738,0,0,0,45.4855,15.243ZM41.11219,9.44356v4.94628h-.76583v-4.999c-.11579.29855-.21944.59715-.34739.8856v5.61453h-.83489V11.76337a3.46832,3.46832,0,0,1-.46716.65809l-.518-.65A9.4956,9.4956,0,0,0,39.78771,7.8023l.93233.386a.16122.16122,0,0,1,.10563.14828.13528.13528,0,0,1-.16452.12187l-.2275.6602.715.09547a.09855.09855,0,0,1,.08332.09751.14722.14722,0,0,1-.11977.132"/><path class="cls-2" d="M52.9825,12.02658a7.7943,7.7943,0,0,1-1.36106-1.79165l.73942-.53621a5.45892,5.45892,0,0,0,1.27774,1.66971Zm-3.47965,1.0278a4.34091,4.34091,0,0,0,.849.83489,3.32181,3.32181,0,0,0,.7212-.83489Zm1.84843-3.54864c0,.518.00818,1.0278.00818,1.54579a1.02746,1.02746,0,0,1-.87964,1.14367l-.60726-.63584c.44075-.12187.64383-.14828.64383-.74754V9.50574h-.47125a3.359,3.359,0,0,1-.95676,2.42333,2.6355,2.6355,0,0,1-.67631.50987L47.81683,11.86a4.03749,4.03749,0,0,0,.59524-.386,2.34768,2.34768,0,0,0,.75963-1.96832H46.99013V8.7135h2.69348v-.975l.93234.07916a.11579.11579,0,0,1,.11989.10768c0,.07717-.07724.13-.128.14828V8.7135h2.80519v.79224Zm1.625,6.38434a7.70747,7.70747,0,0,1-2.59393-.99123,8.16945,8.16945,0,0,1-2.96971,1.00951l-.54044-.76372a5.5411,5.5411,0,0,0,2.80321-.80848,4.8651,4.8651,0,0,1-.69268-.72113,5.06167,5.06167,0,0,1-1.32027.87958l-.54242-.60534a4.63111,4.63111,0,0,0,2.269-2.1166l.75157.33921c.0305.02033.07525.04674.07525.09956,0,.06906-.08133.0853-.12807.0853l-.11171.126H52.3v.50783A5.94513,5.94513,0,0,1,51.08113,14.326a7.12533,7.12533,0,0,0,2.4356.67849Zm-4.353-5.58609a5.08286,5.08286,0,0,1-1.22493,1.52962l-.63987-.52816A3.96909,3.96909,0,0,0,47.961,9.654l.75158.44887a.10669.10669,0,0,1,.05281.07724c0,.07111-.08939.15027-.14208.12386"/><path class="cls-2" d="M58.77551,10.74363v-.63379H57.41457v.31894h1.26349v2.529H57.41457v.3169h1.27762v.63986H57.41457v.39606c.42252-.06094.83278-.12187,1.2553-.195l-.06707.526a7.21517,7.21517,0,0,0,.91-3.898Zm-.849,1.2553h-.5201v.41236h.5201Zm-.00818-1.00139h-.51192v.44075h.51192Zm-1.2858,1.00139h-.56263v.41236h.56263Zm-.00819-1.00139h-.55444v.44075h.55444Zm4.90977,2.7158c-.07526,1.23913-.30065,1.81806-1.41995,2.04556l-.48142-.75566c.72727-.11375,1.02173-.41236,1.06847-1.2899.05083-.98515.05889-1.98661.05889-2.96971h-.40418c-.10563,1.86269-.34132,3.88178-1.70833,5.08842l-.67644-.53832a2.73337,2.73337,0,0,0,.47534-.44689c-.98515.21126-1.98667.35954-2.98.5444-.00608.06093-.04265.13-.10353.13-.03856,0-.06707-.04265-.08331-.07718l-.32905-.87958c.55457-.06906,1.1193-.11375,1.67374-.193v-.44076H55.15167v-.6561h1.47264v-.3169H55.32437v-2.529h1.29994v-.31894h-1.5417V9.41716h1.5417V9.01292c-.42042.03452-.83278.0711-1.25332.07922l-.27821-.72107c.23965,0,.47323-.01624.713-.03453a7.07893,7.07893,0,0,0,2.466-.4733,7.05329,7.05329,0,0,1,.59511.81456.10214.10214,0,0,1-.10563.10563.27257.27257,0,0,1-.14419-.05282,10.48583,10.48583,0,0,1-1.18018.2112v.45706H58.806v.56269h.72107c.02442-.69473.0305-1.37923.03856-2.07191l.87964.10359c.05889.01016.16452.04469.16452.14016a.23682.23682,0,0,1-.11778.17673c-.02442.54638-.04066,1.09891-.07724,1.64331h1.21675c-.01426,1.25536-.01426,2.51067-.09745,3.7599"/><path class="cls-2" d="M35.6708,22.67016H32.64814v.55456H35.6708Zm0-1.23095H32.64814v.52816H35.6708Zm0-1.24725H32.64814v.55457H35.6708Zm-3.83312-.74543h4.6618v4.47088h-4.6618Zm3.54672,5.65712a4.05181,4.05181,0,0,0,2.04544,1.3346l-.54837.77395A7.33069,7.33069,0,0,1,34.6632,25.709l.65413-.60534H32.896a5.115,5.115,0,0,1,.66826.65c0,.07922-.11171.09751-.16453.08939a6.0005,6.0005,0,0,1-2.03738,1.35083l-.49567-.66832A4.0843,4.0843,0,0,0,32.77,25.10365h-2.0008v-.79217h6.7582v.79217Z"/><path class="cls-2" d="M43.19259,22.87175l.00608,1.74082h.89576a8.26191,8.26191,0,0,1-.90184-1.74082m-1.67783,1.74082H42.38l.00819-1.73072a6.8303,6.8303,0,0,1-.87345,1.73072M44.905,25.62208a6.24553,6.24553,0,0,1-.76583-.94858v.711h-.93445v1.69612H42.372V25.38447H41.4395V24.708a4.41118,4.41118,0,0,1-.72913.87754l-.518-.54236v1.98457h-.84307V22.84534a4.23133,4.23133,0,0,1-.59313.79422l-.52-.644A8.90513,8.90513,0,0,0,40.042,19.05084l.92626.43877a.135.135,0,0,1,.07315.11376c0,.08734-.11171.132-.1727.132a14.31889,14.31889,0,0,1-.67632,1.688v3.47152a8.0677,8.0677,0,0,0,1.87893-3.28667H40.59854v-.83489h1.71453v-1.688l.8856.063a.11317.11317,0,0,1,.11989.10767.17033.17033,0,0,1-.126.14624v1.3711h2.0292v.83489h-1.7733a8.15424,8.15424,0,0,0,2.141,3.26839Z"/><path class="cls-2" d="M51.20226,24.744a15.57539,15.57539,0,0,0-1.10294-1.39553l.652-.66832a11.56655,11.56655,0,0,1,1.04615,1.51133Zm-2.42743-.87754H47.5866v1.887h1.18823Zm0-2.34615H47.5866v1.59049h1.18823Zm4.21709,1.15984c-.0062.37783,0,.75566-.01426,1.12537-.061,1.64132-.12795,3.01243-1.78954,3.32728l-.56473-.75567a1.51535,1.51535,0,0,0,1.45231-1.38734,6.76623,6.76623,0,0,0,.05889-.8613c.00819-.20109,0-.39612,0-.59721,0-.66014.00819-1.30813.00819-1.96628H50.729a6.03522,6.03522,0,0,1-.72925,1.2736l-.41435-.37777v4.06459H46.78221V20.80728h.85113c.15027-.51793.28429-1.044.396-1.58032l.971.2722c.05282.01624.13006.05486.13006.132,0,.08734-.122.14016-.17481.14828-.16452.35142-.33711.69467-.53213,1.0278h1.16195v1.18836a8.08224,8.08224,0,0,0,.912-2.83978l.87754.37783a.16564.16564,0,0,1,.10563.132c0,.07922-.08939.10563-.1422.10563-.11989.33512-.22751.67638-.36773.99327h2.0375Z"/><path class="cls-2" d="M60.32626,22.64418a4.63736,4.63736,0,0,0-1.8281-1.00957l.43666-.87952a4.66791,4.66791,0,0,1,1.87286,1.01156Zm-1.99275,2.67929a1.276,1.276,0,0,0-.5403-.09546c-.2864,0-.63987.08734-.63987.50175,0,.40219.4348.589.72926.589.27622,0,.48352-.06292.48352-.44075,0-.18486-.01835-.36971-.03261-.55457M60.25113,26.589a6.74311,6.74311,0,0,0-1.02991-.90395c.00818.09751.00818.193.00818.28844,0,.90593-.579,1.15173-1.25741,1.15173a2.25492,2.25492,0,0,1-.713-.11376,1.40236,1.40236,0,0,1-.93234-1.24923A1.2539,1.2539,0,0,1,57.649,24.42969a3.48136,3.48136,0,0,1,.61544.05282c-.02232-.41441-.05282-.82875-.05282-1.23907a1.77767,1.77767,0,0,1,.09348-.59926h.67446c.04662,0,.264-.03248.264.07111,0,.01828,0,.0264-.00806.03453a1.11687,1.11687,0,0,0-.134.53627c0,.46716.02839.92217.06695,1.38735a5.68954,5.68954,0,0,1,1.63122,1.0482,10.15,10.15,0,0,1-.54849.86737m-2.07594-5.2002c-.36773.10564-.72926.193-1.097.26408a18.25824,18.25824,0,0,1-1.63928,4.11952c-.27821-.14016-.55457-.30673-.8267-.4733a14.35828,14.35828,0,0,0,1.50314-3.54058,8.21346,8.21346,0,0,1-1.11917.09751c-.03658-.30878-.08332-.61749-.11989-.93234a3.06616,3.06616,0,0,0,.41236.01829,6.918,6.918,0,0,0,1.044-.07111,9.25505,9.25505,0,0,0,.2032-1.52149c.35335.05282.69876.09751,1.044.17674-.08741.40424-.17667.8166-.30066,1.22084a8.55326,8.55326,0,0,0,.904-.29861c0,.30673-.00806.62362-.00806.94045"/><path class="cls-2" d="M68.19111,22.136v3.03883c0,1.42194-.15845,1.8891-1.41177,2.16942l-.54242-.79832c1.02173-.15026,1.06041-.51793,1.06041-1.625V22.136H65.88346v-.82671h1.39962V19.32466l.91609.0711c.04476,0,.11989.04265.11989.10359,0,.0711-.07513.11579-.11989.13408v1.67585h.91V22.136Zm-1.67585,2.7321a15.81926,15.81926,0,0,0-1.038-1.56408l.70682-.60738a13.8649,13.8649,0,0,1,.908,1.61894Zm-1.038,1.67783a13.87065,13.87065,0,0,0-1.05222-1.52955,5.78914,5.78914,0,0,1-1.64535,2.072l-.648-.60534a4.68135,4.68135,0,0,0,1.70015-2.09837,8.031,8.031,0,0,0-1.30205-1.44016l.51192-.80036a10.83151,10.83151,0,0,1,1.14967,1.37116,9.32491,9.32491,0,0,0,.33934-1.88916H62.37951v-.76372H63.7547V19.32466l.93445.0711a.1135.1135,0,0,1,.11778.10359c0,.0711-.07315.11579-.11778.13408v1.229H65.717v.76372H65.1542c.07526.03453.35149.12392.35149.23563a.09575.09575,0,0,1-.08121.08939,11.131,11.131,0,0,1-.59325,2.265,14.90989,14.90989,0,0,1,1.21067,1.64535Z"/><path class="cls-2" d="M72.91764,20.686c.0305.23562.06707.4733.09757.711-.21734.063-.4286.134-.648.193-.10563-.2986-.18485-.60533-.28429-.90394h-.30065a5.135,5.135,0,0,1-.91,1.08068l-.6297-.45706a4.86293,4.86293,0,0,0,1.32238-2.16948l.86328.20928c.05282.02027.11989.05282.11989.134,0,.09546-.09757.14828-.16254.17469-.063.132-.13006.262-.2032.386h1.45652V20.686Zm3.67677,6.4392a5.8641,5.8641,0,0,1-2.47416-1.84441v2.11865H73.257V25.24629a5.69921,5.69921,0,0,1-2.50664,1.816l-.52407-.65A5.89375,5.89375,0,0,0,73.257,23.93613v-.193H71.88785v1.5722h-.82063V23.07483H73.257v-.38595H70.41508v-.72107h2.81945v-.63987l.47944.05077-.36153-.2011a4.73409,4.73409,0,0,0,.98713-2.02925l.78815.16656c.07513.01823.189.03453.189.15641,0,.0812-.09956.132-.15238.15032-.05281.14215-.1117.28435-.17258.42247h1.99262v.65815h-.94659c-.09745.29049-.18684.5891-.29445.87958l-.65214-.06093.06707-.81865H74.624a4.11543,4.11543,0,0,1-.50981.713c.05889.01829.14009.06292.14009.14829,0,.0711-.08939.132-.134.16043v.24381h2.79713v.72107h-2.8032v.38595h2.38874v1.28178c0,.75764-.35347.977-.93234,1.11719l-.48749-.56269c.654-.21938.55655-.47329.55655-1.168H74.11418v.20314A4.36752,4.36752,0,0,0,75.37556,25.421a5.43278,5.43278,0,0,0,1.78148.90395Z"/><path class="cls-2" d="M84.26214,23.52494a.20623.20623,0,0,1-.11382-.04463c-.54031.18479-1.58646.59715-2.08213.82466v1.35288l-.8856-.00812c.00608-.12187.00608-.25391.00608-.4022V24.7539c-.5992.28237-.90184.64192-.90184,1.04616,0,.34937.34727.53621,1.02979.53621a6.665,6.665,0,0,0,2.18776-.35136l-.0305,1.02576a6.109,6.109,0,0,1-1.885.25391c-1.47476,0-2.21207-.46511-2.21207-1.40359a1.74019,1.74019,0,0,1,.61742-1.26553,5.42931,5.42931,0,0,1,1.14373-.7556c-.01637-.39612-.13613-.59722-.35558-.59722a1.0932,1.0932,0,0,0-.7719.33512,7.26493,7.26493,0,0,0-.58085.59517c-.27834.30877-.44894.52-.55668.62362-.134-.1564-.34529-.39407-.62362-.71909a6.37579,6.37579,0,0,0,1.89529-2.37863c-.39822.05077-.84307.0853-1.32238.11171-.0305-.33314-.07724-.63987-.12187-.91207a12.74858,12.74858,0,0,0,1.72247-.08933,7.04637,7.04637,0,0,0,.256-1.21272l1.01354.22751a.10724.10724,0,0,1,.08939.10767c0,.05282-.03657.09752-.11976.132-.03658.14829-.10564.37784-.2011.67644A12.25559,12.25559,0,0,0,82.8645,20.413l-.08319.96687c-.41447.0874-.971.17475-1.66172.27424a5.29487,5.29487,0,0,1-.46716.87549,1.57421,1.57421,0,0,1,.43071-.05889c.457,0,.75765.30673.89378.93848.60118-.3169,1.28581-.63987,2.0292-.973l.34739.98316c0,.06906-.0305.10557-.09137.10557"/><path class="cls-2" d="M69.62049,10.18051a5.91111,5.91111,0,0,0-1.76313-.10966,8.07372,8.07372,0,0,0-1.21675.2133c-.03249-.3291-.0548-.73533-.09547-1.06239a9.3,9.3,0,0,1,1.72458-.20717,6.30827,6.30827,0,0,1,1.43607.071c-.02839.36364-.04873.7313-.0853,1.09488m.27424,4.91169a6.22682,6.22682,0,0,1-1.38734.07519c-1.08682-.03453-2.10036-.20922-2.2324-1.8749.25589-.193.51191-.39612.77587-.581.00211.94455.44088,1.37117,1.1498,1.39349a4.86261,4.86261,0,0,0,1.71441-.20717c-.00608.39612-.01215.79019-.02034,1.19437m-4.8324.4286c-.27635.02845-.54849.065-.83092.09955a11.67439,11.67439,0,0,1-.394-3.45317,22.22468,22.22468,0,0,1,.394-3.88389l.66231.15435a1.883,1.883,0,0,1,.32693.08332.11179.11179,0,0,1,.08543.11784.12605.12605,0,0,1-.124.11983,17.9833,17.9833,0,0,0-.44076,4.03211c0,.32911.01624.65.01624.98112.13614-.41434.26607-.83482.41026-1.24718.19105.17264.382.35545.56882.53218a8.58837,8.58837,0,0,0-.67433,2.46394"/></svg>