<svg id="レイヤー_1" data-name="レイヤー 1" xmlns="http://www.w3.org/2000/svg" width="95" height="95.00397" viewBox="0 0 95 95.00397"><defs><style>.cls-1{fill:#cb1072;}.cls-2{fill:#fff;}</style></defs><title>sdgs_10</title><rect class="cls-1" width="95" height="95.00397"/><path class="cls-2" d="M57.308,63.992H38.318a.20813.20813,0,0,0-.20717.20729v4.30208a.2073.2073,0,0,0,.20717.20927h18.99a.20772.20772,0,0,0,.20914-.20927V64.19926A.20855.20855,0,0,0,57.308,63.992"/><path class="cls-2" d="M68.50431,57.792a21.99277,21.99277,0,0,0-4.07061-8.30562l-.04463.03248a20.27749,20.27749,0,0,1,1.62284,2.88231A20.16124,20.16124,0,0,1,31.9485,73.83452,19.031,19.031,0,0,1,59.57708,47.88978l.11976.10773a.70826.70826,0,0,0,.43268.15634.73462.73462,0,0,0,.47532-.18274L60.68,47.896l2.41715-2.38678.15844-.15844a.71132.71132,0,0,0,.15435-.42858.72953.72953,0,0,0-.19489-.48946l-.07525-.06905A23.38151,23.38151,0,1,0,33.10011,80.16992a22.06092,22.06092,0,0,0,35.4042-22.378"/><path class="cls-2" d="M57.51735,56.1075a.20678.20678,0,0,0-.20927-.20506H38.31825a.20623.20623,0,0,0-.20717.20506v4.30418a.208.208,0,0,0,.20717.20717H57.30808a.20848.20848,0,0,0,.20927-.20717Z"/><polygon class="cls-2" points="9.17 12.479 9.17 27.157 12.394 27.157 12.394 7.982 9.82 7.982 6.851 11.462 6.851 14.827 6.877 14.827 9.14 12.479 9.17 12.479"/><path class="cls-2" d="M17.85161,22.71666V12.42248c0-1.1598.4245-1.98039,1.52751-1.98039,1.1314,0,1.55391.82059,1.55391,1.98039V22.71666c0,1.1619-.42251,1.97853-1.55391,1.97853-1.103,0-1.52751-.81663-1.52751-1.97853m6.307-.5078V12.93239c0-2.9981-1.49713-5.17561-4.7795-5.17561-3.252,0-4.751,2.17751-4.751,5.17561v9.27647c0,2.96773,1.499,5.17362,4.751,5.17362,3.28237,0,4.7795-2.20589,4.7795-5.17362"/><path class="cls-2" d="M37.14965,15.76064A7.60305,7.60305,0,0,1,34.375,11.938a9.63414,9.63414,0,0,1-.40626,1.15173,5.77106,5.77106,0,0,1-1.631,2.1449,4.36225,4.36225,0,0,1-.77385.49975l-.67443-.7922a4.10378,4.10378,0,0,0,.90391-.516,5.63731,5.63731,0,0,0,1.86062-3.45309A16.07,16.07,0,0,0,33.77367,8.231l1.04413.11579c.06087.00806.14418.04265.14418.12993a.17876.17876,0,0,1-.13613.16054c-.01413.35953-.0243.71088-.0243,1.06843a6.602,6.602,0,0,0,1.17405,3.39407,6.42557,6.42557,0,0,0,1.956,1.79158Z"/><path class="cls-2" d="M42.87819,13.08525a3.88938,3.88938,0,0,1-.89176-.10352,6.7219,6.7219,0,0,0-.28638-.91407,3.60325,3.60325,0,0,0,.95672.15435c.587,0,1.14355-.23146,1.14355-1.06842a.733.733,0,0,0-.70083-.80225,1.49062,1.49062,0,0,0-.44272.069c.08728.268.17865.53422.27411.80225-.24981.12187-.50371.23369-.74534.33721-.09955-.28638-.19911-.57078-.30064-.85518a10.02368,10.02368,0,0,0-1.00755.53632c.24584.66414.47532,1.34464.6805,2.02514.19291.64591.42858,1.27757.58492,1.93365-.264.15435-.54227.256-.8206.38593a38.40513,38.40513,0,0,0-1.16388-3.93845c-.38594.2477-.77187.5078-1.14355.77385-.15026-.30064-.30672-.5952-.44284-.9039.41445-.23357.83485-.47533,1.25736-.69873-.20716-.49156-.44284-.98511-.69464-1.45237.10762-.03038.845-.30672.89374-.30672.05071,0,.05071.03459.07315.08542.16241.42858.31279.8713.47731,1.302.32084-.1727.63574-.33523.96279-.49156a9.96025,9.96025,0,0,0-.642-1.29393c.27833-.10352.55665-.22341.837-.31887a14.625,14.625,0,0,1,.61542,1.3284,3.06185,3.06185,0,0,1,.8775-.1117A1.49006,1.49006,0,0,1,44.70014,11.18a1.76588,1.76588,0,0,1-1.822,1.90526"/><path class="cls-2" d="M47.55889,14.251v-.75352h1.45436V12.20552H47.86151v-.717h1.15174v-.90589H47.634V9.829h3.78212v.74348h-1.568v.90788h1.18818v.61752l.37986.2234a.08277.08277,0,0,1,.03856.06509c0,.0812-.09137.11567-.15225.11567-.12806.29667-.256.59322-.37577.89783l-.62359-.23357c.09744-.31477.18881-.63785.28031-.96081h-.74349v1.31017h1.59656v.7353Zm4.162-5.18366h-4.428v5.92094h4.428Zm-5.29946-.845h6.185v7.57032h-6.185Z"/><path class="cls-2" d="M55.65821,11.25438a3.50784,3.50784,0,0,0-.19489,1.17405c0,.35134.06286,1.25934.457,1.25934.14009,0,.26-.16253.34329-.27423a7.63707,7.63707,0,0,0,1.0135-3.69881,2.58471,2.58471,0,0,0-1.61888,1.53965M58.13438,15.203c-.21746-.2477-.41445-.51388-.63377-.75551,1.11306-.323,2.13883-.79418,2.13883-2.42124a2.24628,2.24628,0,0,0-1.46861-2.32777c-.19093,1.48077-.56261,3.83494-1.6676,4.70637a.85692.85692,0,0,1-1.40564-.22142,3.15305,3.15305,0,0,1-.45089-1.755,3.31379,3.31379,0,0,1,3.09963-3.57695,2.81415,2.81415,0,0,1,2.80718,3.11588A3.09094,3.09094,0,0,1,58.13438,15.203"/><path class="cls-2" d="M68.367,13.77976a10.07025,10.07025,0,0,1-2.38864-2.55724c.23965-.21944.46516-.455.69873-.68249a7.13359,7.13359,0,0,0,2.32169,2.44963ZM66.32569,9.23792c-.14629.2803-.28651.56272-.44495.83286v5.74838h-.91V11.381a8.00219,8.00219,0,0,1-2.42732,2.27693l-.6438-.60735a8.09233,8.09233,0,0,0,3.30482-3.81262H62.33231V8.36054h6.185v.87738Z"/><path class="cls-2" d="M75.8392,10.24819c-.26208.55442-.52615,1.107-.82468,1.64317l-.67034-.31477c.24981-.65819.47532-1.33658.67034-2.02316l.9018.41445a.1761.1761,0,0,1,.10562.15026c0,.09546-.12186.13-.18274.13M71.64672,11.8569c-.26407-.6236-.53421-1.25736-.849-1.84438l.80435-.44074a10.54038,10.54038,0,0,1,.7048,1.89918Zm2.14912,1.19426v2.8823h-.91011v-2.8823H70.03V12.19h2.85577V9.27523H70.428v-.845h5.83367v.845h-2.474V12.19h2.85788v.86114Z"/><path class="cls-2" d="M83.39651,9.48426l-.23965.75563-.65409-.06906.03049-.713h-.48945a7.20576,7.20576,0,0,1-.58095.74955l-.75774-.27225a6.3351,6.3351,0,0,0,1.032-2.023l.88754.26407a.11243.11243,0,0,1,.08939.09744c0,.07922-.09744.09546-.15236.09546-.05282.132-.11171.256-.17258.37788h1.99254v.73729ZM82.842,12.55141l-.008.526h1.48076v.78414H82.842c0,1.34254.13415,2.09817-1.23293,2.33384L81.09726,15.45c.51995-.09757.89374-.1422.89374-.86944v-.71894H79.79725c.22539.20915.43466.43057.64591.65608.15844.16849.323.31676.47322.50161l-.56459.63376a16.08289,16.08289,0,0,0-1.26951-1.23083l.5057-.56062H78.18643v-.78414H81.991v-.53421H77.963V11.804h2.76651v-.52615H78.7349v-.74745h1.97022V9.93515h.9344c.03658.00608-.17666.16055-.17666.2032,0,.06087.09744-.20716.11369-.26208v.65409H83.7662v.74745H81.5644V11.804h2.91479v.74745ZM80.2929,9.44967l.08319.60735-.61542.16452L79.521,9.43343h-.21336a6.1583,6.1583,0,0,1-.80436,1.05218l-.654-.42859A4.98275,4.98275,0,0,0,78.9624,7.86947l.86535.28031c.04264.01823.09744.05282.09744.11369,0,.07922-.08331.132-.1422.1422a1.76936,1.76936,0,0,1-.16042.3149h1.45832v.7291Z"/><path class="cls-2" d="M37.48872,23.33233a.19158.19158,0,0,1-.10971-.04265c-.54438.18485-1.5885.59719-2.084.82679v1.3527l-.88767-.01c.00818-.124.00818-.2539.00818-.40429v-.49156c-.59929.28242-.90192.642-.90192,1.04611,0,.34936.34527.53619,1.02987.53619a6.67252,6.67252,0,0,0,2.18755-.35135L36.7026,26.82a6.152,6.152,0,0,1-1.887.25588c-1.47469,0-2.212-.46515-2.212-1.40762a1.73574,1.73574,0,0,1,.61752-1.26343,5.38231,5.38231,0,0,1,1.14157-.75563c-.01426-.394-.13414-.59508-.35345-.59508a1.09607,1.09607,0,0,0-.774.331,6.84531,6.84531,0,0,0-.57885.5993c-.27832.30671-.45089.518-.55652.62149-.13613-.15844-.3454-.394-.62571-.71906a6.32565,6.32565,0,0,0,1.8972-2.38058c-.40019.05281-.84291.0874-1.3243.11579-.02852-.3351-.07315-.64393-.11989-.91605a13.07039,13.07039,0,0,0,1.72041-.0874,6.91058,6.91058,0,0,0,.256-1.2105l1.01561.22749c.06087.01823.09137.05071.09137.10563,0,.05281-.03856.09546-.12187.12993-.03856.15038-.10563.37787-.20109.67839a12.48119,12.48119,0,0,0,1.40353-.32494l-.08319.96689c-.41234.08727-.969.17468-1.65954.27014a5.49328,5.49328,0,0,1-.46714.87948,1.50975,1.50975,0,0,1,.42859-.06087c.459,0,.7596.30672.89572.93837.60128-.3149,1.28575-.63984,2.02923-.97494l.34527.98312c0,.073-.03049.10551-.09137.10551"/><path class="cls-2" d="M44.93829,22.454a4.62712,4.62712,0,0,0-1.82814-1.01164l.43478-.87738a4.62568,4.62568,0,0,1,1.87476,1.01152Zm-2.0089,2.9371a1.29107,1.29107,0,0,0-.54028-.09546c-.2844,0-.64182.08728-.65807.49962-.01624.40627.41631.58914.71088.58914.27622,0,.48351-.061.49566-.43875.00805-.18485-.00211-.3697-.00819-.55455m1.87079,1.26542a6.441,6.441,0,0,0-.99738-.9039c.00409.09757,0,.193-.002.28849-.03459.90589-.62149,1.15173-1.3,1.15173a2.19207,2.19207,0,0,1-.713-.11381,1.33918,1.33918,0,0,1-.88556-1.24719,1.312,1.312,0,0,1,1.37315-1.33448,3.71824,3.71824,0,0,1,.6174.05083c-.01017-.41234-.0243-.82468-.00806-1.23913a1.84822,1.84822,0,0,1,.1117-.59719h.6784c.04475,0,.26407-.03447.26.07116,0,.01822,0,.02641-.008.03657a1.11875,1.11875,0,0,0-.15646.53421c-.01624.46516-.00409.92213.01624,1.38729a5.3774,5.3774,0,0,1,1.59457,1.04611c-.18484.30064-.37577.59719-.581.86931m-2.10225-5.3726c-.36771.10563-.72724.193-1.09694.26208a18.11116,18.11116,0,0,1-1.64118,4.12132c-.27833-.14009-.55653-.30671-.82667-.47321a14.36324,14.36324,0,0,0,1.50506-3.5405,7.62434,7.62434,0,0,1-1.12123.09348c-.03658-.30473-.08332-.61343-.11977-.9282a3.4658,3.4658,0,0,0,.41433.01624,6.67048,6.67048,0,0,0,1.044-.07117,9.20542,9.20542,0,0,0,.2032-1.51733c.35543.05281.70071.09546,1.046.17468-.08939.40428-.17865.81861-.30052,1.22079a7.35509,7.35509,0,0,0,.90378-.30064c0,.3108-.01.6257-.01.94246"/><path class="cls-2" d="M50.60993,27.22962a14.504,14.504,0,0,0-2.208-2.606,7.17778,7.17778,0,0,0-.63984-.585,1.8374,1.8374,0,0,1-.36969-.34119.76532.76532,0,0,1-.132-.47743,1.0111,1.0111,0,0,1,.36163-.73926c.37168-.37986.75353-.72923,1.11913-1.11715.5383-.587,1.08466-1.17206,1.61081-1.79157.21523.18894.42859.3697.64183.55851a1.64206,1.64206,0,0,1,.24373.21535.10841.10841,0,0,1,.03459.07922c-.00211.124-.16662.14022-.24993.11988-.50781.46305-1.02776.91606-1.54362,1.38927-.21535.195-.41445.41036-.62968.60947a3.98625,3.98625,0,0,0-.30671.28229.56827.56827,0,0,0-.18894.34738.32709.32709,0,0,0,.12993.266c.30882.30473.65607.56868.971.85717a15.32842,15.32842,0,0,1,1.95609,2.19573c-.27014.23964-.53223.49764-.80026.73728"/><path class="cls-2" d="M56.67742,23.39072a2.06646,2.06646,0,0,0-.6298,1.90327c.16055.85519,1.19847.94656,1.74086.93242.17469-.00409.35334-.01835.53422-.04066-.07526.33721-.16464.66215-.23767.99118l-.15844.00211c-1.06234.02839-2.58576-.126-2.76254-1.75711a3.00021,3.00021,0,0,1,.56681-2.275,15.585,15.585,0,0,0-2.62035.67641c-.0569-.33312-.1381-.65806-.21125-.98312a6.77687,6.77687,0,0,0,1.38741-.36561,9.93948,9.93948,0,0,0,1.77521-1.87277,12.54292,12.54292,0,0,1-1.5823.08133c-.00409-.30883-.01624-.62162-.04265-.92424a9.86994,9.86994,0,0,0,2.38467-.07315,2.26555,2.26555,0,0,0,.5931-.22749c.16042.27423.31688.55652.46106.83683a20.57094,20.57094,0,0,0-2.23428,2.11044c1.11106-.17059,2.23019-.30064,3.34337-.40218-.00608.35346.004.70691-.00608,1.05826a3.93564,3.93564,0,0,0-2.30135.329"/><path class="cls-2" d="M64.30774,20.79814a11.19951,11.19951,0,0,0-2.17131-.8227c.14617-.329.28229-.65806.42859-.98709a8.28792,8.28792,0,0,1,2.22412.83274c-.15224.329-.30461.65819-.4814.977m-1.34253,6.67857c-.2844-.26-.56682-.53012-.86944-.76369a3.69113,3.69113,0,0,0,2.212-1.56408,3.6669,3.6669,0,0,0,.3149-1.38927c.05281-.79828-.17679-1.27162-.88965-1.32034a6.3994,6.3994,0,0,0-2.2323.81452c-.04265-.13811-.34937-1.08665-.3454-1.16587.00409-.063.08133-.04872.1117-.04674a4.95843,4.95843,0,0,0,.96689-.197,5.243,5.243,0,0,1,1.81388-.33722c1.22687.08121,1.6981,1.08467,1.60871,2.42125a4.0098,4.0098,0,0,1-2.69126,3.54843"/></svg>