<svg id="レイヤー_1" data-name="レイヤー 1" xmlns="http://www.w3.org/2000/svg" width="95" height="95.00403" viewBox="0 0 95 95.00403"><defs><style>.cls-1{fill:#da3b1c;}.cls-2{fill:#fff;}</style></defs><title>sdgs_05</title><rect class="cls-1" width="95" height="95.00403"/><path class="cls-2" d="M47.16006,68.93947A11.38291,11.38291,0,1,1,58.543,57.55653,11.39422,11.39422,0,0,1,47.16006,68.93947m21.86-32.991H57.2146a.15131.15131,0,0,0-.15038.15032v3.92228a.15172.15172,0,0,0,.15038.15237h4.70016l-5.22024,5.22024a15.4587,15.4587,0,1,0-11.5291,27.49449v4.51947H40.50778a.14922.14922,0,0,0-.15237.15032v4.20463a.148.148,0,0,0,.15237.15032h4.65764v4.45035a.14821.14821,0,0,0,.15025.14828h4.20265a.15139.15139,0,0,0,.15237-.14828V81.91289h4.65553a.14873.14873,0,0,0,.15026-.15032V77.55794a.15.15,0,0,0-.15026-.15032H49.67069V72.813A15.44828,15.44828,0,0,0,59.79825,48.66184l5.1471-5.1471v4.39153a.15174.15174,0,0,0,.15236.15032h3.92234a.15219.15219,0,0,0,.15435-.15032V36.09877a.15219.15219,0,0,0-.15435-.15032"/><path class="cls-2" d="M54.11335,52.88457H40.30706a.14362.14362,0,0,0-.15026.13612V56.362a.1423.1423,0,0,0,.15026.13613H54.11335a.14282.14282,0,0,0,.15224-.13613V53.02069a.14412.14412,0,0,0-.15224-.13612"/><path class="cls-2" d="M54.11335,58.85189H40.30706a.14549.14549,0,0,0-.15026.14015v3.34139a.14357.14357,0,0,0,.15026.13606H54.11335a.14408.14408,0,0,0,.15224-.13606V58.992a.146.146,0,0,0-.15224-.14015"/><path class="cls-2" d="M14.809,14.02678a2.90412,2.90412,0,0,0-2.71172,1.32846h-.02852V10.57983h5.53712V7.95347H9.13167V18.74535h2.9371V18.3208c0-1.1314.50992-1.75091,1.41171-1.75091.9892,0,1.38531.67846,1.38531,1.7245v4.63117c0,1.01766-.36759,1.7245-1.35679,1.7245-1.103,0-1.495-.73325-1.495-1.86261v-2.403H9.07278V22.56c0,2.90871,1.15781,4.77535,4.43622,4.77535,3.24989,0,4.57631-1.7245,4.57631-4.37925V18.264c0-3.02247-1.5518-4.23718-3.2763-4.23718"/><path class="cls-2" d="M32.967,9.78874c-.20518-.40422-.40825-.82469-.63983-1.21267l.54226-.325a8.50132,8.50132,0,0,1,.5931,1.17814Zm-.95473.37775a9.87046,9.87046,0,0,0-.63166-1.1862l.5626-.29859a10.82381,10.82381,0,0,1,.581,1.13345Zm-2.27905.47328A7.33842,7.33842,0,0,0,28.0941,9.56936c.18274-.29859.34528-.60531.51388-.91407A6.5317,6.5317,0,0,1,30.3,9.71764c-.18286.31688-.36164.62353-.56682.92213m-2.19362,5.22836c-.061-.10358-.52615-1.01765-.52615-1.07245s.06707-.06707.10563-.07519a8.91894,8.91894,0,0,0,1.41171-.42859A11.84909,11.84909,0,0,0,32.583,11.18824c.0305.46515.07513.94041.13613,1.41574a10.63768,10.63768,0,0,1-5.17958,3.26415m1.14157-3.24184a9.58275,9.58275,0,0,0-1.751-1.31011c.18894-.29047.35953-.59514.54847-.89374a7.65087,7.65087,0,0,1,1.77322,1.2736Z"/><polygon class="cls-2" points="34.891 15.551 34.891 14.726 36.9 14.726 36.9 12.1 35.259 12.1 35.259 11.236 39.5 11.236 39.5 12.1 37.808 12.1 37.808 14.726 39.868 14.726 39.868 15.551 34.891 15.551"/><path class="cls-2" d="M43.71738,11.53574A9.67864,9.67864,0,0,0,42.2143,9.90261c.29444-.24578.57277-.50979.85717-.76369a8.54416,8.54416,0,0,1,1.45225,1.60666,6.1659,6.1659,0,0,1-.80634.79016m.1727,3.54849a6.42687,6.42687,0,0,1-1.32232.47532c-.04476-.10562-.518-1.09885-.518-1.09885,0-.03453.03657-.03453.06087-.03453a1.37372,1.37372,0,0,0,.32295-.04469,7.63766,7.63766,0,0,0,2.39682-1.03594,13.31821,13.31821,0,0,0,2.80309-2.32777c.063.43063.13811.86126.2032,1.29183a12.79451,12.79451,0,0,1-3.94664,2.77463"/><path class="cls-2" d="M55.07962,9.35892a10.62453,10.62453,0,0,0-.61752-1.17814l.54239-.32494a7.05157,7.05157,0,0,1,.58492,1.15979Zm-1.02379.2539c-.18485-.388-.3961-.76375-.61542-1.13345l.56471-.3087a10.98132,10.98132,0,0,1,.5626,1.12527Zm.30275.86119c-.0305.10563-.05282.2174-.08542.323a7.20866,7.20866,0,0,1-.2539.82667,10.5586,10.5586,0,0,1-.66216,1.5275c.33722.26407.67443.54636.99131.845-.193.26407-.40428.518-.6236.76375-.2844-.28031-.57685-.55454-.86944-.81656a6.45511,6.45511,0,0,1-2.75225,2.082c-.21126-.24572-.43875-.48338-.67034-.71088-.00608-.01016-.02232-.0264-.02232-.04469,0-.03453.0305-.03453.04674-.04469a2.6129,2.6129,0,0,0,.43466-.14828,5.45791,5.45791,0,0,0,2.18557-1.74886c-.29854-.24578-.62149-.455-.93639-.67436.187-.24783.35147-.50173.5383-.74751.30064.2092.59521.43063.88767.65812a6.17173,6.17173,0,0,0,.64789-1.77527c-.51177,0-1.01561.00812-1.52539.02641a9.06368,9.06368,0,0,1-1.58639,2.11651c-.24982-.19092-.50372-.38594-.76779-.56266A7.257,7.257,0,0,0,51.40312,8.585l1.0135.43063a.09393.09393,0,0,1,.061.09546c0,.07922-.08331.10563-.13613.10563-.09744.22954-.18683.457-.2844.67641.70493-.01829,1.40564-.01829,2.11255-.10563a4.78354,4.78354,0,0,0,.32295.388c-.04475.09546-.09756.20109-.134.29853"/><path class="cls-2" d="M62.45964,12.75727c-.42871-.02634-.79828-.03651-1.14157-.03651-.39821-.00614-3.93251,0-4.88513.03651-.01426-.35134-.03249-.80026-.04067-1.06228-.00806-.132.05282-.0711.09757-.06707.12794.01828.3697.0264.43664.03049.45908.0142,1.63313-.01624,2.15718-.01624,1.09086,0,2.16535-.0264,3.384-.04264-.02442.34936,0,.8064-.008,1.15774"/><path class="cls-2" d="M70.23576,10.53272c-.26209.55652-.52616,1.109-.82667,1.64323l-.66836-.31484c.24783-.65812.47334-1.33447.66836-2.02105l.90378.41439a.17936.17936,0,0,1,.10563.14828c0,.0975-.12187.13-.18274.13m-4.19447,1.6087c-.26407-.62359-.53223-1.25729-.847-1.84432l.80225-.4367a10.39458,10.39458,0,0,1,.7069,1.89509Zm2.1511,1.19637v2.88032h-.9101V13.33779H64.42651v-.8612h2.85578V9.55976h-2.4577v-.843h5.83367v.843H68.18421v2.91683h2.8559v.8612Z"/><path class="cls-2" d="M77.7095,9.77163l-.23965.75359-.652-.06906.02839-.71292H76.3568a7.72946,7.72946,0,0,1-.46515.80026l-.87354-.325a6.30423,6.30423,0,0,0,1.032-2.02105l.88555.26407c.03658.01016.09137.04469.09137.09751,0,.07922-.09744.0975-.15025.0975-.05493.13-.11381.2539-.17469.37577h1.99254v.73933ZM77.155,12.83674l-.01005.52814h1.48275v.782H77.155c0,1.3426.13414,2.09823-1.23294,2.33589l-.51177-.74751c.51784-.09751.89572-.14016.89572-.86938v-.719H74.11024c.22539.20921.43466.42859.64393.65807.16042.16656.32494.31688.4752.49968l-.5626.63376a15.74625,15.74625,0,0,0-1.2715-1.2289l.50372-.56261H72.50153v-.782H76.306v-.53626H72.274v-.73734h2.7685V11.5632H73.04789v-.74751h1.97022V10.2185l.91.12391c.03868.00812.03868-.03855.03868.00812,0,.06094-.03049.17469-.07512.193v.27219h2.18754v.74751h-2.2018v.52808h2.91479v.74546ZM74.60589,9.73506l.08121.60735-.61542.16657-.24175-.79016h-.20927a5.98647,5.98647,0,0,1-.80225,1.05422l-.65607-.43063A4.95169,4.95169,0,0,0,73.27539,8.1548l.86535.28031a.13573.13573,0,0,1,.09744.1158c0,.07922-.08529.13-.1422.14015a1.704,1.704,0,0,1-.16042.31484H75.396v.72916Z"/><path class="cls-2" d="M85.83151,12.4676a.1862.1862,0,0,1-.10773-.04264c-.518.1828-1.51523.59719-1.98646.82468v1.35282l-.84911-.00812c.00818-.12391.00818-.256.00818-.40627v-.49156c-.57289.2844-.86126.64188-.86126,1.04611,0,.35141.331.53619.981.53619a6.11346,6.11346,0,0,0,2.09221-.34936l-.02851,1.02577a5.6157,5.6157,0,0,1-1.80162.25595q-2.11141,0-2.11043-1.40564a1.7651,1.7651,0,0,1,.589-1.26541,5.14454,5.14454,0,0,1,1.08875-.75564c-.01426-.394-.12794-.59712-.33511-.59712a1.02416,1.02416,0,0,0-.73939.33306,6.95352,6.95352,0,0,0-.55256.59923c-.26605.30672-.43056.51593-.5321.62155-.13005-.15844-.329-.394-.59521-.719A6.30089,6.30089,0,0,0,81.899,10.63952c-.37987.05486-.80436.08939-1.26344.11784-.02641-.33517-.06905-.64393-.11369-.91612a11.93926,11.93926,0,0,0,1.64318-.08734,7.14813,7.14813,0,0,0,.24373-1.21056l.969.22545a.10889.10889,0,0,1,.08727.10563c0,.05486-.03657.09751-.11579.132-.03657.15032-.10153.37782-.1929.67641a10.68044,10.68044,0,0,0,1.34054-.325l-.07922.96683c-.394.08734-.92622.17468-1.58639.27423a5.56011,5.56011,0,0,1-.44271.8775,1.36566,1.36566,0,0,1,.40825-.06094c.43664,0,.72513.30467.85506.93639.57289-.31285,1.22487-.63984,1.93575-.973l.32916.98313c0,.069-.02852.10556-.0853.10556"/><path class="cls-2" d="M32.50863,21.8815V20.78264H27.87132V21.8815h-.82878V20.01077H29.7136v-.9486l.93242.059a.10883.10883,0,0,1,.11976.10563.18835.18835,0,0,1-.12795.15026v.63376H33.376V21.8815Zm.67641,5.32178a5.53326,5.53326,0,0,1-1.77335-.782,3.827,3.827,0,0,1-1.21868-1.3,4.42555,4.42555,0,0,1-2.85788,2.02924l-.50781-.77188A3.61,3.61,0,0,0,29.4049,24.8227H26.86377v-.782H29.6893c.00806-.16656.01624-.33312.01624-.49968H27.5646v-.75359h2.16524v-.5484H28.02976v-.7516h1.70008V20.9228l.8775.063a.0838.0838,0,0,1,.09137.08734.14326.14326,0,0,1-.09745.12187v.29246h1.75091v.7516H30.583v.5484h2.26268V23.541h-2.275c-.00805.16656-.00805.33312-.00805.49968h2.95334v.782H30.94653a4.10767,4.10767,0,0,0,2.7442,1.52143Z"/><path class="cls-2" d="M40.54286,23.00745h-2.015v.7211h2.015Zm-2.015-1.37105v.66619h2.00679l.00818-.66619ZM40.53468,20.247H38.52789v.68453h2.00679Zm1.434,6.69493a3.0395,3.0395,0,0,1-1.27757.23561c-.57686,0-1.18013-.11176-1.18013-.95672V24.411H38.8346c.06906.05479.42859.31682.42859.40416,0,.05281-.06707.08734-.10365.0975a7.60074,7.60074,0,0,1-.47321.86938,4.51638,4.51638,0,0,1-1.84228,1.58032l-.648-.61343A3.60679,3.60679,0,0,0,38.36945,24.411h-.66823V19.47315h3.69683V24.411H40.34587v1.51932c0,.29047.08318.48344.35333.48344a2.18575,2.18575,0,0,0,1.34674-.56874Zm-4.50106-2.206c-.69885.34329-1.41382.63376-2.1206.95876-.01426.05282-.05282.13-.10563.13-.02851,0-.069-.02436-.09955-.08734l-.327-.8775c.3656-.12391.7353-.24578,1.103-.3798V22.60323h-.86337v-.76574h.86337V20.31606h-.93031v-.75557h2.48819v.75557H36.775v1.52143h.62347v.76574h-.64591v1.64125c.24175-.10563.48747-.21938.72922-.327Z"/><path class="cls-2" d="M47.5569,26.29169a3.4941,3.4941,0,0,1-1.99265.59719c-1.06644,0-1.73678-.71094-1.79567-1.96012-.01624-.16656-.00806-.33312-.00806-.49968,0-.47328.00806-.94854.02232-1.434.02232-1.12935.03657-2.27291.05281-3.40635.23159.03453.47322.07922.70691.132a1.73911,1.73911,0,0,1,.29246.06094c.06087.0264.134.063.134.14015a.18.18,0,0,1-.1096.15032c-.09149,1.52949-.15844,3.07323-.15844,4.60272,0,.782.30052,1.25736.99937,1.25736a2.07951,2.07951,0,0,0,.95461-.256,3.625,3.625,0,0,0,1.51126-1.83422l.54835,1.14157a4.28485,4.28485,0,0,1-1.15769,1.30807"/><path class="cls-2" d="M52.97377,24.99763a2.33284,2.33284,0,0,0-.99317-.22545c-.26208,0-.66835.193-.66835.5525,0,.54437.52615.68453.89585.68453a.67311.67311,0,0,0,.76567-.76375Zm2.62444,1.66152A8.71972,8.71972,0,0,0,53.89193,25.412a1.42169,1.42169,0,0,1-1.625,1.46855c-.74348,0-1.885-.43875-1.885-1.495a1.45536,1.45536,0,0,1,1.64528-1.42188,3.84834,3.84834,0,0,1,.93849.11177c0-1.22686-.05281-2.46594-.15038-3.68666-.02839-.30064-.04463-.59719-.09745-.88767l1.00135.14828c.04476.01016.126.05281.126.12391a.17093.17093,0,0,1-.0812.12187v.33517c0,.38593-.01017.77385.00806,1.1578h.09149a8.07422,8.07422,0,0,0,1.03582-.05083c.26816-.03651.53223-.0975.79629-.14015,0,.34124-.01425.68453-.02231,1.03594-.42053.03453-.84911.06093-1.27162.06093-.195,0-.3899-.01016-.591-.01828.02021.70486.02839,1.40563.05281,2.11651a12.60906,12.60906,0,0,1,2.35207,1.33658Z"/><path class="cls-2" d="M61.36778,20.67665a11.01236,11.01236,0,0,0-2.12866-.79016c.14419-.31688.27833-.63172.4204-.9486a8.3498,8.3498,0,0,1,2.1816.79828c-.15038.31483-.30064.63376-.47334.94048m-1.31612,6.33329c-.27833-.2539-.55454-.51791-.84911-.74745a3.62253,3.62253,0,0,0,2.16523-1.5275,2.82947,2.82947,0,0,0,.29259-1.29183c0-.78-.256-1.23095-.95263-1.23095a6.2001,6.2001,0,0,0-2.12879.94252c-.05281-.132-.41432-1.038-.41432-1.1172,0-.06094.07513-.05077.10562-.05077a4.81789,4.81789,0,0,0,.9323-.25595,5.12218,5.12218,0,0,1,1.75091-.44681c1.20244,0,1.72859.94854,1.72859,2.25667a3.755,3.755,0,0,1-2.63039,3.46927"/></svg>