<svg id="レイヤー_1" data-name="レイヤー 1" xmlns="http://www.w3.org/2000/svg" width="95" height="95.00397" viewBox="0 0 95 95.00397"><defs><style>.cls-1{fill:#ea9c00;}.cls-2{fill:#fff;}</style></defs><title>sdgs_11</title><rect class="cls-1" width="95" height="95.00397"/><path class="cls-2" d="M16.3437,72.062H30.63523a.34935.34935,0,0,0,.258-.58492l-.02033-.02033-7.10925-9.19936-.06906-.07513a.34657.34657,0,0,0-.258-.11381.36033.36033,0,0,0-.23146.08939l-.04265.04872-.06707.07526-6.93656,9.10179-.10563.13a.36407.36407,0,0,0-.061.197.35148.35148,0,0,0,.35147.35135"/><path class="cls-2" d="M30.59134,73.35944H16.27328a.35159.35159,0,0,0-.35147.35148V84.91508a.35286.35286,0,0,0,.35147.35147h4.60879V78.21619a.34935.34935,0,0,1,.34937-.34937h4.27777a.34969.34969,0,0,1,.35135.34937v7.05036h4.73078a.35284.35284,0,0,0,.35135-.35147V73.71092a.35156.35156,0,0,0-.35135-.35148"/><path class="cls-2" d="M78.79379,75.01464a.34081.34081,0,0,1-.34738.33511h-4.233a.3403.3403,0,0,1-.34527-.33511V72.43905a.34078.34078,0,0,1,.34527-.33721h4.233a.34128.34128,0,0,1,.34738.33721Zm0,4.7531a.34167.34167,0,0,1-.34738.3392h-4.233a.34118.34118,0,0,1-.34527-.3392V77.19612a.34118.34118,0,0,1,.34527-.3392h4.233a.34167.34167,0,0,1,.34738.3392Zm-6.47153-4.7531a.3403.3403,0,0,1-.34527.33511H67.744a.34255.34255,0,0,1-.34936-.33511V72.43905a.343.343,0,0,1,.34936-.33721h4.233a.34078.34078,0,0,1,.34527.33721Zm0,4.7531a.34117.34117,0,0,1-.34527.3392H67.744a.34339.34339,0,0,1-.34936-.3392V77.19612a.34339.34339,0,0,1,.34936-.3392h4.233a.34117.34117,0,0,1,.34527.3392Zm7.7553-9.34168H65.90566a.33952.33952,0,0,0-.34527.33721v14.31a.34068.34068,0,0,0,.34527.33709h14.1719a.33943.33943,0,0,0,.34527-.33709v-14.31a.33829.33829,0,0,0-.34527-.33721"/><path class="cls-2" d="M45.11285,47.37974a.18329.18329,0,0,1-.18485.18076H41.75324a.17985.17985,0,0,1-.18076-.18076V43.83937a.17861.17861,0,0,1,.18076-.18075H44.928a.182.182,0,0,1,.18485.18075Zm0,8.12487a.18508.18508,0,0,1-.18485.18286H41.75324a.18164.18164,0,0,1-.18076-.18286V51.96424a.17818.17818,0,0,1,.18076-.17878H44.928a.18163.18163,0,0,1,.18485.17878Zm0,8.127a.18369.18369,0,0,1-.18485.18274H41.75324a.18029.18029,0,0,1-.18076-.18274V60.09319a.18164.18164,0,0,1,.18076-.18286H44.928a.18508.18508,0,0,1,.18485.18286Zm0,8.12684a.18245.18245,0,0,1-.18485.18287H41.75324a.1791.1791,0,0,1-.18076-.18287V68.22a.1791.1791,0,0,1,.18076-.18287H44.928a.18245.18245,0,0,1,.18485.18287Zm0,8.12685a.18508.18508,0,0,1-.18485.18286H41.75324a.18164.18164,0,0,1-.18076-.18286V76.34688a.17992.17992,0,0,1,.18076-.18075H44.928a.18337.18337,0,0,1,.18485.18075ZM38.88519,47.37974a.1829.1829,0,0,1-.18274.18076H35.52557a.18111.18111,0,0,1-.18075-.18076V43.83937a.17984.17984,0,0,1,.18075-.18075h3.17688a.18162.18162,0,0,1,.18274.18075Zm0,8.12487a.18472.18472,0,0,1-.18274.18286H35.52557a.18292.18292,0,0,1-.18075-.18286V51.96424a.17942.17942,0,0,1,.18075-.17878h3.17688a.18122.18122,0,0,1,.18274.17878Zm0,8.127a.18332.18332,0,0,1-.18274.18274H35.52557a.18154.18154,0,0,1-.18075-.18274V60.09319a.18292.18292,0,0,1,.18075-.18286h3.17688a.18472.18472,0,0,1,.18274.18286Zm0,8.12684a.18207.18207,0,0,1-.18274.18287H35.52557a.18032.18032,0,0,1-.18075-.18287V68.22a.18032.18032,0,0,1,.18075-.18287h3.17688a.18207.18207,0,0,1,.18274.18287Zm0,8.12685a.18472.18472,0,0,1-.18274.18286H35.52557a.18292.18292,0,0,1-.18075-.18286V76.34688a.18119.18119,0,0,1,.18075-.18075h3.17688a.183.183,0,0,1,.18274.18075ZM47.134,37.20941H33.26488a.34.34,0,0,0-.33932.33932V84.94707a.34082.34082,0,0,0,.33932.33721H47.134a.34113.34113,0,0,0,.34118-.33721V37.54873a.34028.34028,0,0,0-.34118-.33932"/><path class="cls-2" d="M65.861,65.84814H80.12417a.2844.2844,0,0,1,.2844.2844v2.8559a.2844.2844,0,0,1-.2844.2844H65.85892a.2844.2844,0,0,1-.2844-.2844V66.13464A.28651.28651,0,0,1,65.861,65.84814Z"/><path class="cls-2" d="M62.30777,60.64153a.33946.33946,0,0,1-.33722.33933H57.83708a.34032.34032,0,0,1-.3413-.33933V58.05379a.33894.33894,0,0,1,.3413-.33919h4.13347a.33807.33807,0,0,1,.33722.33919Zm0,4.78149a.33765.33765,0,0,1-.33722.33722H57.83708a.33854.33854,0,0,1-.3413-.33722V62.83528a.34029.34029,0,0,1,.3413-.3392h4.13347a.33944.33944,0,0,1,.33722.3392Zm0,4.78149a.33935.33935,0,0,1-.33722.3392H57.83708a.34021.34021,0,0,1-.3413-.3392V67.61677a.33895.33895,0,0,1,.3413-.3392h4.13347a.33808.33808,0,0,1,.33722.3392Zm0,4.78149a.33935.33935,0,0,1-.33722.3392H57.83708a.34021.34021,0,0,1-.3413-.3392V72.39826a.33895.33895,0,0,1,.3413-.3392h4.13347a.33808.33808,0,0,1,.33722.3392Zm0,4.77951a.33816.33816,0,0,1-.33722.3392H57.83708a.339.339,0,0,1-.3413-.3392V77.17975a.33895.33895,0,0,1,.3413-.3392h4.13347a.33808.33808,0,0,1,.33722.3392ZM56.00088,59.72957v5.69755a.33807.33807,0,0,1-.33721.33919H51.5302a.339.339,0,0,1-.34131-.33919v-.717a.36825.36825,0,0,1,.02641-.126.18114.18114,0,0,1,.02033-.03868.18882.18882,0,0,1,.0305-.04464c.01017-.01822.02641-.03855.03856-.0569.52813-.75563,2.9128-3.69274,3.91415-4.92158l.09956-.11989a.39927.39927,0,0,1,.30671-.14418.3854.3854,0,0,1,.37577.31688Zm-.01017,10.47494a.33849.33849,0,0,1-.33919.3392h-4.1336a.33849.33849,0,0,1-.33919-.3392V67.61677a.33724.33724,0,0,1,.33919-.3392h4.1336a.33724.33724,0,0,1,.33919.3392Zm0,4.78149a.33849.33849,0,0,1-.33919.3392h-4.1336a.33849.33849,0,0,1-.33919-.3392V72.39826a.33724.33724,0,0,1,.33919-.3392h4.1336a.33724.33724,0,0,1,.33919.3392Zm0,4.77951a.33732.33732,0,0,1-.33919.3392h-4.1336a.33732.33732,0,0,1-.33919-.3392V77.17975a.33724.33724,0,0,1,.33919-.3392h4.1336a.33724.33724,0,0,1,.33919.3392Zm2.15718-24.21416.09744-.12386c.9323-1.19636,2.50456-3.13211,3.27023-4.07061l.09955-.11988a.3985.3985,0,0,1,.30474-.14419.38947.38947,0,0,1,.37986.31688v4.37523a.39136.39136,0,0,1-.37788.388c-.00607,0-.01017.004-.01822.004-.0041,0-.01017-.004-.01625-.004H58.481c-.00607,0-.01227.004-.01624.004-.0062,0-.01016-.004-.01835-.004a.38963.38963,0,0,1-.37577-.388.38317.38317,0,0,1,.07724-.23357M63.8861,46.159a.36273.36273,0,0,0-.34949-.264.35714.35714,0,0,0-.197.065.21941.21941,0,0,0-.0264.01822l-.11778.14629L49.56593,63.41623l-.063.08331a.38662.38662,0,0,0-.11778.27015V85.01823a.33815.33815,0,0,0,.3392.33721h13.855a.33689.33689,0,0,0,.3392-.33721V46.30116a.34116.34116,0,0,0-.03248-.1422"/><polygon class="cls-2" points="8.891 11.439 8.891 14.799 8.919 14.799 11.178 12.455 11.206 12.455 11.206 27.118 14.428 27.118 14.428 7.962 11.856 7.962 8.891 11.439"/><polygon class="cls-2" points="16.588 11.439 16.588 14.799 16.617 14.799 18.878 12.455 18.904 12.455 18.904 27.118 22.125 27.118 22.125 7.962 19.556 7.962 16.588 11.439"/><path class="cls-2" d="M35.61917,9.79767A8.665,8.665,0,0,0,34.2278,8.68052l.60128-.73728c.2477.18485.48945.40416.723.61541a6.81575,6.81575,0,0,1,.60947.57885Zm-2.405,5.83974v-.75563H35.091v-1.8605H33.58188v-.76382H35.091V10.65694H33.35637V9.84031h4.38948v.81663H35.97263v1.60052h1.54163v.76382H35.97263v1.8605h1.96216v.75563Zm.2337-6.99148c-.19713.56273-.42871,1.09694-.67245,1.63313v5.588h-.849V11.72127a3.96018,3.96018,0,0,1-.5626.79828l-.55665-.65a9.31915,9.31915,0,0,0,1.78958-3.8999l.97086.4204a.12418.12418,0,0,1,.07512.10562c0,.09757-.136.1422-.19488.15026"/><path class="cls-2" d="M39.97468,13.53937c0,.21931.08133.41234.2844.41234a.38946.38946,0,0,0,.31688-.15844,4.55819,4.55819,0,0,0,.60736-1.29195c-.526.04476-1.20864.30065-1.20864,1.03805m5.30566.7027a10.54093,10.54093,0,0,0-1.02181-.7291,4.49,4.49,0,0,1-1.54981,2.14291l-.77993-.50173a3.69459,3.69459,0,0,0,1.53357-2.03729,5.62277,5.62277,0,0,0-1.40563-.50991,8.82755,8.82755,0,0,1-.36151.8775c-.32507.70282-.73121,1.4158-1.495,1.4158A1.19025,1.19025,0,0,1,39.12371,13.582,1.85079,1.85079,0,0,1,40.513,11.79863a3.27371,3.27371,0,0,1,.91817-.07922,13.11533,13.11533,0,0,0,.54847-2.08205L40.379,9.90949l-.17468-1.00941h.08529a10.907,10.907,0,0,0,2.53295-.3149c.11368.14022.24175.27225.36758.40416-.15633.53422-.331,1.06235-.49553,1.59867-.12806.40416-.24782.80634-.39,1.20244a5.6851,5.6851,0,0,1,1.40352.43875,7.81907,7.81907,0,0,0,.25192-1.755c.29853.20109.59918.39412.88358.61343a9.06866,9.06866,0,0,1-.27833,1.5275,9.48857,9.48857,0,0,1,1.14157.64183c-.134.32506-.27424.65818-.42648.98511"/><path class="cls-2" d="M53.87532,15.57344a2.66448,2.66448,0,0,1-1.27968.32085c-.53619,0-.88555-.30263-.88555-.97705V12.486l.76976.0853c.04265.01016.11579.0264.11579.09546a.15021.15021,0,0,1-.10153.12385V14.572c0,.42251.0507.53422.4204.53422a2.01579,2.01579,0,0,0,1.01771-.47533Zm-1.90327-5.8297v.62359h1.33658v.69873H49.90017v-.69873h1.24521V9.73369H49.561V8.982h1.57424V7.9787l.845.06905a.11138.11138,0,0,1,.11579.10352.168.168,0,0,1-.11579.13823V8.982h1.6392v.76171Zm-.50781,3.10583a5.99136,5.99136,0,0,1-.23357,1.436,3.12557,3.12557,0,0,1-1.25934,1.70219l-.652-.53422c1.11913-.70083,1.29989-1.54981,1.34464-2.9676l.784.14617a.1079.1079,0,0,1,.10154.10364.14517.14517,0,0,1-.0853.11381M49.3843,14.64709c-.10761-.47519-.20108-.9587-.28229-1.44419l.5605-.24163c.08542.48537.18088.97693.29667,1.45225Zm3.46525-1.62494v-.847h-2.4029v.87341h-.72922v-.61541l-.53012.23357c-.02641-.09546-.05492-.197-.07724-.29457l-.13811.02641v3.46933h-.75563V12.486c-.35544.02641-.721.06707-1.07648.1117l-.09348-.74348a1.59277,1.59277,0,0,0,.36362-.04463.313.313,0,0,0,.19489-.14629c.19712-.26.36362-.54636.54041-.82059a8.79537,8.79537,0,0,0-.96688-.41644v-.3899a9.29807,9.29807,0,0,0,1.23293-2.10238l.784.43268c.05888.03657.16054.07922.16054.17269,0,.14828-.13823.14828-.22352.1401-.34329.44085-.67641.88964-1.046,1.30608.13811.0874.28019.15646.42239.25192.13414-.22551.26617-.46107.39821-.69265l.68248.48338a.14585.14585,0,0,1,.073.12186c0,.11989-.11567.11171-.18882.11171-.392.52007-.76381,1.05627-1.17616,1.54783a5.18914,5.18914,0,0,0,.63786-.05083,4.29821,4.29821,0,0,0-.14629-.44073l.58306-.23357c.12992.40416.23146.82258.34527,1.237v-.839h3.94664v1.53966Zm-4.76315.37167a9.22561,9.22561,0,0,1-.50991,2.05155l-.64591-.34725A9.11919,9.11919,0,0,0,47.41,12.87387l.72712.30473a.09182.09182,0,0,1,.04872.0853.1366.1366,0,0,1-.09943.12992"/><path class="cls-2" d="M60.59442,11.41617c.00211.38184.00211.76567-.01215,1.14751a6.90535,6.90535,0,0,1-.16042,1.41791,3.17752,3.17752,0,0,1-1.09892,1.84017,8.86842,8.86842,0,0,0-.81861-.463,3.39724,3.39724,0,0,0,1.18421-2.86c.01215-.34936.01017-.69873.00819-1.05007a11.622,11.622,0,0,1-1.35493.03657c-.14208-.0062-.28428-.02033-.42859-.02442-.03248-.31081-.0507-.61752-.07513-.92424.321.04475.65.07513.971.0874.28639.01215.56471.01215.85109-.00211.004-.48536-.03868-.96279-.0569-1.4401-.01426-.25588-.03459-.52206-.06906-.786.23965.04265.47731.06905.71906.10352a1.15213,1.15213,0,0,1,.29854.05281c.05083.01017.10364.03658.10153.10563a.15641.15641,0,0,1-.10153.126c0,.57686.03049,1.15781.03248,1.73665a5.39605,5.39605,0,0,0,1.34265-.31688c.00819.32506-.02033.65818-.00806.979a7.70547,7.70547,0,0,1-1.32443.2337M56.88755,15.1027c-.24993.03868-.50383.06918-.75364.0915a8.76558,8.76558,0,0,1-.52405-3.23986,17.47476,17.47476,0,0,1,.38185-3.323c.2234.05282.45709.1158.68248.17878a1.59382,1.59382,0,0,1,.29048.08938c.04475.01823.09137.03447.08938.09336,0,.06905-.069.1179-.12794.13414a13.62123,13.62123,0,0,0-.43466,3.52,4.6664,4.6664,0,0,0,.073,1.09892c.15039-.4245.29866-.85717.44694-1.28166a7.49168,7.49168,0,0,0,.54028.68856,8.06776,8.06776,0,0,0-.66414,1.94988"/><path class="cls-2" d="M66.16217,10.05144a7.37672,7.37672,0,0,0-1.57425-1.44208c.19713-.22551.382-.46119.579-.68658a5.56669,5.56669,0,0,1,1.68185,1.4158c-.23567.23556-.45908.47929-.68657.71286m-.43057,5.661c-.15237.04475-.30275.07525-.46119.10971-.073-.132-.46912-.75154-.46912-.75154,0-.02839.03037-.03446.04463-.03446a4.84784,4.84784,0,0,0,1.11714-.321,1.60519,1.60519,0,0,0,1.11516-1.41779.91529.91529,0,0,0-.9282-1.05825c-.8775-.01017-1.67987.93638-1.97035,1.84636-.24572-.04475-.50173-.10364-.74955-.14021a10.18314,10.18314,0,0,1-.073-1.33646A17.49824,17.49824,0,0,1,63.6617,9.759l.87143.26407a.10422.10422,0,0,1,.08728.10563.17337.17337,0,0,1-.11171.14009,10.55257,10.55257,0,0,0-.29047,2.13288,2.78729,2.78729,0,0,1,2.18358-1.04611,1.71034,1.71034,0,0,1,1.6697,1.822c-.02033,1.59854-1.17814,2.208-2.33991,2.53493"/><path class="cls-2" d="M74.83413,15.02348c-.67641,0-.97916-.50978-.97916-1.25723,0-.782.12187-1.55391.17469-2.33595.00818-.11369.00818-.23766.00818-.35135,0-.16662-.02442-.32506-.20307-.32506-.43479,0-1.48077,1.00953-1.72859,1.432,0,1.11516.01214,2.25871.05888,3.37387l-.92423.10352c0-.92.00818-1.8605.00818-2.79081-.33312.56061-.68459,1.09681-1.02168,1.64119-.2337-.24572-.43875-.52814-.66228-.79221a14.24564,14.24564,0,0,0,1.6392-2.52885v-.42251c-.42251.08133-.82865.195-1.25116.26407-.05083-.29655-.09757-.59719-.16451-.88556A7.655,7.655,0,0,0,71.18,9.91916c0-.60537-.02244-1.21273-.04673-1.80992a5.30988,5.30988,0,0,1,.95671.10563.11915.11915,0,0,1,.09745.124.09413.09413,0,0,1-.05889.09547c-.02231.43056-.04674.85307-.05281,1.27558.134-.03657.26407-.09955.39808-.1422.05282.22948.09757.457.15039.67641-.13415.1665-.256.34936-.384.5362l.01624.0264A2.91376,2.91376,0,0,1,74.18,9.77076c.50371,0,.782.47334.782,1.02788a12.29065,12.29065,0,0,1-.08741,1.32642,13.404,13.404,0,0,0-.12992,1.40551V13.557c-.00819.193.01413.47334.23357.47334.46515,0,.77385-.75564.96068-1.17616.11381.40428.22552.80646.33114,1.21273a1.66457,1.66457,0,0,1-1.436.95659"/><path class="cls-2" d="M79.86233,14.32872c-.1422,0-.23158.065-.23158.24572,0,.33722.42858.38185.6236.38185-.03868-.262-.11381-.62757-.392-.62757m.63984,1.48474c-.62359,0-1.63114-.26606-1.63114-1.21868a1.02626,1.02626,0,0,1,1.08267-.9933,1.11638,1.11638,0,0,1,1.03793.81861,2.04825,2.04825,0,0,1,.07314.50173,1.38346,1.38346,0,0,0,.96478-1.34873,1.26386,1.26386,0,0,0-1.31823-1.39336c-1.13339,0-1.78748,1.08466-2.49637,1.98646-.23159-.24782-.463-.49156-.69873-.73728a19.16008,19.16008,0,0,0,2.84983-3.84312c-.5993.14629-1.20257.26407-1.80372.39l-.16452-1.07251a1.89124,1.89124,0,0,0,.23965.01016,7.43886,7.43886,0,0,0,.99936-.09137,11.90847,11.90847,0,0,0,1.37712-.258,4.09368,4.09368,0,0,0,.47124-.15237c.17468.24374.34737.4814.52007.72724a2.97765,2.97765,0,0,0-.22551.199c-.1727.18287-.33721.41036-.48958.60947-.3594.49354-.69662,1.00333-1.044,1.50308a2.56378,2.56378,0,0,1,.69265-.07922,1.90449,1.90449,0,0,1,2.00072,2.04535,2.25758,2.25758,0,0,1-2.43736,2.39682"/><path class="cls-2" d="M34.2449,25.03724a1.604,1.604,0,0,0-.66624-.1422c-.27213-.00409-.79419.10153-.80026.516-.00409.41433.48945.53422.75972.53818.42238.0062.70269-.19092.71088-.71906,0-.06087-.00608-.132-.0041-.1929m2.62035,1.27757a9.01933,9.01933,0,0,0-1.7002-1.01759,1.32368,1.32368,0,0,1-.42251,1.16189,1.93589,1.93589,0,0,1-1.02776.33722c-.74546-.01228-1.87488-.26816-1.85851-1.38134a1.34413,1.34413,0,0,1,1.2431-1.27348,3.4299,3.4299,0,0,1,.59508-.01834,3.73507,3.73507,0,0,1,.52615.05281c.002-.28229-.01425-.5626-.02442-.83485-.24981.01227-.50582.01835-.75972.01426-.58095-.00819-1.39138-.063-1.3791-.96887a1.71084,1.71084,0,0,1,.1929-.72724l.80646-.04054a2.08,2.08,0,0,0-.1748.60326c-.004.28229.3108.28638.47532.29048a5.15941,5.15941,0,0,0,.81253-.02641c-.02231-.42053-.02231-.85109-.0264-1.27162a18.30115,18.30115,0,0,0-2.53493.19911c-.04885-.31081-.08133-.61542-.11381-.92424.87948-.05691,1.75909-.10761,2.64056-.12794-.004-.27213,0-.54438.00409-.82667l.00607-.37577c.21126.02839.42053.04872.62967.07922.10563.01822.22552.02021.33114.04872.03856.01017.08331.02641.08331.08939a.14629.14629,0,0,1-.10153.12992c-.02033.27225-.02443.53632-.02852.80845.67232-.02641,1.33857-.04067,2.00692-.05071l-.00211.89572c-.67033-.00818-1.33856-.02033-2.00072.00608-.00607.43057.002.85109.01017,1.28377a8.79262,8.79262,0,0,0,1.9215-.37577l-.05282,1.00135c-.61541.09546-1.22686.17468-1.84636.21733.00607.36151.01425.72922.03248,1.08875a8.86656,8.86656,0,0,1,2.25263,1.08057c-.1686.28638-.34118.57488-.51586.85308"/><path class="cls-2" d="M43.56117,26.00561a4.214,4.214,0,0,1-2.14093.843c-.16055-.28031-.28639-.58095-.46107-.85308.84291-.07724,2.37649-.35147,2.37649-1.65148a.887.887,0,0,0-.98313-.90378,2.26051,2.26051,0,0,0-1.3243.53619,3.14558,3.14558,0,0,0-.782,1.12533l-.83485-.44892a7.21815,7.21815,0,0,0,1.00742-3.01235c-.29444.01834-.57884.0264-.8734.0264h-.60724c-.02244-.327-.061-.6438-.06707-.96478a9.32611,9.32611,0,0,0,1.09681.06906c.17878,0,.35953,0,.54029-.01215a15.11463,15.11463,0,0,0,.08331-1.66772c.22551.03459.4509.061.67641.09757a1.91109,1.91109,0,0,1,.30263.05281c.05281.01624.10971.04463.10971.12385a.21877.21877,0,0,1-.134.17469c-.0305.388-.05282.774-.10365,1.14974a11.56373,11.56373,0,0,0,2.2912-.455l-.01426,1.02776a20.80438,20.80438,0,0,1-2.42112.32494,10.93535,10.93535,0,0,1-.35147,1.54585,2.82219,2.82219,0,0,1,1.63722-.47334,1.61423,1.61423,0,0,1,1.67578,1.77124,2.09,2.09,0,0,1-.69873,1.57412"/><path class="cls-2" d="M51.33208,20.1986a7.53236,7.53236,0,0,0-.76976-1.14145l.581-.327a6.64165,6.64165,0,0,1,.721,1.11714Zm-1.02577.2803a9.65291,9.65291,0,0,0-.75761-1.0704l.5688-.33312a6.85609,6.85609,0,0,1,.7291,1.06036Zm.91618,4.84038A5.32269,5.32269,0,0,1,48.34626,26.532c-.22551-.28849-.43677-.58913-.67034-.8532a8.45475,8.45475,0,0,0,1.73467-.40217,2.13015,2.13015,0,0,0,1.6392-2.05552c0-1.15979-.59719-1.54573-1.47878-1.54573a6.68267,6.68267,0,0,0-2.58576.86114,6.43571,6.43571,0,0,1-.96887.3413c-.03657-.12385-.3656-1.12322-.3656-1.14962,0-.08741.09546-.061.13811-.061a6.02934,6.02934,0,0,0,1.84438-.46714,6.85062,6.85062,0,0,1,2.19772-.47334,2.19684,2.19684,0,0,1,2.19585,2.407,2.89721,2.89721,0,0,1-.80435,2.18556"/><path class="cls-2" d="M57.36957,26.72616A14.08632,14.08632,0,0,0,55.16566,24.24a6.7143,6.7143,0,0,0-.63575-.55442,1.91174,1.91174,0,0,1-.3656-.32506.74379.74379,0,0,1-.13824-.46107.9801.9801,0,0,1,.33722-.72711c.35147-.37577.71707-.72526,1.05825-1.11107.51388-.58095,1.03185-1.1619,1.5316-1.77732.21125.17865.42251.34937.63376.53012a1.55269,1.55269,0,0,1,.24374.20518.10813.10813,0,0,1,.03446.07513c0,.11976-.16042.13811-.23964.11976-.48351.46318-.98115.91618-1.4706,1.38531-.20518.19712-.39412.41035-.59918.60735-.09546.09348-.20517.17877-.29258.28229a.5437.5437,0,0,0-.17666.33933.32682.32682,0,0,0,.132.25786c.3087.29048.65.53831.96478.81056A14.67884,14.67884,0,0,1,58.12719,25.993c-.25391.23766-.50173.49354-.75762.73319"/><path class="cls-2" d="M64.46035,19.951c-.00607,1.02986-.01413,2.084-.0507,3.122-.05691,1.65148-.41036,3.189-1.75091,3.94875a4.05936,4.05936,0,0,0-.78613-.47731c-.02033-.00818-.04463-.01017-.04265-.04674,0-.03459.03856-.05889.063-.07724a2.926,2.926,0,0,0,.50979-.33312,4.01639,4.01639,0,0,0,1.103-3.08129c.03657-1.15991-.00211-2.34-.08133-3.49574a5.89113,5.89113,0,0,1,.68869.09546,2.64449,2.64449,0,0,1,.3656.065.08843.08843,0,0,1,.06906.10153.33033.33033,0,0,1-.08741.17878m-2.97157,4.52957c-.256-.01823-.518-.04662-.7679-.071a5.80725,5.80725,0,0,1-.29853-1.99266c.03248-.94655.19092-1.891.30473-2.82949.22539.03459.457.07922.68645.11381.07922.02033.18894.02442.27014.05281a.0941.0941,0,0,1,.063.09137.18793.18793,0,0,1-.09546.13005,12.10622,12.10622,0,0,0-.37168,2.50852c-.00607.17667-.00409.35135.002.52814,0,.01624-.00608.063.02244.065.0202,0,.03855-.071.04661-.07922.10563-.28031.21535-.54636.32916-.81452l.42449.63178a7.76911,7.76911,0,0,0-.61542,1.66549"/><path class="cls-2" d="M72.16977,23.13335a.1714.1714,0,0,1-.10562-.04464c-.50991.18684-1.49093.59918-1.95609.82878V25.2723l-.83683-.00819c.01-.12385.01-.25588.01-.40416v-.49354c-.56669.28031-.849.64182-.849,1.046,0,.35345.323.5383.96689.5383a5.88973,5.88973,0,0,0,2.05762-.35345l-.0305,1.02986a5.43372,5.43372,0,0,1-1.77322.25589c-1.38332,0-2.076-.46714-2.076-1.40961a1.78661,1.78661,0,0,1,.579-1.26541,4.99471,4.99471,0,0,1,1.07449-.75774c-.01426-.394-.12794-.59707-.33312-.59707a1.00245,1.00245,0,0,0-.72724.333,6.831,6.831,0,0,0-.54438.5993c-.26.3087-.42238.51995-.52193.62359-.128-.15844-.32507-.3961-.587-.72116a6.30133,6.30133,0,0,0,1.78141-2.38455c-.37577.05269-.79221.08926-1.24521.11369-.0284-.33511-.071-.64182-.11171-.91407a11.29762,11.29762,0,0,0,1.61888-.08939,7.96423,7.96423,0,0,0,.23964-1.21459l.95474.2275a.10937.10937,0,0,1,.08331.10761c0,.05083-.03657.09744-.1117.132-.03658.15026-.10166.37775-.19105.6784a10.81764,10.81764,0,0,0,1.32034-.327l-.07922.971c-.38792.0853-.912.17469-1.56.27015a5.63916,5.63916,0,0,1-.43874.88159,1.34367,1.34367,0,0,1,.40428-.061c.43057,0,.71286.30672.83882.94048.56669-.31688,1.20864-.64182,1.90935-.977l.323.98523c0,.071-.0264.10551-.08319.10551"/></svg>