<svg id="レイヤー_1" data-name="レイヤー 1" xmlns="http://www.w3.org/2000/svg" width="95" height="95.00403" viewBox="0 0 95 95.00403"><defs><style>.cls-1{fill:#901d31;}.cls-2{fill:#fff;}</style></defs><title>sdgs_08</title><rect class="cls-1" width="95" height="95.00403"/><path class="cls-2" d="M65.67383,47.0456l-9.59348,9.12627a1.58928,1.58928,0,0,0-.54847,1.37108V83.122a.54836.54836,0,0,0,.54847.54643h9.91023A.54614.54614,0,0,0,66.535,83.122V47.27718c0-.30265-.23555-.85515-.86113-.23158"/><path class="cls-2" d="M38.03347,58.93715l-9.59558,9.12423a1.59161,1.59161,0,0,0-.54636,1.37108v13.6904a.54748.54748,0,0,0,.54636.54435h9.91036a.54794.54794,0,0,0,.54847-.54435V59.16669c0-.30467-.23977-.85515-.86325-.22954"/><path class="cls-2" d="M70.03454,35.97811a.27535.27535,0,0,0-.08132-.20716.28653.28653,0,0,0-.17878-.07922l-.0507.00406-.07922.00406L62.2976,37.35731l-.134.01221a.28844.28844,0,0,0-.1422.07718.28062.28062,0,0,0,0,.39405l.08319.08328,1.67789,1.6778L47.13452,56.24762l-7.6881-7.68816a.216.216,0,0,0-.31279,0L37.0475,50.64554l-.002.002L24.72209,62.97094a.21959.21959,0,0,0,0,.31282l2.08812,2.08809a.2171.2171,0,0,0,.31081,0l12.17105-12.169,5.57977,5.58178a.09451.09451,0,0,0,.01823.02436l2.086,2.08607a.21943.21943,0,0,0,.31279,0L66.18126,42.00271l1.76306,1.759a.27463.27463,0,0,0,.392,0,.27179.27179,0,0,0,.07922-.18075v-.02235l1.6149-7.49925Z"/><path class="cls-2" d="M51.90808,60.53755l-4.6414,4.682a.22425.22425,0,0,1-.30064-.01218l-4.20463-4.28791c-.76977-.76577-.93639-.14422-.93639.15642V83.12063a.54444.54444,0,0,0,.54239.54639h9.91433a.54912.54912,0,0,0,.54636-.54639V60.71022c0-.30061-.23754-.85516-.92-.17267"/><path class="cls-2" d="M15.14548,22.81746c0,1.1578-.42239,1.97638-1.5802,1.97638-1.1314,0-1.55391-.81858-1.55391-1.97638V19.7097c0-1.15982.42251-1.9784,1.55391-1.9784,1.15781,0,1.5802.81858,1.5802,1.9784Zm-3.0224-10.59279c0-1.16186.3961-1.84029,1.4422-1.84029,1.07239,0,1.46849.67843,1.46849,1.84029v1.29592c0,1.15982-.3961,1.83825-1.46849,1.83825-1.0461,0-1.4422-.67843-1.4422-1.83825Zm6.244,10.25356V20.38812a3.79139,3.79139,0,0,0-2.147-3.84305,3.37132,3.37132,0,0,0,1.86459-3.33324v-.79217c0-2.996-1.55391-4.60477-4.51941-4.60477-2.93723,0-4.46461,1.60874-4.46461,4.60477v.79217a3.40082,3.40082,0,0,0,1.80769,3.33324c-1.497.67842-2.12048,2.00481-2.12048,3.84305v2.09011c0,2.90871,1.38518,4.944,4.7774,4.944,3.41652,0,4.80182-2.03528,4.80182-4.944"/><path class="cls-2" d="M31.54323,10.97447v-.5281H30.4241v.29249h.983V13.2921h-.983v.30061H31.393v.63172H30.4241V14.586c.30052-.0467.591-.10562.89374-.15844l-.04475.2986a8.74319,8.74319,0,0,0,.652-3.75166Zm-.7901,1.34263h-.35345v.43063h.35345Zm-.01426-1.03387h-.33919v.47325h.33919ZM29.70293,12.3171h-.37576v.43063h.37576Zm0-1.03387h-.37576v.47325h.37576Zm4.00566,3.0732c-.059,1.05423-.36164,1.5011-1.26344,1.73873l-.49764-.72718c.63166-.12388.87341-.29044.93428-1.0745.08331-1.09687.08331-2.212.08331-3.319h-.24981a14.01447,14.01447,0,0,1-.34539,3.02246,4.9328,4.9328,0,0,1-1.09681,2.1348l-.69055-.5017a5.47423,5.47423,0,0,0,.40416-.457c-.65409.14217-1.30806.2742-1.96216.42248-.00818.0711-.04463.132-.11381.132-.05889,0-.10352-.06093-.12583-.12187l-.31689-.77593c.40627-.04265.80436-.10358,1.21063-.1564v-.43062H28.64059v-.65h1.03805V13.2921H28.663V10.73886h1.00742v-.29249H28.64059V9.75372h1.02986V9.39217c-.24572.01826-.49565.03654-.74335.063l-.21126-.38594c-.08938.34125-.1727.69266-.27014,1.03594-.01637.06094-.10774.325-.10774.36967v5.63866h-.80224V12.1607a5.16209,5.16209,0,0,1-.30672.47532l-.48958-.72922a10.00875,10.00875,0,0,0,1.2777-3.84712l.88754.323a.13626.13626,0,0,1,.07525.10563c0,.0711-.09757.10562-.14431.11579l-.02839.13a8.31939,8.31939,0,0,0,2.29318-.49157l.56272.86938a.09242.09242,0,0,1-.10364.09546.19262.19262,0,0,1-.136-.05079c-.32308.06908-.6541.11374-.977.16656v.43063h1.12532v.44888h.38581V8.15313l.84093.11576c.05281.00812.14431.04469.14431.12392a.1716.1716,0,0,1-.10774.14827c-.01413.55451-.03657,1.11513-.05888,1.66763.33721-.00611.67641-.01624,1.0156-.01624-.00806,1.38933,0,2.77665-.08318,4.164"/><path class="cls-2" d="M39.62743,11.7906a6.23743,6.23743,0,0,0,.979,1.56405c-.16662.2539-.34539.49358-.52615.73124a4.0903,4.0903,0,0,0-2.03122-.53015c-.30671,0-.98312.15032-.98312.63376,0,.77389,1.03594.8267,1.50928.8267a8.328,8.328,0,0,0,1.55589-.20313c-.07315.33516-.13414.66826-.195,1.00342a7.01219,7.01219,0,0,1-1.103.10358c-.95672,0-2.64056-.12186-2.64056-1.63309,0-1.09889,1.06842-1.46856,1.84228-1.46856a5.5591,5.5591,0,0,1,1.20256.15844c-.15038-.33312-.30882-.66624-.4509-1.00748a18.00211,18.00211,0,0,1-2.73614.33107l-.197-.8775a11.88039,11.88039,0,0,0,2.61006-.262c-.09137-.26608-.17257-.5281-.24981-.79217a11.564,11.564,0,0,1-1.90724.27017c-.08331-.28031-.15844-.56874-.23357-.85109a10.894,10.894,0,0,0,1.92348-.23766c-.1117-.42046-.20109-.85918-.27622-1.28981.30672-.02641.61542-.063.92213-.07922h.03249a.10766.10766,0,0,1,.11988.10563.2139.2139,0,0,1-.07513.14015c.03657.29047.0812.58092.1422.86935a4.053,4.053,0,0,0,1.046-.5017c.061.325.13414.652.195.98514-.34528.132-.69873.2539-1.05218.36966.08132.28031.18088.5525.2865.82469a10.09312,10.09312,0,0,0,1.757-.65812c.06906.33516.10563.66829.1665.99326a9.9244,9.9244,0,0,1-1.633.48139"/><path class="cls-2" d="M48.518,9.47988a8.7818,8.7818,0,0,0-.56471-1.24716l.57885-.31483a7.57873,7.57873,0,0,1,.56471,1.237Zm-.24175,4.18229c-.16451-.256-.34527-.49156-.524-.72922.21733-.0447.76579-.1767.76579-.50982A4.34155,4.34155,0,0,0,47.43528,10.463a8.99024,8.99024,0,0,0,.84093-.47328,5.60428,5.60428,0,0,1,1.19637,2.61824c0,.65813-.7596.90592-1.19637,1.05423m-.7658-3.87355a9.44146,9.44146,0,0,0-.57078-1.24717L47.547,8.251a10.186,10.186,0,0,1,.53421,1.21263Zm-1.09879,5.533a1.11665,1.11665,0,0,1-.84911.27424,1.70069,1.70069,0,0,1-.7353-.18686c-.0305-.33111-.05281-.65813-.08939-.99125a1.57255,1.57255,0,0,0,.82469.24578c.60934,0,.60326-1.9784.60326-2.47808,0-.35953.00608-1.00139-.4225-1.00139a2.04307,2.04307,0,0,0-.4509.07107,17.06672,17.06672,0,0,1-1.60871,4.36509c-.29258-.1564-.56273-.33312-.85717-.47328a12.331,12.331,0,0,0,1.52131-3.74149c-.34937.067-.69464.1564-1.03185.25391-.02232-.09751-.21733-.94045-.21733-.94045,0-.0447.05083-.05282.07314-.05282.06906,0,.12795.01829.195.01829a5.78951,5.78951,0,0,0,1.168-.16049,14.89771,14.89771,0,0,0,.27015-2.0901c.2234.05281.44271.12391.66016.195.09745.03453.21114.06094.3087.10362.03856.01828.09745.0467.09745.10764,0,.05281-.05281.07922-.08939.09546-.08926.49361-.18881.99326-.31068,1.48482a3.84167,3.84167,0,0,1,.45288-.04469.8868.8868,0,0,1,.99131.74751,4.87448,4.87448,0,0,1,.15026,1.33652c0,.79623-.1117,2.30951-.654,2.862"/><path class="cls-2" d="M56.68175,13.81308a7.992,7.992,0,0,0-1.21669-3.72726c.31081-.14425.60537-.31487.92015-.45093a9.60059,9.60059,0,0,1,1.27161,3.73538c-.323.1625-.646.30671-.97507.44281m-3.30469,1.57418a.81935.81935,0,0,1-.5993-.23156,4.58343,4.58343,0,0,1-1.00544-2.85385A14.30048,14.30048,0,0,1,51.821,9.88674c.02244-.31077.04674-.61138.0853-.914A5.9399,5.9399,0,0,1,52.987,9.32a.11056.11056,0,0,1,.05889.09345c.00806.09344-.07922.15438-.14629.17672a9.07116,9.07116,0,0,0-.21324,1.78339,9.34442,9.34442,0,0,0,.03447,1.11718,4.23029,4.23029,0,0,0,.23369,1.16186c.0548.16656.18882.56062.37577.54841.35953-.02638.7596-1.20653.89771-1.57012l.52206,1.09889c-.197.59719-.77993,1.61686-1.373,1.65746"/><path class="cls-2" d="M62.849,15.88511c-1.05218.00816-2.076-.43871-2.09022-1.85448,0-.21126.02243-.42248.03868-.63172-.55046-.19294-1.28786-.43872-1.302-1.25529a3.22222,3.22222,0,0,1,.333-1.12529c.2844.06093.57079.14827.84911.20921a1.68621,1.68621,0,0,0-.36969.77392c.00818.30873.43465.44076.63983.49357.11989-.69466.25391-1.37919.37577-2.07386-.13612.16656-.262.33312-.39.5017a14.07519,14.07519,0,0,0-1.20443-1.038c.1665-.26406.33709-.52609.518-.79012a10.71283,10.71283,0,0,1,1.12124.96685,11.56064,11.56064,0,0,0,.24163-1.759c.23977.04467.48747.11577.72724.1767a1.92717,1.92717,0,0,1,.30064.07922c.05281.01624.10563.04469.10563.11375a.35217.35217,0,0,1-.1422.22954c-.05282.193-.09757.40419-.1422.59514-.0915.41436-.18287.8267-.27833,1.24106-.1422.648-.29246,1.3081-.40627,1.96622.30064.05486.60947.05486.908.07922l-.134.85311a6.21971,6.21971,0,0,1-.88766-.0711,2.25153,2.25153,0,0,0-.02232.388.97914.97914,0,0,0,1.09074,1.02779c.63773-.01017.92424-.3961.916-1.1253a3.72756,3.72756,0,0,0-1.10288-2.20589,6.45178,6.45178,0,0,0,.82456-.40218,4.11967,4.11967,0,0,1,1.26145,2.85386,1.69006,1.69006,0,0,1-1.7793,1.78338"/><path class="cls-2" d="M30.70949,20.3589a5.138,5.138,0,0,0,.78613,1.17811A4.34772,4.34772,0,0,0,32.176,20.3589ZM29.57,26.84254v-.72922h1.58429v-1.044h-1.17v-.72923h1.1619V23.3468c.20109.02641.40825.04265.60735.069a1.49731,1.49731,0,0,1,.26606.03658.0882.0882,0,0,1,.07513.08734.16883.16883,0,0,1-.11989.1422v.65809h1.28178v.72923H31.97491v1.044h1.67987v.72922Zm-.16253-.99937c-.16253-.52-.27423-1.06231-.38593-1.60058l.62359-.25391a10.753,10.753,0,0,0,.37776,1.57214Zm4.11525-1.96011A5.82074,5.82074,0,0,1,31.524,22.705a5.17345,5.17345,0,0,1-1.4665,1.02983l-.3087-.4672.08938.38594a4.58493,4.58493,0,0,1-.587.25594c-.03657-.15032-.08133-.30671-.1179-.457l-.19093.03452v3.53229h-.7617V23.5743c-.37168.04673-.73319.10767-1.10289.15032l-.08133-.76376a1.79085,1.79085,0,0,0,.44285-.04466c.24981-.31688.48139-.66017.70281-1.00141a4.44643,4.44643,0,0,0-1.02168-.39406v-.38795a9.85957,9.85957,0,0,0,1.36906-2.10637,6.96748,6.96748,0,0,1,.76977.40217c.061.03453.16451.08939.16451.18485,0,.08939-.12794.11375-.17877.11375-.392.457-.78191.914-1.20653,1.33655.15435.08734.30262.1828.451.27219a7.67668,7.67668,0,0,0,.40615-.713c.11988.07315.76988.47533.76988.61548,0,.09751-.10971.11576-.1686.09751-.4204.52606-.83684,1.06231-1.2715,1.58028.24981-.0264.49355-.061.74745-.08734-.04674-.15032-.09137-.30876-.15026-.44891.199-.07922.40007-.16657.60116-.25391.09546.28843.17877.57891.258.86935a4.86027,4.86027,0,0,0,1.28773-.86123,7.71992,7.71992,0,0,1-.99119-1.27357l.48748-.50169h-.717v-.76376H33.218v.66014a6.10682,6.10682,0,0,1-1.109,1.85248,5.56858,5.56858,0,0,0,1.887.95873c-.17071.262-.319.54438-.47333.81657m-5.46187.55246a7.70616,7.70616,0,0,1-.61343,2.05561l-.6298-.325a7.24464,7.24464,0,0,0,.56273-2.20385l.6805.25591a.1169.1169,0,0,1,.0812.12187c0,.04268-.05083.07922-.0812.09546"/><path class="cls-2" d="M38.5595,20.77245a3.27452,3.27452,0,0,0,.7048.80844,2.92889,2.92889,0,0,0,.63575-.80844Zm1.55379,2.32776a10.15079,10.15079,0,0,1-.8713-.56873,7.67623,7.67623,0,0,1-.73332.41844c0,.195,0,.37983-.00607.57076h1.61069Zm0,1.107H38.4721c-.01624.20311-.03856.41231-.06695.61545h1.70814Zm1.56407-.56061a7.53347,7.53347,0,0,1-.74955-.24783v3.575h-.81452V25.50723h-1.8646a3.60028,3.60028,0,0,1-.981,1.60669l-.646-.49156a4.15167,4.15167,0,0,0,1.06644-3.29261,5.1727,5.1727,0,0,1-.76989.27219l-.41433-.72922a5.72868,5.72868,0,0,0,2.10846-.82466,6.11356,6.11356,0,0,1-.98313-1.26545h-.652v-.76576H38.724V19.01547l.93229.06294a.15026.15026,0,0,1,.13811.14016c0,.08533-.08728.132-.14616.14827v.65h2.05762v.76576h-.79221a5.3362,5.3362,0,0,1-.99936,1.27153,5.92348,5.92348,0,0,0,2.16932.70483ZM36.42873,20.7298A10.51181,10.51181,0,0,0,35.342,19.964l.577-.843a7.40885,7.40885,0,0,1,.96887.93233Zm-.43676,6.051a.2749.2749,0,0,1,.03657.13405.07783.07783,0,0,1-.07315.07717,9.6958,9.6958,0,0,1-.90179-.57887,13.06363,13.06363,0,0,0,.99726-2.96153l.711.66829c-.24374.89576-.48748,1.78138-.76989,2.66089m.2601-3.84715a12.2931,12.2931,0,0,0-1.25947-.86935l.53421-.84294a6.67835,6.67835,0,0,1,1.17008.99934Z"/><path class="cls-2" d="M49.19512,19.52305c-.17865.29655-.35135.59921-.54029.88562l-.69265-.2397a10.62323,10.62323,0,0,0,.42251-1.29794l.87142.35749c.05282.02845.12187.0711.12187.15236,0,.08936-.12187.134-.18286.14217m.22762,7.50127a5.93477,5.93477,0,0,1-1.66165-1.6473,4.75889,4.75889,0,0,1-1.826,1.59247l-.61753-.59108a4.5646,4.5646,0,0,0,1.9846-1.81591,9.71717,9.71717,0,0,1-.88766-3.29465h-1.826v.0447c0,.33111.00806.65608.00806.98514h1.77322c-.01624.67235-.01624,1.35077-.09744,2.015-.14418,1.09279-.48958,1.44013-1.40564,1.53154l-.41234-.7089c.908-.10764,1.02788-.46515,1.04412-1.48684l.00608-.60735h-.93031a6.8318,6.8318,0,0,1-.9628,3.93855l-.70691-.51187c.774-.89374.8268-2.37856.8268-3.58714,0-.8064-.04674-1.61887-.061-2.42728h2.6832c-.04264-.52609-.05888-1.06437-.07314-1.5925l.98312.126c.05282.00812.15845.03654.15845.12593a.24419.24419,0,0,1-.1422.18686c-.00806.21531-.00806.42046-.00806.63578,0,.16857,0,.34936.00806.518h2.405v.83482H47.31627a9.60934,9.60934,0,0,0,.46106,2.346,8.276,8.276,0,0,0,.52417-1.92559l.93837.589a.20763.20763,0,0,1,.09137.16048c0,.09953-.15026.13405-.20914.14623a10.45987,10.45987,0,0,1-.8206,1.98451,5.17692,5.17692,0,0,0,1.75289,1.55794Z"/><path class="cls-2" d="M57.23741,26.90874A5.70809,5.70809,0,0,1,54.1865,24.3352a16.636,16.636,0,0,0,1.90327-.6845h-2.6589v1.99058l1.21062-.31078-.09757.83076c-.79828.2072-1.60462.41439-2.40488.62766-.02033.06093-.06905.13609-.13414.13609a.09586.09586,0,0,1-.07711-.06093l-.38594-.89985c.35742-.05888.713-.10156,1.06235-.17874V23.69334H51.37126V22.8707H52.6042V19.38107h4.58437v.778H53.43694v.46515h3.2804v.70077h-3.2804v.44687h3.2804v.67843h-3.2804V22.889h4.21269v.76171H56.632l.40627.62561a.11375.11375,0,0,1-.11381.11982.28776.28776,0,0,1-.1422-.05077c-.46305.11173-.93428.20515-1.40353.28236A4.25141,4.25141,0,0,0,57.79394,26.078Z"/><path class="cls-2" d="M62.66159,26.89653c-1.05218.01017-2.074-.43872-2.08812-1.85449,0-.21125.02033-.42248.03657-.63172-.54846-.19293-1.28575-.43871-1.302-1.25729a3.19273,3.19273,0,0,1,.333-1.12328c.2844.06093.57079.14827.84911.2092a1.6742,1.6742,0,0,0-.36969.77594c.00818.30671.43465.4367.63983.49156.11989-.69467.2539-1.38124.37577-2.07591-.13612.16861-.262.33517-.39.50173a14.1042,14.1042,0,0,0-1.20443-1.03594q.24975-.3961.52-.79217a11.18355,11.18355,0,0,1,1.11925.96685,11.53361,11.53361,0,0,0,.24163-1.757c.23977.04466.48747.11375.72922.1767a1.74914,1.74914,0,0,1,.29866.07922c.05281.01624.10563.04469.10563.11374a.34293.34293,0,0,1-.14022.2275c-.0548.193-.09955.40624-.14418.59719-.0915.41436-.18076.8267-.27833,1.24106-.1422.648-.29246,1.30809-.40627,1.96622.30064.05486.60947.05486.908.08126l-.134.849a6.16812,6.16812,0,0,1-.88568-.06908,2.05979,2.05979,0,0,0-.0243.38593.977.977,0,0,0,1.09074,1.02779c.63773-.00812.92424-.39607.916-1.12325a3.73374,3.73374,0,0,0-1.10288-2.2059,6.59627,6.59627,0,0,0,.82456-.40422,4.12847,4.12847,0,0,1,1.26145,2.8559,1.69118,1.69118,0,0,1-1.7793,1.78339"/></svg>