<svg id="レイヤー_1" data-name="レイヤー 1" xmlns="http://www.w3.org/2000/svg" width="121" height="33" viewBox="0 0 121 33"><defs><style>.cls-1{fill:#18b7cd;}.cls-2{fill:#fff;}</style></defs><title>sdgs_ttl</title><path class="cls-1" d="M0,0H121a0,0,0,0,1,0,0V29a4,4,0,0,1-4,4H0a0,0,0,0,1,0,0V0A0,0,0,0,1,0,0Z"/><path class="cls-2" d="M31.64648,11.835a4.13612,4.13612,0,0,0-2.14453-.56055c-1.69677,0-2.33691,1.04053-2.33691,1.9209,0,1.2002.73633,1.8086,2.36914,2.49707,1.96875.832,2.977,1.84082,2.977,3.58545,0,1.937-1.40869,3.42529-4.03369,3.42529a5.60856,5.60856,0,0,1-2.91309-.76855l.36817-1.10449a4.96812,4.96812,0,0,0,2.625.75293c1.63281,0,2.59277-.88086,2.59277-2.19336,0-1.2002-.65625-1.93653-2.24072-2.57715-1.84082-.688-3.08936-1.76074-3.08936-3.44141,0-1.85644,1.50489-3.21679,3.72949-3.21679a4.95536,4.95536,0,0,1,2.49708.57617Z"/><path class="cls-2" d="M35.43652,10.49023a19.36365,19.36365,0,0,1,3.07325-.25585c4.89794,0,6.30664,2.897,6.30664,5.89013a6.66674,6.66674,0,0,1-1.665,4.78565,6.95294,6.95294,0,0,1-5.07373,1.71289,21.66741,21.66741,0,0,1-2.64112-.12793ZM36.76514,21.4707a10.97356,10.97356,0,0,0,1.55224.08008c3.29785,0,5.10645-1.873,5.10645-5.3623,0-3.16895-1.69678-4.88184-4.86621-4.88184a9.53989,9.53989,0,0,0-1.79248.16016Z"/><path class="cls-2" d="M56.31982,22.03125a9.9596,9.9596,0,0,1-3.47363.624c-4.78564,0-5.92236-3.56933-5.92236-6.14648a5.91048,5.91048,0,0,1,6.24267-6.291,7.072,7.072,0,0,1,2.8169.5127L55.63135,11.835a5.743,5.743,0,0,0-2.49658-.49609c-2.88135,0-4.81836,1.85644-4.81836,5.08984,0,3.29736,1.84082,5.1377,4.626,5.1377a4.65809,4.65809,0,0,0,2.06494-.35157V17.30908H52.542V16.23633h3.77783Z"/><path class="cls-2" d="M63.502,15.13184a3.126,3.126,0,0,0-1.69677-.51172,1.314,1.314,0,0,0-1.47266,1.29638c0,.75245.49609,1.1045,1.6167,1.58448,1.4082.57617,2.22461,1.3125,2.22461,2.625,0,1.55273-1.18457,2.57714-3.08887,2.57714a4.61989,4.61989,0,0,1-2.28906-.59228l.36816-1.02441a4.1445,4.1445,0,0,0,1.96875.59228c1.16846,0,1.74463-.624,1.74463-1.4082,0-.81641-.46435-1.26465-1.6167-1.729-1.47265-.59228-2.22461-1.40869-2.22461-2.46533a2.57775,2.57775,0,0,1,2.84864-2.48047,3.86221,3.86221,0,0,1,2.001.52832Z"/><path class="cls-2" d="M77.48877,14.7002a.31713.31713,0,0,1-.12793.01562.63654.63654,0,0,1-.33643-.0957c-4.7539,1.39258-9.05957,3.48926-9.04345,5.63379,0,1.53711,1.69677,2.06543,4.28955,2.06543a38.44025,38.44025,0,0,0,5.6665-.36817l.09619,1.168a51.60962,51.60962,0,0,1-5.73047.28809c-3.16894,0-5.47412-.73633-5.49023-3.08887-.01562-1.71289,1.69678-3.21777,4.21-4.51367-.54443-.97657-.73633-2.8335-.73633-6.45117l1.76075.14453c-.01612.208-.17627.33593-.4961.38379-.01611,2.80127.07959,4.54589.52783,5.41015a45.282,45.282,0,0,1,4.99414-1.9209Z"/><path class="cls-2" d="M82.09277,22.99121a17.55742,17.55742,0,0,1-.68847-5.63428,40.76878,40.76878,0,0,1,.86425-7.47509l1.55274.3042a.41428.41428,0,0,1-.416.28808,30.73941,30.73941,0,0,0-.92871,6.89893,18.99717,18.99717,0,0,0,.144,3.02539c.35205-.96094.99267-2.49707,1.32861-3.24951l.72021.67236A18.77236,18.77236,0,0,0,83.021,22.09473a2.19918,2.19918,0,0,0,.15966.76855Zm4.06543-9.42773c1.34473.01611,2.689.03222,4.03369-.064-.064-1.37646-.1123-2.561-.144-3.7456l1.6167.04785c-.01611.16015-.16016.28808-.4165.33642.01611,1.02442.04834,2.06494.08007,3.28125a14.20144,14.20144,0,0,0,3.1377-.64013l.14356,1.12011a15.39316,15.39316,0,0,1-3.2334.57618c.06445,1.77685.14453,3.64941.19238,4.67382a11.79629,11.79629,0,0,1,3.26514,2.03321l-.624,1.02441a9.61258,9.61258,0,0,0-2.59326-1.82471c-.01562,1.36036-.272,2.88135-2.67285,2.88135-1.873,0-3.12109-.89648-3.12109-2.30517,0-1.63282,1.64843-2.353,3.12109-2.353a5.52708,5.52708,0,0,1,1.52051.208c-.04785-1.0083-.144-2.689-.22412-4.25782-.4961.03223-1.16846.04834-1.63233.04834h-2.4331ZM90.544,19.854a5.42125,5.42125,0,0,0-1.585-.28808c-.97607,0-2.14453.35205-2.14453,1.36084,0,.896.96045,1.34424,2.12891,1.34424,1.18457,0,1.6167-.57618,1.6167-1.85694Z"/></svg>