<svg id="レイヤー_1" data-name="レイヤー 1" xmlns="http://www.w3.org/2000/svg" width="95" height="95.00397" viewBox="0 0 95 95.00397"><defs><style>.cls-1{fill:#008f3c;}.cls-2{fill:#fff;}</style></defs><title>sdgs_03</title><rect class="cls-1" width="95" height="95.00397"/><path class="cls-2" d="M79.40933,60.55822A4.35286,4.35286,0,0,0,75.097,55.915c-1.29988,0-2.86607,1.365-3.717,2.20379-.8511-.84093-2.31562-2.2059-3.61563-2.2059a4.43368,4.43368,0,0,0-4.41588,4.64338,4.59175,4.59175,0,0,0,1.37724,3.28448L71.386,70.24307l6.65017-6.39416-.00607-.0062a4.60213,4.60213,0,0,0,1.37923-3.28449"/><path class="cls-2" d="M51.056,80.6921c-.02244,0-.04475-.002-.06707-.002a1.08007,1.08007,0,0,1-1.01152-.86932l-3.382-18.90255-5.12478,9.11617a1.10773,1.10773,0,0,1-1.15371.53421,1.07167,1.07167,0,0,1-.89164-.88357L37.25181,55.09883,33.27058,63.6746a1.09775,1.09775,0,0,1-.99937.62161H16.80352a1.0501,1.0501,0,1,1,0-2.09829H31.56034l5.23648-11.2814a1.10344,1.10344,0,0,1,1.14962-.61132,1.07152,1.07152,0,0,1,.9323.88964l2.24247,15.04122L46.175,57.24584a1.10554,1.10554,0,0,1,1.13946-.53619,1.07306,1.07306,0,0,1,.89981.85915l3.13212,17.505,11.41753-36.3851a1.08817,1.08817,0,0,1,.9628-.74348,1.10068,1.10068,0,0,1,1.0704.58913L70.80542,50.484a1.03237,1.03237,0,0,1-.50978,1.39943,1.1178,1.1178,0,0,1-1.46254-.48945L64.04962,41.8756,52.102,79.94465a1.08365,1.08365,0,0,1-1.046.74745"/><path class="cls-2" d="M13.55648,27.37505c3.2499,0,4.66161-1.7245,4.66161-4.37721v-2.8254a2.94369,2.94369,0,0,0-2.37252-3.25,3.06074,3.06074,0,0,0,2.20391-3.1077V12.14713c0-2.71172-1.3-4.37932-4.26761-4.37932-3.33321,0-4.491,1.97841-4.491,4.80381v1.694H12.228v-1.9479c0-1.1862.36771-1.86472,1.3853-1.86472s1.38332.67852,1.38332,1.72252v2.06171c0,1.01759-.67641,1.55589-1.72252,1.55589H12.05935v2.45782h1.35691c1.12942,0,1.58032.53619,1.58032,1.55379v3.16472c0,1.01561-.4509,1.72239-1.4401,1.72239-1.101,0-1.49713-.73319-1.49713-1.86459V20.08714H9.12225v2.5146c0,2.9107,1.1578,4.77331,4.43423,4.77331"/><path class="cls-2" d="M71.62627,10.18943a5.807,5.807,0,0,0-1.72847-.10774,7.84511,7.84511,0,0,0-1.19438.21126c-.0305-.323-.05282-.72514-.09137-1.04809a8.952,8.952,0,0,1,1.69189-.20518,6.29749,6.29749,0,0,1,1.40775.07116c-.02852.35742-.04674.721-.08542,1.07859m.18695,5.01915a6.00957,6.00957,0,0,1-1.363.07711c-1.06643-.03446-2.0596-.20914-2.18965-1.85244.25192-.19092.50371-.39.75972-.57277.002.9323.43466,1.3527,1.12929,1.37514a4.72815,4.72815,0,0,0,1.68186-.20518c-.00806.392-.01215.77993-.01823,1.17814m-4.74082.16848c-.26816.02641-.53632.06509-.81254.09757a11.57623,11.57623,0,0,1-.38792-3.40635,21.85911,21.85911,0,0,1,.38792-3.83692l.6479.15224a2.02031,2.02031,0,0,1,.321.08331.11388.11388,0,0,1,.08331.11778.12165.12165,0,0,1-.11988.11579,17.77966,17.77966,0,0,0-.43268,3.98123c0,.32494.01426.64182.01426.96887.134-.40825.26208-.82469.40217-1.231.18684.17072.37577.35148.55864.524a8.58742,8.58742,0,0,0-.66215,2.43339"/><path class="cls-2" d="M29.95932,11.34674c-.34937,0-.50372.40218-.50372.77584,0,.30064.09137.73939.40416.73939.33511,0,.39611-.50979.39611-.82059,0-.24585,0-.69464-.29655-.69464m3.3942-1.21682c-.31081-.02628-.6236-.04265-.93031-.05071-.455-.01425-.91-.03248-1.361-.01834.00819.33932-.00806.65607.01426.99329a2.985,2.985,0,0,1,.2844,1.44419A3.35414,3.35414,0,0,1,29.486,15.86007c-.27213-.23766-.5626-.44693-.82866-.69476a2.335,2.335,0,0,0,1.64938-1.57213,1.14336,1.14336,0,0,1-.6298.14827c-.64591,0-1.02776-.83274-1.02776-1.53754,0-.8775.43268-1.74483,1.23294-1.74483a1.20229,1.20229,0,0,1,.30473.03657c0-.14629-.00607-.29457-.01426-.44086-.52-.004-1.03594.03657-1.54572.06906-.49566.04264-.98115.09347-1.46862.16253-.02839-.34738-.01624-.70282-.02839-1.05218,1.00954-.01823,2.015-.01823,3.02451-.05691-.02244-.44879-.03459-.89163-.04265-1.34873.21932.01835.457.05492.67641.0915a2.105,2.105,0,0,1,.2823.04463c.05281.01016.11368.0264.11368.1117a.25681.25681,0,0,1-.09744.18894c-.01017.29456-.01624.60735-.01624.89981.776-.00607,1.56-.02231,2.33582-.04872Z"/><path class="cls-2" d="M40.24644,9.60749a11.3601,11.3601,0,0,0-.77584-1.24918l.52-.43664a14.25711,14.25711,0,0,1,.74956,1.25116Zm-.88754.587c-.23977-.42858-.50781-.83274-.776-1.237l.52-.44681a10.95716,10.95716,0,0,1,.75364,1.24112Zm1.105,5.36442c-.38594-.51586-.837-1.05416-1.237-1.62891-.47532-.6805-.9649-1.3894-1.426-2.06171-.15845-.22961-.31689-.47942-.47533-.70691-.08331-.1158-.18683-.327-.331-.327-.20518,0-.4002.39412-.514.56471-.15026.23964-.30263.49764-.44483.72922-.25588.42251-.48338.85308-.73319,1.26344v.04872c0,.07724-.0305.1422-.09546.1422l-.83894-.92424a12.19143,12.19143,0,0,0,.88964-1.168c.2885-.43255.54438-.912.847-1.34253.2865-.39214.51189-.6236.94047-.6236a.99148.99148,0,0,1,.74956.47731c.16452.20307.32494.47123.47322.68248.35754.5078.711,1.02776,1.07251,1.50506.55652.75774,1.28166,1.65756,1.86868,2.36645Z"/><path class="cls-2" d="M48.013,9.64059a8.16937,8.16937,0,0,0-1.10908.29866,2.37116,2.37116,0,0,0-1.53358,2.44355c.01425,1.83422,1.15173,2.0068,2.2871,2.02713-.05071.34329-.10352.69674-.17865,1.04-.04674,0-.10364-.00211-.15237-.00211a3.6502,3.6502,0,0,1-1.48076-.34725,2.74223,2.74223,0,0,1-1.43812-2.61824,4.2051,4.2051,0,0,1,.88767-2.61217c-.83684.05281-1.77124.1422-2.59183.26-.03869-.453-.01835-.721-.061-1.0745a34.81029,34.81029,0,0,0,4.3022-.26816c.33709-.0507.90787-.12385,1.10289-.15236.03657.13612.11777.83894.13.908.01215.07117-.08542.07922-.16452.09745"/><path class="cls-2" d="M50.91367,11.2152a3.77457,3.77457,0,0,0-.20717,1.25525c0,.37577.06695,1.35084.47929,1.35084.14629,0,.27015-.17679.36152-.29456a8.404,8.404,0,0,0,1.05627-3.96288,2.71332,2.71332,0,0,0-1.68991,1.65135m2.58576,4.22893c-.22552-.268-.43268-.55045-.66228-.80832,1.16388-.34738,2.23838-.85109,2.23838-2.59394A2.41286,2.41286,0,0,0,53.538,9.5455c-.1991,1.58639-.58913,4.11128-1.74285,5.04556a.88586.88586,0,0,1-1.47059-.23965,3.44647,3.44647,0,0,1-.47124-1.881c0-2.24643,1.49093-3.83282,3.24184-3.83282,1.621,0,2.93512,1.20045,2.93512,3.33729a3.30253,3.30253,0,0,1-2.53083,3.46921"/><path class="cls-2" d="M63.46557,15.796a7.87433,7.87433,0,0,1-2.77469-3.95272,9.85405,9.85405,0,0,1-.40627,1.18831,5.84539,5.84539,0,0,1-1.631,2.21606,4.306,4.306,0,0,1-.77386.52l-.66228-.76368a4.364,4.364,0,0,0,.89585-.58914,5.88582,5.88582,0,0,0,1.85653-3.57483,16.91093,16.91093,0,0,0,.11778-2.83359l1.04611.11778c.06087.01017.1422.04674.1422.13612a.18.18,0,0,1-.13414.1665c-.01414.3697-.02232.7353-.02232,1.10711a6.981,6.981,0,0,0,1.17207,3.50788,6.53873,6.53873,0,0,0,1.954,1.85443Z"/><path class="cls-2" d="M32.87758,21.68816h-.50372v.60128h.50372Zm0-1.29182h-.50372v.59111h.50372Zm.79418,1.29182v1.2472h-1.2979v.47532h1.428v.68447h-1.428v.43875h1.52751v.71087H32.38192v.76989h-.82667v-.79009H30.6392v-.67245h.91605v-.457h-.77794v-.67431h.77794v-.48548h-.72513v-.64592h.72513v-.60128H30.4096v-.71707h1.14565v-.57475h-1.0766V19.661h1.05429v-.77187l.8775.0812a.12464.12464,0,0,1,.12385.13414c0,.071-.0853.12584-.13.16241V19.661h1.26145v1.31005h.457v.71707Zm-5.06588,1.042v-.30473l1.08069-2.20987h-.70492v-.61951a16.805,16.805,0,0,1-.51178,1.62694v5.21416a3.11613,3.11613,0,0,0,.86325-1.11516,12.00727,12.00727,0,0,1-.61145-2.13486c.23568-.12385.46726-.25179.70282-.37577a8.98122,8.98122,0,0,0,.30671,1.497,14.11479,14.11479,0,0,0,.18287-1.57821Zm5.29549,4.33455c-.34329.00819-.68658.01637-1.032.01637a3.76657,3.76657,0,0,1-3.07719-1.09285,4.83681,4.83681,0,0,1-.82469,1.11107l-.49764-.43056v.50371H27.629V22.91093a4.909,4.909,0,0,1-.327.55455L26.81232,22.72a10.93891,10.93891,0,0,0,1.32034-3.85725l.91.41234a.10735.10735,0,0,1,.06087.08939.14334.14334,0,0,1-.0812.11777h1.623v.72712l-1.02775,1.84848h1.105a9.968,9.968,0,0,1-.518,3.18691,3.11451,3.11451,0,0,0,2.75635,1.01164c.39808,0,.786-.0264,1.1862-.05281Z"/><path class="cls-2" d="M39.59928,23.77194v.71088a14.1739,14.1739,0,0,0,1.30807-.71893Zm.84093-1.10908h-.83894v.44284h.83894Zm0-1.15769h-.83894v.41631h.83894Zm-1.85046,4.19236a15.06487,15.06487,0,0,1-1.426.69265c-.01822.065-.05479.18485-.12186.18485-.03856,0-.071-.03856-.09336-.07513l-.44284-.784a22.53274,22.53274,0,0,0,2.13077-.88159Zm3.378,1.21868a5.52688,5.52688,0,0,1-2.36037-1.80359c0,.21323.00819.41631.00819.62967,0,.95263-.24585,1.304-1.00954,1.51721l-.59719-.65806c.581-.16452.7901-.27622.7901-1.044v-1.7855H37.6127c.2844.24981.55863.49975.81663.776l-.50384.52813c-.30461-.22142-.60934-.43478-.92213-.63587l.48958-.66823h-.11579v-.6743h1.41171V22.671H36.84294c-.00819.32494-.00819.6479-.03249.97085a7.49515,7.49515,0,0,1-.91407,3.38615c-.22353-.17468-.43676-.35147-.66624-.518a8.02135,8.02135,0,0,0,.77187-4.097c0-.979-.03657-1.96006-.05281-2.9412H38.545v-.8775c.29047.01835.65818.01835.94048.05492.05281.01017.12186.02839.12186.11171a.17772.17772,0,0,1-.12992.15633v.55454h2.62022V20.26H36.851c0,.55256.00608,1.09892.00608,1.65347h1.92559v-.38805H37.37715v-.69463h1.38927v-.47942l.80237.04476c.061,0,.13612.01016.13612.11368a.16726.16726,0,0,1-.10563.14431v.17667H41.279v1.06433h.94048v.79419H41.279v.81451l.06905-.05479.56682.78613a.22249.22249,0,0,1,.03856.12186.1048.1048,0,0,1-.09956.1096.3494.3494,0,0,1-.1686-.067c-.4204.132-.84093.28837-1.25935.42859a4.22267,4.22267,0,0,0,2.084,1.32021Z"/><path class="cls-2" d="M46.96827,26.99915c-1.05429,0-2.73813-.17059-2.73813-1.893a2.62349,2.62349,0,0,1,1.72041-2.32578,14.35039,14.35039,0,0,1-.29456-3.1951c.21943.02033.44891.03856.67033.0548.10972.01016.21944.02033.33114.03657.03856.01016.08121.02641.08121.08133a.18826.18826,0,0,1-.05071.09943,6.29492,6.29492,0,0,0-.04476.82877,5.62888,5.62888,0,0,0,.14022,1.61478.09184.09184,0,0,0,.06695.02852,8.02828,8.02828,0,0,0,1.85864-.80436c.1117.38792.18485.79419.27213,1.19029-.92015.2275-3.85118.80436-3.85118,2.2912,0,.83882,1.09284,1.00135,1.60263,1.00135a6.77105,6.77105,0,0,0,2.38058-.31688c.0305.37986.05281.76778.061,1.15582a12.17713,12.17713,0,0,1-2.2059.15224"/><path class="cls-2" d="M57.2089,25.5355h-.91606V26.486h.91606Zm0-1.50308h-.91606v.84291h.91606Zm-.39-2.57361H54.96841v.79629h1.85046ZM55.49456,25.5355h-.89175V26.486h.89175Zm0-1.50308h-.89175v.84291h.89175Zm-1.31624-3.27036h3.47739v2.15718H54.17832Zm-.37987-1.25116H58.1676v.79828H53.79845Zm-.00805,7.64744V23.91452l-.35557.7069c-.15435-.17269-.28836-.35345-.43465-.53619v3.17266h-.8206V23.98766a4.03622,4.03622,0,0,1-.65806.7048l-.52008-.6438a5.3981,5.3981,0,0,0,1.75091-2.663H51.32651v-.76778h.84489V19.10464l.86733.071c.04674,0,.124.02641.124.09956a.1754.1754,0,0,1-.124.14629v1.19636h.75972a6.71894,6.71894,0,0,1-.82059,2.30136,3.69119,3.69119,0,0,0,.81254.91407v-.49764h4.25533v3.82267Z"/><path class="cls-2" d="M61.82761,27.03982V26.2517h.7658V21.11478l.87551.10971a.12632.12632,0,0,1,.11579.126c0,.08331-.08331.126-.14021.15435v4.7469h.66823V19.20344l.87551.09956c.06087.01016.14009.04463.14009.126s-.08529.12794-.14009.16451v2.51658h1.371v.87143H64.972v3.254h1.51126v.80436Zm-.465-3.97714v.03657A6.765,6.765,0,0,0,62.37,24.123l-.45908.717a6.008,6.008,0,0,1-.54029-.57276v3.04484h-.85307V24.07829a4.43482,4.43482,0,0,1-.68249.69674l-.55045-.68038a7.11456,7.11456,0,0,0,1.99254-2.734H59.61973v-.778h.96081V19.07748l.92015.08121a.13525.13525,0,0,1,.10959.126c0,.07314-.06905.1179-.12385.13612v1.1619h.9282a6.78072,6.78072,0,0,1-1.05205,2.48"/><path class="cls-2" d="M74.08247,23.34981a.213.213,0,0,1-.11183-.04265c-.54227.18088-1.58639.59719-2.08192.8227v1.35282l-.88766-.00818c.00818-.12187.00818-.2539.00818-.40218v-.49156c-.60339.28031-.90391.63984-.90391,1.04412,0,.35135.34528.5362,1.02974.5362a6.67624,6.67624,0,0,0,2.18966-.35135l-.03037,1.02776a6.24824,6.24824,0,0,1-1.887.2539c-1.47468,0-2.212-.46317-2.212-1.40564a1.75084,1.75084,0,0,1,.6174-1.26541,5.39216,5.39216,0,0,1,1.14157-.75365c-.01215-.396-.134-.59707-.35135-.59707a1.087,1.087,0,0,0-.774.333,6.963,6.963,0,0,0-.58082.59521c-.27833.3108-.451.51995-.55455.62558-.13612-.15844-.34539-.394-.6257-.71906a6.35646,6.35646,0,0,0,1.8972-2.38256c-.4002.05281-.845.08938-1.32431.11579-.02851-.33312-.07724-.642-.12187-.91407a13.125,13.125,0,0,0,1.72239-.0874,7.16465,7.16465,0,0,0,.256-1.21459l1.0135.22948a.104.104,0,0,1,.0915.10562c0,.05282-.03657.09757-.11989.132-.03657.15038-.10562.37787-.20108.67442a11.59067,11.59067,0,0,0,1.40352-.32295l-.08318.96478c-.41235.08938-.969.17666-1.65954.27423a5.48654,5.48654,0,0,1-.46714.8775,1.49785,1.49785,0,0,1,.42647-.061c.46107,0,.76171.30883.89585.94048.60116-.31688,1.28575-.64182,2.02911-.97494l.34738.98312c0,.06906-.0305.10551-.09137.10551"/></svg>