<svg id="レイヤー_1" data-name="レイヤー 1" xmlns="http://www.w3.org/2000/svg" width="34.29701" height="35.72691" viewBox="0 0 34.29701 35.72691">
  <defs>
    <style>
      .cls-1 {
        fill: #fff;
      }

      .cls-2 {
        fill: #18b7cd;
      }
    </style>
  </defs>
  <title>access_icon03</title>
  <g>
    <rect class="cls-1" width="34.29701" height="35.72691" rx="17.14849"/>
    <path class="cls-2" d="M25.43571,6.81074H8.47128A1.48332,1.48332,0,0,0,6.965,8.269V25.18506a1.44791,1.44791,0,0,0,1.06141,1.36836v1.73541a.55876.55876,0,0,0,.55867.55879h1.72577a.55879.55879,0,0,0,.55879-.55879V26.64042H23.4237v1.64841a.55879.55879,0,0,0,.55879.55879h1.72577a.55879.55879,0,0,0,.55879-.55879v-1.7347a1.44787,1.44787,0,0,0,1.065-1.36907V8.269C27.332,7.46486,26.26812,6.81074,25.43571,6.81074ZM13.12788,9.39023a.77237.77237,0,0,1,.75315-.79005h6.535a.77052.77052,0,0,1,.75315.79005v.12735a.77033.77033,0,0,1-.75315.78992H13.881a.77217.77217,0,0,1-.75315-.78992ZM11.158,24.48559a1.73658,1.73658,0,1,1,1.65829-1.733A1.7,1.7,0,0,1,11.158,24.48559Zm8.71133.204a.43.43,0,0,1-.43.43H14.84294a.43.43,0,0,1-.43-.43v-.34944a.42993.42993,0,0,1,.43-.43h4.59637a.42993.42993,0,0,1,.43.43ZM23.13246,24.5a1.73465,1.73465,0,1,1,1.65829-1.733A1.69765,1.69765,0,0,1,23.13246,24.5Zm1.743-6.30977a.77154.77154,0,0,1-.75315.78719H10.17753a.772.772,0,0,1-.756-.78719V12.60385a.77021.77021,0,0,1,.756-.78707H24.12234a.7697.7697,0,0,1,.75315.78707Z"/>
  </g>
</svg>
