<svg id="レイヤー_1" data-name="レイヤー 1" xmlns="http://www.w3.org/2000/svg" width="34.29701" height="35.72691" viewBox="0 0 34.29701 35.72691">
  <defs>
    <style>
      .cls-1 {
        fill: #fff;
      }

      .cls-2 {
        fill: #18b7cd;
      }
    </style>
  </defs>
  <title>access_icon02</title>
  <g>
    <rect class="cls-1" width="34.29701" height="35.72691" rx="17.14849"/>
    <rect class="cls-2" x="9.45284" y="27.31128" width="15" height="0.59181"/>
    <rect class="cls-2" x="8.45284" y="28.67039" width="17" height="0.59181"/>
    <rect class="cls-2" x="7.45284" y="30.02666" width="20" height="0.58896"/>
    <path class="cls-2" d="M25.24071,7.51016H9.0563A1.48325,1.48325,0,0,0,7.55,8.9683V25.18391A1.48279,1.48279,0,0,0,9.0563,26.63928H25.24071A1.48279,1.48279,0,0,0,26.747,25.18391V8.9683a1.48325,1.48325,0,0,0-1.50631-1.45814M13.12789,10.08962a.77229.77229,0,0,1,.75316-.79H20.416a.77047.77047,0,0,1,.75316.79V10.217a.77039.77039,0,0,1-.75316.78994H13.88105a.77222.77222,0,0,1-.75316-.78994Zm-.37659,14.1203a1.38173,1.38173,0,1,1,1.31945-1.3789,1.35261,1.35261,0,0,1-1.31945,1.3789m3.64405-5.32032a.772.772,0,0,1-.756.78718H10.17755a.772.772,0,0,1-.756-.78718V13.30322a.77019.77019,0,0,1,.756-.78709h5.46181a.7702.7702,0,0,1,.756.78709Zm5.15036,5.51569a1.38024,1.38024,0,1,1,1.31943-1.3789,1.35079,1.35079,0,0,1-1.31943,1.3789m3.32976-5.51569a.77153.77153,0,0,1-.75318.78718H18.65764a.772.772,0,0,1-.756-.78718V13.30322a.7702.7702,0,0,1,.756-.78709h5.46465a.7697.7697,0,0,1,.75318.78709Z"/>
    <polygon class="cls-2" points="12.029 24.602 5.894 30.843 7.641 30.843 12.924 25.37 12.029 24.602"/>
    <polygon class="cls-2" points="22.268 24.602 28.403 30.843 26.656 30.843 21.146 25.137 22.268 24.602"/>
    <path class="cls-2" d="M16.939,8.156,12.941,5.82287a.3093.3093,0,0,1,0-.54929l3.998-2.33311a.41976.41976,0,0,1,.4162,0l3.998,2.33311a.30695.30695,0,0,1,0,.54929L17.35519,8.156a.40962.40962,0,0,1-.20669.05374A.40527.40527,0,0,1,16.939,8.156Zm-3.11173-2.6078,3.32124,1.9396,3.31842-1.9396L17.1485,3.60866Z"/>
  </g>
</svg>
