<svg id="レイヤー_1" data-name="レイヤー 1" xmlns="http://www.w3.org/2000/svg" width="187.25" height="21.6499" viewBox="0 0 187.25 21.6499">
  <title>access_txt</title>
  <g>
    <path d="M6.28857,2.04053c.96021.04785,1.46412.55176,1.46412,1.272A7.59919,7.59919,0,0,1,6.9126,5.76074c.19214,0,.36011.02393.48022.02393a1.86451,1.86451,0,0,1,1.87207,1.896c.02393.96045.072,2.25635.072,3.45655,0,3.26416,0,3.936-4.03247,3.936-2.2561,0-3.55224-.04785-3.62426-2.04-.02393-.648-.04786-1.60791-.04786-2.59228,0-.67188.02393-1.36817.02393-1.94385a.93023.93023,0,0,1-.624.23975A1.00712,1.00712,0,0,1,0,7.80078a1.15083,1.15083,0,0,1,.24-.67187A18.35128,18.35128,0,0,0,3.24048.86426a.92309.92309,0,0,1,.96-.72022,1.02187,1.02187,0,0,1,1.104.91211,1.02451,1.02451,0,0,1-.04785.26416l-.21606.72022ZM.0481,20.11377a1.22529,1.22529,0,0,1,.312-.76807,6.46319,6.46319,0,0,0,1.1521-2.90429.80371.80371,0,0,1,.81616-.81592.948.948,0,0,1,.96.88818c0,.86377-.624,4.46436-2.28027,4.46436A.91435.91435,0,0,1,.0481,20.11377ZM5.64062,4.0083c0-.14355-.144-.168-.312-.168-.19214,0-.64819,0-1.05615.02442-.312.64795-.67212,1.29589-1.032,1.94384a.66476.66476,0,0,1,.21582-.02392c.36011-.02393.93628-.04785,1.53613-.04785A7.82641,7.82641,0,0,0,5.64062,4.0083Zm-.9602,7.00879H3.28833c0,2.16016.02393,2.28027.67212,2.32812a5.6927,5.6927,0,0,0,.72.02393Zm0-3.72021c-.24,0-.48.02392-.624.02392-.74414.04785-.74414.38428-.74414,2.16016H4.68042ZM3.8645,19.63379v-.624c0-.936-.04809-1.96827-.09619-2.47217v-.12012a.68085.68085,0,0,1,.69605-.74414.86114.86114,0,0,1,.84008.67236,18.36841,18.36841,0,0,1,.28809,2.95215c0,1.104-.81592,1.15186-.98413,1.15186A.73832.73832,0,0,1,3.8645,19.63379ZM7.24878,19.562a.69172.69172,0,0,1-.696-.624,14.41948,14.41948,0,0,0-.64819-2.44824,1.06045,1.06045,0,0,1-.04785-.24024.67389.67389,0,0,1,.72-.624.80845.80845,0,0,1,.74414.43213,11.83832,11.83832,0,0,1,.864,2.59228A.93118.93118,0,0,1,7.24878,19.562ZM7.58472,9.481c0-.52784-.02393-1.00782-.02393-1.34424-.02417-.6001-.19214-.81592-.74414-.81592h-.624V9.481ZM6.19263,11.01709v2.35205a5.69279,5.69279,0,0,0,.72-.02393c.696-.04785.696-.38378.696-2.32812Zm2.71216,7.10449a11.3408,11.3408,0,0,0-.88794-1.7998.76383.76383,0,0,1-.144-.40821.68082.68082,0,0,1,.74414-.60009c.83985,0,1.77613,1.96826,1.77613,2.44824a.89417.89417,0,0,1-.84009.88818A.6934.6934,0,0,1,8.90479,18.12158ZM10.3689,9.313a.86434.86434,0,1,1,0-1.728l4.10449.02393V6.52881l-2.92822.02392a.8165.8165,0,1,1,0-1.63232l2.92822.02441V3.93652l-3.48047.02393a.87791.87791,0,1,1,0-1.75195l3.48047.02392V1.05615A1.00563,1.00563,0,0,1,15.52954,0a1.03856,1.03856,0,0,1,1.08008,1.05615V2.23242l3.74414-.02392a.85723.85723,0,0,1,.91211.86377.86245.86245,0,0,1-.91211.88818l-3.74414-.02393v1.0083l2.88013-.02441a.8165.8165,0,1,1,0,1.63232l-2.88013-.02392-.02417,1.08008L21.16992,7.585a.81033.81033,0,0,1,.84009.86377.81046.81046,0,0,1-.84009.86426Zm7.68066,8.06445H13.10522c0,1.12842.02393,2.25635.0481,3.24072v.02393a.95.95,0,0,1-.98413,1.00781A1.02143,1.02143,0,0,1,11.137,20.61816c0-1.32031-.02392-2.73632-.02392-4.15234,0-1.4165.02392-2.80859.02392-4.08057.02417-1.32031.52808-2.1123,2.16016-2.16015.79224-.02393,1.51221-.04785,2.25635-.04785.72,0,1.46411.02392,2.2561.04785,1.46411.04785,2.16016.792,2.18433,2.04,0,3.36035.04785,5.88037.072,6.43261v.04786a2.59881,2.59881,0,0,1-2.9043,2.66455c-1.92016,0-2.1123-.624-2.1123-1.2002a.9298.9298,0,0,1,.88818-1.0083.58688.58688,0,0,1,.19189.02441,4.36645,4.36645,0,0,0,.93628.11963c.52784,0,.96-.21582.98389-1.104ZM13.10522,14.6416v1.17578h4.96851c0-.38379-.02417-.792-.02417-1.17578Zm4.89649-2.04053c-.0481-.6958-.28809-.74365-2.54419-.74365-1.99219,0-2.25635.02393-2.3042.74365l-.02417.48047h4.87256Z"/>
    <path d="M31.82446,10.36914a9.93219,9.93219,0,0,0-3.12036-1.6084.84745.84745,0,0,1-.624-.81592,1.23118,1.23118,0,0,1,1.20019-1.17627,8.49331,8.49331,0,0,1,3.86426,1.48829,1.19064,1.19064,0,0,1,.52808,1.0083,1.32377,1.32377,0,0,1-1.176,1.36816A1.0465,1.0465,0,0,1,31.82446,10.36914Zm-1.89624,10.561a1.27168,1.27168,0,0,1-1.272-1.22413,1.16416,1.16416,0,0,1,.33594-.8164,21.87089,21.87089,0,0,0,3.60034-5.85645,1.03977,1.03977,0,0,1,.98413-.648,1.14152,1.14152,0,0,1,1.176,1.15186c0,.74414-1.84815,4.68066-3.69629,6.81689A1.48661,1.48661,0,0,1,29.92822,20.93018ZM32.80859,5.32861a9.93476,9.93476,0,0,0-2.88037-2.208.81881.81881,0,0,1-.5039-.72022,1.28694,1.28694,0,0,1,1.29589-1.15234c.62427,0,4.17652,1.80029,4.17652,3.14453a1.38055,1.38055,0,0,1-1.27222,1.34424A1.04211,1.04211,0,0,1,32.80859,5.32861Zm2.52,14.71338a1.05719,1.05719,0,1,1,0-2.1123l5.18457.02392V4.89648l-3.86425.02393a1.02523,1.02523,0,0,1-1.08008-1.05566,1.02534,1.02534,0,0,1,1.08008-1.05616H47.37769a1.05993,1.05993,0,1,1,0,2.11182L42.9375,4.89648V17.95361l5.42432-.02392a1.06015,1.06015,0,1,1,0,2.1123Z"/>
    <path d="M66.28906,5.71289l-9.00073.04785a1.08306,1.08306,0,0,1-1.1521-1.104,1.08855,1.08855,0,0,1,1.1521-1.12842l7.80054.04834-.02393-2.3042A1.17468,1.17468,0,0,1,66.33691.144a1.16185,1.16185,0,0,1,1.27222,1.12842l-.02392,2.3042,7.77661-.04834A1.07654,1.07654,0,0,1,76.49,4.63281a1.08206,1.08206,0,0,1-1.12817,1.12793ZM65.137,10.105c-1.36816,0-2.64038,0-3.38427.02393-.6482,0-.93628.312-.96021,1.05615-.02393.88818-.02393,2.18408-.02393,3.52832s0,2.76025.02393,3.9126v.02392a1.05658,1.05658,0,0,1-1.176,1.00781A1.11509,1.11509,0,0,1,58.39233,18.626V17.18555c0-2.13623.02393-4.6084.0481-6.43262.02393-1.728,1.032-2.59229,2.832-2.64014.91211-.02392,2.32837-.04785,3.8645-.04785V7.17676a1.18817,1.18817,0,0,1,2.37622,0v.88818c1.584,0,3.0962.02393,4.12818.04785,1.60815.04785,2.73633.88819,2.76025,2.54444.02417.76806.02417,1.60791.02417,2.3042v1.53613c0,.40771.02393.91211.04785,1.7998v.07227c0,1.65625-1.272,2.97607-3.50415,2.97607-1.22412,0-2.52026-.19189-2.52026-1.31982a1.06089,1.06089,0,0,1,.98413-1.15234.90289.90289,0,0,1,.24.02392,5.20005,5.20005,0,0,0,1.22412.19238c.648,0,1.176-.24023,1.176-1.0083,0,0-.02393-3.48047-.0481-5.04052a.83606.83606,0,0,0-.88794-.91211c-.81616-.02393-2.16016-.04786-3.60034-.04786v10.249a1.21272,1.21272,0,0,1-2.42432,0Z"/>
    <path d="M88.84863,6.28857a.82337.82337,0,0,1,.76807-.48.90085.90085,0,0,1,.936.81592.76067.76067,0,0,1-.09594.38428c-1.63208,3.6001-5.13648,5.47266-5.90454,5.47266a.9624.9624,0,0,1-.96-.96045.80155.80155,0,0,1,.552-.76807,8.118,8.118,0,0,0,3.67236-2.73584c-.312.07178-3.43237.76807-3.76831.76807a.80814.80814,0,0,1-.79224-.84034.71084.71084,0,0,1,.6482-.74414c.312-.02392.72-.0957,1.176-.168.312-.312.67212-.6958,1.032-1.12792a10.30782,10.30782,0,0,0-2.23217-1.6084.7025.7025,0,0,1-.408-.6001.804.804,0,0,1,.84009-.74365,1.116,1.116,0,0,1,.45605.0957l.12012.07227A9.59573,9.59573,0,0,0,86.1123.69629a.74038.74038,0,0,1,.76807-.50391c.50415,0,1.08032.33594,1.08032.81592a9.59467,9.59467,0,0,1-1.68017,2.97608,9.00828,9.00828,0,0,1,.81592.624A12.83749,12.83749,0,0,0,88.4165,2.42432a.73058.73058,0,0,1,.72022-.43213,1.00746,1.00746,0,0,1,1.05615.86426c0,.74414-2.32837,3.4082-2.61621,3.74414.50391-.09571.936-.168,1.22388-.21582Zm11.449,11.54493c0-.792,0-1.94385-.04785-2.78418a.85694.85694,0,0,0-.93628-.8877c-1.752-.04834-3.6482-.04834-5.49634-.04834s-3.62427,0-5.11255.04834a.85649.85649,0,0,0-.88794.8877c-.02417.84033-.02417,1.80029-.02417,2.73632,0,.96,0,1.92041.02417,2.80811v.04834a1.0128,1.0128,0,0,1-1.10425.96,1.03693,1.03693,0,0,1-1.12793-.98389c-.02417-1.05615-.02417-2.08837-.02417-3.1206,0-1.03174,0-2.04.02417-3,.02393-1.17627.864-1.87207,2.54419-1.89649,1.43994-.02392,2.97608-.02392,4.6084-.02392.072-.26367.11987-.52783.168-.74414.072-.43164.552-.64795,1.05615-.64795.57593,0,1.1521.28808,1.1521.84033a5.50531,5.50531,0,0,1-.12012.55176c1.65625,0,3.31226,0,4.92041.02392,1.60816.02442,2.49634.76807,2.56836,1.92041.04786.67188.04786,1.2959.04786,1.8003,0,1.60791.04809,2.49609.04809,2.73584v.07226c0,1.272-1.03223,2.28028-3.43237,2.28028-1.104,0-2.52027-.04834-2.52027-1.08008a.98794.98794,0,0,1,1.05616-.96045c.072,0,.144.02441.21606.02441a11.30821,11.30821,0,0,0,1.2002.11963c.67187,0,1.2-.19189,1.2-.792ZM93.793,19.17773c-3.57617,0-4.03223-.168-4.03223-2.13623,0-1.08007.12012-1.896,1.77613-1.96826.74414-.02392,1.60815-.04785,2.44824-.04785,3.55224,0,4.36841.02393,4.36841,1.96826C98.35352,19.106,97.56152,19.17773,93.793,19.17773ZM91.3208,2.13623a.7654.7654,0,0,1-.864-.71973A.81686.81686,0,0,1,91.3208.624h5.25659a.7583.7583,0,1,1,0,1.51221Zm1.17627,8.64111v.8877c0,.43213-.43213.64844-.88818.64844-.43213,0-.88819-.21631-.88819-.64844,0-.86377-.02392-2.01611-.02392-3.168,0-1.65625.02392-3.36035.04809-4.46436a1.31938,1.31938,0,0,1,1.44019-1.22412c.52783-.02441,1.1521-.02441,1.728-.02441,2.88037,0,3.16821.04834,3.16821,2.42432,0,1.34423-.144,1.92041-1.488,2.01611-.33594.02441-.6001.02441-3.12036.02441V7.897h4.0083c.43213,0,.62427.26367.62427.52783s-.19214.52832-.62427.52832H92.4729l.02417.74366H96.4812c.43213,0,.62427.26416.62427.52832a.551.551,0,0,1-.62427.55224Zm1.53613,5.4961c-2.23217,0-2.23217.02392-2.23217.76806,0,.69629,0,.74414,2.208.74414,2.11231,0,2.25635-.02392,2.25635-.76806C96.26538,16.29736,96.21729,16.27344,94.0332,16.27344Zm1.32007-12.0249c-.02417-.38379-.12012-.48-1.41626-.48-.864,0-1.416,0-1.416.50391l-.02393.26416h2.8562Zm-2.8562,1.20019V6.2168c.35986,0,.84009.02392,1.272.02392,1.08008,0,1.58423-.02392,1.58423-.43213,0-.12011-.02417-.23974-.02417-.35986ZM100.99365.64844c.50415,0,1.03223,0,1.41626.02392,1.12793.04785,1.728.6001,1.728,1.34375a4.71451,4.71451,0,0,1-1.08008,2.35254,1.10364,1.10364,0,0,0-.24.55176c0,.168.096.312.33594.57617A3.51322,3.51322,0,0,1,104.23389,7.897a2.49682,2.49682,0,0,1-2.64014,2.64014c-1.36816,0-1.46411-.76807-1.46411-1.03223a.87519.87519,0,0,1,.88818-.91211c.04785,0,.11988.02393.1919.02393a1.15,1.15,0,0,0,.28808.02441c.696,0,.7439-.60009.7439-.91211a2.44446,2.44446,0,0,0-.81592-1.5122,1.72719,1.72719,0,0,1-.50415-1.2002,2.61051,2.61051,0,0,1,.384-1.22412,5.78206,5.78206,0,0,0,.6482-1.36816c0-.1919-.21607-.1919-1.17627-.1919-.59986,0-.98389,0-.98389.55176V11.377a.85653.85653,0,0,1-.93628.84034.88688.88688,0,0,1-.98388-.84034c0-7.4165,0-7.44043.02392-9.04834a1.57013,1.57013,0,0,1,1.728-1.65625C99.9856.64844,100.48975.64844,100.99365.64844Z"/>
    <path d="M123.84131,11.54541c-.24.40771-.52808.792-.792,1.17578,1.32006-.02392,2.95214-.02392,4.44018-.02392h1.70435a2.06654,2.06654,0,0,1,2.18408,2.376,14.36951,14.36951,0,0,1-.64795,3.88867,3.53477,3.53477,0,0,1-3.52832,2.35205c-1.53613,0-2.18433-.33593-2.18433-1.20019a.66522.66522,0,0,1,.02393-.21582,5.96267,5.96267,0,0,1-2.80811,1.68017,1.02537,1.02537,0,0,1-1.05615-1.0083.92381.92381,0,0,1,.57617-.83984,9.44843,9.44843,0,0,0,4.77637-5.37646h-1.32007c-2.08838,3.88818-5.78467,6.2163-6.74463,6.2163a1.04382,1.04382,0,0,1-1.05615-1.03173.87917.87917,0,0,1,.57617-.84034,10.50147,10.50147,0,0,0,5.04029-4.34423l-1.29615.02392c-1.344,1.48828-3.14428,2.832-3.84033,2.832a1.077,1.077,0,0,1-1.05591-1.03174.88061.88061,0,0,1,.48-.792,12.596,12.596,0,0,0,4.2483-3.84033h-1.89625a.86617.86617,0,0,1-.72-.33643V11.665a3.16214,3.16214,0,0,1-3.00024,3.21631c-1.51221,0-1.7041-.792-1.7041-1.2002a.9085.9085,0,0,1,.81592-1.00781.82029.82029,0,0,1,.24023.02393,1.62275,1.62275,0,0,0,.33594.04785c1.12817,0,1.12817-1.31983,1.12817-1.584a3.93264,3.93264,0,0,0-.93628-2.66406c-.408-.50439-.792-.88818-.792-1.48828a2.23615,2.23615,0,0,1,.24-.91211,11.80426,11.80426,0,0,0,1.2002-3.02441c0-.28809-.19214-.40772-.96021-.40772-.84009,0-1.39209.02393-1.39209.76807-.02392,2.064-.04785,4.92041-.04785,7.96875v9.09668a1.06452,1.06452,0,0,1-1.12817,1.05615,1.07878,1.07878,0,0,1-1.176-1.05615c0-4.36866.02393-12.64942.11987-17.44971.0481-2.18408,1.32007-2.18408,3.52832-2.18408.48,0,.96021,0,1.36817.02392,1.36816.04786,2.06421.74414,2.06421,1.728,0,.55225-.21607,1.32031-1.68018,4.15234a.485.485,0,0,0-.072.26416.47328.47328,0,0,0,.144.33594,5.5955,5.5955,0,0,1,1.58423,2.83252.85592.85592,0,0,1,.83984-.50439h11.5691a.925.925,0,1,1,0,1.84863Zm3.4563-2.85645c-.792.04786-1.65625.07178-2.52027.07178-2.71215,0-4.70434,0-4.80029-2.064-.02417-.40821-.02417-.88819-.02417-1.39209,0-.792.02417-1.63233.0481-2.32813A2.23811,2.23811,0,0,1,122.353.86426c.81616-.02393,1.65625-.04785,2.47241-.04785.84009,0,1.656.02392,2.42407.04785a2.36322,2.36322,0,0,1,2.3042,1.94433c.0481.67188.072,1.46387.072,2.25586,0,.55225,0,1.1045-.02392,1.58448A2.1244,2.1244,0,0,1,127.29761,8.689Zm.168-4.75244c0-.144-.02393-.28808-.02393-.43213-.0481-.9121-.19214-.936-2.64038-.936-2.47217,0-2.73608,0-2.78418.96,0,.12012-.02393.26416-.02393.4082Zm-5.47242,1.63233c0,1.43994.02393,1.48779,2.68824,1.48779,2.56811,0,2.76025-.07178,2.78418-.83984,0-.1919.02392-.43213.02392-.64795Zm3.88819,13.46484c.04809,0,.09619-.02392.16821-.02392a1.06058,1.06058,0,0,1,.24.04785,4.31153,4.31153,0,0,0,.88794.12011c.81616,0,1.82422-.144,2.13623-3.91211v-.12011a.692.692,0,0,0-.67212-.792A14.43253,14.43253,0,0,1,125.88135,19.03369Z"/>
    <path d="M149.761,3.28857c-.26392-.28808-.45581-.43212-.624-.43212-.168,0-.33593.144-.57592.43212a37.04664,37.04664,0,0,1-7.70459,7.20069,1.80129,1.80129,0,0,1-1.00831.33594,1.30668,1.30668,0,0,1-1.32006-1.272,1.31406,1.31406,0,0,1,.76806-1.12842,25.91912,25.91912,0,0,0,7.58472-6.74462A2.678,2.678,0,0,1,148.969.52832a3.09355,3.09355,0,0,1,2.25635,1.15186A28.3039,28.3039,0,0,0,159.002,7.68066a1.12695,1.12695,0,0,1,.648,1.03223,1.4497,1.4497,0,0,1-1.416,1.416C156.93774,10.12891,152.42529,6.26465,149.761,3.28857ZM148.53711,13.6333a39.50075,39.50075,0,0,1-1.7522,4.68066c2.208-.16845,4.39234-.43212,6.48047-.74414a15.82574,15.82574,0,0,0-1.7522-1.39209.97718.97718,0,0,1-.5039-.8164,1.0901,1.0901,0,0,1,1.12793-.98389c1.41626,0,5.73657,4.0083,5.73657,5.42432a1.36485,1.36485,0,0,1-1.344,1.29638,1.08677,1.08677,0,0,1-.98414-.64843,10.68348,10.68348,0,0,0-.79223-1.22364,98.31785,98.31785,0,0,1-12.91309,1.63184,1.13548,1.13548,0,0,1-1.104-1.2002,1.00689,1.00689,0,0,1,.98413-1.08007c.84009-.02393,1.7041-.04785,2.56811-.09571a27.92269,27.92269,0,0,0,1.70411-4.8247l-4.53638.02392a1.02207,1.02207,0,0,1-1.12793-1.03174A1.09506,1.09506,0,0,1,141.4563,11.521h15.24145a1.08316,1.08316,0,0,1,1.1521,1.10449,1.06043,1.06043,0,0,1-1.1521,1.05566Zm-2.73633-4.4165a1.058,1.058,0,0,1-1.12817-1.08008,1.07132,1.07132,0,0,1,1.12817-1.08008h6.88867a1.07126,1.07126,0,0,1,1.12793,1.08008,1.058,1.058,0,0,1-1.12793,1.08008Z"/>
    <path d="M172.70459,6.57666c.21606,0,.4082.02393.55225.02393a2.00812,2.00812,0,0,1,2.136,1.94433c.02417.96.072,1.96826.072,2.92822,0,2.832,0,3.69629-3.93628,3.69629-.60009,0-1.20019-.02392-1.58422-.04785,0,.28809-.02393,1.82422-.02393,3.09619,1.00806-.28808,2.01611-.57617,2.76025-.792-.52807-.67236-.552-.88818-.552-1.0083a.967.967,0,0,1,1.032-.86377,1.13231,1.13231,0,0,1,.76807.2876c.57617.55224,2.3523,2.49658,2.3523,3.43262a1.15289,1.15289,0,0,1-1.12818,1.17578,1.05638,1.05638,0,0,1-.96-.6958,6.46518,6.46518,0,0,0-.43213-.792,60.76237,60.76237,0,0,1-6.9126,2.23194,1.09378,1.09378,0,0,1-1.008-1.15186c0-.74414.312-.84033,2.01611-1.248V16.89746c0-3.09619.02417-7.51269.0481-8.40039.02392-.74414.408-1.94434,2.59228-1.94434V5.2085c0-.57569.552-.86377,1.104-.86377s1.104.28808,1.104.86377Zm12.45728.144V5.68848c-.02417-1.00782-.384-1.05567-1.17627-1.05567-.91211-.02441-2.08814-.04834-3.21631-.04834-3.02417,0-3.21631.02393-3.21631,1.29639,0,.26367.02417.57568.02417.91211v.02392a.91318.91318,0,0,1-.98413.91211.96893.96893,0,0,1-1.00806-.96045c0-.40771-.02392-.86376-.02392-1.36767a1.18807,1.18807,0,0,1-.91211.43164c-.45606,0-.86426-.23975-1.82422-1.68018-.936-1.416-.98413-1.48779-1.2002-1.48779a.38669.38669,0,0,0-.312.144,25.94364,25.94364,0,0,1-3.09619,4.0083,1.253,1.253,0,0,1-2.11231-.67236,1.03674,1.03674,0,0,1,.384-.76807,21.26427,21.26427,0,0,0,3.00024-3.67236A2.364,2.364,0,0,1,171.50464.52832a2.64662,2.64662,0,0,1,2.08813,1.15186A28.95748,28.95748,0,0,0,175.585,4.08057c.02393.02392.04785.07177.072.09619.408-1.46436,1.60816-1.46436,4.48828-1.46436l-.02392-1.53613V1.15234a1.14875,1.14875,0,0,1,2.28027,0V2.7124c.91187,0,1.77612.02393,2.56812.04785a2.14344,2.14344,0,0,1,2.2561,2.16016c.02417.4082.02417.88818.02417,1.32031,0,.57617-.02417,1.46436-1.08008,1.46436a.9432.9432,0,0,1-1.008-.96045Zm-15.21753,4.89649c0,.74414.02417,1.43994.02417,1.80029.28784.02393.864.02393,1.43994.02393.55224,0,1.12817,0,1.34424-.02393.696-.04834.696-.52832.696-1.80029Zm3.50439-1.65625c0-.38379-.02393-.74414-.02393-1.05615-.02417-.55176-.09619-.69581-1.72827-.69581-1.1521,0-1.68017,0-1.728.74414V9.96094Zm5.97656,2.92822c0,.43213.02393.936.02393,1.2002.84009,0,1.92016-.02393,2.92822-.02393,3.84033,0,3.96045.792,3.96045,3.28809,0,.57617-.02393,1.17627-.0481,1.72851a2.0302,2.0302,0,0,1-2.11206,1.896c-.696.02392-1.44018.04785-2.18432.04785-.88794,0-1.728-.02393-2.35205-.04785-1.51221-.07227-2.25635-.84033-2.28028-2.08838-.02392-1.48779-.02392-3.4082-.02392-5.35254,0-1.94385,0-3.91211.02392-5.40039.02393-1.19971.76807-1.87207,2.28028-1.896.624-.02392,1.416-.02392,2.16015-.02392.52808,0,1.05616,0,1.44019.02392,1.1521.04785,2.04.624,2.08813,1.7041.02393.52832.04786,1.0083.04786,1.48829,0,2.18408-.168,2.97607-4.08033,2.97607-.57592,0-1.22412,0-1.84814-.02393A3.07763,3.07763,0,0,0,179.42529,12.88916Zm2.32813-2.32812c1.39209,0,1.5122-.33594,1.5122-1.17627,0-1.17579-.02392-1.39209-1.7041-1.39209-1.36816,0-2.04028.04834-2.06421.69628-.02417.50391-.02417,1.22413-.02417,1.77588C180.19336,10.48926,181.0813,10.561,181.75342,10.561Zm-2.25611,7.56054c.04786.84033.57593.84033,2.56812.84033,2.13623,0,2.13623-.168,2.13623-1.7041,0-1.20019-.096-1.27246-1.89624-1.27246-.88794,0-1.87207.02442-2.83228.04834C179.47314,16.60938,179.47314,17.59375,179.49731,18.12158Z"/>
  </g>
</svg>
