<svg id="レイヤー_1" data-name="レイヤー 1" xmlns="http://www.w3.org/2000/svg" width="341.52197" height="133.41626" viewBox="0 0 341.52197 133.41626">
  <title>about_txt_sp</title>
  <g>
    <path d="M33.02551,7.439a7.94687,7.94687,0,0,1-1.17614-2.71228,1.02667,1.02667,0,0,1,1.10412-1.0321,1.464,1.464,0,0,1,1.39209,1.1521,11.87314,11.87314,0,0,0,.86414,2.04016c.36-.12.72009-.24,1.08007-.384a2.005,2.005,0,0,1,.696-.14392,1.09061,1.09061,0,0,1,1.128,1.104c0,.91211-.64795,1.10413-1.8241,1.44019,2.08814,3.72033,3.28821,5.92846,3.28821,7.44067,0,.96008-.48,1.34412-1.056,1.34412a1.93873,1.93873,0,0,1-1.24817-.504c-.88806-.74414-3.84033-1.29614-5.54443-1.29614-1.92017,0-2.88025.936-2.88025,1.60815,0,1.056,2.06421,1.77612,4.20032,1.77612.384,0,.76806-.024,1.1521-.048h.21606c.936,0,1.39209.552,1.39209,1.1521a1.435,1.435,0,0,1-1.56006,1.368c-4.89648,0-7.77673-1.89612-7.77673-4.05627,0-1.17615,1.2721-3.81641,5.44849-3.81641a30.499,30.499,0,0,1,4.44043.52808c.09594,0,.168.024.21594.024s.072-.024.072-.04809c0-.048-.048-.96008-2.47217-4.96839a16.36957,16.36957,0,0,1-2.6643.384c-2.78418,0-5.11243-2.37622-5.11243-3.36023A1.081,1.081,0,0,1,27.553,5.42273a1.46732,1.46732,0,0,1,1.12817.52808,4.1289,4.1289,0,0,0,3.09619,1.65612A2.62225,2.62225,0,0,0,32.2334,7.583Z"/>
    <path d="M50.30493,21.57617a1.27181,1.27181,0,0,1-1.176-1.0321,17.54793,17.54793,0,0,1-.7201-5.23242,26.61045,26.61045,0,0,1,.168-3.12024c.28809-2.68824.84009-5.06446,1.00818-6.55262a1.0996,1.0996,0,0,1,1.104-1.128,1.22273,1.22273,0,0,1,1.24817,1.176c0,.048-.024.12-.024.192-.168,1.03211-.6,2.71228-.936,4.46436a23.41262,23.41262,0,0,0-.52808,4.12842c0,.88806.14405,1.08008.192,1.08008.072,0,.192-.144.33606-.432.672-1.46411,1.056-1.72815,1.44006-1.72815a1.04726,1.04726,0,0,1,1.00818,1.00806.99437.99437,0,0,1-.12.456A14.70937,14.70937,0,0,0,51.40906,19.584c0,.28809.072.576.072.864A1.16868,1.16868,0,0,1,50.30493,21.57617ZM62.978,4.72668c-.0719.696-.14392,1.44019-.168,2.23218q.61212-.108,1.29614-.21594a1.473,1.473,0,0,1,.312-.024A1.09618,1.09618,0,0,1,65.64233,7.751c0,.504-.40808,1.0321-1.29614,1.1521-.552.072-1.08008.144-1.56018.21606.02405,1.77612.09607,3.5282.21607,4.80029a24.87581,24.87581,0,0,1,.192,2.66431v.264a9.53671,9.53671,0,0,1,2.76026,1.68005,1.34567,1.34567,0,0,1,.456.98413,1.28325,1.28325,0,0,1-1.22412,1.34412,1.15526,1.15526,0,0,1-.86414-.432A8.1421,8.1421,0,0,0,62.594,19.032a5.5523,5.5523,0,0,1-4.4884,2.49622c-1.96814,0-3.72021-1.44019-3.72021-3.00037,0-1.82409,2.23217-2.56811,4.4403-2.56811a11.96791,11.96791,0,0,1,2.23218.24,6.05723,6.05723,0,0,0,.02405-.67212c0-.408-.02405-.84009-.072-1.34412-.096-1.0321-.21607-2.80823-.288-4.6803-2.49621.528-3.64831,1.12806-4.32043,1.75208a1.14228,1.14228,0,0,1-.76807.33606,1.15985,1.15985,0,0,1-1.10412-1.1521c0-.52808.33606-1.7522,6.14453-3.04834,0-1.00806.024-1.96814.072-2.73621a1.02461,1.02461,0,0,1,1.10413-.984,1.24887,1.24887,0,0,1,.9121.36.92555.92555,0,0,1,.936-.86414c.384,0,2.9043,1.05616,2.9043,2.13623a.99819.99819,0,0,1-.88806,1.00806.75.75,0,0,1-.576-.288,7.38664,7.38664,0,0,0-1.84815-1.32019.98731.98731,0,0,1-.31213-.1919ZM58.44165,17.80786c-1.87219,0-1.96814.6-1.96814.816,0,.288.312.88806,1.36816.88806a3.51325,3.51325,0,0,0,2.66419-1.39209A7.83117,7.83117,0,0,0,58.44165,17.80786ZM67.15442,4.03064a7.80391,7.80391,0,0,0-1.87219-1.2721.75187.75187,0,0,1-.552-.696.89044.89044,0,0,1,.936-.84009c.16809,0,2.95227.84009,2.95227,2.06421a1.01807,1.01807,0,0,1-.91211,1.00806A.71093.71093,0,0,1,67.15442,4.03064Z"/>
    <path d="M82.94568,17.87988A1.747,1.747,0,0,0,84.74585,19.464a11.31818,11.31818,0,0,0,4.0083-.88806,1.6458,1.6458,0,0,1,.76807-.192,1.14247,1.14247,0,0,1,1.17614,1.1521c0,1.75208-3.60034,2.16016-5.30444,2.16016-3.12036,0-4.32043-1.46411-4.51245-3.02429-.12-.936-.36-1.32007-.72009-1.32007-.76807,0-2.01612,1.87219-3.38428,3.3363a1.88755,1.88755,0,0,1-1.48816.792c-1.1521,0-1.46411-.64807-1.46411-1.0321a1.39287,1.39287,0,0,1,.576-.984,82.48164,82.48164,0,0,0,9.48083-9.02478.72391.72391,0,0,0,.14405-.21607.02347.02347,0,0,0-.02405-.02392,2.83873,2.83873,0,0,0-.312.14392c-1.1521.52808-4.48841,1.99219-5.97644,1.99219a1.102,1.102,0,0,1-1.22412-1.08008,1.1566,1.1566,0,0,1,1.08007-1.128A49.69731,49.69731,0,0,0,83.73767,8.495c.62415-.192.62415-.264,1.24817-.504a2.04231,2.04231,0,0,1,.624-.12A1.54347,1.54347,0,0,1,87.17,9.35913a1.61522,1.61522,0,0,1-.4801,1.104c-1.12805,1.17615-4.10437,4.15247-5.37646,5.23255C82.4176,15.74365,82.75366,17.01575,82.94568,17.87988Zm1.60815-11.233c-1.44018,0-4.56042-1.89612-4.56042-2.95227a1.02912,1.02912,0,0,1,1.10412-.936,1.57619,1.57619,0,0,1,1.03211.408,4.42119,4.42119,0,0,0,2.76013,1.2002c.72009.072,1.03211.504,1.03211.984A1.31786,1.31786,0,0,1,84.55383,6.64685Z"/>
    <path d="M105.818,17.08777c0,1.7041.816,2.71228,1.96814,2.71228.144,0,2.61621-.264,2.61621-2.42432,0-1.224-.84008-2.8562-3.16821-4.72839a1.51786,1.51786,0,0,1-.64807-1.08008,1.06393,1.06393,0,0,1,1.1521-.984,1.66312,1.66312,0,0,1,1.00806.384c2.8562,2.37622,4.03234,4.63232,4.03234,6.50451,0,2.83228-2.80822,4.6084-5.0885,4.6084-2.18408,0-4.0083-1.60815-4.0083-4.89636v-.0481c0-.6,0-1.22412.02405-1.82409-1.89624-.52808-3.55237-1.03211-3.55237-2.78431a4.05168,4.05168,0,0,1,.86414-2.28015,1.15151,1.15151,0,0,0,.24-.67212c0-.57605-.86414-1.296-2.28015-1.82409a1.10458,1.10458,0,0,1-.84009-.96009,1.06632,1.06632,0,0,1,1.1521-.98413c.76807,0,4.20032,1.48816,4.20032,3.52832a3.06841,3.06841,0,0,1-.88807,1.89612,1.55571,1.55571,0,0,0-.45605.93616c0,.36.312.52807.67212.624.312.072.64795.144.984.24.24011-5.08838.24011-5.97644.24011-6.60046,0-.98413-.02405-1.65625-.02405-2.54431a1.075,1.075,0,0,1,1.12805-1.1521c1.24817,0,1.2721,1.12817,1.2721,1.72815,0,.86413-.12,1.68017-.168,2.7843-.09607,2.1842-.264,4.29638-.36,6.40857,1.39209.528,2.01612.96008,2.01612,1.68005a1.21892,1.21892,0,0,1-1.12805,1.24817,1.55119,1.55119,0,0,1-.96009-.40808Z"/>
    <path d="M135.7467,12.26331c0-2.66419-2.08813-4.94434-5.56848-4.94434h-.048a1.08475,1.08475,0,0,1,.672,1.00806v.12c0,2.52027-2.47217,6.88855-5.11243,9.48084a2.60358,2.60358,0,0,1-1.80017.816c-1.7041,0-3.24024-1.92017-3.24024-4.53638,0-4.34436,4.27234-8.76074,9.67286-8.76074,4.84838,0,7.87268,3.21631,7.87268,6.96057a7.35851,7.35851,0,0,1-.52808,2.71228c-2.11218,5.32837-8.64075,6.07251-8.97681,6.07251A1.26221,1.26221,0,0,1,127.3219,20.016c0-.52795.40808-1.0321,1.32019-1.20007C133.0105,18.09583,135.7467,15.40759,135.7467,12.26331ZM128.81006,7.439c-3.00025.6-6.00049,3.79224-6.00049,6.64856,0,1.80018,1.20007,2.01612,1.2721,2.01612a.63564.63564,0,0,0,.456-.192c.72009-.64795,3.72034-4.20032,3.81628-7.44055A1.24132,1.24132,0,0,1,128.81006,7.439Z"/>
    <path d="M152.13782,20.712a1.34367,1.34367,0,0,1-1.44019-1.296,1.23864,1.23864,0,0,1,1.2002-1.17615c4.53637-.64807,9.81677-3.04822,9.81677-6.26453a3.27406,3.27406,0,0,0-3.50427-3.02429,9.40568,9.40568,0,0,0-3.02429.64807c-2.28016.79212-5.16041,2.52026-7.60865,3.64832a1.73523,1.73523,0,0,1-.792.192,1.29722,1.29722,0,0,1-1.34412-1.27209,1.33464,1.33464,0,0,1,.936-1.22412c2.3042-.91211,6.09656-2.8562,8.4967-3.52832a13.45222,13.45222,0,0,1,3.62439-.6,5.52625,5.52625,0,0,1,5.85645,5.2804c0,1.77612-1.08008,3.48034-3.19226,5.13647C158.1864,19.55994,152.78589,20.712,152.13782,20.712ZM162.33875,6.74292a8.2553,8.2553,0,0,0-1.94422-1.41614.757.757,0,0,1-.552-.72009.98141.98141,0,0,1,1.00806-.88806c.33606,0,3.04821,1.08008,3.04821,2.25622a1.09374,1.09374,0,0,1-.96008,1.08008A.75078.75078,0,0,1,162.33875,6.74292Zm2.18408-2.11218a8.6429,8.6429,0,0,0-1.96814-1.34412.80227.80227,0,0,1-.6-.72009.96448.96448,0,0,1,1.00806-.88806c.52807,0,3.09619,1.056,3.09619,2.16015a1.05156,1.05156,0,0,1-.96,1.05616A.75693.75693,0,0,1,164.52283,4.63074Z"/>
    <path d="M180.69836,22.53625a1.20232,1.20232,0,0,1-1.12805-.79211,33.78866,33.78866,0,0,0-4.82434-7.56067,4.30528,4.30528,0,0,1-1.12817-2.52014,3.65784,3.65784,0,0,1,.936-2.23218,57.41377,57.41377,0,0,0,4.48841-6.31262,1.1367,1.1367,0,0,1,1.00818-.624,1.53847,1.53847,0,0,1,1.51208,1.41613,1.31048,1.31048,0,0,1-.21606.69605c-.96009,1.53613-3.64832,4.53638-4.92041,6.07251a1.37189,1.37189,0,0,0-.384.88806,2.06941,2.06941,0,0,0,.57605,1.22412c2.44824,3.16834,4.34436,4.96839,5.44849,7.70471a1.90122,1.90122,0,0,1,.12.6A1.50091,1.50091,0,0,1,180.69836,22.53625Z"/>
    <path d="M193.80225,22.6803a1.18884,1.18884,0,0,1-1.22413-1.17615,1.27786,1.27786,0,0,1,.88807-1.1521c4.92041-2.01611,6.28857-5.59253,6.28857-9.00073a15.80672,15.80672,0,0,0-.40808-3.43237c-.24-1.12806-.76807-1.58411-1.34412-1.58411a2.56458,2.56458,0,0,0-1.77612,1.1521c-1.0321,1.34411-1.27209,2.97619-1.32007,5.11243-.04809,1.29614-.67212,1.87219-1.27209,1.87219-1.2002,0-1.2002-1.58411-1.2002-1.92017a20.62184,20.62184,0,0,1,.96009-5.16052c.3601-1.224.96008-2.9762,1.24816-4.44031a.97243.97243,0,0,1,1.00806-.84009,1.34379,1.34379,0,0,1,1.36816,1.24817c0,.0719-.024.14392-.024.21594a4.16443,4.16443,0,0,1-.744,1.68018c-.16809.264-.192.36-.16809.36.04809,0,.192-.144.3601-.312a3.17956,3.17956,0,0,1,2.16016-1.0321c2.88025,0,3.60034,4.80041,3.60034,7.29663,0,4.00842-1.75219,8.37671-7.65674,10.945A1.752,1.752,0,0,1,193.80225,22.6803Z"/>
    <path d="M215.162,21.76819a1.05362,1.05362,0,0,1-1.176.984,1.03049,1.03049,0,0,1-1.1521-.984v-.024c.048-3.02417.096-7.84863.096-12.16907h-1.65613a1.05713,1.05713,0,1,1,0-2.11218h1.65613c-.02393-1.87207-.048-3.52832-.096-4.77637v-.048a1.04075,1.04075,0,0,1,1.12805-1.00818A1.08105,1.08105,0,0,1,215.162,2.66248v.024c-.02393,1.32007-.048,2.97632-.048,4.77637h1.36817a1.00533,1.00533,0,0,1,1.056,1.05615,1.00523,1.00523,0,0,1-1.056,1.056h-1.39209c0,4.29639.02392,9.00086.0719,12.16907Zm12.5531-4.22437-.02393.432.048,1.87219v.072a2.65113,2.65113,0,0,1-2.97632,2.80823c-1.608,0-2.08814-.4801-2.08814-1.22412a1.00322,1.00322,0,0,1,1.00806-1.0321,1.1673,1.1673,0,0,1,.28809.024,5.3691,5.3691,0,0,0,.9121.14405c.48,0,.744-.24012.744-1.12818v-.072l-.024-1.89612-8.40064.024a.88217.88217,0,0,1-.93616-.88818.86926.86926,0,0,1,.93616-.88806l8.37671.024-.024-.504V15.2876c0-.6001.55213-.88806,1.10413-.88806a.9439.9439,0,0,1,1.056.88806v.504h2.71228a.849.849,0,0,1,.91211.88806.86132.86132,0,0,1-.91211.88818Zm-2.8562-11.92907V6.83887c.88806,0,1.72815,0,2.32824.024,1.51209.048,2.3042.84008,2.37622,1.80017a14.6976,14.6976,0,0,1,.048,1.51208c0,.744-.02405,1.53613-.048,2.13623a2.11666,2.11666,0,0,1-2.25622,1.96814c-.79212.048-2.01624.072-3.24036.072-1.416,0-2.8562-.024-3.69629-.072-2.37622-.09607-2.37622-1.46411-2.37622-3.55237,0-.72.02405-1.44006.0481-1.94409.048-.88806.6-1.87219,2.32812-1.92016.552-.024,1.34412-.024,2.20826-.024V5.61475l-4.27247.04809a.91907.91907,0,1,1,0-1.82422l4.27247.048V2.63855a1.14174,1.14174,0,0,1,2.28015,0V3.8866l2.76025-.02393a5.19885,5.19885,0,0,0-1.51208-1.00818.54847.54847,0,0,1-.36011-.528,1.05785,1.05785,0,0,1,1.008-.93616c.48011,0,2.52027.81616,2.52027,1.82422a1.20737,1.20737,0,0,1-.192.64807l.552-.024a.91669.91669,0,1,1,0,1.82422Zm-3.48035,15.04931A5.573,5.573,0,0,0,219.4104,19.344a.62228.62228,0,0,1-.40808-.57605,1.19133,1.19133,0,0,1,1.1521-1.0321c.57617,0,2.9043.91211,2.9043,2.01611a1.24186,1.24186,0,0,1-1.08008,1.2002A.79683.79683,0,0,1,221.37854,20.66406Zm1.32019-12.337c-2.32825,0-2.52026,0-2.56824.76806,0,.192-.024.45606-.024.7201h2.59228Zm0,2.88025h-2.59228c0,1.1521,0,1.60815.9121,1.63208.384,0,.98414.024,1.68018.024Zm4.80042-1.39209c0-.264-.024-.50415-.024-.696-.024-.79211-.12-.79211-2.76026-.79211V9.81519Zm-2.78431,1.39209V12.8634c2.35218,0,2.73621,0,2.76026-.79211,0-.24.024-.552.024-.864Z"/>
    <path d="M248.81055,19.032c-.624,0-1.22412-.024-1.8241-.024a.99022.99022,0,0,1,.48.816c0,1.2721-3.93628,3.28833-8.04065,3.31226a1.09855,1.09855,0,0,1-1.22412-1.056,1.00155,1.00155,0,0,1,1.12805-.98413h.12a9.48414,9.48414,0,0,0,5.85656-1.84815,1.72088,1.72088,0,0,1,.36-.264c-.48,0-.91211-.02393-1.368-.02393-1.6322-.024-2.49634-.81616-2.56824-1.87219-.02405-.672-.0481-1.44006-.0481-2.16016,0-.74414.024-1.48816.0481-2.08825.048-.864.72-1.77613,2.49622-1.8,1.20007-.02405,2.47216-.02405,3.74426-.02405,1.58411,0,3.19226,0,4.84839.048a2.263,2.263,0,0,1,2.40027,1.65613,20.6159,20.6159,0,0,1,.09594,2.1842,21.21358,21.21358,0,0,1-.09594,2.18421,2.32561,2.32561,0,0,1-2.52027,1.89612c-.52807,0-1.056.024-1.60815.024-.02393.312-.02393.624-.02393.96009.048.816.792.91211,2.35218.91211,2.35217,0,3.09631-.45606,3.09631-1.70423a1.03745,1.03745,0,0,1,1.128-1.056,1.17643,1.17643,0,0,1,1.2721,1.176c0,3.02429-2.52027,3.40832-5.49646,3.40832-2.25623,0-4.6084,0-4.6084-2.23217Zm-.744-10.17688a.73721.73721,0,0,1,.76806.744.76214.76214,0,0,1-.79211.76807c-.57605.024-1.87219.048-3.19226.048-1.6322,0-3.28833-.02392-3.76831-.048-1.1521-.072-1.96826-.6001-2.01624-1.80017-.048-.88806-.072-1.68018-.072-2.44825s.024-1.53613.072-2.37609a1.844,1.844,0,0,1,1.99219-1.68018h6.88855a.744.744,0,0,1,.79212.744.76884.76884,0,0,1-.816.76806h-2.76026v.86414c.57605,0,1.03211.02393,1.32007.02393,1.51221.072,1.56018.74414,1.56018,1.89624s-.312,1.56006-2.88025,1.56006v.98413c1.24805,0,2.4242-.024,2.88025-.048Zm-1.80017-2.88025c-.024-.24011-.144-.33606-.48011-.3601h-4.80041V6.6709c1.27209,0,3.84033,0,4.70447-.024.432-.024.552-.09595.576-.36Zm-2.95227-2.40027h-1.63221c-.384.024-.624.09607-.64807.52808l-.02392.33606h2.3042Zm0,4.36841c-.84009,0-1.68018,0-2.3042-.024l.02392.45605c.02405.52808.24012.52808,2.28028.52808Zm9.81689,6.60059h-9.38489v.912H253.131Zm-.04809-1.22412c-.02393-.504-.24-.744-1.00806-.76807-1.34412-.024-2.95227-.048-4.51245-.048-.96,0-1.92017,0-2.76013.02392-.7201.024-.98413.384-1.00818.79212v.072h9.28882Zm.024,3.28821h-9.31286v.12011c.024.816.21606.84009,5.20849.84009,3.60035,0,4.0083,0,4.08033-.84009Zm-1.70422-10.9209c-.936,1.27209-1.296,1.7041-1.89612,1.7041a1.042,1.042,0,0,1-1.10412-.88806.8996.8996,0,0,1,.264-.57605,11.9406,11.9406,0,0,0,2.4242-3.76831.85891.85891,0,0,1,.86413-.52808c.57605,0,1.22413.40808,1.22413.98413a.94264.94264,0,0,1-.072.33606,8.92635,8.92635,0,0,1-.504.936l5.06445-.02393a.89406.89406,0,0,1,.96008.912.89957.89957,0,0,1-.96008.93616Zm-.912,4.05639a.94014.94014,0,0,1-1.00818-.93615.92274.92274,0,0,1,1.00818-.912h6.76856a.92475.92475,0,1,1,0,1.84814Z"/>
    <path d="M276.77051,4.60669c-.264-.28809-.45593-.432-.624-.432s-.33606.14392-.57605.432a37.03965,37.03965,0,0,1-7.70459,7.20068,1.799,1.799,0,0,1-1.00817.33594,1.24923,1.24923,0,0,1-.552-2.40015,25.92394,25.92394,0,0,0,7.5846-6.74462,2.679,2.679,0,0,1,2.08826-1.1521,3.09368,3.09368,0,0,1,2.25622,1.1521A28.31515,28.31515,0,0,0,286.01135,8.999a1.127,1.127,0,0,1,.64807,1.03211,1.45,1.45,0,0,1-1.41613,1.41614C283.94714,11.44727,279.43481,7.583,276.77051,4.60669Zm-1.224,10.34485a39.477,39.477,0,0,1-1.7522,4.68042c2.20813-.168,4.39234-.432,6.48059-.744a15.9084,15.9084,0,0,0-1.75219-1.39209.97656.97656,0,0,1-.504-.81616,1.09023,1.09023,0,0,1,1.128-.984c1.41614,0,5.73657,4.0083,5.73657,5.42444a1.36475,1.36475,0,0,1-1.34412,1.29614,1.08637,1.08637,0,0,1-.98413-.64807,10.67629,10.67629,0,0,0-.79211-1.22412,98.2826,98.2826,0,0,1-12.91309,1.6322,1.13557,1.13557,0,0,1-1.10412-1.2002,1.00682,1.00682,0,0,1,.98413-1.08007c.84009-.02393,1.7041-.048,2.56824-.096a27.94552,27.94552,0,0,0,1.7041-4.82446l-4.53638.024a1.0223,1.0223,0,0,1-1.12805-1.0321,1.095,1.095,0,0,1,1.12805-1.12817h15.24133a1.083,1.083,0,0,1,1.1521,1.10412,1.06065,1.06065,0,0,1-1.1521,1.05615Zm-2.73633-4.41638a1.05805,1.05805,0,0,1-1.12805-1.08008A1.07115,1.07115,0,0,1,272.81018,8.375h6.88867a1.07115,1.07115,0,0,1,1.12805,1.08008,1.05805,1.05805,0,0,1-1.12805,1.08008Z"/>
    <path d="M307.15491,21.4082h-.24c-5.2085-.4801-8.49671-4.08044-8.49671-7.77673a6.75589,6.75589,0,0,1,1.72815-4.39233.49428.49428,0,0,0,.12-.21607.05159.05159,0,0,0-.048-.048.80979.80979,0,0,0-.24.09594C296.21,11.01526,295.754,11.1593,295.226,11.1593a1.36628,1.36628,0,0,1-1.46411-1.29614,1.37606,1.37606,0,0,1,1.104-1.24817c.50416-.168,1.8722-.57605,2.59229-.84009,1.12805-.408,3.12024-1.032,5.49646-1.96814a18.32438,18.32438,0,0,1,6.3606-1.48816c1.20007,0,1.63208.55213,1.63208,1.17615,0,1.22412-1.00806,1.48816-1.92017,1.48816a4.42727,4.42727,0,0,1-.552-.02405,4.64073,4.64073,0,0,0-.57605-.02392c-3.72034,0-7.36865,3.16821-7.36865,6.38452,0,2.88025,2.7362,5.32849,6.50451,5.32849,1.20008,0,1.77625.696,1.77625,1.416C308.81116,20.73608,308.259,21.4082,307.15491,21.4082Zm2.06421-8.4248a9.1003,9.1003,0,0,0-2.04016-1.48816.80538.80538,0,0,1-.6001-.744,1.01563,1.01563,0,0,1,1.05615-.936c.312,0,3.24023,1.104,3.24023,2.35217a1.14674,1.14674,0,0,1-1.0321,1.12805A.82905.82905,0,0,1,309.21912,12.9834Zm2.76025-1.99219a8.42763,8.42763,0,0,0-2.08813-1.41614.83366.83366,0,0,1-.62415-.744,1.03455,1.03455,0,0,1,1.05615-.96008c.384,0,3.26428,1.03211,3.26428,2.28015a1.10871,1.10871,0,0,1-1.008,1.12818A.8788.8788,0,0,1,311.97937,10.99121Z"/>
    <path d="M37.63318,38.55859c.96008.048,1.46411.552,1.46411,1.2721a7.6002,7.6002,0,0,1-.84009,2.44812c.192,0,.33606.02405.45606.02405A1.86458,1.86458,0,0,1,40.58545,44.199c.024.96009.072,2.25623.072,3.4563,0,3.31238,0,3.9364-3.9364,3.9364-2.16016,0-3.50427-.048-3.57629-2.04016-.02393-.60009-.048-1.5122-.048-2.44824,0-.64807.024-1.29614.024-1.87219a.97163.97163,0,0,1-.64807.264,1.00718,1.00718,0,0,1-1.03211-.936,1.15161,1.15161,0,0,1,.24-.67212A19.85727,19.85727,0,0,0,34.825,37.38245a.92318.92318,0,0,1,.96008-.7201,1.02208,1.02208,0,0,1,1.10413.91211,4.11257,4.11257,0,0,1-.28809.98413ZM31.44067,56.65613a1.33652,1.33652,0,0,1,.312-.79212,6.56586,6.56586,0,0,0,1.1521-2.97619.80961.80961,0,0,1,.816-.84009.93657.93657,0,0,1,.96008.912c0,.69616-.552,4.63244-2.25623,4.63244A.94812.94812,0,0,1,31.44067,56.65613Zm4.63245-9.12085H34.75293c0,2.16028.02405,2.28027.67212,2.32825.14392,0,.36.02392.64807.02392Zm0-3.72034c-.21606,0-.40808.02405-.55212.02405-.744.048-.744.384-.744,2.16016h1.29614ZM34.921,42.30286a11.96162,11.96162,0,0,1,1.416-.048,7.82754,7.82754,0,0,0,.64807-1.72815c0-.144-.14392-.16809-.312-.16809s-.504.024-.864.024c-.144.312-.31213.64807-.4801.96008-.168.33606-.36.64807-.52808.98413ZM35.257,56.176V55.528c0-.96008-.048-2.04016-.096-2.54419v-.12a.69341.69341,0,0,1,.72-.76807.83568.83568,0,0,1,.81616.67212,19.95023,19.95023,0,0,1,.288,3.07227c0,.864-.552,1.176-.96009,1.176A.75145.75145,0,0,1,35.257,56.176Zm2.68823-.696a15.67768,15.67768,0,0,0-.64807-2.54419,1.02387,1.02387,0,0,1-.048-.264.67391.67391,0,0,1,.72009-.624.83185.83185,0,0,1,.744.456,11.52456,11.52456,0,0,1,.86413,2.66419.97343.97343,0,0,1-.93615.96008A.67968.67968,0,0,1,37.94519,55.48Zm.96008-9.48083c0-.528-.02392-1.00806-.02392-1.34412-.024-.6-.192-.816-.74414-.816h-.552v2.16016Zm-1.32006,1.53613v2.35217c.288,0,.52807-.02392.64807-.02392.696-.048.696-.384.696-2.32825ZM40.29749,54.616a12.28624,12.28624,0,0,0-.88819-1.84815.77484.77484,0,0,1-.14392-.43213.68053.68053,0,0,1,.744-.6.7056.7056,0,0,1,.552.21594,5.21831,5.21831,0,0,1,1.22412,2.28027.8998.8998,0,0,1-.84009.912A.66557.66557,0,0,1,40.29749,54.616Zm1.5841-8.49683a.8644.8644,0,1,1,0-1.72815l4.03235.024V43.35889l-2.85632.024a.83136.83136,0,0,1-.88806-.84008.81882.81882,0,0,1,.88806-.84009l2.85632.02405V40.6947l-3.52832.02405a.87681.87681,0,1,1,0-1.7522l3.52832.02405V37.81445a1.02383,1.02383,0,0,1,1.08008-1.056,1.05122,1.05122,0,0,1,1.12805,1.056V38.9906l3.9364-.02405a.87681.87681,0,1,1,0,1.7522l-3.9364-.02405v1.03211l2.7843-.02405a.81882.81882,0,0,1,.88806.84009.83136.83136,0,0,1-.88806.84008l-2.80823-.024V44.415l4.6084-.024a.86408.86408,0,0,1,0,1.72815Zm2.25623,7.03272c0,1.44006.02392,2.88012.048,4.05627v.02405a.90641.90641,0,0,1-.96008.91211.97127.97127,0,0,1-1.03211-.93616c0-1.17615-.024-2.54419-.024-3.91235,0-1.39209.024-2.80823.024-4.05628.024-1.32019.552-2.11218,2.16016-2.16028.79211-.02392,1.72815-.048,2.64026-.048.936,0,1.87219.02405,2.66418.048,1.46411.0481,2.18421.79212,2.20826,2.04016,0,1.82422.02392,4.75245.072,6.09656v.048a2.656,2.656,0,0,1-3.00037,2.64025c-1.296,0-2.01611-.24-2.01611-1.176A.92961.92961,0,0,1,47.81006,55.72a.59557.59557,0,0,1,.192.024,4.35119,4.35119,0,0,0,.936.12c.98413,0,.98413-.672.98413-2.71215Zm1.89612-4.34449c-.432,0-.816.02405-1.12806.02405-.72009.048-.76806.33606-.76806,2.61621h1.89612Zm3.86438,2.64026c-.024-.624-.024-1.248-.0481-1.92016-.02393-.384-.168-.672-.744-.696-.312,0-.72009-.02405-1.10412-.02405v2.64026Z"/>
    <path d="M63.313,46.88721a9.93725,9.93725,0,0,0-3.12024-1.60816.84723.84723,0,0,1-.624-.816,1.231,1.231,0,0,1,1.20007-1.176,8.49278,8.49278,0,0,1,3.86438,1.488,1.19046,1.19046,0,0,1,.528,1.00818,1.32338,1.32338,0,0,1-1.176,1.368A1.04568,1.04568,0,0,1,63.313,46.88721ZM61.41687,57.44812a1.27168,1.27168,0,0,1-1.27209-1.224,1.16342,1.16342,0,0,1,.33593-.81616,21.86642,21.86642,0,0,0,3.60034-5.85645,1.04,1.04,0,0,1,.98414-.64807,1.14142,1.14142,0,0,1,1.176,1.1521c0,.744-1.84814,4.68042-3.69629,6.81653A1.48643,1.48643,0,0,1,61.41687,57.44812ZM64.29712,41.8468a9.93318,9.93318,0,0,0-2.88025-2.20813.81851.81851,0,0,1-.504-.72009,1.287,1.287,0,0,1,1.296-1.1521c.62415,0,4.17639,1.80017,4.17639,3.14429a1.38023,1.38023,0,0,1-1.27209,1.34411A1.04181,1.04181,0,0,1,64.29712,41.8468Zm2.52014,14.71326a1.05713,1.05713,0,1,1,0-2.11218l5.18445.024V41.41479l-3.86426.02393a1.0563,1.0563,0,1,1,0-2.11206H78.86633a1.06,1.06,0,1,1,0,2.11206l-4.44043-.02393V54.47192l5.42456-.024a1.06009,1.06009,0,1,1,0,2.11218Z"/>
    <path d="M97.44189,50.5116a12.81913,12.81913,0,0,1-.048,1.32007,1.42722,1.42722,0,0,1-1.29614,1.46411,1.002,1.002,0,0,1-.98413-1.12806v-.21606a13.05836,13.05836,0,0,0,.09607-1.60815c-.504.264-2.73621,1.44018-2.73621,2.95227,0,.40808.192,1.82422,2.64014,1.82422a11.15068,11.15068,0,0,0,3.02429-.504,1.93973,1.93973,0,0,1,.6001-.09607,1.15853,1.15853,0,0,1,1.248,1.12805c0,.50415-.192,1.72827-4.29626,1.72827-3.9364,0-5.37647-2.06421-5.37647-3.81641,0-2.92822,3.40821-4.75244,4.65638-5.40039-.28809-.93615-.76807-1.41613-1.41614-1.41613a2.366,2.366,0,0,0-1.24817.432c-1.00806,1.12805-1.608,1.46411-2.13611,1.46411a.95831.95831,0,0,1-1.0321-.91211,1.30936,1.30936,0,0,1,.552-.984A12.52533,12.52533,0,0,0,92.76147,43.095a7.03475,7.03475,0,0,1-1.176.09595c-2.4242,0-2.44824-1.34412-2.44824-1.53613a1.0202,1.0202,0,0,1,.984-1.056,1.52675,1.52675,0,0,1,.86413.312,1.62771,1.62771,0,0,0,.88806.192,9.27707,9.27707,0,0,0,1.89624-.264,9.2425,9.2425,0,0,0,.432-1.89612.943.943,0,0,1,1.00806-.84009,1.22463,1.22463,0,0,1,1.29614,1.056,4.57868,4.57868,0,0,1-.144.88806c.72009-.36.816-.384.98413-.384a1.04505,1.04505,0,0,1,1.0321,1.05615c0,.792-.62414,1.27209-3.12036,1.87207a25.817,25.817,0,0,1-1.368,2.40027,3.20849,3.20849,0,0,1,3.02417,2.25622,27.87864,27.87864,0,0,1,5.54455-1.94421,1.27758,1.27758,0,0,1,1.34412,1.24817.99169.99169,0,0,1-.64807.936c-.74414.312-1.53613.40809-2.7843.79212-1.00806.312-2.04016.696-2.9762,1.08008A8.87817,8.87817,0,0,1,97.44189,50.5116Z"/>
    <path d="M114.19336,49.83948c-1.70422.64807-1.80017.67212-2.11218.67212a1.18213,1.18213,0,0,1-1.2002-1.17615,1.04763,1.04763,0,0,1,.81616-1.03211c.912-.288,1.72815-.52795,2.49622-.792V43.74292H112.1532a1.05631,1.05631,0,0,1,0-2.11206h2.04016l-.02405-3.69641a1.10084,1.10084,0,0,1,1.1521-1.12805,1.06835,1.06835,0,0,1,1.12805,1.12805v3.69641h1.60816a1.056,1.056,0,1,1,0,2.11206h-1.60816v2.88037c.40808-.19214.81616-.40808,1.24817-.62414a1.07633,1.07633,0,0,1,.45606-.12,1.00718,1.00718,0,0,1,.936,1.0321c0,.64808-.168.76807-2.66418,1.96814v2.37623c0,.384.072,2.56823.09594,3.40832v.12a2.67587,2.67587,0,0,1-3.02429,2.88024c-1.1521,0-2.20813-.168-2.20813-1.29614a1.00993,1.00993,0,0,1,.936-1.10412.66376.66376,0,0,1,.21606.024,3.92116,3.92116,0,0,0,.86414.12c.504,0,.864-.21594.88806-1.03211ZM131.33081,54.736a1.02545,1.02545,0,0,1,1.08008,1.056,1.05721,1.05721,0,0,1-1.08008,1.08008c-1.65613.0481-4.17639.072-6.62463.072-2.18409,0-4.34436-.02392-5.80847-.072a1.07846,1.07846,0,0,1-1.10413-1.08008,1.04621,1.04621,0,0,1,1.10413-1.056Zm-5.88049-2.20825c-.86414,0-1.7522-.02393-2.49622-.048a2.56113,2.56113,0,0,1-2.7362-2.59229c-.0481-1.368-.072-2.8562-.072-4.39233,0-1.68018.02393-3.43225.072-5.01636.048-1.36816,1.104-2.2323,2.7362-2.3523.57605-.048,1.2721-.048,2.01611-.048.98414,0,2.01624.024,2.80823.048a2.71873,2.71873,0,0,1,2.71228,2.52027c.072,1.41614.09607,3.00024.09607,4.65637,0,1.51209-.02405,3.04822-.09607,4.51245a2.684,2.684,0,0,1-2.64026,2.66419C127.20239,52.50378,126.33838,52.52771,125.45032,52.52771Zm2.88025-8.56873c0-1.0321-.024-1.99218-.072-2.83227-.048-.864-.16809-1.12805-2.90429-1.12805-2.40015,0-2.88025.168-2.90418,1.12805-.04809.86413-.072,1.82422-.09607,2.83227ZM122.354,45.92712c0,1.17615.048,2.3523.09607,3.4563.072,1.03211.432,1.12818,2.95215,1.12818.64807,0,1.29614-.02405,1.72827-.072,1.20008-.144,1.20008-.192,1.20008-4.51246Z"/>
    <path d="M141.57776,56.87207a1.08276,1.08276,0,0,1,.696-1.00806c4.41639-1.94409,5.85645-4.72839,5.85645-7.3446,0-.67212-.21594-4.15234-2.06409-4.15234a3.82436,3.82436,0,0,0-1.89624.744,5.31978,5.31978,0,0,1-2.52014,1.08008,1.276,1.276,0,1,1-.12012-2.54419,5.20959,5.20959,0,0,0,1.63221-.60009,7.43181,7.43181,0,0,1,3.04821-.76807c4.22437,0,4.32044,5.71252,4.32044,6.19263,0,6.43249-6.69666,9.67285-7.68067,9.67285A1.29562,1.29562,0,0,1,141.57776,56.87207Zm6.04846-16.58545a11.01256,11.01256,0,0,1-4.65637-1.032,1.12948,1.12948,0,0,1-.64807-.98413,1.076,1.076,0,0,1,1.10412-1.05615,1.77059,1.77059,0,0,1,.64807.144,6.64608,6.64608,0,0,0,2.80823.52807c.288,0,.552,0,.84009-.024h.096a1.10207,1.10207,0,0,1,1.22412,1.0802A1.32,1.32,0,0,1,147.62622,40.28662Z"/>
    <path d="M178.44275,45.80713c-1.77612-.02393-3.55225-.048-5.30444-.048-3.02417,0-5.95252.048-8.56873.072a.93555.93555,0,0,0-1.056,1.008c0,.33606.02393.79212.02393,1.29615,0,2.37622-.26392,6.21655-2.25611,8.73669a1.45321,1.45321,0,0,1-1.1521.6001,1.21892,1.21892,0,0,1-1.24817-1.12805,1.23656,1.23656,0,0,1,.36-.79212c1.7522-1.87219,2.06421-4.75244,2.06421-6.98462,0-.88806-.048-1.65613-.072-2.23217v-.09595a2.40945,2.40945,0,0,1,2.52026-2.3523c.91211,0,1.89612-.02392,2.88025-.02392a8.68159,8.68159,0,0,0-1.20007-1.56018.63563.63563,0,0,1-.192-.45606c0-.48.624-.91211,1.22412-.91211a.9339.9339,0,0,1,.552.16809c.264.168,1.87219,1.84815,1.87219,2.66419V43.863h2.06421a12.48771,12.48771,0,0,0,1.176-2.32825.98829.98829,0,0,1,.96008-.64807,1.31362,1.31362,0,0,1,1.34412,1.12817,5.50668,5.50668,0,0,1-1.056,1.84815c1.7041,0,3.4082.02392,5.06433.02392a.96023.96023,0,1,1,.02405,1.92017Zm-16.05737-5.08838a.99617.99617,0,0,1,0-1.99219h6.21655V37.52649a1.12763,1.12763,0,0,1,1.22412-1.10413,1.15017,1.15017,0,0,1,1.24817,1.10413v.02393l-.024,1.17614h6.07251a.99677.99677,0,0,1,0,1.99219Zm1.92016,16.5614a.94872.94872,0,1,1,0-1.89612l5.8086.02393v-1.8241h-3.31238a.86684.86684,0,1,1,0-1.72815h3.31238V50.17554h-2.97632c-1.39209,1.99218-1.7041,2.23217-2.23218,2.23217a1.11193,1.11193,0,0,1-1.1521-.936.79322.79322,0,0,1,.264-.57605,13.62563,13.62563,0,0,0,2.68823-4.03235.868.868,0,0,1,.84009-.52807,1.10962,1.10962,0,0,1,1.1521.936.75964.75964,0,0,1-.09607.384c-.12.24012-.264.48011-.384.7201h1.89624V47.03125a1.01913,1.01913,0,0,1,1.056-1.056,1.04446,1.04446,0,0,1,1.10412,1.056v1.34412l4.63233-.024a.92421.92421,0,1,1,0,1.84826l-4.63233-.024v1.68017h3.79236a.86408.86408,0,0,1,0,1.72815h-3.79236V55.408l6.02454-.02393a.94814.94814,0,0,1,0,1.89612Z"/>
    <path d="M206.35486,51.75964l-6.04859-.12h-.72009a27.53911,27.53911,0,0,0,7.75269,3.55237.96592.96592,0,0,1,.74414.936,1.33741,1.33741,0,0,1-1.2721,1.32007,25.893,25.893,0,0,1-8.30481-4.39233l.048,4.12829v.024a1.01414,1.01414,0,0,1-1.12805.91211c-.57605,0-1.12806-.28809-1.12806-.91211v-.024l.048-4.10425c-2.9762,2.40015-7.53662,4.46436-8.30469,4.46436a1.16013,1.16013,0,0,1-1.22412-1.08008c0-.384.264-.74414.84009-.96008a23.96285,23.96285,0,0,0,7.4646-3.86438h-.79212l-5.8324.12h-.024a.8423.8423,0,0,1-.88806-.88806.88091.88091,0,0,1,.9121-.91211l7.84864.0481-.024-1.05615-5.42444.024a.80416.80416,0,1,1,0-1.60815l5.40051.024V46.35925l-6.62463.02393a.87675.87675,0,1,1,0-1.75208l4.20044.02393a6.2799,6.2799,0,0,0-.4801-.984.54287.54287,0,0,1-.12-.36011.73256.73256,0,0,1,.6001-.624l-5.49646.02405a.96855.96855,0,0,1-1.00818-1.00818.94361.94361,0,0,1,.98413-.984h.024l3.14416.048a9.44881,9.44881,0,0,0-1.248-1.53613.7777.7777,0,0,1-.21607-.504c0-.504.62415-.96008,1.20008-.96008a.91115.91115,0,0,1,.55212.144,7.554,7.554,0,0,1,1.94421,2.88025l.84.02393-.02393-3.19226v-.024a.9744.9744,0,0,1,1.056-.984,1.01327,1.01327,0,0,1,1.08008,1.00806V40.8147h1.39221V37.62244a1.00055,1.00055,0,0,1,1.08008-1.00806.98865.98865,0,0,1,1.056.984v.024l-.048,3.19226.816-.02393a14.00132,14.00132,0,0,0,1.20019-2.40027,1.05137,1.05137,0,0,1,1.00806-.72009,1.214,1.214,0,0,1,1.24805,1.08008c0,.072,0,.55212-1.1521,2.01623l3.26428-.048h.02405a.92389.92389,0,0,1,.96008.984.94866.94866,0,0,1-.98413,1.00818l-5.78442-.02405a.92853.92853,0,0,1,.6.79211,4.81021,4.81021,0,0,1-.432,1.176l4.17639-.02393a.87612.87612,0,1,1,0,1.75208l-6.57666-.02393v1.03211l5.35254-.024a.80416.80416,0,1,1,0,1.60815l-5.37647-.024-.024,1.05615,7.84876-.0481a.84756.84756,0,0,1,.88806.91211.823.823,0,0,1-.86414.88806Zm-11.473-9.07275A2.76609,2.76609,0,0,1,196.106,44.583l.02392.072h2.64026a6.97282,6.97282,0,0,0,.504-1.56006.59162.59162,0,0,1,.24011-.40808Z"/>
    <path d="M219.93787,46.5752a13.17722,13.17722,0,0,1-2.71216.456,1.04477,1.04477,0,0,1-1.12818-1.08008,1.15756,1.15756,0,0,1,1.20008-1.20007,17.96218,17.96218,0,0,0,3.96032-.55213,10.1723,10.1723,0,0,0,1.17615-3.67224,1.01661,1.01661,0,0,1,1.08008-.86413,1.20914,1.20914,0,0,1,1.29614,1.10412,8.20673,8.20673,0,0,1-.86413,2.9043h.19214c2.7362,0,2.80822,2.95227,2.80822,4.05627,0,2.13624-.09607,8.13672-4.5365,8.13672-1.368,0-3.14416-.624-3.14416-1.77612a1.22339,1.22339,0,0,1,1.75207-1.12817,3.22189,3.22189,0,0,0,1.34412.3601c1.56018,0,2.28027-1.68017,2.28027-5.88049,0-.98413-.144-1.70422-.91211-1.70422a1.478,1.478,0,0,0-.432.04809c-.09607.02393-.24011.072-.384.096-1.80017,3.38428-4.32043,7.32068-5.85656,9.93689a1.42238,1.42238,0,0,1-1.248.696,1.11968,1.11968,0,0,1-1.22412-1.0321,1.46813,1.46813,0,0,1,.288-.84009c1.05616-1.60815,3.55237-5.11242,5.25647-8.11267ZM233.235,49.88745a7.63032,7.63032,0,0,0-4.1283-3.81628.872.872,0,0,1-.64807-.816,1.12029,1.12029,0,0,1,1.1521-1.05616c1.22412,0,5.92846,2.97632,5.92846,5.18445a1.279,1.279,0,0,1-1.27209,1.2721A1.11859,1.11859,0,0,1,233.235,49.88745Zm-.672-6.33642a8.12683,8.12683,0,0,0-2.01624-1.3202c-.432-.168-.6-.432-.6-.72009a.95746.95746,0,0,1,.984-.88806c.12011,0,3.14428.86414,3.14428,2.13623a1.04942,1.04942,0,0,1-.936,1.056A.75694.75694,0,0,1,232.563,43.551Zm2.06421-2.20826a8.2249,8.2249,0,0,0-2.04016-1.22412.76454.76454,0,0,1-.62415-.744.9768.9768,0,0,1,.98413-.91211,7.11424,7.11424,0,0,1,2.80823,1.2721,1.07758,1.07758,0,0,1-.576,1.87219A.79846.79846,0,0,1,234.6272,41.34277Z"/>
    <path d="M260.97913,52.28772l-6.76856-.144a23.72838,23.72838,0,0,0,7.36865,3.26428.93207.93207,0,0,1,.72.93616,1.26467,1.26467,0,0,1-1.20007,1.27209,25.235,25.235,0,0,1-7.92065-4.12842l.048,3.84033v.02405c0,.6-.552.91211-1.12805.91211-.55213,0-1.10413-.28808-1.10413-.91211v-.02405l.048-3.74426a23.15046,23.15046,0,0,1-8.04065,4.20032,1.076,1.076,0,0,1-1.10413-1.056,1.05861,1.05861,0,0,1,.84009-1.00818,20.98968,20.98968,0,0,0,7.17663-3.57629l-6.55261.144h-.02392a.92423.92423,0,0,1-.98413-.96008.98733.98733,0,0,1,1.008-1.03211l7.65674.02405-.02405-.696a1.11365,1.11365,0,0,1,.09607-.50416c-1.51221,0-2.85632,0-3.79236-.02392-2.49621-.048-2.49621-1.68018-2.49621-2.76025,0-.936.024-2.16016.072-3.24024-.98413.984-1.36816,1.2721-1.82422,1.2721a1.10322,1.10322,0,0,1-1.08008-1.05616,1.009,1.009,0,0,1,.4801-.84008,15.45527,15.45527,0,0,0,4.48829-5.06434,1.06708,1.06708,0,0,1,.91211-.55212,1.179,1.179,0,0,1,1.17614,1.08008.88349.88349,0,0,1-.21606.6001c-.21594.264-.432.52807-.624.79211.88806,0,1.99218-.024,3.19226-.024.28808-.504.64807-1.17615,1.008-1.94421a.94956.94956,0,0,1,.88819-.52808,1.14137,1.14137,0,0,1,1.20007.98413,4.12029,4.12029,0,0,1-.72009,1.48816c2.37622,0,4.72839.024,5.95251.048a.90239.90239,0,0,1-.048,1.77612h-.024c-1.22412-.02393-3.67224-.02393-6.12048-.02393v1.08008h4.84839a.66983.66983,0,0,1,.64807.744.66193.66193,0,0,1-.64807.72009h-4.84839v1.05615h4.84839a.66654.66654,0,0,1,.67211.72.67412.67412,0,0,1-.67211.74414h-4.84839v1.22412c2.54419-.024,5.18444-.0481,6.55249-.072h.024a.88361.88361,0,0,1,0,1.75207c-1.48815,0-4.27233.048-6.98461.048a1.11613,1.11613,0,0,1,.12.50416l-.02393.696,7.80066-.02405a.93015.93015,0,0,1,.984.98413.96245.96245,0,0,1-.984,1.00806ZM251.40234,43.647h-4.51245c0,.33606-.02392.696-.02392,1.05615h4.53637Zm0,2.52027H246.866v.26391c0,.50415.264.91211,1.008.93616.79212.024,2.08814.024,3.52832.024Zm0-5.06446c-1.5122,0-2.83227.02393-3.64831.02393a.7188.7188,0,0,0-.79212.76807l-.024.28808h4.46447Z"/>
    <path d="M269.90552,56.416a.99761.99761,0,0,1-1.05615-.936,1.29767,1.29767,0,0,1,.21606-.672,11.47959,11.47959,0,0,0,1.41614-4.17639.91745.91745,0,0,1,.96008-.84009,1.05927,1.05927,0,0,1,1.10413,1.05616,13.55081,13.55081,0,0,1-1.58423,4.96838A1.26123,1.26123,0,0,1,269.90552,56.416Zm3.16821.4801.072-8.44873c-1.368.192-2.90417.384-3.07226.384a.922.922,0,0,1-.88807-.98413.83047.83047,0,0,1,.76807-.88806c.312-.02393.69605-.048,1.12818-.072a17.96887,17.96887,0,0,0,1.44006-1.8241,20.00216,20.00216,0,0,0-2.71228-2.20825.944.944,0,0,1,.50415-1.75208,1.16725,1.16725,0,0,1,.52795.14405l.144.0719a16.376,16.376,0,0,0,1.82409-4.1283.92687.92687,0,0,1,.96021-.696A1.12406,1.12406,0,0,1,274.97,37.50244c0,.79212-1.6322,3.76831-2.42419,4.94446.384.312.744.64807,1.08007.96008a27.53225,27.53225,0,0,0,1.8241-3.48034.90772.90772,0,0,1,.88806-.6,1.1469,1.1469,0,0,1,1.2002,1.056c0,.72009-2.06421,4.0083-3.81641,6.26453.88806-.09595,1.70423-.192,2.3042-.264-.096-.168-.24-.312-.33594-.45606a.95743.95743,0,0,1-.21606-.57605.88374.88374,0,0,1,.936-.792c1.03211,0,2.3523,2.49622,2.3523,3.38428a1.12732,1.12732,0,0,1-1.05615,1.176c-.57605,0-.7201-.33593-.98413-1.248-.33594.072-.84009.168-1.44007.264l.048,8.76074a1.08069,1.08069,0,0,1-1.12806,1.128,1.06225,1.06225,0,0,1-1.12817-1.104Zm3.69641-2.80823a9.58642,9.58642,0,0,0-.96008-3.00024,1.00791,1.00791,0,0,1-.144-.504.8448.8448,0,0,1,.9121-.79212,1.05461,1.05461,0,0,1,.864.432,8.24515,8.24515,0,0,1,1.44018,3.60034,1.18209,1.18209,0,0,1-1.17614,1.20008A.93088.93088,0,0,1,276.77014,54.08789Zm3.16821-6.76855a1.01373,1.01373,0,0,1-1.056-1.03211,1.00066,1.00066,0,0,1,1.056-1.0321h3.24024l-.02393-2.52027h-3.60034a.99322.99322,0,0,1-1.0321-1.0321.98076.98076,0,0,1,1.0321-1.03211h3.60034l-.024-2.59216a1.04968,1.04968,0,0,1,1.12817-1.056,1.07861,1.07861,0,0,1,1.176,1.056v2.59216h4.15235a1.049,1.049,0,0,1,1.12817,1.03211,1.03573,1.03573,0,0,1-1.12817,1.0321h-4.17627v2.52027h3.50427a1.049,1.049,0,0,1,1.128,1.0321,1.03576,1.03576,0,0,1-1.128,1.03211Zm6.72059,10.08081c-.672.048-1.46412.072-2.25623.072-4.39233,0-4.80042-.45606-4.80042-4.03235,0-.672,0-1.29614.0481-1.87219a2.33346,2.33346,0,0,1,2.42419-2.3042c.696-.048,1.488-.048,2.28016-.048.816,0,1.60815,0,2.28015.048a2.431,2.431,0,0,1,2.49634,2.20825c.048.76807.07189,1.53613.07189,2.28015,0,.40808,0,.816-.02392,1.20007A2.42871,2.42871,0,0,1,286.65894,57.40015Zm.28808-5.35242c-.024-.76807-.36011-.93616-2.44824-.93616-.624,0-1.22412.02405-1.72815.0481-1.00806.02392-1.00806.696-1.00806,2.35217,0,1.87219.048,1.96814,2.71216,1.96814,2.49622,0,2.52027-.24,2.52027-2.08813C286.995,52.93579,286.971,52.47974,286.947,52.04773Z"/>
    <path d="M301.32239,57.18408A1.66269,1.66269,0,0,1,299.66614,55.6a1.73393,1.73393,0,0,1,1.65625-1.65613A1.549,1.549,0,0,1,302.97852,55.6,1.59634,1.59634,0,0,1,301.32239,57.18408Zm-1.03211-6.09643v-.504c0-2.32825-.24011-7.92078-.384-11.68909v-.072a1.30148,1.30148,0,0,1,1.39209-1.32007,1.35767,1.35767,0,0,1,1.44006,1.39209c0,2.83228-.384,9.43286-.384,11.761,0,.57617,0,1.58423-1.056,1.58423a1.03172,1.03172,0,0,1-1.00806-1.12818Z"/>
    <path d="M36.3374,87.48779c0,1.7041.816,2.71228,1.96814,2.71228.144,0,2.61621-.264,2.61621-2.42419,0-1.22412-.84008-2.85632-3.16821-4.72852a1.51784,1.51784,0,0,1-.64807-1.08007,1.06386,1.06386,0,0,1,1.1521-.984,1.66306,1.66306,0,0,1,1.008.384c2.85621,2.3761,4.03235,4.63232,4.03235,6.50452,0,2.83227-2.80822,4.60839-5.08838,4.60839-2.1842,0-4.00842-1.60815-4.00842-4.89648v-.048c0-.6,0-1.22412.02405-1.8241-1.89624-.52808-3.55237-1.0321-3.55237-2.7843a4.05166,4.05166,0,0,1,.86414-2.28015,1.15154,1.15154,0,0,0,.24-.67212c0-.576-.864-1.296-2.28015-1.8241a1.10457,1.10457,0,0,1-.84009-.96008,1.06631,1.06631,0,0,1,1.1521-.98413c.76806,0,4.20032,1.48816,4.20032,3.52832a3.069,3.069,0,0,1-.88807,1.89624,1.55517,1.55517,0,0,0-.45605.936c0,.36.312.52808.67212.624.312.072.64807.144.984.24.24-5.08838.24-5.97644.24-6.60059,0-.984-.02393-1.65613-.02393-2.54419a1.07506,1.07506,0,0,1,1.12805-1.1521c1.24817,0,1.2721,1.12818,1.2721,1.72815,0,.86414-.12,1.68018-.168,2.7843-.096,2.18421-.264,4.29639-.36,6.40857,1.39209.528,2.01612.96008,2.01612,1.68006a1.21891,1.21891,0,0,1-1.128,1.24816,1.55119,1.55119,0,0,1-.96009-.40808Z"/>
    <path d="M66.26611,82.66333c0-2.66418-2.08825-4.94434-5.56848-4.94434h-.048a1.08476,1.08476,0,0,1,.672,1.00806v.12c0,2.52026-2.47217,6.88855-5.11243,9.48083a2.60358,2.60358,0,0,1-1.80017.816c-1.7041,0-3.24024-1.92017-3.24024-4.53638,0-4.34436,4.27234-8.76074,9.67285-8.76074,4.84839,0,7.87269,3.21631,7.87269,6.96057a7.35871,7.35871,0,0,1-.52808,2.71228c-2.11218,5.32849-8.64075,6.07251-8.97681,6.07251a1.26209,1.26209,0,0,1-1.368-1.17614c0-.52808.408-1.03211,1.32007-1.20008C63.52991,88.49585,66.26611,85.80762,66.26611,82.66333ZM59.32947,77.839c-3.00025.6-6.00049,3.79236-6.00049,6.64856,0,1.80017,1.20007,2.01611,1.27209,2.01611a.63563.63563,0,0,0,.45606-.192c.72009-.64808,3.72034-4.20032,3.81628-7.44056A1.2413,1.2413,0,0,1,59.32947,77.839Z"/>
    <path d="M82.65723,91.11206a1.34348,1.34348,0,0,1-1.44007-1.296,1.23862,1.23862,0,0,1,1.20008-1.17615c4.53637-.64807,9.81677-3.04822,9.81677-6.26452a3.27406,3.27406,0,0,0-3.50427-3.0243,9.40556,9.40556,0,0,0-3.0243.64808c-2.28015.79211-5.1604,2.52026-7.60864,3.64831a1.73526,1.73526,0,0,1-.792.192,1.29723,1.29723,0,0,1-1.34412-1.2721,1.33464,1.33464,0,0,1,.936-1.22412c2.3042-.91211,6.09656-2.8562,8.4967-3.52832a13.453,13.453,0,0,1,3.62439-.6001,5.52642,5.52642,0,0,1,5.85645,5.28052c0,1.77612-1.08008,3.48035-3.19226,5.13648C88.70569,89.96,83.3053,91.11206,82.65723,91.11206ZM92.85815,77.14294a8.25992,8.25992,0,0,0-1.94421-1.41613.75707.75707,0,0,1-.552-.7201A.98142.98142,0,0,1,91.37,74.11865c.33605,0,3.04821,1.08008,3.04821,2.25623a1.09375,1.09375,0,0,1-.96008,1.08008A.7508.7508,0,0,1,92.85815,77.14294Zm2.18421-2.11218a8.64592,8.64592,0,0,0-1.96826-1.34411.80229.80229,0,0,1-.6-.7201.96449.96449,0,0,1,1.00806-.88806c.52807,0,3.09631,1.056,3.09631,2.16016a1.05154,1.05154,0,0,1-.9602,1.056A.75645.75645,0,0,1,95.04236,75.03076Z"/>
    <path d="M111.2179,92.93628a1.20233,1.20233,0,0,1-1.12806-.79211,33.78546,33.78546,0,0,0-4.82434-7.56067,4.30531,4.30531,0,0,1-1.12817-2.52015,3.65758,3.65758,0,0,1,.936-2.23217,57.41352,57.41352,0,0,0,4.48841-6.31263,1.13671,1.13671,0,0,1,1.00818-.624,1.53847,1.53847,0,0,1,1.51208,1.41614,1.31044,1.31044,0,0,1-.21606.696c-.96009,1.53614-3.64832,4.53638-4.92041,6.07251a1.37192,1.37192,0,0,0-.384.88807,2.06944,2.06944,0,0,0,.576,1.22412c2.44825,3.16833,4.34436,4.9685,5.44849,7.70471a1.90116,1.90116,0,0,1,.12.6A1.50091,1.50091,0,0,1,111.2179,92.93628Z"/>
    <path d="M124.32178,93.08032a1.18883,1.18883,0,0,1-1.22412-1.17615,1.27784,1.27784,0,0,1,.88806-1.15209c4.92041-2.01624,6.28857-5.59253,6.28857-9.00074a15.80687,15.80687,0,0,0-.40808-3.43237c-.24-1.128-.76807-1.58411-1.34412-1.58411A2.56418,2.56418,0,0,0,126.746,77.887c-1.0321,1.34412-1.27209,2.97632-1.32007,5.11243-.04809,1.29614-.67212,1.87219-1.27209,1.87219-1.2002,0-1.2002-1.5841-1.2002-1.92016a20.61975,20.61975,0,0,1,.96009-5.1604c.3601-1.22413.96008-2.97632,1.24817-4.44043a.97241.97241,0,0,1,1.00805-.84009,1.34378,1.34378,0,0,1,1.36817,1.248c0,.072-.02405.14405-.02405.21607a4.16443,4.16443,0,0,1-.744,1.68018c-.16809.264-.192.36-.16809.36.04809,0,.192-.14392.36011-.312a3.17949,3.17949,0,0,1,2.16015-1.03211c2.88025,0,3.60034,4.80042,3.60034,7.29664,0,4.00842-1.75219,8.3767-7.65673,10.94494A1.752,1.752,0,0,1,124.32178,93.08032Z"/>
    <path d="M156.74683,82.66333c0-2.66418-2.08826-4.94434-5.56849-4.94434h-.048a1.08476,1.08476,0,0,1,.672,1.00806v.12c0,2.52026-2.47217,6.88855-5.11243,9.48083a2.60358,2.60358,0,0,1-1.80017.816c-1.7041,0-3.24023-1.92017-3.24023-4.53638,0-4.34436,4.27234-8.76074,9.67285-8.76074,4.84839,0,7.87268,3.21631,7.87268,6.96057a7.35851,7.35851,0,0,1-.52808,2.71228c-2.11218,5.32849-8.64074,6.07251-8.9768,6.07251a1.2621,1.2621,0,0,1-1.36805-1.17614c0-.52808.408-1.03211,1.32007-1.20008C154.01062,88.49585,156.74683,85.80762,156.74683,82.66333ZM149.81018,77.839c-3.00024.6-6.00049,3.79236-6.00049,6.64856,0,1.80017,1.20008,2.01611,1.2721,2.01611a.63562.63562,0,0,0,.456-.192c.72009-.64808,3.72034-4.20032,3.81629-7.44056A1.2413,1.2413,0,0,1,149.81018,77.839Z"/>
    <path d="M166.56128,92.91223a1.13936,1.13936,0,0,1-1.17615-1.0321,1.12258,1.12258,0,0,1,.384-.792,9.16325,9.16325,0,0,0,2.68823-6.36059.87348.87348,0,0,1,.96008-.816.95913.95913,0,0,1,1.05615.88806,12.34125,12.34125,0,0,1-2.95227,7.68066A1.26748,1.26748,0,0,1,166.56128,92.91223Zm15.72131-4.27234a.98625.98625,0,0,1-1.08008.936,1.01259,1.01259,0,0,1-1.104-.96009v-.02392l.048-5.52051a9.45984,9.45984,0,0,1-2.6643,3.38428,5.02768,5.02768,0,0,1,1.00818,1.94421.86316.86316,0,0,1-.86414.792.65357.65357,0,0,1-.64807-.48l-.048-.09607a16.45609,16.45609,0,0,1-3.24024.62415.9519.9519,0,0,1-.4801-.09607V89.432a.96908.96908,0,0,0,.936,1.008c1.2002.096,2.97632.144,4.72852.144,1.77612,0,3.55225-.0481,4.77637-.16809a1.37479,1.37479,0,0,0,1.44018-1.53614.96378.96378,0,0,1,1.08008-.96008,1.20666,1.20666,0,0,1,1.34412,1.17615c0,3.55224-3.36035,3.57629-8.42481,3.57629-2.11218,0-4.22436-.072-5.25647-.144-1.8-.12-2.68823-1.03211-2.71216-2.71216,0-.504-.024-.96008-.024-1.39221,0-1.84815.072-3.21619.12-4.75232-4.36841,0-4.41638-.33606-4.41638-3.98438,0-1.12805.02405-2.32824.048-3.09631.0481-2.04016,2.13623-2.04016,2.88037-2.04016a13.45938,13.45938,0,0,0,.33594-1.77612.88008.88008,0,0,1,.96008-.744,1.07721,1.07721,0,0,1,1.1521,1.00805,5.6536,5.6536,0,0,1-.384,1.488c1.77625,0,3.72034.0481,3.79236,1.99219.024.96008.072,2.16028.072,3.28833,0,.64807-.02405,1.248-.048,1.7522-.072,1.104-.7201,1.89611-2.28028,2.04016,0,1.53613-.09594,2.76025-.12,4.27234l.21606-.072a23.86009,23.86009,0,0,0,.91211-3.12023.70152.70152,0,0,1,.744-.55213.78168.78168,0,0,1,.84009.72009,18.71314,18.71314,0,0,1-.93616,2.78431c.4801-.072.96008-.16809,1.41614-.24-.12-.21607-.264-.384-.33606-.50415a.64039.64039,0,0,1-.12-.312.61132.61132,0,0,1,.33606-.48.8117.8117,0,0,1-.144-.4801.99348.99348,0,0,1,.33606-.696,14.86855,14.86855,0,0,0,3.19226-4.22437l-2.68823.072h-.02393a.88724.88724,0,0,1-.93615-.91211.9262.9262,0,0,1,.93615-.96008h.02393l3.21631.02405-.024-1.99219-2.42419.02405h-.02393a.893.893,0,0,1-.93616-.93616.91175.91175,0,0,1,.93616-.96008h.02393l2.37622.02405-.02393-1.92017v-.02405a1.09378,1.09378,0,0,1,2.18408,0v.02405s-.02392.744-.048,1.92017l2.73621-.02405h.024a.90633.90633,0,0,1,.91211.96008.88568.88568,0,0,1-.91211.93616h-.024l-2.76026-.02405c0,.624-.02392,1.29614-.02392,1.99219L186.027,78.895a.91172.91172,0,0,1,.936.96008.867.867,0,0,1-.91211.91211H186.027l-3.36035-.072a18.09922,18.09922,0,0,0,4.20044,4.70447,1.11259,1.11259,0,0,1,.48.864,1.21021,1.21021,0,0,1-1.22413,1.10413,1.1108,1.1108,0,0,1-.792-.33606,22.63711,22.63711,0,0,1-3.12036-4.10437c.02405,2.88025.072,5.68847.072,5.68847Zm-12.001-12.50512c-.24,0-.48011.024-.64808.024-.744.02405-.88806.312-.88806,2.04016h1.53614Zm0,3.60034h-1.53614c0,2.08813.048,2.16015.76807,2.20825.168,0,.432.02393.76807.02393Zm3.3363-1.53614c0-.45605-.024-.88806-.024-1.22412-.02392-.6-.24-.816-.88806-.816h-.624V78.199Zm-1.53613,1.53614v2.23218c.33606,0,.6-.02393.744-.02393.79211-.0481.816-.21607.816-2.20825Z"/>
    <path d="M209.78662,76.92688a2.8861,2.8861,0,0,1,3.19226,2.9762c.024.62414.072,1.46423.072,2.40026,0,5.78455-1.08007,10.4889-6.52856,10.4889a10.76842,10.76842,0,0,1-2.7843-.384,1.24009,1.24009,0,0,1-.936-1.22412,1.12812,1.12812,0,0,1,1.12805-1.20007,1.25965,1.25965,0,0,1,.40808.048,8.038,8.038,0,0,0,2.16016.33606c1.77625,0,4.10437-.72009,4.10437-7.96863,0-2.56823-.048-3.28833-1.20007-3.28833-.432-.024-1.08008-.024-1.84815-.024s-1.65612,0-2.59228.024c-.64807,5.92847-2.80823,11.30494-9.16883,13.92115a1.649,1.649,0,0,1-.57592.12011,1.30059,1.30059,0,0,1-1.24817-1.32019,1.1734,1.1734,0,0,1,.79211-1.10412c5.42444-2.18408,7.20056-6.60059,7.72864-11.593-3.24036.02405-6.28857.072-6.28857.072h-.02405a1.10474,1.10474,0,0,1,.02405-2.20813s3.12024-.02405,6.43261-.048c.048-1.17615.048-2.40027.048-3.60034v-.02405a1.20478,1.20478,0,0,1,1.29614-1.176,1.13383,1.13383,0,0,1,1.22412,1.12805c0,1.22413,0,2.4242-.072,3.64832Z"/>
    <path d="M223.20166,91.04a15.43654,15.43654,0,0,1-.624-4.58435c0-4.22437,1.22412-8.35266,1.34411-10.00891a1.17946,1.17946,0,0,1,2.35218-.096.59554.59554,0,0,1-.02405.192c-.33594,1.75219-1.56006,6.1925-1.56006,8.56872,0,.88806.168.98413.24.98413.048,0,.12-.04809.168-.16809.74414-1.41614.91211-1.7041,1.41614-1.7041a1.04357,1.04357,0,0,1,.98413,1.00806.74063.74063,0,0,1-.12.432,12.45713,12.45713,0,0,0-1.80017,4.51246c0,.21606.02405.432.02405.64807a1.12787,1.12787,0,0,1-1.2002,1.248A1.28273,1.28273,0,0,1,223.20166,91.04Zm13.34509-.14392c-4.15234,0-7.32055-2.47229-7.32055-3.64832a1.20309,1.20309,0,0,1,1.248-1.12817,1.4112,1.4112,0,0,1,1.08008.52808,6.12046,6.12046,0,0,0,4.6565,1.60815,14.82752,14.82752,0,0,0,2.04016-.144,1.17144,1.17144,0,0,1,.288-.02393,1.10776,1.10776,0,0,1,1.2002,1.1521C239.73914,90.488,238.683,90.89612,236.54675,90.89612Zm-2.71216-10.537a13.549,13.549,0,0,1-3.24023-.36,1.10623,1.10623,0,0,1,.096-2.20813.90289.90289,0,0,1,.24.02392,11.28713,11.28713,0,0,0,2.32824.24,22.97212,22.97212,0,0,0,2.95228-.24c.072,0,.144-.02392.21594-.02392a1.10215,1.10215,0,0,1,1.1521,1.12805C237.57886,79.87915,236.90686,80.35913,233.83459,80.35913Z"/>
    <path d="M254.09033,87.29578h-4.80041a15.98781,15.98781,0,0,1-1.39209,5.11242,1.12174,1.12174,0,0,1-1.03211.696,1.03884,1.03884,0,0,1-1.08008-.96008.94579.94579,0,0,1,.12-.48,19.41211,19.41211,0,0,0,1.68018-8.95275c0-.79212-.02405-1.58423-.0481-2.37622a1.09033,1.09033,0,0,1-.864.432,1.04278,1.04278,0,0,1-1.10413-.936,1.19817,1.19817,0,0,1,.264-.64807,19.59574,19.59574,0,0,0,3.19226-6.62464,1.00955,1.00955,0,0,1,1.056-.76806,1.0307,1.0307,0,0,1,1.12817.9121,3.45582,3.45582,0,0,1-.24.936h1.416c1.56018,0,2.1123.57605,2.1123,1.27209,0,.31214-.072.69617-1.00818,2.54432.1681,0,.312.02392.45606.02392,1.48816.0481,2.08826.74414,2.11218,2.08826v2.80823c0,4.70434,0,5.6405.072,7.68066V90.152c0,1.44018-.91211,2.80823-3.21631,2.80823-1.1521,0-2.20813-.096-2.20813-1.20008a1.02442,1.02442,0,0,1,.912-1.10412.66385.66385,0,0,1,.21607.024,6.41352,6.41352,0,0,0,1.12817.16809c.648,0,1.12805-.28808,1.12805-1.34423Zm-2.01623-11.521c0-.312-.312-.33606-.76807-.33606-.36,0-.816,0-1.12805.02405-.816,1.63208-.86414,1.75207-1.056,2.06421a4.28867,4.28867,0,0,1,.57593-.0481c.40808,0,1.00817-.02392,1.65625-.02392A7.16876,7.16876,0,0,0,252.0741,75.77478Zm-1.20008,7.3927h-1.34411c0,.76807-.02393,1.58411-.072,2.3761H250.874Zm0-3.9364H250.298c-.624,0-.76806.312-.76806.76807V81.4873H250.874Zm3.21631,2.25622c0-1.75219,0-2.25622-.816-2.28027h-.67212V81.4873Zm.02405,4.05628c0-.76807-.02405-1.58411-.02405-2.3761h-1.48816v2.3761Zm6.48047.67212c-2.32813,0-3.38428-.384-3.48023-2.16016-.024-.52807-.04809-1.22412-.04809-1.99219,0-1.17614.024-2.44824.04809-3.2163.072-2.3042,1.87207-2.3042,3.4563-2.3042V73.35059a1.11669,1.11669,0,0,1,2.23218,0v3.19226c.64807,0,1.22412.024,1.488.048a2.10727,2.10727,0,0,1,2.13623,1.92017c.024.84008.048,1.96826.048,3.04834,0,.912-.02392,1.75207-.048,2.37622-.12,2.18408-2.11218,2.28015-3.64832,2.28015V89.696c.55213-.12011,1.08008-.264,1.53614-.384-.624-.9602-.624-.98413-.624-1.24817a.9118.9118,0,0,1,.96009-.84009,1.13181,1.13181,0,0,1,.76806.312c.64807.60009,2.16016,3.07226,2.16016,3.96032a1.17464,1.17464,0,0,1-1.12805,1.2002,1.0348,1.0348,0,0,1-.98413-.84009c-.072-.264-.21595-.576-.33606-.88806a37.74026,37.74026,0,0,1-7.63257,1.72815,1.0396,1.0396,0,0,1-1.12818-1.05615,1.0695,1.0695,0,0,1,1.00806-1.08008c1.05615-.09595,2.16028-.24,3.21631-.432Zm.04809-7.70471c-.384,0-.72009.024-.88818.024-.72.048-.72.192-.72,2.90418,0,.86413,0,1.70422.02393,2.16028.04809.624.43212.624,1.58422.624Zm2.08814,5.71252c1.29614,0,1.63208,0,1.68017-.744.02393-.43213.048-1.00818.048-1.6322,0-.936-.024-1.96814-.048-2.64026-.024-.696-.264-.696-1.68017-.696Z"/>
    <path d="M275.282,88.25586c.02405-.048.168-.192.36-.48.264-.384.45605-.74414.696-1.1521a23.04814,23.04814,0,0,1,1.82422-2.59229c.312-.552.576-1.08007.79212-1.56018l.0719-.672a9.19082,9.19082,0,0,0-2.13611,1.056,1.52212,1.52212,0,0,1-.86414.33606.97726.97726,0,0,1-.912-1.056c0-.79212.192-1.05616,4.17627-2.78431.192-1.96814.33606-3.69628.33606-4.75244a1.04466,1.04466,0,0,1,1.08008-1.12805,1.1514,1.1514,0,0,1,1.2002,1.10413c0,.72-.28809,3.12024-.43213,4.34436a.98085.98085,0,0,1,.55212.96008c1.77612-1.65613,3.62427-3.07227,5.42444-3.07227a2.56652,2.56652,0,0,1,2.56824,2.85621,3.37488,3.37488,0,0,1-.024.4801c-.168,1.56006-.864,4.10437-1.12805,6.3125a5.377,5.377,0,0,0-.072.816c0,.74414.264,1.05615,1.12805,1.05615a7.099,7.099,0,0,0,2.6643-.76807,1.76782,1.76782,0,0,1,.648-.144,1.06572,1.06572,0,0,1,1.05616,1.12818,1.38126,1.38126,0,0,1-.88807,1.296,8.84846,8.84846,0,0,1-3.43225.74414c-1.84826,0-3.4563-.6001-3.4563-3.0243a5.81138,5.81138,0,0,1,.09595-1.08007c.33606-2.18421.98413-4.70447,1.08008-6.26453v-.264c0-.79211-.288-1.08008-.72009-1.08008-1.2721,0-4.05628,2.64014-6.00049,5.04041-.096,1.27209-.168,2.56824-.168,3.79236a20.978,20.978,0,0,0,.24,3.38427.98235.98235,0,0,1,.024.264,1.24363,1.24363,0,0,1-1.27222,1.248c-1.27209,0-1.296-1.41614-1.296-3.14429,0-.84009.02393-1.75207.096-2.7362-.528.864-1.03211,1.87219-1.46411,2.71228a1.9977,1.9977,0,0,1-1.68018,1.248.88969.88969,0,0,1-.96008-.88806A2.50309,2.50309,0,0,1,275.21,88.3999Z"/>
    <path d="M303.91406,92.76831a9.16079,9.16079,0,0,0-2.95227-2.52026,1.0796,1.0796,0,0,1-.64807-.96009,1.06805,1.06805,0,0,1,1.12805-1.05615c.84009,0,4.68042,2.11218,4.68042,3.74439a1.32655,1.32655,0,0,1-1.296,1.32006A1.09242,1.09242,0,0,1,303.91406,92.76831Z"/>
    <path d="M7.03259,108.9585c.96009.04809,1.46411.55212,1.46411,1.27221a7.6,7.6,0,0,1-.84008,2.44812c.192,0,.33606.024.456.024A1.8645,1.8645,0,0,1,9.98486,114.599c.02405.96008.072,2.25622.072,3.4563,0,3.31238,0,3.9364-3.9364,3.9364-2.16015,0-3.50427-.048-3.57629-2.04016-.02393-.6001-.048-1.51221-.048-2.44824,0-.64808.024-1.29615.024-1.8722a.97161.97161,0,0,1-.64807.264,1.00727,1.00727,0,0,1-1.0321-.936,1.15179,1.15179,0,0,1,.24-.67212,19.85741,19.85741,0,0,0,3.14429-6.50452.92315.92315,0,0,1,.96008-.72009,1.02208,1.02208,0,0,1,1.10412.91211,4.11181,4.11181,0,0,1-.28808.984ZM.84009,127.05615a1.3368,1.3368,0,0,1,.312-.79211,6.5659,6.5659,0,0,0,1.1521-2.9762.80961.80961,0,0,1,.816-.84009.9366.9366,0,0,1,.96008.91211c0,.696-.552,4.63233-2.25622,4.63233A.94813.94813,0,0,1,.84009,127.05615Zm4.63244-9.12085H4.15234c0,2.16016.024,2.28028.67212,2.32825.14392,0,.36.02405.64807.02405Zm0-3.72033c-.21606,0-.40808.024-.55212.024-.744.048-.744.384-.744,2.16016H5.47253Zm-1.1521-1.51209a11.96419,11.96419,0,0,1,1.416-.048,7.82544,7.82544,0,0,0,.64807-1.72815c0-.14405-.14392-.16809-.312-.16809s-.504.024-.864.024c-.144.312-.31214.64808-.48011.96009-.168.33606-.36.64807-.52807.98413Zm.33594,13.87317V125.928c0-.96008-.048-2.04016-.096-2.54419v-.12a.69341.69341,0,0,1,.72-.76806.8357.8357,0,0,1,.81616.672,19.95441,19.95441,0,0,1,.288,3.07227c0,.86414-.552,1.17615-.96008,1.17615A.75146.75146,0,0,1,4.65637,126.57605Zm2.68823-.696a15.67651,15.67651,0,0,0-.64807-2.54418,1.02529,1.02529,0,0,1-.048-.264.67392.67392,0,0,1,.72009-.624.83208.83208,0,0,1,.744.45606,11.52217,11.52217,0,0,1,.86414,2.66418.97344.97344,0,0,1-.93616.96009A.67969.67969,0,0,1,7.3446,125.88Zm.96009-9.48083c0-.52808-.02393-1.00806-.02393-1.34412-.02405-.6-.192-.816-.74414-.816h-.552v2.16016ZM6.98462,117.9353v2.3523c.288,0,.52808-.02405.64807-.02405.696-.048.696-.384.696-2.32825ZM9.6969,125.016a12.28782,12.28782,0,0,0-.88818-1.84827.77419.77419,0,0,1-.14393-.432.68053.68053,0,0,1,.744-.6.70567.70567,0,0,1,.552.21594,5.21835,5.21835,0,0,1,1.22412,2.28028.89981.89981,0,0,1-.84009.912A.66559.66559,0,0,1,9.6969,125.016Zm1.58411-8.49682a.8644.8644,0,1,1,0-1.72815l4.03234.024v-1.056L12.457,113.783a.83137.83137,0,0,1-.88806-.84009.81882.81882,0,0,1,.88806-.84009l2.85632.02405v-1.0321l-3.52832.024a.87681.87681,0,1,1,0-1.75219l3.52832.024v-1.17614a1.02383,1.02383,0,0,1,1.08008-1.056,1.05121,1.05121,0,0,1,1.12805,1.056v1.17614l3.93641-.024a.87681.87681,0,1,1,0,1.75219l-3.93641-.024v1.0321l2.78431-.02405a.81882.81882,0,0,1,.88806.84009.83137.83137,0,0,1-.88806.84009l-2.80823-.02393v1.056l4.6084-.024a.86408.86408,0,0,1,0,1.72815Zm2.25622,7.03259c0,1.44018.02393,2.88037.048,4.05639v.02405a.90631.90631,0,0,1-.96009.912.97115.97115,0,0,1-1.0321-.936c0-1.176-.024-2.54419-.024-3.91235,0-1.39209.024-2.80823.024-4.05627.02405-1.32019.552-2.11219,2.16015-2.16028.79212-.02393,1.72815-.048,2.64026-.048.936,0,1.87219.02405,2.66419.048,1.46411.04809,2.1842.79211,2.20825,2.04028,0,1.8241.02392,4.75232.072,6.09644v.04809a2.65594,2.65594,0,0,1-3.00037,2.64014c-1.296,0-2.01611-.24-2.01611-1.176a.92953.92953,0,0,1,.88806-1.00817.59574.59574,0,0,1,.192.024,4.35122,4.35122,0,0,0,.936.12c.98414,0,.98414-.672.98414-2.71228Zm1.89612-4.34436c-.432,0-.816.024-1.128.024-.72009.048-.76807.33605-.76807,2.61621h1.89612Zm3.86438,2.64026c-.02405-.624-.02405-1.24805-.0481-1.92017-.02392-.384-.168-.672-.744-.696-.312,0-.7201-.024-1.10413-.024v2.64026Z"/>
    <path d="M32.7124,117.28723a9.93655,9.93655,0,0,0-3.12024-1.608.84747.84747,0,0,1-.624-.81616,1.231,1.231,0,0,1,1.20007-1.176,8.4927,8.4927,0,0,1,3.86438,1.488,1.19043,1.19043,0,0,1,.528,1.00818,1.32339,1.32339,0,0,1-1.176,1.368A1.04564,1.04564,0,0,1,32.7124,117.28723Zm-1.89612,10.56091a1.27169,1.27169,0,0,1-1.27209-1.22412,1.16336,1.16336,0,0,1,.33594-.816,21.86621,21.86621,0,0,0,3.60034-5.85644,1.04,1.04,0,0,1,.98413-.64807,1.14141,1.14141,0,0,1,1.176,1.1521c0,.744-1.84814,4.68042-3.69628,6.81652A1.48642,1.48642,0,0,1,30.81628,127.84814Zm2.88025-15.60131a9.93288,9.93288,0,0,0-2.88025-2.20813.81854.81854,0,0,1-.504-.7201,1.287,1.287,0,0,1,1.296-1.1521c.62414,0,4.17639,1.80017,4.17639,3.14429a1.38024,1.38024,0,0,1-1.2721,1.34412A1.04186,1.04186,0,0,1,33.69653,112.24683Zm2.52014,14.71325a1.05713,1.05713,0,1,1,0-2.11218l5.18445.02405V111.81482l-3.86425.02405a1.05642,1.05642,0,1,1,0-2.11231H48.26575a1.06015,1.06015,0,1,1,0,2.11231l-4.44043-.02405V124.872l5.42456-.02405a1.06009,1.06009,0,1,1,0,2.11218Z"/>
    <path d="M72.50586,117.86328c0-2.66418-2.08826-4.94433-5.56848-4.94433h-.048a1.08472,1.08472,0,0,1,.672,1.00805v.12c0,2.52026-2.47217,6.88855-5.11243,9.48083a2.60357,2.60357,0,0,1-1.80017.816c-1.7041,0-3.24023-1.92016-3.24023-4.53637,0-4.34437,4.27234-8.76075,9.67285-8.76075,4.84839,0,7.87268,3.21631,7.87268,6.96057a7.35862,7.35862,0,0,1-.52807,2.71228c-2.11219,5.3285-8.64075,6.07251-8.97681,6.07251a1.26209,1.26209,0,0,1-1.368-1.17614c0-.52808.408-1.03211,1.32007-1.20008C69.76965,123.6958,72.50586,121.00757,72.50586,117.86328Zm-6.93665-4.82434c-3.00024.6-6.00048,3.79236-6.00048,6.64856,0,1.80017,1.20007,2.01611,1.27209,2.01611a.63566.63566,0,0,0,.45606-.192c.72009-.64807,3.72033-4.20032,3.81628-7.44056A1.24132,1.24132,0,0,1,65.56921,113.03894Z"/>
    <path d="M90.67371,127.05615c-4.96851,0-7.63269-2.3042-7.63269-3.67236a1.29732,1.29732,0,0,1,1.24816-1.29614,1.43619,1.43619,0,0,1,1.08008.60009,5.65055,5.65055,0,0,0,4.56031,1.82422,16.64036,16.64036,0,0,0,4.08044-.60009,2.32768,2.32768,0,0,1,.552-.072,1.20416,1.20416,0,0,1,1.29614,1.22412,1.616,1.616,0,0,1-1.34411,1.51209A15.445,15.445,0,0,1,90.67371,127.05615Zm1.75207-12.48108a15.26781,15.26781,0,0,1-6.50452-1.53613,1.34925,1.34925,0,0,1-.79211-1.22412,1.05126,1.05126,0,0,1,1.0802-1.10413,2.00321,2.00321,0,0,1,.696.14405,15.66848,15.66848,0,0,0,5.78442,1.248A1.231,1.231,0,0,1,93.938,113.3269C93.938,113.95093,93.45789,114.57507,92.42578,114.57507Z"/>
    <path d="M104.64087,123.45581c.024-.048.168-.192.36-.48.264-.384.45606-.74414.696-1.1521a23.04712,23.04712,0,0,1,1.82422-2.59228c.312-.552.57605-1.08008.79211-1.56019l.0719-.672a9.19082,9.19082,0,0,0-2.13611,1.056,1.5221,1.5221,0,0,1-.86413.33606.97726.97726,0,0,1-.912-1.056c0-.79212.192-1.05616,4.17627-2.7843.192-1.96814.33606-3.69629.33606-4.75245a1.04466,1.04466,0,0,1,1.08008-1.12805,1.1514,1.1514,0,0,1,1.20019,1.10413c0,.72-.28808,3.12024-.43213,4.34436a.98085.98085,0,0,1,.55213.96008c1.77612-1.65613,3.62427-3.07226,5.42444-3.07226a2.56651,2.56651,0,0,1,2.56823,2.8562,3.37627,3.37627,0,0,1-.024.4801c-.168,1.56006-.864,4.10437-1.12806,6.3125a5.37833,5.37833,0,0,0-.072.816c0,.74414.264,1.05615,1.12805,1.05615a7.09916,7.09916,0,0,0,2.66431-.76806,1.76765,1.76765,0,0,1,.64795-.14405,1.06571,1.06571,0,0,1,1.05615,1.12818,1.38126,1.38126,0,0,1-.88806,1.296,8.84846,8.84846,0,0,1-3.43225.74414c-1.84827,0-3.4563-.6001-3.4563-3.02429a5.81148,5.81148,0,0,1,.09595-1.08008c.33606-2.18421.98413-4.70447,1.08008-6.26453v-.264c0-.79211-.288-1.08008-.7201-1.08008-1.27209,0-4.05627,2.64014-6.00048,5.04041-.096,1.27209-.168,2.56824-.168,3.79236a20.97823,20.97823,0,0,0,.24,3.38428.98224.98224,0,0,1,.02405.264,1.24363,1.24363,0,0,1-1.27222,1.248c-1.2721,0-1.296-1.41614-1.296-3.14429,0-.84008.02392-1.75207.09594-2.7362-.528.864-1.0321,1.87219-1.46411,2.71228a1.99769,1.99769,0,0,1-1.68017,1.248.88969.88969,0,0,1-.96009-.88806,2.50315,2.50315,0,0,1,.7201-1.39209Z"/>
    <path d="M135.21716,116.97522a13.17632,13.17632,0,0,1-2.71216.45605,1.04476,1.04476,0,0,1-1.12817-1.08007,1.15759,1.15759,0,0,1,1.2002-1.20008,17.96415,17.96415,0,0,0,3.96032-.55212,10.17459,10.17459,0,0,0,1.176-3.67224,1.01661,1.01661,0,0,1,1.08008-.86414,1.20914,1.20914,0,0,1,1.29614,1.10413,8.20829,8.20829,0,0,1-.864,2.90429h.192c2.73621,0,2.80823,2.95215,2.80823,4.05628,0,2.13623-.09607,8.13672-4.53638,8.13672-1.36816,0-3.14428-.624-3.14428-1.77612a1.2232,1.2232,0,0,1,1.75207-1.12806,3.22379,3.22379,0,0,0,1.34412.36c1.56018,0,2.28027-1.68018,2.28027-5.88049,0-.98414-.144-1.70423-.91211-1.70423a1.4778,1.4778,0,0,0-.432.0481c-.09606.02392-.24.0719-.384.09594-1.80017,3.38428-4.32043,7.32068-5.85657,9.93689a1.42237,1.42237,0,0,1-1.248.696,1.11968,1.11968,0,0,1-1.22412-1.03211,1.46811,1.46811,0,0,1,.288-.84008c1.05615-1.60816,3.55237-5.11243,5.25647-8.11267Zm13.29712,3.31238a7.63,7.63,0,0,0-4.12829-3.81641.872.872,0,0,1-.64807-.816A1.12028,1.12028,0,0,1,144.89,114.599c1.22413,0,5.92847,2.97632,5.92847,5.18445a1.27915,1.27915,0,0,1-1.27209,1.27221A1.11878,1.11878,0,0,1,148.51428,120.2876Z"/>
    <path d="M162.00159,128.20825c-.91211,0-1.32007-.52807-1.32007-1.08008A1.14968,1.14968,0,0,1,161.78564,126c4.2483-.33594,7.70459-2.83228,7.70459-4.75244a1.6852,1.6852,0,0,0-1.84814-1.53613c-1.84814,0-5.25647,3.02429-5.61646,3.45629a1.783,1.783,0,0,1-1.32019.84009c-.528,0-1.99206-.528-1.99206-3.93628a10.49464,10.49464,0,0,1,.432-3.12024,10.3166,10.3166,0,0,0,.24-2.01623v-.408c0-1.56018.72009-2.3523,2.37622-3.2644.57605-.312,1.27209-.6,1.27209-.88807,0-.192-.264-.384-.91211-.6a1.08142,1.08142,0,0,1-.88806-.98413,1.19966,1.19966,0,0,1,1.29614-1.08008c.864,0,3.86438,1.41614,3.86438,3.07226,0,1.12806-.88806,1.29615-2.08825,1.48816a4.87247,4.87247,0,0,0-1.1521.48c-1.51209.696-1.77613,1.32019-1.77613,2.06421,0,.12.02405.264.02405.40808v.26392a7.26372,7.26372,0,0,1-.072.96021,22.4338,22.4338,0,0,0-.40808,3.16821c0,.072,0,1.0321.28808,1.0321a.55275.55275,0,0,0,.216-.072c.4801-.288,1.39221-.91211,2.44824-1.51208a8.0882,8.0882,0,0,1,3.86438-1.29615c2.08813,0,4.15234,1.34412,4.15234,3.50428,0,1.53613-1.05615,3.38427-3.60034,5.0404A15.61448,15.61448,0,0,1,162.00159,128.20825Z"/>
    <path d="M189.24219,120.91162a12.81637,12.81637,0,0,1-.048,1.32007,1.42722,1.42722,0,0,1-1.29614,1.46411,1.002,1.002,0,0,1-.98413-1.12805v-.21607a13.05836,13.05836,0,0,0,.09607-1.60815c-.504.264-2.73621,1.44019-2.73621,2.95227,0,.40808.192,1.82422,2.64014,1.82422a11.15054,11.15054,0,0,0,3.02429-.504,1.93977,1.93977,0,0,1,.6001-.09607,1.15849,1.15849,0,0,1,1.24805,1.12818c0,.504-.192,1.728-4.29627,1.728-3.9364,0-5.37646-2.06408-5.37646-3.81628,0-2.92822,3.4082-4.75244,4.65637-5.40051-.28809-.936-.76807-1.416-1.41614-1.416a2.36593,2.36593,0,0,0-1.24817.432c-1.008,1.12805-1.608,1.46411-2.13611,1.46411a.95831.95831,0,0,1-1.0321-.91211,1.30939,1.30939,0,0,1,.552-.984,12.52543,12.52543,0,0,0,3.07227-3.64831,7.04859,7.04859,0,0,1-1.176.09594c-2.42419,0-2.44824-1.34411-2.44824-1.53613a1.02019,1.02019,0,0,1,.984-1.056,1.52678,1.52678,0,0,1,.86413.312,1.62666,1.62666,0,0,0,.88807.192,9.27754,9.27754,0,0,0,1.89624-.264,9.24246,9.24246,0,0,0,.432-1.89624.943.943,0,0,1,1.00806-.84,1.22463,1.22463,0,0,1,1.29614,1.056,4.57892,4.57892,0,0,1-.144.88807c.72009-.36.816-.384.98413-.384a1.04505,1.04505,0,0,1,1.0321,1.05615c0,.792-.62414,1.2721-3.12036,1.8722a25.82781,25.82781,0,0,1-1.368,2.40014,3.20848,3.20848,0,0,1,3.02417,2.25623,27.879,27.879,0,0,1,5.54456-1.94422,1.27758,1.27758,0,0,1,1.34411,1.24817.9917.9917,0,0,1-.64807.936c-.74414.312-1.53613.40808-2.7843.79211-1.00806.312-2.04016.696-2.9762,1.08008A8.87641,8.87641,0,0,1,189.24219,120.91162Z"/>
    <path d="M204.12146,121.34363a1.04467,1.04467,0,1,1,0-2.08814l4.63232.02393V114.671l-3.43225.02405a1.05636,1.05636,0,1,1,0-2.11218l3.43225.024v-3.86438a1.19989,1.19989,0,0,1,2.37622,0v3.86438h4.36841v-3.86438a1.19989,1.19989,0,0,1,2.37622,0v3.86438l3.64832-.024a1.05872,1.05872,0,0,1,0,2.11218l-3.64832-.02405v4.6084l4.84839-.02393a1.04589,1.04589,0,0,1,0,2.08814Zm.408,6.93664a1.26811,1.26811,0,0,1-1.32007-1.22412,1.31,1.31,0,0,1,1.10413-1.20019,13.80679,13.80679,0,0,0,5.5205-3.16822,1.15132,1.15132,0,0,1,.792-.33606,1.30911,1.30911,0,0,1,1.24817,1.2721,1.16857,1.16857,0,0,1-.40809.86414C210.098,125.688,206.01758,128.28027,204.52942,128.28027Zm10.969-13.60925H211.13v4.6084h4.36841Zm6.62464,13.51318c-.91211,0-4.75244-1.82409-6.9607-3.76831a1.12969,1.12969,0,0,1-.432-.88806,1.25776,1.25776,0,0,1,1.22412-1.20007,1.234,1.234,0,0,1,.79211.312,14.9451,14.9451,0,0,0,5.66443,3.02429,1.28632,1.28632,0,0,1,1.08008,1.224A1.33813,1.33813,0,0,1,222.12305,128.1842Z"/>
    <path d="M232.32166,126.24a15.43622,15.43622,0,0,1-.624-4.58435c0-4.22437,1.22412-8.35266,1.34412-10.00891a1.17946,1.17946,0,0,1,2.35217-.096.59554.59554,0,0,1-.02405.192c-.33593,1.7522-1.56006,6.1925-1.56006,8.56872,0,.88806.168.98413.24.98413.048,0,.12-.04809.168-.16809.74414-1.41613.91211-1.7041,1.41614-1.7041a1.04356,1.04356,0,0,1,.98413,1.00806.74074.74074,0,0,1-.12.432,12.457,12.457,0,0,0-1.80017,4.51245c0,.21606.02392.432.02392.64807a1.12778,1.12778,0,0,1-1.20007,1.248A1.28273,1.28273,0,0,1,232.32166,126.24Zm13.34521-.14392c-4.15247,0-7.32068-2.47229-7.32068-3.64832a1.2031,1.2031,0,0,1,1.24805-1.12817,1.41159,1.41159,0,0,1,1.0802.52808,6.12,6.12,0,0,0,4.65637,1.60815,14.8273,14.8273,0,0,0,2.04016-.144,1.17156,1.17156,0,0,1,.288-.02393,1.10776,1.10776,0,0,1,1.20019,1.1521C248.85913,125.688,247.803,126.09607,245.66687,126.09607Zm-2.71228-10.537a13.5508,13.5508,0,0,1-3.24036-.36,1.10624,1.10624,0,0,1,.09607-2.20813.90286.90286,0,0,1,.24.02392,11.28639,11.28639,0,0,0,2.32825.24,22.97211,22.97211,0,0,0,2.95227-.24c.072,0,.14392-.02392.21594-.02392a1.10215,1.10215,0,0,1,1.1521,1.12805C246.69885,115.0791,246.02686,115.55908,242.95459,115.55908Z"/>
    <path d="M256.03369,127.24817a1.092,1.092,0,0,1-1.10412-1.05615,1.15131,1.15131,0,0,1,.33605-.792c1.89612-1.99218,2.13624-4.84851,2.13624-6.96069,0-.76807-.024-1.46411-.024-1.96814,0-1.51208,1.1521-1.99219,2.25622-2.01611.7201,0,1.39209-.024,2.01612-.024.91211,0,1.80017.024,2.83227.048,1.44007.0481,2.3042.55213,2.37622,1.7522.02405.45606.048,1.00806.048,1.58411,0,2.49621-.072,3.43225-2.40015,3.4563-1.27222.024-2.49622.024-3.74439.024H259.178C258.72192,124.58386,257.30579,127.24817,256.03369,127.24817Zm4.10437-13.7052a.86831.86831,0,0,1-.86413-.552c-2.13611,2.20813-2.85621,2.2561-3.07227,2.2561a1.25708,1.25708,0,0,1-1.24805-1.1521,1.10762,1.10762,0,0,1,.57605-.936,18.09592,18.09592,0,0,0,4.41638-4.34436,2.54551,2.54551,0,0,1,2.11219-1.22413,2.96239,2.96239,0,0,1,2.25622,1.22413,23.28009,23.28009,0,0,0,3.76831,3.50427.99514.99514,0,0,1,.432.79211,1.32278,1.32278,0,0,1-1.248,1.248c-.384,0-.69616-.096-2.20825-1.60816a.84726.84726,0,0,1-.91211.79212Zm2.83228,14.44922c-3.04834,0-4.29639,0-4.29639-2.35218,0-1.6322.02393-3.2163,1.89612-3.3363.76806-.048,1.56018-.048,2.35217-.048.81616,0,1.6322,0,2.42432.048a1.94026,1.94026,0,0,1,1.89612,1.58411c.024.33606.048.696.048,1.08008,0,1.20019-.072,2.83227-1.99219,2.95227C264.50647,127.96826,263.7384,127.99219,262.97034,127.99219Zm-3.57642-9.38477c0,.33594-.02392.696-.048,1.08008.91211,0,1.72815.02393,2.52026.02393s1.56018-.02393,2.28015-.02393a.61744.61744,0,0,0,.67212-.624c0-.144.02393-.28809.02393-.45606Zm5.44849-1.46411c0-.16809-.02393-.36011-.02393-.4801-.02405-.40808-.28808-.57605-.67212-.57605-.72-.02393-1.368-.02393-2.01611-.02393-.624,0-1.22412,0-1.89624.02393s-.816.384-.816.88806v.16809Zm-.64795-5.32849c-.50415-.576-1.00818-1.1521-1.41614-1.65613-.24011-.264-.43213-.384-.62415-.384-.21594,0-.384.168-.57605.432a17.83876,17.83876,0,0,1-1.224,1.60815Zm-1.03211,12.16907c-.57605,0-1.12817,0-1.68017.02392-.67212,0-.7201.55213-.7201,1.24817,0,.79212.024.88806,2.20826.88806,1.89612,0,2.18408,0,2.18408-1.008C265.15442,124.07983,265.13049,123.98389,263.16235,123.98389Zm5.78443-13.94519a1.10439,1.10439,0,0,1,2.20825,0v12.241a1.10664,1.10664,0,0,1-2.20825,0Zm6.55261,14.9292v.04809c0,1.44006-.91211,3.14417-3.67236,3.14417-1.99219,0-2.64014-.432-2.64014-1.368a1.09132,1.09132,0,0,1,.984-1.20007.81829.81829,0,0,1,.24.02393,7.72745,7.72745,0,0,0,1.48816.264c.64807,0,1.20007-.264,1.22412-1.29614.024-.88806.024-7.56067.024-12.025V108.7666a1.15314,1.15314,0,0,1,2.3042,0v13.29712Z"/>
    <path d="M294.31506,108.64648a1.36354,1.36354,0,0,1,1.46411,1.36817,1.779,1.779,0,0,1-.552,1.248c-1.65613,1.68017-4.15234,4.4165-4.82446,5.04052a8.15737,8.15737,0,0,1,3.88843-.93615c3.64819,0,5.92846,2.61633,5.92846,5.01647,0,4.75245-6.43261,7.53663-11.401,7.53663a1.2928,1.2928,0,0,1-1.39209-1.248c0-.55212.408-1.10413,1.32007-1.12817,6.45654-.192,8.97681-3.26429,8.97681-5.18445,0-.864-.816-3.04822-3.88831-3.04822a8.27807,8.27807,0,0,0-6.07251,2.8562,26.15466,26.15466,0,0,0-1.65625,2.25623,1.42131,1.42131,0,0,1-1.1521.60009,1.30189,1.30189,0,0,1-1.34411-1.20007c0-.4801.24011-.81616,2.04016-2.73633,1.51221-1.5841,6.8407-7.87268,6.8407-7.99267h-.024a.62413.62413,0,0,0-.168.072,17.72487,17.72487,0,0,1-4.70447,1.5841,1.29038,1.29038,0,0,1-1.32007-1.27209,1.20346,1.20346,0,0,1,1.296-1.1521,31.14587,31.14587,0,0,0,5.13648-1.20007c.76807-.28809.79211-.48011,1.58423-.48011Z"/>
    <path d="M309.69861,127.27209a1.08275,1.08275,0,0,1,.696-1.00805c4.41639-1.94422,5.85645-4.7284,5.85645-7.34461,0-.67212-.21594-4.15234-2.06409-4.15234a3.82429,3.82429,0,0,0-1.89624.744,5.31993,5.31993,0,0,1-2.52014,1.08008,1.276,1.276,0,1,1-.12012-2.54419,5.20924,5.20924,0,0,0,1.6322-.6001,7.43394,7.43394,0,0,1,3.04822-.76807c4.22437,0,4.32044,5.71253,4.32044,6.19263,0,6.4325-6.69666,9.67273-7.68067,9.67273A1.29552,1.29552,0,0,1,309.69861,127.27209Zm6.04846-16.58532a11.01281,11.01281,0,0,1-4.65637-1.03211,1.12946,1.12946,0,0,1-.64807-.98413,1.07591,1.07591,0,0,1,1.10412-1.056,1.77041,1.77041,0,0,1,.64807.14392,6.64609,6.64609,0,0,0,2.80823.52808c.288,0,.552,0,.84009-.02405h.096a1.10206,1.10206,0,0,1,1.22412,1.08008A1.32017,1.32017,0,0,1,315.74707,110.68677Z"/>
    <path d="M331.923,127.58423A1.66269,1.66269,0,0,1,330.26685,126a1.7339,1.7339,0,0,1,1.65612-1.65613A1.54906,1.54906,0,0,1,333.57922,126,1.59649,1.59649,0,0,1,331.923,127.58423Zm-1.032-6.09656v-.504c0-2.32824-.24011-7.92077-.384-11.68908v-.072a1.30148,1.30148,0,0,1,1.39209-1.32006,1.35766,1.35766,0,0,1,1.44006,1.39209c0,2.83227-.384,9.43286-.384,11.7611,0,.57593,0,1.58411-1.056,1.58411a1.03171,1.03171,0,0,1-1.00806-1.12817Z"/>
  </g>
</svg>
