<svg id="レイヤー_1" data-name="レイヤー 1" xmlns="http://www.w3.org/2000/svg" xmlns:xlink="http://www.w3.org/1999/xlink" width="619.56409" height="56.92188" viewBox="0 0 619.56409 56.92188">
  <defs>
    <style>
      .cls-1 {
        fill: none;
      }

      .cls-2 {
        clip-path: url(#clip-path);
      }
    </style>
    <clipPath id="clip-path">
      <path class="cls-1" d="M2079.52548-55.71s-226.27888-64.37728-448-60c-143.07464,2.82462-182,35.3366-347.2788,35.3366-82.23527,0-208.04441-40.74166-355.09724-40.74166-134.6868,0-215.69924,16.2276-215.69924,16.2276V-895.71H2079.52548Z"/>
    </clipPath>
  </defs>
  <title>about_txt</title>
  <g>
    <path d="M34.96936,6.21655a7.94709,7.94709,0,0,1-1.17615-2.71228,1.02668,1.02668,0,0,1,1.10413-1.0321,1.464,1.464,0,0,1,1.39209,1.1521,11.87379,11.87379,0,0,0,.86413,2.04016c.36-.12.72-.24,1.08008-.384a2.005,2.005,0,0,1,.696-.14393,1.09062,1.09062,0,0,1,1.12805,1.104c0,.91211-.64807,1.10412-1.8241,1.44018C40.32178,11.401,41.522,13.60913,41.522,15.12134c0,.96008-.4801,1.34411-1.05615,1.34411a1.93848,1.93848,0,0,1-1.248-.504c-.88818-.74414-3.84033-1.29615-5.54455-1.29615-1.92017,0-2.88025.936-2.88025,1.60816,0,1.056,2.06421,1.77612,4.20044,1.77612.384,0,.76806-.024,1.1521-.048h.21594c.93616,0,1.39209.552,1.39209,1.1521a1.435,1.435,0,0,1-1.56006,1.368c-4.89648,0-7.77673-1.89612-7.77673-4.05628,0-1.17614,1.27209-3.8164,5.44848-3.8164a30.50035,30.50035,0,0,1,4.44043.52807c.09595,0,.168.024.21595.024s.072-.024.072-.04809c0-.048-.048-.96009-2.47217-4.96839a16.37121,16.37121,0,0,1-2.66418.384c-2.78431,0-5.11255-2.37623-5.11255-3.36023a1.081,1.081,0,0,1,1.1521-1.00818,1.46734,1.46734,0,0,1,1.12817.52807,4.12893,4.12893,0,0,0,3.09619,1.65613,2.62225,2.62225,0,0,0,.45606-.02392Z"/>
    <path d="M52.24878,20.35376a1.27172,1.27172,0,0,1-1.176-1.0321,17.54827,17.54827,0,0,1-.72009-5.23243,26.60852,26.60852,0,0,1,.168-3.12024c.28809-2.68823.84009-5.06445,1.00818-6.55261a1.09967,1.09967,0,0,1,1.104-1.128,1.22273,1.22273,0,0,1,1.24817,1.176c0,.048-.02405.12-.02405.192-.168,1.03211-.6,2.71228-.936,4.46436a23.41262,23.41262,0,0,0-.52808,4.12842c0,.88806.14405,1.08007.192,1.08007.072,0,.192-.144.33606-.432.672-1.46411,1.056-1.72815,1.44006-1.72815a1.04726,1.04726,0,0,1,1.00818,1.00805.993.993,0,0,1-.12012.45606,14.71107,14.71107,0,0,0-1.89611,4.72839c0,.28809.072.576.072.864A1.16869,1.16869,0,0,1,52.24878,20.35376ZM64.92188,3.50427c-.072.696-.14393,1.44019-.168,2.23218q.61212-.108,1.29614-.21594a1.47294,1.47294,0,0,1,.312-.024,1.09626,1.09626,0,0,1,1.22412,1.0321c0,.504-.40808,1.03211-1.29614,1.1521-.552.072-1.08008.14405-1.56018.21607.02405,1.77612.09607,3.5282.21606,4.80029a24.84221,24.84221,0,0,1,.192,2.66431v.264a9.53644,9.53644,0,0,1,2.76025,1.68005,1.34565,1.34565,0,0,1,.45606.98413,1.28333,1.28333,0,0,1-1.22412,1.34412,1.15526,1.15526,0,0,1-.86414-.432,8.142,8.142,0,0,0-1.72815-1.39209,5.55231,5.55231,0,0,1-4.48828,2.49622c-1.96826,0-3.72034-1.44019-3.72034-3.00037,0-1.8241,2.23218-2.56812,4.44031-2.56812a11.96885,11.96885,0,0,1,2.23218.24,6.057,6.057,0,0,0,.024-.67211c0-.408-.024-.84009-.072-1.34412-.096-1.0321-.216-2.80823-.288-4.6803-2.49621.528-3.64831,1.12805-4.32043,1.75208a1.14228,1.14228,0,0,1-.76807.33606,1.15986,1.15986,0,0,1-1.10413-1.1521c0-.52808.33606-1.7522,6.14454-3.04834,0-1.00806.024-1.96814.072-2.73621a1.02467,1.02467,0,0,1,1.10412-.984,1.24889,1.24889,0,0,1,.91211.36.92555.92555,0,0,1,.936-.86414c.384,0,2.90429,1.05615,2.90429,2.13623a.99809.99809,0,0,1-.88806,1.00806.75.75,0,0,1-.576-.288,7.38492,7.38492,0,0,0-1.84826-1.3202.98783.98783,0,0,1-.312-.19189ZM60.3855,16.58545c-1.87207,0-1.96814.6-1.96814.816,0,.288.312.88806,1.36816.88806a3.51325,3.51325,0,0,0,2.66419-1.39209A7.83076,7.83076,0,0,0,60.3855,16.58545ZM69.09827,2.80823a7.804,7.804,0,0,0-1.8722-1.2721.75188.75188,0,0,1-.552-.696A.89044.89044,0,0,1,67.61011,0c.16809,0,2.95227.84009,2.95227,2.06421a1.01808,1.01808,0,0,1-.912,1.00806A.711.711,0,0,1,69.09827,2.80823Z"/>
    <path d="M84.88953,16.65747a1.747,1.747,0,0,0,1.80017,1.58411,11.31818,11.31818,0,0,0,4.0083-.88806,1.64573,1.64573,0,0,1,.76806-.192,1.14248,1.14248,0,0,1,1.17615,1.1521c0,1.75207-3.60034,2.16015-5.30444,2.16015-3.12036,0-4.32044-1.46411-4.51245-3.02429-.12-.936-.36-1.32007-.7201-1.32007-.76806,0-2.01611,1.8722-3.38427,3.33631a1.88751,1.88751,0,0,1-1.488.792c-1.1521,0-1.46423-.64807-1.46423-1.0321a1.39287,1.39287,0,0,1,.576-.984A82.49543,82.49543,0,0,0,85.82556,9.2168a.72376.72376,0,0,0,.144-.21607.02346.02346,0,0,0-.024-.02392,2.83673,2.83673,0,0,0-.312.14392c-1.15209.52807-4.4884,1.99219-5.97644,1.99219A1.102,1.102,0,0,1,78.433,10.03284a1.15661,1.15661,0,0,1,1.08008-1.128,49.70383,49.70383,0,0,0,6.16858-1.63221c.624-.192.624-.264,1.248-.504a2.04222,2.04222,0,0,1,.624-.12,1.54346,1.54346,0,0,1,1.56018,1.48816,1.61524,1.61524,0,0,1-.4801,1.104c-1.12805,1.17615-4.10425,4.15247-5.37647,5.23255C84.36145,14.52124,84.69751,15.79333,84.88953,16.65747Zm1.60815-11.233c-1.44018,0-4.56042-1.89612-4.56042-2.95227a1.02911,1.02911,0,0,1,1.10412-.936,1.576,1.576,0,0,1,1.03211.408,4.42126,4.42126,0,0,0,2.76025,1.2002c.72.072,1.032.504,1.032.984A1.31785,1.31785,0,0,1,86.49768,5.42444Z"/>
    <path d="M107.76184,15.86536c0,1.7041.816,2.71228,1.96814,2.71228.144,0,2.61621-.264,2.61621-2.42432,0-1.224-.84009-2.8562-3.16821-4.72839a1.51784,1.51784,0,0,1-.64807-1.08008,1.06386,1.06386,0,0,1,1.1521-.984,1.66308,1.66308,0,0,1,1.008.384c2.8562,2.37622,4.03235,4.63233,4.03235,6.50452,0,2.83228-2.80823,4.6084-5.08838,4.6084-2.1842,0-4.00842-1.60816-4.00842-4.89636v-.0481c0-.6,0-1.22412.02405-1.8241-1.89624-.52807-3.55237-1.0321-3.55237-2.7843a4.05168,4.05168,0,0,1,.86414-2.28015,1.15158,1.15158,0,0,0,.24-.67212c0-.57605-.864-1.296-2.28016-1.8241a1.10455,1.10455,0,0,1-.84008-.96008,1.06631,1.06631,0,0,1,1.1521-.98413c.76806,0,4.20031,1.48816,4.20031,3.52832a3.0684,3.0684,0,0,1-.88806,1.89612,1.55571,1.55571,0,0,0-.45605.93616c0,.36.312.52807.67212.624.312.072.64807.144.984.24.24-5.08838.24-5.97644.24-6.60046,0-.98413-.02393-1.65625-.02393-2.54432a1.07506,1.07506,0,0,1,1.12805-1.1521c1.24817,0,1.2721,1.12818,1.2721,1.72815,0,.86414-.12,1.68018-.168,2.78431-.096,2.1842-.264,4.29638-.36,6.40857,1.39209.528,2.01612.96008,2.01612,1.68005a1.21892,1.21892,0,0,1-1.12806,1.24817,1.55125,1.55125,0,0,1-.96008-.40808Z"/>
    <path d="M137.69055,11.04089c0-2.66418-2.08826-4.94433-5.56848-4.94433h-.048a1.08474,1.08474,0,0,1,.672,1.008v.12c0,2.52026-2.47216,6.88855-5.11242,9.48083a2.60358,2.60358,0,0,1-1.80017.816c-1.70411,0-3.24024-1.92016-3.24024-4.53637,0-4.34436,4.27234-8.76074,9.67285-8.76074,4.84839,0,7.87268,3.2163,7.87268,6.96057a7.3587,7.3587,0,0,1-.52807,2.71228c-2.11218,5.32837-8.64075,6.07251-8.97681,6.07251a1.26209,1.26209,0,0,1-1.368-1.17615c0-.528.408-1.03211,1.32007-1.20007C134.95435,16.87341,137.69055,14.18518,137.69055,11.04089Zm-6.93664-4.82434c-3.00025.6-6.00049,3.79224-6.00049,6.64856,0,1.80017,1.20007,2.01612,1.27209,2.01612a.63566.63566,0,0,0,.45606-.192c.72009-.64795,3.72033-4.20032,3.81628-7.44055A1.24131,1.24131,0,0,1,130.75391,6.21655Z"/>
    <path d="M154.08167,19.48962a1.34355,1.34355,0,0,1-1.44007-1.296,1.2386,1.2386,0,0,1,1.20007-1.17614c4.53638-.64808,9.81678-3.04822,9.81678-6.26453a3.27406,3.27406,0,0,0-3.50428-3.02429,9.40578,9.40578,0,0,0-3.02429.64807c-2.28015.79211-5.1604,2.52026-7.60864,3.64831a1.73513,1.73513,0,0,1-.792.192,1.29722,1.29722,0,0,1-1.34412-1.27209,1.33462,1.33462,0,0,1,.936-1.22412c2.3042-.91211,6.09655-2.85621,8.4967-3.52833a13.45258,13.45258,0,0,1,3.62439-.6,5.52634,5.52634,0,0,1,5.85645,5.28039c0,1.77613-1.08008,3.48035-3.19226,5.13648C160.13013,18.33752,154.72974,19.48962,154.08167,19.48962ZM164.28259,5.52051a8.26,8.26,0,0,0-1.94421-1.41614.757.757,0,0,1-.552-.72009.9814.9814,0,0,1,1.008-.88806c.33606,0,3.04822,1.08007,3.04822,2.25622a1.09375,1.09375,0,0,1-.96008,1.08008A.75081.75081,0,0,1,164.28259,5.52051Zm2.18421-2.11218a8.64627,8.64627,0,0,0-1.96826-1.34412.80228.80228,0,0,1-.6-.72009.96449.96449,0,0,1,1.00806-.88807c.52807,0,3.09631,1.056,3.09631,2.16016a1.05166,1.05166,0,0,1-.96021,1.05615A.75662.75662,0,0,1,166.4668,3.40833Z"/>
    <path d="M182.64233,21.31384a1.20236,1.20236,0,0,1-1.12817-.79211,33.78479,33.78479,0,0,0-4.82446-7.56067,4.30581,4.30581,0,0,1-1.12805-2.52014,3.65734,3.65734,0,0,1,.93615-2.23218,57.4308,57.4308,0,0,0,4.48828-6.31262,1.13673,1.13673,0,0,1,1.00818-.624,1.53848,1.53848,0,0,1,1.51209,1.41614,1.3104,1.3104,0,0,1-.21607.69605c-.96008,1.53613-3.64831,4.53637-4.92041,6.07251a1.37186,1.37186,0,0,0-.384.88806,2.06941,2.06941,0,0,0,.57605,1.22412c2.44824,3.16833,4.34436,4.96838,5.44849,7.70471a1.90116,1.90116,0,0,1,.12.6A1.50089,1.50089,0,0,1,182.64233,21.31384Z"/>
    <path d="M195.74609,21.45789a1.18884,1.18884,0,0,1-1.22412-1.17615,1.27786,1.27786,0,0,1,.88806-1.1521c4.92041-2.01611,6.28858-5.59253,6.28858-9.00073a15.80689,15.80689,0,0,0-.40808-3.43238c-.24-1.128-.76807-1.5841-1.34412-1.5841a2.56456,2.56456,0,0,0-1.77612,1.1521c-1.03211,1.34411-1.2721,2.97619-1.32007,5.11242-.048,1.29615-.67212,1.8722-1.2721,1.8722-1.20019,0-1.20019-1.58411-1.20019-1.92017a20.62233,20.62233,0,0,1,.96008-5.16052c.36011-1.224.96009-2.9762,1.24817-4.44031a.97242.97242,0,0,1,1.00806-.84009,1.34379,1.34379,0,0,1,1.36816,1.24817c0,.0719-.024.14392-.024.21594a4.16429,4.16429,0,0,1-.744,1.68018c-.16809.264-.192.36-.16809.36.04809,0,.192-.144.3601-.312a3.17977,3.17977,0,0,1,2.16016-1.0321c2.88025,0,3.60034,4.80041,3.60034,7.29663,0,4.00842-1.7522,8.37671-7.65674,10.94494A1.75237,1.75237,0,0,1,195.74609,21.45789Z"/>
    <path d="M217.106,20.54578a1.05379,1.05379,0,0,1-1.17615.984,1.03049,1.03049,0,0,1-1.1521-.984v-.024c.048-3.02417.09595-7.84863.09595-12.16907h-1.65613a1.05713,1.05713,0,1,1,0-2.11218h1.65613c-.02393-1.87207-.048-3.52832-.09595-4.77637v-.048A1.04075,1.04075,0,0,1,215.90576.408a1.08115,1.08115,0,0,1,1.2002,1.0321v.02405c-.02405,1.32007-.0481,2.97632-.0481,4.77637H218.426a1.00532,1.00532,0,0,1,1.056,1.05615,1.00523,1.00523,0,0,1-1.056,1.056h-1.39209c0,4.29639.02392,9.00086.072,12.16907Zm12.553-4.22437-.02393.432.048,1.87219v.072a2.65108,2.65108,0,0,1-2.97619,2.80823c-1.60816,0-2.08826-.4801-2.08826-1.22412a1.00322,1.00322,0,0,1,1.00806-1.03211,1.16675,1.16675,0,0,1,.28808.024,5.37019,5.37019,0,0,0,.91211.144c.48,0,.744-.24011.744-1.12817v-.072l-.024-1.89612-8.40063.024a.88218.88218,0,0,1-.93616-.88818.86926.86926,0,0,1,.93616-.88807l8.37671.02405-.024-.504v-.024c0-.6001.552-.88807,1.10413-.88807a.9439.9439,0,0,1,1.056.88807v.504h2.71228a.849.849,0,0,1,.91211.88807.86133.86133,0,0,1-.91211.88818ZM226.80273,4.39233V5.61646c.88807,0,1.72815,0,2.32825.024,1.51209.048,2.3042.84009,2.3761,1.80017a14.6614,14.6614,0,0,1,.0481,1.51209c0,.744-.02405,1.53613-.0481,2.13623a2.11648,2.11648,0,0,1-2.2561,1.96814c-.79212.048-2.01624.072-3.24036.072-1.41614,0-2.8562-.024-3.69629-.072-2.37622-.09607-2.37622-1.46411-2.37622-3.55237,0-.72.02405-1.44006.048-1.94409.0481-.88806.6001-1.87219,2.32825-1.92017.55213-.024,1.34412-.024,2.20825-.024V4.39233l-4.27246.0481a.91908.91908,0,1,1,0-1.82422l4.27246.048v-1.248a1.14174,1.14174,0,0,1,2.28015,0v1.248l2.76026-.02392a5.19765,5.19765,0,0,0-1.51221-1.00818.54853.54853,0,0,1-.36-.52795,1.05784,1.05784,0,0,1,1.008-.93616c.48011,0,2.52027.81616,2.52027,1.82422a1.20745,1.20745,0,0,1-.192.64807l.552-.024a.91669.91669,0,1,1,0,1.82422Zm-3.48034,15.04932a5.57269,5.57269,0,0,0-1.96814-1.32007.62214.62214,0,0,1-.408-.57605,1.19123,1.19123,0,0,1,1.1521-1.0321c.57593,0,2.90417.91211,2.90417,2.01611a1.24186,1.24186,0,0,1-1.08007,1.2002A.79683.79683,0,0,1,223.32239,19.44165Zm1.32019-12.337c-2.32825,0-2.52027,0-2.56824.76807,0,.192-.02405.45606-.02405.72009h2.59229Zm0,2.88025h-2.59229c0,1.1521,0,1.60816.91211,1.63208.384,0,.98413.02405,1.68018.02405ZM229.443,8.59277c0-.264-.024-.50415-.024-.696-.02393-.79212-.12-.79212-2.76026-.79212V8.59277Zm-2.7843,1.39209V11.641c2.3523,0,2.73633,0,2.76026-.79211,0-.24.024-.552.024-.864Z"/>
    <path d="M250.75439,17.80957c-.624,0-1.22412-.024-1.82421-.024a.99005.99005,0,0,1,.4801.816c0,1.2721-3.9364,3.28833-8.04065,3.31226a1.09855,1.09855,0,0,1-1.22412-1.056,1.00154,1.00154,0,0,1,1.12805-.98413h.12a9.48421,9.48421,0,0,0,5.85657-1.84815,1.7213,1.7213,0,0,1,.36-.264c-.48,0-.91211-.02392-1.36817-.02392-1.63208-.024-2.49609-.81616-2.56811-1.87219-.02405-.672-.0481-1.44007-.0481-2.16016,0-.74414.024-1.48816.0481-2.08826.048-.864.72-1.77612,2.49621-1.8,1.20008-.024,2.47217-.024,3.74427-.024,1.5841,0,3.19226,0,4.84839.048A2.263,2.263,0,0,1,257.163,11.497a20.61311,20.61311,0,0,1,.096,2.1842,21.21081,21.21081,0,0,1-.096,2.18421,2.32557,2.32557,0,0,1-2.52026,1.89611c-.528,0-1.056.02405-1.60815.02405-.02393.312-.02393.624-.02393.96009.048.816.792.9121,2.35217.9121,2.35218,0,3.09632-.45605,3.09632-1.70422a1.03745,1.03745,0,0,1,1.128-1.056,1.17642,1.17642,0,0,1,1.27209,1.176c0,3.02429-2.52014,3.40832-5.49646,3.40832-2.25622,0-4.6084,0-4.6084-2.23218Zm-.744-10.17688a.73721.73721,0,0,1,.76806.744.76215.76215,0,0,1-.79211.76807c-.57605.024-1.87219.048-3.19226.048-1.6322,0-3.28833-.02393-3.76831-.048-1.1521-.072-1.96814-.6001-2.01624-1.80018-.048-.88806-.072-1.68017-.072-2.44824s.024-1.53613.072-2.3761A1.844,1.844,0,0,1,243.00171.84009h6.88867a.744.744,0,0,1,.792.744.76885.76885,0,0,1-.816.76806h-2.76025v.86414c.57605,0,1.0321.02392,1.32007.02392,1.5122.072,1.56018.74415,1.56018,1.89624s-.312,1.56006-2.88025,1.56006v.98413c1.24817,0,2.42419-.024,2.88025-.048Zm-1.80017-2.88025c-.024-.24011-.144-.33606-.48011-.36011h-4.80041V5.44849c1.27209,0,3.84033,0,4.70447-.024.432-.024.552-.09595.576-.36Zm-2.95228-2.40027h-1.6322c-.384.024-.624.09607-.648.52808l-.024.33606h2.30419Zm0,4.36841c-.84008,0-1.68017,0-2.30419-.024l.024.45606c.02393.52807.24.52807,2.28015.52807Zm9.81678,6.60059h-9.38477v.912h9.38477Zm-.048-1.22412c-.02392-.504-.24-.744-1.008-.76807-1.34412-.024-2.95227-.048-4.51233-.048-.96021,0-1.92017,0-2.76026.02392-.72009.024-.98413.384-1.00817.79212v.072h9.28881Zm.02405,3.2882h-9.31286v.12012c.024.816.21606.84009,5.20849.84009,3.60034,0,4.0083,0,4.08032-.84009Zm-1.7041-10.92089c-.93616,1.27209-1.29614,1.7041-1.89624,1.7041a1.04205,1.04205,0,0,1-1.10413-.88806.89957.89957,0,0,1,.264-.57605A11.94089,11.94089,0,0,0,253.03455.936.8588.8588,0,0,1,253.89868.408c.576,0,1.22412.40808,1.22412.98413a.94287.94287,0,0,1-.072.33606,8.92349,8.92349,0,0,1-.504.936l5.06446-.02392a.894.894,0,0,1,.96008.912.89949.89949,0,0,1-.96008.93615Zm-.91211,4.05639a.94.94,0,0,1-1.00806-.93616.92263.92263,0,0,1,1.00806-.912h6.76855a.92475.92475,0,1,1,0,1.84814Z"/>
    <path d="M278.71436,3.38428c-.26392-.28809-.45606-.432-.624-.432s-.33606.14392-.57605.432a37.03751,37.03751,0,0,1-7.70471,7.20068,1.79835,1.79835,0,0,1-1.00806.33594,1.30669,1.30669,0,0,1-1.32006-1.2721,1.31357,1.31357,0,0,1,.76806-1.128,25.924,25.924,0,0,0,7.5846-6.74463A2.679,2.679,0,0,1,277.92236.624a3.09329,3.09329,0,0,1,2.25611,1.1521,28.31728,28.31728,0,0,0,7.77673,6.00049,1.127,1.127,0,0,1,.64807,1.03211,1.45,1.45,0,0,1-1.41614,1.41613C285.891,10.22485,281.37866,6.3606,278.71436,3.38428Zm-1.22413,10.34485a39.453,39.453,0,0,1-1.75207,4.68042c2.20813-.168,4.39233-.432,6.48059-.744a15.90756,15.90756,0,0,0-1.7522-1.39209.97658.97658,0,0,1-.504-.81616,1.09024,1.09024,0,0,1,1.12806-.984c1.41613,0,5.73657,4.0083,5.73657,5.42444a1.36475,1.36475,0,0,1-1.34412,1.29614,1.08637,1.08637,0,0,1-.98413-.64807,10.67763,10.67763,0,0,0-.79211-1.22412,98.2828,98.2828,0,0,1-12.91309,1.6322,1.13557,1.13557,0,0,1-1.10412-1.2002,1.00691,1.00691,0,0,1,.98413-1.08008c.84008-.02392,1.7041-.048,2.56823-.09594a27.944,27.944,0,0,0,1.7041-4.82447l-4.53637.024a1.02231,1.02231,0,0,1-1.12805-1.0321,1.095,1.095,0,0,1,1.12805-1.12818H285.651a1.083,1.083,0,0,1,1.1521,1.10413,1.06065,1.06065,0,0,1-1.1521,1.05615ZM274.754,9.31274a1.058,1.058,0,0,1-1.128-1.08007,1.07115,1.07115,0,0,1,1.128-1.08008h6.88867a1.07115,1.07115,0,0,1,1.12805,1.08008,1.058,1.058,0,0,1-1.12805,1.08007Z"/>
    <path d="M309.09875,20.18579h-.24c-5.20837-.4801-8.4967-4.08044-8.4967-7.77673a6.75654,6.75654,0,0,1,1.72815-4.39234.49426.49426,0,0,0,.12-.21606.05159.05159,0,0,0-.048-.048.81266.81266,0,0,0-.24011.09594c-3.76831,1.94422-4.22437,2.08826-4.75232,2.08826a1.36628,1.36628,0,0,1-1.46411-1.29614,1.376,1.376,0,0,1,1.104-1.24817c.504-.168,1.87219-.576,2.59229-.84009,1.12805-.408,3.12024-1.032,5.49646-1.96814A18.325,18.325,0,0,1,311.259,3.09619c1.20008,0,1.63208.55213,1.63208,1.17615,0,1.22412-1.00805,1.48816-1.92016,1.48816a4.42727,4.42727,0,0,1-.552-.02405,4.63881,4.63881,0,0,0-.57605-.02393c-3.72034,0-7.36866,3.16822-7.36866,6.38453,0,2.88024,2.73621,5.32849,6.50452,5.32849,1.2002,0,1.77612.696,1.77612,1.416C310.75488,19.51367,310.20288,20.18579,309.09875,20.18579ZM311.163,11.761a9.09976,9.09976,0,0,0-2.04016-1.48816.80539.80539,0,0,1-.60009-.744,1.01564,1.01564,0,0,1,1.05615-.936c.312,0,3.24023,1.104,3.24023,2.35218A1.14683,1.14683,0,0,1,311.787,12.073.82907.82907,0,0,1,311.163,11.761Zm2.76026-1.99219a8.4275,8.4275,0,0,0-2.08814-1.41614.83364.83364,0,0,1-.62414-.744,1.03455,1.03455,0,0,1,1.05615-.96008c.384,0,3.26428,1.0321,3.26428,2.28015a1.1087,1.1087,0,0,1-1.008,1.12817A.87876.87876,0,0,1,313.92322,9.7688Z"/>
    <path d="M326.85791,2.13623c.96008.048,1.46411.552,1.46411,1.2721a7.60028,7.60028,0,0,1-.84009,2.44812c.192,0,.33606.024.45606.024a1.86459,1.86459,0,0,1,1.87219,1.89612c.024.96008.072,2.25623.072,3.4563,0,3.31238,0,3.9364-3.9364,3.9364-2.16016,0-3.50427-.048-3.57629-2.04016-.02393-.6001-.048-1.51221-.048-2.44824,0-.64807.024-1.29614.024-1.87219a.97162.97162,0,0,1-.64807.264,1.00717,1.00717,0,0,1-1.0321-.936,1.15151,1.15151,0,0,1,.24-.67212A19.85729,19.85729,0,0,0,324.04968.96008.92317.92317,0,0,1,325.00977.24a1.02208,1.02208,0,0,1,1.10412.91211,4.11265,4.11265,0,0,1-.28808.98413Zm-6.1925,18.09753a1.33648,1.33648,0,0,1,.312-.79211,6.56585,6.56585,0,0,0,1.1521-2.9762.8096.8096,0,0,1,.816-.84008.93657.93657,0,0,1,.96008.912c0,.69617-.552,4.63245-2.25623,4.63245A.94812.94812,0,0,1,320.66541,20.23376Zm4.63244-9.12084h-1.32019c0,2.16027.024,2.28027.67212,2.32824.14392,0,.36.02393.64807.02393Zm0-3.72034c-.21606,0-.40808.024-.55212.024-.744.048-.744.384-.744,2.16015h1.29614Zm-1.1521-1.51209a11.96419,11.96419,0,0,1,1.416-.048,7.82773,7.82773,0,0,0,.64807-1.72815c0-.144-.14392-.16809-.312-.16809s-.504.024-.864.024c-.144.312-.31213.64807-.4801.96008-.168.33606-.36.64807-.52808.98413Zm.33594,13.87317v-.64807c0-.96008-.048-2.04016-.096-2.54419v-.12a.69341.69341,0,0,1,.72-.76807.83569.83569,0,0,1,.81617.67212,19.95151,19.95151,0,0,1,.288,3.07226c0,.864-.552,1.176-.96008,1.176A.75146.75146,0,0,1,324.48169,19.75366Zm2.68823-.696a15.67741,15.67741,0,0,0-.64807-2.54419,1.02387,1.02387,0,0,1-.048-.264.67391.67391,0,0,1,.72009-.624.83185.83185,0,0,1,.744.45605,11.52441,11.52441,0,0,1,.86413,2.66419.97342.97342,0,0,1-.93615.96008A.67969.67969,0,0,1,327.16992,19.05762ZM328.13,9.57678c0-.52795-.02392-1.008-.02392-1.34411-.02405-.6-.192-.816-.74414-.816h-.552V9.57678Zm-1.32006,1.53614v2.35217c.288,0,.52807-.02393.64807-.02393.696-.048.696-.384.696-2.32824Zm2.71228,7.08068a12.286,12.286,0,0,0-.88819-1.84814.77494.77494,0,0,1-.14392-.43213.68053.68053,0,0,1,.744-.6.70561.70561,0,0,1,.552.21595,5.21831,5.21831,0,0,1,1.22412,2.28027.8998.8998,0,0,1-.84008.912A.66558.66558,0,0,1,329.52222,18.1936Zm1.5841-8.49682a.8644.8644,0,1,1,0-1.72815l4.03235.024V6.93652l-2.85632.024a.83137.83137,0,0,1-.88806-.84009.81882.81882,0,0,1,.88806-.84008l2.85632.024V4.27234l-3.52832.024a.85731.85731,0,0,1-.91211-.86414.86236.86236,0,0,1,.91211-.88806l3.52832.024V1.39209a1.02383,1.02383,0,0,1,1.08008-1.056,1.05121,1.05121,0,0,1,1.128,1.056V2.56824l3.9364-.024a.84355.84355,0,0,1,.91211.86414.84909.84909,0,0,1-.91211.88806l-3.9364-.024v1.0321l2.7843-.024a.81883.81883,0,0,1,.88807.84008.83138.83138,0,0,1-.88807.84009l-2.80822-.024V7.99268l4.60839-.024a.86408.86408,0,0,1,0,1.72815Zm2.25623,7.03271c0,1.44007.02392,2.88013.048,4.05628v.024a.9064.9064,0,0,1-.96008.91211.97126.97126,0,0,1-1.03211-.93615c0-1.17615-.024-2.54419-.024-3.91236,0-1.39209.024-2.80822.024-4.05627.024-1.32019.552-2.11218,2.16016-2.16028.79212-.02393,1.72815-.048,2.64026-.048.936,0,1.87219.024,2.66418.048,1.46412.0481,2.18421.79211,2.20826,2.04016,0,1.82422.02392,4.75244.072,6.09656v.048a2.656,2.656,0,0,1-3.00037,2.64026c-1.296,0-2.01611-.24-2.01611-1.176a.92961.92961,0,0,1,.88806-1.00818.59554.59554,0,0,1,.192.02405,4.35119,4.35119,0,0,0,.936.12c.98413,0,.98413-.672.98413-2.71216Zm1.89612-4.34448c-.432,0-.816.02405-1.128.02405-.7201.048-.76807.33606-.76807,2.61621h1.89612Zm3.86438,2.64026c-.024-.624-.024-1.24805-.0481-1.92017-.02392-.384-.168-.672-.744-.696-.312,0-.72009-.02405-1.10412-.02405v2.64026Z"/>
    <path d="M352.53784,10.46484a9.9371,9.9371,0,0,0-3.12024-1.60815.84724.84724,0,0,1-.624-.816,1.231,1.231,0,0,1,1.20007-1.176,8.492,8.492,0,0,1,3.86426,1.488,1.19059,1.19059,0,0,1,.52808,1.00818,1.32348,1.32348,0,0,1-1.176,1.368A1.04564,1.04564,0,0,1,352.53784,10.46484Zm-1.89612,10.56092a1.27168,1.27168,0,0,1-1.27209-1.224,1.1634,1.1634,0,0,1,.33594-.81616,21.86642,21.86642,0,0,0,3.60034-5.85645,1.04,1.04,0,0,1,.98413-.64807,1.14142,1.14142,0,0,1,1.176,1.1521c0,.744-1.84814,4.68042-3.69628,6.81653A1.48645,1.48645,0,0,1,350.64172,21.02576ZM353.522,5.42444a9.93305,9.93305,0,0,0-2.88025-2.20813.81854.81854,0,0,1-.504-.72009,1.287,1.287,0,0,1,1.296-1.1521c.62414,0,4.17639,1.80017,4.17639,3.14428a1.38024,1.38024,0,0,1-1.2721,1.34412A1.042,1.042,0,0,1,353.522,5.42444Zm2.52014,14.71326a1.05713,1.05713,0,1,1,0-2.11219l5.18445.024V4.99243l-3.86426.02393a1.02545,1.02545,0,0,1-1.08007-1.056,1.02544,1.02544,0,0,1,1.08007-1.056h10.72889a1.06,1.06,0,1,1,0,2.11206l-4.44031-.02393V18.04956l5.42444-.024a1.0601,1.0601,0,1,1,0,2.11219Z"/>
    <path d="M386.66675,14.08923a12.81637,12.81637,0,0,1-.048,1.32007,1.42722,1.42722,0,0,1-1.29614,1.46411,1.00194,1.00194,0,0,1-.984-1.128V15.5293a13.08046,13.08046,0,0,0,.096-1.60816c-.504.264-2.73621,1.44019-2.73621,2.95227,0,.40808.192,1.82422,2.64026,1.82422a11.15,11.15,0,0,0,3.02417-.504,1.94031,1.94031,0,0,1,.6001-.09607,1.15862,1.15862,0,0,1,1.248,1.12806c0,.50415-.192,1.72827-4.29639,1.72827-3.93628,0-5.37646-2.06421-5.37646-3.81641,0-2.92822,3.40832-4.75244,4.65649-5.40039-.28809-.93616-.76807-1.41614-1.41614-1.41614a2.36593,2.36593,0,0,0-1.24817.432c-1.008,1.12805-1.60815,1.46411-2.1361,1.46411a.95832.95832,0,0,1-1.03211-.91211,1.30939,1.30939,0,0,1,.552-.984,12.52514,12.52514,0,0,0,3.07227-3.64831,7.03478,7.03478,0,0,1-1.176.09594c-2.42431,0-2.44824-1.34411-2.44824-1.53613a1.02014,1.02014,0,0,1,.98413-1.056,1.52679,1.52679,0,0,1,.864.312,1.62766,1.62766,0,0,0,.88806.192,9.27574,9.27574,0,0,0,1.89611-.264,9.23406,9.23406,0,0,0,.43213-1.89612.943.943,0,0,1,1.00806-.84008,1.22462,1.22462,0,0,1,1.29614,1.056,4.57881,4.57881,0,0,1-.144.88806c.72009-.36.816-.384.98413-.384a1.045,1.045,0,0,1,1.032,1.05616c0,.792-.624,1.27209-3.12024,1.87207a25.81469,25.81469,0,0,1-1.368,2.40027,3.20847,3.20847,0,0,1,3.02417,2.25622,27.87862,27.87862,0,0,1,5.54456-1.94421,1.27758,1.27758,0,0,1,1.34411,1.24817.9917.9917,0,0,1-.64807.936c-.744.312-1.53613.40808-2.7843.79212-1.00806.312-2.04016.696-2.9762,1.08007A8.87641,8.87641,0,0,1,386.66675,14.08923Z"/>
    <path d="M403.41809,13.41711c-1.70422.64808-1.80017.67212-2.11218.67212a1.18212,1.18212,0,0,1-1.2002-1.17614,1.04764,1.04764,0,0,1,.81617-1.03211c.912-.288,1.72814-.52795,2.49621-.792V7.32056h-2.04016a.99916.99916,0,0,1-1.0321-1.056.99915.99915,0,0,1,1.0321-1.056h2.04016l-.024-3.69642a1.10085,1.10085,0,0,1,1.1521-1.128,1.06836,1.06836,0,0,1,1.12805,1.12805V5.2085h1.60816a1.00533,1.00533,0,0,1,1.05615,1.056,1.00533,1.00533,0,0,1-1.05615,1.056h-1.60816v2.88037c.40809-.19214.81617-.40808,1.24817-.62415a1.07653,1.07653,0,0,1,.45606-.12,1.00718,1.00718,0,0,1,.936,1.0321c0,.64807-.168.76807-2.66418,1.96814v2.37622c0,.384.072,2.56824.096,3.40833v.12a2.67588,2.67588,0,0,1-3.0243,2.88025c-1.1521,0-2.20813-.168-2.20813-1.29614a1.00994,1.00994,0,0,1,.936-1.10413.6635.6635,0,0,1,.21606.024,3.92183,3.92183,0,0,0,.86414.12c.504,0,.864-.216.88806-1.03211Zm17.13745,4.89649a1.02545,1.02545,0,0,1,1.08008,1.056,1.05721,1.05721,0,0,1-1.08008,1.08008c-1.65613.04809-4.17639.072-6.62463.072-2.18408,0-4.34436-.02393-5.80847-.072a1.07846,1.07846,0,0,1-1.10413-1.08008,1.04621,1.04621,0,0,1,1.10413-1.056Zm-5.88049-2.20825c-.86414,0-1.7522-.02393-2.49622-.048a2.56112,2.56112,0,0,1-2.7362-2.59228c-.0481-1.368-.072-2.8562-.072-4.39234,0-1.68017.02392-3.43225.072-5.01635.048-1.36817,1.104-2.2323,2.7362-2.3523.57605-.048,1.2721-.048,2.01612-.048.98413,0,2.01623.024,2.80822.048a2.71872,2.71872,0,0,1,2.71228,2.52027c.072,1.41613.09607,3.00024.09607,4.65637,0,1.51208-.024,3.04822-.09607,4.51245a2.684,2.684,0,0,1-2.64025,2.66418C416.42712,16.08142,415.56311,16.10535,414.67505,16.10535Zm2.88025-8.56873c0-1.0321-.024-1.99219-.072-2.83227-.048-.864-.16809-1.12806-2.9043-1.12806-2.40015,0-2.88025.168-2.90418,1.12806-.04809.86413-.072,1.82421-.09606,2.83227Zm-5.97656,1.96814c0,1.17615.048,2.3523.09606,3.4563.072,1.0321.432,1.12817,2.95215,1.12817.64807,0,1.29615-.024,1.72827-.072,1.20008-.144,1.20008-.192,1.20008-4.51245Z"/>
    <path d="M430.80249,20.44971a1.08275,1.08275,0,0,1,.69605-1.00806c4.41638-1.94409,5.85644-4.72839,5.85644-7.3446,0-.67212-.21594-4.15235-2.06409-4.15235a3.82442,3.82442,0,0,0-1.89624.744,5.31978,5.31978,0,0,1-2.52014,1.08008,1.318,1.318,0,0,1-1.41614-1.2721,1.32352,1.32352,0,0,1,1.296-1.27209,5.20938,5.20938,0,0,0,1.63221-.6001,7.432,7.432,0,0,1,3.04821-.76806c4.22437,0,4.32044,5.71252,4.32044,6.19262,0,6.4325-6.69666,9.67285-7.68067,9.67285A1.29562,1.29562,0,0,1,430.80249,20.44971ZM436.851,3.86426a11.01271,11.01271,0,0,1-4.65637-1.032,1.12949,1.12949,0,0,1-.64807-.98414A1.076,1.076,0,0,1,432.65063.792a1.77071,1.77071,0,0,1,.64808.14405,6.646,6.646,0,0,0,2.80822.52807c.288,0,.552,0,.84009-.02405h.096a1.10208,1.10208,0,0,1,1.22412,1.0802A1.32,1.32,0,0,1,436.851,3.86426Z"/>
    <path d="M467.66748,9.38477c-1.77612-.02393-3.55225-.048-5.30444-.048-3.02417,0-5.95252.048-8.56873.072a.93556.93556,0,0,0-1.056,1.00806c0,.33606.02393.79211.02393,1.29614,0,2.37622-.26392,6.21656-2.25611,8.7367a1.4532,1.4532,0,0,1-1.1521.60009,1.21891,1.21891,0,0,1-1.24817-1.12805,1.23656,1.23656,0,0,1,.36-.79211C450.218,17.25745,450.53,14.3772,450.53,12.145c0-.88806-.048-1.65613-.072-2.23218V9.81689a2.40945,2.40945,0,0,1,2.52026-2.35229c.91211,0,1.89612-.02393,2.88025-.02393a8.68229,8.68229,0,0,0-1.20007-1.56018.63559.63559,0,0,1-.192-.45605c0-.48.624-.91211,1.22412-.91211a.93383.93383,0,0,1,.552.16809c.264.168,1.8722,1.84814,1.8722,2.66418v.09607H460.179a12.48726,12.48726,0,0,0,1.176-2.32824.98828.98828,0,0,1,.96008-.64807,1.31362,1.31362,0,0,1,1.34412,1.12817,5.50663,5.50663,0,0,1-1.056,1.84814c1.7041,0,3.4082.02393,5.06433.02393a.96023.96023,0,1,1,.024,1.92017ZM451.61011,4.29639a.96253.96253,0,0,1-.984-1.00806.95665.95665,0,0,1,.984-.98413h6.21655V1.10413A1.12763,1.12763,0,0,1,459.05078,0,1.15016,1.15016,0,0,1,460.299,1.10413v.02392l-.024,1.17615h6.07251a.94291.94291,0,0,1,.96009,1.00806.93641.93641,0,0,1-.96009.98413Zm1.92016,16.5614a.94872.94872,0,1,1,0-1.89612l5.8086.02393V17.1615h-3.31238a.86684.86684,0,1,1,0-1.72815h3.31238V13.75317h-2.97632c-1.39209,1.99219-1.7041,2.23218-2.23218,2.23218a1.11194,1.11194,0,0,1-1.1521-.936.79321.79321,0,0,1,.264-.57605,13.62575,13.62575,0,0,0,2.68823-4.03235.86794.86794,0,0,1,.84009-.52808,1.10962,1.10962,0,0,1,1.1521.936.75966.75966,0,0,1-.09607.384c-.12.24011-.264.4801-.384.72009h1.89624V10.60889a1.01913,1.01913,0,0,1,1.056-1.056,1.04446,1.04446,0,0,1,1.10412,1.056V11.953l4.63233-.024a.92421.92421,0,1,1,0,1.84826l-4.63233-.024v1.68018h3.79236a.86408.86408,0,0,1,0,1.72815H461.499v1.8241l6.02454-.02393a.94814.94814,0,0,1,0,1.89612Z"/>
    <path d="M495.57971,15.33728l-6.04858-.12H488.811a27.5389,27.5389,0,0,0,7.75268,3.55236.96592.96592,0,0,1,.74414.936,1.33743,1.33743,0,0,1-1.27222,1.32007,25.894,25.894,0,0,1-8.30468-4.39234l.04809,4.1283v.024a1.01433,1.01433,0,0,1-1.12817.91211c-.576,0-1.128-.28809-1.128-.91211v-.024l.048-4.10425c-2.97632,2.40015-7.53662,4.46436-8.30469,4.46436a1.16013,1.16013,0,0,1-1.22412-1.08008c0-.384.264-.74414.84009-.96008a23.96285,23.96285,0,0,0,7.4646-3.86438h-.792l-5.83252.12h-.024a.84231.84231,0,0,1-.88806-.88806.88091.88091,0,0,1,.91211-.91211l7.84863.0481-.02405-1.05616-5.42444.02405a.80416.80416,0,1,1,0-1.60815l5.40052.024V9.93689l-6.62464.02393a.87676.87676,0,1,1,0-1.75208l4.20044.02393a6.26933,6.26933,0,0,0-.4801-.984.54289.54289,0,0,1-.12-.36011.73255.73255,0,0,1,.60009-.624l-5.49658.024A.96852.96852,0,0,1,476.594,5.2804a.94361.94361,0,0,1,.98413-.984h.02393l3.14429.048a9.44887,9.44887,0,0,0-1.248-1.53613.77774.77774,0,0,1-.21606-.504c0-.504.624-.96008,1.20019-.96008a.9109.9109,0,0,1,.552.144,7.55244,7.55244,0,0,1,1.9441,2.88025l.84008.02392-.02392-3.19226V1.176a.97445.97445,0,0,1,1.056-.984,1.01327,1.01327,0,0,1,1.08008,1.008V4.39233H487.323V1.20007A1.00054,1.00054,0,0,1,488.40308.192a.98859.98859,0,0,1,1.056.984v.024l-.048,3.19226.816-.02392a13.99221,13.99221,0,0,0,1.20008-2.40027,1.0517,1.0517,0,0,1,1.00817-.72009,1.214,1.214,0,0,1,1.248,1.08007c0,.072,0,.55213-1.1521,2.01624l3.26428-.048h.024a.9239.9239,0,0,1,.96009.984.94867.94867,0,0,1-.98414,1.00817l-5.78442-.024a.92851.92851,0,0,1,.6.79211,4.81036,4.81036,0,0,1-.432,1.176l4.17639-.02393a.87612.87612,0,1,1,0,1.75208l-6.57654-.02393V10.969l5.35242-.024a.80416.80416,0,1,1,0,1.60815l-5.37647-.02405-.024,1.05616,7.84875-.0481a.84755.84755,0,0,1,.88806.91211.823.823,0,0,1-.86413.88806Zm-11.473-9.07275a2.76566,2.76566,0,0,1,1.22412,1.89611l.02393.072H487.995a6.97331,6.97331,0,0,0,.504-1.56006.59193.59193,0,0,1,.24-.40808Z"/>
    <path d="M509.16272,10.15283a13.1761,13.1761,0,0,1-2.71228.45606,1.04466,1.04466,0,0,1-1.12805-1.08008,1.15755,1.15755,0,0,1,1.20007-1.20007,17.96365,17.96365,0,0,0,3.96045-.55213,10.17478,10.17478,0,0,0,1.176-3.67224,1.0166,1.0166,0,0,1,1.08007-.86414,1.20923,1.20923,0,0,1,1.29615,1.10413,8.20821,8.20821,0,0,1-.864,2.9043h.1919c2.73633,0,2.80835,2.95227,2.80835,4.05627,0,2.13623-.09607,8.13672-4.53638,8.13672-1.36816,0-3.14429-.624-3.14429-1.77612a1.22342,1.22342,0,0,1,1.75208-1.12818,3.22173,3.22173,0,0,0,1.34411.36011c1.56018,0,2.28028-1.68017,2.28028-5.88049,0-.98413-.14405-1.70423-.91211-1.70423a1.47777,1.47777,0,0,0-.432.0481c-.09607.02393-.24011.072-.384.096-1.80017,3.38427-4.32044,7.32068-5.85657,9.93689a1.42237,1.42237,0,0,1-1.248.696,1.11968,1.11968,0,0,1-1.22412-1.0321,1.46808,1.46808,0,0,1,.288-.84009c1.05615-1.60815,3.55236-5.11243,5.25647-8.11267Zm13.29712,3.31226a7.63037,7.63037,0,0,0-4.1283-3.81629.872.872,0,0,1-.64807-.816,1.12029,1.12029,0,0,1,1.1521-1.05615c1.22412,0,5.92847,2.97632,5.92847,5.18445a1.27912,1.27912,0,0,1-1.2721,1.27209A1.11859,1.11859,0,0,1,522.45984,13.46509Zm-.672-6.33643a8.12665,8.12665,0,0,0-2.01623-1.32019c-.432-.168-.6-.432-.6-.72009a.95746.95746,0,0,1,.984-.88806c.12,0,3.14429.86413,3.14429,2.13623a1.04943,1.04943,0,0,1-.936,1.056A.75694.75694,0,0,1,521.78784,7.12866Zm2.06421-2.20825a8.22329,8.22329,0,0,0-2.04028-1.22412.76455.76455,0,0,1-.624-.744.9768.9768,0,0,1,.98414-.91211,7.11339,7.11339,0,0,1,2.80822,1.2721,1.07757,1.07757,0,0,1-.57605,1.87219A.79848.79848,0,0,1,523.85205,4.92041Z"/>
    <path d="M550.20386,15.86536l-6.76856-.144A23.72846,23.72846,0,0,0,550.804,18.9856a.93207.93207,0,0,1,.72.93615,1.26468,1.26468,0,0,1-1.20008,1.2721,25.235,25.235,0,0,1-7.92065-4.12842l.048,3.84033v.024c0,.6-.552.91211-1.12805.91211-.55212,0-1.10413-.28809-1.10413-.91211v-.024l.048-3.74426a23.15056,23.15056,0,0,1-8.04065,4.20032,1.076,1.076,0,0,1-1.10413-1.056,1.0586,1.0586,0,0,1,.84009-1.00818,20.98975,20.98975,0,0,0,7.17664-3.5763l-6.55262.14405h-.02392a.92424.92424,0,0,1-.98413-.96009.98733.98733,0,0,1,1.00805-1.0321l7.65674.02405-.024-.69605a1.11361,1.11361,0,0,1,.09607-.50415c-1.5122,0-2.85632,0-3.79235-.02392-2.49622-.048-2.49622-1.68018-2.49622-2.76026,0-.936.024-2.16015.072-3.24023-.98413.984-1.36816,1.27209-1.82422,1.27209a1.10322,1.10322,0,0,1-1.08008-1.05615,1.009,1.009,0,0,1,.48011-.84009A15.4552,15.4552,0,0,0,536.1626.98413,1.06708,1.06708,0,0,1,537.07471.432a1.179,1.179,0,0,1,1.17614,1.08007.88346.88346,0,0,1-.21606.6001c-.21594.264-.432.52808-.624.79212.88806,0,1.99218-.024,3.19226-.024.28808-.504.64807-1.17615,1.00805-1.94421A.94956.94956,0,0,1,542.49927.408a1.14136,1.14136,0,0,1,1.20007.98413,4.12037,4.12037,0,0,1-.72009,1.48816c2.37622,0,4.72839.024,5.95251.048a.79626.79626,0,0,1,.7201.88806.8016.8016,0,0,1-.76807.88807h-.024c-1.22412-.02393-3.67224-.02393-6.12048-.02393V5.7605h4.84839a.66983.66983,0,0,1,.64807.744.66193.66193,0,0,1-.64807.72009h-4.84839V8.28076h4.84839a.66654.66654,0,0,1,.67212.72.67413.67413,0,0,1-.67212.74414h-4.84839V10.969c2.54419-.024,5.18445-.04809,6.55249-.072h.024a.80359.80359,0,0,1,.76806.88806.79561.79561,0,0,1-.76806.864c-1.48816,0-4.27234.048-6.98462.048a1.11609,1.11609,0,0,1,.12.50415l-.02392.69605,7.80066-.02405a.93015.93015,0,0,1,.984.98413.96245.96245,0,0,1-.984,1.00806Zm-9.57678-8.64075h-4.51246c0,.33606-.02392.696-.02392,1.05615h4.53638Zm0,2.52026H536.0907v.26392c0,.50415.264.91211,1.00805.93616.79212.024,2.08814.024,3.52833.024Zm0-5.06445c-1.51221,0-2.83228.02393-3.64832.02393a.71878.71878,0,0,0-.79211.76806l-.024.28809h4.46448Z"/>
    <path d="M559.13025,19.99365a.9976.9976,0,0,1-1.05615-.936,1.29765,1.29765,0,0,1,.21606-.672,11.47966,11.47966,0,0,0,1.41614-4.17639.91745.91745,0,0,1,.96008-.84009,1.05926,1.05926,0,0,1,1.10413,1.05615,13.55085,13.55085,0,0,1-1.58423,4.96839A1.26122,1.26122,0,0,1,559.13025,19.99365Zm3.16821.4801.072-8.44873c-1.368.192-2.90417.384-3.07226.384a.922.922,0,0,1-.88806-.98413.83045.83045,0,0,1,.76806-.88806c.312-.02393.69605-.048,1.12818-.072a17.96867,17.96867,0,0,0,1.44006-1.82409,20.00216,20.00216,0,0,0-2.71228-2.20825.944.944,0,0,1,.50415-1.75208,1.16723,1.16723,0,0,1,.528.144l.144.0719A16.37588,16.37588,0,0,0,562.03442.76807.92686.92686,0,0,1,562.99463.072a1.12405,1.12405,0,0,1,1.20007,1.00806c0,.79211-1.6322,3.76831-2.42419,4.94446.384.312.744.64807,1.08008.96008a27.53343,27.53343,0,0,0,1.82409-3.48035.90772.90772,0,0,1,.88806-.6,1.14689,1.14689,0,0,1,1.2002,1.056c0,.72009-2.06421,4.0083-3.81641,6.26452.88806-.09594,1.70423-.192,2.3042-.264-.09594-.168-.24-.312-.33594-.45606a.95745.95745,0,0,1-.21606-.576.88375.88375,0,0,1,.936-.792c1.0321,0,2.35229,2.49621,2.35229,3.38428a1.12732,1.12732,0,0,1-1.05615,1.176c-.57605,0-.72009-.33594-.98413-1.24805-.33594.072-.84009.168-1.44007.264l.048,8.76074a1.08069,1.08069,0,0,1-1.12805,1.12806,1.06226,1.06226,0,0,1-1.12818-1.104Zm3.69641-2.80822a9.58614,9.58614,0,0,0-.96008-3.00025,1.00791,1.00791,0,0,1-.144-.504.84479.84479,0,0,1,.91211-.79211,1.0546,1.0546,0,0,1,.864.432,8.24511,8.24511,0,0,1,1.44019,3.60034,1.18209,1.18209,0,0,1-1.17615,1.20007A.93087.93087,0,0,1,565.99487,17.66553Zm3.16822-6.76856a1.01372,1.01372,0,0,1-1.056-1.0321,1.00066,1.00066,0,0,1,1.056-1.03211h3.24023l-.02393-2.52026h-3.60034a.99322.99322,0,0,1-1.0321-1.0321.98076.98076,0,0,1,1.0321-1.03211h3.60034l-.024-2.59216a1.04968,1.04968,0,0,1,1.12817-1.056,1.0786,1.0786,0,0,1,1.176,1.056V4.24829h4.15234a1.049,1.049,0,0,1,1.12817,1.03211,1.03573,1.03573,0,0,1-1.12817,1.0321h-4.17627V8.83276h3.50427a1.049,1.049,0,0,1,1.128,1.03211,1.03576,1.03576,0,0,1-1.128,1.0321Zm6.72058,10.08081c-.672.048-1.46411.072-2.25623.072-4.39233,0-4.80041-.45605-4.80041-4.03234,0-.672,0-1.29615.04809-1.8722a2.33348,2.33348,0,0,1,2.4242-2.3042c.696-.048,1.488-.048,2.28015-.048.816,0,1.60815,0,2.28015.048a2.431,2.431,0,0,1,2.49634,2.20826c.048.76806.0719,1.53613.0719,2.28015,0,.40808,0,.816-.02393,1.20007A2.4287,2.4287,0,0,1,575.88367,20.97778Zm.28808-5.35241c-.024-.76807-.3601-.93616-2.44824-.93616-.624,0-1.22412.02405-1.72815.04809-1.00806.02393-1.00806.69605-1.00806,2.35218,0,1.87219.048,1.96814,2.71216,1.96814,2.49622,0,2.52027-.24,2.52027-2.08814C576.21973,16.51343,576.19568,16.05737,576.17175,15.62537Z"/>
    <path d="M590.54712,20.76172a1.6627,1.6627,0,0,1-1.65625-1.58411,1.73393,1.73393,0,0,1,1.65625-1.65613,1.549,1.549,0,0,1,1.65613,1.65613A1.59635,1.59635,0,0,1,590.54712,20.76172ZM589.515,14.66528v-.504c0-2.32824-.24011-7.92077-.384-11.68908v-.072a1.30148,1.30148,0,0,1,1.39209-1.32007,1.35766,1.35766,0,0,1,1.44006,1.39209c0,2.83227-.384,9.43286-.384,11.761,0,.57618,0,1.58423-1.056,1.58423a1.03171,1.03171,0,0,1-1.00806-1.12817Z"/>
    <path d="M7.68066,51.06531c0,1.7041.816,2.71228,1.96814,2.71228.14405,0,2.61621-.264,2.61621-2.42432,0-1.224-.84008-2.8562-3.16821-4.72839a1.51787,1.51787,0,0,1-.64807-1.08008,1.06393,1.06393,0,0,1,1.1521-.984,1.66317,1.66317,0,0,1,1.00806.384c2.8562,2.37622,4.03235,4.63233,4.03235,6.50452,0,2.83228-2.80823,4.6084-5.08851,4.6084-2.18408,0-4.0083-1.60816-4.0083-4.89636v-.0481c0-.6,0-1.22412.024-1.8241-1.89624-.52807-3.55237-1.0321-3.55237-2.7843a4.05168,4.05168,0,0,1,.86414-2.28015,1.15151,1.15151,0,0,0,.24-.67212c0-.57605-.86414-1.296-2.28015-1.82409A1.10458,1.10458,0,0,1,0,40.76843a1.06631,1.06631,0,0,1,1.1521-.98413c.76807,0,4.20032,1.48816,4.20032,3.52832a3.06845,3.06845,0,0,1-.88806,1.89612,1.55574,1.55574,0,0,0-.45606.93616c0,.36.312.52807.67212.624.312.072.64795.144.984.24.24011-5.08838.24011-5.97644.24011-6.60046,0-.98413-.024-1.65625-.024-2.54431A1.07505,1.07505,0,0,1,7.00854,36.712c1.24817,0,1.2721,1.12817,1.2721,1.72815,0,.86413-.12,1.68017-.168,2.7843-.09607,2.1842-.264,4.29638-.36,6.40857,1.39209.52795,2.01611.96008,2.01611,1.68005a1.21892,1.21892,0,0,1-1.128,1.24817,1.55125,1.55125,0,0,1-.96009-.40808Z"/>
    <path d="M37.60938,46.24084c0-2.66418-2.08814-4.94433-5.56849-4.94433h-.048a1.08475,1.08475,0,0,1,.672,1.00806v.12c0,2.52026-2.47217,6.88855-5.11243,9.48084a2.60358,2.60358,0,0,1-1.80017.816c-1.7041,0-3.24024-1.92017-3.24024-4.53638,0-4.34436,4.27234-8.76074,9.67286-8.76074,4.84839,0,7.87268,3.2163,7.87268,6.96057a7.35851,7.35851,0,0,1-.52808,2.71228c-2.11218,5.32837-8.64075,6.07251-8.97681,6.07251a1.26221,1.26221,0,0,1-1.36816-1.17615c0-.52795.40808-1.0321,1.32019-1.20007C34.87317,52.07336,37.60938,49.38513,37.60938,46.24084ZM30.67273,41.4165c-3.00024.6-6.00049,3.79224-6.00049,6.64856,0,1.80017,1.20007,2.01612,1.2721,2.01612a.63564.63564,0,0,0,.45605-.192c.72009-.64795,3.72034-4.20032,3.81628-7.44055A1.24132,1.24132,0,0,1,30.67273,41.4165Z"/>
    <path d="M54.00049,54.68958a1.34367,1.34367,0,0,1-1.44019-1.296,1.23864,1.23864,0,0,1,1.2002-1.17614c4.53638-.64807,9.81677-3.04822,9.81677-6.26453A3.27406,3.27406,0,0,0,60.073,42.92859a9.40573,9.40573,0,0,0-3.02429.64807c-2.28016.79211-5.1604,2.52026-7.60865,3.64832a1.73523,1.73523,0,0,1-.792.192A1.29721,1.29721,0,0,1,47.304,46.1449a1.33461,1.33461,0,0,1,.936-1.22412c2.3042-.91211,6.09656-2.8562,8.4967-3.52832a13.45222,13.45222,0,0,1,3.62439-.6,5.52625,5.52625,0,0,1,5.85645,5.2804c0,1.77612-1.08008,3.48034-3.19226,5.13647C60.04907,53.53748,54.64856,54.68958,54.00049,54.68958ZM64.20142,40.72046a8.2553,8.2553,0,0,0-1.94422-1.41614.757.757,0,0,1-.552-.72009.98141.98141,0,0,1,1.00806-.88806c.33606,0,3.04821,1.08008,3.04821,2.25622a1.09375,1.09375,0,0,1-.96008,1.08008A.75078.75078,0,0,1,64.20142,40.72046Zm2.18408-2.11218a8.6429,8.6429,0,0,0-1.96814-1.34412.80227.80227,0,0,1-.6-.72009.96448.96448,0,0,1,1.00806-.88806c.52808,0,3.09619,1.056,3.09619,2.16015a1.05155,1.05155,0,0,1-.96,1.05615A.75691.75691,0,0,1,66.3855,38.60828Z"/>
    <path d="M82.56128,56.51379a1.20235,1.20235,0,0,1-1.12817-.79211A33.78482,33.78482,0,0,0,76.60864,48.161a4.30578,4.30578,0,0,1-1.128-2.52014,3.65736,3.65736,0,0,1,.93616-2.23218A57.4308,57.4308,0,0,0,80.905,37.09607a1.1367,1.1367,0,0,1,1.00818-.624,1.53846,1.53846,0,0,1,1.51208,1.41613,1.31048,1.31048,0,0,1-.21606.696c-.96008,1.53613-3.64832,4.53638-4.92041,6.07251a1.37188,1.37188,0,0,0-.384.88806,2.06939,2.06939,0,0,0,.576,1.22412c2.44825,3.16834,4.34437,4.96838,5.44849,7.70471a1.90124,1.90124,0,0,1,.12.6A1.50089,1.50089,0,0,1,82.56128,56.51379Z"/>
    <path d="M95.665,56.65784a1.18883,1.18883,0,0,1-1.22412-1.17615,1.27786,1.27786,0,0,1,.88806-1.1521c4.92041-2.01611,6.28857-5.59253,6.28857-9.00073a15.80689,15.80689,0,0,0-.40808-3.43238c-.24-1.128-.76806-1.5841-1.34411-1.5841a2.56458,2.56458,0,0,0-1.77613,1.1521c-1.0321,1.34411-1.27209,2.97619-1.32006,5.11242-.048,1.29615-.67212,1.8722-1.2721,1.8722-1.20019,0-1.20019-1.58411-1.20019-1.92017a20.62188,20.62188,0,0,1,.96008-5.16052c.36011-1.224.96008-2.9762,1.24817-4.44031a.97241.97241,0,0,1,1.00805-.84009,1.3438,1.3438,0,0,1,1.36817,1.24817c0,.0719-.02405.14392-.02405.21594a4.16443,4.16443,0,0,1-.744,1.68018c-.16809.264-.192.36-.16809.36.0481,0,.192-.144.36011-.312a3.17975,3.17975,0,0,1,2.16015-1.0321c2.88025,0,3.60035,4.80041,3.60035,7.29663,0,4.00842-1.7522,8.37671-7.65674,10.94495A1.7525,1.7525,0,0,1,95.665,56.65784Z"/>
    <path d="M128.09009,46.24084c0-2.66418-2.08814-4.94433-5.56848-4.94433h-.048a1.08473,1.08473,0,0,1,.672,1.00806v.12c0,2.52026-2.47217,6.88855-5.11243,9.48084a2.60357,2.60357,0,0,1-1.80017.816c-1.7041,0-3.24023-1.92017-3.24023-4.53638,0-4.34436,4.27234-8.76074,9.67285-8.76074,4.84839,0,7.87268,3.2163,7.87268,6.96057a7.35851,7.35851,0,0,1-.52808,2.71228c-2.11218,5.32837-8.64074,6.07251-8.9768,6.07251a1.26222,1.26222,0,0,1-1.36817-1.17615c0-.52795.40808-1.0321,1.32019-1.20007C125.35388,52.07336,128.09009,49.38513,128.09009,46.24084Zm-6.93665-4.82434c-3.00024.6-6.00049,3.79224-6.00049,6.64856,0,1.80017,1.20008,2.01612,1.2721,2.01612a.63564.63564,0,0,0,.45605-.192c.7201-.64795,3.72034-4.20032,3.81629-7.44055A1.24132,1.24132,0,0,1,121.15344,41.4165Z"/>
    <path d="M137.90454,56.48975a1.13936,1.13936,0,0,1-1.17615-1.03211,1.12188,1.12188,0,0,1,.384-.792,9.16328,9.16328,0,0,0,2.68823-6.3606.87348.87348,0,0,1,.96008-.816.95914.95914,0,0,1,1.05615.88807,12.34127,12.34127,0,0,1-2.95227,7.68066A1.26734,1.26734,0,0,1,137.90454,56.48975Zm15.72131-4.27234a.98624.98624,0,0,1-1.08007.936,1.0127,1.0127,0,0,1-1.10413-.96008v-.02393l.0481-5.5205a9.46,9.46,0,0,1-2.66431,3.38427,5.027,5.027,0,0,1,1.00818,1.94422.86317.86317,0,0,1-.86414.792.65358.65358,0,0,1-.64807-.48l-.048-.09607a16.455,16.455,0,0,1-3.24024.62414.952.952,0,0,1-.4801-.09606v.28808a.969.969,0,0,0,.93616,1.00806c1.20007.09595,2.97619.144,4.72839.144,1.77612,0,3.55225-.04809,4.77637-.16809a1.37474,1.37474,0,0,0,1.44006-1.53613.96388.96388,0,0,1,1.0802-.96009,1.20666,1.20666,0,0,1,1.34412,1.17615c0,3.55225-3.36035,3.5763-8.42481,3.5763-2.11218,0-4.22436-.072-5.25647-.144-1.80017-.12-2.68823-1.0321-2.71215-2.71216,0-.50415-.024-.96008-.024-1.39221,0-1.84814.072-3.21618.12-4.75232-4.36828,0-4.41638-.33606-4.41638-3.98437,0-1.12818.024-2.32825.0481-3.09632.048-2.04016,2.13611-2.04016,2.88012-2.04016a13.44112,13.44112,0,0,0,.33606-1.77612.88011.88011,0,0,1,.96009-.74414,1.07732,1.07732,0,0,1,1.1521,1.00818,5.65543,5.65543,0,0,1-.384,1.48816c1.77613,0,3.72034.048,3.79236,1.99206.02405.96009.072,2.16028.072,3.28833,0,.64807-.024,1.24817-.048,1.7522-.072,1.104-.72009,1.89612-2.28027,2.04016,0,1.53613-.096,2.76026-.12,4.27234l.21607-.072a23.84427,23.84427,0,0,0,.912-3.12024.70164.70164,0,0,1,.74414-.552.78165.78165,0,0,1,.84009.72,18.71271,18.71271,0,0,1-.93616,2.7843c.48011-.072.96009-.16809,1.41614-.24011-.12-.21594-.264-.384-.33594-.504a.63947.63947,0,0,1-.12011-.312.61127.61127,0,0,1,.33606-.48.81168.81168,0,0,1-.144-.4801.99348.99348,0,0,1,.33606-.696,14.87,14.87,0,0,0,3.19226-4.22436l-2.68823.072h-.02392a.88725.88725,0,0,1-.93616-.91211.92621.92621,0,0,1,.93616-.96009h.02392l3.21631.02405-.02405-1.99219-2.42419.02405h-.02393a.893.893,0,0,1-.93616-.93615.91176.91176,0,0,1,.93616-.96009h.02393l2.37622.02405-.024-1.92017v-.024a1.09384,1.09384,0,0,1,2.1842,0v.024s-.02392.744-.048,1.92017l2.73621-.02405h.024a.90633.90633,0,0,1,.91211.96009.88568.88568,0,0,1-.91211.93615h-.024l-2.76013-.02405c0,.624-.024,1.29615-.024,1.99219l3.84033-.02405a.91173.91173,0,0,1,.936.96009.867.867,0,0,1-.912.91211h-.02405l-3.36035-.072a18.09935,18.09935,0,0,0,4.20044,4.70446,1.1124,1.1124,0,0,1,.48.864,1.21021,1.21021,0,0,1-1.22412,1.10412,1.11061,1.11061,0,0,1-.792-.33606,22.6264,22.6264,0,0,1-3.12023-4.10437c.02392,2.88025.07189,5.68848.07189,5.68848Zm-12.001-12.50513c-.24,0-.4801.02405-.64807.02405-.744.024-.88806.312-.88806,2.04016h1.53613Zm0,3.60034h-1.53613c0,2.08826.048,2.16016.76806,2.20825.168,0,.432.02393.76807.02393Zm3.3363-1.53613c0-.45606-.02405-.88806-.02405-1.22412-.024-.6-.24-.816-.88806-.816h-.624v2.04016Zm-1.53613,1.53613V45.5448c.33594,0,.6-.02393.744-.02393.79211-.04809.816-.21606.816-2.20825Z"/>
    <path d="M181.12988,40.50439a2.88606,2.88606,0,0,1,3.19226,2.97632c.02405.624.072,1.46411.072,2.40015,0,5.78455-1.08008,10.48889-6.52857,10.48889a10.76839,10.76839,0,0,1-2.7843-.384,1.2401,1.2401,0,0,1-.936-1.22412,1.12813,1.12813,0,0,1,1.12806-1.20008,1.25982,1.25982,0,0,1,.40808.048,8.03838,8.03838,0,0,0,2.16015.33606c1.77613,0,4.10437-.7201,4.10437-7.96875,0-2.56812-.048-3.28821-1.20007-3.28821-.432-.02405-1.08008-.02405-1.84814-.02405s-1.65613,0-2.59229.02405c-.64807,5.92847-2.80823,11.30493-9.1687,13.92114a1.65018,1.65018,0,0,1-.57617.12,1.30047,1.30047,0,0,1-1.24805-1.32007,1.17342,1.17342,0,0,1,.79211-1.10413c5.42444-2.1842,7.20057-6.60046,7.72864-11.59289-3.24023.02392-6.28857.0719-6.28857.0719h-.02393a1.10474,1.10474,0,0,1,.02393-2.20813s3.12024-.024,6.43261-.048c.048-1.17615.048-2.40027.048-3.60034v-.02405a1.20477,1.20477,0,0,1,1.29614-1.176,1.13372,1.13372,0,0,1,1.224,1.12805c0,1.22412,0,2.42419-.0719,3.64831Z"/>
    <path d="M194.54492,54.61768a15.438,15.438,0,0,1-.624-4.58448c0-4.22436,1.22412-8.35266,1.34411-10.00879a1.17947,1.17947,0,0,1,2.35218-.09607.59551.59551,0,0,1-.024.192c-.33594,1.7522-1.56006,6.19251-1.56006,8.56873,0,.88806.168.98413.24.98413.048,0,.12-.048.168-.16809.74414-1.416.91211-1.7041,1.41614-1.7041a1.04347,1.04347,0,0,1,.98413,1.00805.74126.74126,0,0,1-.12.43213,12.45606,12.45606,0,0,0-1.80017,4.51233c0,.21606.02393.432.02393.64807a1.12787,1.12787,0,0,1-1.20007,1.248A1.28274,1.28274,0,0,1,194.54492,54.61768Zm13.34522-.144c-4.15247,0-7.32068-2.47229-7.32068-3.64831a1.203,1.203,0,0,1,1.248-1.12818,1.41165,1.41165,0,0,1,1.08021.52808,6.12041,6.12041,0,0,0,4.65637,1.60815,14.82752,14.82752,0,0,0,2.04016-.144,1.172,1.172,0,0,1,.288-.02392,1.10776,1.10776,0,0,1,1.2002,1.15209C211.0824,54.06555,210.02625,54.47363,207.89014,54.47363Zm-2.71228-10.537a13.55019,13.55019,0,0,1-3.24036-.36,1.1063,1.1063,0,0,1,.09607-2.20825.89819.89819,0,0,1,.24.02405,11.27806,11.27806,0,0,0,2.32825.24,22.9739,22.9739,0,0,0,2.95227-.24c.072,0,.14392-.02405.21594-.02405a1.10224,1.10224,0,0,1,1.1521,1.12817C208.92212,43.45667,208.25012,43.93665,205.17786,43.93665Z"/>
    <path d="M225.43359,50.87329h-4.80041a15.98846,15.98846,0,0,1-1.39209,5.11243,1.12172,1.12172,0,0,1-1.03211.696,1.03883,1.03883,0,0,1-1.08007-.96008.94548.94548,0,0,1,.12-.48,19.412,19.412,0,0,0,1.68006-8.95276c0-.79211-.02393-1.58423-.048-2.37622a1.09035,1.09035,0,0,1-.864.432,1.04279,1.04279,0,0,1-1.10413-.936,1.19723,1.19723,0,0,1,.264-.64807,19.59345,19.59345,0,0,0,3.19226-6.62463,1.00949,1.00949,0,0,1,1.05615-.76807,1.03066,1.03066,0,0,1,1.12805.91211,3.45579,3.45579,0,0,1-.24.936h1.41614c1.56006,0,2.11206.57605,2.11206,1.27222,0,.312-.0719.696-1.00805,2.54419.16809,0,.312.02393.45605.02393,1.48816.04809,2.08814.74414,2.11218,2.08825v2.80823c0,4.70435,0,5.6405.072,7.68066v.09595c0,1.44019-.9121,2.80835-3.2163,2.80835-1.1521,0-2.20813-.09607-2.20813-1.20019a1.02431,1.02431,0,0,1,.91211-1.104.6663.6663,0,0,1,.21594.02393,6.41428,6.41428,0,0,0,1.12805.168c.64807,0,1.12817-.288,1.12817-1.344Zm-2.01623-11.521c0-.312-.312-.33605-.76807-.33605-.36,0-.816,0-1.12805.024-.816,1.63208-.864,1.7522-1.05615,2.06421a4.29436,4.29436,0,0,1,.57617-.04809c.408,0,1.00806-.02393,1.65613-.02393A7.1663,7.1663,0,0,0,223.41736,39.35229Zm-1.20007,7.39258h-1.34412c0,.76807-.024,1.58423-.072,2.37622h1.41614Zm0-3.93628h-.576c-.624,0-.76807.312-.76807.76807v1.48816h1.34412Zm3.2163,2.25623c0-1.7522,0-2.25623-.816-2.28027h-.67212v2.28027Zm.02393,4.05627c0-.76806-.02393-1.5841-.02393-2.37622h-1.48816v2.37622Zm6.48059.67212c-2.32812,0-3.38428-.384-3.48022-2.16015-.024-.52808-.0481-1.22412-.0481-1.99219,0-1.17615.02405-2.44824.0481-3.21631.0719-2.3042,1.87207-2.3042,3.45629-2.3042V36.9281a1.11669,1.11669,0,0,1,2.23218,0v3.19226c.64807,0,1.22412.02405,1.48816.048a2.10725,2.10725,0,0,1,2.13611,1.92017c.024.84009.048,1.96814.048,3.04834,0,.912-.02392,1.75208-.048,2.3761-.12,2.1842-2.11218,2.28027-3.64832,2.28027v3.48023c.552-.12,1.08008-.26392,1.53614-.384-.624-.96-.624-.984-.624-1.248a.91188.91188,0,0,1,.96009-.84009,1.13184,1.13184,0,0,1,.76806.312c.64807.6001,2.16016,3.07227,2.16016,3.96033a1.17464,1.17464,0,0,1-1.12805,1.20019,1.03481,1.03481,0,0,1-.98413-.84008c-.072-.264-.21607-.57605-.33606-.88807a37.74026,37.74026,0,0,1-7.63257,1.72815,1.03958,1.03958,0,0,1-1.12817-1.05615,1.06951,1.06951,0,0,1,1.00817-1.08008c1.056-.09607,2.16016-.24,3.21619-.432Zm.048-7.70471c-.384,0-.72.024-.88806.024-.72.048-.72.192-.72,2.9043,0,.864,0,1.7041.02393,2.16015.048.624.432.624,1.5841.624Zm2.08826,5.71253c1.29614,0,1.63208,0,1.68018-.744.02392-.43213.048-1.00818.048-1.63221,0-.936-.02405-1.96813-.048-2.64025-.02405-.696-.264-.696-1.68018-.696Z"/>
    <path d="M246.62524,51.83337c.02405-.048.168-.192.36-.4801.264-.384.45605-.744.69617-1.1521a23.05634,23.05634,0,0,1,1.82409-2.59216c.312-.552.576-1.08008.79212-1.56018l.072-.672a9.18236,9.18236,0,0,0-2.13623,1.056,1.5221,1.5221,0,0,1-.86414.33606.97725.97725,0,0,1-.912-1.056c0-.79211.192-1.05615,4.17626-2.7843.192-1.96814.33606-3.69629.33606-4.75244a1.04466,1.04466,0,0,1,1.08008-1.12805,1.1513,1.1513,0,0,1,1.20008,1.10412c0,.72009-.288,3.12024-.432,4.34436a.98084.98084,0,0,1,.55212.96009c1.77613-1.65613,3.62427-3.07227,5.42444-3.07227a2.56658,2.56658,0,0,1,2.56824,2.8562,3.37488,3.37488,0,0,1-.024.4801c-.168,1.56006-.864,4.10437-1.12805,6.3125a5.36162,5.36162,0,0,0-.072.816c0,.74414.264,1.05616,1.128,1.05616a7.09983,7.09983,0,0,0,2.66431-.76807,1.76712,1.76712,0,0,1,.64807-.144,1.06573,1.06573,0,0,1,1.056,1.128,1.38129,1.38129,0,0,1-.88806,1.29614,8.84864,8.84864,0,0,1-3.43238.74414c-1.84814,0-3.4563-.6001-3.4563-3.02429a5.81211,5.81211,0,0,1,.09607-1.08008c.33606-2.1842.98413-4.70447,1.08008-6.26453v-.264c0-.79212-.288-1.08008-.72009-1.08008-1.2721,0-4.05628,2.64014-6.00049,5.0404-.09595,1.2721-.168,2.56824-.168,3.79236a20.98027,20.98027,0,0,0,.24,3.38428.98235.98235,0,0,1,.024.264,1.2436,1.2436,0,0,1-1.27209,1.248c-1.27222,0-1.29615-1.41613-1.29615-3.14428,0-.84009.02393-1.75208.09595-2.73621-.52808.86414-1.0321,1.87219-1.46411,2.71228a1.99771,1.99771,0,0,1-1.68018,1.248.88969.88969,0,0,1-.96008-.88806,2.50313,2.50313,0,0,1,.72009-1.39209Z"/>
    <path d="M275.25732,56.3457a9.16195,9.16195,0,0,0-2.95227-2.52014,1.0796,1.0796,0,0,1-.64807-.96008,1.06816,1.06816,0,0,1,1.12818-1.05615c.84,0,4.68029,2.11218,4.68029,3.74438a1.32663,1.32663,0,0,1-1.296,1.32007A1.09229,1.09229,0,0,1,275.25732,56.3457Z"/>
    <path d="M293.01746,37.33618c.96008.048,1.46411.552,1.46411,1.2721a7.60028,7.60028,0,0,1-.84009,2.44812c.192,0,.33606.024.45605.024a1.86459,1.86459,0,0,1,1.8722,1.89612c.024.96009.072,2.25623.072,3.4563,0,3.31238,0,3.9364-3.9364,3.9364-2.16016,0-3.50428-.048-3.5763-2.04016-.02392-.6001-.048-1.51221-.048-2.44824,0-.64807.024-1.29614.024-1.87219a.97163.97163,0,0,1-.64807.264,1.00718,1.00718,0,0,1-1.03211-.936,1.15154,1.15154,0,0,1,.24-.67212A19.85722,19.85722,0,0,0,290.20923,36.16a.92316.92316,0,0,1,.96008-.72009,1.02208,1.02208,0,0,1,1.10413.91211,4.11257,4.11257,0,0,1-.28809.98413ZM286.825,55.43372a1.33654,1.33654,0,0,1,.312-.79212,6.56426,6.56426,0,0,0,1.1521-2.97619.80962.80962,0,0,1,.816-.84009.93657.93657,0,0,1,.96009.912c0,.69617-.552,4.63245-2.25611,4.63245A.94816.94816,0,0,1,286.825,55.43372Zm4.63233-9.12085h-1.32007c0,2.16027.024,2.28027.67212,2.32824.14392,0,.36.02393.648.02393Zm0-3.72034c-.216,0-.408.02405-.552.02405-.744.048-.744.384-.744,2.16015h1.296Zm-1.1521-1.51209a11.96724,11.96724,0,0,1,1.41613-.048,7.82773,7.82773,0,0,0,.64807-1.72815c0-.144-.144-.16809-.312-.16809s-.504.02405-.864.02405c-.144.312-.312.64807-.4801.96008-.168.33606-.36.64807-.52808.98413Zm.33606,13.87317v-.64807c0-.96008-.048-2.04016-.09595-2.54419v-.12a.6935.6935,0,0,1,.72009-.76807.83565.83565,0,0,1,.816.67212,19.96647,19.96647,0,0,1,.288,3.07227c0,.864-.552,1.176-.96008,1.176A.75146.75146,0,0,1,290.64124,54.95361Zm2.68823-.696a15.665,15.665,0,0,0-.64807-2.54419,1.02389,1.02389,0,0,1-.048-.264.67385.67385,0,0,1,.7201-.624.83183.83183,0,0,1,.744.45605,11.52411,11.52411,0,0,1,.86414,2.66419.97343.97343,0,0,1-.93616.96008A.67968.67968,0,0,1,293.32947,54.25757Zm.96008-9.48084c0-.528-.02393-1.008-.02393-1.34411-.024-.6-.192-.816-.74414-.816h-.552v2.16015Zm-1.32007,1.53614V48.665c.288,0,.52808-.02393.64807-.02393.69605-.048.69605-.384.69605-2.32824Zm2.71216,7.08068a12.27509,12.27509,0,0,0-.88806-1.84814.77486.77486,0,0,1-.14392-.43213.68052.68052,0,0,1,.744-.6.70561.70561,0,0,1,.552.21594,5.21709,5.21709,0,0,1,1.22412,2.28027.8998.8998,0,0,1-.84009.912A.6657.6657,0,0,1,295.68164,53.39355Zm1.58423-8.49682a.8644.8644,0,1,1,0-1.72815l4.03235.02405V42.13647l-2.85633.024a.83137.83137,0,0,1-.88806-.84009.81882.81882,0,0,1,.88806-.84008l2.85633.024v-1.0321l-3.52832.024a.87681.87681,0,1,1,0-1.7522l3.52832.024V36.592a1.02383,1.02383,0,0,1,1.08008-1.056,1.05122,1.05122,0,0,1,1.128,1.056v1.17615l3.9364-.024a.87681.87681,0,1,1,0,1.7522l-3.9364-.024v1.0321l2.7843-.024a.81882.81882,0,0,1,.88806.84008.83137.83137,0,0,1-.88806.84009l-2.80823-.024v1.05616l4.6084-.02405a.86408.86408,0,0,1,0,1.72815Zm2.2561,7.03271c0,1.44007.024,2.88013.0481,4.05628v.02405a.90641.90641,0,0,1-.96008.91211.9712.9712,0,0,1-1.03211-.93616c0-1.17615-.024-2.54419-.024-3.91236,0-1.39209.024-2.80822.024-4.05627.02393-1.32019.552-2.11218,2.16016-2.16028.79211-.02392,1.72815-.048,2.64026-.048.936,0,1.87219.02405,2.66418.048,1.46411.0481,2.1842.79212,2.20825,2.04016,0,1.82422.02393,4.75244.072,6.09656v.048a2.656,2.656,0,0,1-3.00024,2.64026c-1.29614,0-2.01624-.24-2.01624-1.176a.92961.92961,0,0,1,.88807-1.00818.59548.59548,0,0,1,.192.02405,4.35132,4.35132,0,0,0,.93616.12c.984,0,.984-.672.984-2.71216Zm1.89624-4.34448c-.432,0-.816.024-1.12817.024-.72.048-.76807.33606-.76807,2.61621h1.89624Zm3.86426,2.64026c-.02393-.624-.02393-1.248-.048-1.92017-.02393-.384-.168-.672-.744-.696-.312,0-.72009-.024-1.10413-.024v2.64026Z"/>
    <path d="M318.69739,45.66479a9.93721,9.93721,0,0,0-3.12024-1.60815.84724.84724,0,0,1-.624-.816,1.231,1.231,0,0,1,1.20008-1.176,8.49278,8.49278,0,0,1,3.86438,1.488,1.19045,1.19045,0,0,1,.52795,1.00818,1.32337,1.32337,0,0,1-1.176,1.368A1.04562,1.04562,0,0,1,318.69739,45.66479Zm-1.89612,10.56092a1.27168,1.27168,0,0,1-1.2721-1.224,1.1634,1.1634,0,0,1,.33594-.81616,21.86642,21.86642,0,0,0,3.60034-5.85645,1.04,1.04,0,0,1,.98413-.64807,1.14142,1.14142,0,0,1,1.176,1.1521c0,.744-1.84814,4.68042-3.69629,6.81653A1.48643,1.48643,0,0,1,316.80127,56.22571Zm2.88025-15.60132a9.93318,9.93318,0,0,0-2.88025-2.20813.81852.81852,0,0,1-.504-.72009,1.287,1.287,0,0,1,1.296-1.1521c.62415,0,4.17639,1.80017,4.17639,3.14428a1.38023,1.38023,0,0,1-1.27209,1.34412A1.04181,1.04181,0,0,1,319.68152,40.62439Zm2.52014,14.71326a1.05713,1.05713,0,1,1,0-2.11219l5.18445.02405V40.19238l-3.86426.02393a1.0563,1.0563,0,1,1,0-2.11206h10.72888a1.06,1.06,0,1,1,0,2.11206l-4.44043-.02393V53.24951l5.42456-.02405a1.0601,1.0601,0,1,1,0,2.11219Z"/>
    <path d="M358.49084,46.24084c0-2.66418-2.08825-4.94433-5.56848-4.94433h-.048a1.08475,1.08475,0,0,1,.672,1.00806v.12c0,2.52026-2.47217,6.88855-5.11243,9.48084a2.60358,2.60358,0,0,1-1.80017.816c-1.7041,0-3.24024-1.92017-3.24024-4.53638,0-4.34436,4.27234-8.76074,9.67286-8.76074,4.84838,0,7.87268,3.2163,7.87268,6.96057a7.35851,7.35851,0,0,1-.52808,2.71228c-2.11218,5.32837-8.64075,6.07251-8.97681,6.07251a1.2621,1.2621,0,0,1-1.368-1.17615c0-.52795.408-1.0321,1.32007-1.20007C355.75464,52.07336,358.49084,49.38513,358.49084,46.24084ZM351.5542,41.4165c-3.00024.6-6.00049,3.79224-6.00049,6.64856,0,1.80017,1.20007,2.01612,1.2721,2.01612a.63564.63564,0,0,0,.45605-.192c.72009-.64795,3.72034-4.20032,3.81628-7.44055A1.24132,1.24132,0,0,1,351.5542,41.4165Z"/>
    <path d="M376.65857,55.43372c-4.96851,0-7.63269-2.3042-7.63269-3.67237a1.29731,1.29731,0,0,1,1.24805-1.29614,1.43624,1.43624,0,0,1,1.0802.6001,5.65043,5.65043,0,0,0,4.5603,1.82409,16.64054,16.64054,0,0,0,4.08044-.6,2.32824,2.32824,0,0,1,.552-.072,1.20417,1.20417,0,0,1,1.29614,1.22412,1.61617,1.61617,0,0,1-1.34412,1.51208A15.44417,15.44417,0,0,1,376.65857,55.43372Zm1.75207-12.48108a15.26749,15.26749,0,0,1-6.50451-1.53614,1.34924,1.34924,0,0,1-.79212-1.22412,1.05123,1.05123,0,0,1,1.08008-1.10412,2.0032,2.0032,0,0,1,.69617.144,15.66852,15.66852,0,0,0,5.78442,1.248,1.231,1.231,0,0,1,1.24817,1.22412C379.92285,42.32861,379.44275,42.95264,378.41064,42.95264Z"/>
    <path d="M390.62573,51.83337c.02405-.048.168-.192.36-.4801.264-.384.45605-.744.69616-1.1521A23.05645,23.05645,0,0,1,393.506,47.609c.312-.552.576-1.08008.79212-1.56018l.072-.672a9.18236,9.18236,0,0,0-2.13623,1.056,1.52212,1.52212,0,0,1-.86414.33606.97726.97726,0,0,1-.912-1.056c0-.79211.192-1.05615,4.17627-2.7843.192-1.96814.33606-3.69629.33606-4.75244a1.04466,1.04466,0,0,1,1.08008-1.12805,1.15129,1.15129,0,0,1,1.20007,1.10412c0,.72009-.288,3.12024-.432,4.34436a.98086.98086,0,0,1,.55212.96009c1.77612-1.65613,3.62427-3.07227,5.42444-3.07227a2.56658,2.56658,0,0,1,2.56824,2.8562,3.37488,3.37488,0,0,1-.024.4801c-.168,1.56006-.864,4.10437-1.12805,6.3125a5.36162,5.36162,0,0,0-.072.816c0,.74414.264,1.05616,1.12805,1.05616a7.09985,7.09985,0,0,0,2.6643-.76807,1.76717,1.76717,0,0,1,.64808-.144,1.06573,1.06573,0,0,1,1.056,1.128,1.38129,1.38129,0,0,1-.88807,1.29614,8.84859,8.84859,0,0,1-3.43237.74414c-1.84814,0-3.4563-.6001-3.4563-3.02429a5.81211,5.81211,0,0,1,.09607-1.08008c.33606-2.1842.98413-4.70447,1.08008-6.26453v-.264c0-.79212-.288-1.08008-.72009-1.08008-1.2721,0-4.05628,2.64014-6.00049,5.0404-.096,1.2721-.168,2.56824-.168,3.79236a20.98027,20.98027,0,0,0,.24,3.38428.98235.98235,0,0,1,.024.264,1.2436,1.2436,0,0,1-1.2721,1.248c-1.27221,0-1.29614-1.41613-1.29614-3.14428,0-.84009.02393-1.75208.096-2.73621-.52808.86414-1.03211,1.87219-1.46411,2.71228a1.99771,1.99771,0,0,1-1.68018,1.248.88969.88969,0,0,1-.96008-.88806,2.50306,2.50306,0,0,1,.72009-1.39209Z"/>
    <path d="M421.202,45.35278a13.17667,13.17667,0,0,1-2.71216.45606,1.04477,1.04477,0,0,1-1.12818-1.08008,1.15756,1.15756,0,0,1,1.20008-1.20007,17.96365,17.96365,0,0,0,3.96045-.55213,10.17478,10.17478,0,0,0,1.176-3.67224,1.01661,1.01661,0,0,1,1.08008-.86413,1.20914,1.20914,0,0,1,1.29614,1.10412,8.208,8.208,0,0,1-.864,2.9043h.192c2.7362,0,2.80822,2.95227,2.80822,4.05627,0,2.13623-.09607,8.13672-4.53637,8.13672-1.36817,0-3.14429-.624-3.14429-1.77612a1.22341,1.22341,0,0,1,1.75207-1.12818,3.22177,3.22177,0,0,0,1.34412.36011c1.56018,0,2.28027-1.68017,2.28027-5.88049,0-.98413-.144-1.70422-.91211-1.70422a1.478,1.478,0,0,0-.432.04809c-.09607.02393-.24011.072-.384.096-1.80017,3.38428-4.32043,7.32068-5.85656,9.93689a1.42238,1.42238,0,0,1-1.248.696,1.11975,1.11975,0,0,1-1.22412-1.0321,1.46813,1.46813,0,0,1,.288-.84009c1.05616-1.60815,3.55237-5.11243,5.25647-8.11267ZM434.49927,48.665a7.63063,7.63063,0,0,0-4.12842-3.81629.872.872,0,0,1-.64807-.816,1.12029,1.12029,0,0,1,1.1521-1.05615c1.22412,0,5.92859,2.97632,5.92859,5.18445a1.27915,1.27915,0,0,1-1.27222,1.2721A1.11833,1.11833,0,0,1,434.49927,48.665Z"/>
    <path d="M447.98657,56.58582c-.91211,0-1.32007-.52808-1.32007-1.08008a1.14961,1.14961,0,0,1,1.10413-1.12818c4.24829-.33606,7.70459-2.83215,7.70459-4.75232a1.68513,1.68513,0,0,0-1.84814-1.53613c-1.84815,0-5.25647,3.02417-5.61646,3.4563a1.78323,1.78323,0,0,1-1.32019.84c-.52795,0-1.99207-.528-1.99207-3.93628a10.495,10.495,0,0,1,.432-3.12024,10.316,10.316,0,0,0,.24-2.01624v-.40808c0-1.56006.72009-2.35217,2.37622-3.26416.57605-.31213,1.2721-.6001,1.2721-.88818,0-.192-.264-.384-.91211-.6a1.0814,1.0814,0,0,1-.88806-.98413,1.19966,1.19966,0,0,1,1.29614-1.08008c.864,0,3.86438,1.41614,3.86438,3.07227,0,1.12805-.88806,1.29614-2.08826,1.48816a4.87181,4.87181,0,0,0-1.1521.48c-1.51208.696-1.77612,1.32019-1.77612,2.06421,0,.12.024.264.024.40808v.264a7.26032,7.26032,0,0,1-.072.96,22.43325,22.43325,0,0,0-.40809,3.16833c0,.072,0,1.03211.28809,1.03211a.55278.55278,0,0,0,.21594-.072c.4801-.28808,1.39221-.9121,2.44824-1.51208a8.08834,8.08834,0,0,1,3.86438-1.29614c2.08814,0,4.15235,1.34411,4.15235,3.50427,0,1.53613-1.05615,3.38428-3.60034,5.04041A15.61472,15.61472,0,0,1,447.98657,56.58582Z"/>
    <path d="M475.22717,49.28918a12.819,12.819,0,0,1-.048,1.32007,1.42721,1.42721,0,0,1-1.29614,1.46411,1.002,1.002,0,0,1-.98413-1.12805v-.21606a13.0584,13.0584,0,0,0,.09607-1.60816c-.504.264-2.73621,1.44019-2.73621,2.95227,0,.40809.192,1.82422,2.64014,1.82422a11.15029,11.15029,0,0,0,3.02429-.504,1.93965,1.93965,0,0,1,.6001-.09606,1.15853,1.15853,0,0,1,1.248,1.128c0,.50415-.192,1.72827-4.29626,1.72827-3.9364,0-5.37647-2.06421-5.37647-3.81641,0-2.92822,3.40821-4.75244,4.65637-5.40039-.28808-.93616-.76806-1.41614-1.41613-1.41614a2.36588,2.36588,0,0,0-1.24817.432c-1.00806,1.12805-1.608,1.46411-2.13611,1.46411a.95831.95831,0,0,1-1.0321-.91211,1.30939,1.30939,0,0,1,.552-.984,12.52528,12.52528,0,0,0,3.07226-3.64831,7.03475,7.03475,0,0,1-1.176.096c-2.4242,0-2.44824-1.34412-2.44824-1.53614a1.02019,1.02019,0,0,1,.984-1.056,1.5268,1.5268,0,0,1,.86414.312,1.6276,1.6276,0,0,0,.88806.192,9.27746,9.27746,0,0,0,1.89624-.264,9.24366,9.24366,0,0,0,.432-1.89612.943.943,0,0,1,1.00806-.84008,1.22462,1.22462,0,0,1,1.29614,1.056,4.578,4.578,0,0,1-.144.88806c.7201-.36.816-.384.98414-.384a1.04505,1.04505,0,0,1,1.0321,1.05615c0,.792-.62415,1.27209-3.12036,1.87207a25.81925,25.81925,0,0,1-1.368,2.40027,3.20849,3.20849,0,0,1,3.02417,2.25622,27.87864,27.87864,0,0,1,5.54455-1.94421,1.27758,1.27758,0,0,1,1.34412,1.24817.99171.99171,0,0,1-.64807.936c-.74414.312-1.53614.40808-2.7843.79212-1.00806.312-2.04017.696-2.9762,1.08007A8.87824,8.87824,0,0,1,475.22717,49.28918Z"/>
    <path d="M490.10632,49.72119a1.04467,1.04467,0,1,1,0-2.08813l4.63245.02392v-4.6084l-3.43237.024a1.05636,1.05636,0,1,1,0-2.11218l3.43237.02393V37.12012a1.19982,1.19982,0,0,1,2.3761,0v3.86426h4.36841V37.12012a1.19989,1.19989,0,0,1,2.37622,0v3.86426l3.64831-.02393a1.05872,1.05872,0,0,1,0,2.11218l-3.64831-.024V47.657l4.84839-.02392a1.04589,1.04589,0,0,1,0,2.08813Zm.40808,6.93665a1.26815,1.26815,0,0,1-1.32019-1.22412,1.30979,1.30979,0,0,1,1.10413-1.20008,13.80857,13.80857,0,0,0,5.52051-3.16833,1.15108,1.15108,0,0,1,.792-.33606,1.309,1.309,0,0,1,1.24817,1.27209,1.16859,1.16859,0,0,1-.40808.86414C496.08276,54.06555,492.00244,56.65784,490.5144,56.65784Zm10.96888-13.60926h-4.36841V47.657h4.36841Zm6.62463,13.51319c-.91211,0-4.75244-1.8241-6.96069-3.76831a1.12972,1.12972,0,0,1-.432-.88806,1.25776,1.25776,0,0,1,1.22412-1.20008,1.234,1.234,0,0,1,.79212.312,14.94109,14.94109,0,0,0,5.66442,3.02417,1.28654,1.28654,0,0,1,1.08008,1.22412A1.33813,1.33813,0,0,1,508.10791,56.56177Z"/>
    <path d="M518.30652,54.61768a15.43765,15.43765,0,0,1-.624-4.58448c0-4.22436,1.22412-8.35266,1.34411-10.00879a1.17946,1.17946,0,0,1,2.35217-.09607.59574.59574,0,0,1-.024.192c-.33594,1.7522-1.56006,6.19251-1.56006,8.56873,0,.88806.168.98413.24.98413.048,0,.12-.048.168-.16809.74414-1.416.91211-1.7041,1.41613-1.7041a1.04348,1.04348,0,0,1,.98414,1.00805.74126.74126,0,0,1-.12.43213,12.45606,12.45606,0,0,0-1.80017,4.51233c0,.21606.024.432.024.64807a1.128,1.128,0,0,1-1.2002,1.248A1.28273,1.28273,0,0,1,518.30652,54.61768Zm13.34509-.144c-4.15234,0-7.32056-2.47229-7.32056-3.64831a1.203,1.203,0,0,1,1.24805-1.12818,1.41123,1.41123,0,0,1,1.08008.52808,6.1209,6.1209,0,0,0,4.65649,1.60815,14.8273,14.8273,0,0,0,2.04016-.144,1.172,1.172,0,0,1,.288-.02392A1.10775,1.10775,0,0,1,534.844,52.8175C534.844,54.06555,533.78784,54.47363,531.65161,54.47363Zm-2.71216-10.537a13.54851,13.54851,0,0,1-3.24023-.36,1.1063,1.1063,0,0,1,.096-2.20825.89819.89819,0,0,1,.24.02405,11.2788,11.2788,0,0,0,2.32824.24,22.9736,22.9736,0,0,0,2.95227-.24c.072,0,.144-.02405.216-.02405a1.10224,1.10224,0,0,1,1.1521,1.12817C532.68372,43.45667,532.01172,43.93665,528.93945,43.93665Z"/>
    <path d="M542.01855,55.62573a1.092,1.092,0,0,1-1.10412-1.05615,1.15108,1.15108,0,0,1,.33606-.792c1.89612-1.99219,2.13623-4.84851,2.13623-6.9607,0-.76806-.024-1.46411-.024-1.96814,0-1.51208,1.1521-1.99218,2.25623-2.01611.72,0,1.39209-.024,2.01611-.024.91211,0,1.80017.024,2.83228.048,1.44018.048,2.30419.55212,2.37622,1.75219.02392.45606.048,1.00806.048,1.58411,0,2.49622-.072,3.43237-2.40015,3.4563-1.27209.02405-2.49621.02405-3.74438.02405h-1.58411C544.70679,52.96143,543.29065,55.62573,542.01855,55.62573Zm4.10437-13.7052a.86836.86836,0,0,1-.86413-.55212c-2.13611,2.20825-2.8562,2.25622-3.07227,2.25622a1.25708,1.25708,0,0,1-1.248-1.1521,1.10749,1.10749,0,0,1,.57605-.936,18.094,18.094,0,0,0,4.41638-4.34436,2.54547,2.54547,0,0,1,2.11218-1.22412,2.96221,2.96221,0,0,1,2.25623,1.22412,23.27881,23.27881,0,0,0,3.76831,3.50427.99517.99517,0,0,1,.432.79212,1.32279,1.32279,0,0,1-1.24817,1.248c-.384,0-.696-.096-2.20813-1.60815a.84724.84724,0,0,1-.9121.79211Zm2.83228,14.44922c-3.04834,0-4.29639,0-4.29639-2.35217,0-1.6322.02393-3.21631,1.89612-3.33631.76807-.048,1.56018-.048,2.35217-.048.81617,0,1.63221,0,2.4242.048a1.94028,1.94028,0,0,1,1.89624,1.58411c.02392.33606.048.696.048,1.08008,0,1.20019-.072,2.83227-1.99218,2.95227C550.49133,56.3457,549.72327,56.36975,548.9552,56.36975ZM545.37891,46.985c0,.33605-.024.696-.0481,1.08007.91211,0,1.72815.024,2.52026.024s1.56006-.024,2.28016-.024a.61743.61743,0,0,0,.67211-.624c0-.144.02393-.28809.02393-.456Zm5.44836-1.46412c0-.16809-.02393-.3601-.02393-.4801-.024-.408-.28808-.57605-.67211-.57605-.7201-.02405-1.368-.02405-2.01612-.02405-.62414,0-1.22412,0-1.89624.02405s-.816.384-.816.88806v.16809Zm-.64807-5.32849c-.504-.57605-1.00806-1.1521-1.416-1.65613-.24011-.264-.43213-.384-.62414-.384-.21594,0-.384.168-.57605.432a17.819,17.819,0,0,1-1.22412,1.60815Zm-1.032,12.16907c-.576,0-1.12818,0-1.68018.02393-.67212,0-.72009.55212-.72009,1.24816,0,.792.024.88807,2.20825.88807,1.89612,0,2.1842,0,2.1842-1.00806C551.1394,52.4574,551.11536,52.36145,549.14722,52.36145Zm5.78442-13.94519a1.10439,1.10439,0,0,1,2.20825,0v12.241a1.10664,1.10664,0,0,1-2.20825,0Zm6.55261,14.9292v.04809c0,1.44007-.91211,3.14429-3.67236,3.14429-1.99219,0-2.64026-.43213-2.64026-1.36816a1.09142,1.09142,0,0,1,.98413-1.20008.81869.81869,0,0,1,.24.02393,7.7276,7.7276,0,0,0,1.48816.264c.64807,0,1.20007-.264,1.22412-1.29614.024-.88807.024-7.56055.024-12.025V37.144a1.15315,1.15315,0,0,1,2.3042,0V50.44128Z"/>
    <path d="M580.30005,37.02405a1.36353,1.36353,0,0,1,1.46411,1.36816,1.77929,1.77929,0,0,1-.552,1.24817c-1.65613,1.68005-4.15235,4.41626-4.82446,5.04041a8.15721,8.15721,0,0,1,3.88842-.93616c3.6482,0,5.92847,2.61621,5.92847,5.01648,0,4.75244-6.43262,7.53662-11.401,7.53662a1.2928,1.2928,0,0,1-1.39209-1.248c0-.55212.408-1.10412,1.32007-1.12817,6.45654-.192,8.9768-3.26428,8.9768-5.18445,0-.864-.816-3.04822-3.8883-3.04822a8.2781,8.2781,0,0,0-6.07251,2.8562,26.15408,26.15408,0,0,0-1.65625,2.25623,1.42131,1.42131,0,0,1-1.1521.6001,1.30191,1.30191,0,0,1-1.34412-1.2002c0-.48.24012-.816,2.04016-2.7362,1.51221-1.58411,6.8407-7.87268,6.8407-7.99268h-.024a.6245.6245,0,0,0-.168.072,17.72461,17.72461,0,0,1-4.70447,1.58411,1.29039,1.29039,0,0,1-1.32007-1.2721,1.20346,1.20346,0,0,1,1.296-1.1521,31.14574,31.14574,0,0,0,5.13647-1.20007c.76807-.28809.79212-.4801,1.58423-.4801Z"/>
    <path d="M595.68359,55.64966a1.08277,1.08277,0,0,1,.69605-1.00806c4.41638-1.94409,5.85644-4.72839,5.85644-7.3446,0-.67212-.21594-4.15235-2.06408-4.15235a3.82435,3.82435,0,0,0-1.89624.744,5.31986,5.31986,0,0,1-2.52014,1.08008,1.276,1.276,0,1,1-.12012-2.54419,5.20924,5.20924,0,0,0,1.6322-.6001,7.432,7.432,0,0,1,3.04822-.76806c4.22436,0,4.32043,5.71252,4.32043,6.19262,0,6.4325-6.69665,9.67286-7.68066,9.67286A1.29563,1.29563,0,0,1,595.68359,55.64966Zm6.04847-16.58545a11.0126,11.0126,0,0,1-4.65638-1.032,1.12951,1.12951,0,0,1-.64807-.98413,1.076,1.076,0,0,1,1.10413-1.05616,1.77066,1.77066,0,0,1,.64807.14405,6.646,6.646,0,0,0,2.80823.52807c.288,0,.552,0,.84008-.02405h.096a1.10208,1.10208,0,0,1,1.22412,1.0802A1.32,1.32,0,0,1,601.73206,39.06421Z"/>
    <path d="M617.908,55.96167a1.6627,1.6627,0,0,1-1.65625-1.58411,1.73392,1.73392,0,0,1,1.65625-1.65612,1.549,1.549,0,0,1,1.65613,1.65612A1.59635,1.59635,0,0,1,617.908,55.96167Zm-1.03211-6.09644v-.504c0-2.32825-.24011-7.92078-.384-11.68909v-.072A1.30149,1.30149,0,0,1,617.88391,36.28a1.35766,1.35766,0,0,1,1.44006,1.39209c0,2.83227-.384,9.43286-.384,11.761,0,.57617,0,1.58422-1.056,1.58422a1.03171,1.03171,0,0,1-1.00806-1.12817Z"/>
  </g>
</svg>
