<svg id="レイヤー_1" data-name="レイヤー 1" xmlns="http://www.w3.org/2000/svg" width="14.00001" height="14" viewBox="0 0 14.00001 14">
  <defs>
    <style>
      .cls-1 {
        fill: #18b7cd;
      }
    </style>
  </defs>
  <title>fb_icon</title>
  <path class="cls-1" d="M13.22736,0H.77266A.77262.77262,0,0,0,0,.77267V13.22733A.77274.77274,0,0,0,.77266,14H7.47774V8.5785H5.65353V6.46563H7.47774V4.90742a2.54594,2.54594,0,0,1,2.71778-2.793,14.99463,14.99463,0,0,1,1.63006.08321V4.0875L10.707,4.08788c-.87734,0-1.04726.417-1.04726,1.02868V6.46563H11.752L11.47969,8.5785H9.65978V14h3.56758A.77274.77274,0,0,0,14,13.22733V.77267A.77262.77262,0,0,0,13.22736,0Z"/>
</svg>
