<svg id="レイヤー_1" data-name="レイヤー 1" xmlns="http://www.w3.org/2000/svg" width="700" height="225" viewBox="0 0 700 225">
  <defs>
    <style>
      .cls-1 {
        fill: #fff;
      }

      .cls-2 {
        fill: none;
        stroke: #fff;
        stroke-miterlimit: 10;
        stroke-width: 1.5px;
      }
    </style>
  </defs>
  <title>main</title>
  <g>
    <g>
      <g>
        <g>
          <path class="cls-1" d="M129.56555,154.30731h-3.98437l-.03907-1.1914q0-4.94111,1.48438-6.95313,1.50366-2.031,5.03906-2.03125,6.65991,0,6.66016,7.38281,0,4.98048-4.98047,14.35547l-2.40234,4.51172-.11719.23438q-.098.19555-.27344.5664h7.46094v3.47656H125.171q.33179-.74193,1.38672-2.94921,1.05468-2.2068,2.87109-5.957,1.54267-3.28125,2.57813-5.5664,1.03491-2.28516,1.5625-3.75a15.32918,15.32918,0,0,0,1.05469-5.0586q0-3.75-2.59766-3.75-2.5003,0-2.5,4.64844l.01953,1.71875Z"/>
          <path class="cls-1" d="M161.32727,159.81512q0,8.1253-1.5625,11.71875a5.71673,5.71673,0,0,1-10.52734-.01953q-1.54322-3.39843-1.543-11.93359,0-8.53491,1.543-11.93359a5.70152,5.70152,0,0,1,10.332-.42969Q161.32727,150.47949,161.32727,159.81512Zm-4.14062,0a50.57339,50.57339,0,0,0-.58594-9.45312q-.58594-2.59736-2.12891-2.59766-1.54322,0-2.14844,2.57813a48.81909,48.81909,0,0,0-.58593,9.27734,49.1554,49.1554,0,0,0,.58593,9.29688q.60518,2.57813,2.14844,2.57812,1.52344,0,2.10938-2.55859A44.87539,44.87539,0,0,0,157.18665,159.81512Z"/>
          <path class="cls-1" d="M174.69055,154.30731h-3.98437l-.03907-1.1914q0-4.94111,1.48438-6.95313,1.50366-2.031,5.03906-2.03125,6.65991,0,6.66016,7.38281,0,4.98048-4.98047,14.35547l-2.40234,4.51172-.11719.23438q-.098.19555-.27344.5664h7.46094v3.47656H170.296q.33179-.74193,1.38672-2.94921,1.05468-2.2068,2.87109-5.957,1.54267-3.28125,2.57813-5.5664,1.03491-2.28516,1.5625-3.75a15.32918,15.32918,0,0,0,1.05469-5.0586q0-3.75-2.59766-3.75-2.5003,0-2.5,4.64844l.01953,1.71875Z"/>
          <path class="cls-1" d="M206.45227,159.81512q0,8.1253-1.5625,11.71875a5.71673,5.71673,0,0,1-10.52734-.01953q-1.54322-3.39843-1.543-11.93359,0-8.53491,1.543-11.93359a5.70152,5.70152,0,0,1,10.332-.42969Q206.45227,150.47949,206.45227,159.81512Zm-4.14062,0a50.57339,50.57339,0,0,0-.58594-9.45312q-.58594-2.59736-2.12891-2.59766-1.54322,0-2.14844,2.57813a48.81909,48.81909,0,0,0-.58593,9.27734,49.1554,49.1554,0,0,0,.58593,9.29688q.60518,2.57813,2.14844,2.57812,1.52344,0,2.10938-2.55859A44.87539,44.87539,0,0,0,202.31165,159.81512Z"/>
          <path class="cls-1" d="M216.27673,172.64362a2.4101,2.4101,0,0,1,2.39954-2.59949,2.38013,2.38013,0,0,1,2.35962,2.59949,2.38348,2.38348,0,1,1-4.75916,0Z"/>
          <path class="cls-1" d="M232.21082,144.50262h6.875v30.15625H235.1991V147.95966h-2.98828Z"/>
          <path class="cls-1" d="M264.2655,159.81512q0,8.1253-1.5625,11.71875a5.71673,5.71673,0,0,1-10.52734-.01953q-1.54321-3.39843-1.543-11.93359,0-8.53491,1.543-11.93359a5.70152,5.70152,0,0,1,10.332-.42969Q264.26551,150.47949,264.2655,159.81512Zm-4.14062,0a50.5725,50.5725,0,0,0-.58594-9.45312q-.58593-2.59736-2.12891-2.59766-1.5432,0-2.14843,2.57813a48.818,48.818,0,0,0-.58594,9.27734,49.15428,49.15428,0,0,0,.58594,9.29688q.60516,2.57813,2.14843,2.57812,1.52344,0,2.10938-2.55859A44.87539,44.87539,0,0,0,260.12488,159.81512Z"/>
          <path class="cls-1" d="M274.09,172.64362a2.41009,2.41009,0,0,1,2.39953-2.59949,2.38013,2.38013,0,0,1,2.35962,2.59949,2.38347,2.38347,0,1,1-4.75915,0Z"/>
          <path class="cls-1" d="M292.34827,154.30731h-3.98438l-.03906-1.1914q0-4.94111,1.48437-6.95313,1.50367-2.031,5.03907-2.03125,6.65991,0,6.66015,7.38281,0,4.98048-4.98047,14.35547l-2.40234,4.51172-.11719.23438q-.09795.19555-.27343.5664h7.46093v3.47656H287.95374q.33179-.74193,1.38671-2.94921,1.0547-2.2068,2.8711-5.957,1.54266-3.28125,2.57812-5.5664,1.03491-2.28516,1.5625-3.75a15.32892,15.32892,0,0,0,1.05469-5.0586q0-3.75-2.59766-3.75-2.5003,0-2.5,4.64844l.01954,1.71875Z"/>
          <path class="cls-1" d="M350.97083,162.78387h7.10937v3.04688h-7.10937Z"/>
          <path class="cls-1" d="M373.51379,144.50262h3.76954v18.78907h1.93359v3.10547h-1.93359v8.26171h-3.76954v-8.26171h-8.26171v-3.457Zm0,18.78907V150.63544l-5.07812,12.65625Z"/>
        </g>
        <g>
          <path class="cls-1" d="M322.381,155.66132h3.80078v1.20312h-2.3789v3.33594h2.14648v1.20312h-2.14648v4.8125H322.381Z"/>
          <path class="cls-1" d="M328.81555,155.66132h1.87305a2.38964,2.38964,0,0,1,1.72949.55371,2.98644,2.98644,0,0,1,.71777,2.19433,3.76537,3.76537,0,0,1-.37939,1.82178,1.627,1.627,0,0,1-1.0835.85107l1.94141,5.13379H332.172l-1.93457-5.168v5.168h-1.42188Zm1.42188,4.67578a1.50765,1.50765,0,0,0,1.16894-.38282,1.93367,1.93367,0,0,0,.3418-1.292,4.2354,4.2354,0,0,0-.07178-.84082,1.50853,1.50853,0,0,0-.22558-.56738.90954.90954,0,0,0-.39649-.32129,1.47918,1.47918,0,0,0-.57764-.10254h-.23925Z"/>
          <path class="cls-1" d="M336.25488,155.66132h1.42188V166.216h-1.42188Z"/>
        </g>
        <g>
          <path class="cls-1" d="M405.15979,155.88007v1.38769a2.08308,2.08308,0,0,0-1.16895-.46484,1.174,1.174,0,0,0-.916.39648,1.40266,1.40266,0,0,0-.35547,1.00488,1.72869,1.72869,0,0,0,.25293.9502,4.18833,4.18833,0,0,0,.42725.54687q.29736.33509.769.80665a6.32121,6.32121,0,0,1,1.18262,1.52441,3.35405,3.35405,0,0,1,.31445,1.52441,2.96009,2.96009,0,0,1-.69043,2.01661,2.26755,2.26755,0,0,1-1.77051.77246,2.45313,2.45313,0,0,1-1.55176-.499v-1.4082a2.41919,2.41919,0,0,0,1.38086.55371,1.1287,1.1287,0,0,0,.90918-.38623,1.568,1.568,0,0,0,.32813-1.04932,2.09977,2.09977,0,0,0-.25293-1.03222,4.24285,4.24285,0,0,0-.36231-.50244q-.23255-.28364-.58105-.63233-.54017-.5332-.89551-.94336a4.44353,4.44353,0,0,1-.52637-.71777,3.14371,3.14371,0,0,1-.32812-1.51758,2.85026,2.85026,0,0,1,.64258-1.96191,2.21476,2.21476,0,0,1,1.74316-.73145A3.07827,3.07827,0,0,1,405.15979,155.88007Z"/>
          <path class="cls-1" d="M408.402,155.66132h1.39453v7.458a3.65874,3.65874,0,0,0,.20508,1.51758.872.872,0,0,0,.834.376.88516.88516,0,0,0,.82031-.32813,2.96407,2.96407,0,0,0,.20508-1.36035v-7.66308h1.39453v7.66308a3.71069,3.71069,0,0,1-.52636,2.33106,2.47288,2.47288,0,0,1-1.9209.69043,2.20975,2.20975,0,0,1-2.00293-.88868,4.63734,4.63734,0,0,1-.40332-2.33789Z"/>
          <path class="cls-1" d="M416.42236,155.66132h1.32618l1.415,4.21093a38.49146,38.49146,0,0,1,1.08692,3.80762q-.171-1.2235-.25293-2.21484-.082-.99116-.082-1.86621v-3.9375h1.42871V166.216h-1.333l-1.59277-4.751q-.21882-.663-.41358-1.36035t-.35888-1.4629q-.01374-.09558-.04444-.23242-.03077-.13659-.07177-.31445.02051.17779.03417.3042t.02051.21533l.0752,1.07324.07519,1.30567q.00678.1095.01026.2666.00329.15729.00342.35547l.07519,4.60058h-1.40137Z"/>
        </g>
        <circle class="cls-2" cx="330.25197" cy="160.22728" r="16.52846"/>
        <circle class="cls-2" cx="411.27429" cy="160.22728" r="16.52846"/>
      </g>
      <g>
        <path class="cls-1" d="M457.80457,159.75555h-9.30176v16.99122h-2.04639v-27.4712h11.34815Zm-1.98438-8.83667h-7.31738v2.72852h7.31738Zm-7.31738,7.19336h7.31738v-2.91455h-7.31738Zm19.31665,10.852h-4.40283v7.16236h-1.89136v-7.16236h-4.7439a10.30949,10.30949,0,0,1-4.27881,7.44141,7.01682,7.01682,0,0,0-1.39526-1.30225,8.12643,8.12643,0,0,0,3.81372-6.13916h-4.06177V167.197H454.983v-3.62769h-3.50366v-1.76733h15.658v1.76733h-3.7207V167.197h4.40283ZM456.84338,167.197h4.68189v-3.62769h-4.68189Zm15.50293-17.92139v24.61866c0,2.6665-1.17822,2.79052-6.04614,2.79052a8.16307,8.16307,0,0,0-.68213-2.1394c1.0542.031,2.07739.062,2.85254.062,1.64331,0,1.82935,0,1.82935-.71313V159.78656h-9.58081v-10.511Zm-2.04638,1.64331H462.7345v2.72852h7.56543Zm-7.56543,7.22437h7.56543v-2.94556H462.7345Z"/>
        <path class="cls-1" d="M489.64087,148.9035c-.062.217-.31006.34107-.68213.31006a56.05777,56.05777,0,0,1-2.60449,6.13916l.71313.217c-.031.186-.217.34107-.62011.40308v20.77393h-2.01539V158.9494a36.58818,36.58818,0,0,1-3.53466,5.085A17.289,17.289,0,0,0,479.812,162.081c2.85254-3.22461,5.64307-8.61963,7.3794-13.98364Zm19.71973,24.55664v1.73633h-15.906v1.5503h-2.01538V163.10419a22.68335,22.68335,0,0,1-3.06958,3.47265,12.06411,12.06411,0,0,0-1.36426-1.45727,25.151,25.151,0,0,0,6.29419-9.39478l2.41846.80615c-.062.186-.27906.27906-.68213.27906a30.54674,30.54674,0,0,1-1.48828,3.03857h5.58105a27.835,27.835,0,0,0,1.51929-3.96875l2.51147.77515c-.062.186-.31.27905-.65112.27905-.34106.83716-.83716,1.92236-1.36426,2.91455h7.75147v1.73633h-7.62744v2.79053h6.51123v1.64331h-6.51123v2.88354h6.51123v1.64331h-6.51123v2.91455Zm-.62012-23.87451c-.031.217-.217.34107-.62012.40308v5.67407H490.78809V149.3996l2.57348.186c-.031.217-.217.34107-.62011.40308v3.84473h5.488v-5.67408l2.69751.186c-.031.186-.217.34106-.62012.40307v5.085h5.7981V149.3996Zm-9.45679,14.7898V161.5849h-5.8291v2.79053Zm0,4.52685v-2.88354h-5.8291v2.88354Zm-5.8291,1.64331v2.91455h5.8291v-2.91455Z"/>
        <path class="cls-1" d="M543.36731,159.66254l1.55029.37207a43.64571,43.64571,0,0,1-7.4414,8.40258l-1.70533-1.0852a36.54376,36.54376,0,0,0,5.395-5.67407h-8.9917c-.062.186-.217.27905-.62011.34106v12.12329c0,1.33325-.34107,1.95337-1.39527,2.29444a25.17071,25.17071,0,0,1-5.64306.31006,9.12013,9.12013,0,0,0-.80616-2.01539c1.33326.031,2.57349.062,3.53467.062,2.01538,0,2.17041,0,2.17041-.68213V161.67792H516.60925v-1.98438h16.68116a53.68946,53.68946,0,0,0-9.67383-4.61987l1.42627-1.51929a57.85223,57.85223,0,0,1,6.10815,2.51148,37.73943,37.73943,0,0,0,6.07715-4.34082H519.55481v-1.95337h19.19263a2.82462,2.82462,0,0,0,1.0852-.124l1.86035,1.24024a1.03249,1.03249,0,0,1-.5581.24805,47.95754,47.95754,0,0,1-7.9065,5.98413,31.894,31.894,0,0,1,3.1316,1.89135l-.58912.68213h7.16236Z"/>
        <path class="cls-1" d="M567.297,167.01093v6.75927a29.3761,29.3761,0,0,0,5.395.40308c1.0852,0,6.54223,0,7.9685-.031a6.4611,6.4611,0,0,0-.80615,2.1084H572.599c-6.66626,0-11.50317-1.14722-14.38672-6.69726a16.09988,16.09988,0,0,1-4.86792,7.28637,9.82939,9.82939,0,0,0-1.5813-1.36426c3.41065-2.51147,5.209-7.25537,5.92212-13.05346l2.6665.43408c-.062.217-.248.37207-.62011.37207-.186,1.24023-.43408,2.44946-.71314,3.62769a9.89236,9.89236,0,0,0,6.13916,6.32519V159.53851H557.2511v-1.98437h18.23144v1.98437H567.297v5.488h9.5188v1.98438ZM555.32874,153.6474v4.68188h-2.04639V151.663h11.84424V147.8493l2.82153.186c-.031.217-.217.37207-.65112.43408v3.1936h11.96826v6.66626h-2.13941V153.6474Z"/>
        <path class="cls-1" d="M591.29053,172.437a1.92451,1.92451,0,1,1,1.92236,2.01538A1.97338,1.97338,0,0,1,591.29053,172.437Zm.93017-4.99194-.46508-16.99121h2.97656l-.46509,16.99121Z"/>
      </g>
    </g>
    <g>
      <g>
        <path class="cls-1" d="M163.1521,219.08258c-.26,2.21008-.728,4.49817-2.0542,5.79822l-1.196-.728c1.22216-1.196,1.74218-3.30212,1.95019-5.3822Zm-1.53418-1.61206v-8.16431c-.12988.208-.28589.39-.416.572a4.97539,4.97539,0,0,0-1.248-.988,22.32183,22.32183,0,0,0,3.79614-8.19031l2.0022.234c-.02613.208-.18213.312-.49414.338q-.234.858-.5459,1.79407h3.38013l.26-.078,1.196.754a.497.497,0,0,1-.364.182,25.42736,25.42736,0,0,1-1.76807,3.43213h3.17212v10.11438Zm4.18628-10.11438a17.22021,17.22021,0,0,0,1.404-2.86011H164.166a25.3798,25.3798,0,0,1-1.32593,2.86011Zm-2.7561,4.34216h2.314v-2.8601h-2.314Zm2.314,1.40406h-2.314v2.91211h2.314Zm-.07788,5.72021a20.79587,20.79587,0,0,1,.44189,4.75818c-.8059.104-1.06591.156-1.32592.182.02588-.286.02588-.624.02588-.988a23.40646,23.40646,0,0,0-.3379-3.79614Zm2.23608,4.62817a18.17967,18.17967,0,0,0-1.17016-4.52417l1.144-.234a16.60425,16.60425,0,0,1,1.24805,4.47216Zm1.58594-11.75244v-2.8601h-2.418v2.8601Zm0,4.31617v-2.91211h-2.418v2.91211Zm1.352,6.94226a20.03063,20.03063,0,0,0-1.74194-4.23816l1.144-.416a20.87387,20.87387,0,0,1,1.82007,4.18616Zm7.9563-13.3385h5.79834v1.37805H171.13428v-1.37805h5.59033v-1.82007h-4.16016v-1.32605h4.16016V204.704h-4.88818V203.326h4.88818v-2.6261l2.18408.13c-.02612.182-.156.312-.49414.364V203.326h5.14819V204.704h-5.14819v1.76807h4.29028v1.32605h-4.29028Zm4.18628,3.01611v10.45239c0,1.63806-.728,1.79407-3.56226,1.79407a6.28225,6.28225,0,0,0-.52-1.48206c.572.026,1.09205.052,1.48218.052.85791,0,.96192,0,.96192-.364v-4.21216h-6.63013v5.98023h-1.58618V212.63434Zm-8.26831,1.37805v3.51013h2.574v-3.51013Zm3.926,3.51013h2.70411v-3.51013h-2.70411Z"/>
        <path class="cls-1" d="M190.81592,208.05817a20.58012,20.58012,0,0,1,5.20019,2.44409l-.96191,1.508a22.07044,22.07044,0,0,0-5.14819-2.62609Zm.02612,15.23657a77.20122,77.20122,0,0,0,5.04419-8.52832l1.27393,1.17a90.87244,90.87244,0,0,1-4.57618,8.06031.69194.69194,0,0,1,.13013.338.43018.43018,0,0,1-.13013.312Zm1.50806-22.38684a19.9914,19.9914,0,0,1,5.04419,2.7821l-1.01416,1.48206a18.90749,18.90749,0,0,0-4.99219-2.96411Zm13.80639,20.67077h7.93042v1.71607H196.43213v-1.71607h7.9043V205.19806h-6.05811V203.482h14.87256v1.71607h-6.99439Z"/>
        <path class="cls-1" d="M243.77881,204.392v1.71606H232.88452v.026h.38989c-.02587.182-.18188.312-.52.364v3.35412h8.52832v9.38636c0,2.05407-.832,2.21008-5.72021,2.21008a7.35128,7.35128,0,0,0-.624-1.74207c1.87207.052,3.45825.052,3.95214.052.468-.052.59815-.156.59815-.52V211.5683h-6.73438v13.3645h-1.82006V211.5683h-6.31812v9.98437h-1.76807V209.85223h8.08619v-3.74414H220.11792V204.392h10.81641v-3.82214l2.36621.13c-.02613.208-.18213.338-.54615.39V204.392Z"/>
        <path class="cls-1" d="M255.55615,209.0462a11.98667,11.98667,0,0,0,.624-2.00207l1.87207.39c-.052.156-.208.26-.49414.286a11.2197,11.2197,0,0,1-6.83814,7.8263,4.90768,4.90768,0,0,0-.884-1.118,10.03271,10.03271,0,0,0,4.96606-3.97815c-1.61206.156-3.094.312-4.134.39a.38593.38593,0,0,1-.33814.338l-.6499-1.69006,1.53394-.104c.572-.65,1.196-1.40406,1.79419-2.23609a28.6828,28.6828,0,0,0-3.19825-2.8081l.832-.988c.312.208.624.442.96215.702a29.82621,29.82621,0,0,0,1.87207-3.38013l1.61206.702c-.07812.156-.26.208-.52.208A30.67851,30.67851,0,0,1,252.54,204.782c.4939.416.96191.832,1.32593,1.19605.59814-.884,1.17016-1.74207,1.58618-2.4961l1.61206.754c-.052.156-.26.208-.52.208a52.29946,52.29946,0,0,1-3.58814,4.81018Zm15.8606,6.11023v7.8523c0,.91-.208,1.352-.936,1.61206-.624.208-1.43017.208-4.00415.208a5.97023,5.97023,0,0,0-.52-1.37806c.78.026,1.48194.026,2.08008.026,1.66406,0,1.68994-.052,1.68994-.468v-6.47425H253.97v8.29432H252.28v-9.67237h7.9043a17.39515,17.39515,0,0,0,.832-2.00207H259.5603v.91h-1.45605V203.742h7.12427v5.3042H259.5603v1.014h5.98023v1.04H259.5603v1.014h6.03223v1.04h-4.29028l1.74218.52c-.07812.156-.23413.234-.52.234l-.65014,1.248Zm-5.56421-13.59851V202.728h-8.47632v-1.17005Zm.18188,20.87879h-7.04614v.91H257.5061v-5.4342h8.52832Zm-1.56-3.35413h-5.48609v2.21008h5.48609Zm-.70191-14.32654H259.5603v1.118h4.21216Zm-4.21216,3.25012h4.21216v-1.144H259.5603Zm7.28028-6.44824h5.82421c.23389-.052.26-.078.28589-.078a2.96669,2.96669,0,0,0,.96216.546.331.331,0,0,1-.208.208c-.54614,1.196-1.32617,2.6781-2.1062,4.10815,1.56006,1.45606,2.28809,2.7041,2.28809,3.82215,0,2.62609-2.08008,2.62609-3.354,2.62609-.28613,0-.54614,0-.80615-.026a3.17645,3.17645,0,0,0-.49389-1.352,12.49535,12.49535,0,0,0,1.35205.078c.988,0,1.84594,0,1.84594-1.40406-.02587-.988-.7539-2.08008-2.418-3.51013.7019-1.32605,1.3-2.5741,1.76806-3.66614h-3.45825V214.2984h-1.48193Z"/>
        <path class="cls-1" d="M303.81274,213.44037H293.12646a14.87,14.87,0,0,1-.936,1.95007h9.17822l.364-.026.91015.104c0,.156-.052.364-.052.546-.26,5.5382-.54614,7.48828-1.11816,8.1643-.5459.676-1.3.676-2.18409.676-.44189,0-.988-.026-1.53393-.052a4.5545,4.5545,0,0,0-.44214-1.50806c.91016.078,1.74219.104,2.08008.104.364,0,.54614-.026.728-.26.364-.442.59814-2.02807.80615-6.29223h-1.76807a17.506,17.506,0,0,1-4.91431,7.93029,7.85289,7.85289,0,0,0-1.06591-.988,15.48693,15.48693,0,0,0,4.42016-6.94226h-2.34009a20.02756,20.02756,0,0,1-6.39624,7.61828,9.53211,9.53211,0,0,0-.96215-1.118,17.02224,17.02224,0,0,0,5.69433-6.50024H291.3064a15.5965,15.5965,0,0,1-3.45826,3.66613,8.47443,8.47443,0,0,0-1.092-1.066,14.62928,14.62928,0,0,0,4.73218-6.00622h-3.562a5.89609,5.89609,0,0,1,.23389,1.61206c0,3.74414-2.28809,3.64014-4.31617,3.56213a4.14011,4.14011,0,0,0-.44189-1.53405,8.67214,8.67214,0,0,0,1.11792.078c1.01416,0,2.02808,0,2.02808-2.21008-.02588-1.45606-.728-3.22413-2.73-5.3042.832-1.97608,1.63793-4.39417,2.21-6.21424h-3.718V224.8808h-1.58618V201.84393h6.11035l.28589-.078,1.11816.676a.59367.59367,0,0,1-.208.234c-.676,1.97608-1.69018,4.60218-2.57422,6.76026a9.97715,9.97715,0,0,1,2.39209,3.71814v-1.196h15.9646Zm-2.44409-11.64844v8.47632h-11.3623v-8.47632Zm-1.68994,3.56213V203.17h-8.0603v2.18408Zm0,3.53614v-2.23609h-8.0603v2.23609Z"/>
        <path class="cls-1" d="M323.15649,200.77789a.68656.68656,0,0,1-.54614.39,29.78154,29.78154,0,0,0,11.33643,8.78833,7.41179,7.41179,0,0,0-1.11792,1.56006c-4.13428-2.02808-8.81446-5.59021-11.31055-9.10035A30.93631,30.93631,0,0,1,310.468,211.6203a7.91869,7.91869,0,0,0-1.01416-1.404c4.57617-2.21009,9.07446-6.11023,11.12842-9.59436Zm-12.35058,14.84656v-1.66406h21.81494v1.66406H320.11426l.312.104c-.07788.182-.28589.26-.624.286a66.1626,66.1626,0,0,1-3.06812,6.03222c3.45825-.078,7.48828-.208,11.44043-.338a41.71358,41.71358,0,0,0-3.822-3.90015l1.48193-.806a35.72461,35.72461,0,0,1,6.29224,6.94226l-1.56006.988a18.30938,18.30938,0,0,0-1.27393-1.82007c-6.31835.338-13.02661.624-17.18676.754a.44126.44126,0,0,1-.416.364l-.6499-2.08007c1.092,0,2.366-.026,3.79614-.078a56.53257,56.53257,0,0,0,3.094-6.44824Zm4.44629-6.70825h12.61035v1.63806H315.2522Z"/>
        <path class="cls-1" d="M357.45068,203.742h5.72022v4.13416h-1.61206v-2.6521h-9.72437v2.6521h-1.56006v-2.26209l-1.144,1.014a27.86955,27.86955,0,0,0-3.82226-3.97815,28.47009,28.47009,0,0,1-3.69214,5.04419h2.99023v-2.57409l2.002.13c-.02587.182-.156.286-.49389.338v2.10608h3.17212v8.47632H342.968v4.94019c1.22217-.26,2.54809-.572,3.84814-.884a25.72417,25.72417,0,0,0-1.92407-2.39209l1.32617-.728a23.39611,23.39611,0,0,1,4.21216,5.90222l-1.40405.832a17.14049,17.14049,0,0,0-1.3-2.34009c-2.7041.728-5.48633,1.45606-7.2544,1.89807a.45375.45375,0,0,1-.312.39l-.78-1.89807c.572-.104,1.248-.26,1.97608-.416V207.98016c-.26.286-.52.546-.80591.806a4.90126,4.90126,0,0,0-1.248-1.092,23.38885,23.38885,0,0,0,5.2002-7.02026l2.08008.312a.50039.50039,0,0,1-.49415.338,30.01164,30.01164,0,0,1,4.18628,4.10816V203.742h5.48609v-3.04211l2.2102.156c-.02612.182-.18213.312-.52.338Zm-9.77636,5.3302H342.968v2.13208h4.7063Zm-4.7063,5.72022h4.7063v-2.23608H342.968Zm10.58252-.494v2.26209h8.7102v8.1123H360.6228v-1.092h-7.07226v1.24805h-1.61206V207.74615h9.30835v6.55225Zm6.0581-5.07019h-6.0581v3.58814h6.0581Zm1.01416,8.84033h-7.07226v3.97815h7.07226Z"/>
      </g>
      <g>
        <path class="cls-1" d="M383.82129,223.60846V212.45465h2.99829v.58765h-2.41064v9.97851h2.41064v.58765Z"/>
        <path class="cls-1" d="M393.37549,214.70941l.52783.31177a.24881.24881,0,0,1-.156.10791,12.10477,12.10477,0,0,1-1.54711,2.77051c.49169.37182,1.46313,1.17541,1.739,1.39123l-.46777.71961c-.27588-.32373-.89942-.89942-1.39112-1.34326v4.94128h-.7915V219.003a10.46124,10.46124,0,0,1-1.45142,1.31934,2.92638,2.92638,0,0,0-.43164-.70764,10.773,10.773,0,0,0,3.406-4.12574h-3.21411v-.74365h1.69116v-2.27869l1.01929.05994c-.012.084-.072.14392-.22779.168v2.05078h1.15137Zm.408-1.823h6.78808v.70752h-6.78808Zm.26367,10.722v-5.32507h6.16479v5.2771h-.79174v-.52771H394.8147v.57568Zm.70776-9.13892h4.7732v2.93836h-4.7732Zm1.95484,4.52149h-1.895v1.31921h1.895Zm-1.895,3.34619h1.895V220.994h-1.895Zm3.958-5.589v-1.61914h-3.28638v1.61914Zm.64746,3.562V218.991h-1.95484v1.31921Zm-1.95484,2.027h1.95484V220.994h-1.95484Z"/>
        <path class="cls-1" d="M414.27563,218.955v.80359H411.457v3.84985h-.82739v-3.84985h-3.73a5.51825,5.51825,0,0,1-2.63867,3.98181,2.76324,2.76324,0,0,0-.6355-.59961,5.00563,5.00563,0,0,0,2.42261-3.3822h-2.62647V218.955h2.7583a13.71372,13.71372,0,0,0,.072-1.58313v-1.55908h-2.43457v-.80359H406.252v-2.49463l1.06739.072c-.012.08386-.084.1438-.25171.16785v2.25476h3.562v-2.5066l1.06738.0719c-.012.084-.084.14392-.24.168v2.26673h2.53076v.80359H411.457V218.955Zm-7.208-1.571c0,.53968-.012,1.05542-.06006,1.571h3.62207v-3.14221h-3.562Z"/>
        <path class="cls-1" d="M420.93945,221.06586a.238.238,0,0,1-.25171.09594,13.93478,13.93478,0,0,1-2.85449,2.27881,6.59376,6.59376,0,0,0-.63574-.53979,9.7176,9.7176,0,0,0,2.75854-2.20679Zm-2.23071-1.63111h9.355v.73169H423.0625v3.442h-.8396v-3.442h-3.51416v.34778h-.80347V213.534l1.04346.072c-.012.08386-.072.14392-.24.15588Zm7.92773-6.50036v5.54089h-6.60839v-5.54089Zm-.7915,1.655v-1.04334h-5.04932v1.04334Zm0,1.6311v-1.04333h-5.04932v1.04333Zm0,1.64319v-1.05542h-5.04932v1.05542Zm1.511,5.58887a25.55606,25.55606,0,0,0-2.86646-2.35071l.65967-.43177a25.27822,25.27822,0,0,1,2.90259,2.27881Z"/>
        <path class="cls-1" d="M432.30493,220.946a4.545,4.545,0,0,1-.94751,2.67456l-.55176-.33593a4.10887,4.10887,0,0,0,.89942-2.48255Zm-.70776-.74365v-3.76587c-.05982.09595-.13184.17993-.1919.2638a2.29422,2.29422,0,0,0-.57568-.45569,10.29218,10.29218,0,0,0,1.751-3.778l.92358.10791c-.012.09595-.084.14392-.22778.15589q-.108.39586-.252.82763h1.55909l.12011-.036.55152.34778a.22881.22881,0,0,1-.16773.084,11.73887,11.73887,0,0,1-.81567,1.58313h1.46313v4.6654Zm1.93091-4.6654a7.93492,7.93492,0,0,0,.6477-1.31922h-1.40332a11.65884,11.65884,0,0,1-.61157,1.31922Zm-1.27124,2.00293h1.06738v-1.31934h-1.06738Zm1.06738.64758h-1.06738v1.34326h1.06738Zm-.03589,2.63855a9.60274,9.60274,0,0,1,.20386,2.19482c-.37183.048-.4917.0719-.61157.084.012-.132.012-.28784.012-.45581a10.7959,10.7959,0,0,0-.156-1.751Zm1.03149,2.13489A8.38856,8.38856,0,0,0,433.78,220.874l.52759-.10791a7.65462,7.65462,0,0,1,.57568,2.06287Zm.73145-5.421v-1.31934H433.936v1.31934Zm0,1.99084v-1.34326H433.936v1.34326Zm.62378,3.20227a9.2469,9.2469,0,0,0-.80371-1.95495l.52783-.1919a9.64458,9.64458,0,0,1,.8396,1.93091Zm3.66992-6.15259h2.67456v.63562h-6.03271v-.63562h2.57861v-.8396h-1.91895v-.61169h1.91895v-.81543h-2.25488v-.63574h2.25488v-1.21131l1.00732.05994c-.012.084-.07177.14392-.22778.168v.9834h2.37476v.63574H439.345v.81543h1.979v.61169h-1.979Zm1.93091,1.39124v4.82129c0,.75561-.33569.82763-1.64307.82763a2.8957,2.8957,0,0,0-.24-.68371c.26392.01208.50391.02405.68384.02405.39575,0,.4436,0,.4436-.168V220.85h-3.05835v2.75842h-.73144v-5.63684Zm-3.814.63562v1.61914h1.1875v-1.61914Zm1.811,1.61914h1.24731v-1.61914H439.273Z"/>
        <path class="cls-1" d="M445.07349,215.86078a9.4973,9.4973,0,0,1,2.39868,1.12732l-.44385.69568a10.18116,10.18116,0,0,0-2.37476-1.21143Zm.012,7.02807a35.57829,35.57829,0,0,0,2.32666-3.93383l.58765.53979a41.87066,41.87066,0,0,1-2.11084,3.7179.31814.31814,0,0,1,.06.15588.198.198,0,0,1-.06.14392Zm.69556-10.32629a9.2196,9.2196,0,0,1,2.32666,1.28333l-.46753.68359a8.72473,8.72473,0,0,0-2.30274-1.36719Zm6.36865,9.53479h3.658v.7915h-8.14356v-.7915h3.646v-7.55591h-2.79444v-.7915h6.86011v.7915h-3.22607Z"/>
        <path class="cls-1" d="M469.51172,214.16962v.79162h-5.02539v.012h.17993c-.012.084-.084.14392-.23975.168v1.54712h3.93384v4.32959c0,.94751-.38379,1.01941-2.63867,1.01941a3.393,3.393,0,0,0-.28784-.80346c.86352.02392,1.59521.02392,1.823.02392.21582-.02392.27587-.0719.27587-.23987v-3.538h-3.1062v6.16455h-.8396v-6.16455h-2.9143v4.60547h-.81568v-5.3971h3.73v-1.727h-4.98925v-.79162h4.98925v-1.76294l1.09131.05993c-.012.09595-.084.15589-.25171.17994v1.52307Z"/>
        <path class="cls-1" d="M478.40625,217.98358c.24-.57568.47974-1.1394.67163-1.64306l1.00757.20385c-.02417.084-.10816.132-.26392.132l-.56372,1.30725h4.20972v.74365H482.376a5.99921,5.99921,0,0,1-1.43921,2.87842,19.76207,19.76207,0,0,1,2.29077,1.46314l-.62354.56372a16.89991,16.89991,0,0,0-2.26684-1.48719,8.92049,8.92049,0,0,1-3.82593,1.48719,2.20727,2.20727,0,0,0-.39575-.71961,8.20975,8.20975,0,0,0,3.478-1.18738c-.55152-.2998-1.1272-.58764-1.667-.83959l-.22778.45581-.73169-.29981c.32373-.61169.71973-1.45117,1.10352-2.3147h-1.70313l.23975.34778-.46778.63562c-.20385-.4198-.73144-1.27124-1.13916-1.91894v5.79284h-.75561v-5.93676a13.21554,13.21554,0,0,1-1.6311,3.634,3.2851,3.2851,0,0,0-.43189-.70764,14.05986,14.05986,0,0,0,1.967-4.72534h-1.739v-.75562h1.835v-2.63855l.99536.0719c-.012.072-.084.132-.23975.156v2.41064h1.52295v.75562h-1.52295v.98339c.27564.33582.89942,1.21131,1.29517,1.787v-.63562Zm-1.39111-4.97729a12.05311,12.05311,0,0,1,1.10327,2.65063l-.73169.2638a12.18132,12.18132,0,0,0-1.05542-2.69849Zm1.21118,7.2561c.63574.27576,1.31933.59961,1.991.95947a5.18121,5.18121,0,0,0,1.34326-2.49463h-2.62647Zm1.47534-7.63989a13.26575,13.26575,0,0,1,.57568,2.87842l-.80371.13195a13.8535,13.8535,0,0,0-.51562-2.91443Zm1.427,3.86194a24.11607,24.11607,0,0,0,1.42725-3.65809l.97143.38379a.25416.25416,0,0,1-.26367.108,26.88852,26.88852,0,0,1-1.49927,3.442Z"/>
        <path class="cls-1" d="M491.7146,213.09027v8.22754h-4.53345v.92346h-.70776v-9.151Zm-2.98633.73157h-1.54712v2.93835h1.54712Zm-1.54712,3.65808v3.1062h1.54712v-3.1062Zm3.80176-.71973v-2.93835h-1.583v2.93835Zm-1.583,3.82593h1.583v-3.1062h-1.583Zm7.91553-6.64429v.77954h-1.76294v7.77173c0,1.1034-.4917,1.11536-2.86645,1.11536a3.73438,3.73438,0,0,0-.29981-.81555c.45581.012.89941.024,1.27124.024,1.07935,0,1.07935,0,1.07935-.32386v-7.77173h-2.81836v-.77954Z"/>
        <path class="cls-1" d="M505.34668,222.58905h-5.31323v-.61169l.87549-.92347c2.135-2.15881,3.21435-3.46606,3.21435-4.92932a1.61976,1.61976,0,0,0-1.71509-1.84692,3.00261,3.00261,0,0,0-1.79907.74353l-.33569-.69556a3.51229,3.51229,0,0,1,2.32666-.87549,2.39414,2.39414,0,0,1,2.53052,2.55457c0,1.691-1.18726,3.13025-3.04615,5.00122l-.70776.74353v.02405h3.97Z"/>
        <path class="cls-1" d="M519.17969,213.606v.82751H514.3103v7.99964c0,.63562-.168.89953-.62378,1.03137a10.21629,10.21629,0,0,1-2.5664.14392,4.2251,4.2251,0,0,0-.35987-.83948c.62354.012,1.22339.02393,1.667.02393.95947,0,1.04345,0,1.04345-.35974v-7.99964h-4.95312V213.606Z"/>
        <path class="cls-1" d="M523.33691,213.29413h8.1316v10.31433h-.8396V222.757h-6.48829v.85144h-.80371Zm7.292.77954h-6.48829v2.09888h6.48829Zm0,2.86645h-6.48829v2.12281h6.48829Zm-6.48829,5.02527h6.48829v-2.1228h-6.48829Z"/>
        <path class="cls-1" d="M535.7334,213.606h5.26514v.63562l-3.75391,8.34741H536.2251l3.7539-8.13159v-.02393h-4.2456Z"/>
        <path class="cls-1" d="M543.79761,218.5473H547.072v.76758h-3.27441Z"/>
        <path class="cls-1" d="M552.3999,222.58905v-8.04761H552.376l-1.4751.85157-.24-.74366,1.85889-1.04333h.85156v8.983Z"/>
        <path class="cls-1" d="M561.11157,223.60846h-2.99829v-.58765h2.41065V213.0423h-2.41065v-.58765h2.99829Z"/>
      </g>
      <path class="cls-1" d="M146.54272,208.18671l-.7871,6.65234q-.05091.35559-.06983.68555-.019.33032-.019.62207,0,.82543.66015.82519.92652,0,1.67579-1.51074a7.73191,7.73191,0,0,0,.749-3.36426,6.66565,6.66565,0,0,0-1.80274-4.81152,6.01671,6.01671,0,0,0-4.57031-1.8916,6.15646,6.15646,0,0,0-4.875,2.28515,8.30586,8.30586,0,0,0-1.96777,5.63672,9.29766,9.29766,0,0,0,.93945,4.10059,7.11039,7.11039,0,0,0,2.57715,2.88183,6.81922,6.81922,0,0,0,3.65625.92676,10.04436,10.04436,0,0,0,5.07813-1.47265l.292-.165.91406,2.06933-.24121.127a12.45045,12.45045,0,0,1-6.01758,1.58691,9.0241,9.0241,0,0,1-8.6709-5.44629,11.44209,11.44209,0,0,1-.97754-4.6084,10.07088,10.07088,0,0,1,2.67871-7.14746,8.63969,8.63969,0,0,1,6.60157-2.89453,7.99411,7.99411,0,0,1,5.97949,2.48828,8.49007,8.49007,0,0,1,2.4248,6.14453,8.86192,8.86192,0,0,1-1.39648,4.98926,3.98235,3.98235,0,0,1-3.31348,2.09473,2.18078,2.18078,0,0,1-2.09472-1.53614,3.03279,3.03279,0,0,1-2.51368,1.58692,3.09184,3.09184,0,0,1-2.61523-1.49805,6.60755,6.60755,0,0,1-1.02832-3.82129,6.686,6.686,0,0,1,1.23144-4.11328,3.72929,3.72929,0,0,1,3.085-1.66308,2.02557,2.02557,0,0,1,1.11718.27929,3.79074,3.79074,0,0,1,1.05371.99024l.17774-1.02832Zm-2.64062,4.748a4.28958,4.28958,0,0,0-.457-2.09472,1.34715,1.34715,0,0,0-1.18067-.8125,1.82678,1.82678,0,0,0-1.56152,1.09179,6.23951,6.23951,0,0,0-.20312,4.96387q.41894.8888,1.0664.88867.91407,0,1.625-1.21875A5.57881,5.57881,0,0,0,143.9021,212.93475Z"/>
    </g>
    <g>
      <g>
        <g>
          <path class="cls-1" d="M143.768,90.6521v2.62326a3.93449,3.93449,0,0,0-2.20974-.87873,2.2222,2.2222,0,0,0-1.73162.74951,2.65263,2.65263,0,0,0-.672,1.8996,3.27449,3.27449,0,0,0,.47813,1.79622,8.06408,8.06408,0,0,0,.80636,1.0338c.37734.42127.86064.93042,1.45507,1.52485a11.95852,11.95852,0,0,1,2.23559,2.88171,6.34764,6.34764,0,0,1,.59443,2.88171,5.591,5.591,0,0,1-1.30517,3.81213,4.28355,4.28355,0,0,1-3.34692,1.46024,4.64384,4.64384,0,0,1-2.9334-.94334v-2.662a4.57568,4.57568,0,0,0,2.61034,1.04672,2.13086,2.13086,0,0,0,1.71869-.73141,2.96092,2.96092,0,0,0,.62028-1.98231,3.97516,3.97516,0,0,0-.47813-1.95129,8.04276,8.04276,0,0,0-.6849-.95109q-.43806-.535-1.09841-1.194-1.01958-1.008-1.69284-1.7833a8.41276,8.41276,0,0,1-.995-1.35686,5.93853,5.93853,0,0,1-.62028-2.86879,5.39272,5.39272,0,0,1,1.21471-3.70875,4.18635,4.18635,0,0,1,3.29523-1.3827A5.80945,5.80945,0,0,1,143.768,90.6521Z"/>
          <path class="cls-1" d="M156.47858,90.23858H158.572l4.27734,19.9523h-2.662l-.7495-3.88967h-3.95428l-.76242,3.88967h-2.5845Zm2.57157,13.98211-.59443-3.17892q-.59315-3.24484-.96919-6.92645-.1822,1.79493-.4652,3.639c-.18867,1.225-.41352,2.53022-.672,3.90775l-.49106,2.55865Z"/>
          <path class="cls-1" d="M170.776,90.23858h3.64414q4.276,0,4.27734,5.31114a6.32545,6.32545,0,0,1-.55567,3.01093,3.48143,3.48143,0,0,1-1.96421,1.48609,4.28859,4.28859,0,0,1,2.20974,1.65407,5.85832,5.85832,0,0,1,.60736,2.998q0,5.49333-4.70378,5.49205H170.776Zm2.53281,8.78728a2.7179,2.7179,0,0,0,2.171-.72366,4.40835,4.40835,0,0,0,.60736-2.67495q0-3.22932-2.32605-3.23062H173.438a.40276.40276,0,0,0-.12922.01292Zm0,8.86482a2.97732,2.97732,0,0,0,2.28728-.71074,3.93249,3.93249,0,0,0,.6332-2.57157,4.14613,4.14613,0,0,0-.659-2.67495,2.81042,2.81042,0,0,0-2.26143-.77535Z"/>
          <path class="cls-1" d="M190.94281,90.23858h2.09344l4.27734,19.9523h-2.662l-.7495-3.88967h-3.95428l-.76242,3.88967h-2.5845Zm2.57157,13.98211-.59443-3.17892q-.59315-3.24484-.96918-6.92645-.18222,1.79493-.46521,3.639c-.18867,1.225-.41352,2.53022-.672,3.90775l-.49106,2.55865Z"/>
          <path class="cls-1" d="M205.24023,90.23858h7.14613v2.27435h-4.45825V98.832h3.95428v2.27436h-3.95428v6.81014h4.45825v2.27436h-7.14613Z"/>
          <path class="cls-1" d="M264.47167,100.70578q0,5.284-1.17594,7.508a4.10586,4.10586,0,0,1-3.94135,2.22266,4.20065,4.20065,0,0,1-4.09643-2.39065q-1.17465-2.33767-1.17594-8.30915,0-5.32276,1.163-7.5338a4.13881,4.13881,0,0,1,3.98012-2.22267,4.24918,4.24918,0,0,1,3.72167,1.71869,8.119,8.119,0,0,1,1.163,3.26938A34.12525,34.12525,0,0,1,264.47167,100.70578Zm-2.81709.2843a31.90054,31.90054,0,0,0-.46521-6.87476q-.46521-1.70577-1.89961-1.70577a1.90433,1.90433,0,0,0-1.91252,1.56362,27.25615,27.25615,0,0,0-.46521,6.332,25.11618,25.11618,0,0,0,.491,6.07357,1.92807,1.92807,0,0,0,1.88668,1.60238,1.88453,1.88453,0,0,0,1.86084-1.499A19.83779,19.83779,0,0,0,261.65458,100.99008Z"/>
          <path class="cls-1" d="M273.48639,90.23858h2.507l2.67495,7.96024a72.68524,72.68524,0,0,1,2.05467,7.19782q-.32176-2.31441-.47813-4.18688-.15507-1.87247-.15507-3.52784V90.23858h2.7008v19.9523h-2.51988l-3.01094-8.98112c-.27654-.83479-.535-1.69285-.7831-2.57157q-.36441-1.31809-.67714-2.76541c-.01809-.12147-.04652-.26621-.0827-.43937-.04135-.17316-.08529-.36958-.137-.59443.02585.22485.04652.4161.06461.57376.01809.16024.031.29721.03877.40835l.14215,2.02883.14215,2.46819c.00775.137.0155.305.01809.504.00517.199.00775.42128.00775.672l.14215,8.69683h-2.64911Z"/>
          <path class="cls-1" d="M302.23114,100.70578q0,5.284-1.176,7.508a4.10586,4.10586,0,0,1-3.94135,2.22266,4.20065,4.20065,0,0,1-4.09643-2.39065q-1.17465-2.33767-1.17594-8.30915,0-5.32276,1.163-7.5338a4.13881,4.13881,0,0,1,3.98012-2.22267,4.24918,4.24918,0,0,1,3.72167,1.71869,8.119,8.119,0,0,1,1.163,3.26938A34.125,34.125,0,0,1,302.23114,100.70578Zm-2.8171.2843a31.90054,31.90054,0,0,0-.46521-6.87476q-.46521-1.70577-1.8996-1.70577a1.90433,1.90433,0,0,0-1.91253,1.56362,27.25615,27.25615,0,0,0-.46521,6.332,25.11618,25.11618,0,0,0,.491,6.07357,1.92808,1.92808,0,0,0,1.88669,1.60238,1.88453,1.88453,0,0,0,1.86083-1.499A19.83739,19.83739,0,0,0,299.414,100.99008Z"/>
          <path class="cls-1" d="M311.24585,90.23858H314.554a8.30158,8.30158,0,0,1,2.54573.336,4.02061,4.02061,0,0,1,1.70577,1.1501,7.22081,7.22081,0,0,1,1.60238,3.23062,24.33037,24.33037,0,0,1,.47814,5.5179,22.35485,22.35485,0,0,1-.52983,5.37575,5.88361,5.88361,0,0,1-1.70576,3.03678q-1.46154,1.30645-5.2336,1.30517h-2.171Zm2.68788,17.60041q2.454,0,3.2823-1.48609.85289-1.48479.85289-5.77634,0-4.61333-.81412-6.34494A2.99986,2.99986,0,0,0,314.26971,92.5h-.336Z"/>
          <path class="cls-1" d="M329.91365,90.23858h2.63619V104.337a6.91135,6.91135,0,0,0,.38767,2.86878,1.65049,1.65049,0,0,0,1.57654.71074,1.675,1.675,0,0,0,1.5507-.62028,5.60106,5.60106,0,0,0,.38767-2.57157V90.23858h2.63619v14.48609q0,3.25647-.995,4.40656a4.6729,4.6729,0,0,1-3.63122,1.30517,4.17976,4.17976,0,0,1-3.78628-1.67992q-.76373-1.15138-.76243-4.41948Z"/>
          <path class="cls-1" d="M348.51426,90.23858h2.68787v9.666l3.74752-9.666h2.71372l-3.92843,9.666,4.23857,10.28629h-3.02386l-3.74752-10.28629v10.28629h-2.68787Z"/>
          <path class="cls-1" d="M366.00612,90.23858h2.63618V104.337a6.9113,6.9113,0,0,0,.38768,2.86878,1.65047,1.65047,0,0,0,1.57654.71074,1.675,1.675,0,0,0,1.55069-.62028,5.601,5.601,0,0,0,.38768-2.57157V90.23858h2.63618v14.48609q0,3.25647-.995,4.40656a4.67289,4.67289,0,0,1-3.63121,1.30517,4.17977,4.17977,0,0,1-3.78629-1.67992q-.76371-1.15138-.76242-4.41948Z"/>
          <path class="cls-1" d="M384.60672,90.23858h3.54076a4.51693,4.51693,0,0,1,3.26938,1.04672,5.64551,5.64551,0,0,1,1.35686,4.14811,7.13886,7.13886,0,0,1-.7159,3.44255,3.07987,3.07987,0,0,1-2.0495,1.61014l3.67,9.70478h-2.72664l-3.65706-9.76939v9.76939h-2.68788Zm2.68788,8.839a2.84941,2.84941,0,0,0,2.20974-.72366,3.65346,3.65346,0,0,0,.64612-2.44235,8.21555,8.21555,0,0,0-.13439-1.58946,2.85748,2.85748,0,0,0-.429-1.07256,1.688,1.688,0,0,0-.7495-.60736,2.78863,2.78863,0,0,0-1.09066-.19384h-.45228Z"/>
          <path class="cls-1" d="M402.1115,90.23858h2.68788v19.9523H402.1115Z"/>
          <path class="cls-1" d="M426.05684,90.23858H433.203v2.27435h-4.45825V98.832H432.699v2.27436h-3.95427v6.81014H433.203v2.27436h-7.14613Z"/>
          <path class="cls-1" d="M440.667,90.23858h2.61034L444.66,94.1024a20.08716,20.08716,0,0,1,.96919,3.34692q.14343-.65905.3153-1.27933c.11889-.41352.24036-.827.36959-1.24055l.18091-.58151,1.27933-4.10935h2.71372l-3.69583,9.82108,3.69583,10.13122h-2.71372l-1.3181-3.79921c-.2662-.75726-.4833-1.43956-.64612-2.04175a14.45615,14.45615,0,0,1-.34891-1.60239,9.38326,9.38326,0,0,1-.3489,1.65408l-.45229,1.42147-.2326.7495-1.1501,3.6183h-2.843l3.77336-10.13122Z"/>
          <path class="cls-1" d="M458.31133,90.23858h3.54076a4.78188,4.78188,0,0,1,3.72167,1.29225,6.11206,6.11206,0,0,1,1.163,4.13519q0,3.9814-2.339,5.14314a8.547,8.547,0,0,1-3.39861.52982v8.8519h-2.68787Zm2.68787,8.8002a3.11047,3.11047,0,0,0,2.3002-.672,3.53648,3.53648,0,0,0,.64613-2.42942,4.377,4.377,0,0,0-.62028-2.61034A2.2833,2.2833,0,0,0,461.374,92.5h-.37476Z"/>
          <path class="cls-1" d="M485.14613,100.70578q0,5.284-1.17594,7.508a4.10586,4.10586,0,0,1-3.94135,2.22266,4.20064,4.20064,0,0,1-4.09643-2.39065q-1.17465-2.33767-1.17594-8.30915,0-5.32276,1.163-7.5338a4.13881,4.13881,0,0,1,3.98012-2.22267,4.24918,4.24918,0,0,1,3.72167,1.71869,8.11889,8.11889,0,0,1,1.163,3.26938A34.124,34.124,0,0,1,485.14613,100.70578Zm-2.81709.2843a31.90054,31.90054,0,0,0-.46521-6.87476q-.46521-1.70577-1.89961-1.70577a1.90433,1.90433,0,0,0-1.91252,1.56362,27.25615,27.25615,0,0,0-.46521,6.332,25.11618,25.11618,0,0,0,.491,6.07357,1.92807,1.92807,0,0,0,1.88668,1.60238,1.88454,1.88454,0,0,0,1.86084-1.499A19.83779,19.83779,0,0,0,482.329,100.99008Z"/>
        </g>
        <g>
          <path class="cls-1" d="M507.98889,96.78042h-2.58984l-.02539-.77442q0-3.21166.96484-4.51953a3.80956,3.80956,0,0,1,3.27539-1.32031q4.329,0,4.3291,4.79883,0,3.2373-3.2373,9.33105l-1.56152,2.93262-.07618.15234q-.06372.12708-.17773.36817h4.84961v2.25976h-8.60742q.2157-.4823.90136-1.917.68554-1.43445,1.86621-3.87207,1.00269-2.13281,1.67579-3.61816.67272-1.48536,1.01562-2.4375a9.964,9.964,0,0,0,.68555-3.28809q0-2.4375-1.68848-2.4375-1.62525,0-1.625,3.02149l.0127,1.11718Z"/>
          <path class="cls-1" d="M528.634,100.3605q0,5.28149-1.01562,7.61718a3.71588,3.71588,0,0,1-6.84278-.01269q-1.003-2.209-1.00292-7.75684t1.00292-7.75683a3.706,3.706,0,0,1,6.71583-.2793Q528.634,94.29238,528.634,100.3605Zm-2.6914,0a32.873,32.873,0,0,0-.38086-6.14453q-.38087-1.68823-1.38379-1.68848-1.00305,0-1.39649,1.67578a31.73276,31.73276,0,0,0-.38086,6.03027,31.951,31.951,0,0,0,.38086,6.043q.39331,1.67578,1.39649,1.67578.99022,0,1.37109-1.66308A29.171,29.171,0,0,0,525.94263,100.3605Z"/>
          <path class="cls-1" d="M537.32019,96.78042h-2.58984L534.705,96.006q0-3.21166.96484-4.51953a3.80956,3.80956,0,0,1,3.27539-1.32031q4.329,0,4.3291,4.79883,0,3.2373-3.2373,9.33105l-1.56153,2.93262-.07617.15234q-.06372.12708-.17773.36817h4.84961v2.25976h-8.60742q.21569-.4823.90136-1.917.68555-1.43445,1.86621-3.87207,1.00269-2.13281,1.67578-3.61816.67273-1.48536,1.01563-2.4375a9.964,9.964,0,0,0,.68555-3.28809q0-2.4375-1.68848-2.4375-1.62525,0-1.625,3.02149l.0127,1.11718Z"/>
          <path class="cls-1" d="M557.96521,100.3605q0,5.28149-1.01563,7.61718a3.71587,3.71587,0,0,1-6.84277-.01269q-1.003-2.209-1.00293-7.75684t1.00293-7.75683a3.706,3.706,0,0,1,6.71582-.2793Q557.96521,94.29238,557.96521,100.3605Zm-2.69141,0a32.87209,32.87209,0,0,0-.38086-6.14453q-.38085-1.68823-1.38378-1.68848-1.00306,0-1.39649,1.67578a31.7319,31.7319,0,0,0-.38086,6.03027,31.95017,31.95017,0,0,0,.38086,6.043q.39332,1.67578,1.39649,1.67578.99023,0,1.37109-1.66308A29.17122,29.17122,0,0,0,555.2738,100.3605Z"/>
        </g>
        <polygon class="cls-1" points="240.1 110.23 238.291 110.23 237.851 109.359 234.765 98.302 234.765 110.183 232.383 110.183 232.383 90.213 234.98 90.213 239.097 104.961 243.214 90.213 245.812 90.213 245.812 110.183 243.429 110.183 243.429 98.302 240.1 110.23"/>
      </g>
      <g>
        <path class="cls-1" d="M15.27807,32.32427a17.91,17.91,0,0,0-6.22863,1.0338c-4.833,1.79364-7.71472,4.8175-8.56243,8.98629C-.59073,47.66066.09675,51.12905,2.78462,53.941c3.62863,3.78887,9.77714,5.87714,17.31353,5.87714a46.42468,46.42468,0,0,0,11.56044-1.53A2.51132,2.51132,0,0,0,33.23,57.076a2.40007,2.40007,0,0,0,.18867-1.90735l-.641-2.01591c-12.31253,3.838-22.69962,1.70835-26.64614-2.4165-1.95129-2.03658-1.73936-4.32644-1.32584-6.68867.504-2.87654,2.58191-5.12764,5.84354-6.34235,7.87237-2.91531,19.62148,3.53042,19.73778,3.59762l1.1165.61769,3.073-1.67217a1.50218,1.50218,0,0,0,.6668-1.91769l-8.83639-20.822,9.51611-.41094a1.77574,1.77574,0,0,0,1.69543-1.84662L37.497,12.394l-13.02068.56212-.09045-.21063L19.91465,2.21233,15.65282,4.02148l3.88191,9.14911-15.91532.68618.199,4.62624,17.64951-.76113.09046.21064L29.02241,35.52l-.74175-.2998A36.01871,36.01871,0,0,0,15.27807,32.32427Z"/>
        <path class="cls-1" d="M65.52322,60.34794h3.54334a2.25889,2.25889,0,0,0,1.93837-1.11133l2.065-3.52008H70.15463V5.8513H65.52322Z"/>
        <path class="cls-1" d="M91.5129,40.84277a13.16541,13.16541,0,0,0-3.09881.35924,9.52621,9.52621,0,0,0-7.24693,7.29086A9.19352,9.19352,0,0,0,82.63,56.71415a11.67839,11.67839,0,0,0,9.2499,3.99045c2.12446,0,9.13361-.7831,10.07695-10.86263l.05169-.56083.46521.32048a40.4793,40.4793,0,0,1,6.14334,5.275,2.08944,2.08944,0,0,0,2.88688.08012l1.93062-1.69543a44.24088,44.24088,0,0,0-11.2012-9.21889l-.17058-.09563V19.75846h7.066a2.3436,2.3436,0,0,0,2.34155-2.34155V15.12705H102.0628V3.65448H97.43139V15.12705H82.63v4.63141h14.8014V41.8869l-.429-.13439A18.45193,18.45193,0,0,0,91.5129,40.84277Zm.367,15.23042a7.17328,7.17328,0,0,1-5.60318-2.21491,4.76715,4.76715,0,0,1-.61253-4.25925,4.88974,4.88974,0,0,1,3.85349-3.89483,13.01263,13.01263,0,0,1,7.707,1.01829l.20676.08529v.64095C97.43139,56.07319,93.25226,56.07319,91.87989,56.07319Z"/>
        <path class="cls-1" d="M108.25266,10.462h3.29007a1.34209,1.34209,0,0,0,1.34135-1.33877V3.21511h-4.63142Z"/>
        <path class="cls-1" d="M116.63053,10.462h3.29265a1.33987,1.33987,0,0,0,1.33876-1.33877V3.21511h-4.63141Z"/>
        <path class="cls-1" d="M373.1547,10.462h3.29264a1.33988,1.33988,0,0,0,1.33877-1.33877V3.21511H373.1547Z"/>
        <path class="cls-1" d="M381.53515,10.462h3.29006a1.34208,1.34208,0,0,0,1.34135-1.33877V3.21511h-4.63141Z"/>
        <path class="cls-1" d="M148.48807,7.539l16.197,2.40487a2.0117,2.0117,0,0,0,2.29244-1.70318l.38768-2.5832L149.17038,2.958Z"/>
        <path class="cls-1" d="M158.1334,40.86086h.14732c.44453,0,2.72406.05944,3.95686,1.24831a3.12913,3.12913,0,0,1,.88131,2.46561l.03619,5.25686c0,6.5827,5.25427,11.00477,10.16223,11.00477h6.88251a1.1769,1.1769,0,0,0,1.17594-1.17594V56.205h-8.05845a6.05879,6.05879,0,0,1-5.53082-6.36819l-.03618-5.25945a7.82315,7.82315,0,0,0-2.33122-5.8345,8.49858,8.49858,0,0,0-3.073-1.82594l-.46779-.1667,9.635-10.58092a1.478,1.478,0,0,0,.39026-1.00149V20.77417H142.3654v4.63141h23.58093L137.2662,56.90281l2.8326,2.57933a.86464.86464,0,0,0,.57376.20676.78689.78689,0,0,0,.5505-.25845Z"/>
        <path class="cls-1" d="M199.03819,33.65529H209.769V47.23422c0,9.89086,5.51531,15.11929,15.95149,15.11929,10.61711,0,15.45528-7.49245,15.59226-15.02625h-3.03161a1.76464,1.76464,0,0,0-1.72128,1.47316c-.473,3.33142-2.507,8.92168-10.83937,8.92168-7.93439,0-11.32008-3.13758-11.32008-10.48788V33.65529H227.571a1.75984,1.75984,0,0,0,1.76-1.75746v-2.874H214.40043V18.2517h8.31173a1.75984,1.75984,0,0,0,1.76-1.75745v-2.874H214.40043V2.15806H209.769V13.62029h-7.6682V18.2517h7.6682V29.02387H199.03819Z"/>
        <path class="cls-1" d="M291.1456,55.99566l3.073,2.85586c.1654.15507.79344.60736,2.11411-.07753C309.4981,51.97935,313.60486,37.49585,311.85,26.91493c-2.24076-13.51045-11.99108-22.60007-27.29485-22.23958-7.803.18381-14.38271,3.69066-19.02446,10.674a38.63168,38.63168,0,0,0-5.99086,20.92407c0,12.04633,5.43519,20.141,13.52725,20.141,6.44055,0,14.11909-3.869,14.11909-22.30418V9.41273l.36183.03489c13.47615.194,18.40418,10.21522,19.73261,18.222C309.03547,38.2699,304.04481,51.3048,291.1456,55.99566Zm-18.07853-4.21273c-6.14593,0-8.89583-7.78967-8.89583-15.50955a33.90231,33.90231,0,0,1,5.21292-18.36025,18.25418,18.25418,0,0,1,12.79842-8.45646l.37216-.04782V34.11016C282.55474,46.00142,279.45077,51.78293,273.06707,51.78293Z"/>
        <path class="cls-1" d="M342.42714,50.64575l3.09622,3.97754a1.6821,1.6821,0,0,0,1.33619.65388h9.9353c13.734,0,22.96065-12.31512,22.96065-23.8187a17.69121,17.69121,0,0,0-5.31114-13.009c-3.84573-3.65836-9.57813-5.59156-16.5847-5.59156H328.53082v4.63142h29.32884c5.79185,0,10.42327,1.49254,13.39285,4.3161a13.05421,13.05421,0,0,1,3.87157,9.65309c0,9.07416-7.52863,19.18728-18.32923,19.18728Z"/>
        <path class="cls-1" d="M400.89149,33.80777l28.49664,25.129a2.56457,2.56457,0,0,0,3.61053-.22744l1.36979-1.55586-28.84554-25.434V30.36781L434.36069,5.14573,431.31357,1.658,401.66684,27.58689a2.26865,2.26865,0,0,0-.77535,1.70836Z"/>
        <path class="cls-1" d="M456.32889,36.01752h3.50716a2.30754,2.30754,0,0,0,1.84016-.90329l2.87138-3.72813h-3.58728V1.69285h-4.63142Z"/>
        <path class="cls-1" d="M468.538,58.42766l2.05468,2.71631c.54791.65129.98727.73141,2.51213-.106,6.425-3.53558,17.20239-11.52426,17.20239-25.32287V1.96422h-4.63141V35.71513c0,6.25706-3.01094,12.18847-8.70716,17.15587A38.41948,38.41948,0,0,1,468.538,58.42766Z"/>
        <path class="cls-1" d="M518.96153,62.705h3.1841a1.4477,1.4477,0,0,0,1.44731-1.44473V22.74872h3.166a1.446,1.446,0,0,0,1.44473-1.44344v-3.188h-4.61074V1.96422h-4.63141V18.11731h-4.67722v4.63141h4.67722Z"/>
        <path class="cls-1" d="M532.96949,53.54814l4.10934,5.86163a1.4844,1.4844,0,0,0,.964.61253,1.45824,1.45824,0,0,0,1.11392-.24811l2.569-1.8014-4.96481-7.08409Z"/>
        <path class="cls-1" d="M548.2025,59.02468l2.51471,3.84832a1.733,1.733,0,0,0,1.45249.7831h4.15845v-15.675h4.37813a1.66774,1.66774,0,0,0,1.667-1.667V43.34973h-6.04513V39.00261h2.83a2.01491,2.01491,0,0,0,2.01332-2.01333V15.98768H547.84842V11.64057H559.5691a1.66664,1.66664,0,0,0,1.66442-1.66442v-2.967h-13.3851V1.39046H543.217V7.00915H529.3331v4.63142H543.217v4.34711H530.46253V39.00261h21.2342v4.34712h-23.077v4.63141h23.077V59.02468ZM561.75558,7.00915l.031.02843s.49881.45358,1.09065,1.0002a.98465.98465,0,0,0,.72366.23907,1.1685,1.1685,0,0,0,.7676-.292l2.41908-2.6336-4.87177-4.29026-6.93936-.01551,6.81014,5.96372Zm-5.21551,27.362h-8.69165V29.66741h8.69165Zm-13.32306,0h-8.12307V29.66741H543.217ZM556.54007,25.036h-8.69165V20.6191h8.69165Zm-13.32306,0h-8.12307V20.6191H543.217Z"/>
        <path class="cls-1" d="M584.38145,28.14h23.74116a1.84064,1.84064,0,0,0,1.84016-1.83887V23.50856h-9.772v-3.1324h5.94692a1.69035,1.69035,0,0,0,1.87634-1.62565V10.36382H600.1908V7.15388h5.87972A1.84063,1.84063,0,0,0,607.91068,5.315V2.52247H584.38145Zm11.17794-4.63142h-6.54653v-3.1324h6.54653Zm7.82326-6.44056H589.01286V13.672h14.36979Zm-7.82326-6.70418h-6.54653V7.15388h6.54653Z"/>
        <path class="cls-1" d="M610.15144,16.47357l3.31332,1.362a1.05944,1.05944,0,0,0,1.36978-.57118l1.75229-4.27733h14.866a1.08426,1.08426,0,0,0,1.08291-1.08291V8.35567H618.48643l2.10378-5.12246-4.2825-1.76Z"/>
        <path class="cls-1" d="M614.5916,25.3694h15.25886a1.08426,1.08426,0,0,0,1.0829-1.0829V20.738H614.5916Z"/>
        <path class="cls-1" d="M584.91127,59.1384l1.34911,2.15288a2.09442,2.09442,0,0,0,2.87912.66422L604.096,52.60221h8.01969V57.5386c0,1.62306,1.21212,4.36779,5.75825,4.36779h10.84971a5.76306,5.76306,0,0,0,5.67813-5.83061v-2.339H630.8093a1.26214,1.26214,0,0,0-1.039,1.0493v1.28967a1.13783,1.13783,0,0,1-1.04672,1.1992H617.87391a4.98254,4.98254,0,0,1-.85288-.06461l-.274-.04652V52.60221h8.43837a2.26006,2.26006,0,0,0,2.25627-2.25626V30.02407h-38.695V52.60221h6.6163Zm37.899-11.1676H593.37807V45.73521h29.43222Zm0-5.54374H593.37807V40.269h29.43222Zm0-5.4662H593.37807V34.65549h29.43222Z"/>
        <path class="cls-1" d="M649.592,19.12784l2.93082,3.58728,22.193-18.11472,20.89047,17.42079a1.85366,1.85366,0,0,0,2.6-.23261L700,19.64991,676.63617.0672h-3.69066Z"/>
        <path class="cls-1" d="M660.17811,26.88h27.39823a1.83817,1.83817,0,0,0,1.835-1.83629V22.24862H660.17811Z"/>
        <path class="cls-1" d="M652.65206,61.8883h44.78412L689.0159,49.45689a2.13514,2.13514,0,0,0-1.76521-.93818h-4.52287l5.94951,8.73818H662.35426L673.47792,39.3205h20.00915a1.83816,1.83816,0,0,0,1.835-1.83628V34.68909H652.24113V39.3205h15.78868L656.90614,57.25689h-4.25408Z"/>
      </g>
    </g>
  </g>
</svg>
