<svg id="レイヤー_1" data-name="レイヤー 1" xmlns="http://www.w3.org/2000/svg" width="245" height="39" viewBox="0 0 245 39">
  <defs>
    <style>
      .cls-1 {
        fill: #fff;
      }
    </style>
  </defs>
  <title>logo_w</title>
  <g>
    <g>
      <g>
        <path class="cls-1" d="M50.31881,31.8901v.91815a1.37705,1.37705,0,0,0-.77341-.30756.77775.77775,0,0,0-.60606.26233.92839.92839,0,0,0-.23519.66486,1.14607,1.14607,0,0,0,.16735.62868,2.82222,2.82222,0,0,0,.28222.36183c.13207.14744.30123.32564.50928.53369a4.18559,4.18559,0,0,1,.78245,1.0086,2.2217,2.2217,0,0,1,.20806,1.0086,1.95687,1.95687,0,0,1-.45681,1.33425,1.49928,1.49928,0,0,1-1.17143.51108,1.62537,1.62537,0,0,1-1.02669-.33017v-.93171a1.6015,1.6015,0,0,0,.91362.36635.7458.7458,0,0,0,.60154-.256,1.03629,1.03629,0,0,0,.2171-.69381,1.39131,1.39131,0,0,0-.16734-.68295,2.81432,2.81432,0,0,0-.23972-.33288q-.15331-.18724-.38444-.41792-.35685-.35279-.5925-.62415a2.94509,2.94509,0,0,1-.34826-.4749,2.07851,2.07851,0,0,1-.21709-1.00408,1.88738,1.88738,0,0,1,.42515-1.29806,1.46522,1.46522,0,0,1,1.15333-.484A2.03328,2.03328,0,0,1,50.31881,31.8901Z"/>
        <path class="cls-1" d="M54.7675,31.74537h.73271l1.49707,6.98331h-.93171l-.26233-1.36139h-1.384l-.26685,1.36139h-.90457Zm.90005,4.89374-.20805-1.11262q-.2076-1.1357-.33921-2.42426-.06378.62823-.16283,1.27364c-.066.42877-.14473.88558-.23519,1.36772l-.17186.89552Z"/>
        <path class="cls-1" d="M59.7716,31.74537h1.27545q1.49661,0,1.49707,1.8589a2.21388,2.21388,0,0,1-.19449,1.05383,1.21853,1.21853,0,0,1-.68747.52013,1.501,1.501,0,0,1,.77341.57892,2.05039,2.05039,0,0,1,.21257,1.04931q0,1.92267-1.64632,1.92222H59.7716Zm.88648,3.07555a.95123.95123,0,0,0,.75984-.25328,1.54292,1.54292,0,0,0,.21258-.93623q0-1.13027-.81412-1.13072h-.11307a.14109.14109,0,0,0-.04523.00452Zm0,3.10269a1.042,1.042,0,0,0,.80055-.24876,1.37636,1.37636,0,0,0,.22162-.90005,1.45111,1.45111,0,0,0-.23067-.93623.98362.98362,0,0,0-.7915-.27138Z"/>
        <path class="cls-1" d="M66.83,31.74537h.73271l1.49707,6.98331h-.93171l-.26233-1.36139h-1.384l-.26685,1.36139H65.3103Zm.9,4.89374L67.522,35.52649q-.2076-1.1357-.33921-2.42426-.06378.62823-.16283,1.27364c-.066.42877-.14473.88558-.23518,1.36772l-.17187.89552Z"/>
        <path class="cls-1" d="M71.83408,31.74537h2.50115v.796H72.77484v2.21168h1.384v.796h-1.384v2.38355h1.56039v.796H71.83408Z"/>
        <path class="cls-1" d="M92.56509,35.40889a6.04387,6.04387,0,0,1-.41158,2.62779,1.43706,1.43706,0,0,1-1.37948.77793,1.47023,1.47023,0,0,1-1.43375-.83673,7.142,7.142,0,0,1-.41158-2.9082,6.11054,6.11054,0,0,1,.40706-2.63683,1.44859,1.44859,0,0,1,1.393-.77793,1.48721,1.48721,0,0,1,1.30259.60154,2.84176,2.84176,0,0,1,.40706,1.14428A11.944,11.944,0,0,1,92.56509,35.40889Zm-.986.09951a11.1652,11.1652,0,0,0-.16282-2.40617q-.16282-.597-.66486-.597a.66654.66654,0,0,0-.66939.54727,9.53961,9.53961,0,0,0-.16282,2.2162,8.79064,8.79064,0,0,0,.17187,2.12575.67482.67482,0,0,0,.66034.56084.65959.65959,0,0,0,.65129-.52466A6.94331,6.94331,0,0,0,91.5791,35.5084Z"/>
        <path class="cls-1" d="M95.72024,31.74537h.87743l.93624,2.78609a25.44075,25.44075,0,0,1,.71913,2.51923q-.11262-.81-.16734-1.46541-.05429-.65535-.05428-1.23474V31.74537h.94528v6.98331h-.882l-1.05383-3.1434c-.09679-.29217-.18724-.59249-.27408-.90005q-.12754-.46132-.237-.96789c-.00633-.04251-.01628-.09317-.029-.15378-.01447-.0606-.02985-.12935-.04794-.20805.00905.0787.01628.14564.02262.20082.00633.05608.01085.104.01356.14292l.04976.71009.04975.86387c.00271.04794.00542.10674.00633.17639.00181.06965.00271.14744.00271.23519l.04975,3.04389h-.92718Z"/>
        <path class="cls-1" d="M105.7809,35.40889a6.04387,6.04387,0,0,1-.41158,2.62779,1.43706,1.43706,0,0,1-1.37948.77793,1.47023,1.47023,0,0,1-1.43375-.83673,7.142,7.142,0,0,1-.41158-2.9082,6.11054,6.11054,0,0,1,.40706-2.63683,1.44859,1.44859,0,0,1,1.393-.77793,1.48721,1.48721,0,0,1,1.30259.60154,2.84161,2.84161,0,0,1,.40706,1.14428A11.944,11.944,0,0,1,105.7809,35.40889Zm-.986.09951a11.1652,11.1652,0,0,0-.16282-2.40617q-.16283-.597-.66486-.597a.66654.66654,0,0,0-.66939.54727,9.54019,9.54019,0,0,0-.16282,2.2162,8.79064,8.79064,0,0,0,.17187,2.12575.67483.67483,0,0,0,.66034.56084.65959.65959,0,0,0,.65129-.52466A6.94291,6.94291,0,0,0,104.79491,35.5084Z"/>
        <path class="cls-1" d="M108.93605,31.74537h1.15785a2.90547,2.90547,0,0,1,.891.1176,1.40714,1.40714,0,0,1,.597.40253,2.52723,2.52723,0,0,1,.56084,1.13072,8.51583,8.51583,0,0,1,.16735,1.93126,7.82452,7.82452,0,0,1-.18544,1.88151,2.05934,2.05934,0,0,1-.597,1.06288,2.78341,2.78341,0,0,1-1.83176.45681h-.75984Zm.94075,6.16014a1.19694,1.19694,0,0,0,1.14881-.52012,4.57425,4.57425,0,0,0,.29851-2.02173,5.87318,5.87318,0,0,0-.28494-2.22072,1.05,1.05,0,0,0-1.04478-.60607h-.1176Z"/>
        <path class="cls-1" d="M115.46978,31.74537h.92266v4.93445a2.41885,2.41885,0,0,0,.13569,1.00407.57766.57766,0,0,0,.55179.24876.58623.58623,0,0,0,.54274-.2171,1.9603,1.9603,0,0,0,.13569-.90005V31.74537h.92266V36.8155a2.45339,2.45339,0,0,1-.34826,1.5423,1.63551,1.63551,0,0,1-1.27092.45681,1.46292,1.46292,0,0,1-1.3252-.588,3.067,3.067,0,0,1-.26685-1.54682Z"/>
        <path class="cls-1" d="M121.98,31.74537h.94076v3.38311l1.31163-3.38311h.9498l-1.37495,3.38311,1.4835,3.6002h-1.05835l-1.31163-3.6002v3.6002H121.98Z"/>
        <path class="cls-1" d="M128.10214,31.74537h.92267v4.93445a2.4189,2.4189,0,0,0,.13568,1.00407.57768.57768,0,0,0,.55179.24876.58622.58622,0,0,0,.54274-.2171,1.9603,1.9603,0,0,0,.13569-.90005V31.74537h.92267V36.8155a2.45338,2.45338,0,0,1-.34827,1.5423,1.63551,1.63551,0,0,1-1.27092.45681,1.46292,1.46292,0,0,1-1.3252-.588,3.067,3.067,0,0,1-.26685-1.54682Z"/>
        <path class="cls-1" d="M134.61235,31.74537h1.23927a1.58093,1.58093,0,0,1,1.14428.36635,1.976,1.976,0,0,1,.4749,1.45184,2.49867,2.49867,0,0,1-.25056,1.2049,1.07794,1.07794,0,0,1-.71733.56354l1.28449,3.39668h-.95432l-1.28-3.41929v3.41929h-.94076Zm.94076,3.09364a.99729.99729,0,0,0,.77341-.25328,1.27871,1.27871,0,0,0,.22614-.85482,2.875,2.875,0,0,0-.047-.55631,1,1,0,0,0-.15016-.3754.59072.59072,0,0,0-.26232-.21257.976.976,0,0,0-.38173-.06785h-.1583Z"/>
        <path class="cls-1" d="M140.739,31.74537h.94075v6.98331H140.739Z"/>
        <path class="cls-1" d="M149.11989,31.74537H151.621v.796h-1.56039v2.21168h1.384v.796h-1.384v2.38355H151.621v.796h-2.50115Z"/>
        <path class="cls-1" d="M154.23345,31.74537h.91361l.48395,1.35234a7.03125,7.03125,0,0,1,.33922,1.17142q.05019-.23067.11035-.44776c.04161-.14473.08413-.28947.12936-.4342l.06332-.20353.44776-1.43827h.9498l-1.29354,3.43738,1.29354,3.54593h-.9498l-.46133-1.32973c-.09317-.265-.16916-.50384-.22614-.71461a5.05729,5.05729,0,0,1-.12212-.56083,3.28354,3.28354,0,0,1-.12212.57892L155.631,37.2l-.08141.26232-.40254,1.26641h-.995l1.32068-3.54593Z"/>
        <path class="cls-1" d="M160.409,31.74537h1.23926a1.67369,1.67369,0,0,1,1.30259.45229,2.13924,2.13924,0,0,1,.407,1.44732q0,1.39349-.81864,1.8001a2.99158,2.99158,0,0,1-1.18951.18543v3.09817H160.409Zm.94075,3.08007a1.08862,1.08862,0,0,0,.80507-.23519,1.23771,1.23771,0,0,0,.22614-.85029,1.532,1.532,0,0,0-.21709-.91362.79916.79916,0,0,0-.683-.28947h-.13116Z"/>
        <path class="cls-1" d="M169.80115,35.40889a6.04387,6.04387,0,0,1-.41158,2.62779,1.43706,1.43706,0,0,1-1.37948.77793,1.47023,1.47023,0,0,1-1.43375-.83673,7.142,7.142,0,0,1-.41158-2.9082,6.11054,6.11054,0,0,1,.40706-2.63683,1.44859,1.44859,0,0,1,1.393-.77793,1.48721,1.48721,0,0,1,1.30259.60154,2.84161,2.84161,0,0,1,.40706,1.14428A11.944,11.944,0,0,1,169.80115,35.40889Zm-.986.09951a11.1652,11.1652,0,0,0-.16282-2.40617q-.16283-.597-.66486-.597a.66654.66654,0,0,0-.66939.54727,9.54019,9.54019,0,0,0-.16282,2.2162,8.79064,8.79064,0,0,0,.17187,2.12575.67483.67483,0,0,0,.66034.56084.65959.65959,0,0,0,.65129-.52466A6.94291,6.94291,0,0,0,168.81516,35.5084Z"/>
      </g>
      <g>
        <path class="cls-1" d="M177.79611,34.035h-.90644l-.00889-.27105a2.75918,2.75918,0,0,1,.3377-1.58183,1.33331,1.33331,0,0,1,1.14638-.46211q1.51515,0,1.51519,1.67959a7.85234,7.85234,0,0,1-1.13306,3.26586l-.54653,1.02642-.02666.05332q-.0223.04447-.06221.12886H179.809V38.665h-3.01259q.07549-.16881.31547-.67095t.65318-1.35523q.35094-.74647.58652-1.26635t.35547-.85313a3.48739,3.48739,0,0,0,.23994-1.15083q0-.85313-.591-.85312-.56884,0-.56875,1.05752l.00444.391Z"/>
        <path class="cls-1" d="M185.02191,35.288a7.2252,7.2252,0,0,1-.35547,2.666,1.30056,1.30056,0,0,1-2.395-.00444,7.27978,7.27978,0,0,1-.351-2.7149,7.28,7.28,0,0,1,.351-2.71489,1.2971,1.2971,0,0,1,2.35054-.09775A6.84651,6.84651,0,0,1,185.02191,35.288Zm-.942,0a11.50506,11.50506,0,0,0-.1333-2.15058q-.1333-.59088-.48433-.591t-.48877.58652a11.107,11.107,0,0,0-.1333,2.1106,11.1833,11.1833,0,0,0,.1333,2.115q.13767.58652.48877.58652.34659,0,.47989-.58208A10.21023,10.21023,0,0,0,184.07992,35.288Z"/>
        <path class="cls-1" d="M188.06207,34.035h-.90645l-.00889-.27105a2.75918,2.75918,0,0,1,.3377-1.58183,1.33332,1.33332,0,0,1,1.14639-.46211q1.51513,0,1.51518,1.67959a7.85229,7.85229,0,0,1-1.133,3.26586l-.54654,1.02642-.02666.05332q-.02231.04447-.0622.12886h1.69736V38.665h-3.0126q.0755-.16881.31548-.67095t.65317-1.35523q.35094-.74647.58653-1.26635t.35547-.85313a3.48739,3.48739,0,0,0,.23994-1.15083q0-.85313-.591-.85312-.56883,0-.56875,1.05752l.00444.391Z"/>
        <path class="cls-1" d="M195.28782,35.288a7.225,7.225,0,0,1-.35547,2.666,1.30056,1.30056,0,0,1-2.395-.00444,7.27978,7.27978,0,0,1-.351-2.7149,7.28,7.28,0,0,1,.351-2.71489,1.2971,1.2971,0,0,1,2.35054-.09775A6.84651,6.84651,0,0,1,195.28782,35.288Zm-.942,0a11.50506,11.50506,0,0,0-.1333-2.15058q-.1333-.59088-.48433-.591t-.48877.58652a11.107,11.107,0,0,0-.1333,2.1106,11.1833,11.1833,0,0,0,.1333,2.115q.13767.58652.48877.58652.34659,0,.47989-.58208A10.21023,10.21023,0,0,0,194.34583,35.288Z"/>
      </g>
      <polygon class="cls-1" points="84.035 38.742 83.402 38.742 83.248 38.437 82.168 34.568 82.168 38.726 81.334 38.726 81.334 31.736 82.243 31.736 83.684 36.898 85.125 31.736 86.034 31.736 86.034 38.726 85.2 38.726 85.2 34.568 84.035 38.742"/>
    </g>
    <g>
      <path class="cls-1" d="M5.34732,11.47537a6.26874,6.26874,0,0,0-2.18.36182,4.25711,4.25711,0,0,0-2.99685,3.1452C-.20675,16.8431.03386,18.057.97462,19.04121c1.27,1.32611,3.422,2.057,6.05973,2.057a16.249,16.249,0,0,0,4.04616-.5355.879.879,0,0,0,.55-.42425.84006.84006,0,0,0,.066-.66757l-.22433-.70557c-4.30939,1.34329-7.94487.59792-9.32615-.84578a2.43227,2.43227,0,0,1-.46405-2.341,2.95046,2.95046,0,0,1,2.04524-2.21982c2.75533-1.02036,6.86752,1.23564,6.90823,1.25916l.39077.21619,1.07554-.58525a.52577.52577,0,0,0,.23338-.6712L9.24241,6.2899l3.33064-.14383a.6215.6215,0,0,0,.5934-.64631l-.04251-1L8.5667,4.6965,8.535,4.62277,6.97013.93619l-1.49164.6332L6.83716,4.77157l-5.57037.24017.06966,1.61918,6.17733-.26639.03166.07372,2.6124,6.15562-.25961-.10493A12.60645,12.60645,0,0,0,5.34732,11.47537Z"/>
      <path class="cls-1" d="M22.93313,21.28365H24.1733a.79061.79061,0,0,0,.67843-.389l.72275-1.232H24.55412V2.20982h-1.621Z"/>
      <path class="cls-1" d="M32.02951,14.45684a4.60784,4.60784,0,0,0-1.08458.12573,3.33416,3.33416,0,0,0-2.53642,2.5518,3.21773,3.21773,0,0,0,.512,2.87745A4.08742,4.08742,0,0,0,32.158,21.40848c.74356,0,3.19676-.27408,3.52693-3.80192l.01809-.19629.16283.11217A14.16742,14.16742,0,0,1,38.016,19.36867a.73131.73131,0,0,0,1.01041.028l.67571-.5934a15.48418,15.48418,0,0,0-3.92042-3.22661l-.0597-.03347V7.07733h2.4731a.82027.82027,0,0,0,.81955-.81954V5.45634H35.722V1.44094H34.101v4.0154H28.9205v1.621H34.101v7.745l-.15016-.047A6.45821,6.45821,0,0,0,32.02951,14.45684Zm.12845,5.33065a2.51063,2.51063,0,0,1-1.96111-.77522,1.66852,1.66852,0,0,1-.21439-1.49074,1.71142,1.71142,0,0,1,1.34872-1.36319,4.55438,4.55438,0,0,1,2.69744.3564l.07237.02985v.22434C34.101,19.78749,32.63829,19.78749,32.158,19.78749Z"/>
      <path class="cls-1" d="M37.88843,3.82358H39.04a.46973.46973,0,0,0,.46948-.46857V1.28716h-1.621Z"/>
      <path class="cls-1" d="M40.82069,3.82358h1.15242a.469.469,0,0,0,.46857-.46857V1.28716h-1.621Z"/>
      <path class="cls-1" d="M130.60414,3.82358h1.15243a.469.469,0,0,0,.46857-.46857V1.28716h-1.621Z"/>
      <path class="cls-1" d="M133.5373,3.82358h1.15152a.46973.46973,0,0,0,.46948-.46857V1.28716h-1.621Z"/>
      <path class="cls-1" d="M51.97082,2.80051l5.669.84171a.70411.70411,0,0,0,.80236-.59612l.13569-.90412-6.3682-.94483Z"/>
      <path class="cls-1" d="M55.34669,14.46317h.05156a2.21348,2.21348,0,0,1,1.3849.43691,1.09518,1.09518,0,0,1,.30846.863l.01267,1.8399a3.75957,3.75957,0,0,0,3.55678,3.85167h2.40888a.41192.41192,0,0,0,.41158-.41158V19.83362H60.66106a2.12058,2.12058,0,0,1-1.93579-2.22887l-.01266-1.8408a2.73809,2.73809,0,0,0-.81593-2.04208,2.97459,2.97459,0,0,0-1.07553-.63908l-.16373-.05834,3.37225-3.70333a.51731.51731,0,0,0,.13659-.35052V7.43283H49.82789v1.621h8.25333l-10.038,11.024.99141.90277a.30264.30264,0,0,0,.20082.07236.27535.27535,0,0,0,.19267-.09045Z"/>
      <path class="cls-1" d="M69.66337,11.94122h3.75579v4.75263c0,3.4618,1.93035,5.29175,5.583,5.29175a5.123,5.123,0,0,0,5.45729-5.25919H83.3984a.61762.61762,0,0,0-.60244.51561,3.43923,3.43923,0,0,1-3.79378,3.12258c-2.777,0-3.962-1.09815-3.962-3.67075V11.94122h4.6097a.616.616,0,0,0,.616-.61511V10.32023H75.04015V6.55h2.90911a.61594.61594,0,0,0,.616-.61511V4.929H75.04015V.91719h-1.621V4.929H70.73529V6.55h2.68387v3.77026H69.66337Z"/>
      <path class="cls-1" d="M101.901,19.76035l1.07554.99955c.05789.05428.2777.21258.73994-.02713A10.6751,10.6751,0,0,0,109.1475,9.58209c-.78427-4.72865-4.19688-7.91-9.5532-7.78385a7.91352,7.91352,0,0,0-6.65856,3.73589,13.521,13.521,0,0,0-2.0968,7.32342c0,4.21622,1.90231,7.04934,4.73453,7.04934,2.2542,0,4.94169-1.35415,4.94169-7.80646V3.45633l.12664.01221c4.71665.06791,6.44146,3.57532,6.90641,6.37769A8.93115,8.93115,0,0,1,101.901,19.76035ZM95.57347,18.2859c-2.15107,0-3.11354-2.72639-3.11354-5.42835a11.8657,11.8657,0,0,1,1.82453-6.42608A6.38892,6.38892,0,0,1,98.7639,3.4717l.13026-.01673v8.64546C98.89416,16.26237,97.80777,18.2859,95.57347,18.2859Z"/>
      <path class="cls-1" d="M119.8495,17.88788,120.93318,19.28a.58871.58871,0,0,0,.46766.22886h3.47736c4.8069,0,8.03622-4.31029,8.03622-8.33655a6.192,6.192,0,0,0-1.85889-4.55317,8.23173,8.23173,0,0,0-5.80465-1.957H114.98579v1.621h10.26509a6.67751,6.67751,0,0,1,4.6875,1.51063,4.569,4.569,0,0,1,1.35505,3.37858c0,3.176-2.635,6.71555-6.41523,6.71555Z"/>
      <path class="cls-1" d="M140.312,11.99459l9.97382,8.79516a.8976.8976,0,0,0,1.26369-.0796l.47943-.54455L141.933,11.2637v-.4731l10.09322-8.82772L150.95975.74215,140.58339,9.81728a.79405.79405,0,0,0-.27137.59793Z"/>
      <path class="cls-1" d="M159.71511,12.768h1.22751a.80762.80762,0,0,0,.644-.31615l1.005-1.30484h-1.25554V.75437h-1.621Z"/>
      <path class="cls-1" d="M163.98832,20.61155l.71913.95071c.19177.22795.34555.256.87925-.03709,2.24876-1.23745,6.02083-4.03349,6.02083-8.863V.84935h-1.621V12.66216a7.97546,7.97546,0,0,1-3.04751,6.00456A13.44667,13.44667,0,0,1,163.98832,20.61155Z"/>
      <path class="cls-1" d="M181.63653,22.10862H182.751a.5067.5067,0,0,0,.50656-.50566V8.12392h1.1081a.50611.50611,0,0,0,.50566-.5052V6.50293h-1.61376V.84935h-1.621V6.50293h-1.637v1.621h1.637Z"/>
      <path class="cls-1" d="M186.53932,18.90372l1.43827,2.05157a.51949.51949,0,0,0,.33741.21438.51034.51034,0,0,0,.38987-.08684l.89914-.63048-1.73768-2.47944Z"/>
      <path class="cls-1" d="M191.87087,20.82051l.88015,1.34691a.60657.60657,0,0,0,.50837.27408h1.45546V16.95527h1.53235a.58371.58371,0,0,0,.58345-.58345V15.33427h-2.1158V13.81278h.99051a.70522.70522,0,0,0,.70466-.70466V5.75756H191.747V4.23607h4.10224a.58332.58332,0,0,0,.58254-.58255V2.61507H191.747V.64853h-1.621V2.61507h-4.85936v1.621H190.126V5.75756h-4.46407v8.05522h7.432v1.52149h-8.07694v1.621h8.07694v3.86524Zm4.74358-18.20544.01086.01s.17458.15876.38173.35007a.34462.34462,0,0,0,.25328.08368.409.409,0,0,0,.26866-.10222l.84668-.92176L196.67054.5332,194.24176.52777l2.38355,2.0873ZM194.789,12.19179H191.747V10.54546H194.789Zm-4.66308,0h-2.84307V10.54546H190.126ZM194.789,8.92447H191.747V7.37855H194.789Zm-4.66308,0h-2.84307V7.37855H190.126Z"/>
      <path class="cls-1" d="M204.53351,10.01086h8.3094a.64422.64422,0,0,0,.64406-.6436V8.38987h-3.42019V7.29352h2.08142a.59162.59162,0,0,0,.65672-.569V3.78921h-2.73814V2.66573h2.0579a.64423.64423,0,0,0,.64406-.64361V1.04473h-8.23523Zm3.91227-1.621H206.1545V7.29352h2.29128Zm2.73815-2.2542H206.1545V4.94706h5.02943Zm-2.73815-2.34646H206.1545V2.66573h2.29128Z"/>
      <path class="cls-1" d="M213.553,5.92762l1.15967.47671a.3708.3708,0,0,0,.47942-.19991l.6133-1.49707h5.2031a.37949.37949,0,0,0,.379-.379v-1.242h-4.91726l.73632-1.79287-1.49887-.616Z"/>
      <path class="cls-1" d="M215.10706,9.04116h5.3406a.37949.37949,0,0,0,.379-.379v-1.242h-5.71962Z"/>
      <path class="cls-1" d="M204.71894,20.86031l.47219.75351a.73305.73305,0,0,0,1.0077.23247l5.23476-3.27365h2.80689v1.72774c0,.56807.42424,1.52873,2.01539,1.52873h3.7974a2.01708,2.01708,0,0,0,1.98734-2.04072v-.81864h-1.25735a.44174.44174,0,0,0-.36364.36726v.45138a.39824.39824,0,0,1-.36635.41972h-3.7974a1.74348,1.74348,0,0,1-.29851-.02261l-.09589-.01628V18.57264h2.95344a.791.791,0,0,0,.78969-.78969V10.6703H206.06133v7.90234H208.377Zm13.26466-3.90866H207.68233v-.78246H217.9836Zm0-1.94031H207.68233V14.256H217.9836Zm0-1.91317H207.68233v-.80688H217.9836Z"/>
      <path class="cls-1" d="M227.35721,6.85662,228.383,8.11216,236.15056,1.772l7.31167,6.09727a.64878.64878,0,0,0,.91-.08141L245,7.03934,236.82266.18539h-1.29173Z"/>
      <path class="cls-1" d="M231.06234,9.56988h9.58938a.64334.64334,0,0,0,.64224-.6427V7.94889H231.06234Z"/>
      <path class="cls-1" d="M228.42822,21.82278h15.67444l-2.9471-4.351a.74728.74728,0,0,0-.61782-.32836h-1.583l2.08233,3.05836H231.824l3.89328-6.27774h7.00321a.64335.64335,0,0,0,.64224-.64269v-.9783H228.2844v1.621h5.526l-3.89328,6.27774h-1.48893Z"/>
    </g>
  </g>
</svg>
