<svg id="レイヤー_1" data-name="レイヤー 1" xmlns="http://www.w3.org/2000/svg" width="92" height="92" viewBox="0 0 92 92">
  <defs>
    <style>
      .cls-1 {
        fill: #ff0;
      }
    </style>
  </defs>
  <title>main_2020</title>
  <g>
    <circle class="cls-1" cx="46" cy="46" r="46"/>
    <g>
      <path d="M22.471,39.40145,19.79129,38.929l.115-.80591q.58594-3.32307,1.82287-4.50027a4.00248,4.00248,0,0,1,3.62988-.76853q4.47914.78978,3.60375,5.75509-.59063,3.34959-5.052,9.06408L21.7601,50.42287l-.10661.14373q-.08911.11986-.25107.34851l5.01782.88478L26.008,54.138l-8.906-1.57037q.31116-.45967,1.28237-1.819.971-1.35914,2.63737-3.6659,1.42659-2.02386,2.394-3.43793.96705-1.41414,1.49556-2.33675A10.46863,10.46863,0,0,0,26.22052,38.031q.4447-2.522-1.30234-2.83009-1.6816-.29652-2.23261,2.82981L22.49488,39.189Z"/>
      <path d="M43.179,46.87227q-.96357,5.46469-2.44055,7.6961a3.90408,3.90408,0,0,1-7.07781-1.26155q-.63483-2.4686.37747-8.20886,1.01214-5.74016,2.45289-7.84291a3.89369,3.89369,0,0,1,6.99972.93627Q44.28613,40.59368,43.179,46.87227Zm-2.78476-.491a34.53725,34.53725,0,0,0,.727-6.42714q-.08607-1.81627-1.12374-1.99951-1.03784-.183-1.75065,1.47913a33.33921,33.33921,0,0,0-1.49425,6.17,33.568,33.568,0,0,0-.70843,6.32205q.10122,1.80567,1.13919,1.98869,1.02458.18066,1.72207-1.47063A30.64839,30.64839,0,0,0,40.39427,46.38124Z"/>
      <path d="M52.81964,44.75274,50.14,44.28025l.115-.80591q.58594-3.32307,1.82286-4.50027a4.0025,4.0025,0,0,1,3.62989-.76853q4.47912.78978,3.60374,5.75509-.59062,3.34959-5.052,9.06409l-2.15072,2.74944-.10661.14373q-.08912.11986-.25106.34851l5.01782.88478-.41228,2.33815-8.906-1.57037q.31118-.45967,1.28238-1.819.971-1.35913,2.63737-3.6659,1.42658-2.02386,2.394-3.43793Q54.73148,47.582,55.26,46.65935a10.46892,10.46892,0,0,0,1.30922-3.27707q.4447-2.522-1.30234-2.83009-1.68162-.29652-2.23261,2.82981l-.19069,1.15826Z"/>
      <path d="M73.52758,52.22354q-.96357,5.46468-2.44055,7.6961a3.90408,3.90408,0,0,1-7.07781-1.26155q-.63483-2.46861.37747-8.20887,1.01214-5.74015,2.45289-7.84291a3.89369,3.89369,0,0,1,6.99972.93627Q74.63468,45.945,73.52758,52.22354Zm-2.78476-.491a34.53725,34.53725,0,0,0,.727-6.42714q-.08607-1.81627-1.12374-1.99951-1.03784-.183-1.75065,1.47913a33.339,33.339,0,0,0-1.49425,6.17,33.56806,33.56806,0,0,0-.70843,6.32206q.10122,1.80567,1.13919,1.98869,1.02458.18066,1.72207-1.47063A30.64839,30.64839,0,0,0,70.74282,51.73251Z"/>
    </g>
  </g>
</svg>
