<svg xmlns="http://www.w3.org/2000/svg" width="48.00659" height="39.81299" viewBox="0 0 48.00659 39.81299">
  <defs>
    <style>
      .cls-1 {
        fill: #fff;
      }
    </style>
  </defs>
  <title>pagetop</title>
  <g id="レイヤー_1" data-name="レイヤー 1">
    <g>
      <polygon class="cls-1" points="44.412 22.061 23.765 1.414 3.119 22.061 2.412 21.354 23.765 0 45.119 21.354 44.412 22.061"/>
      <g>
        <path class="cls-1" d="M2.44849,32.30713c1.71923,0,2.54858.73975,2.54858,2.04883,0,1.28955-.90942,2.09912-2.61841,2.09912H.85938v3.21826H0V32.30713ZM.85938,35.77539H2.33862c1.20948,0,1.759-.52,1.759-1.40918,0-.87988-.49976-1.35937-1.699-1.35937H.85938Z"/>
        <path class="cls-1" d="M11.73706,39.67334h-.90967l-.70947-2.33887H7.48926l-.7395,2.33887H5.90015L8.2688,32.30713H9.36841ZM9.37817,34.86572c-.18969-.61963-.3396-1.18945-.51953-1.88916h-.1499c-.16992.69971-.31982,1.25977-.50977,1.8794l-.53979,1.79883H9.928Z"/>
        <path class="cls-1" d="M17.57715,34.436A1.7774,1.7774,0,0,0,15.78833,32.897c-1.26953,0-2.179,1.06934-2.179,3.09815,0,2.019.8496,3.09814,2.16894,3.09814,1.22925,0,1.82886-1.0791,1.87891-2.41846h-1.949v-.70947h2.76856v3.73779h-.60962l-.1001-1.17919A2.173,2.173,0,0,1,15.70825,39.813c-1.769,0-3.01831-1.3794-3.01831-3.80762,0-2.42871,1.32935-3.82812,3.08838-3.82812a2.61665,2.61665,0,0,1,2.64844,2.03906Z"/>
        <path class="cls-1" d="M25.03711,33.03662H21.26929v2.35889h2.84839V36.125H21.26929v2.81836h3.83789v.73H20.39966V32.30713h4.63745Z"/>
        <path class="cls-1" d="M34.24683,33.04688h-2.3086v6.62646h-.87964V33.04688H28.76978v-.73975h5.47705Z"/>
        <path class="cls-1" d="M41.33618,35.98535c0,2.41846-1.2793,3.82764-3.03833,3.82764-1.769,0-3.03833-1.38916-3.03833-3.80762,0-2.42871,1.28931-3.82812,3.03833-3.82812C40.06689,32.17725,41.33618,33.55664,41.33618,35.98535Zm-5.157.00977c0,2.02881.86938,3.09814,2.11865,3.09814,1.25952,0,2.1189-1.06933,2.1189-3.09814,0-2.03907-.85938-3.09815-2.1189-3.09815C37.04858,32.897,36.1792,33.95605,36.1792,35.99512Z"/>
        <path class="cls-1" d="M45.458,32.30713c1.719,0,2.54858.73975,2.54858,2.04883,0,1.28955-.90942,2.09912-2.61865,2.09912h-1.519v3.21826h-.85962V32.30713ZM43.8689,35.77539h1.47924c1.20923,0,1.759-.52,1.759-1.40918,0-.87988-.49976-1.35937-1.69922-1.35937H43.8689Z"/>
      </g>
    </g>
  </g>
</svg>
