<svg id="レイヤー_1" data-name="レイヤー 1" xmlns="http://www.w3.org/2000/svg" width="202.65662" height="14.90507" viewBox="0 0 202.65662 14.90507">
  <g>
    <path d="M.86694,13.71753A.91847.91847,0,0,1,0,12.78271a.70822.70822,0,0,1,.493-.697c.98584-.3739,3.48462-1.41076,4.72547-1.90381.17-.06787.306-.15295.306-.23791,0-.068-.08509-.136-.306-.221C3.75671,9.196,1.054,8.04016.51,7.83618a.7139.7139,0,0,1-.47595-.6969.89765.89765,0,0,1,.83288-.918.81371.81371,0,0,1,.391.08509c1.81885.84985,3.62061,1.68274,5.38843,2.48169a1.31872,1.31872,0,0,1,.84986,1.17285,1.35867,1.35867,0,0,1-.84986,1.18994C1.2749,13.68359,1.22388,13.71753.86694,13.71753Z"/>
    <path d="M21.14709,6.01733c.03406,1.97181.119,4.41956.221,6.00049a7.14431,7.14431,0,0,1,0,1.47876c-.10193.67993-.49292,1.15589-.9519,1.15589a.9195.9195,0,0,1-.81592-.50989,6.80089,6.80089,0,0,0-1.35986-1.63184c-1.0708-1.054.35705-1.88684.918-1.30884.49292.50989.56091.35694.56091-.08508-.017-.96887-.05091-2.22668-.085-3.46765a18.67913,18.67913,0,0,1-5.52442,5.26953c-1.42785.91785-2.2948-.731-1.20691-1.30884a14.75835,14.75835,0,0,0,5.7284-5.37158c-.83289.08508-1.61487.17005-2.20972.238a12.76687,12.76687,0,0,1-2.24377.187A.83335.83335,0,1,1,14.3988,5.0144a10.51407,10.51407,0,0,0,1.92078-.085c.782-.10193,2.00586-.187,3.21277-.28894q-.02564-.68847-.051-1.122a4.58538,4.58538,0,0,0-.204-1.15576c-.357-1.08789,1.35987-1.35986,1.69983-.425.153.442.136.374.136,1.377,0,.28894.017.71386.017,1.18982l.085-.017a18.37949,18.37949,0,0,1,2.82178-.204.92565.92565,0,0,1,.91784,1.10486c-.10193.459-.595.6969-1.29187.6289a13.26761,13.26761,0,0,0-2.46472,0Z"/>
    <path d="M41.00281,8.46509H40.1189c-3.24671,0-5.7284.15307-7.07129.204-.88391.03405-1.3429.051-1.68274.051-.2041,0-.35706-.017-.54395-.017a.94026.94026,0,0,1-.986-.918c0-.42493.34-.83289,1.0199-.83289h.10205c.62891.03406,1.37683.051,2.05676.051,1.3938,0,5.0315-.204,8.0232-.28894h.03393a.93131.93131,0,0,1,1.037.86682c0,.442-.35706.88391-1.08789.88391Z"/>
    <path d="M48.5011,12.68066c3.56958-1.29187,6.28931-4.9635,7.24121-7.41125.119-.28894-.085-.408-.30591-.391-1.309.06811-3.5697.442-4.74255.578a10.33747,10.33747,0,0,1-2.14185.187.91935.91935,0,1,1,.119-1.81885,16.93138,16.93138,0,0,0,2.09082-.085c1.42786-.102,3.73962-.476,5.64343-.595,1.42786-.085,2.0907.85,1.58081,1.88684-1.78479,3.63758-3.96057,7.3772-8.72009,9.332C47.61707,15.04346,47.02222,13.22461,48.5011,12.68066Zm10.79382-9.128A1.75572,1.75572,0,0,1,57.5271,1.78479a1.77633,1.77633,0,1,1,1.76782,1.76782Zm0-2.63476a.8561.8561,0,0,0-.84985.86694.84166.84166,0,0,0,.84985.85.85622.85622,0,0,0,.867-.85A.87062.87062,0,0,0,59.29492.91785Z"/>
    <path d="M68.88391,7.0033a7.01215,7.01215,0,0,0-2.4137-1.15589c-1.01989-.221-.595-1.9209.6969-1.5979A10.46806,10.46806,0,0,1,69.9718,5.38843a.97671.97671,0,0,1,.28906,1.37683A.917.917,0,0,1,68.88391,7.0033Zm.731,6.40832a3.64977,3.64977,0,0,1-1.63184.544c-1.41089.119-1.61487-1.66578-.527-1.78479a5.87134,5.87134,0,0,0,1.309-.42493A16.63472,16.63472,0,0,0,76.31213,4.2666c.561-1.07092,2.27784-.35705,1.52991,1.00281A19.18218,19.18218,0,0,1,69.61487,13.41162Z"/>
    <path d="M91.01758,8.14209c-.238,2.43079-2.36279,5.37158-5.57544,6.62939-1.64881.646-1.98889-1.24084-.79895-1.61486a6.66007,6.66007,0,0,0,4.57251-5.0824,1.137,1.137,0,0,0-.204-.782.86174.86174,0,0,1-.119-.255c-1.03687.119-2.00574.255-2.75366.34-.96887.10205-1.56384.28906-2.10779.323a.8601.8601,0,1,1-.017-1.7168c.61194-.051,1.3938-.03406,2.14173-.119,1.29187-.136,4.14758-.459,5.9154-.61194a10.17189,10.17189,0,0,1,2.41382-.136c.76489.10205,1.05383.35693,1.03686.84985-.017.425-.391.833-1.12182.833-1.037-.01709-1.95484-.068-2.92383,0-.18689.017-.3739.017-.57788.03393A2.3965,2.3965,0,0,1,91.01758,8.14209Zm-.663-4.33447c-1.00293.068-1.54687.153-2.31176.23791a13.59964,13.59964,0,0,1-2.00586.153c-1.08789-.017-1.35987-1.58081,0-1.63184.595-.017,1.07092.03406,1.68286-.03394.81592-.085,1.58081-.16992,2.60083-.272a7.46662,7.46662,0,0,0,.79883-.153,2.97459,2.97459,0,0,1,.81591-.10205c1.29187.051,1.56385,1.61487-.03393,1.71692C91.34045,3.75659,90.91553,3.77356,90.35461,3.80762Zm3.96058-.67993a6.10057,6.10057,0,0,0-1.10486-1.29187c-.74793-.54395.119-1.37684.81592-.918A5.28046,5.28046,0,0,1,95.42,2.27771C95.89612,3.1106,94.70618,3.89258,94.31519,3.12769Zm2.27783-.714a10.17742,10.17742,0,0,0-1.15589-1.24085c-.76489-.51.068-1.37683.78186-.9519a5.526,5.526,0,0,1,1.44495,1.30884A.69438.69438,0,0,1,96.593,2.4137Z"/>
    <path d="M112.4032,8.46509h-.88391c-3.24671,0-5.7284.15307-7.07129.204-.88391.03405-1.3429.051-1.68274.051-.2041,0-.35706-.017-.54395-.017a.94026.94026,0,0,1-.986-.918c0-.42493.34-.83289,1.0199-.83289h.102c.62891.03406,1.37683.051,2.05676.051,1.3938,0,5.0315-.204,8.0232-.28894h.03393a.93131.93131,0,0,1,1.037.86682c0,.442-.35706.88391-1.08789.88391Z"/>
    <path d="M119.56128,14.60156c-1.46179.50989-2.07385-1.12195-.62891-1.564A12.73838,12.73838,0,0,0,124.52478,9.23a7.9423,7.9423,0,0,0-1.2749-.47583c-.95191-.255-.50989-1.69995.697-1.35986a14.39165,14.39165,0,0,1,1.63184.56091,21.64394,21.64394,0,0,0,1.83569-2.92371.29591.29591,0,0,0-.272-.459c-.73084.017-1.88672.35693-2.70264.391a17.86087,17.86087,0,0,1-3.87561,4.21558c-1.15588.79895-2.17578-.731-1.00293-1.46192a12.89989,12.89989,0,0,0,3.65466-3.9945,5.19946,5.19946,0,0,0,.595-1.46192.89524.89524,0,0,1,1.75074.374,2.28245,2.28245,0,0,1-.16993.73083c.83289-.119,1.7168-.28894,2.53272-.34,1.18994-.068,2.17578.7649,1.54687,1.85279-.79895,1.37695-1.56384,2.65185-2.37976,3.79065a5.31507,5.31507,0,0,1,1.44483,1.173.97774.97774,0,0,1-.068,1.32581.82392.82392,0,0,1-1.22387-.068A7.23155,7.23155,0,0,0,126.00366,10.08,14.1336,14.1336,0,0,1,119.56128,14.60156Z"/>
    <path d="M136.25549,13.75159a10.93179,10.93179,0,0,1-.44189-3.24671c0-2.9917.86682-5.9154.9519-7.08825a.83527.83527,0,0,1,1.66577-.068.42364.42364,0,0,1-.017.136A40.43684,40.43684,0,0,0,137.30945,9.553c0,.6289.11889.697.16992.697.03394,0,.085-.03406.119-.119.527-1.00293.64587-1.20691,1.00281-1.20691a.739.739,0,0,1,.697.71387.52528.52528,0,0,1-.085.306,8.82212,8.82212,0,0,0-1.27491,3.19568c0,.153.017.30591.017.459a.79882.79882,0,0,1-.85.88391A.90853.90853,0,0,1,136.25549,13.75159Zm9.451-.10193c-2.94067,0-5.18445-1.75086-5.18445-2.58374a.852.852,0,0,1,.88392-.79895.99933.99933,0,0,1,.76489.3739,4.33449,4.33449,0,0,0,3.29773,1.13892,10.48824,10.48824,0,0,0,1.44482-.10206.82945.82945,0,0,1,.204-.017.78451.78451,0,0,1,.84986.81591C147.96729,13.3606,147.21936,13.64966,145.70654,13.64966Zm-1.92077-7.46228a9.59527,9.59527,0,0,1-2.2948-.255.78346.78346,0,0,1,.068-1.56384.63766.63766,0,0,1,.16992.017,7.99,7.99,0,0,0,1.64893.17,16.27267,16.27267,0,0,0,2.09082-.17c.0509,0,.10193-.017.153-.017a.7806.7806,0,0,1,.81592.799C146.4375,5.84741,145.96155,6.18738,143.78577,6.18738Z"/>
    <path d="M157.4884,13.80261a.95161.95161,0,0,1-1.01989-.918.87719.87719,0,0,1,.85-.83288c3.21265-.459,6.95227-2.15882,6.95227-4.43653a2.31868,2.31868,0,0,0-2.48181-2.14184,6.66284,6.66284,0,0,0-2.14172.459c-1.61487.56092-3.65467,1.78479-5.38843,2.58374a1.22873,1.22873,0,0,1-.56091.136.91866.91866,0,0,1-.95191-.90088.94517.94517,0,0,1,.66284-.86694c1.63184-.646,4.31763-2.02283,6.01746-2.49878a9.52917,9.52917,0,0,1,2.56677-.42493A3.91376,3.91376,0,0,1,166.1405,7.7002c0,1.25781-.76489,2.46472-2.26074,3.63769A15.84553,15.84553,0,0,1,157.4884,13.80261Z"/>
    <path d="M176.51135,12.98669a3.1829,3.1829,0,0,1-2.02282-.88391c-1.7168-1.47888-2.20972-3.79065-2.48169-5.11645-.136-.646-.323-1.68286-.323-1.81885a.83356.83356,0,0,1,.85-.81592.88938.88938,0,0,1,.84986.79883c.102.544.136,1.122.238,1.66589.6969,3.96058,2.29468,4.11365,2.39673,4.11365.16992,0,.323-.136.476-.54394s.272-.901.476-1.445a.6636.6636,0,0,1,.6289-.47595.92206.92206,0,0,1,.90088.85c0,.05091-.017.085-.017.136-.10192.56091-.442,1.66577-.49292,2.19275A1.40707,1.40707,0,0,1,176.51135,12.98669Zm6.52735-3.85864a5.99428,5.99428,0,0,0-2.22681-3.43371.6779.6779,0,0,1-.28894-.544.73919.73919,0,0,1,.76489-.6969,1.109,1.109,0,0,1,.714.28894c.71387.61206,2.82166,2.48181,2.82166,4.19861a.92857.92857,0,0,1-.93494.96887A.84351.84351,0,0,1,183.0387,9.12805Z"/>
    <path d="M199.97095,14.29553h-.17c-3.6886-.34-6.01733-2.88977-6.01733-5.50744a4.78471,4.78471,0,0,1,1.22388-3.11072.34957.34957,0,0,0,.085-.153.0365.0365,0,0,0-.03394-.03393.57436.57436,0,0,0-.17.06787c-2.6687,1.37695-2.9917,1.47888-3.3656,1.47888a.96751.96751,0,0,1-1.03687-.91785.97443.97443,0,0,1,.78186-.88391c.35694-.119,1.32581-.408,1.83582-.595.79895-.28894,2.20971-.731,3.89258-1.39392a12.97831,12.97831,0,0,1,4.50463-1.05383c.84986,0,1.15577.391,1.15577.83288,0,.867-.71387,1.054-1.35987,1.054a3.12459,3.12459,0,0,1-.39087-.01709,3.28071,3.28071,0,0,0-.408-.017c-2.63476,0-5.2185,2.24378-5.2185,4.52161,0,2.03979,1.93774,3.77356,4.60657,3.77356.84985,0,1.25781.493,1.25781,1.00293C201.1438,13.81958,200.75281,14.29553,199.97095,14.29553Z"/>
  </g>
</svg>
