<svg id="レイヤー_1" data-name="レイヤー 1" xmlns="http://www.w3.org/2000/svg" width="78.25073" height="16.15088" viewBox="0 0 78.25073 16.15088">
  <g>
    <path d="M3.69116,12.08167C2.8269,13.144,1.44043,14.51245.8103,14.51245A.79732.79732,0,0,1,0,13.7561a.75535.75535,0,0,1,.43213-.64819A11.67461,11.67461,0,0,0,3.583,10.24512l-2.34058.054H1.22437a.7.7,0,0,1-.73829-.70215.68.68,0,0,1,.73829-.70214h.01806l2.46668.01794-.01795-.79224V8.10254a.69306.69306,0,0,1,.73816-.72022.69306.69306,0,0,1,.73816.72022v.01794l-.01794.79224L7.3822,8.89478h.01795a.67632.67632,0,0,1,.66626.72021.64581.64581,0,0,1-.66626.68408H7.3822l-2.25061-.054.01795.66626a.66652.66652,0,0,1,.34216-.1261,5.97177,5.97177,0,0,1,1.96252.97229.757.757,0,0,1,.28809.59424.86478.86478,0,0,1-.79224.86425.70188.70188,0,0,1-.46814-.19812,6.682,6.682,0,0,0-1.33239-.99035l.036,3.36706a.68626.68626,0,0,1-.75623.66614.68941.68941,0,0,1-.75622-.68408ZM.95435,7.3103a.69374.69374,0,1,1,0-1.38647H2.77283a.87439.87439,0,0,1-.21607-.36011,4.02763,4.02763,0,0,0-.55822-1.09839.5896.5896,0,0,1-.144-.378.73892.73892,0,0,1,.77429-.64819c.7743,0,1.38636,1.53039,1.38636,1.83654a.769.769,0,0,1-.324.6482h.84619a12.69149,12.69149,0,0,0,.75623-1.99854.67439.67439,0,0,1,.66614-.55822A.86845.86845,0,0,1,6.842,4.1593,5.92527,5.92527,0,0,1,6.0498,5.92383H7.7063a.69374.69374,0,1,1,0,1.38647ZM1.4585,3.223a.69743.69743,0,1,1,0-1.38635H3.61914L3.60107.8103A.76544.76544,0,0,1,4.42932.05408.76544.76544,0,0,1,5.25757.8103V1.83667H7.29224a.6761.6761,0,0,1,.73816.68408.68.68,0,0,1-.73816.70227ZM12.22559,7.05811H10.4071c-.072,2.89892-.41418,6.0498-2.0166,8.24658a1.06435,1.06435,0,0,1-.86425.468A.89761.89761,0,0,1,6.59,14.98047a.70987.70987,0,0,1,.19812-.48609C8.49854,12.47778,8.82263,9.615,8.82263,6.86011c0-.90027-.036-1.78247-.072-2.62879V4.01526c0-1.20642.45007-1.72852,1.65649-2.08862A33.12338,33.12338,0,0,0,13.522.66626a1.09463,1.09463,0,0,1,.4502-.108.93042.93042,0,0,1,.91821.90027.851.851,0,0,1-.57617.79223c-.59412.27-2.61072.91822-3.09692,1.06226a.92282.92282,0,0,0-.79224,1.0083V5.54565l5.14966-.03588a.787.787,0,1,1,0,1.5664H13.86414l.01794,8.24646a.77112.77112,0,0,1-.84619.75623.76551.76551,0,0,1-.82825-.75623Z"/>
    <path d="M27.434,7.65234c-.1261.28809-.27014.59424-.41418.88233h.072c.59424-.01807,1.26049-.01807,1.92663-.01807,1.09827,0,2.25061.01807,3.33094.036A1.711,1.711,0,0,1,34.132,9.921c.036.70227.05408,1.42249.05408,2.1427s-.01807,1.42236-.05408,2.10657a1.78618,1.78618,0,0,1-1.87256,1.56653c-.6842.01794-1.42249.03589-2.16065.03589-1.02624,0-2.05261-.018-2.95288-.054-1.20642-.036-1.85461-.6842-1.8905-1.54846C25.2373,13.77417,25.2373,13.396,25.2373,13c0-.54028,0-1.09839.01807-1.62061-1.36841,1.81861-2.73682,2.97095-3.331,2.97095a.99338.99338,0,0,1-.95435-.91821.65392.65392,0,0,1,.34216-.57617,13.14533,13.14533,0,0,0,4.41126-5.20362l-3.88916.036a.69742.69742,0,1,1,0-1.38635l6.06787.03589V5.56372l-4.19531.01807a.61795.61795,0,1,1,0-1.22437l4.19531.01795V3.61914l-5.14954.01807a.69749.69749,0,1,1,0-1.38648l3.33094.01807a8.7125,8.7125,0,0,0-.82813-.97241A.53027.53027,0,0,1,25.0752.91833c0-.3601.45019-.6842.86425-.6842.72022,0,1.94458,1.65649,1.94458,2.03467H29.7207A11.11349,11.11349,0,0,0,30.53088.57617.7562.7562,0,0,1,31.269.072a.90874.90874,0,0,1,.93628.79224c0,.2522-.126.50415-.77417,1.40454l3.277-.01807a.67467.67467,0,0,1,.72021.70215.67072.67072,0,0,1-.72021.68433l-5.18555-.01807v.75623l4.17725-.01795a.61437.61437,0,1,1,0,1.22437l-4.17725-.01807v.77417L35.66235,6.302a.69456.69456,0,1,1,0,1.38635Zm5.14954,3.9972H26.73169v.82824H32.5835Zm-.01807,1.90857H26.74976l.01806.21606c.01795.6842.27.73828,3.27686.73828,1.96264,0,2.46679,0,2.50281-.73828Zm-.01794-3.115c-.018-.41407-.27015-.6482-.82825-.66614-.77417-.018-1.67456-.036-2.50269-.036-.59424,0-1.17041.01806-1.63855.01806a.74263.74263,0,0,0-.81018.68409v.12609h5.77967Z"/>
    <path d="M50.18665,3.043V4.41138c.45007,0,.95422,0,1.54846.01806a1.80132,1.80132,0,0,1,1.83655,1.56641c.036.55811.036,1.49438.036,2.43066s0,1.87256-.036,2.39478A1.88025,1.88025,0,0,1,51.645,12.60376c-1.02625.03613-1.54834.05408-2.05249.05408-.57617,0-1.11646-.018-2.28674-.05408a1.83207,1.83207,0,0,1-1.99866-1.7644c-.01795-.59424-.03589-1.51246-.03589-2.41285,0-.90014.01794-1.78247.03589-2.28662a1.74878,1.74878,0,0,1,1.90869-1.71045c.50415-.01806.91821-.03613,1.33228-.03613V3.043H43.21851a.77974.77974,0,0,1-.8462-.79224.83253.83253,0,0,1,.8462-.84619H55.75024a.78761.78761,0,0,1,.81031.82813.78316.78316,0,0,1-.81031.8103ZM44.19092,6.0498c-.01807,1.1344-.03613,2.55689-.03613,3.90723,0,.97229,0,1.92651.03613,2.6648.03589.72021.28808,1.11633,1.13428,1.15234,1.06225.036,2.55676.054,4.06921.054,1.49451,0,2.98889-.01794,4.01526-.054a1.109,1.109,0,0,0,1.2063-1.09839c.036-.90015.054-1.96252.054-3.06079,0-1.22437-.01794-2.4668-.054-3.51111v-.036a.80916.80916,0,0,1,.88232-.79224.8556.8556,0,0,1,.91821.82825c.036.79224.036,1.99866.036,3.25891,0,1.2605,0,2.59278-.036,3.65515a2.42369,2.42369,0,0,1-2.55676,2.37671c-1.24231.05408-2.95288.072-4.62732.072s-3.313-.01794-4.42944-.072A2.16617,2.16617,0,0,1,42.4624,13.054c-.01806-1.15235-.03613-2.44874-.03613-3.76319,0-1.09827.01807-2.19653.03613-3.241a.82021.82021,0,0,1,.84619-.84619.83665.83665,0,0,1,.88233.82825Zm4.35718-.306-.90015.018a.71985.71985,0,0,0-.79224.72021c-.01806.28809-.01806.75635-.01806,1.27845H48.5481Zm0,3.313H46.83765c0,.59412,0,1.1344.01806,1.47644.01795.68421.27.72022,1.69239.72022Zm3.43908-1.29638c0-.5221,0-.97229-.01794-1.29639-.01807-.70227-.4502-.73816-1.78259-.73816V7.76038Zm-.79223,3.475c.46814,0,.75622-.162.77429-.72021.01794-.324.01794-.86426.01794-1.45838H50.18665v2.19666Z"/>
    <path d="M64.15259,15.34058,64.38672,6.158C63.10828,7.68835,62.76611,7.7063,62.49609,7.7063a.79639.79639,0,0,1-.54016-1.42236A16.87317,16.87317,0,0,0,65.98914.64819a.749.749,0,0,1,.70227-.468,1.02252,1.02252,0,0,1,1.02624.93628c0,.144-.01794.48608-1.60242,2.7727L65.8811,15.34058a.849.849,0,0,1-.90027.8103.78349.78349,0,0,1-.82824-.79224ZM72.345,7.45435q-.43214.351-.81018.64819a5.37213,5.37213,0,0,1,2.3407,4.59131c0,3.277-2.59278,3.421-3.15088,3.421-.88232,0-1.60254-.162-1.60254-.95423a.71812.71812,0,0,1,.72022-.75634.874.874,0,0,1,.21606.01806,2.748,2.748,0,0,0,.54016.054c1.15234,0,1.71057-.6482,1.71057-2.19653v-.21607a12.03371,12.03371,0,0,1-5.23962,2.88086.71025.71025,0,0,1-.68421-.75635.65668.65668,0,0,1,.48609-.68408A12.19807,12.19807,0,0,0,72.021,10.71326a3.45117,3.45117,0,0,0-.28809-.57618,12.62375,12.62375,0,0,1-4.55542,2.32264.691.691,0,0,1-.6842-.72022.66556.66556,0,0,1,.50415-.66614,10.41756,10.41756,0,0,0,3.92517-1.81848,3.15432,3.15432,0,0,0-.57617-.34216,10.24364,10.24364,0,0,1-3.09693,1.26038.71345.71345,0,0,1-.72021-.73829.59914.59914,0,0,1,.48608-.63012,10.685,10.685,0,0,0,3.36707-1.31446h-.84632c-1.83642-.01794-1.83642-.72021-1.83642-2.10656a1.55631,1.55631,0,0,1-.82837.45007.73766.73766,0,0,1-.72022-.73816.78061.78061,0,0,1,.36011-.63025A10.89331,10.89331,0,0,0,69.77026.4502.75916.75916,0,0,1,70.47241,0a.778.778,0,0,1,.8103.70227,1.28276,1.28276,0,0,1-.27.64819c.54-.01794,1.38635-.01794,1.90844-.01794.41419,0,1.42249,0,1.42249.90015,0,.10815,0,.46826-.70227,1.27844.63025,0,1.22436.01794,1.78259.01794,1.67444,0,1.72852.97241,1.72852,1.81861,0,1.2063-.036,2.12463-1.72852,2.14257-.21606,0-.43213.01807-.6842.01807a11.01775,11.01775,0,0,0,.30615,1.92651,12.25294,12.25294,0,0,0,1.71045-1.13427.68859.68859,0,0,1,.45019-.18006.93632.93632,0,0,1,.84619.91834c0,.324-.198.79223-2.55676,1.74646a6.29131,6.29131,0,0,0,2.37671,2.84485.76408.76408,0,0,1,.37805.64819.91271.91271,0,0,1-.91821.86426c-.88232,0-3.529-2.16065-4.05127-7.67029-.52209-.01794-.8822-.01794-.8822-.01794Zm-.7561-2.61084H69.91431c-.4502,0-.72022.108-.72022.72021,0,.39612.072.70215.75623.70215.50415,0,1.06238.01807,1.63855.01807Zm.37805-1.31446a2.41041,2.41041,0,0,0,.55823-.82812c0-.1261-.1261-.18018-.23413-.18018-.198,0-1.40442.01807-2.07056.03613-.23413.342-.48621.6482-.73828.97217Zm1.04431,2.75489c.66626,0,1.3324-.01807,1.94458-.01807.55811,0,.66626-.198.66626-.72022,0-.64819-.21606-.70214-.70227-.70214-.61218,0-1.26038-.01807-1.90857-.01807Z"/>
  </g>
</svg>
