<svg id="レイヤー_1" data-name="レイヤー 1" xmlns="http://www.w3.org/2000/svg" width="165.67456" height="13.97217" viewBox="0 0 165.67456 13.97217">
  <g>
    <path d="M1.29639,11.81152h.072c.25207,0,.342-.08984.342-.37793.03613-1.76464.05408-3.61914.05408-5.43774,0-1.18823,0-2.37671-.036-3.49292,0-.2522-.072-.41431-.342-.41431H1.35034l-.27.01807A.973.973,0,0,1,0,1.15234.93536.93536,0,0,1,.99023.19824h.09009c.37818.01782.91822.03589,1.4585.03589.66614,0,1.36841-.01807,1.85449-.03589h.036a.95827.95827,0,1,1,.036,1.90845H4.14124c-.28809,0-.37806.144-.37806.39624C3.74512,3.65527,3.72705,4.86157,3.72705,6.104c0,1.72852.01807,3.52906.05408,5.31153,0,.17993.05408.396.28808.396.09,0,.234-.01782.306-.01782h.03614a.97036.97036,0,0,1,1.06225.97217.94272.94272,0,0,1-1.02636.93628h-.072c-.468-.01807-1.0083-.03589-1.54834-.03589-.66626,0-1.29638.01782-1.74658.03589h-.072a.95568.95568,0,1,1,0-1.90845h.072Z"/>
    <path d="M18.45264,12.96387C17.19238,10.94727,13.80737,4.75342,12.835,3.115c-.144-.252-.252-.36011-.324-.36011-.144,0-.144.41407-.144.93628,0,1.42237.03589,5.32959.09,7.72437a.39472.39472,0,0,0,.43213.45019h.036a.942.942,0,1,1,.036,1.87256h-.072c-.46814-.01807-.93628-.03613-1.40442-.03613-.55811,0-1.09839.01806-1.53052.03613A.97792.97792,0,0,1,8.87378,12.802a.9318.9318,0,0,1,.99036-.93628h.09c.05408,0,.1261.01782.18018.01782.198,0,.3601-.072.3601-.41406.018-1.49438.03589-3.07886.03589-4.62744,0-1.53027-.01794-3.00683-.03589-4.28516,0-.37817-.01806-.46826-.34216-.46826-.34216,0-1.18835-.03589-1.18835-.9541A.93541.93541,0,0,1,9.9541.18018h.09009c.23413.01806.43213.01806.59424.01806.342,0,.5581-.01806.81018-.01806a2.97691,2.97691,0,0,1,2.64685,1.53051c1.33227,2.25049,3.88916,7.022,5.13147,8.87647.108.16211.21606.27026.306.27026.144,0,.144-.18017.144-.82837,0-1.36841-.03589-5.18554-.09-7.43628-.01795-.43213-.108-.50415-.45008-.50415h-.16211a.97758.97758,0,0,1-1.08032-.93628.93183.93183,0,0,1,.99024-.93628h.09008c.37818.01807.82825.03614,1.29639.03614.57617,0,1.17041-.01807,1.65649-.03614.48609-.01782,1.08033.18018,1.08033.91846a.962.962,0,0,1-1.04431.9541h-.05408c-.324.0542-.342.21607-.342.39624-.01807,1.08033-.036,2.32276-.036,3.60108,0,2.19653.036,4.44726.05407,6.03174v.03613a1.61926,1.61926,0,0,1-1.6206,1.69238A1.79979,1.79979,0,0,1,18.45264,12.96387Z"/>
    <path d="M30.691,13.7561c-.72021-.01782-1.42249-.03589-2.12463-.03589-.3241,0-.66626,0-.99024.01807a.94161.94161,0,0,1-1.08032-.93628.92853.92853,0,0,1,.99023-.91846h.14405c.23413,0,.43213-.08984.45019-.3601.10791-1.51245.10791-6.57178.10791-9.07471,0-.25195-.09-.41406-.468-.41406-.50415,0-1.15234-.14405-1.15234-.91821a.93707.93707,0,0,1,1.0083-.93628h.072c.48609.01806,1.11621.03588,1.80054.03588,1.38635,0,2.98877-.03588,3.94312-.03588,1.71044,0,2.44873.48608,2.75488,1.63842a5.565,5.565,0,0,1,.162.84619.96881.96881,0,0,1-.99036,1.00831.89887.89887,0,0,1-.90015-.79224c-.144-.7561-.45019-.86426-1.22436-.86426-.63025,0-1.92664-.03589-2.41284-.03589-.61206,0-.6482.054-.66614.50415-.01795.81031-.05408,1.99854-.072,3.20484a.20923.20923,0,0,0,.234.23413c.59423,0,1.6206-.01807,1.92663-.03589.36011-.01807.36011-.18018.36011-.57617V5.27563a.90527.90527,0,0,1,.95422-.95434.888.888,0,0,1,.91834.91846v.072c-.01795.41406-.036.91821-.036,1.38623,0,.59424.01806,1.17041.036,1.56665v.072a.87265.87265,0,0,1-.93628.88208.88327.88327,0,0,1-.93628-.88208v-.072c0-.09009.01794-.19824.01794-.28809,0-.18017-.054-.34228-.3601-.34228-.34205,0-1.35035-.01782-1.92652-.01782-.198,0-.27.054-.27.25195,0,1.63843,0,3.09692.03589,3.511.01807.36011.1261.46827.75635.50415a.89705.89705,0,0,1,.91821.91846.95577.95577,0,0,1-1.02637.9541Z"/>
    <path d="M40.51782,6.98608a6.94119,6.94119,0,1,1,13.88208,0,6.69345,6.69345,0,0,1-6.95007,6.98609A6.67909,6.67909,0,0,1,40.51782,6.98608Zm11.79346,0a4.87051,4.87051,0,1,0-9.7229,0,4.86856,4.86856,0,1,0,9.7229,0Z"/>
    <path d="M67.8623,13.72021c-.46813,0-.91821,0-1.31445.01807h-.072a.84555.84555,0,0,1-.93628-.82837.86934.86934,0,0,1,.68433-.84619c.126-.03613.324-.10815.324-.2522a.25594.25594,0,0,0-.03589-.10791c-1.76465-3.00683-2.6289-4.35742-3.313-4.35742-.19812-.01782-.3601-.01782-.52221-.01782-.55811,0-.90027.01782-.90027.396,0,.93627.036,2.64672.05408,3.8352,0,.27.198.37817.57617.396a.90747.90747,0,0,1,1.0083.88232.92954.92954,0,0,1-.95435.91821h-.072c-.43213-.01782-.90027-.03589-1.35034-.03589-.70227,0-1.31445.01807-1.49451.03589a.90892.90892,0,0,1-1.06237-.88208.92734.92734,0,0,1,1.02636-.90039h.072c.28809,0,.34205-.21606.36011-.43213.036-.77417.054-2.62866.054-4.50122S59.976,3.2771,59.958,2.4668c0-.28809-.072-.43213-.34217-.43213-1.04431,0-1.11633-.73828-1.11633-.93628A.90276.90276,0,0,1,59.4718.18018h.09c.39624.01806.77429.03588,1.15234.03588.84631,0,1.6565-.03588,2.50281-.03588.43213,0,.86426,0,1.29639.03588,3.151.23414,4.05114,2.05274,4.05114,3.457a3.28942,3.28942,0,0,1-2.5747,3.259c-.14405.01807-.27.054-.27.144a.21461.21461,0,0,0,.072.144,17.12266,17.12266,0,0,1,1.42236,1.99854c1.60254,2.57495,1.62048,2.59277,2.25073,2.647a.90664.90664,0,0,1,.93628.90015.99766.99766,0,0,1-1.08032.97241C68.81665,13.72021,68.33044,13.72021,67.8623,13.72021Zm-1.26037-10.011c0-.88233-.68421-1.72852-2.26868-1.81861-.23413-.01806-.66626-.01806-1.09839-.01806-.306,0-.61206,0-.82812.01806-.55823.054-.59424.09009-.59424,1.38648V5.41968c0,.41406.3241.41406,1.4585.41406.41406,0,.86425-.01782,1.18823-.03589A2.23191,2.23191,0,0,0,66.60193,3.70923Z"/>
    <path d="M87.0332.21606h.3241c.46814,0,1.04431-.01782,1.44043-.03588h.05408a.92005.92005,0,0,1,.97216.95434.87911.87911,0,0,1-.77417.91821c-.30615.03589-.32409.126-.32409.43213.036,2.32276.32409,6.58985.4862,9.1106.01795.19824.126.2522.36011.27026h.10791a.90274.90274,0,0,1,.97241.91822.95066.95066,0,0,1-1.0083.95434h-.072c-.46826-.01807-.91833-.03613-1.36841-.03613-.52221,0-1.02636.01806-1.45849.03613a.97785.97785,0,0,1-1.08033-.93628.9317.9317,0,0,1,.99024-.93628h.19812c.18,0,.306-.0542.306-.28808v-.0542c-.162-2.97071-.234-8.39038-.234-8.39038-.01794-.48609-.09-.68433-.18-.68433-.108,0-.25208.2522-.342.63037-.39624,1.49439-2.25074,7.364-2.989,9.3086a1.53554,1.53554,0,0,1-1.38635,1.0083,1.37854,1.37854,0,0,1-1.26038-.99024c-.57617-1.38647-2.16064-7.13013-2.8269-9.25464-.09-.32422-.198-.50415-.28809-.50415-.162,0-.21606.522-.234.68408-.108,1.49439-.306,7.74244-.306,8.19239,0,.25219.126.30615.48609.34228h.036a.942.942,0,1,1,.036,1.87256h-.072c-.46814-.01807-.91821-.03613-1.36841-.03613-.52222,0-1.02637.01806-1.4585.03613a.97792.97792,0,0,1-1.08032-.93628.9318.9318,0,0,1,.99036-.93628h.144c.234,0,.34216-.09009.36011-.3601.1261-2.88086.36011-6.60816.48621-8.9668V2.35889c0-.19825-.03614-.27027-.28809-.27027-1.08032,0-1.1344-.666-1.1344-.9541a.91537.91537,0,0,1,.95422-.95434h.10816c.27.01806.61206.03588.99023.03588.27,0,.55811-.01782.8103-.01782h.09a1.99084,1.99084,0,0,1,1.98059,1.45825c.342,1.08033.91821,3.043,1.4585,4.82544,1.09826,3.60108,1.29638,4.06934,1.47632,4.06934.072,0,.144-.072.19812-.21606.6842-1.6565,2.10656-6.698,2.82678-8.76856A1.91192,1.91192,0,0,1,86.99719.21606Z"/>
    <path d="M103.41162,11.93774a.28115.28115,0,0,0,.27014-.28808c0-.03613-.46814-1.58447-.6842-2.23267a.30569.30569,0,0,0-.28809-.2522H98.58618c-.234.03614-.306.072-.37805.30616-.18.61206-.61218,2.10669-.61218,2.10669a.41152.41152,0,0,0,.41406.3601.92812.92812,0,0,1,1.08032.91822.90467.90467,0,0,1-.99023.90014h-.072c-.4502-.01782-.91822-.03589-1.38648-.03589-.57617,0-1.09827.01807-1.53039.03589h-.072a.91783.91783,0,0,1-.99035-.91821.89917.89917,0,0,1,.97241-.90015h.09c.28808,0,.46814-.30615.54016-.54028,1.04431-3.259,2.71875-7.95825,3.439-10.083A1.564,1.564,0,0,1,100.56689.12622a1.70417,1.70417,0,0,1,1.56641,1.24219c.95435,2.73681,2.71875,7.7063,3.60108,10.02905.054.16211.28808.54028.57617.54028a.94332.94332,0,0,1,1.06225.91822.921.921,0,0,1-1.0083.90014h-.072c-.45007-.01782-.91821-.03589-1.38635-.03589-.57617,0-1.09827.01807-1.5304.03589a.92916.92916,0,0,1-1.04443-.90014.91244.91244,0,0,1,.97241-.91822h.10791ZM102.1333,7.43628c.108-.01807.16211-.03589.16211-.09009,0-.126-1.24243-3.925-1.38647-4.37524-.108-.324-.198-.468-.28809-.468s-.198.17993-.3241.54c-.41418,1.11645-1.36841,4.2854-1.36841,4.2854,0,.054.036.072.18006.10791Z"/>
    <path d="M112.446,1.96265c-1.54858,0-1.6206.01806-1.85461.8103-.05408.16211-.09.36011-.162.57617a.978.978,0,0,1-.95434.73828.93664.93664,0,0,1-.97229-.93628,1.5352,1.5352,0,0,1,.09-.46826c.57618-1.72851.88233-2.52075,2.7909-2.52075h.34216c.55811.01807,1.47632.03613,2.46667.03613,1.20643,0,2.50281-.01806,3.33094-.03613h.18017c1.42237,0,2.17859.41406,2.55664,1.4585.10816.28808.30616.70214.43213,1.08032a1.17992,1.17992,0,0,1,.072.41406.99156.99156,0,0,1-1.94458.23413q-.08092-.297-.162-.54028c-.27014-.82813-.45008-.84619-1.40442-.84619-1.47644,0-1.49439,0-1.49439.39624-.03613,1.33227-.05407,3.25879-.05407,5.16748,0,1.38647.01794,2.75488.036,3.88916,0,.396.18.41406.50415.41406a.96481.96481,0,0,1,1.04431.97241.94542.94542,0,0,1-.99036.9541h-.072c-.45007-.01782-.95422-.03589-1.45837-.03589-.59412,0-1.17029.01807-1.58448.03589a.96491.96491,0,1,1-.072-1.92651h.072c.3241-.01807.50415,0,.50415-.396,0-1.45849.036-3.65527.036-5.86987,0-1.09839,0-2.19653-.036-3.20483C113.68835,1.96265,113.68835,1.96265,112.446,1.96265Z"/>
    <path d="M125.423,11.81152h.072c.25207,0,.34216-.08984.34216-.37793.03589-1.76464.054-3.61914.054-5.43774,0-1.18823,0-2.37671-.036-3.49292,0-.2522-.072-.41431-.34216-.41431h-.03589l-.27014.01807a.973.973,0,0,1-1.08032-.95435.93547.93547,0,0,1,.99035-.9541h.09c.37805.01782.91833.03589,1.45837.03589.66626,0,1.36841-.01807,1.85462-.03589h.036a.95826.95826,0,1,1,.036,1.90845h-.3241c-.28808,0-.37817.144-.37817.39624-.01795,1.15234-.03589,2.35864-.03589,3.60107,0,1.72852.01794,3.52906.054,5.31153,0,.17993.054.396.28809.396.09009,0,.23413-.01782.30615-.01782h.03589a.97047.97047,0,0,1,1.06238.97217.94275.94275,0,0,1-1.02625.93628h-.072c-.46826-.01807-1.0083-.03589-1.54858-.03589-.66614,0-1.29639.01782-1.74646.03589h-.072a.95568.95568,0,1,1,0-1.90845h.072Z"/>
    <path d="M133.68481,6.98608a6.94119,6.94119,0,1,1,13.88208,0,6.94119,6.94119,0,1,1-13.88208,0Zm11.79346,0a4.87051,4.87051,0,1,0-9.7229,0,4.86856,4.86856,0,1,0,9.7229,0Z"/>
    <path d="M161.11914,12.96387c-1.26025-2.0166-4.64526-8.21045-5.61768-9.84888-.144-.252-.252-.36011-.324-.36011-.144,0-.144.41407-.144.93628,0,1.42237.03589,5.32959.09,7.72437a.39473.39473,0,0,0,.43213.45019h.036a.942.942,0,1,1,.036,1.87256h-.072c-.46814-.01807-.93628-.03613-1.40442-.03613-.5581,0-1.09839.01806-1.53051.03613a.97793.97793,0,0,1-1.08033-.93628.9318.9318,0,0,1,.99036-.93628h.09c.05407,0,.12609.01782.18017.01782.198,0,.36011-.072.36011-.41406.01794-1.49438.03589-3.07886.03589-4.62744,0-1.53027-.01795-3.00683-.03589-4.28516,0-.37817-.01807-.46826-.34216-.46826-.34217,0-1.18836-.03589-1.18836-.9541a.93541.93541,0,0,1,.99024-.95434h.09008c.23413.01806.43213.01806.59424.01806.342,0,.55811-.01806.81018-.01806A2.97689,2.97689,0,0,1,156.762,1.71069c1.33228,2.25049,3.88916,7.022,5.13147,8.87647.108.16211.21607.27026.306.27026.14405,0,.14405-.18017.14405-.82837,0-1.36841-.03589-5.18554-.09-7.43628-.01794-.43213-.108-.50415-.45007-.50415h-.16211a.97758.97758,0,0,1-1.08032-.93628.93183.93183,0,0,1,.99023-.93628h.09009c.37817.01807.82824.03614,1.29638.03614.57618,0,1.17041-.01807,1.6565-.03614.48608-.01782,1.08032.18018,1.08032.91846a.962.962,0,0,1-1.04431.9541h-.05408c-.324.0542-.342.21607-.342.39624-.01807,1.08033-.036,2.32276-.036,3.60108,0,2.19653.036,4.44726.05408,6.03174v.03613a1.61926,1.61926,0,0,1-1.62061,1.69238A1.7998,1.7998,0,0,1,161.11914,12.96387Z"/>
  </g>
</svg>
