<svg xmlns="http://www.w3.org/2000/svg" width="550.57" height="81.8" viewBox="0 0 550.57 81.8"><defs><style>.cls-1{fill:#ff0;}.cls-2{fill:#fff;}</style></defs><g id="レイヤー_2" data-name="レイヤー 2"><g id="レイヤー_1-2" data-name="レイヤー 1"><circle class="cls-1" cx="518.23" cy="32.34" r="32.34"/><path class="cls-2" d="M97.72,68.36v1.78a2.69,2.69,0,0,0-1.51-.6,1.49,1.49,0,0,0-1.17.51,1.77,1.77,0,0,0-.46,1.29,2.24,2.24,0,0,0,.32,1.22,6.37,6.37,0,0,0,.55.71c.26.28.59.63,1,1a8.07,8.07,0,0,1,1.52,2,4.3,4.3,0,0,1,.41,2,3.81,3.81,0,0,1-.89,2.59,2.92,2.92,0,0,1-2.28,1,3.14,3.14,0,0,1-2-.64V79.35a3.08,3.08,0,0,0,1.77.72,1.45,1.45,0,0,0,1.17-.5,2,2,0,0,0,.42-1.35,2.81,2.81,0,0,0-.32-1.33,5.63,5.63,0,0,0-.47-.64c-.2-.24-.44-.51-.74-.81-.47-.46-.85-.86-1.15-1.22a5.34,5.34,0,0,1-.68-.92,4,4,0,0,1-.42-2,3.66,3.66,0,0,1,.82-2.52,2.85,2.85,0,0,1,2.24-.94A4,4,0,0,1,97.72,68.36Z"/><path class="cls-2" d="M106.35,68.08h1.43l2.9,13.56h-1.8L108.37,79h-2.69l-.52,2.65H103.4Zm1.75,9.5-.4-2.16q-.4-2.2-.66-4.71c-.08.81-.19,1.64-.32,2.47s-.28,1.72-.45,2.66l-.34,1.74Z"/><path class="cls-2" d="M116.07,68.08h2.48q2.91,0,2.91,3.61a4.27,4.27,0,0,1-.38,2,2.35,2.35,0,0,1-1.34,1,2.94,2.94,0,0,1,1.51,1.13,4,4,0,0,1,.41,2q0,3.73-3.2,3.74h-2.39Zm1.72,6a1.86,1.86,0,0,0,1.48-.49,3,3,0,0,0,.41-1.82c0-1.46-.52-2.2-1.58-2.2h-.31Zm0,6a2,2,0,0,0,1.56-.48,2.7,2.7,0,0,0,.43-1.75,2.78,2.78,0,0,0-.45-1.81,1.87,1.87,0,0,0-1.54-.53Z"/><path class="cls-2" d="M129.78,68.08h1.42l2.91,13.56H132.3L131.79,79H129.1l-.52,2.65h-1.75Zm1.75,9.5-.41-2.16q-.41-2.2-.66-4.71c-.08.81-.18,1.64-.31,2.47s-.28,1.72-.46,2.66l-.33,1.74Z"/><path class="cls-2" d="M139.5,68.08h4.85v1.54h-3v4.3H144v1.54h-2.69v4.63h3v1.55H139.5Z"/><path class="cls-2" d="M179.75,75.19a11.75,11.75,0,0,1-.79,5.1,2.8,2.8,0,0,1-2.68,1.51,2.86,2.86,0,0,1-2.79-1.62,13.91,13.91,0,0,1-.8-5.65,12,12,0,0,1,.79-5.12,2.82,2.82,0,0,1,2.71-1.51,2.88,2.88,0,0,1,2.53,1.17,5.51,5.51,0,0,1,.79,2.22A23.68,23.68,0,0,1,179.75,75.19Zm-1.91.19a21.69,21.69,0,0,0-.32-4.67c-.21-.77-.64-1.16-1.29-1.16a1.3,1.3,0,0,0-1.3,1.06,18.76,18.76,0,0,0-.31,4.31,17.35,17.35,0,0,0,.33,4.13,1.32,1.32,0,0,0,1.28,1.09,1.28,1.28,0,0,0,1.27-1A13.52,13.52,0,0,0,177.84,75.38Z"/><path class="cls-2" d="M185.88,68.08h1.71l1.81,5.41a47.91,47.91,0,0,1,1.4,4.89c-.15-1-.25-2-.32-2.85s-.11-1.64-.11-2.39V68.08h1.84V81.64h-1.72l-2-6.11c-.19-.56-.37-1.15-.54-1.74s-.32-1.23-.46-1.88c0-.09,0-.19,0-.3l-.1-.41c0,.16,0,.29,0,.39s0,.21,0,.28l.1,1.38.1,1.68c0,.09,0,.2,0,.34s0,.29,0,.46l.09,5.91h-1.8Z"/><path class="cls-2" d="M205.42,75.19a11.72,11.72,0,0,1-.8,5.1,2.79,2.79,0,0,1-2.68,1.51,2.85,2.85,0,0,1-2.78-1.62c-.54-1.06-.8-2.94-.8-5.65a11.82,11.82,0,0,1,.79-5.12,2.8,2.8,0,0,1,2.7-1.51,2.88,2.88,0,0,1,2.53,1.17,5.36,5.36,0,0,1,.79,2.22A22.41,22.41,0,0,1,205.42,75.19Zm-1.92.19a21.91,21.91,0,0,0-.31-4.67c-.21-.77-.64-1.16-1.29-1.16a1.3,1.3,0,0,0-1.3,1.06,18.57,18.57,0,0,0-.32,4.31,17.35,17.35,0,0,0,.33,4.13,1.32,1.32,0,0,0,1.29,1.09,1.28,1.28,0,0,0,1.26-1A13.52,13.52,0,0,0,203.5,75.38Z"/><path class="cls-2" d="M211.55,68.08h2.24a5.69,5.69,0,0,1,1.73.22,2.65,2.65,0,0,1,1.16.79,4.81,4.81,0,0,1,1.09,2.19A16.29,16.29,0,0,1,218.1,75a15.28,15.28,0,0,1-.36,3.66,4,4,0,0,1-1.16,2.06,5.42,5.42,0,0,1-3.56.89h-1.47Zm1.82,12a2.33,2.33,0,0,0,2.23-1,8.83,8.83,0,0,0,.58-3.93,11.4,11.4,0,0,0-.55-4.31,2.05,2.05,0,0,0-2-1.18h-.23Z"/><path class="cls-2" d="M224.23,68.08H226v9.58a4.63,4.63,0,0,0,.26,2,1.12,1.12,0,0,0,1.07.48,1.13,1.13,0,0,0,1-.42,3.74,3.74,0,0,0,.27-1.75V68.08h1.79v9.84a4.71,4.71,0,0,1-.68,3,3.17,3.17,0,0,1-2.46.88,2.85,2.85,0,0,1-2.58-1.14,6,6,0,0,1-.52-3Z"/><path class="cls-2" d="M236.88,68.08h1.82v6.57l2.55-6.57h1.84l-2.67,6.57,2.89,7h-2.06l-2.55-7v7h-1.82Z"/><path class="cls-2" d="M248.77,68.08h1.79v9.58a4.63,4.63,0,0,0,.26,2,1.12,1.12,0,0,0,1.07.48,1.15,1.15,0,0,0,1.06-.42,3.92,3.92,0,0,0,.26-1.75V68.08H255v9.84a4.71,4.71,0,0,1-.68,3,3.16,3.16,0,0,1-2.46.88,2.85,2.85,0,0,1-2.58-1.14,6,6,0,0,1-.51-3Z"/><path class="cls-2" d="M261.41,68.08h2.4a3.06,3.06,0,0,1,2.23.71,3.84,3.84,0,0,1,.92,2.82,4.79,4.79,0,0,1-.49,2.34A2.07,2.07,0,0,1,265.08,75l2.49,6.6h-1.85L263.23,75v6.64h-1.82Zm1.82,6a2,2,0,0,0,1.51-.49,2.5,2.5,0,0,0,.44-1.66,5.52,5.52,0,0,0-.1-1.08,1.8,1.8,0,0,0-.29-.73,1.14,1.14,0,0,0-.51-.41,1.82,1.82,0,0,0-.74-.13h-.31Z"/><path class="cls-2" d="M273.31,68.08h1.82V81.64h-1.82Z"/><path class="cls-2" d="M289.58,68.08h4.86v1.54h-3v4.3h2.68v1.54h-2.68v4.63h3v1.55h-4.86Z"/><path class="cls-2" d="M299.51,68.08h1.77l.94,2.62a13.66,13.66,0,0,1,.66,2.28c.07-.3.14-.59.22-.87s.16-.56.25-.85l.12-.39.87-2.79h1.85l-2.52,6.67,2.52,6.89h-1.85l-.89-2.58c-.19-.52-.33-1-.44-1.39a11.14,11.14,0,0,1-.24-1.09,6.53,6.53,0,0,1-.24,1.12l-.31,1-.15.51-.79,2.46h-1.93l2.57-6.89Z"/><path class="cls-2" d="M311.5,68.08h2.41a3.27,3.27,0,0,1,2.53.87,4.17,4.17,0,0,1,.79,2.82c0,1.8-.53,3-1.59,3.49a5.8,5.8,0,0,1-2.31.36v6H311.5Zm1.83,6a2.12,2.12,0,0,0,1.56-.46,2.36,2.36,0,0,0,.44-1.65,3,3,0,0,0-.42-1.77,1.54,1.54,0,0,0-1.33-.57h-.25Z"/><path class="cls-2" d="M329.74,75.19a11.72,11.72,0,0,1-.8,5.1,2.78,2.78,0,0,1-2.68,1.51,2.86,2.86,0,0,1-2.78-1.62,13.91,13.91,0,0,1-.8-5.65,11.82,11.82,0,0,1,.79-5.12,2.81,2.81,0,0,1,2.71-1.51,2.89,2.89,0,0,1,2.53,1.17,5.66,5.66,0,0,1,.79,2.22A23.68,23.68,0,0,1,329.74,75.19Zm-1.91.19a21.69,21.69,0,0,0-.32-4.67c-.21-.77-.64-1.16-1.29-1.16a1.3,1.3,0,0,0-1.3,1.06,18.57,18.57,0,0,0-.32,4.31,16.69,16.69,0,0,0,.34,4.13,1.31,1.31,0,0,0,1.28,1.09,1.27,1.27,0,0,0,1.26-1A13.41,13.41,0,0,0,327.83,75.38Z"/><path class="cls-2" d="M345.27,72.52h-1.76l0-.52a5.37,5.37,0,0,1,.66-3.08,2.59,2.59,0,0,1,2.22-.89c2,0,2.94,1.08,2.94,3.26q0,2.2-2.2,6.34l-1.06,2-.05.11-.12.25h3.3v1.53h-5.85c.09-.21.3-.65.61-1.3s.73-1.53,1.27-2.63l1.14-2.46c.3-.67.53-1.23.69-1.66a6.71,6.71,0,0,0,.46-2.23c0-1.11-.38-1.66-1.15-1.66s-1.1.69-1.1,2.06v.89Z"/><path class="cls-2" d="M359.3,75a14,14,0,0,1-.69,5.17,2.52,2.52,0,0,1-4.65,0,14,14,0,0,1-.68-5.27,14,14,0,0,1,.68-5.27,2.52,2.52,0,0,1,4.56-.19Q359.3,70.83,359.3,75Zm-1.83,0a22.54,22.54,0,0,0-.26-4.18c-.17-.77-.49-1.15-.94-1.15s-.77.38-.95,1.14a21.81,21.81,0,0,0-.26,4.1,22,22,0,0,0,.26,4.11c.18.76.5,1.14.95,1.14s.76-.38.93-1.13A19.7,19.7,0,0,0,357.47,75Z"/><path class="cls-2" d="M365.2,72.52h-1.76V72a5.38,5.38,0,0,1,.65-3.08,2.61,2.61,0,0,1,2.23-.89c2,0,2.94,1.08,2.94,3.26q0,2.2-2.2,6.34l-1.06,2-.05.11-.12.25h3.29v1.53h-5.85c.1-.21.3-.65.61-1.3l1.27-2.63q.69-1.45,1.14-2.46c.31-.67.54-1.23.69-1.66a6.75,6.75,0,0,0,.47-2.23c0-1.11-.38-1.66-1.15-1.66s-1.1.69-1.1,2.06v.89Z"/><path class="cls-2" d="M379.23,75a14,14,0,0,1-.69,5.17,2.35,2.35,0,0,1-2.32,1.54,2.39,2.39,0,0,1-2.33-1.55,14.2,14.2,0,0,1-.68-5.27,14.24,14.24,0,0,1,.68-5.27,2.53,2.53,0,0,1,4.57-.19C379,70.35,379.23,72.21,379.23,75Zm-1.82,0a22.54,22.54,0,0,0-.26-4.18c-.18-.77-.49-1.15-.94-1.15s-.77.38-.95,1.14a21,21,0,0,0-.26,4.1,21.15,21.15,0,0,0,.26,4.11c.18.76.49,1.14.95,1.14s.76-.38.93-1.13A19.7,19.7,0,0,0,377.41,75Z"/><polygon class="cls-2" points="163.19 81.66 161.96 81.66 161.66 81.07 159.56 73.56 159.56 81.63 157.94 81.63 157.94 68.06 159.71 68.06 162.51 78.08 165.31 68.06 167.07 68.06 167.07 81.63 165.45 81.63 165.45 73.56 163.19 81.66"/><path class="cls-2" d="M10.38,28.71a12.17,12.17,0,0,0-4.23.71C2.87,30.64.91,32.69.33,35.52c-.73,3.62-.26,6,1.56,7.89,2.47,2.57,6.65,4,11.77,4a31.59,31.59,0,0,0,7.86-1,1.77,1.77,0,0,0,1.07-.82,1.64,1.64,0,0,0,.12-1.3l-.43-1.37C13.91,45.48,6.85,44,4.17,41.23c-1.33-1.39-1.18-2.94-.9-4.55a5.73,5.73,0,0,1,4-4.31c5.35-2,13.33,2.4,13.41,2.45l.76.42L23.5,34.1A1,1,0,0,0,24,32.8L18,18.64l6.47-.28a1.2,1.2,0,0,0,1.15-1.25l-.08-1.94-8.85.38-.07-.14-3-7.16-2.9,1.23,2.64,6.22-10.82.46.14,3.15,12-.52.06.14,5.08,12-.51-.21A24.62,24.62,0,0,0,10.38,28.71Z"/><path class="cls-2" d="M44.53,47.76h2.41A1.54,1.54,0,0,0,48.26,47l1.4-2.4h-2V10.72H44.53Z"/><path class="cls-2" d="M62.2,34.5a9,9,0,0,0-2.11.25,6.46,6.46,0,0,0-4.92,5,6.26,6.26,0,0,0,1,5.59A7.93,7.93,0,0,0,62.45,48c1.44,0,6.21-.53,6.85-7.38l0-.38.32.22A27.12,27.12,0,0,1,73.82,44a1.43,1.43,0,0,0,2,.06l1.31-1.16a30.3,30.3,0,0,0-7.61-6.26l-.12-.07V20.17h4.8a1.59,1.59,0,0,0,1.59-1.59V17H69.37V9.23H66.22V17H56.16v3.14H66.22v15l-.29-.09A12.54,12.54,0,0,0,62.2,34.5Zm.25,10.36a4.89,4.89,0,0,1-3.81-1.51,3.27,3.27,0,0,1-.42-2.9,3.33,3.33,0,0,1,2.62-2.64,8.84,8.84,0,0,1,5.24.69l.14.06V39C66.22,44.86,63.38,44.86,62.45,44.86Z"/><path class="cls-2" d="M73.58,13.85h2.23a.9.9,0,0,0,.91-.91v-4H73.58Z"/><path class="cls-2" d="M79.27,13.85h2.24a.91.91,0,0,0,.91-.91v-4H79.27Z"/><path class="cls-2" d="M253.62,13.85h2.24a.91.91,0,0,0,.91-.91v-4h-3.15Z"/><path class="cls-2" d="M259.32,13.85h2.24a.91.91,0,0,0,.91-.91v-4h-3.15Z"/><path class="cls-2" d="M100.92,11.87l11,1.63a1.36,1.36,0,0,0,1.56-1.16l.26-1.75L101.39,8.75Z"/><path class="cls-2" d="M107.48,34.52h.1a4.34,4.34,0,0,1,2.69.84,2.13,2.13,0,0,1,.6,1.68l0,3.57a7.3,7.3,0,0,0,6.91,7.48h4.68a.8.8,0,0,0,.8-.8V44.94H117.8A4.11,4.11,0,0,1,114,40.62L114,37a5.28,5.28,0,0,0-1.59-4,5.61,5.61,0,0,0-2.09-1.24l-.32-.12,6.55-7.19a1,1,0,0,0,.27-.68v-3H96.76V24h16L93.3,45.42l1.92,1.75a.57.57,0,0,0,.39.14.54.54,0,0,0,.38-.17Z"/><path class="cls-2" d="M135.28,29.62h7.29v9.23c0,6.72,3.75,10.27,10.85,10.27S163.92,44,164,38.91H162a1.21,1.21,0,0,0-1.17,1c-.32,2.27-1.7,6.07-7.36,6.07-5.4,0-7.7-2.14-7.7-7.13V29.62h8.95a1.2,1.2,0,0,0,1.2-1.2v-2H145.72V19.15h5.65a1.2,1.2,0,0,0,1.2-1.2V16h-6.85V8.21h-3.15V16h-5.21v3.15h5.21v7.32h-7.29Z"/><path class="cls-2" d="M197.88,44.8,200,46.74c.12.11.54.42,1.44-.05,9-4.62,11.74-14.46,10.55-21.65-1.53-9.19-8.15-15.36-18.56-15.12a15.39,15.39,0,0,0-12.93,7.26A26.31,26.31,0,0,0,176.4,31.4c0,8.19,3.7,13.69,9.2,13.69,4.37,0,9.59-2.63,9.59-15.16V13.14l.25,0c9.16.14,12.51,7,13.41,12.39C210,32.75,206.65,41.61,197.88,44.8ZM185.6,41.94c-4.18,0-6-5.3-6-10.54a23.05,23.05,0,0,1,3.54-12.48,12.4,12.4,0,0,1,8.7-5.75l.26,0V29.93C192.05,38,189.94,41.94,185.6,41.94Z"/><path class="cls-2" d="M232.74,41.17l2.1,2.7a1.16,1.16,0,0,0,.91.44h6.75c9.34,0,15.61-8.37,15.61-16.18a12,12,0,0,0-3.61-8.85c-2.61-2.48-6.51-3.8-11.27-3.8H223.29v3.15h19.94c3.93,0,7.08,1,9.1,2.93A8.85,8.85,0,0,1,255,28.13c0,6.16-5.11,13-12.46,13Z"/><path class="cls-2" d="M272.48,29.72,291.84,46.8a1.75,1.75,0,0,0,2.46-.15l.93-1.06L275.62,28.3v-.92l19.6-17.14-2.07-2.37L273,25.49a1.57,1.57,0,0,0-.52,1.16Z"/><path class="cls-2" d="M310.16,31.22h2.38a1.57,1.57,0,0,0,1.25-.61l1.95-2.53H313.3V7.89h-3.14Z"/><path class="cls-2" d="M318.45,46.46l1.4,1.84c.37.44.67.5,1.71-.07,4.36-2.4,11.69-7.83,11.69-17.21V8.08H330.1V31c0,4.25-2,8.28-5.92,11.66A26.39,26.39,0,0,1,318.45,46.46Z"/><path class="cls-2" d="M352.73,49.36h2.16a1,1,0,0,0,1-1V22.21H358a1,1,0,0,0,1-1V19.06h-3.14v-11h-3.14v11h-3.18v3.15h3.18Z"/><path class="cls-2" d="M362.25,43.14l2.79,4a1,1,0,0,0,.65.42,1,1,0,0,0,.76-.17l1.75-1.22-3.38-4.82Z"/><path class="cls-2" d="M372.6,46.86l1.71,2.62a1.19,1.19,0,0,0,1,.53h2.82V39.36h3a1.14,1.14,0,0,0,1.13-1.14v-2h-4.11v-3h1.93a1.36,1.36,0,0,0,1.36-1.37V17.61h-9.05V14.66h8a1.14,1.14,0,0,0,1.13-1.14v-2h-9.1V7.69h-3.15v3.82h-9.44v3.15h9.44v2.95h-8.67V33.25H375v3H359.29v3.15H375v7.5Zm9.21-35.35,0,0,.74.68a.7.7,0,0,0,.5.16.81.81,0,0,0,.52-.2l1.64-1.79-3.31-2.92H377.2l4.63,4.06ZM378.27,30.1h-5.91V26.91h5.91Zm-9.06,0h-5.52V26.91h5.52Zm9.06-6.34h-5.91v-3h5.91Zm-9.06,0h-5.52v-3h5.52Z"/><path class="cls-2" d="M397.19,25.87h16.14a1.25,1.25,0,0,0,1.25-1.25v-1.9h-6.65V20.59H412a1.14,1.14,0,0,0,1.27-1.1v-5.7h-5.32V11.61h4a1.25,1.25,0,0,0,1.25-1.25V8.46h-16Zm7.6-3.15h-4.45V20.59h4.45Zm5.31-4.38h-9.76V16h9.76Zm-5.31-4.55h-4.45V11.61h4.45Z"/><path class="cls-2" d="M414.7,17.94l2.26.93a.73.73,0,0,0,.93-.39l1.19-2.91h10.1a.74.74,0,0,0,.74-.74V12.42h-9.55l1.43-3.48-2.91-1.2Z"/><path class="cls-2" d="M417.72,24h10.37a.74.74,0,0,0,.74-.74V20.84H417.72Z"/><path class="cls-2" d="M397.55,46.94l.92,1.46a1.4,1.4,0,0,0,1.95.45l10.17-6.35H416v3.35c0,1.1.82,3,3.91,3h7.38a3.92,3.92,0,0,0,3.86-4V43.27h-2.44A.85.85,0,0,0,428,44v.88a.77.77,0,0,1-.71.81H420a3.45,3.45,0,0,1-.58,0l-.18,0V42.5h5.73A1.54,1.54,0,0,0,426.46,41V27.15h-26.3V42.5h4.49Zm25.76-7.59h-20V37.83h20Zm0-3.77h-20V34.11h20Zm0-3.72h-20V30.3h20Z"/><path class="cls-2" d="M441.51,19.74l2,2.44L458.59,9.87l14.2,11.84a1.25,1.25,0,0,0,1.76-.16l1.22-1.45L459.89,6.79h-2.51Z"/><path class="cls-2" d="M448.71,25h18.62a1.25,1.25,0,0,0,1.25-1.24v-1.9H448.71Z"/><path class="cls-2" d="M443.59,48.81H474l-5.72-8.45a1.45,1.45,0,0,0-1.2-.64H464l4.05,5.94H450.19l7.56-12.19h13.6a1.25,1.25,0,0,0,1.24-1.25v-1.9H443.31v3.15H454l-7.56,12.19h-2.89Z"/><path d="M508.26,24.14A11.21,11.21,0,0,1,507.5,29,2.66,2.66,0,0,1,505,30.43a2.72,2.72,0,0,1-2.65-1.55,13.07,13.07,0,0,1-.76-5.37,11.35,11.35,0,0,1,.75-4.87,2.69,2.69,0,0,1,2.57-1.43,2.75,2.75,0,0,1,2.41,1.11,5.08,5.08,0,0,1,.75,2.11A21.45,21.45,0,0,1,508.26,24.14Zm-1.82.18a20.43,20.43,0,0,0-.31-4.44c-.2-.73-.61-1.1-1.22-1.1a1.24,1.24,0,0,0-1.24,1,17.63,17.63,0,0,0-.3,4.09,16.34,16.34,0,0,0,.32,3.93,1.23,1.23,0,0,0,1.22,1,1.22,1.22,0,0,0,1.2-1A12.64,12.64,0,0,0,506.44,24.32Z"/><path d="M512.54,17.38h2.29a3.1,3.1,0,0,1,2.41.83,3.94,3.94,0,0,1,.75,2.67c0,1.72-.51,2.83-1.51,3.33a5.53,5.53,0,0,1-2.2.34v5.72h-1.74Zm1.74,5.68a2,2,0,0,0,1.49-.43,2.35,2.35,0,0,0,.41-1.57,2.83,2.83,0,0,0-.4-1.69,1.47,1.47,0,0,0-1.26-.53h-.24Z"/><path d="M521.89,17.38h4.62v1.47h-2.88v4.08h2.55V24.4h-2.55v4.4h2.88v1.47h-4.62Z"/><path d="M530.67,17.38h1.62L534,22.52c.5,1.45.94,3,1.33,4.65-.14-1-.25-1.9-.31-2.7s-.1-1.57-.1-2.28V17.38h1.74V30.27h-1.63l-1.94-5.8c-.18-.54-.35-1.1-.51-1.67s-.3-1.16-.44-1.78c0-.08,0-.18,0-.29s-.05-.24-.09-.38c0,.14,0,.27,0,.37s0,.19,0,.26l.09,1.31.09,1.6c0,.09,0,.2,0,.33v.43l.09,5.62h-1.71Z"/><path d="M503,35.74h2.14a5.47,5.47,0,0,1,1.64.22,2.65,2.65,0,0,1,1.1.74,4.68,4.68,0,0,1,1,2.09,15.48,15.48,0,0,1,.31,3.57,14.85,14.85,0,0,1-.34,3.47,3.86,3.86,0,0,1-1.11,2,5.14,5.14,0,0,1-3.38.84H503Zm1.74,11.38a2.22,2.22,0,0,0,2.12-1,8.58,8.58,0,0,0,.55-3.73,10.9,10.9,0,0,0-.53-4.11,1.94,1.94,0,0,0-1.93-1.11h-.21Z"/><path d="M515.21,35.74h1.35l2.77,12.9h-1.72l-.49-2.51h-2.55l-.5,2.51H512.4Zm1.66,9-.38-2.05c-.26-1.4-.47-2.89-.63-4.48-.08.77-.18,1.56-.3,2.35s-.27,1.64-.43,2.53l-.32,1.65Z"/><path d="M521.61,35.74h5.65v1.52h-1.94V48.64h-1.71V37.26h-2Z"/><path d="M532.39,35.74h1.35l2.76,12.9h-1.72l-.48-2.51h-2.56l-.49,2.51h-1.67Zm1.66,9-.39-2.05c-.25-1.4-.46-2.89-.62-4.48-.08.77-.18,1.56-.3,2.35s-.27,1.64-.44,2.53L532,44.78Z"/></g></g></svg>