<svg id="レイヤー_1" data-name="レイヤー 1" xmlns="http://www.w3.org/2000/svg" xmlns:xlink="http://www.w3.org/1999/xlink" width="619.56409" height="56.92188" viewBox="0 0 619.56409 56.92188">
  <defs>
    <style>
      .cls-1 {
        fill: none;
      }

      .cls-2 {
        clip-path: url(#clip-path);
      }

      .cls-3 {
        fill: #00a2c2;
      }
    </style>
    <clipPath id="clip-path">
      <path class="cls-1" d="M2152.52548-38.71s-226.27888-64.37728-448-60c-143.07464,2.82462-182,35.3366-347.2788,35.3366-82.23527,0-208.04441-40.74166-355.09724-40.74166-134.6868,0-215.69924,16.2276-215.69924,16.2276V-438.71H2152.52548Z"/>
    </clipPath>
  </defs>
  <g class="cls-2">
    <path class="cls-3" d="M605.9584,33.30907l-.18846.88659.1224.84934.00917.85065-.02966.853-.00221.853.38776.85.59859.663.87319.20975.92852.1499.92747.16178.92888-.08059.93314-.271.93107-.00641.9311.33094.93419-.08886.93263.17852.93195-.38419.93037.30944.93524.05469.93668-.08946.93931-.07386.93931-.03253.86681-.38034.87361-.4961.32559-1.0047-.0235-.84492-.06992-.84935-.05391-.85065.11846-.853-.24577-.88722.99723-.16832.889-.21755.87368-.2644.95-.034.8473-.36878.74822-.57412.85591-.32658.90233-.27381.66167-.67071.85742-.38254.53249-.79909.77835-.49959.63321-.66241.77688-.54117.42956-.83782.47449-.78587.64882-.67438.39318-.83568.56466-.751.33783-.8647.38775-.84687.09015-.94037-.01983-.94581.54918-.82941.14774-.91681-.3297-.94841.01045-.90775.12253-.89049-.01545-.89407.27956-.89686-.20278-.89377.23747-.89275-.16411-.89411.12812-.8982-.19491-.89623.25483-.89624-.08934-.89921.06561-.89773-.24061-.89705.1818-.89555-.16256-.90023-.09572-.90161.09983-.90415-.0275-.90415L637.5053.276l-.75992-.52359-.83316-.38791-.89567-.04212-.896-.0669-.89643.1107-.89711-.17241-.898.172-.89912-.16546-.90047.287-.90206.03734-.90236-.342-.90107.19624-.9-.08625-.89933.24818-.89893-.17809-.89884-.026-.89912-.16363-.89975.35109-.90077-.3387L619.725-.862l-.90387.01568-.90236.11571-.90134.192L616.11652-.694l-.901-.1234-.9017.07652-.90308-.06163-.904-.111-.90268.286-.90216-.29189-.90258.02922-.896.2969-.89694-.197L607.10718-.897l-.90274.24-.90556-.10042-.90243-.0249-.90141.20805-.90278-.186-.90691.06051-.90492.08024-.90493-.08928-.90793-.05758-.90644.13745-.90575-.14484-.90423.22278-.909.07528-.91036-.02548-.91292.02779L592.606-.63663l-.91112.25549-.71156.64074-.36253.93661.07371.8905-.059.89407-.08056.89686.07862.89377-.1461.89275.024.8941.33365.89821-.04684.89622-.27121.89625.16211.89921.22259.89772.03545.89706-.15374.89554.13019.90023-.40906.90161.34122.90415-.20412.90415.27494.90935.07562.9064.04.91454-.0194.9395.18368.908.28451.88149.43819.82146.29684.875.491.78369.44145.80508.57583.7186.52885.74446.658.63908.43121.84053.6636.63695.558.76156.94946.28741.68973.60177.664.66675.78046.50093.88185.3023.85624.337.79345.51832.99481-.10166.87438.2533.88578.22648Zm3.56369,2.48315.16632-1.20545-.11021-1.1586.96619-.02871.92484.02966.92791.00221.92637-.16034.92568.04729.92412-.02373.92895.1499.93038.16178.933-.08059,1.09273-.196.05422,1.2571-.30431,1.05026-.83446.04618-.92484-.17852-.9279.38419-.92637-.30943-.92568-.0547-.92412.08946-.929.07386-.93038.03254-.92651.14828Zm-15.11544-32.795.98333.15824.8947-.12241.896-.00917.89761.02966.89792.00222.89662-.16035.89562.0473.89491-.02373.89449.1499.89442.16178.89469-.08059.89532-.271.89634-.00641.89776.33095.89942-.08886.89791.17852.89691-.38419.89643.30943.89653.0547.89726-.08946.89864-.07386.89959-.03254.89823-.14841.89772.27647.89814.05682.89162-.0235.89253-.06992.89471-.05391.89829.11846.9011-.2515.898.02754.897-.04383.89833-.04318.90245.24933.90045-.05084.90048-.2285.90346.09111.902.20914.9013-.20574.89977.19236.90448-.287.90588.14974.90842-.01943.801.17378.14386.7801.07336.88674-.183.88574.06978.88708-.17149.89115.032.88918-.07157.8892.18994.89214.2473.89068-.3838.89-.02344.88851.405.89315.0138.89453-.12254.89705.01545.897-.30973.8934.1101.91653-.38633.84595-.053.90984-.3942.81651-.15015.90849-.61672.70029-.36081.82062-.5457.70973-.35259.861-.72937.559-.52168.75127-.62178.66967-.78374.47029-.74194.521-.79306.44018-.74909.549-.90944.18229-.87589.23442-.89249.1487-.87144.26209-.915-.07978-.89587.20225-.92853-.16546-.92747.287-.92888.03733-.93313-.342-.93108.19625-.9311-.08626-.93418.24818-.93264-.17809-.93194-.026-.93037-.16364-.93524.3511-.93668-.33871-.93931-.04746-.93931.01567-.90124.08527-.923.0986-.86976-.30722-.84468-.33291-.87866-.19937-.8126-.38793-.75727-.48465-.9226-.19267-.58967-.7374-.7254-.51489-.87315-.36856-.49949-.77813-.507-.743-.734-.56945-.4121-.809-.41972-.79441-.57717-.72641-.16005-.90978-.33063-.84-.29242-.8611-.0654-.907-.03427-.90209-.16779-.89857.14483-.88981-.22278-.88674-.07527-.88574.02548-.88708-.02779-.89115.16321-.88918-.01166-.8892.052-.89214.112-.89068-.0737-.89.059-.88851.08056-.89315-.07862-.89453.14584-.90791Z"/>
  </g>
  <g>
    <path d="M67.60889,6.21655a7.94709,7.94709,0,0,1-1.17615-2.71228,1.02668,1.02668,0,0,1,1.10413-1.0321A1.464,1.464,0,0,1,68.929,3.62427a11.87379,11.87379,0,0,0,.86413,2.04016c.36-.12.72009-.24,1.08008-.384a2.005,2.005,0,0,1,.696-.14393,1.09062,1.09062,0,0,1,1.12806,1.104c0,.91211-.648,1.10412-1.8241,1.44018,2.08813,3.72034,3.28821,5.92847,3.28821,7.44068,0,.96008-.48,1.34411-1.056,1.34411a1.93875,1.93875,0,0,1-1.24817-.504c-.88806-.74414-3.84033-1.29615-5.54444-1.29615-1.92016,0-2.88024.936-2.88024,1.60816,0,1.056,2.0642,1.77612,4.20031,1.77612.384,0,.76807-.024,1.1521-.048H69.001c.936,0,1.39209.552,1.39209,1.1521a1.435,1.435,0,0,1-1.56006,1.368c-4.89649,0-7.77674-1.89612-7.77674-4.05628,0-1.17614,1.2721-3.8164,5.44849-3.8164a30.50035,30.50035,0,0,1,4.44043.52807c.096,0,.168.024.21594.024s.072-.024.072-.04809c0-.048-.048-.96009-2.47216-4.96839a16.36974,16.36974,0,0,1-2.66431.384c-2.78418,0-5.11243-2.37623-5.11243-3.36023a1.081,1.081,0,0,1,1.1521-1.00818,1.46735,1.46735,0,0,1,1.12818.52807,4.12893,4.12893,0,0,0,3.09619,1.65613,2.62207,2.62207,0,0,0,.45605-.02392Z"/>
    <path d="M84.88831,20.35376a1.27182,1.27182,0,0,1-1.176-1.0321,17.548,17.548,0,0,1-.72009-5.23243,26.60852,26.60852,0,0,1,.168-3.12024c.28808-2.68823.84008-5.06445,1.00817-6.55261a1.09961,1.09961,0,0,1,1.104-1.128,1.22273,1.22273,0,0,1,1.24817,1.176c0,.048-.02405.12-.02405.192-.168,1.03211-.6,2.71228-.936,4.46436a23.41347,23.41347,0,0,0-.52807,4.12842c0,.88806.144,1.08007.192,1.08007.072,0,.192-.144.33605-.432.672-1.46411,1.056-1.72815,1.44007-1.72815a1.04727,1.04727,0,0,1,1.00818,1.00805.99439.99439,0,0,1-.12.45606,14.70962,14.70962,0,0,0-1.89624,4.72839c0,.28809.072.576.072.864A1.16868,1.16868,0,0,1,84.88831,20.35376ZM97.5614,3.50427c-.0719.696-.14392,1.44019-.168,2.23218q.61212-.108,1.29615-.21594a1.47294,1.47294,0,0,1,.312-.024,1.09619,1.09619,0,0,1,1.22412,1.0321c0,.504-.40808,1.03211-1.29614,1.1521-.552.072-1.08008.14405-1.56019.21607.024,1.77612.09607,3.5282.21607,4.80029a24.87324,24.87324,0,0,1,.192,2.66431v.264a9.53644,9.53644,0,0,1,2.76025,1.68005,1.34567,1.34567,0,0,1,.45605.98413,1.28324,1.28324,0,0,1-1.22412,1.34412,1.15524,1.15524,0,0,1-.86413-.432,8.142,8.142,0,0,0-1.72815-1.39209A5.55236,5.55236,0,0,1,92.689,20.30579c-1.96813,0-3.72021-1.44019-3.72021-3.00037,0-1.8241,2.23218-2.56812,4.44031-2.56812a11.96885,11.96885,0,0,1,2.23218.24,6.05946,6.05946,0,0,0,.024-.67211c0-.408-.024-.84009-.072-1.34412-.096-1.0321-.21606-2.80823-.288-4.6803-2.49622.528-3.64832,1.12805-4.32044,1.75208a1.14224,1.14224,0,0,1-.76806.33606,1.15986,1.15986,0,0,1-1.10413-1.1521c0-.52808.33606-1.7522,6.14453-3.04834,0-1.00806.02405-1.96814.072-2.73621a1.02461,1.02461,0,0,1,1.10413-.984,1.24891,1.24891,0,0,1,.91211.36.92555.92555,0,0,1,.936-.86414c.384,0,2.9043,1.05615,2.9043,2.13623a.99819.99819,0,0,1-.88806,1.00806.75.75,0,0,1-.576-.288,7.38662,7.38662,0,0,0-1.84814-1.3202.98717.98717,0,0,1-.31214-.19189ZM93.025,16.58545c-1.87219,0-1.96814.6-1.96814.816,0,.288.312.88806,1.36817.88806a3.51323,3.51323,0,0,0,2.66418-1.39209A7.8307,7.8307,0,0,0,93.025,16.58545Zm8.71277-13.77722a7.80372,7.80372,0,0,0-1.87219-1.2721.75187.75187,0,0,1-.552-.696A.89043.89043,0,0,1,100.24963,0c.16809,0,2.95227.84009,2.95227,2.06421a1.01808,1.01808,0,0,1-.91211,1.00806A.711.711,0,0,1,101.73779,2.80823Z"/>
    <path d="M117.52905,16.65747a1.747,1.747,0,0,0,1.80017,1.58411,11.31818,11.31818,0,0,0,4.0083-.88806,1.6458,1.6458,0,0,1,.76807-.192,1.14248,1.14248,0,0,1,1.17615,1.1521c0,1.75207-3.60034,2.16015-5.30445,2.16015-3.12036,0-4.32043-1.46411-4.51245-3.02429-.12-.936-.36-1.32007-.72009-1.32007-.76807,0-2.01611,1.8722-3.38428,3.33631a1.88755,1.88755,0,0,1-1.48816.792c-1.1521,0-1.46411-.64807-1.46411-1.0321a1.39287,1.39287,0,0,1,.57605-.984,82.48237,82.48237,0,0,0,9.48084-9.02478.72376.72376,0,0,0,.144-.21607.02347.02347,0,0,0-.024-.02392,2.83766,2.83766,0,0,0-.312.14392c-1.1521.52807-4.4884,1.99219-5.97644,1.99219a1.102,1.102,0,0,1-1.22412-1.08008,1.15661,1.15661,0,0,1,1.08008-1.128A49.69725,49.69725,0,0,0,118.321,7.27258c.62415-.192.62415-.264,1.24817-.504a2.04234,2.04234,0,0,1,.624-.12,1.54347,1.54347,0,0,1,1.56018,1.48816,1.61524,1.61524,0,0,1-.4801,1.104c-1.12806,1.17615-4.10437,4.15247-5.37647,5.23255C117.001,14.52124,117.337,15.79333,117.52905,16.65747Zm1.60816-11.233c-1.44019,0-4.56043-1.89612-4.56043-2.95227a1.02912,1.02912,0,0,1,1.10413-.936,1.57616,1.57616,0,0,1,1.0321.408,4.42125,4.42125,0,0,0,2.76013,1.2002c.7201.072,1.03211.504,1.03211.984A1.31785,1.31785,0,0,1,119.13721,5.42444Z"/>
    <path d="M140.40137,15.86536c0,1.7041.816,2.71228,1.96814,2.71228.144,0,2.61621-.264,2.61621-2.42432,0-1.224-.84009-2.8562-3.16822-4.72839a1.51787,1.51787,0,0,1-.64807-1.08008,1.06393,1.06393,0,0,1,1.1521-.984,1.6631,1.6631,0,0,1,1.00806.384c2.8562,2.37622,4.03235,4.63233,4.03235,6.50452,0,2.83228-2.80823,4.6084-5.0885,4.6084-2.18408,0-4.0083-1.60816-4.0083-4.89636v-.0481c0-.6,0-1.22412.024-1.8241-1.89624-.52807-3.55236-1.0321-3.55236-2.7843a4.05166,4.05166,0,0,1,.86413-2.28015,1.15151,1.15151,0,0,0,.24-.67212c0-.57605-.86413-1.296-2.28015-1.8241a1.10456,1.10456,0,0,1-.84009-.96008,1.06632,1.06632,0,0,1,1.1521-.98413c.76807,0,4.20032,1.48816,4.20032,3.52832a3.06845,3.06845,0,0,1-.88806,1.89612,1.55574,1.55574,0,0,0-.45606.93616c0,.36.312.52807.67212.624.312.072.648.144.984.24.24011-5.08838.24011-5.97644.24011-6.60046,0-.98413-.024-1.65625-.024-2.54432a1.07506,1.07506,0,0,1,1.12805-1.1521c1.24817,0,1.27209,1.12818,1.27209,1.72815,0,.86414-.12,1.68018-.168,2.78431-.09607,2.1842-.264,4.29638-.36,6.40857,1.39209.528,2.01611.96008,2.01611,1.68005a1.21892,1.21892,0,0,1-1.12805,1.24817,1.5512,1.5512,0,0,1-.96008-.40808Z"/>
    <path d="M170.33008,11.04089c0-2.66418-2.08814-4.94433-5.56848-4.94433h-.048a1.08473,1.08473,0,0,1,.672,1.008v.12c0,2.52026-2.47217,6.88855-5.11243,9.48083a2.60357,2.60357,0,0,1-1.80017.816c-1.7041,0-3.24023-1.92016-3.24023-4.53637,0-4.34436,4.27234-8.76074,9.67285-8.76074,4.84839,0,7.87268,3.2163,7.87268,6.96057a7.35851,7.35851,0,0,1-.52808,2.71228c-2.11218,5.32837-8.64074,6.07251-8.9768,6.07251a1.26222,1.26222,0,0,1-1.36817-1.17615c0-.528.40808-1.03211,1.32019-1.20007C167.59387,16.87341,170.33008,14.18518,170.33008,11.04089Zm-6.93665-4.82434c-3.00024.6-6.00049,3.79224-6.00049,6.64856,0,1.80017,1.20008,2.01612,1.2721,2.01612a.63564.63564,0,0,0,.45605-.192c.7201-.64795,3.72034-4.20032,3.81629-7.44055A1.2413,1.2413,0,0,1,163.39343,6.21655Z"/>
    <path d="M186.72119,19.48962a1.34365,1.34365,0,0,1-1.44018-1.296,1.23863,1.23863,0,0,1,1.20019-1.17614c4.53638-.64808,9.81677-3.04822,9.81677-6.26453a3.27406,3.27406,0,0,0-3.50427-3.02429,9.40578,9.40578,0,0,0-3.02429.64807c-2.28015.79211-5.1604,2.52026-7.60864,3.64831a1.73519,1.73519,0,0,1-.792.192,1.29721,1.29721,0,0,1-1.34411-1.27209,1.33461,1.33461,0,0,1,.936-1.22412c2.3042-.91211,6.09656-2.85621,8.49671-3.52833a13.45252,13.45252,0,0,1,3.62439-.6,5.52625,5.52625,0,0,1,5.85644,5.28039c0,1.77613-1.08008,3.48035-3.19226,5.13648C192.76978,18.33752,187.36926,19.48962,186.72119,19.48962ZM196.92212,5.52051a8.255,8.255,0,0,0-1.94421-1.41614.757.757,0,0,1-.552-.72009.98141.98141,0,0,1,1.00806-.88806c.33606,0,3.04822,1.08007,3.04822,2.25622a1.09375,1.09375,0,0,1-.96009,1.08008A.7508.7508,0,0,1,196.92212,5.52051Zm2.18408-2.11218a8.6429,8.6429,0,0,0-1.96814-1.34412.80227.80227,0,0,1-.6-.72009.96448.96448,0,0,1,1.008-.88807c.52808,0,3.09619,1.056,3.09619,2.16016a1.05155,1.05155,0,0,1-.96,1.05615A.75691.75691,0,0,1,199.1062,3.40833Z"/>
    <path d="M215.28174,21.31384a1.20232,1.20232,0,0,1-1.12805-.79211,33.78913,33.78913,0,0,0-4.82434-7.56067,4.30527,4.30527,0,0,1-1.12818-2.52014,3.65783,3.65783,0,0,1,.936-2.23218,57.4156,57.4156,0,0,0,4.4884-6.31262,1.13672,1.13672,0,0,1,1.00818-.624,1.53847,1.53847,0,0,1,1.51208,1.41614,1.31048,1.31048,0,0,1-.21606.69605c-.96008,1.53613-3.64832,4.53637-4.92041,6.07251a1.37186,1.37186,0,0,0-.384.88806,2.06935,2.06935,0,0,0,.57605,1.22412c2.44824,3.16833,4.34436,4.96838,5.44848,7.70471a1.90119,1.90119,0,0,1,.12.6A1.50091,1.50091,0,0,1,215.28174,21.31384Z"/>
    <path d="M228.38562,21.45789a1.18883,1.18883,0,0,1-1.22412-1.17615,1.27786,1.27786,0,0,1,.88806-1.1521c4.92041-2.01611,6.28857-5.59253,6.28857-9.00073a15.80627,15.80627,0,0,0-.40808-3.43238c-.24-1.128-.76806-1.5841-1.34411-1.5841a2.56458,2.56458,0,0,0-1.77613,1.1521c-1.0321,1.34411-1.27209,2.97619-1.32006,5.11242-.0481,1.29615-.67212,1.8722-1.2721,1.8722-1.20019,0-1.20019-1.58411-1.20019-1.92017a20.62188,20.62188,0,0,1,.96008-5.16052c.36011-1.224.96008-2.9762,1.24817-4.44031a.97241.97241,0,0,1,1.008-.84009,1.34379,1.34379,0,0,1,1.36817,1.24817c0,.0719-.02405.14392-.02405.21594a4.16429,4.16429,0,0,1-.744,1.68018c-.16809.264-.192.36-.16809.36.0481,0,.192-.144.36011-.312a3.17952,3.17952,0,0,1,2.16016-1.0321c2.88024,0,3.60034,4.80041,3.60034,7.29663,0,4.00842-1.7522,8.37671-7.65674,10.94494A1.752,1.752,0,0,1,228.38562,21.45789Z"/>
    <path d="M249.74536,20.54578a1.05361,1.05361,0,0,1-1.176.984,1.03049,1.03049,0,0,1-1.1521-.984v-.024c.048-3.02417.09594-7.84863.09594-12.16907h-1.65612a1.05714,1.05714,0,1,1,0-2.11218h1.65612c-.02392-1.87207-.048-3.52832-.09594-4.77637v-.048A1.04075,1.04075,0,0,1,248.54529.408a1.081,1.081,0,0,1,1.20007,1.0321v.02405c-.02392,1.32007-.048,2.97632-.048,4.77637h1.36816a1.00532,1.00532,0,0,1,1.056,1.05615,1.00523,1.00523,0,0,1-1.056,1.056h-1.39209c0,4.29639.02393,9.00086.0719,12.16907Zm12.5531-4.22437-.02392.432.048,1.87219v.072a2.65112,2.65112,0,0,1-2.97632,2.80823c-1.608,0-2.08813-.4801-2.08813-1.22412a1.00322,1.00322,0,0,1,1.00805-1.03211,1.16683,1.16683,0,0,1,.28809.024,5.37,5.37,0,0,0,.91211.144c.48,0,.744-.24011.744-1.12817v-.072l-.024-1.89612-8.40064.024a.88218.88218,0,0,1-.93615-.88818.86926.86926,0,0,1,.93615-.88807l8.37671.02405-.024-.504v-.024c0-.6001.55212-.88807,1.10412-.88807a.9439.9439,0,0,1,1.056.88807v.504h2.71228a.849.849,0,0,1,.91211.88807.86132.86132,0,0,1-.91211.88818Zm-2.8562-11.92908V5.61646c.88806,0,1.72815,0,2.32825.024,1.51208.048,2.3042.84009,2.37622,1.80017a14.701,14.701,0,0,1,.048,1.51209c0,.744-.024,1.53613-.048,2.13623a2.11668,2.11668,0,0,1-2.25623,1.96814c-.79211.048-2.01623.072-3.24035.072-1.416,0-2.8562-.024-3.69629-.072-2.37622-.09607-2.37622-1.46411-2.37622-3.55237,0-.72.024-1.44006.04809-1.94409.048-.88806.6-1.87219,2.32813-1.92017.552-.024,1.34411-.024,2.20825-.024V4.39233l-4.27246.0481a.91907.91907,0,1,1,0-1.82422l4.27246.048v-1.248a1.14174,1.14174,0,0,1,2.28015,0v1.248l2.76025-.02392a5.19872,5.19872,0,0,0-1.51208-1.00818.54848.54848,0,0,1-.36011-.52795A1.05785,1.05785,0,0,1,261.33838.168c.4801,0,2.52026.81616,2.52026,1.82422a1.20744,1.20744,0,0,1-.192.64807l.552-.024a.91669.91669,0,1,1,0,1.82422Zm-3.48035,15.04932a5.57261,5.57261,0,0,0-1.96814-1.32007.62228.62228,0,0,1-.40808-.57605,1.19134,1.19134,0,0,1,1.1521-1.0321c.57617,0,2.9043.91211,2.9043,2.01611a1.24186,1.24186,0,0,1-1.08008,1.2002A.79685.79685,0,0,1,255.96191,19.44165Zm1.32019-12.337c-2.32824,0-2.52026,0-2.56823.76807,0,.192-.024.45606-.024.72009h2.59228Zm0,2.88025h-2.59228c0,1.1521,0,1.60816.91211,1.63208.384,0,.98413.02405,1.68017.02405Zm4.80042-1.39209c0-.264-.024-.50415-.024-.696-.024-.79212-.12-.79212-2.76025-.79212V8.59277Zm-2.7843,1.39209V11.641c2.35217,0,2.7362,0,2.76025-.79211,0-.24.024-.552.024-.864Z"/>
    <path d="M283.39392,17.80957c-.624,0-1.22412-.024-1.8241-.024a.99019.99019,0,0,1,.48.816c0,1.2721-3.93627,3.28833-8.04064,3.31226a1.09856,1.09856,0,0,1-1.22413-1.056,1.00155,1.00155,0,0,1,1.12806-.98413h.12a9.48425,9.48425,0,0,0,5.85657-1.84815,1.72126,1.72126,0,0,1,.36-.264c-.48,0-.91211-.02392-1.368-.02392-1.6322-.024-2.49634-.81616-2.56824-1.87219-.024-.672-.04809-1.44007-.04809-2.16016,0-.74414.024-1.48816.04809-2.08826.048-.864.72-1.77612,2.49622-1.8,1.20007-.024,2.47217-.024,3.74426-.024,1.58411,0,3.19226,0,4.84839.048a2.263,2.263,0,0,1,2.40027,1.65613,20.61577,20.61577,0,0,1,.096,2.1842,21.21363,21.21363,0,0,1-.096,2.18421,2.32557,2.32557,0,0,1-2.52026,1.89611c-.52808,0-1.056.02405-1.60816.02405-.02392.312-.02392.624-.02392.96009.048.816.792.9121,2.35217.9121,2.35217,0,3.09631-.45605,3.09631-1.70422a1.03745,1.03745,0,0,1,1.128-1.056,1.17642,1.17642,0,0,1,1.2721,1.176c0,3.02429-2.52026,3.40832-5.49646,3.40832-2.25623,0-4.6084,0-4.6084-2.23218Zm-.744-10.17688a.73722.73722,0,0,1,.76807.744.76215.76215,0,0,1-.79212.76807c-.57605.024-1.87219.048-3.19226.048-1.6322,0-3.28833-.02393-3.76831-.048-1.1521-.072-1.96826-.6001-2.01623-1.80018-.048-.88806-.072-1.68017-.072-2.44824s.024-1.53613.072-2.3761A1.84393,1.84393,0,0,1,275.64124.84009h6.88855a.744.744,0,0,1,.79211.744.76885.76885,0,0,1-.816.76806h-2.76025v.86414c.57605,0,1.0321.02392,1.32006.02392,1.51221.072,1.56018.74415,1.56018,1.89624s-.312,1.56006-2.88024,1.56006v.98413c1.248,0,2.42419-.024,2.88024-.048Zm-1.80017-2.88025c-.02405-.24011-.144-.33606-.4801-.36011h-4.80042V5.44849c1.2721,0,3.84034,0,4.70447-.024.432-.024.552-.09595.57605-.36Zm-2.95227-2.40027h-1.6322c-.384.024-.624.09607-.64807.52808l-.02393.33606h2.3042Zm0,4.36841c-.84009,0-1.68017,0-2.3042-.024l.02393.45606c.024.52807.24011.52807,2.28027.52807Zm9.8169,6.60059h-9.38489v.912h9.38489Zm-.0481-1.22412c-.02393-.504-.24-.744-1.00806-.76807-1.34411-.024-2.95227-.048-4.51245-.048-.96,0-1.92016,0-2.76013.02392-.72009.024-.98413.384-1.00818.79212v.072h9.28882Zm.024,3.2882h-9.31287v.12012c.02405.816.21607.84009,5.2085.84009,3.60034,0,4.0083,0,4.08032-.84009ZM285.98608,4.46436c-.936,1.27209-1.296,1.7041-1.89611,1.7041a1.042,1.042,0,0,1-1.10413-.88806.89957.89957,0,0,1,.264-.57605A11.94068,11.94068,0,0,0,285.67407.936.85892.85892,0,0,1,286.53821.408c.57605,0,1.22412.40808,1.22412.98413a.94287.94287,0,0,1-.072.33606,8.92535,8.92535,0,0,1-.504.936l5.06445-.02392a.89407.89407,0,0,1,.96009.912.89957.89957,0,0,1-.96009.93615Zm-.912,4.05639a.94014.94014,0,0,1-1.00818-.93616.92274.92274,0,0,1,1.00818-.912h6.76855a.92475.92475,0,1,1,0,1.84814Z"/>
    <path d="M311.35388,3.38428c-.264-.28809-.45593-.432-.624-.432s-.33606.14392-.576.432a37.04016,37.04016,0,0,1-7.70459,7.20068,1.799,1.799,0,0,1-1.00818.33594A1.30669,1.30669,0,0,1,300.121,9.6488a1.31356,1.31356,0,0,1,.76807-1.128,25.92381,25.92381,0,0,0,7.58459-6.74463A2.679,2.679,0,0,1,310.56189.624a3.09373,3.09373,0,0,1,2.25623,1.1521,28.315,28.315,0,0,0,7.77661,6.00049,1.127,1.127,0,0,1,.64807,1.03211,1.45,1.45,0,0,1-1.41614,1.41613C318.53052,10.22485,314.01819,6.3606,311.35388,3.38428Zm-1.224,10.34485a39.47747,39.47747,0,0,1-1.75219,4.68042c2.20813-.168,4.39233-.432,6.48059-.744a15.9085,15.9085,0,0,0-1.7522-1.39209.97656.97656,0,0,1-.504-.81616,1.09023,1.09023,0,0,1,1.128-.984c1.41614,0,5.73657,4.0083,5.73657,5.42444a1.36474,1.36474,0,0,1-1.34411,1.29614,1.08637,1.08637,0,0,1-.98413-.64807,10.67636,10.67636,0,0,0-.79212-1.22412,98.28253,98.28253,0,0,1-12.91308,1.6322,1.13557,1.13557,0,0,1-1.10413-1.2002,1.00684,1.00684,0,0,1,.98413-1.08008c.84009-.02392,1.7041-.048,2.56824-.09594a27.94479,27.94479,0,0,0,1.7041-4.82447l-4.53638.024a1.02231,1.02231,0,0,1-1.12805-1.0321,1.095,1.095,0,0,1,1.12805-1.12818h15.24134a1.083,1.083,0,0,1,1.1521,1.10413,1.06066,1.06066,0,0,1-1.1521,1.05615Zm-2.73633-4.41639a1.05805,1.05805,0,0,1-1.12805-1.08007,1.07116,1.07116,0,0,1,1.12805-1.08008h6.88868a1.07115,1.07115,0,0,1,1.128,1.08008,1.058,1.058,0,0,1-1.128,1.08007Z"/>
    <path d="M333.2417,10.15283a13.17656,13.17656,0,0,1-2.71216.45606,1.04476,1.04476,0,0,1-1.12817-1.08008,1.15755,1.15755,0,0,1,1.20007-1.20007,17.96223,17.96223,0,0,0,3.96033-.55213,10.17269,10.17269,0,0,0,1.17615-3.67224,1.0166,1.0166,0,0,1,1.08007-.86414,1.20915,1.20915,0,0,1,1.29615,1.10413,8.20692,8.20692,0,0,1-.86414,2.9043h.19214c2.7362,0,2.80823,2.95227,2.80823,4.05627,0,2.13623-.09607,8.13672-4.5365,8.13672-1.368,0-3.14417-.624-3.14417-1.77612a1.22342,1.22342,0,0,1,1.75208-1.12818,3.22173,3.22173,0,0,0,1.34411.36011c1.56018,0,2.28028-1.68017,2.28028-5.88049,0-.98413-.144-1.70423-.91211-1.70423a1.47777,1.47777,0,0,0-.432.0481c-.09607.02393-.24011.072-.384.096-1.80017,3.38427-4.32044,7.32068-5.85657,9.93689a1.42237,1.42237,0,0,1-1.248.696,1.11968,1.11968,0,0,1-1.22412-1.0321,1.46808,1.46808,0,0,1,.288-.84009c1.05615-1.60815,3.55236-5.11243,5.25647-8.11267Zm13.29712,3.31226a7.63037,7.63037,0,0,0-4.1283-3.81629.872.872,0,0,1-.64807-.816,1.12029,1.12029,0,0,1,1.1521-1.05615c1.22412,0,5.92847,2.97632,5.92847,5.18445a1.279,1.279,0,0,1-1.2721,1.27209A1.11859,1.11859,0,0,1,346.53882,13.46509Zm-.672-6.33643a8.12665,8.12665,0,0,0-2.01623-1.32019c-.432-.168-.6-.432-.6-.72009a.95746.95746,0,0,1,.984-.88806c.12012,0,3.14429.86413,3.14429,2.13623a1.04943,1.04943,0,0,1-.936,1.056A.75692.75692,0,0,1,345.86682,7.12866ZM347.931,4.92041a8.22471,8.22471,0,0,0-2.04016-1.22412.76454.76454,0,0,1-.62415-.744.97679.97679,0,0,1,.98413-.91211,7.11418,7.11418,0,0,1,2.80823,1.2721,1.07757,1.07757,0,0,1-.57605,1.87219A.79848.79848,0,0,1,347.931,4.92041Z"/>
    <path d="M367.80237,8.4967c.048,2.78431.16809,6.2406.312,8.47278a10.10561,10.10561,0,0,1,0,2.08814c-.14392.96008-.696,1.6322-1.34412,1.6322a1.2985,1.2985,0,0,1-1.1521-.72009,9.60759,9.60759,0,0,0-1.92016-2.3042c-1.51209-1.48816.504-2.66431,1.29614-1.84815.696.72.79211.504.79211-.12-.024-1.36817-.072-3.14429-.12-4.89649a26.37682,26.37682,0,0,1-7.80078,7.44068c-2.01611,1.29614-3.24024-1.03211-1.7041-1.84815a20.84043,20.84043,0,0,0,8.08874-7.58471c-1.17615.12-2.28027.24011-3.12036.33606a18.00909,18.00909,0,0,1-3.16821.264,1.17667,1.17667,0,1,1,.312-2.32824,14.84639,14.84639,0,0,0,2.71228-.12c1.104-.144,2.83215-.264,4.53638-.40808q-.03607-.97192-.072-1.58411a6.46471,6.46471,0,0,0-.28809-1.63208c-.504-1.53613,1.92017-1.92016,2.40027-.60009.21594.624.192.52807.192,1.94421,0,.408.02393,1.00806.02393,1.68018l.12012-.024a25.973,25.973,0,0,1,3.98425-.28809,1.30722,1.30722,0,0,1,1.29614,1.56018c-.144.64807-.84008.98413-1.82409.88806a18.73869,18.73869,0,0,0-3.48035,0Z"/>
    <path d="M395.835,11.953h-1.24805c-4.58447,0-8.08874.21607-9.98486.28809-1.24817.048-1.89624.0719-2.37622.0719-.28809,0-.504-.02393-.76807-.02393a1.3276,1.3276,0,0,1-1.39209-1.29614c0-.6001.48-1.176,1.44007-1.176h.144c.88806.048,1.94409.0719,2.90418.0719,1.96826,0,7.10461-.288,11.329-.408h.0481a1.31494,1.31494,0,0,1,1.46411,1.22413c0,.624-.504,1.248-1.53613,1.248Z"/>
    <path d="M406.418,17.90552c5.0404-1.8241,8.88074-7.00855,10.22485-10.46485.168-.40808-.12-.576-.432-.55212-1.84815.09607-5.04041.62415-6.69666.816a14.58157,14.58157,0,0,1-3.02417.264,1.29815,1.29815,0,1,1,.168-2.56824,23.87839,23.87839,0,0,0,2.95227-.12c2.01611-.14393,5.28039-.672,7.96863-.84,2.01623-.12012,2.95227,1.20007,2.23218,2.66418-2.52015,5.13648-5.59241,10.41687-12.313,13.17713C405.1698,21.24182,404.32971,18.67358,406.418,17.90552ZM421.6593,5.01636a2.479,2.479,0,0,1-2.49621-2.4961,2.5082,2.5082,0,1,1,2.49621,2.4961Zm0-3.72022a1.20889,1.20889,0,0,0-1.20019,1.22412,1.1885,1.1885,0,0,0,1.20019,1.20008,1.20885,1.20885,0,0,0,1.224-1.20008A1.22918,1.22918,0,0,0,421.6593,1.29614Z"/>
    <path d="M435.19434,9.88879A9.90632,9.90632,0,0,0,431.786,8.25671c-1.44006-.312-.84-2.71228.98413-2.25622a14.7816,14.7816,0,0,1,3.96033,1.60815,1.37916,1.37916,0,0,1,.40808,1.94422A1.29478,1.29478,0,0,1,435.19434,9.88879Zm1.0321,9.04883a5.15266,5.15266,0,0,1-2.3042.76807c-1.99219.168-2.28015-2.35217-.744-2.52027a8.28332,8.28332,0,0,0,1.84815-.6A23.48834,23.48834,0,0,0,445.68323,6.02454c.79211-1.51221,3.21631-.504,2.16028,1.41613A27.08574,27.08574,0,0,1,436.22644,18.93762Z"/>
    <path d="M466.44287,11.497c-.33594,3.43237-3.33618,7.58472-7.87268,9.36084-2.32812.91211-2.80823-1.7522-1.12805-2.28015,3.81628-1.2002,6.24048-4.72852,6.45654-7.17664a1.60565,1.60565,0,0,0-.288-1.10412,1.21678,1.21678,0,0,1-.16809-.36c-1.46411.168-2.83228.36-3.88831.48-1.36816.144-2.20813.40808-2.9762.45605a1.21449,1.21449,0,1,1-.024-2.42419c.864-.072,1.96814-.048,3.02429-.168,1.8241-.19214,5.85644-.64807,8.35266-.86413a14.36563,14.36563,0,0,1,3.40833-.192c1.08007.144,1.48815.504,1.46411,1.20007-.024.6001-.552,1.17615-1.58411,1.17615-1.46411-.02405-2.76025-.09607-4.12842,0-.264.02393-.52795.02393-.816.048A3.38284,3.38284,0,0,1,466.44287,11.497Zm-.936-6.12049c-1.41614.096-2.18421.21607-3.26429.33606a19.23535,19.23535,0,0,1-2.83227.216c-1.53613-.02393-1.92017-2.23218,0-2.3042.84009-.02393,1.51221.04809,2.37622-.048,1.1521-.12,2.23218-.24,3.67236-.384a10.52418,10.52418,0,0,0,1.128-.21606,4.20356,4.20356,0,0,1,1.1521-.14392c1.82422.072,2.20826,2.28015-.048,2.42419C466.89893,5.30444,466.299,5.32849,465.50684,5.37646Zm5.59253-.96008a8.62179,8.62179,0,0,0-1.56019-1.82422c-1.056-.76806.168-1.94409,1.1521-1.296a7.45542,7.45542,0,0,1,1.96814,1.92017C473.33154,4.39233,471.65137,5.49646,471.09937,4.41638Zm3.21618-1.00805a14.34811,14.34811,0,0,0-1.63208-1.7522C471.60339.936,472.77942-.28809,473.7876.312a7.80022,7.80022,0,0,1,2.04016,1.84815A.98052.98052,0,0,1,474.31555,3.40833Z"/>
    <path d="M496.63538,11.953h-1.248c-4.58447,0-8.08875.21607-9.98486.28809-1.24817.048-1.89624.0719-2.37622.0719-.28809,0-.504-.02393-.76807-.02393a1.32771,1.32771,0,0,1-1.39221-1.29614c0-.6001.4801-1.176,1.44018-1.176h.144c.88806.048,1.94409.0719,2.90417.0719,1.96826,0,7.10461-.288,11.329-.408h.0481a1.31494,1.31494,0,0,1,1.46411,1.22413c0,.624-.504,1.248-1.53614,1.248Z"/>
    <path d="M506.73828,20.6178c-2.06409.72009-2.92822-1.58411-.88806-2.20825a17.98674,17.98674,0,0,0,7.89673-5.37647,11.223,11.223,0,0,0-1.80017-.672c-1.34412-.3601-.7201-2.40026.98413-1.92016a20.35474,20.35474,0,0,1,2.3042.792,30.5622,30.5622,0,0,0,2.59216-4.1283.41785.41785,0,0,0-.384-.64807c-1.03211.024-2.66419.504-3.81629.552a25.21493,25.21493,0,0,1-5.47253,5.95252c-1.63208,1.12817-3.07227-1.0321-1.41614-2.06409a18.21559,18.21559,0,0,0,5.16052-5.6405,7.33708,7.33708,0,0,0,.84009-2.06421,1.26414,1.26414,0,0,1,2.47217.52808,3.22318,3.22318,0,0,1-.24,1.0321c1.17615-.16809,2.42419-.40808,3.57629-.4801,1.68018-.096,3.07227,1.08008,2.18421,2.61621-1.12805,1.94421-2.20825,3.74438-3.36035,5.35254a7.50354,7.50354,0,0,1,2.04016,1.65613,1.38039,1.38039,0,0,1-.096,1.87207,1.16333,1.16333,0,0,1-1.72815-.096,10.21445,10.21445,0,0,0-1.7522-1.44019A19.95469,19.95469,0,0,1,506.73828,20.6178Z"/>
    <path d="M530.30652,19.41772a15.43754,15.43754,0,0,1-.624-4.58447c0-4.22436,1.22412-8.35266,1.34411-10.00879a1.17946,1.17946,0,0,1,2.35217-.09607.59574.59574,0,0,1-.024.192c-.33594,1.7522-1.56006,6.19251-1.56006,8.56873,0,.88806.168.98413.24.98413.048,0,.12-.048.168-.16809.74414-1.416.91211-1.70411,1.41613-1.70411a1.04348,1.04348,0,0,1,.98414,1.00806.74126.74126,0,0,1-.12.43213,12.45606,12.45606,0,0,0-1.80017,4.51233c0,.21606.024.432.024.64807a1.128,1.128,0,0,1-1.2002,1.248A1.28273,1.28273,0,0,1,530.30652,19.41772Zm13.34509-.144c-4.15234,0-7.32056-2.47229-7.32056-3.64831a1.203,1.203,0,0,1,1.24805-1.12818,1.41123,1.41123,0,0,1,1.08008.52808,6.1209,6.1209,0,0,0,4.65649,1.60815,14.8273,14.8273,0,0,0,2.04016-.144,1.17156,1.17156,0,0,1,.288-.02393,1.10776,1.10776,0,0,1,1.20019,1.1521C546.844,18.8656,545.78784,19.27368,543.65161,19.27368Zm-2.71216-10.537a13.54849,13.54849,0,0,1-3.24023-.36,1.1063,1.1063,0,0,1,.096-2.20825.89855.89855,0,0,1,.24.024,11.27814,11.27814,0,0,0,2.32824.24,22.97177,22.97177,0,0,0,2.95227-.24c.072,0,.144-.024.216-.024a1.10224,1.10224,0,0,1,1.1521,1.12817C544.68372,8.25671,544.01172,8.73669,540.93945,8.73669Z"/>
    <path d="M557.90747,20.76172a1.6627,1.6627,0,0,1-1.65625-1.58411,1.73393,1.73393,0,0,1,1.65625-1.65613,1.549,1.549,0,0,1,1.65613,1.65613A1.59635,1.59635,0,0,1,557.90747,20.76172Zm-1.0321-6.09644v-.504c0-2.32824-.24012-7.92077-.384-11.68908v-.072a1.30148,1.30148,0,0,1,1.39209-1.32007,1.35767,1.35767,0,0,1,1.44007,1.39209c0,2.83227-.384,9.43286-.384,11.761,0,.57618,0,1.58423-1.056,1.58423a1.0317,1.0317,0,0,1-1.00805-1.12817Z"/>
    <path d="M7.68066,51.06531c0,1.7041.816,2.71228,1.96814,2.71228.14405,0,2.61621-.264,2.61621-2.42432,0-1.224-.84008-2.8562-3.16821-4.72839a1.51787,1.51787,0,0,1-.64807-1.08008,1.06393,1.06393,0,0,1,1.1521-.984,1.66317,1.66317,0,0,1,1.00806.384c2.8562,2.37622,4.03235,4.63233,4.03235,6.50452,0,2.83228-2.80823,4.6084-5.08851,4.6084-2.18408,0-4.0083-1.60816-4.0083-4.89636v-.0481c0-.6,0-1.22412.024-1.8241-1.89624-.52807-3.55237-1.0321-3.55237-2.7843a4.05168,4.05168,0,0,1,.86414-2.28015,1.15151,1.15151,0,0,0,.24-.67212c0-.57605-.86414-1.296-2.28015-1.82409A1.10458,1.10458,0,0,1,0,40.76843a1.06631,1.06631,0,0,1,1.1521-.98413c.76807,0,4.20032,1.48816,4.20032,3.52832a3.06845,3.06845,0,0,1-.88806,1.89612,1.55574,1.55574,0,0,0-.45606.93616c0,.36.312.52807.67212.624.312.072.64795.144.984.24.24011-5.08838.24011-5.97644.24011-6.60046,0-.98413-.024-1.65625-.024-2.54431A1.07505,1.07505,0,0,1,7.00854,36.712c1.24817,0,1.2721,1.12817,1.2721,1.72815,0,.86413-.12,1.68017-.168,2.7843-.09607,2.1842-.264,4.29638-.36,6.40857,1.39209.52795,2.01611.96008,2.01611,1.68005a1.21892,1.21892,0,0,1-1.128,1.24817,1.55125,1.55125,0,0,1-.96009-.40808Z"/>
    <path d="M37.60938,46.24084c0-2.66418-2.08814-4.94433-5.56849-4.94433h-.048a1.08475,1.08475,0,0,1,.672,1.00806v.12c0,2.52026-2.47217,6.88855-5.11243,9.48084a2.60358,2.60358,0,0,1-1.80017.816c-1.7041,0-3.24024-1.92017-3.24024-4.53638,0-4.34436,4.27234-8.76074,9.67286-8.76074,4.84839,0,7.87268,3.2163,7.87268,6.96057a7.35851,7.35851,0,0,1-.52808,2.71228c-2.11218,5.32837-8.64075,6.07251-8.97681,6.07251a1.26221,1.26221,0,0,1-1.36816-1.17615c0-.52795.40808-1.0321,1.32019-1.20007C34.87317,52.07336,37.60938,49.38513,37.60938,46.24084ZM30.67273,41.4165c-3.00024.6-6.00049,3.79224-6.00049,6.64856,0,1.80017,1.20007,2.01612,1.2721,2.01612a.63564.63564,0,0,0,.45605-.192c.72009-.64795,3.72034-4.20032,3.81628-7.44055A1.24132,1.24132,0,0,1,30.67273,41.4165Z"/>
    <path d="M54.00049,54.68958a1.34367,1.34367,0,0,1-1.44019-1.296,1.23864,1.23864,0,0,1,1.2002-1.17614c4.53638-.64807,9.81677-3.04822,9.81677-6.26453A3.27406,3.27406,0,0,0,60.073,42.92859a9.40573,9.40573,0,0,0-3.02429.64807c-2.28016.79211-5.1604,2.52026-7.60865,3.64832a1.73523,1.73523,0,0,1-.792.192A1.29721,1.29721,0,0,1,47.304,46.1449a1.33461,1.33461,0,0,1,.936-1.22412c2.3042-.91211,6.09656-2.8562,8.4967-3.52832a13.45222,13.45222,0,0,1,3.62439-.6,5.52625,5.52625,0,0,1,5.85645,5.2804c0,1.77612-1.08008,3.48034-3.19226,5.13647C60.04907,53.53748,54.64856,54.68958,54.00049,54.68958ZM64.20142,40.72046a8.2553,8.2553,0,0,0-1.94422-1.41614.757.757,0,0,1-.552-.72009.98141.98141,0,0,1,1.00806-.88806c.33606,0,3.04821,1.08008,3.04821,2.25622a1.09375,1.09375,0,0,1-.96008,1.08008A.75078.75078,0,0,1,64.20142,40.72046Zm2.18408-2.11218a8.6429,8.6429,0,0,0-1.96814-1.34412.80227.80227,0,0,1-.6-.72009.96448.96448,0,0,1,1.00806-.88806c.52808,0,3.09619,1.056,3.09619,2.16015a1.05155,1.05155,0,0,1-.96,1.05615A.75691.75691,0,0,1,66.3855,38.60828Z"/>
    <path d="M82.56128,56.51379a1.20235,1.20235,0,0,1-1.12817-.79211A33.78482,33.78482,0,0,0,76.60864,48.161a4.30578,4.30578,0,0,1-1.128-2.52014,3.65736,3.65736,0,0,1,.93616-2.23218A57.4308,57.4308,0,0,0,80.905,37.09607a1.1367,1.1367,0,0,1,1.00818-.624,1.53846,1.53846,0,0,1,1.51208,1.41613,1.31048,1.31048,0,0,1-.21606.696c-.96008,1.53613-3.64832,4.53638-4.92041,6.07251a1.37188,1.37188,0,0,0-.384.88806,2.06939,2.06939,0,0,0,.576,1.22412c2.44825,3.16834,4.34437,4.96838,5.44849,7.70471a1.90124,1.90124,0,0,1,.12.6A1.50089,1.50089,0,0,1,82.56128,56.51379Z"/>
    <path d="M95.665,56.65784a1.18883,1.18883,0,0,1-1.22412-1.17615,1.27786,1.27786,0,0,1,.88806-1.1521c4.92041-2.01611,6.28857-5.59253,6.28857-9.00073a15.80689,15.80689,0,0,0-.40808-3.43238c-.24-1.128-.76806-1.5841-1.34411-1.5841a2.56458,2.56458,0,0,0-1.77613,1.1521c-1.0321,1.34411-1.27209,2.97619-1.32006,5.11242-.048,1.29615-.67212,1.8722-1.2721,1.8722-1.20019,0-1.20019-1.58411-1.20019-1.92017a20.62188,20.62188,0,0,1,.96008-5.16052c.36011-1.224.96008-2.9762,1.24817-4.44031a.97241.97241,0,0,1,1.00805-.84009,1.3438,1.3438,0,0,1,1.36817,1.24817c0,.0719-.02405.14392-.02405.21594a4.16443,4.16443,0,0,1-.744,1.68018c-.16809.264-.192.36-.16809.36.0481,0,.192-.144.36011-.312a3.17975,3.17975,0,0,1,2.16015-1.0321c2.88025,0,3.60035,4.80041,3.60035,7.29663,0,4.00842-1.7522,8.37671-7.65674,10.94495A1.7525,1.7525,0,0,1,95.665,56.65784Z"/>
    <path d="M128.09009,46.24084c0-2.66418-2.08814-4.94433-5.56848-4.94433h-.048a1.08473,1.08473,0,0,1,.672,1.00806v.12c0,2.52026-2.47217,6.88855-5.11243,9.48084a2.60357,2.60357,0,0,1-1.80017.816c-1.7041,0-3.24023-1.92017-3.24023-4.53638,0-4.34436,4.27234-8.76074,9.67285-8.76074,4.84839,0,7.87268,3.2163,7.87268,6.96057a7.35851,7.35851,0,0,1-.52808,2.71228c-2.11218,5.32837-8.64074,6.07251-8.9768,6.07251a1.26222,1.26222,0,0,1-1.36817-1.17615c0-.52795.40808-1.0321,1.32019-1.20007C125.35388,52.07336,128.09009,49.38513,128.09009,46.24084Zm-6.93665-4.82434c-3.00024.6-6.00049,3.79224-6.00049,6.64856,0,1.80017,1.20008,2.01612,1.2721,2.01612a.63564.63564,0,0,0,.45605-.192c.7201-.64795,3.72034-4.20032,3.81629-7.44055A1.24132,1.24132,0,0,1,121.15344,41.4165Z"/>
    <path d="M137.90454,56.48975a1.13936,1.13936,0,0,1-1.17615-1.03211,1.12188,1.12188,0,0,1,.384-.792,9.16328,9.16328,0,0,0,2.68823-6.3606.87348.87348,0,0,1,.96008-.816.95914.95914,0,0,1,1.05615.88807,12.34127,12.34127,0,0,1-2.95227,7.68066A1.26734,1.26734,0,0,1,137.90454,56.48975Zm15.72131-4.27234a.98624.98624,0,0,1-1.08007.936,1.0127,1.0127,0,0,1-1.10413-.96008v-.02393l.0481-5.5205a9.46,9.46,0,0,1-2.66431,3.38427,5.027,5.027,0,0,1,1.00818,1.94422.86317.86317,0,0,1-.86414.792.65358.65358,0,0,1-.64807-.48l-.048-.09607a16.455,16.455,0,0,1-3.24024.62414.952.952,0,0,1-.4801-.09606v.28808a.969.969,0,0,0,.93616,1.00806c1.20007.09595,2.97619.144,4.72839.144,1.77612,0,3.55225-.04809,4.77637-.16809a1.37474,1.37474,0,0,0,1.44006-1.53613.96388.96388,0,0,1,1.0802-.96009,1.20666,1.20666,0,0,1,1.34412,1.17615c0,3.55225-3.36035,3.5763-8.42481,3.5763-2.11218,0-4.22436-.072-5.25647-.144-1.80017-.12-2.68823-1.0321-2.71215-2.71216,0-.50415-.024-.96008-.024-1.39221,0-1.84814.072-3.21618.12-4.75232-4.36828,0-4.41638-.33606-4.41638-3.98437,0-1.12818.024-2.32825.0481-3.09632.048-2.04016,2.13611-2.04016,2.88012-2.04016a13.44112,13.44112,0,0,0,.33606-1.77612.88011.88011,0,0,1,.96009-.74414,1.07732,1.07732,0,0,1,1.1521,1.00818,5.65543,5.65543,0,0,1-.384,1.48816c1.77613,0,3.72034.048,3.79236,1.99206.02405.96009.072,2.16028.072,3.28833,0,.64807-.024,1.24817-.048,1.7522-.072,1.104-.72009,1.89612-2.28027,2.04016,0,1.53613-.096,2.76026-.12,4.27234l.21607-.072a23.84427,23.84427,0,0,0,.912-3.12024.70164.70164,0,0,1,.74414-.552.78165.78165,0,0,1,.84009.72,18.71271,18.71271,0,0,1-.93616,2.7843c.48011-.072.96009-.16809,1.41614-.24011-.12-.21594-.264-.384-.33594-.504a.63947.63947,0,0,1-.12011-.312.61127.61127,0,0,1,.33606-.48.81168.81168,0,0,1-.144-.4801.99348.99348,0,0,1,.33606-.696,14.87,14.87,0,0,0,3.19226-4.22436l-2.68823.072h-.02392a.88725.88725,0,0,1-.93616-.91211.92621.92621,0,0,1,.93616-.96009h.02392l3.21631.02405-.02405-1.99219-2.42419.02405h-.02393a.893.893,0,0,1-.93616-.93615.91176.91176,0,0,1,.93616-.96009h.02393l2.37622.02405-.024-1.92017v-.024a1.09384,1.09384,0,0,1,2.1842,0v.024s-.02392.744-.048,1.92017l2.73621-.02405h.024a.90633.90633,0,0,1,.91211.96009.88568.88568,0,0,1-.91211.93615h-.024l-2.76013-.02405c0,.624-.024,1.29615-.024,1.99219l3.84033-.02405a.91173.91173,0,0,1,.936.96009.867.867,0,0,1-.912.91211h-.02405l-3.36035-.072a18.09935,18.09935,0,0,0,4.20044,4.70446,1.1124,1.1124,0,0,1,.48.864,1.21021,1.21021,0,0,1-1.22412,1.10412,1.11061,1.11061,0,0,1-.792-.33606,22.6264,22.6264,0,0,1-3.12023-4.10437c.02392,2.88025.07189,5.68848.07189,5.68848Zm-12.001-12.50513c-.24,0-.4801.02405-.64807.02405-.744.024-.88806.312-.88806,2.04016h1.53613Zm0,3.60034h-1.53613c0,2.08826.048,2.16016.76806,2.20825.168,0,.432.02393.76807.02393Zm3.3363-1.53613c0-.45606-.02405-.88806-.02405-1.22412-.024-.6-.24-.816-.88806-.816h-.624v2.04016Zm-1.53613,1.53613V45.5448c.33594,0,.6-.02393.744-.02393.79211-.04809.816-.21606.816-2.20825Z"/>
    <path d="M181.12988,40.50439a2.88606,2.88606,0,0,1,3.19226,2.97632c.02405.624.072,1.46411.072,2.40015,0,5.78455-1.08008,10.48889-6.52857,10.48889a10.76839,10.76839,0,0,1-2.7843-.384,1.2401,1.2401,0,0,1-.936-1.22412,1.12813,1.12813,0,0,1,1.12806-1.20008,1.25982,1.25982,0,0,1,.40808.048,8.03838,8.03838,0,0,0,2.16015.33606c1.77613,0,4.10437-.7201,4.10437-7.96875,0-2.56812-.048-3.28821-1.20007-3.28821-.432-.02405-1.08008-.02405-1.84814-.02405s-1.65613,0-2.59229.02405c-.64807,5.92847-2.80823,11.30493-9.1687,13.92114a1.65018,1.65018,0,0,1-.57617.12,1.30047,1.30047,0,0,1-1.24805-1.32007,1.17342,1.17342,0,0,1,.79211-1.10413c5.42444-2.1842,7.20057-6.60046,7.72864-11.59289-3.24023.02392-6.28857.0719-6.28857.0719h-.02393a1.10474,1.10474,0,0,1,.02393-2.20813s3.12024-.024,6.43261-.048c.048-1.17615.048-2.40027.048-3.60034v-.02405a1.20477,1.20477,0,0,1,1.29614-1.176,1.13372,1.13372,0,0,1,1.224,1.12805c0,1.22412,0,2.42419-.0719,3.64831Z"/>
    <path d="M194.54492,54.61768a15.438,15.438,0,0,1-.624-4.58448c0-4.22436,1.22412-8.35266,1.34411-10.00879a1.17947,1.17947,0,0,1,2.35218-.09607.59551.59551,0,0,1-.024.192c-.33594,1.7522-1.56006,6.19251-1.56006,8.56873,0,.88806.168.98413.24.98413.048,0,.12-.048.168-.16809.74414-1.416.91211-1.7041,1.41614-1.7041a1.04347,1.04347,0,0,1,.98413,1.00805.74126.74126,0,0,1-.12.43213,12.45606,12.45606,0,0,0-1.80017,4.51233c0,.21606.02393.432.02393.64807a1.12787,1.12787,0,0,1-1.20007,1.248A1.28274,1.28274,0,0,1,194.54492,54.61768Zm13.34522-.144c-4.15247,0-7.32068-2.47229-7.32068-3.64831a1.203,1.203,0,0,1,1.248-1.12818,1.41165,1.41165,0,0,1,1.08021.52808,6.12041,6.12041,0,0,0,4.65637,1.60815,14.82752,14.82752,0,0,0,2.04016-.144,1.172,1.172,0,0,1,.288-.02392,1.10776,1.10776,0,0,1,1.2002,1.15209C211.0824,54.06555,210.02625,54.47363,207.89014,54.47363Zm-2.71228-10.537a13.55019,13.55019,0,0,1-3.24036-.36,1.1063,1.1063,0,0,1,.09607-2.20825.89819.89819,0,0,1,.24.02405,11.27806,11.27806,0,0,0,2.32825.24,22.9739,22.9739,0,0,0,2.95227-.24c.072,0,.14392-.02405.21594-.02405a1.10224,1.10224,0,0,1,1.1521,1.12817C208.92212,43.45667,208.25012,43.93665,205.17786,43.93665Z"/>
    <path d="M225.43359,50.87329h-4.80041a15.98846,15.98846,0,0,1-1.39209,5.11243,1.12172,1.12172,0,0,1-1.03211.696,1.03883,1.03883,0,0,1-1.08007-.96008.94548.94548,0,0,1,.12-.48,19.412,19.412,0,0,0,1.68006-8.95276c0-.79211-.02393-1.58423-.048-2.37622a1.09035,1.09035,0,0,1-.864.432,1.04279,1.04279,0,0,1-1.10413-.936,1.19723,1.19723,0,0,1,.264-.64807,19.59345,19.59345,0,0,0,3.19226-6.62463,1.00949,1.00949,0,0,1,1.05615-.76807,1.03066,1.03066,0,0,1,1.12805.91211,3.45579,3.45579,0,0,1-.24.936h1.41614c1.56006,0,2.11206.57605,2.11206,1.27222,0,.312-.0719.696-1.00805,2.54419.16809,0,.312.02393.45605.02393,1.48816.04809,2.08814.74414,2.11218,2.08825v2.80823c0,4.70435,0,5.6405.072,7.68066v.09595c0,1.44019-.9121,2.80835-3.2163,2.80835-1.1521,0-2.20813-.09607-2.20813-1.20019a1.02431,1.02431,0,0,1,.91211-1.104.6663.6663,0,0,1,.21594.02393,6.41428,6.41428,0,0,0,1.12805.168c.64807,0,1.12817-.288,1.12817-1.344Zm-2.01623-11.521c0-.312-.312-.33605-.76807-.33605-.36,0-.816,0-1.12805.024-.816,1.63208-.864,1.7522-1.05615,2.06421a4.29436,4.29436,0,0,1,.57617-.04809c.408,0,1.00806-.02393,1.65613-.02393A7.1663,7.1663,0,0,0,223.41736,39.35229Zm-1.20007,7.39258h-1.34412c0,.76807-.024,1.58423-.072,2.37622h1.41614Zm0-3.93628h-.576c-.624,0-.76807.312-.76807.76807v1.48816h1.34412Zm3.2163,2.25623c0-1.7522,0-2.25623-.816-2.28027h-.67212v2.28027Zm.02393,4.05627c0-.76806-.02393-1.5841-.02393-2.37622h-1.48816v2.37622Zm6.48059.67212c-2.32812,0-3.38428-.384-3.48022-2.16015-.024-.52808-.0481-1.22412-.0481-1.99219,0-1.17615.02405-2.44824.0481-3.21631.0719-2.3042,1.87207-2.3042,3.45629-2.3042V36.9281a1.11669,1.11669,0,0,1,2.23218,0v3.19226c.64807,0,1.22412.02405,1.48816.048a2.10725,2.10725,0,0,1,2.13611,1.92017c.024.84009.048,1.96814.048,3.04834,0,.912-.02392,1.75208-.048,2.3761-.12,2.1842-2.11218,2.28027-3.64832,2.28027v3.48023c.552-.12,1.08008-.26392,1.53614-.384-.624-.96-.624-.984-.624-1.248a.91188.91188,0,0,1,.96009-.84009,1.13184,1.13184,0,0,1,.76806.312c.64807.6001,2.16016,3.07227,2.16016,3.96033a1.17464,1.17464,0,0,1-1.12805,1.20019,1.03481,1.03481,0,0,1-.98413-.84008c-.072-.264-.21607-.57605-.33606-.88807a37.74026,37.74026,0,0,1-7.63257,1.72815,1.03958,1.03958,0,0,1-1.12817-1.05615,1.06951,1.06951,0,0,1,1.00817-1.08008c1.056-.09607,2.16016-.24,3.21619-.432Zm.048-7.70471c-.384,0-.72.024-.88806.024-.72.048-.72.192-.72,2.9043,0,.864,0,1.7041.02393,2.16015.048.624.432.624,1.5841.624Zm2.08826,5.71253c1.29614,0,1.63208,0,1.68018-.744.02392-.43213.048-1.00818.048-1.63221,0-.936-.02405-1.96813-.048-2.64025-.02405-.696-.264-.696-1.68018-.696Z"/>
    <path d="M246.62524,51.83337c.02405-.048.168-.192.36-.4801.264-.384.45605-.744.69617-1.1521a23.05634,23.05634,0,0,1,1.82409-2.59216c.312-.552.576-1.08008.79212-1.56018l.072-.672a9.18236,9.18236,0,0,0-2.13623,1.056,1.5221,1.5221,0,0,1-.86414.33606.97725.97725,0,0,1-.912-1.056c0-.79211.192-1.05615,4.17626-2.7843.192-1.96814.33606-3.69629.33606-4.75244a1.04466,1.04466,0,0,1,1.08008-1.12805,1.1513,1.1513,0,0,1,1.20008,1.10412c0,.72009-.288,3.12024-.432,4.34436a.98084.98084,0,0,1,.55212.96009c1.77613-1.65613,3.62427-3.07227,5.42444-3.07227a2.56658,2.56658,0,0,1,2.56824,2.8562,3.37488,3.37488,0,0,1-.024.4801c-.168,1.56006-.864,4.10437-1.12805,6.3125a5.36162,5.36162,0,0,0-.072.816c0,.74414.264,1.05616,1.128,1.05616a7.09983,7.09983,0,0,0,2.66431-.76807,1.76712,1.76712,0,0,1,.64807-.144,1.06573,1.06573,0,0,1,1.056,1.128,1.38129,1.38129,0,0,1-.88806,1.29614,8.84864,8.84864,0,0,1-3.43238.74414c-1.84814,0-3.4563-.6001-3.4563-3.02429a5.81211,5.81211,0,0,1,.09607-1.08008c.33606-2.1842.98413-4.70447,1.08008-6.26453v-.264c0-.79212-.288-1.08008-.72009-1.08008-1.2721,0-4.05628,2.64014-6.00049,5.0404-.09595,1.2721-.168,2.56824-.168,3.79236a20.98027,20.98027,0,0,0,.24,3.38428.98235.98235,0,0,1,.024.264,1.2436,1.2436,0,0,1-1.27209,1.248c-1.27222,0-1.29615-1.41613-1.29615-3.14428,0-.84009.02393-1.75208.09595-2.73621-.52808.86414-1.0321,1.87219-1.46411,2.71228a1.99771,1.99771,0,0,1-1.68018,1.248.88969.88969,0,0,1-.96008-.88806,2.50313,2.50313,0,0,1,.72009-1.39209Z"/>
    <path d="M275.25732,56.3457a9.16195,9.16195,0,0,0-2.95227-2.52014,1.0796,1.0796,0,0,1-.64807-.96008,1.06816,1.06816,0,0,1,1.12818-1.05615c.84,0,4.68029,2.11218,4.68029,3.74438a1.32663,1.32663,0,0,1-1.296,1.32007A1.09229,1.09229,0,0,1,275.25732,56.3457Z"/>
    <path d="M293.01746,37.33618c.96008.048,1.46411.552,1.46411,1.2721a7.60028,7.60028,0,0,1-.84009,2.44812c.192,0,.33606.024.45605.024a1.86459,1.86459,0,0,1,1.8722,1.89612c.024.96009.072,2.25623.072,3.4563,0,3.31238,0,3.9364-3.9364,3.9364-2.16016,0-3.50428-.048-3.5763-2.04016-.02392-.6001-.048-1.51221-.048-2.44824,0-.64807.024-1.29614.024-1.87219a.97163.97163,0,0,1-.64807.264,1.00718,1.00718,0,0,1-1.03211-.936,1.15154,1.15154,0,0,1,.24-.67212A19.85722,19.85722,0,0,0,290.20923,36.16a.92316.92316,0,0,1,.96008-.72009,1.02208,1.02208,0,0,1,1.10413.91211,4.11257,4.11257,0,0,1-.28809.98413ZM286.825,55.43372a1.33654,1.33654,0,0,1,.312-.79212,6.56426,6.56426,0,0,0,1.1521-2.97619.80962.80962,0,0,1,.816-.84009.93657.93657,0,0,1,.96009.912c0,.69617-.552,4.63245-2.25611,4.63245A.94816.94816,0,0,1,286.825,55.43372Zm4.63233-9.12085h-1.32007c0,2.16027.024,2.28027.67212,2.32824.14392,0,.36.02393.648.02393Zm0-3.72034c-.216,0-.408.02405-.552.02405-.744.048-.744.384-.744,2.16015h1.296Zm-1.1521-1.51209a11.96724,11.96724,0,0,1,1.41613-.048,7.82773,7.82773,0,0,0,.64807-1.72815c0-.144-.144-.16809-.312-.16809s-.504.02405-.864.02405c-.144.312-.312.64807-.4801.96008-.168.33606-.36.64807-.52808.98413Zm.33606,13.87317v-.64807c0-.96008-.048-2.04016-.09595-2.54419v-.12a.6935.6935,0,0,1,.72009-.76807.83565.83565,0,0,1,.816.67212,19.96647,19.96647,0,0,1,.288,3.07227c0,.864-.552,1.176-.96008,1.176A.75146.75146,0,0,1,290.64124,54.95361Zm2.68823-.696a15.665,15.665,0,0,0-.64807-2.54419,1.02389,1.02389,0,0,1-.048-.264.67385.67385,0,0,1,.7201-.624.83183.83183,0,0,1,.744.45605,11.52411,11.52411,0,0,1,.86414,2.66419.97343.97343,0,0,1-.93616.96008A.67968.67968,0,0,1,293.32947,54.25757Zm.96008-9.48084c0-.528-.02393-1.008-.02393-1.34411-.024-.6-.192-.816-.74414-.816h-.552v2.16015Zm-1.32007,1.53614V48.665c.288,0,.52808-.02393.64807-.02393.69605-.048.69605-.384.69605-2.32824Zm2.71216,7.08068a12.27509,12.27509,0,0,0-.88806-1.84814.77486.77486,0,0,1-.14392-.43213.68052.68052,0,0,1,.744-.6.70561.70561,0,0,1,.552.21594,5.21709,5.21709,0,0,1,1.22412,2.28027.8998.8998,0,0,1-.84009.912A.6657.6657,0,0,1,295.68164,53.39355Zm1.58423-8.49682a.8644.8644,0,1,1,0-1.72815l4.03235.02405V42.13647l-2.85633.024a.83137.83137,0,0,1-.88806-.84009.81882.81882,0,0,1,.88806-.84008l2.85633.024v-1.0321l-3.52832.024a.87681.87681,0,1,1,0-1.7522l3.52832.024V36.592a1.02383,1.02383,0,0,1,1.08008-1.056,1.05122,1.05122,0,0,1,1.128,1.056v1.17615l3.9364-.024a.87681.87681,0,1,1,0,1.7522l-3.9364-.024v1.0321l2.7843-.024a.81882.81882,0,0,1,.88806.84008.83137.83137,0,0,1-.88806.84009l-2.80823-.024v1.05616l4.6084-.02405a.86408.86408,0,0,1,0,1.72815Zm2.2561,7.03271c0,1.44007.024,2.88013.0481,4.05628v.02405a.90641.90641,0,0,1-.96008.91211.9712.9712,0,0,1-1.03211-.93616c0-1.17615-.024-2.54419-.024-3.91236,0-1.39209.024-2.80822.024-4.05627.02393-1.32019.552-2.11218,2.16016-2.16028.79211-.02392,1.72815-.048,2.64026-.048.936,0,1.87219.02405,2.66418.048,1.46411.0481,2.1842.79212,2.20825,2.04016,0,1.82422.02393,4.75244.072,6.09656v.048a2.656,2.656,0,0,1-3.00024,2.64026c-1.29614,0-2.01624-.24-2.01624-1.176a.92961.92961,0,0,1,.88807-1.00818.59548.59548,0,0,1,.192.02405,4.35132,4.35132,0,0,0,.93616.12c.984,0,.984-.672.984-2.71216Zm1.89624-4.34448c-.432,0-.816.024-1.12817.024-.72.048-.76807.33606-.76807,2.61621h1.89624Zm3.86426,2.64026c-.02393-.624-.02393-1.248-.048-1.92017-.02393-.384-.168-.672-.744-.696-.312,0-.72009-.024-1.10413-.024v2.64026Z"/>
    <path d="M318.69739,45.66479a9.93721,9.93721,0,0,0-3.12024-1.60815.84724.84724,0,0,1-.624-.816,1.231,1.231,0,0,1,1.20008-1.176,8.49278,8.49278,0,0,1,3.86438,1.488,1.19045,1.19045,0,0,1,.52795,1.00818,1.32337,1.32337,0,0,1-1.176,1.368A1.04562,1.04562,0,0,1,318.69739,45.66479Zm-1.89612,10.56092a1.27168,1.27168,0,0,1-1.2721-1.224,1.1634,1.1634,0,0,1,.33594-.81616,21.86642,21.86642,0,0,0,3.60034-5.85645,1.04,1.04,0,0,1,.98413-.64807,1.14142,1.14142,0,0,1,1.176,1.1521c0,.744-1.84814,4.68042-3.69629,6.81653A1.48643,1.48643,0,0,1,316.80127,56.22571Zm2.88025-15.60132a9.93318,9.93318,0,0,0-2.88025-2.20813.81852.81852,0,0,1-.504-.72009,1.287,1.287,0,0,1,1.296-1.1521c.62415,0,4.17639,1.80017,4.17639,3.14428a1.38023,1.38023,0,0,1-1.27209,1.34412A1.04181,1.04181,0,0,1,319.68152,40.62439Zm2.52014,14.71326a1.05713,1.05713,0,1,1,0-2.11219l5.18445.02405V40.19238l-3.86426.02393a1.0563,1.0563,0,1,1,0-2.11206h10.72888a1.06,1.06,0,1,1,0,2.11206l-4.44043-.02393V53.24951l5.42456-.02405a1.0601,1.0601,0,1,1,0,2.11219Z"/>
    <path d="M358.49084,46.24084c0-2.66418-2.08825-4.94433-5.56848-4.94433h-.048a1.08475,1.08475,0,0,1,.672,1.00806v.12c0,2.52026-2.47217,6.88855-5.11243,9.48084a2.60358,2.60358,0,0,1-1.80017.816c-1.7041,0-3.24024-1.92017-3.24024-4.53638,0-4.34436,4.27234-8.76074,9.67286-8.76074,4.84838,0,7.87268,3.2163,7.87268,6.96057a7.35851,7.35851,0,0,1-.52808,2.71228c-2.11218,5.32837-8.64075,6.07251-8.97681,6.07251a1.2621,1.2621,0,0,1-1.368-1.17615c0-.52795.408-1.0321,1.32007-1.20007C355.75464,52.07336,358.49084,49.38513,358.49084,46.24084ZM351.5542,41.4165c-3.00024.6-6.00049,3.79224-6.00049,6.64856,0,1.80017,1.20007,2.01612,1.2721,2.01612a.63564.63564,0,0,0,.45605-.192c.72009-.64795,3.72034-4.20032,3.81628-7.44055A1.24132,1.24132,0,0,1,351.5542,41.4165Z"/>
    <path d="M376.65857,55.43372c-4.96851,0-7.63269-2.3042-7.63269-3.67237a1.29731,1.29731,0,0,1,1.24805-1.29614,1.43624,1.43624,0,0,1,1.0802.6001,5.65043,5.65043,0,0,0,4.5603,1.82409,16.64054,16.64054,0,0,0,4.08044-.6,2.32824,2.32824,0,0,1,.552-.072,1.20417,1.20417,0,0,1,1.29614,1.22412,1.61617,1.61617,0,0,1-1.34412,1.51208A15.44417,15.44417,0,0,1,376.65857,55.43372Zm1.75207-12.48108a15.26749,15.26749,0,0,1-6.50451-1.53614,1.34924,1.34924,0,0,1-.79212-1.22412,1.05123,1.05123,0,0,1,1.08008-1.10412,2.0032,2.0032,0,0,1,.69617.144,15.66852,15.66852,0,0,0,5.78442,1.248,1.231,1.231,0,0,1,1.24817,1.22412C379.92285,42.32861,379.44275,42.95264,378.41064,42.95264Z"/>
    <path d="M390.62573,51.83337c.02405-.048.168-.192.36-.4801.264-.384.45605-.744.69616-1.1521A23.05645,23.05645,0,0,1,393.506,47.609c.312-.552.576-1.08008.79212-1.56018l.072-.672a9.18236,9.18236,0,0,0-2.13623,1.056,1.52212,1.52212,0,0,1-.86414.33606.97726.97726,0,0,1-.912-1.056c0-.79211.192-1.05615,4.17627-2.7843.192-1.96814.33606-3.69629.33606-4.75244a1.04466,1.04466,0,0,1,1.08008-1.12805,1.15129,1.15129,0,0,1,1.20007,1.10412c0,.72009-.288,3.12024-.432,4.34436a.98086.98086,0,0,1,.55212.96009c1.77612-1.65613,3.62427-3.07227,5.42444-3.07227a2.56658,2.56658,0,0,1,2.56824,2.8562,3.37488,3.37488,0,0,1-.024.4801c-.168,1.56006-.864,4.10437-1.12805,6.3125a5.36162,5.36162,0,0,0-.072.816c0,.74414.264,1.05616,1.12805,1.05616a7.09985,7.09985,0,0,0,2.6643-.76807,1.76717,1.76717,0,0,1,.64808-.144,1.06573,1.06573,0,0,1,1.056,1.128,1.38129,1.38129,0,0,1-.88807,1.29614,8.84859,8.84859,0,0,1-3.43237.74414c-1.84814,0-3.4563-.6001-3.4563-3.02429a5.81211,5.81211,0,0,1,.09607-1.08008c.33606-2.1842.98413-4.70447,1.08008-6.26453v-.264c0-.79212-.288-1.08008-.72009-1.08008-1.2721,0-4.05628,2.64014-6.00049,5.0404-.096,1.2721-.168,2.56824-.168,3.79236a20.98027,20.98027,0,0,0,.24,3.38428.98235.98235,0,0,1,.024.264,1.2436,1.2436,0,0,1-1.2721,1.248c-1.27221,0-1.29614-1.41613-1.29614-3.14428,0-.84009.02393-1.75208.096-2.73621-.52808.86414-1.03211,1.87219-1.46411,2.71228a1.99771,1.99771,0,0,1-1.68018,1.248.88969.88969,0,0,1-.96008-.88806,2.50306,2.50306,0,0,1,.72009-1.39209Z"/>
    <path d="M421.202,45.35278a13.17667,13.17667,0,0,1-2.71216.45606,1.04477,1.04477,0,0,1-1.12818-1.08008,1.15756,1.15756,0,0,1,1.20008-1.20007,17.96365,17.96365,0,0,0,3.96045-.55213,10.17478,10.17478,0,0,0,1.176-3.67224,1.01661,1.01661,0,0,1,1.08008-.86413,1.20914,1.20914,0,0,1,1.29614,1.10412,8.208,8.208,0,0,1-.864,2.9043h.192c2.7362,0,2.80822,2.95227,2.80822,4.05627,0,2.13623-.09607,8.13672-4.53637,8.13672-1.36817,0-3.14429-.624-3.14429-1.77612a1.22341,1.22341,0,0,1,1.75207-1.12818,3.22177,3.22177,0,0,0,1.34412.36011c1.56018,0,2.28027-1.68017,2.28027-5.88049,0-.98413-.144-1.70422-.91211-1.70422a1.478,1.478,0,0,0-.432.04809c-.09607.02393-.24011.072-.384.096-1.80017,3.38428-4.32043,7.32068-5.85656,9.93689a1.42238,1.42238,0,0,1-1.248.696,1.11975,1.11975,0,0,1-1.22412-1.0321,1.46813,1.46813,0,0,1,.288-.84009c1.05616-1.60815,3.55237-5.11243,5.25647-8.11267ZM434.49927,48.665a7.63063,7.63063,0,0,0-4.12842-3.81629.872.872,0,0,1-.64807-.816,1.12029,1.12029,0,0,1,1.1521-1.05615c1.22412,0,5.92859,2.97632,5.92859,5.18445a1.27915,1.27915,0,0,1-1.27222,1.2721A1.11833,1.11833,0,0,1,434.49927,48.665Z"/>
    <path d="M447.98657,56.58582c-.91211,0-1.32007-.52808-1.32007-1.08008a1.14961,1.14961,0,0,1,1.10413-1.12818c4.24829-.33606,7.70459-2.83215,7.70459-4.75232a1.68513,1.68513,0,0,0-1.84814-1.53613c-1.84815,0-5.25647,3.02417-5.61646,3.4563a1.78323,1.78323,0,0,1-1.32019.84c-.52795,0-1.99207-.528-1.99207-3.93628a10.495,10.495,0,0,1,.432-3.12024,10.316,10.316,0,0,0,.24-2.01624v-.40808c0-1.56006.72009-2.35217,2.37622-3.26416.57605-.31213,1.2721-.6001,1.2721-.88818,0-.192-.264-.384-.91211-.6a1.0814,1.0814,0,0,1-.88806-.98413,1.19966,1.19966,0,0,1,1.29614-1.08008c.864,0,3.86438,1.41614,3.86438,3.07227,0,1.12805-.88806,1.29614-2.08826,1.48816a4.87181,4.87181,0,0,0-1.1521.48c-1.51208.696-1.77612,1.32019-1.77612,2.06421,0,.12.024.264.024.40808v.264a7.26032,7.26032,0,0,1-.072.96,22.43325,22.43325,0,0,0-.40809,3.16833c0,.072,0,1.03211.28809,1.03211a.55278.55278,0,0,0,.21594-.072c.4801-.28808,1.39221-.9121,2.44824-1.51208a8.08834,8.08834,0,0,1,3.86438-1.29614c2.08814,0,4.15235,1.34411,4.15235,3.50427,0,1.53613-1.05615,3.38428-3.60034,5.04041A15.61472,15.61472,0,0,1,447.98657,56.58582Z"/>
    <path d="M475.22717,49.28918a12.819,12.819,0,0,1-.048,1.32007,1.42721,1.42721,0,0,1-1.29614,1.46411,1.002,1.002,0,0,1-.98413-1.12805v-.21606a13.0584,13.0584,0,0,0,.09607-1.60816c-.504.264-2.73621,1.44019-2.73621,2.95227,0,.40809.192,1.82422,2.64014,1.82422a11.15029,11.15029,0,0,0,3.02429-.504,1.93965,1.93965,0,0,1,.6001-.09606,1.15853,1.15853,0,0,1,1.248,1.128c0,.50415-.192,1.72827-4.29626,1.72827-3.9364,0-5.37647-2.06421-5.37647-3.81641,0-2.92822,3.40821-4.75244,4.65637-5.40039-.28808-.93616-.76806-1.41614-1.41613-1.41614a2.36588,2.36588,0,0,0-1.24817.432c-1.00806,1.12805-1.608,1.46411-2.13611,1.46411a.95831.95831,0,0,1-1.0321-.91211,1.30939,1.30939,0,0,1,.552-.984,12.52528,12.52528,0,0,0,3.07226-3.64831,7.03475,7.03475,0,0,1-1.176.096c-2.4242,0-2.44824-1.34412-2.44824-1.53614a1.02019,1.02019,0,0,1,.984-1.056,1.5268,1.5268,0,0,1,.86414.312,1.6276,1.6276,0,0,0,.88806.192,9.27746,9.27746,0,0,0,1.89624-.264,9.24366,9.24366,0,0,0,.432-1.89612.943.943,0,0,1,1.00806-.84008,1.22462,1.22462,0,0,1,1.29614,1.056,4.578,4.578,0,0,1-.144.88806c.7201-.36.816-.384.98414-.384a1.04505,1.04505,0,0,1,1.0321,1.05615c0,.792-.62415,1.27209-3.12036,1.87207a25.81925,25.81925,0,0,1-1.368,2.40027,3.20849,3.20849,0,0,1,3.02417,2.25622,27.87864,27.87864,0,0,1,5.54455-1.94421,1.27758,1.27758,0,0,1,1.34412,1.24817.99171.99171,0,0,1-.64807.936c-.74414.312-1.53614.40808-2.7843.79212-1.00806.312-2.04017.696-2.9762,1.08007A8.87824,8.87824,0,0,1,475.22717,49.28918Z"/>
    <path d="M490.10632,49.72119a1.04467,1.04467,0,1,1,0-2.08813l4.63245.02392v-4.6084l-3.43237.024a1.05636,1.05636,0,1,1,0-2.11218l3.43237.02393V37.12012a1.19982,1.19982,0,0,1,2.3761,0v3.86426h4.36841V37.12012a1.19989,1.19989,0,0,1,2.37622,0v3.86426l3.64831-.02393a1.05872,1.05872,0,0,1,0,2.11218l-3.64831-.024V47.657l4.84839-.02392a1.04589,1.04589,0,0,1,0,2.08813Zm.40808,6.93665a1.26815,1.26815,0,0,1-1.32019-1.22412,1.30979,1.30979,0,0,1,1.10413-1.20008,13.80857,13.80857,0,0,0,5.52051-3.16833,1.15108,1.15108,0,0,1,.792-.33606,1.309,1.309,0,0,1,1.24817,1.27209,1.16859,1.16859,0,0,1-.40808.86414C496.08276,54.06555,492.00244,56.65784,490.5144,56.65784Zm10.96888-13.60926h-4.36841V47.657h4.36841Zm6.62463,13.51319c-.91211,0-4.75244-1.8241-6.96069-3.76831a1.12972,1.12972,0,0,1-.432-.88806,1.25776,1.25776,0,0,1,1.22412-1.20008,1.234,1.234,0,0,1,.79212.312,14.94109,14.94109,0,0,0,5.66442,3.02417,1.28654,1.28654,0,0,1,1.08008,1.22412A1.33813,1.33813,0,0,1,508.10791,56.56177Z"/>
    <path d="M518.30652,54.61768a15.43765,15.43765,0,0,1-.624-4.58448c0-4.22436,1.22412-8.35266,1.34411-10.00879a1.17946,1.17946,0,0,1,2.35217-.09607.59574.59574,0,0,1-.024.192c-.33594,1.7522-1.56006,6.19251-1.56006,8.56873,0,.88806.168.98413.24.98413.048,0,.12-.048.168-.16809.74414-1.416.91211-1.7041,1.41613-1.7041a1.04348,1.04348,0,0,1,.98414,1.00805.74126.74126,0,0,1-.12.43213,12.45606,12.45606,0,0,0-1.80017,4.51233c0,.21606.024.432.024.64807a1.128,1.128,0,0,1-1.2002,1.248A1.28273,1.28273,0,0,1,518.30652,54.61768Zm13.34509-.144c-4.15234,0-7.32056-2.47229-7.32056-3.64831a1.203,1.203,0,0,1,1.24805-1.12818,1.41123,1.41123,0,0,1,1.08008.52808,6.1209,6.1209,0,0,0,4.65649,1.60815,14.8273,14.8273,0,0,0,2.04016-.144,1.172,1.172,0,0,1,.288-.02392A1.10775,1.10775,0,0,1,534.844,52.8175C534.844,54.06555,533.78784,54.47363,531.65161,54.47363Zm-2.71216-10.537a13.54851,13.54851,0,0,1-3.24023-.36,1.1063,1.1063,0,0,1,.096-2.20825.89819.89819,0,0,1,.24.02405,11.2788,11.2788,0,0,0,2.32824.24,22.9736,22.9736,0,0,0,2.95227-.24c.072,0,.144-.02405.216-.02405a1.10224,1.10224,0,0,1,1.1521,1.12817C532.68372,43.45667,532.01172,43.93665,528.93945,43.93665Z"/>
    <path d="M542.01855,55.62573a1.092,1.092,0,0,1-1.10412-1.05615,1.15108,1.15108,0,0,1,.33606-.792c1.89612-1.99219,2.13623-4.84851,2.13623-6.9607,0-.76806-.024-1.46411-.024-1.96814,0-1.51208,1.1521-1.99218,2.25623-2.01611.72,0,1.39209-.024,2.01611-.024.91211,0,1.80017.024,2.83228.048,1.44018.048,2.30419.55212,2.37622,1.75219.02392.45606.048,1.00806.048,1.58411,0,2.49622-.072,3.43237-2.40015,3.4563-1.27209.02405-2.49621.02405-3.74438.02405h-1.58411C544.70679,52.96143,543.29065,55.62573,542.01855,55.62573Zm4.10437-13.7052a.86836.86836,0,0,1-.86413-.55212c-2.13611,2.20825-2.8562,2.25622-3.07227,2.25622a1.25708,1.25708,0,0,1-1.248-1.1521,1.10749,1.10749,0,0,1,.57605-.936,18.094,18.094,0,0,0,4.41638-4.34436,2.54547,2.54547,0,0,1,2.11218-1.22412,2.96221,2.96221,0,0,1,2.25623,1.22412,23.27881,23.27881,0,0,0,3.76831,3.50427.99517.99517,0,0,1,.432.79212,1.32279,1.32279,0,0,1-1.24817,1.248c-.384,0-.696-.096-2.20813-1.60815a.84724.84724,0,0,1-.9121.79211Zm2.83228,14.44922c-3.04834,0-4.29639,0-4.29639-2.35217,0-1.6322.02393-3.21631,1.89612-3.33631.76807-.048,1.56018-.048,2.35217-.048.81617,0,1.63221,0,2.4242.048a1.94028,1.94028,0,0,1,1.89624,1.58411c.02392.33606.048.696.048,1.08008,0,1.20019-.072,2.83227-1.99218,2.95227C550.49133,56.3457,549.72327,56.36975,548.9552,56.36975ZM545.37891,46.985c0,.33605-.024.696-.0481,1.08007.91211,0,1.72815.024,2.52026.024s1.56006-.024,2.28016-.024a.61743.61743,0,0,0,.67211-.624c0-.144.02393-.28809.02393-.456Zm5.44836-1.46412c0-.16809-.02393-.3601-.02393-.4801-.024-.408-.28808-.57605-.67211-.57605-.7201-.02405-1.368-.02405-2.01612-.02405-.62414,0-1.22412,0-1.89624.02405s-.816.384-.816.88806v.16809Zm-.64807-5.32849c-.504-.57605-1.00806-1.1521-1.416-1.65613-.24011-.264-.43213-.384-.62414-.384-.21594,0-.384.168-.57605.432a17.819,17.819,0,0,1-1.22412,1.60815Zm-1.032,12.16907c-.576,0-1.12818,0-1.68018.02393-.67212,0-.72009.55212-.72009,1.24816,0,.792.024.88807,2.20825.88807,1.89612,0,2.1842,0,2.1842-1.00806C551.1394,52.4574,551.11536,52.36145,549.14722,52.36145Zm5.78442-13.94519a1.10439,1.10439,0,0,1,2.20825,0v12.241a1.10664,1.10664,0,0,1-2.20825,0Zm6.55261,14.9292v.04809c0,1.44007-.91211,3.14429-3.67236,3.14429-1.99219,0-2.64026-.43213-2.64026-1.36816a1.09142,1.09142,0,0,1,.98413-1.20008.81869.81869,0,0,1,.24.02393,7.7276,7.7276,0,0,0,1.48816.264c.64807,0,1.20007-.264,1.22412-1.29614.024-.88807.024-7.56055.024-12.025V37.144a1.15315,1.15315,0,0,1,2.3042,0V50.44128Z"/>
    <path d="M580.30005,37.02405a1.36353,1.36353,0,0,1,1.46411,1.36816,1.77929,1.77929,0,0,1-.552,1.24817c-1.65613,1.68005-4.15235,4.41626-4.82446,5.04041a8.15721,8.15721,0,0,1,3.88842-.93616c3.6482,0,5.92847,2.61621,5.92847,5.01648,0,4.75244-6.43262,7.53662-11.401,7.53662a1.2928,1.2928,0,0,1-1.39209-1.248c0-.55212.408-1.10412,1.32007-1.12817,6.45654-.192,8.9768-3.26428,8.9768-5.18445,0-.864-.816-3.04822-3.8883-3.04822a8.2781,8.2781,0,0,0-6.07251,2.8562,26.15408,26.15408,0,0,0-1.65625,2.25623,1.42131,1.42131,0,0,1-1.1521.6001,1.30191,1.30191,0,0,1-1.34412-1.2002c0-.48.24012-.816,2.04016-2.7362,1.51221-1.58411,6.8407-7.87268,6.8407-7.99268h-.024a.6245.6245,0,0,0-.168.072,17.72461,17.72461,0,0,1-4.70447,1.58411,1.29039,1.29039,0,0,1-1.32007-1.2721,1.20346,1.20346,0,0,1,1.296-1.1521,31.14574,31.14574,0,0,0,5.13647-1.20007c.76807-.28809.79212-.4801,1.58423-.4801Z"/>
    <path d="M595.68359,55.64966a1.08277,1.08277,0,0,1,.69605-1.00806c4.41638-1.94409,5.85644-4.72839,5.85644-7.3446,0-.67212-.21594-4.15235-2.06408-4.15235a3.82435,3.82435,0,0,0-1.89624.744,5.31986,5.31986,0,0,1-2.52014,1.08008,1.276,1.276,0,1,1-.12012-2.54419,5.20924,5.20924,0,0,0,1.6322-.6001,7.432,7.432,0,0,1,3.04822-.76806c4.22436,0,4.32043,5.71252,4.32043,6.19262,0,6.4325-6.69665,9.67286-7.68066,9.67286A1.29563,1.29563,0,0,1,595.68359,55.64966Zm6.04847-16.58545a11.0126,11.0126,0,0,1-4.65638-1.032,1.12951,1.12951,0,0,1-.64807-.98413,1.076,1.076,0,0,1,1.10413-1.05616,1.77066,1.77066,0,0,1,.64807.14405,6.646,6.646,0,0,0,2.80823.52807c.288,0,.552,0,.84008-.02405h.096a1.10208,1.10208,0,0,1,1.22412,1.0802A1.32,1.32,0,0,1,601.73206,39.06421Z"/>
    <path d="M617.908,55.96167a1.6627,1.6627,0,0,1-1.65625-1.58411,1.73392,1.73392,0,0,1,1.65625-1.65612,1.549,1.549,0,0,1,1.65613,1.65612A1.59635,1.59635,0,0,1,617.908,55.96167Zm-1.03211-6.09644v-.504c0-2.32825-.24011-7.92078-.384-11.68909v-.072A1.30149,1.30149,0,0,1,617.88391,36.28a1.35766,1.35766,0,0,1,1.44006,1.39209c0,2.83227-.384,9.43286-.384,11.761,0,.57617,0,1.58422-1.056,1.58422a1.03171,1.03171,0,0,1-1.00806-1.12817Z"/>
  </g>
</svg>
