<?xml version="1.0" encoding="utf-8"?>
<!-- Generator: Adobe Illustrator 24.2.1, SVG Export Plug-In . SVG Version: 6.00 Build 0)  -->
<svg version="1.1" id="レイヤー_1" xmlns="http://www.w3.org/2000/svg" xmlns:xlink="http://www.w3.org/1999/xlink" x="0px"
	 y="0px" width="700px" height="171px" viewBox="0 0 700 171" style="enable-background:new 0 0 700 171;" xml:space="preserve">
<style type="text/css">
	.st0{fill:#FFFFFF;}
	.st1{fill:#FFFF00;}
</style>
<g>
	<g>
		<g>
			<g>
				<path class="st0" d="M143.8,90.6v2.6c-0.8-0.6-1.6-0.9-2.2-0.9c-0.7,0-1.3,0.3-1.7,0.7c-0.4,0.5-0.7,1.1-0.7,1.9
					c0,0.7,0.2,1.3,0.5,1.8c0.2,0.3,0.4,0.6,0.8,1c0.4,0.4,0.9,0.9,1.5,1.5c1.1,1.1,1.8,2.1,2.2,2.9c0.4,0.8,0.6,1.7,0.6,2.9
					c0,1.5-0.4,2.8-1.3,3.8c-0.9,1-2,1.5-3.3,1.5c-1.1,0-2.1-0.3-2.9-0.9v-2.7c1,0.7,1.8,1,2.6,1c0.7,0,1.3-0.2,1.7-0.7
					c0.4-0.5,0.6-1.1,0.6-2c0-0.7-0.2-1.4-0.5-2c-0.2-0.3-0.4-0.6-0.7-1c-0.3-0.4-0.7-0.8-1.1-1.2c-0.7-0.7-1.2-1.3-1.7-1.8
					c-0.4-0.5-0.8-1-1-1.4c-0.4-0.8-0.6-1.7-0.6-2.9c0-1.6,0.4-2.8,1.2-3.7c0.8-0.9,1.9-1.4,3.3-1.4C142,89.9,142.9,90.1,143.8,90.6
					z"/>
				<path class="st0" d="M156.5,90.2h2.1l4.3,20h-2.7l-0.7-3.9h-4l-0.8,3.9h-2.6L156.5,90.2z M159.1,104.2l-0.6-3.2
					c-0.4-2.2-0.7-4.5-1-6.9c-0.1,1.2-0.3,2.4-0.5,3.6c-0.2,1.2-0.4,2.5-0.7,3.9l-0.5,2.6H159.1z"/>
				<path class="st0" d="M170.8,90.2h3.6c2.9,0,4.3,1.8,4.3,5.3c0,1.4-0.2,2.4-0.6,3s-1,1.2-2,1.5c1.1,0.4,1.8,1,2.2,1.7
					c0.4,0.7,0.6,1.7,0.6,3c0,3.7-1.6,5.5-4.7,5.5h-3.5V90.2z M173.3,99c1,0,1.8-0.2,2.2-0.7c0.4-0.5,0.6-1.4,0.6-2.7
					c0-2.2-0.8-3.2-2.3-3.2h-0.2h-0.1c-0.1,0-0.1,0-0.1,0V99z M173.3,107.8c1.1,0,1.9-0.2,2.3-0.7c0.4-0.5,0.6-1.3,0.6-2.6
					c0-1.3-0.2-2.2-0.7-2.7c-0.4-0.5-1.2-0.8-2.3-0.8V107.8z"/>
				<path class="st0" d="M190.9,90.2h2.1l4.3,20h-2.7l-0.7-3.9h-4l-0.8,3.9h-2.6L190.9,90.2z M193.5,104.2l-0.6-3.2
					c-0.4-2.2-0.7-4.5-1-6.9c-0.1,1.2-0.3,2.4-0.5,3.6c-0.2,1.2-0.4,2.5-0.7,3.9l-0.5,2.6H193.5z"/>
				<path class="st0" d="M205.2,90.2h7.1v2.3h-4.5v6.3h4v2.3h-4v6.8h4.5v2.3h-7.1V90.2z"/>
				<path class="st0" d="M264.5,100.6c0,3.5-0.4,6-1.2,7.5c-0.8,1.5-2.1,2.2-3.9,2.2c-1.9,0-3.3-0.8-4.1-2.4
					c-0.8-1.6-1.2-4.3-1.2-8.3c0-3.5,0.4-6.1,1.2-7.5c0.8-1.5,2.1-2.2,4-2.2c1.7,0,2.9,0.6,3.7,1.7c0.5,0.8,0.9,1.9,1.2,3.3
					C264.4,96.2,264.5,98.1,264.5,100.6z M261.7,100.9c0-3.5-0.2-5.7-0.5-6.9c-0.3-1.1-0.9-1.7-1.9-1.7s-1.6,0.5-1.9,1.6
					c-0.3,1.1-0.5,3.2-0.5,6.3c0,2.9,0.2,4.9,0.5,6.1c0.3,1.1,1,1.6,1.9,1.6c0.9,0,1.5-0.5,1.9-1.5
					C261.5,105.4,261.7,103.6,261.7,100.9z"/>
				<path class="st0" d="M273.5,90.2h2.5l2.7,8c0.8,2.2,1.5,4.6,2.1,7.2c-0.2-1.5-0.4-2.9-0.5-4.2c-0.1-1.2-0.2-2.4-0.2-3.5v-7.4
					h2.7v20h-2.5l-3-9c-0.3-0.8-0.5-1.7-0.8-2.6c-0.2-0.9-0.5-1.8-0.7-2.8c0-0.1,0-0.3-0.1-0.4c0-0.2-0.1-0.4-0.1-0.6
					c0,0.2,0,0.4,0.1,0.6c0,0.2,0,0.3,0,0.4l0.1,2l0.1,2.5c0,0.1,0,0.3,0,0.5c0,0.2,0,0.4,0,0.7l0.1,8.7h-2.6V90.2z"/>
				<path class="st0" d="M302.2,100.6c0,3.5-0.4,6-1.2,7.5c-0.8,1.5-2.1,2.2-3.9,2.2c-1.9,0-3.3-0.8-4.1-2.4
					c-0.8-1.6-1.2-4.3-1.2-8.3c0-3.5,0.4-6.1,1.2-7.5c0.8-1.5,2.1-2.2,4-2.2c1.7,0,2.9,0.6,3.7,1.7c0.5,0.8,0.9,1.9,1.2,3.3
					C302.1,96.2,302.2,98.1,302.2,100.6z M299.4,100.9c0-3.5-0.2-5.7-0.5-6.9c-0.3-1.1-0.9-1.7-1.9-1.7s-1.6,0.5-1.9,1.6
					c-0.3,1.1-0.5,3.2-0.5,6.3c0,2.9,0.2,4.9,0.5,6.1c0.3,1.1,1,1.6,1.9,1.6c0.9,0,1.5-0.5,1.9-1.5
					C299.2,105.4,299.4,103.6,299.4,100.9z"/>
				<path class="st0" d="M311.2,90.2h3.3c1,0,1.9,0.1,2.5,0.3c0.6,0.2,1.2,0.6,1.7,1.2c0.7,0.8,1.3,1.9,1.6,3.2
					c0.3,1.3,0.5,3.1,0.5,5.5c0,2.2-0.2,4-0.5,5.4c-0.3,1.3-0.9,2.3-1.7,3c-1,0.9-2.7,1.3-5.2,1.3h-2.2V90.2z M313.9,107.8
					c1.6,0,2.7-0.5,3.3-1.5c0.6-1,0.9-2.9,0.9-5.8c0-3.1-0.3-5.2-0.8-6.3c-0.5-1.2-1.5-1.7-3-1.7h-0.3V107.8z"/>
				<path class="st0" d="M329.9,90.2h2.6v14.1c0,1.4,0.1,2.4,0.4,2.9c0.3,0.5,0.8,0.7,1.6,0.7c0.8,0,1.3-0.2,1.6-0.6
					c0.3-0.4,0.4-1.3,0.4-2.6V90.2h2.6v14.5c0,2.2-0.3,3.6-1,4.4c-0.8,0.9-2,1.3-3.6,1.3c-1.8,0-3.1-0.6-3.8-1.7
					c-0.5-0.8-0.8-2.2-0.8-4.4V90.2z"/>
				<path class="st0" d="M348.5,90.2h2.7v9.7l3.7-9.7h2.7l-3.9,9.7l4.2,10.3h-3l-3.7-10.3v10.3h-2.7V90.2z"/>
				<path class="st0" d="M366,90.2h2.6v14.1c0,1.4,0.1,2.4,0.4,2.9c0.3,0.5,0.8,0.7,1.6,0.7c0.8,0,1.3-0.2,1.6-0.6
					c0.3-0.4,0.4-1.3,0.4-2.6V90.2h2.6v14.5c0,2.2-0.3,3.6-1,4.4c-0.8,0.9-2,1.3-3.6,1.3c-1.8,0-3.1-0.6-3.8-1.7
					c-0.5-0.8-0.8-2.2-0.8-4.4V90.2z"/>
				<path class="st0" d="M384.6,90.2h3.5c1.5,0,2.6,0.3,3.3,1c0.9,0.9,1.4,2.3,1.4,4.1c0,1.4-0.2,2.6-0.7,3.4
					c-0.5,0.9-1.2,1.4-2,1.6l3.7,9.7H391l-3.7-9.8v9.8h-2.7V90.2z M387.3,99c1,0,1.8-0.2,2.2-0.7s0.6-1.3,0.6-2.4
					c0-0.6,0-1.2-0.1-1.6c-0.1-0.4-0.2-0.8-0.4-1.1c-0.2-0.3-0.4-0.5-0.7-0.6c-0.3-0.1-0.7-0.2-1.1-0.2h-0.5V99z"/>
				<path class="st0" d="M402.1,90.2h2.7v20h-2.7V90.2z"/>
				<path class="st0" d="M426.1,90.2h7.1v2.3h-4.5v6.3h4v2.3h-4v6.8h4.5v2.3h-7.1V90.2z"/>
				<path class="st0" d="M440.7,90.2h2.6l1.4,3.9c0.5,1.5,0.9,2.6,1,3.3c0.1-0.4,0.2-0.9,0.3-1.3c0.1-0.4,0.2-0.8,0.4-1.2l0.2-0.6
					l1.3-4.1h2.7l-3.7,9.8l3.7,10.1h-2.7l-1.3-3.8c-0.3-0.8-0.5-1.4-0.6-2c-0.2-0.6-0.3-1.1-0.3-1.6c-0.1,0.6-0.2,1.1-0.3,1.7
					l-0.5,1.4l-0.2,0.7l-1.2,3.6h-2.8l3.8-10.1L440.7,90.2z"/>
				<path class="st0" d="M458.3,90.2h3.5c1.7,0,2.9,0.4,3.7,1.3c0.8,0.9,1.2,2.2,1.2,4.1c0,2.7-0.8,4.4-2.3,5.1
					c-0.8,0.4-1.9,0.5-3.4,0.5v8.9h-2.7V90.2z M461,99c1.1,0,1.9-0.2,2.3-0.7c0.4-0.5,0.6-1.3,0.6-2.4c0-1.2-0.2-2.1-0.6-2.6
					s-1.1-0.8-2-0.8H461V99z"/>
				<path class="st0" d="M485.1,100.6c0,3.5-0.4,6-1.2,7.5s-2.1,2.2-3.9,2.2c-1.9,0-3.3-0.8-4.1-2.4c-0.8-1.6-1.2-4.3-1.2-8.3
					c0-3.5,0.4-6.1,1.2-7.5c0.8-1.5,2.1-2.2,4-2.2c1.7,0,2.9,0.6,3.7,1.7c0.5,0.8,0.9,1.9,1.2,3.3C485,96.2,485.1,98.1,485.1,100.6z
					 M482.3,100.9c0-3.5-0.2-5.7-0.5-6.9c-0.3-1.1-0.9-1.7-1.9-1.7c-1,0-1.6,0.5-1.9,1.6c-0.3,1.1-0.5,3.2-0.5,6.3
					c0,2.9,0.2,4.9,0.5,6.1c0.3,1.1,1,1.6,1.9,1.6c0.9,0,1.5-0.5,1.9-1.5C482.2,105.4,482.3,103.6,482.3,100.9z"/>
			</g>
			<g>
				<g>
					<path class="st0" d="M508,96.7h-2.6l0-0.8c0-2.1,0.3-3.6,1-4.5c0.7-0.9,1.7-1.3,3.3-1.3c2.9,0,4.3,1.6,4.3,4.8
						c0,2.2-1.1,5.3-3.2,9.3l-1.6,2.9c0,0,0,0.1-0.1,0.2c0,0.1-0.1,0.2-0.2,0.4h4.8v2.3h-8.6c0.1-0.3,0.4-1,0.9-1.9
						c0.5-1,1.1-2.2,1.9-3.9c0.7-1.4,1.2-2.6,1.7-3.6c0.4-1,0.8-1.8,1-2.4c0.5-1.3,0.7-2.4,0.7-3.3c0-1.6-0.6-2.4-1.7-2.4
						c-1.1,0-1.6,1-1.6,3l0,1.1L508,96.7z"/>
					<path class="st0" d="M528.6,100.3c0,3.5-0.3,6.1-1,7.6c-0.7,1.5-1.8,2.3-3.4,2.3c-1.6,0-2.8-0.8-3.4-2.3c-0.7-1.5-1-4.1-1-7.8
						c0-3.7,0.3-6.3,1-7.8c0.7-1.5,1.8-2.3,3.4-2.3c1.5,0,2.6,0.7,3.3,2C528.3,93.5,528.6,96.2,528.6,100.3z M525.9,100.3
						c0-3-0.1-5-0.4-6.1c-0.3-1.1-0.7-1.7-1.4-1.7c-0.7,0-1.1,0.6-1.4,1.7c-0.3,1.1-0.4,3.1-0.4,6c0,2.9,0.1,4.9,0.4,6
						c0.3,1.1,0.7,1.7,1.4,1.7c0.7,0,1.1-0.6,1.4-1.7C525.8,105.2,525.9,103.2,525.9,100.3z"/>
					<path class="st0" d="M537.3,96.7h-2.6l0-0.8c0-2.1,0.3-3.6,1-4.5c0.7-0.9,1.7-1.3,3.3-1.3c2.9,0,4.3,1.6,4.3,4.8
						c0,2.2-1.1,5.3-3.2,9.3l-1.6,2.9c0,0,0,0.1-0.1,0.2c0,0.1-0.1,0.2-0.2,0.4h4.8v2.3h-8.6c0.1-0.3,0.4-1,0.9-1.9
						c0.5-1,1.1-2.2,1.9-3.9c0.7-1.4,1.2-2.6,1.7-3.6c0.4-1,0.8-1.8,1-2.4c0.5-1.3,0.7-2.4,0.7-3.3c0-1.6-0.6-2.4-1.7-2.4
						c-1.1,0-1.6,1-1.6,3l0,1.1L537.3,96.7z"/>
					<path class="st0" d="M558,100.3c0,3.5-0.3,6.1-1,7.6c-0.7,1.5-1.8,2.3-3.4,2.3c-1.6,0-2.8-0.8-3.4-2.3c-0.7-1.5-1-4.1-1-7.8
						c0-3.7,0.3-6.3,1-7.8c0.7-1.5,1.8-2.3,3.4-2.3c1.5,0,2.6,0.7,3.3,2C557.6,93.5,558,96.2,558,100.3z M555.3,100.3
						c0-3-0.1-5-0.4-6.1c-0.3-1.1-0.7-1.7-1.4-1.7c-0.7,0-1.1,0.6-1.4,1.7c-0.3,1.1-0.4,3.1-0.4,6c0,2.9,0.1,4.9,0.4,6
						c0.3,1.1,0.7,1.7,1.4,1.7c0.7,0,1.1-0.6,1.4-1.7C555.1,105.2,555.3,103.2,555.3,100.3z"/>
				</g>
			</g>
			<polygon class="st0" points="240.1,110.2 238.3,110.2 237.9,109.3 234.8,98.2 234.8,110.1 232.4,110.1 232.4,90.1 235,90.1 
				239.1,104.9 243.2,90.1 245.8,90.1 245.8,110.1 243.4,110.1 243.4,98.2 			"/>
		</g>
		<g>
			<g>
				<path class="st0" d="M15.3,32.3c-2.1,0-4.2,0.3-6.2,1c-4.8,1.8-7.7,4.8-8.6,9c-1.1,5.3-0.4,8.8,2.3,11.6
					c3.6,3.8,9.8,5.9,17.3,5.9c3.7,0,7.6-0.5,11.6-1.5c0.7-0.2,1.2-0.6,1.6-1.2c0.3-0.6,0.4-1.3,0.2-1.9l-0.6-2
					c-12.3,3.8-22.7,1.7-26.6-2.4c-2-2-1.7-4.3-1.3-6.7c0.5-2.9,2.6-5.1,5.8-6.3c7.9-2.9,19.6,3.5,19.7,3.6l1.1,0.6l3.1-1.7
					c0.7-0.4,1-1.2,0.7-1.9l-8.8-20.8l9.5-0.4c1,0,1.7-0.9,1.7-1.8l-0.1-2.9l-13,0.6l-0.1-0.2L19.9,2.1L15.7,4l3.9,9.1L3.6,13.8
					l0.2,4.6l17.6-0.8l0.1,0.2L29,35.5l-0.7-0.3C24.7,33.7,19.9,32.3,15.3,32.3z"/>
			</g>
			<g>
				<path class="st0" d="M65.5,60.3h3.5c0.8,0,1.5-0.4,1.9-1.1l2.1-3.5h-2.9V5.8h-4.6V60.3z"/>
			</g>
			<g>
				<path class="st0" d="M91.5,40.8c-1.1,0-2.1,0.1-3.1,0.4c-3.7,0.9-6.3,3.5-7.2,7.3c-1,4,0.3,6.7,1.5,8.2c2,2.5,5.4,4,9.2,4
					c2.1,0,9.1-0.8,10.1-10.9l0.1-0.6l0.5,0.3c2.1,1.4,4.2,3.2,6.1,5.3c0.8,0.8,2,0.8,2.9,0.1l1.9-1.7c-3.5-3.9-7.3-7.1-11.2-9.2
					l-0.2-0.1V19.7h7.1c1.3,0,2.3-1.1,2.3-2.3v-2.3h-9.4V3.6h-4.6v11.5H82.6v4.6h14.8v22.1L97,41.7C95.1,41.1,93.2,40.8,91.5,40.8z
					 M91.9,56c-2.4,0-4.5-0.8-5.6-2.2c-0.8-1.1-1-2.5-0.6-4.3c0.5-2.1,1.8-3.4,3.9-3.9c2.1-0.5,4.8-0.2,7.7,1l0.2,0.1v0.6
					C97.4,56,93.3,56,91.9,56z"/>
			</g>
			<g>
				<path class="st0" d="M108.3,10.4h3.3c0.7,0,1.3-0.6,1.3-1.3V3.1h-4.6V10.4z"/>
			</g>
			<g>
				<path class="st0" d="M116.6,10.4h3.3c0.7,0,1.3-0.6,1.3-1.3V3.1h-4.6V10.4z"/>
			</g>
			<g>
				<path class="st0" d="M373.2,10.4h3.3c0.7,0,1.3-0.6,1.3-1.3V3.1h-4.6V10.4z"/>
			</g>
			<g>
				<path class="st0" d="M381.5,10.4h3.3c0.7,0,1.3-0.6,1.3-1.3V3.1h-4.6V10.4z"/>
			</g>
			<g>
				<path class="st0" d="M148.5,7.5l16.2,2.4c1.1,0.2,2.1-0.6,2.3-1.7l0.4-2.6l-18.2-2.7L148.5,7.5z"/>
			</g>
			<g>
				<path class="st0" d="M158.1,40.8h0.1c0.4,0,2.7,0.1,4,1.2c0.4,0.4,0.9,1,0.9,2.5l0,5.3c0,6.6,5.3,11,10.2,11h6.9
					c0.6,0,1.2-0.5,1.2-1.2v-3.5h-8.1c-2.3,0-5.5-2.2-5.5-6.4l0-5.3c0-2.4-0.8-4.4-2.3-5.8c-0.8-0.8-1.8-1.4-3.1-1.8l-0.5-0.2
					l9.6-10.6c0.3-0.3,0.4-0.6,0.4-1v-4.4h-29.5v4.6h23.6l-28.7,31.5l2.8,2.6c0.2,0.1,0.4,0.2,0.6,0.2c0.2,0,0.4-0.1,0.6-0.3
					L158.1,40.8z"/>
			</g>
			<g>
				<path class="st0" d="M199,33.6h10.7v13.6c0,9.9,5.5,15.1,16,15.1c10.6,0,15.5-7.5,15.6-15h-3c-0.4,0-1.6,0.3-1.7,1.5
					c-0.5,3.3-2.5,8.9-10.8,8.9c-7.9,0-11.3-3.1-11.3-10.5V33.6h13.2c1,0,1.8-0.8,1.8-1.8V29h-14.9V18.2h8.3c1,0,1.8-0.8,1.8-1.8
					v-2.9h-10.1V2.1h-4.6v11.5h-7.7v4.6h7.7V29H199V33.6z"/>
			</g>
			<g>
				<path class="st0" d="M291.1,55.9l3.1,2.9c0.2,0.2,0.8,0.6,2.1-0.1c13.2-6.8,17.3-21.3,15.5-31.9c-2.2-13.5-12-22.6-27.3-22.2
					c-7.8,0.2-14.4,3.7-19,10.7c-3.8,5.7-6,13.4-6,20.9c0,12,5.4,20.1,13.5,20.1c6.4,0,14.1-3.9,14.1-22.3V9.3l0.4,0
					C301,9.6,306,19.6,307.3,27.6C309,38.2,304,51.2,291.1,55.9z M273.1,51.7c-6.1,0-8.9-7.8-8.9-15.5c0-6.7,1.9-13.4,5.2-18.4
					c2.3-3.4,6.3-7.6,12.8-8.5l0.4,0V34C282.6,45.9,279.5,51.7,273.1,51.7z"/>
			</g>
			<g>
				<path class="st0" d="M342.4,50.6l3.1,4c0.3,0.4,0.8,0.7,1.3,0.7h9.9c13.7,0,23-12.3,23-23.8c0-5.1-1.9-9.8-5.3-13
					c-3.8-3.7-9.6-5.6-16.6-5.6h-29.3v4.6h29.3c5.8,0,10.4,1.5,13.4,4.3c3.2,3,3.9,6.9,3.9,9.7c0,9.1-7.5,19.2-18.3,19.2H342.4z"/>
			</g>
			<g>
				<path class="st0" d="M400.9,33.7l28.5,25.1c1,0.9,2.7,0.8,3.6-0.2l1.4-1.6l-28.8-25.4v-1.4l28.8-25.2l-3-3.5l-29.6,25.9
					c-0.5,0.4-0.8,1.1-0.8,1.7V33.7z"/>
			</g>
			<g>
				<path class="st0" d="M456.3,36h3.5c0.7,0,1.4-0.3,1.8-0.9l2.9-3.7H461V1.6h-4.6V36z"/>
			</g>
			<g>
				<path class="st0" d="M468.5,58.4l2.1,2.7c0.5,0.7,1,0.7,2.5-0.1c6.4-3.5,17.2-11.5,17.2-25.3V1.9h-4.6v33.8
					c0,6.3-3,12.2-8.7,17.2C473.3,56,469.7,57.8,468.5,58.4z"/>
			</g>
			<g>
				<path class="st0" d="M519,62.6h3.2c0.8,0,1.4-0.6,1.4-1.4V22.7h3.2c0.8,0,1.4-0.6,1.4-1.4v-3.2h-4.6V1.9H519v16.2h-4.7v4.6h4.7
					V62.6z"/>
			</g>
			<g>
				<path class="st0" d="M533,53.5l4.1,5.9c0.2,0.3,0.6,0.5,1,0.6c0.4,0.1,0.8,0,1.1-0.2l2.6-1.8l-5-7.1L533,53.5z"/>
			</g>
			<g>
				<path class="st0" d="M548.2,59l2.5,3.8c0.3,0.5,0.9,0.8,1.5,0.8h4.2V47.9h4.4c0.9,0,1.7-0.7,1.7-1.7v-3h-6v-4.3h2.8
					c1.1,0,2-0.9,2-2v-21h-13.3v-4.3h11.7c0.9,0,1.7-0.7,1.7-1.7v-3h-13.4V1.3h-4.6v5.6h-13.9v4.6h13.9v4.3h-12.8v23h21.2v4.3h-23.1
					v4.6h23.1v11H548.2z M561.8,6.9L561.8,6.9c0,0,0.5,0.5,1.1,1c0.2,0.2,0.5,0.3,0.7,0.2c0.4,0,0.6-0.2,0.8-0.3l2.4-2.6L561.9,1
					L555,1L561.8,6.9L561.8,6.9z M556.5,34.3h-8.7v-4.7h8.7V34.3z M543.2,34.3h-8.1v-4.7h8.1V34.3z M556.5,25h-8.7v-4.4h8.7V25z
					 M543.2,25h-8.1v-4.4h8.1V25z"/>
			</g>
			<g>
				<path class="st0" d="M584.4,28.1h23.7c1,0,1.8-0.8,1.8-1.8v-2.8h-9.8v-3.1h5.9c1.9,0,1.9-1.6,1.9-1.6v-8.4h-7.8V7.1h5.9
					c1,0,1.8-0.8,1.8-1.8V2.5h-23.5V28.1z M595.6,23.4H589v-3.1h6.5V23.4z M603.4,17H589v-3.4h14.4V17z M595.6,10.3H589V7.1h6.5
					V10.3z"/>
			</g>
			<g>
				<path class="st0" d="M610.2,16.4l3.3,1.4c0.5,0.2,1.1,0,1.4-0.6l1.8-4.3h14.9c0.6,0,1.1-0.5,1.1-1.1V8.3h-14l2.1-5.1l-4.3-1.8
					L610.2,16.4z"/>
			</g>
			<g>
				<path class="st0" d="M614.6,25.3h15.3c0.6,0,1.1-0.5,1.1-1.1v-3.5h-16.3V25.3z"/>
			</g>
			<g>
				<path class="st0" d="M584.9,59.1l1.3,2.2c0.6,1,1.9,1.3,2.9,0.7l15-9.4h8v4.9c0,1.6,1.2,4.4,5.8,4.4h10.8c3.1,0,5.7-2.6,5.7-5.8
					v-2.3h-3.6c-0.4,0-1,0.6-1,1V56c0,0.6-0.4,1.2-1,1.2h-10.8c-0.3,0-0.6,0-0.9-0.1l-0.3,0v-4.6h8.4c1.2,0,2.3-1,2.3-2.3V30h-38.7
					v22.6h6.6L584.9,59.1z M622.8,47.9h-29.4v-2.2h29.4V47.9z M622.8,42.4h-29.4v-2.2h29.4V42.4z M622.8,36.9h-29.4v-2.3h29.4V36.9z
					"/>
			</g>
			<g>
				<path class="st0" d="M649.6,19.1l2.9,3.6l22.2-18.1L695.6,22c0.8,0.6,1.9,0.5,2.6-0.2l1.8-2.1L676.6,0h-3.7L649.6,19.1z"/>
			</g>
			<g>
				<path class="st0" d="M660.2,26.8h27.4c1,0,1.8-0.8,1.8-1.8v-2.8h-29.2V26.8z"/>
			</g>
			<g>
				<path class="st0" d="M652.7,61.8h44.8L689,49.4c-0.4-0.6-1.1-0.9-1.8-0.9h-4.5l5.9,8.7h-26.3l11.1-17.9h20c1,0,1.8-0.8,1.8-1.8
					v-2.8h-43.1v4.6H668l-11.1,17.9h-4.3V61.8z"/>
			</g>
		</g>
	</g>
	<rect x="275.9" y="129" class="st1" width="148.3" height="38"/>
	<g>
		<g>
			<path d="M298.5,148.8c0,3.5-0.4,5.9-1.2,7.4s-2.1,2.2-3.9,2.2c-1.9,0-3.2-0.8-4-2.3c-0.8-1.5-1.2-4.3-1.2-8.2
				c0-3.5,0.4-6,1.1-7.4c0.8-1.5,2.1-2.2,3.9-2.2c1.6,0,2.9,0.6,3.7,1.7c0.5,0.8,0.9,1.8,1.1,3.2
				C298.4,144.5,298.5,146.3,298.5,148.8z M295.7,149.1c0-3.4-0.2-5.6-0.5-6.8c-0.3-1.1-0.9-1.7-1.9-1.7s-1.6,0.5-1.9,1.5
				c-0.3,1-0.5,3.1-0.5,6.2c0,2.9,0.2,4.9,0.5,6c0.3,1,0.9,1.6,1.9,1.6c0.9,0,1.5-0.5,1.8-1.5C295.6,153.5,295.7,151.7,295.7,149.1z
				"/>
			<path d="M305,138.5h3.5c1.7,0,2.9,0.4,3.7,1.3c0.8,0.9,1.1,2.2,1.1,4.1c0,2.6-0.8,4.3-2.3,5.1c-0.8,0.3-1.9,0.5-3.3,0.5v8.7H305
				V138.5z M307.6,147.2c1.1,0,1.8-0.2,2.3-0.7c0.4-0.4,0.6-1.2,0.6-2.4c0-1.2-0.2-2-0.6-2.6s-1-0.8-1.9-0.8h-0.4V147.2z"/>
			<path d="M319.2,138.5h7v2.2h-4.4v6.2h3.9v2.2h-3.9v6.7h4.4v2.2h-7V138.5z"/>
			<path d="M332.6,138.5h2.5l2.6,7.8c0.8,2.2,1.4,4.6,2,7.1c-0.2-1.5-0.4-2.9-0.5-4.1s-0.2-2.4-0.2-3.5v-7.3h2.7v19.6h-2.5l-3-8.8
				c-0.3-0.8-0.5-1.7-0.8-2.5s-0.5-1.8-0.7-2.7c0-0.1,0-0.3-0.1-0.4c0-0.2-0.1-0.4-0.1-0.6c0,0.2,0,0.4,0.1,0.6c0,0.2,0,0.3,0,0.4
				l0.1,2l0.1,2.4c0,0.1,0,0.3,0,0.5c0,0.2,0,0.4,0,0.7l0.1,8.5h-2.6V138.5z"/>
			<path d="M357.9,138.5h3.2c1,0,1.8,0.1,2.5,0.3c0.6,0.2,1.2,0.6,1.7,1.1c0.7,0.8,1.3,1.9,1.6,3.2c0.3,1.3,0.5,3.1,0.5,5.4
				c0,2.2-0.2,3.9-0.5,5.3c-0.3,1.3-0.9,2.3-1.7,3c-1,0.9-2.7,1.3-5.1,1.3h-2.1V138.5z M360.5,155.8c1.6,0,2.7-0.5,3.2-1.5
				c0.6-1,0.8-2.9,0.8-5.7c0-3-0.3-5.1-0.8-6.2s-1.5-1.7-2.9-1.7h-0.3V155.8z"/>
			<path d="M376.5,138.5h2.1l4.2,19.6h-2.6l-0.7-3.8h-3.9l-0.7,3.8h-2.5L376.5,138.5z M379.1,152.3l-0.6-3.1c-0.4-2.1-0.7-4.4-1-6.8
				c-0.1,1.2-0.3,2.4-0.5,3.6c-0.2,1.2-0.4,2.5-0.7,3.8l-0.5,2.5H379.1z"/>
			<path d="M386.3,138.5h8.6v2.3h-3v17.3h-2.6v-17.3h-3V138.5z"/>
			<path d="M402.6,138.5h2.1l4.2,19.6h-2.6l-0.7-3.8h-3.9l-0.7,3.8h-2.5L402.6,138.5z M405.2,152.3l-0.6-3.1c-0.4-2.1-0.7-4.4-1-6.8
				c-0.1,1.2-0.3,2.4-0.5,3.6c-0.2,1.2-0.4,2.5-0.7,3.8l-0.5,2.5H405.2z"/>
		</g>
	</g>
</g>
</svg>
