<svg id="レイヤー_1" data-name="レイヤー 1" xmlns="http://www.w3.org/2000/svg" width="114.44934" height="15.89868" viewBox="0 0 114.44934 15.89868">
  <g>
    <path d="M2.61072,6.824H.95422a.75643.75643,0,1,1,0-1.51245H2.59277v-3.781A.76919.76919,0,0,1,3.421.7561a.77458.77458,0,0,1,.84619.77442v3.781H5.6897a.70364.70364,0,0,1,.70227.75635.70356.70356,0,0,1-.70227.7561H4.24927v4.05127c.37805-.18017.75622-.3601,1.09826-.5581a.90161.90161,0,0,1,.4502-.12622.74445.74445,0,0,1,.77417.70239.86294.86294,0,0,1-.5221.72022c-.63024.342-4.5194,2.30468-5.25756,2.30468A.80616.80616,0,0,1,0,13.08984a.79173.79173,0,0,1,.57617-.77417c.68421-.23413,1.36841-.46826,2.03455-.73828Zm7.76037-.144L8.73254,7.5083c0,2.17847,0,4.37524.01807,5.32959.036,1.06226,1.06226,1.08032,2.62878,1.08032,2.19666,0,3.241-.072,3.241-1.85473a.74519.74519,0,0,1,.79224-.79224.86747.86747,0,0,1,.91833.91846c0,3.25879-2.52075,3.25879-4.8435,3.25879-2.0166,0-4.32129-.054-4.3573-2.30469-.01795-1.13428-.01795-2.93482-.01795-4.80737l-1.09839.5581a.87742.87742,0,0,1-.342.09009.77425.77425,0,0,1-.72021-.79224.72242.72242,0,0,1,.43213-.66626l1.72851-.86425c0-1.56641.03589-3.04273.03589-4.01514a.77886.77886,0,0,1,.8103-.79224.74553.74553,0,0,1,.79224.75635v.01782c-.01807.73828-.01807,1.90869-.01807,3.20508l1.63855-.8103V1.04419a.74693.74693,0,0,1,.81018-.738.74148.74148,0,0,1,.79224.738V4.21313l.88232-.44995A2.57334,2.57334,0,0,1,14.04419,3.439c1.29639,0,1.35046,1.27833,1.35046,2.25074,0,4.12329-.39624,5.54565-2.23266,5.54565-.81031,0-1.06238-.28808-1.06238-.86426,0-.39624.19812-.79223.57617-.79223a.80044.80044,0,0,1,.18.03589.90141.90141,0,0,0,.21607.03613c.28809,0,.73828-.2522.73828-3.29492,0-.75635-.01807-1.22437-.30615-1.22437a.40868.40868,0,0,0-.198.054c-.27014.144-.75635.396-1.33252.68408v5.90576a.72785.72785,0,0,1-.81018.68433.72166.72166,0,0,1-.79224-.68433Z"/>
    <path d="M34.006,15.26855c-1.58447.03589-3.241.054-4.89746.054s-3.313-.01807-4.93359-.054a2.13437,2.13437,0,0,1-2.39466-2.17871c-.05407-1.35034-.072-2.97094-.072-4.64526,0-2.03467.036-4.12329.072-5.88794A2.04733,2.04733,0,0,1,24.03088.59424C25.59741.55811,27.25391.54,28.94641.54s3.40308.01807,5.09546.0542a2.16062,2.16062,0,0,1,2.19678,2.10644c.03589,1.83667.072,3.85328.072,5.81592,0,1.6023-.01807,3.15088-.072,4.51929A2.221,2.221,0,0,1,34.006,15.26855Zm.55811-7.41821c0-1.54858-.01807-3.09692-.072-4.4834-.036-1.02636-.39612-1.2063-1.27832-1.22436-1.35047-.01807-2.845-.03589-4.28541-.03589-1.45837,0-2.88085.01782-4.14111.03589-1.02637.01806-1.31445.30615-1.33252,1.22436-.03589,1.4585-.054,3.061-.054,4.62744s.01806,3.09693.054,4.44727c.03613,1.02637.39624,1.2063,1.51245,1.22437,1.24243.01806,2.55689.03613,3.9253.03613s2.79077-.01807,4.24926-.03613c1.0083-.01807,1.31433-.50415,1.35035-1.27832C34.546,10.94727,34.56409,9.39868,34.56409,7.85034Zm-9.34473,5.22144a.87968.87968,0,0,1-.88232-.86426.81032.81032,0,0,1,.59423-.738,9.852,9.852,0,0,0,3.20484-1.96264,19.56814,19.56814,0,0,0-2.89881-1.0083.60455.60455,0,0,1-.50415-.59424.80419.80419,0,0,1,.82825-.77417,17.10335,17.10335,0,0,1,3.69116,1.18823,11.74994,11.74994,0,0,0,2.30469-4.82544.71244.71244,0,0,1,.73816-.57617.9015.9015,0,0,1,.95422.8103,13.08576,13.08576,0,0,1-2.52075,5.2937c2.21472,1.15235,2.53882,1.63843,2.53882,2.08863a.92778.92778,0,0,1-.88232.91821.86335.86335,0,0,1-.59412-.2522,11.05553,11.05553,0,0,0-2.1427-1.53027A9.85592,9.85592,0,0,1,25.21936,13.07178ZM26.53369,6.644a.68253.68253,0,0,1-.6842-.52221,3.89335,3.89335,0,0,0-1.02637-1.6565.62249.62249,0,0,1-.21606-.43213.78343.78343,0,0,1,.82836-.66626c.90015,0,1.98047,1.89063,1.98047,2.43067A.88734.88734,0,0,1,26.53369,6.644Zm1.98059-1.22436a4.04741,4.04741,0,0,0-.77417-1.69263.55608.55608,0,0,1-.144-.37817.74489.74489,0,0,1,.79224-.6482c.90014,0,1.65649,1.74659,1.65649,2.43091a.863.863,0,0,1-.86426.86426A.65415.65415,0,0,1,28.51428,5.41968Z"/>
    <path d="M45.75757,7.36426a9.88889,9.88889,0,0,1-2.03455.342.7838.7838,0,0,1-.84631-.8103.86821.86821,0,0,1,.90027-.90015,13.47276,13.47276,0,0,0,2.97094-.41431,7.6342,7.6342,0,0,0,.88221-2.75464.76252.76252,0,0,1,.81018-.64819.907.907,0,0,1,.97241.82813,6.159,6.159,0,0,1-.64819,2.17871h.144c2.05249,0,2.10657,2.2146,2.10657,3.043,0,1.60229-.072,6.10376-3.403,6.10376-1.02636,0-2.35876-.46827-2.35876-1.33252a.91763.91763,0,0,1,1.31433-.8462,2.4159,2.4159,0,0,0,1.0083.27c1.17041,0,1.71057-1.26025,1.71057-4.41113,0-.73828-.108-1.27856-.6842-1.27856a1.1074,1.1074,0,0,0-.3241.03613c-.072.01807-.18005.054-.28809.072-1.35046,2.53882-3.241,5.4917-4.39331,7.4541a1.067,1.067,0,0,1-.93628.52222.84.84,0,0,1-.91833-.77417,1.10059,1.10059,0,0,1,.21606-.63013c.79224-1.20654,2.6648-3.8352,3.94324-6.08594Zm9.975,2.48462a5.72327,5.72327,0,0,0-3.09692-2.8628.6542.6542,0,0,1-.48608-.6123.84042.84042,0,0,1,.86425-.79224c.91822,0,4.44727,2.23267,4.44727,3.88916a.95958.95958,0,0,1-.95435.95435A.83893.83893,0,0,1,55.73254,9.84888Z"/>
    <path d="M65.84619,15.79077c-.6842,0-.99036-.39624-.99036-.8103a.86226.86226,0,0,1,.82837-.84619c3.18689-.2522,5.77967-2.12476,5.77967-3.56519a1.26423,1.26423,0,0,0-1.38636-1.15234c-1.38647,0-3.94323,2.2688-4.21337,2.59277a1.33705,1.33705,0,0,1-.99024.63013c-.39612,0-1.49438-.396-1.49438-2.95288a7.87477,7.87477,0,0,1,.324-2.34058,7.73383,7.73383,0,0,0,.18018-1.51245V5.52759c0-1.17041.54-1.76441,1.78247-2.44873.43213-.23413.95434-.4502.95434-.66626,0-.144-.19812-.28809-.68432-.44995A.81132.81132,0,0,1,65.27,1.22437a.9.9,0,0,1,.97229-.81031c.64819,0,2.89893,1.06226,2.89893,2.30469,0,.84619-.66626.97241-1.56653,1.11646a3.642,3.642,0,0,0-.86426.3601c-1.1344.522-1.3324.99024-1.3324,1.54834,0,.09009.01807.198.01807.30615v.198A5.44329,5.44329,0,0,1,65.342,6.968a16.83653,16.83653,0,0,0-.306,2.37671c0,.054,0,.77417.21607.77417a.41262.41262,0,0,0,.162-.054c.36011-.21606,1.04431-.68408,1.83655-1.13428a6.06739,6.06739,0,0,1,2.89893-.97241,2.8829,2.8829,0,0,1,3.11486,2.62891c0,1.15234-.79223,2.53882-2.7008,3.781A11.71388,11.71388,0,0,1,65.84619,15.79077Z"/>
    <path d="M92.52454,3.61914c0-1.20654-.01807-1.42261-.93628-1.44043-.70215-.01807-1.99854-.03613-3.169-.03613-2.7008,0-2.84485,0-2.89892.75635v.90014a.75062.75062,0,0,1-.81018.75635.982.982,0,0,1-.39612-.09009.76125.76125,0,0,1-.79224.77417h-.93628V7.47217c1.13428-.54,1.15235-.54,1.27832-.54a.73892.73892,0,0,1,.70227.7561.829.829,0,0,1-.4862.72022q-.75623.405-1.51246.75634v1.74634c0,.28809.05408,1.92676.072,2.55689v.09009A2.00729,2.00729,0,0,1,80.371,15.71875c-.86426,0-1.65649-.12622-1.65649-.97241a.7574.7574,0,0,1,.70215-.82813.50392.50392,0,0,1,.16211.01783,2.93126,2.93126,0,0,0,.64819.09008c.37805,0,.64819-.16211.66614-.77417v-3.385a4.53879,4.53879,0,0,1-1.45838.4502.88685.88685,0,0,1-.90039-.88233.78567.78567,0,0,1,.61231-.77417c.64819-.19824,1.22436-.3601,1.74646-.54028V5.2395H79.48865a.74946.74946,0,0,1-.77417-.79223.74959.74959,0,0,1,.77417-.79224h1.40442L80.87512.84619A.82581.82581,0,0,1,81.73938,0a.8014.8014,0,0,1,.84619.84619V3.655h.93628a1.05526,1.05526,0,0,1,.342.072V3.385c0-.32422,0-.70215.01807-1.09839.036-.90015.70215-1.49438,1.90857-1.53052.91833-.01782,2.43078-.03589,3.87121-.03589,1.04419,0,2.05249,0,2.79077.03589A1.69806,1.69806,0,0,1,94.181,2.4126c.01807.23413.01807.4143.01807.6123,0,.17993,0,.36011-.01807.57617a.81409.81409,0,0,1-.86426.72022.72165.72165,0,0,1-.79223-.68433ZM89.60767,15.1604a.8327.8327,0,0,1-1.6565-.01782v-.01807l.072-3.655c-1.40442,1.85449-3.63708,3.54688-4.39331,3.54688a.772.772,0,0,1-.77429-.79224.88394.88394,0,0,1,.50415-.77417,11.90079,11.90079,0,0,0,4.1593-3.4751l-3.06091.0542h-.01807a.70787.70787,0,0,1-.73816-.73828.72234.72234,0,0,1,.75623-.73828l3.529.01807-.036-1.2063a.75624.75624,0,0,1,.82825-.79224.76541.76541,0,0,1,.82825.7561v.03614l-.036,1.2063L93.695,8.55249a.72211.72211,0,0,1,.73816.75635.68838.68838,0,0,1-.72022.72021H93.695l-3.76319-.072a14.84844,14.84844,0,0,0,4.33936,3.13281.81718.81718,0,0,1,.50415.77417.93919.93919,0,0,1-.88233.97242c-.86425,0-3.511-2.50269-4.3573-3.49317l.072,3.79932ZM84.3501,6.752a.64889.64889,0,0,1,.39612-.59424A3.60431,3.60431,0,0,0,86.88879,3.2229a.71633.71633,0,0,1,.75635-.66626.74979.74979,0,0,1,.79224.77441,1.02149,1.02149,0,0,1-.01807.23389c-.50415,2.62891-2.71875,3.96118-3.313,3.96118A.77536.77536,0,0,1,84.3501,6.752ZM90.652,3.2229c-.01807.41406-.054,1.62061-.054,1.78247,0,.52222.50415.57617.95423.57617.25207,0,.99035-.01782.99035-.396a.65749.65749,0,0,1,.73816-.6482.73609.73609,0,0,1,.81018.66626c0,1.27832-.93628,1.74634-2.50268,1.74634-1.62049,0-2.48474-.342-2.48474-1.67432V5.22144c0-.17994,0-1.56641.036-2.05249a.69883.69883,0,0,1,.75622-.61231.68361.68361,0,0,1,.75623.64819Z"/>
    <path d="M107.1571,11.86548a2.828,2.828,0,0,1-2.62866-2.91675A2.01917,2.01917,0,0,1,106.599,6.824a3.27052,3.27052,0,0,1,.82825.10816c-.05408-.59424-.09-1.13452-.1261-1.63867a25.60729,25.60729,0,0,0-6.60791,1.4226,1.29935,1.29935,0,0,1-.342.072.883.883,0,0,1-.86426-.90039,1.02168,1.02168,0,0,1,.84619-.97217,40.99689,40.99689,0,0,1,6.896-1.22437V3.115c0-1.58447,0-2.43091.99035-2.43091a.92712.92712,0,0,1,.99036.84644.49567.49567,0,0,1-.01807.16186,12.683,12.683,0,0,0-.23413,1.85474c1.44043-.09009,2.89893-.12622,4.35742-.12622.75611,0,1.13428.45019,1.13428.90039a.961.961,0,0,1-1.06226.90015H113.297c-.88233-.03589-1.78247-.072-2.68286-.072-.55811,0-1.11622,0-1.67444.03614,0,1.22436.108,2.35864.1261,2.59277A2.94531,2.94531,0,0,1,110.02,9.9209a3.57551,3.57551,0,0,1-.57617,1.8186,8.82278,8.82278,0,0,1-6.22986,4.06909.9.9,0,0,1-.99024-.86425c0-.36011.252-.738.86426-.86426a7.315,7.315,0,0,0,4.2312-2.2146Zm-.306-3.583a.765.765,0,0,0-.81018.8103,1.28763,1.28763,0,0,0,1.13428,1.31421.78658.78658,0,0,0,.77417-.77417c0-.05395.01807-.09009.01807-.144a2.34739,2.34739,0,0,0-.126-.59424A1.14122,1.14122,0,0,0,106.85107,8.28247Z"/>
  </g>
</svg>
