<svg id="レイヤー_1" data-name="レイヤー 1" xmlns="http://www.w3.org/2000/svg" width="78.30481" height="16.24097" viewBox="0 0 78.30481 16.24097">
  <g>
    <path d="M3.69116,12.08167C2.8269,13.144,1.44043,14.51245.8103,14.51245A.79732.79732,0,0,1,0,13.7561a.75535.75535,0,0,1,.43213-.64819A11.67461,11.67461,0,0,0,3.583,10.24512l-2.34058.054H1.22437a.7.7,0,0,1-.73829-.70215.68.68,0,0,1,.73829-.70214h.01806l2.46668.01794-.01795-.79224V8.10254a.69306.69306,0,0,1,.73816-.72022.69306.69306,0,0,1,.73816.72022v.01794l-.01794.79224L7.3822,8.89478h.01795a.67632.67632,0,0,1,.66626.72021.64581.64581,0,0,1-.66626.68408H7.3822l-2.25061-.054.01795.66626a.66652.66652,0,0,1,.34216-.1261,5.97177,5.97177,0,0,1,1.96252.97229.757.757,0,0,1,.28809.59424.86478.86478,0,0,1-.79224.86425.70188.70188,0,0,1-.46814-.19812,6.682,6.682,0,0,0-1.33239-.99035l.036,3.36706a.68626.68626,0,0,1-.75623.66614.68941.68941,0,0,1-.75622-.68408ZM.95435,7.3103a.69374.69374,0,1,1,0-1.38647H2.77283a.87439.87439,0,0,1-.21607-.36011,4.02763,4.02763,0,0,0-.55822-1.09839.5896.5896,0,0,1-.144-.378.73892.73892,0,0,1,.77429-.64819c.7743,0,1.38636,1.53039,1.38636,1.83654a.769.769,0,0,1-.324.6482h.84619a12.69149,12.69149,0,0,0,.75623-1.99854.67439.67439,0,0,1,.66614-.55822A.86845.86845,0,0,1,6.842,4.1593,5.92527,5.92527,0,0,1,6.0498,5.92383H7.7063a.69374.69374,0,1,1,0,1.38647ZM1.4585,3.223a.69743.69743,0,1,1,0-1.38635H3.61914L3.60107.8103A.76544.76544,0,0,1,4.42932.05408.76544.76544,0,0,1,5.25757.8103V1.83667H7.29224a.6761.6761,0,0,1,.73816.68408.68.68,0,0,1-.73816.70227ZM12.22559,7.05811H10.4071c-.072,2.89892-.41418,6.0498-2.0166,8.24658a1.06435,1.06435,0,0,1-.86425.468A.89761.89761,0,0,1,6.59,14.98047a.70987.70987,0,0,1,.19812-.48609C8.49854,12.47778,8.82263,9.615,8.82263,6.86011c0-.90027-.036-1.78247-.072-2.62879V4.01526c0-1.20642.45007-1.72852,1.65649-2.08862A33.12338,33.12338,0,0,0,13.522.66626a1.09463,1.09463,0,0,1,.4502-.108.93042.93042,0,0,1,.91821.90027.851.851,0,0,1-.57617.79223c-.59412.27-2.61072.91822-3.09692,1.06226a.92282.92282,0,0,0-.79224,1.0083V5.54565l5.14966-.03588a.787.787,0,1,1,0,1.5664H13.86414l.01794,8.24646a.77112.77112,0,0,1-.84619.75623.76551.76551,0,0,1-.82825-.75623Z"/>
    <path d="M27.434,7.65234c-.1261.28809-.27014.59424-.41418.88233h.072c.59424-.01807,1.26049-.01807,1.92663-.01807,1.09827,0,2.25061.01807,3.33094.036A1.711,1.711,0,0,1,34.132,9.921c.036.70227.05408,1.42249.05408,2.1427s-.01807,1.42236-.05408,2.10657a1.78618,1.78618,0,0,1-1.87256,1.56653c-.6842.01794-1.42249.03589-2.16065.03589-1.02624,0-2.05261-.018-2.95288-.054-1.20642-.036-1.85461-.6842-1.8905-1.54846C25.2373,13.77417,25.2373,13.396,25.2373,13c0-.54028,0-1.09839.01807-1.62061-1.36841,1.81861-2.73682,2.97095-3.331,2.97095a.99338.99338,0,0,1-.95435-.91821.65392.65392,0,0,1,.34216-.57617,13.14533,13.14533,0,0,0,4.41126-5.20362l-3.88916.036a.69742.69742,0,1,1,0-1.38635l6.06787.03589V5.56372l-4.19531.01807a.61795.61795,0,1,1,0-1.22437l4.19531.01795V3.61914l-5.14954.01807a.69749.69749,0,1,1,0-1.38648l3.33094.01807a8.7125,8.7125,0,0,0-.82813-.97241A.53027.53027,0,0,1,25.0752.91833c0-.3601.45019-.6842.86425-.6842.72022,0,1.94458,1.65649,1.94458,2.03467H29.7207A11.11349,11.11349,0,0,0,30.53088.57617.7562.7562,0,0,1,31.269.072a.90874.90874,0,0,1,.93628.79224c0,.2522-.126.50415-.77417,1.40454l3.277-.01807a.67467.67467,0,0,1,.72021.70215.67072.67072,0,0,1-.72021.68433l-5.18555-.01807v.75623l4.17725-.01795a.61437.61437,0,1,1,0,1.22437l-4.17725-.01807v.77417L35.66235,6.302a.69456.69456,0,1,1,0,1.38635Zm5.14954,3.9972H26.73169v.82824H32.5835Zm-.01807,1.90857H26.74976l.01806.21606c.01795.6842.27.73828,3.27686.73828,1.96264,0,2.46679,0,2.50281-.73828Zm-.01794-3.115c-.018-.41407-.27015-.6482-.82825-.66614-.77417-.018-1.67456-.036-2.50269-.036-.59424,0-1.17041.01806-1.63855.01806a.74263.74263,0,0,0-.81018.68409v.12609h5.77967Z"/>
    <path d="M40.98584,7.7063a1.1784,1.1784,0,0,1,.18018-.59412,5.07039,5.07039,0,0,0,.68408-2.59277.69772.69772,0,0,1,.73828-.73816.80152.80152,0,0,1,.82825.90015c0,1.0083-.54017,3.79919-1.6565,3.79919A.76839.76839,0,0,1,40.98584,7.7063Zm2.79089-6.67993a.77834.77834,0,0,1,.84632-.79224.80354.80354,0,0,1,.86425.79224V3.0249a.90594.90594,0,0,1,.48609-.144c.5581,0,1.67456,1.27844,1.67456,1.8186a.85943.85943,0,0,1-.82837.81031.59332.59332,0,0,1-.52209-.34217,5.36673,5.36673,0,0,0-.81019-1.20642V15.32263a.86177.86177,0,0,1-1.71057,0ZM47.3418,6.98608a.62267.62267,0,0,1-.70215-.61206.67621.67621,0,0,1,.70215-.68432l3.81714.01806v-.8103l-2.59278.01807c-.48608,0-.70215-.28809-.70215-.57617a.659.659,0,0,1,.70215-.6482l2.59278.01807V2.95288L47.936,2.971a.64842.64842,0,0,1-.73829-.63013.68658.68658,0,0,1,.73829-.68433h3.2229L51.14087.79224A.793.793,0,0,1,52.00513,0a.819.819,0,0,1,.88232.79224v.86425h3.439a.66.66,0,1,1,0,1.31446l-3.457-.01807v.75635l2.55689-.01807a.616.616,0,1,1,0,1.22437l-2.55689-.01807v.8103l4.06934-.01806a.64913.64913,0,1,1,0,1.29638Zm2.39477,6.04981c0,.84631.01795,1.69263.03589,2.43078v.01795a.74546.74546,0,0,1-.79224.75635.80039.80039,0,0,1-.82812-.7743c0-.99035-.01807-2.05261-.01807-3.11486s.01807-2.10669.01807-3.061c.01794-.99023.43213-1.58447,1.7644-1.62036.6482-.01807,1.36841-.03613,2.07068-.03613.72022,0,1.44043.01806,2.08863.03613,1.20642.03589,1.76452.59412,1.78259,1.5304,0,.57617.072,4.82544.072,4.82544v.036c0,.86425-.55823,1.99853-2.37671,1.99853-1.29639,0-1.72851-.306-1.72851-.90015a.718.718,0,0,1,.72021-.75634.49707.49707,0,0,1,.162.01806,3.78784,3.78784,0,0,0,.77429.09009c.43213,0,.77417-.16211.79224-.82837,0-.198.01794-.43213.01794-.64819Zm0-2.05249v.8822h4.5553c0-.28809-.01794-.59412-.01794-.8822Zm4.50122-1.53052c-.03589-.5581-.25195-.5581-2.30468-.5581-1.87256,0-2.12452.01794-2.16065.5581V9.813h4.4834Z"/>
    <path d="M66.29517,5.72583l-3.2229.01794a.66967.66967,0,0,1-.75623-.66613.71937.71937,0,0,1,.75623-.72022l2.44873.01795L65.50293,3.187l-1.80054.01807a.686.686,0,0,1-.77417-.66626.73808.73808,0,0,1,.77417-.73828l1.80054.01806L65.485.90039V.88232a.769.769,0,0,1,.82824-.77417.79829.79829,0,0,1,.84619.79224V1.8186l1.7826-.01806a.68.68,0,0,1,.73816.70227.68924.68924,0,0,1-.73816.70227L67.14148,3.187l-.01794,1.18836,2.32263-.01795a.69368.69368,0,1,1,0,1.38635Zm.84631,6.842.01794,2.75476a.79836.79836,0,0,1-.84619.79224.773.773,0,0,1-.82824-.79224l.01794-2.75476-2.07056.018a.69814.69814,0,0,1-.77417-.68421.73808.73808,0,0,1,.77417-.73828l2.07056.01807L65.521,9.86694,63.07227,9.885a.6697.6697,0,0,1-.75623-.66626.71937.71937,0,0,1,.75623-.72021l3.20495.01806h.1261a.63284.63284,0,0,1,.144-.39612A7.13155,7.13155,0,0,0,67.42957,6.302a.54676.54676,0,0,1,.55822-.36011c.41407,0,.93628.324.93628.75611a6.08866,6.08866,0,0,1-.93628,1.80054h1.45838a.69374.69374,0,1,1,0,1.38647l-2.32263-.01807.01794,1.31446,2.07068-.01807a.71174.71174,0,1,1,0,1.42249Zm-2.12463-4.1593a.60068.60068,0,0,1-.55811-.378,4.40476,4.40476,0,0,0-.66626-1.08032.52308.52308,0,0,1-.108-.28809c0-.36011.45007-.63025.84631-.63025.68408,0,1.36841,1.24231,1.36841,1.56653A.89675.89675,0,0,1,65.01685,8.40857Zm7.76025,7.20215a.81926.81926,0,0,1-.68408-.36011.812.812,0,0,1-.84632.81018.82139.82139,0,0,1-.84631-.84619s0-10.7312.072-12.65772c.03613-.91833.57617-1.58447,1.81861-1.63855.46814-.01794,1.02636-.036,1.58447-.036.57617,0,1.15234.01807,1.65649.036a1.66686,1.66686,0,0,1,1.83655,1.69251c0,1.83655-.39612,3.06091-2.39465,3.06091-1.92664,0-1.94458-.64819-1.94458-.95422a.685.685,0,0,1,.68408-.73828,1.39349,1.39349,0,0,1,.27014.036,3.20393,3.20393,0,0,0,.82825.144c.54016,0,.82824-.25207.82824-1.1344,0-.68408-.34216-.70215-1.87255-.70215-1.22437,0-1.63855,0-1.67444.75623-.01807.45007-.01807,1.74646-.01807,3.349.63013-.01807,1.76453-.01807,2.68286-.01807,1.67444,0,2.57471.01807,2.57471,1.38648a11.5384,11.5384,0,0,1-1.40442,4.69946,7.68345,7.68345,0,0,0,1.98059,1.47632.69163.69163,0,0,1,.39612.64819.95254.95254,0,0,1-.91834.95435c-.66613,0-1.78247-1.02637-2.3767-1.71045C74.9198,13.97217,73.5874,15.61072,72.7771,15.61072Zm-.144-6.49988a.74476.74476,0,0,1,.77429-.72022.63027.63027,0,0,1,.64819.48609,9.2982,9.2982,0,0,0,.84632,2.23267A8.8242,8.8242,0,0,0,75.64,8.15649c0-.30615-.234-.32409-.3601-.32409-.70227.01794-2.39466.036-3.205.036,0,2.43066.01807,5.11352.01807,6.46387a1.55344,1.55344,0,0,1,.306-.27,5.95777,5.95777,0,0,0,1.63855-1.49439A8.186,8.186,0,0,1,72.63306,9.11084Z"/>
  </g>
</svg>
