<svg id="レイヤー_1" data-name="レイヤー 1" xmlns="http://www.w3.org/2000/svg" width="109.93949" height="16.22965" viewBox="0 0 109.93949 16.22965">
  <g>
    <path d="M1.53885,15.54545C-.00961,16.08561-.6578,14.35709.87259,13.889a13.49386,13.49386,0,0,0,5.92383-4.0332A8.41328,8.41328,0,0,0,5.44608,9.3516c-1.0083-.27014-.54028-1.80054.73816-1.44043a15.278,15.278,0,0,1,1.72851.59412A22.92964,22.92964,0,0,0,9.85733,5.40836a.31341.31341,0,0,0-.28808-.48608c-.77429.01806-1.99866.37817-2.86292.41406A18.91334,18.91334,0,0,1,2.60111,9.80167C1.37674,10.648.29642,9.0275,1.53885,8.25333A13.66354,13.66354,0,0,0,5.41,4.022,5.50206,5.50206,0,0,0,6.0402,2.47355a.94835.94835,0,0,1,1.85461.39612,2.41721,2.41721,0,0,1-.18018.77429c.88233-.1261,1.81861-.30615,2.68287-.36011,1.26037-.072,2.30468.81018,1.63842,1.96252-.84619,1.45838-1.65649,2.80884-2.52075,4.01526a5.62994,5.62994,0,0,1,1.53052,1.24231,1.03561,1.03561,0,0,1-.072,1.40442.87272.87272,0,0,1-1.29639-.072A7.66009,7.66009,0,0,0,8.36283,10.756,14.96818,14.96818,0,0,1,1.53885,15.54545Z"/>
    <path d="M19.86332,9.78373c-1.24244.82825-2.30469-.81018-1.04432-1.56653A13.25682,13.25682,0,0,0,22.72611,4.04a5.77051,5.77051,0,0,0,.70227-1.47631.97712.97712,0,0,1,1.92663.306,2.954,2.954,0,0,1-.27014.79223c.86426-.144,1.80054-.36011,2.61072-.41418,1.2605-.072,2.37671.8103,1.69263,1.98071-2.89893,4.96948-5.52771,8.44446-10.38916,10.335-1.54846.59424-2.25073-1.24231-.72022-1.74646,3.79908-1.27844,6.752-4.51941,8.82263-8.42651.18006-.36011.018-.43213-.25207-.43213a26.57055,26.57055,0,0,0-2.88086.45007A18.55132,18.55132,0,0,1,19.86332,9.78373Zm9.09277-7.04016c-.90039-.378-.19812-1.45838.63013-1.15235a6.06018,6.06018,0,0,1,1.76452,1.08033c.70227.73828-.34216,1.83667-.93628,1.13439A6.19189,6.19189,0,0,0,28.95609,2.74357Zm1.62036-1.5304c-.91821-.36011-.27-1.44043.57617-1.17029a5.66315,5.66315,0,0,1,1.80054,1.02625c.72021.72021-.28809,1.81848-.90015,1.15234A6.48913,6.48913,0,0,0,30.57645,1.21317Z"/>
    <path d="M41.24771,7.69511a9.88227,9.88227,0,0,1-2.03454.34216.7838.7838,0,0,1-.84631-.8103.8683.8683,0,0,1,.90026-.90027,13.47651,13.47651,0,0,0,2.971-.41419,7.634,7.634,0,0,0,.8822-2.75476.76261.76261,0,0,1,.81018-.64819.907.907,0,0,1,.97242.82825,6.15893,6.15893,0,0,1-.6482,2.17871h.14405c2.05249,0,2.10656,2.2146,2.10656,3.04284,0,1.60242-.072,6.10388-3.40295,6.10388-1.02637,0-2.35877-.46826-2.35877-1.33251a.91764.91764,0,0,1,1.31434-.8462,2.41772,2.41772,0,0,0,1.0083.27c1.17041,0,1.71057-1.26025,1.71057-4.41125,0-.73816-.108-1.27844-.68421-1.27844a1.10737,1.10737,0,0,0-.32409.03613c-.072.01794-.18006.05395-.28809.072-1.35046,2.5387-3.241,5.49158-4.39331,7.4541a1.067,1.067,0,0,1-.93628.52222.84.84,0,0,1-.91833-.77417,1.10112,1.10112,0,0,1,.21606-.63025c.79224-1.20642,2.6648-3.83508,3.94324-6.08582Zm9.975,2.48474a5.72334,5.72334,0,0,0-3.09692-2.8628.65421.65421,0,0,1-.48609-.6123.84034.84034,0,0,1,.86426-.79224c.91821,0,4.44727,2.23267,4.44727,3.88916a.95959.95959,0,0,1-.95435.95435A.83911.83911,0,0,1,51.22269,10.17985Z"/>
    <path d="M61.33646,16.12162c-.6842,0-.99023-.39612-.99023-.81018a.86232.86232,0,0,1,.82812-.84632c3.187-.25207,5.77979-2.12463,5.77979-3.56506a1.26419,1.26419,0,0,0-1.38648-1.15234c-1.38635,0-3.94311,2.26867-4.21313,2.59277a1.33778,1.33778,0,0,1-.99036.63013c-.39612,0-1.49451-.396-1.49451-2.95288a7.86905,7.86905,0,0,1,.32422-2.34058,7.74368,7.74368,0,0,0,.17993-1.51245V5.85856c0-1.17041.54029-1.76453,1.7826-2.44873.43213-.23413.95422-.4502.95422-.66626,0-.144-.198-.28809-.68408-.45008a.81105.81105,0,0,1-.66626-.73816A.8999.8999,0,0,1,61.73258.745c.64819,0,2.8988,1.06226,2.8988,2.30469,0,.84619-.66614.97229-1.5664,1.11633a3.65241,3.65241,0,0,0-.86426.36011c-1.13428.52209-1.3324.99036-1.3324,1.54846,0,.09009.01794.198.01794.30615v.198a5.44142,5.44142,0,0,1-.054.72022,16.82794,16.82794,0,0,0-.30615,2.37671c0,.05395,0,.77417.21606.77417a.41386.41386,0,0,0,.16211-.054c.36011-.21606,1.04431-.6842,1.83655-1.13428a6.0674,6.0674,0,0,1,2.8988-.97241,2.88294,2.88294,0,0,1,3.115,2.62891c0,1.15234-.79223,2.53869-2.7008,3.781A11.71238,11.71238,0,0,1,61.33646,16.12162Z"/>
    <path d="M88.0148,3.95c0-1.20642-.01794-1.42249-.93627-1.44043-.70228-.01795-1.99866-.036-3.16895-.036-2.70081,0-2.84485,0-2.8988.75622V4.13a.75069.75069,0,0,1-.81031.75623.98231.98231,0,0,1-.39611-.09.76125.76125,0,0,1-.79224.77417h-.93628V7.80314c1.1344-.54016,1.15234-.54016,1.27844-.54016a.739.739,0,0,1,.70215.75622.82936.82936,0,0,1-.48608.72022q-.75623.405-1.51245.75622V11.2421c0,.28809.054,1.92664.072,2.55689v.09a2.00742,2.00742,0,0,1-2.2688,2.16065c-.86426,0-1.6565-.1261-1.6565-.97229a.75768.75768,0,0,1,.70227-.82825.49948.49948,0,0,1,.162.01794,2.93991,2.93991,0,0,0,.6482.09009c.37817,0,.64819-.16211.66626-.77417v-3.385a4.5358,4.5358,0,0,1-1.4585.45008.88661.88661,0,0,1-.90015-.88221.78565.78565,0,0,1,.61206-.77429c.6482-.19812,1.22437-.36011,1.74659-.54016V5.57047H74.97892a.7497.7497,0,0,1-.7743-.79224.7497.7497,0,0,1,.7743-.79223h1.40442l-.01807-2.80884A.82581.82581,0,0,1,77.22953.331a.80149.80149,0,0,1,.84631.84619V3.986h.93628a1.05351,1.05351,0,0,1,.34216.072V3.716c0-.32422,0-.70227.01795-1.09839.036-.90027.70227-1.49438,1.90857-1.53052.91821-.01794,2.43066-.03589,3.87109-.03589,1.04443,0,2.05273,0,2.79089.03589a1.698,1.698,0,0,1,1.72852,1.6565c.01794.23413.01794.41418.01794.6123,0,.17993,0,.36011-.01794.57617a.814.814,0,0,1-.86426.72022.72166.72166,0,0,1-.79224-.68433ZM85.09793,15.49137a.83269.83269,0,0,1-1.65649-.01794v-.018l.072-3.65515c-1.40442,1.85461-3.63708,3.547-4.39331,3.547a.772.772,0,0,1-.77417-.79224.88355.88355,0,0,1,.50415-.77417,11.90064,11.90064,0,0,0,4.15918-3.4751l-3.06091.05408h-.018a.70788.70788,0,0,1-.73828-.73816.72234.72234,0,0,1,.75623-.73828l3.529.01807-.036-1.20642a.75625.75625,0,0,1,.82825-.79224.76543.76543,0,0,1,.82824.75622v.036l-.036,1.20642,4.12317-.01807a.7221.7221,0,0,1,.73828.75623.68845.68845,0,0,1-.72021.72021h-.01807l-3.76306-.072a14.85008,14.85008,0,0,0,4.33923,3.13293.81707.81707,0,0,1,.50416.77417.93925.93925,0,0,1-.88221.97242c-.86425,0-3.51111-2.50281-4.3573-3.49317l.072,3.7992ZM79.84037,7.08292a.64856.64856,0,0,1,.39611-.59424,3.60442,3.60442,0,0,0,2.1427-2.93481.716.716,0,0,1,.75611-.66626.74963.74963,0,0,1,.79223.77429,1.0298,1.0298,0,0,1-.01794.234c-.50415,2.62891-2.71887,3.96118-3.313,3.96118A.77544.77544,0,0,1,79.84037,7.08292Zm6.30188-3.529c-.01795.41406-.05408,1.62048-.05408,1.78247,0,.52222.50415.57617.95434.57617.25208,0,.99024-.01794.99024-.396a.65753.65753,0,0,1,.73828-.6482.73611.73611,0,0,1,.8103.66614c0,1.27844-.93628,1.74646-2.5028,1.74646-1.62049,0-2.48475-.342-2.48475-1.67444V5.5524c0-.17993,0-1.5664.036-2.05249a.69876.69876,0,0,1,.75623-.6123.68354.68354,0,0,1,.75623.64819Z"/>
    <path d="M102.64725,12.19645a2.82806,2.82806,0,0,1-2.62866-2.91687,2.01907,2.01907,0,0,1,2.07056-2.12464,3.26975,3.26975,0,0,1,.82824.108c-.05407-.59412-.09-1.1344-.1261-1.63855a25.60722,25.60722,0,0,0-6.60791,1.42248,1.29442,1.29442,0,0,1-.342.072.88285.88285,0,0,1-.86425-.90027,1.02181,1.02181,0,0,1,.84619-.97229,41.00883,41.00883,0,0,1,6.896-1.22436V3.44584c0-1.58448,0-2.43079.99036-2.43079a.92711.92711,0,0,1,.99036.84631.49606.49606,0,0,1-.01807.162,12.68334,12.68334,0,0,0-.23413,1.85462c1.44043-.09,2.89892-.1261,4.35742-.1261.7561,0,1.13428.45019,1.13428.90039a.961.961,0,0,1-1.06226.90014h-.09009c-.88232-.03588-1.78247-.072-2.68286-.072-.5581,0-1.11621,0-1.67444.03614,0,1.22436.108,2.35864.1261,2.59277a2.94528,2.94528,0,0,1,.95423,2.14258,3.57581,3.57581,0,0,1-.57618,1.8186,8.82276,8.82276,0,0,1-6.22985,4.06909.9.9,0,0,1-.99024-.86425c0-.36011.252-.73816.86426-.86426a7.31566,7.31566,0,0,0,4.2312-2.2146Zm-.306-3.583a.765.765,0,0,0-.81018.81018,1.28767,1.28767,0,0,0,1.13428,1.31433.78658.78658,0,0,0,.77417-.77417c0-.054.01806-.09009.01806-.144a2.3473,2.3473,0,0,0-.126-.59424A1.141,1.141,0,0,0,102.34122,8.61344Z"/>
  </g>
</svg>
