<svg xmlns="http://www.w3.org/2000/svg" width="91.78" height="91.78" viewBox="0 0 91.78 91.78"><defs><style>.cls-1{fill:#ff0;}.cls-2{fill:none;stroke:#000;stroke-miterlimit:10;}</style></defs><g id="レイヤー_2" data-name="レイヤー 2"><g id="レイヤー_1-2" data-name="レイヤー 1"><circle class="cls-1" cx="45.89" cy="45.89" r="45.89"/><path d="M26.76,50.85C23,50.85,21,49.07,21,48a1.13,1.13,0,0,1,1.08-1.14,1.21,1.21,0,0,1,.92.51,4,4,0,0,0,3.24,1.31,12.43,12.43,0,0,0,3-.47,2.48,2.48,0,0,1,.45-.05,1,1,0,0,1,1.12,1.06,1.36,1.36,0,0,1-1.14,1.28A11.51,11.51,0,0,1,26.76,50.85Zm1.32-9.33a11.08,11.08,0,0,1-4.86-1.15,1.16,1.16,0,0,1-.7-1.06.9.9,0,0,1,.91-.94,1.59,1.59,0,0,1,.6.13,12.27,12.27,0,0,0,4.28.92,1,1,0,0,1,1.07,1C29.38,41,29,41.52,28.08,41.52Zm2.21-2.05A5.91,5.91,0,0,0,29,38.3a.63.63,0,0,1-.38-.54.74.74,0,0,1,.77-.68c.56,0,2.18,1.13,2.18,1.85a.85.85,0,0,1-.79.83A.64.64,0,0,1,30.29,39.47Zm2.13-1.19a6,6,0,0,0-1.33-1.11.64.64,0,0,1-.4-.56.75.75,0,0,1,.77-.7c.47,0,2.24,1,2.24,1.8a.86.86,0,0,1-.8.84A.55.55,0,0,1,32.42,38.28Z"/><path d="M40.19,46.8c0,.29.06,2.05.07,2.68v.11a2.07,2.07,0,0,1-2.37,2.09c-1.1,0-1.71-.25-1.71-1.12a.85.85,0,0,1,.79-.93.62.62,0,0,1,.18,0,4,4,0,0,0,.43.05c.34,0,.68-.11.68-.5s0-1.88,0-3.61a4.39,4.39,0,0,1-1.53.51,1,1,0,0,1-1-1,.9.9,0,0,1,.65-.89c.64-.21,1.24-.43,1.81-.64V41L37,41a.89.89,0,0,1-.92-.92.87.87,0,0,1,.92-.91h1.27v-2.5a1,1,0,0,1,1-1,.92.92,0,0,1,.93,1v2.52h.54a.92.92,0,0,1,0,1.83h0l-.52,0v1.77l.6-.32a.65.65,0,0,1,.36-.11.85.85,0,0,1,.79.88,1,1,0,0,1-.52.83l-1.23.66Zm10.8,0-3.45-.08a7.18,7.18,0,0,0,3.67,2.85,1,1,0,0,1,.74,1,.94.94,0,0,1-1,1c-1,0-3.35-1.58-4.48-3.49a6.64,6.64,0,0,1-4.85,3.64.92.92,0,0,1-.14-1.82,4.54,4.54,0,0,0,3.56-3.12l-3.31.08h0a.83.83,0,1,1,0-1.66h3.58v0s0-.23,0-1.49H44.13c-.9,1.42-1.35,1.48-1.65,1.48-.51,0-1-.31-1-.74a.72.72,0,0,1,.21-.51,6.58,6.58,0,0,0,1.57-2.43A.75.75,0,0,1,44,41c.49,0,1,.31,1,.78A.86.86,0,0,1,45,42h4.75a.81.81,0,1,1,0,1.62H47.3c0,.45,0,1.21,0,1.46v.07H51a.83.83,0,0,1,0,1.66ZM42.32,41c-.42,0-.63-.43-.63-.86s.19-.87.61-.87h1.1a18.8,18.8,0,0,0,1.2-2.77.82.82,0,0,1,.81-.56,1,1,0,0,1,1.1.89,8.79,8.79,0,0,1-1.15,2.34c.9-.08,1.76-.2,2.59-.33a.92.92,0,0,0-.14-.14.82.82,0,0,1-.33-.63.83.83,0,0,1,.89-.74c.91,0,2.59,2.09,2.66,2.2a1.24,1.24,0,0,1,.22.66,1,1,0,0,1-1,1,.91.91,0,0,1-.75-.47c-.15-.22-.29-.45-.47-.67A33.53,33.53,0,0,1,42.32,41Z"/><path d="M59.09,46.8c0,.29.07,2.05.09,2.68v.11c0,1.17-.79,2.09-2.41,2.09-1.19,0-1.71-.32-1.71-1.12a.86.86,0,0,1,.79-.93.62.62,0,0,1,.18,0c.13,0,.29.05.47.05.34,0,.68-.11.68-.5s0-1.72,0-3.3a6.32,6.32,0,0,1-1.4.36,1,1,0,0,1-1-1,.94.94,0,0,1,.74-.92l1.69-.47,0-2.68H55.83a.91.91,0,1,1,0-1.82l1.35,0V36.68a1,1,0,0,1,1-1,.92.92,0,0,1,.94,1v2.7l1.06,0a.91.91,0,1,1,0,1.82H59.11l0,2c1.28-.52,1.35-.54,1.48-.54a.84.84,0,0,1,.79.87c0,.59-.27.75-2.27,1.6Zm6.84-2.88c.89,0,1.95,0,2.63,0H69a1.24,1.24,0,0,1,1.3,1.28c0,1.55-3.89,6.54-9.54,6.54a.93.93,0,0,1-1-1,.82.82,0,0,1,.85-.88,9.19,9.19,0,0,0,4.74-1.35,6.66,6.66,0,0,0-1.23-.58.58.58,0,0,1-.48-.55,1.09,1.09,0,0,1,1-1,3.82,3.82,0,0,1,2,1.06,6.67,6.67,0,0,0,1.46-2c0-.06,0-.09-.15-.09H64.89c-1.57,2-3.49,3.3-4.14,3.3a.94.94,0,0,1-.94-.92.9.9,0,0,1,.54-.79,9.7,9.7,0,0,0,4-3.85,1,1,0,0,1,.88-.54.86.86,0,0,1,.92.77.74.74,0,0,1-.12.41ZM63.54,43a.93.93,0,0,1-.88-.63,10,10,0,0,0-1.28-2.16,1,1,0,0,1-.24-.61,1,1,0,0,1,.26-.65,9.89,9.89,0,0,0,1.27-2.16.88.88,0,0,1,.85-.59,1,1,0,0,1,1.08.9c0,.25-.23.7-1.49,2.21-.09.11-.13.18-.13.24s.07.14.13.21c1.19,1.35,1.47,1.82,1.47,2.25A1,1,0,0,1,63.54,43Zm3,0a1,1,0,0,1-.94-.67,10.44,10.44,0,0,0-1.2-2.09.89.89,0,0,1,0-1.26,9.43,9.43,0,0,0,1.1-2.09.89.89,0,0,1,.88-.64.93.93,0,0,1,1,.81,7.55,7.55,0,0,1-1.39,2.28.4.4,0,0,0-.09.24.31.31,0,0,0,.11.21c.67.76,1.51,1.69,1.51,2.32A.92.92,0,0,1,66.51,43Zm2.93,0a1,1,0,0,1-.91-.64,12.1,12.1,0,0,0-1.41-2.14,1.11,1.11,0,0,1-.3-.65,1.09,1.09,0,0,1,.27-.61,10.77,10.77,0,0,0,1.18-2.14.89.89,0,0,1,.85-.61,1.06,1.06,0,0,1,1.08.9c0,.32-.45,1-1.42,2.21a.4.4,0,0,0-.11.24.31.31,0,0,0,.13.21c1,1,1.64,1.71,1.64,2.29A1,1,0,0,1,69.44,43Z"/><polyline class="cls-2" points="51.54 64.08 45.89 69.73 40.23 64.08"/></g></g></svg>