<svg id="レイヤー_1" data-name="レイヤー 1" xmlns="http://www.w3.org/2000/svg" width="78.30469" height="16.15088" viewBox="0 0 78.30469 16.15088">
  <g>
    <path d="M3.13281,10.31714a7.066,7.066,0,0,1-2.14258.77417A.8376.8376,0,0,1,.126,10.24512.80176.80176,0,0,1,.70215,9.489c.88232-.30615,1.6925-.6123,2.44873-.90039v-3.115l-.97229.03614C1.85449,7.11206,1.67444,7.9585.77417,7.9585A.6998.6998,0,0,1,0,7.32837a.965.965,0,0,1,.09-.34229A11.91047,11.91047,0,0,0,.99023,2.52075a.75238.75238,0,0,1,.81031-.72021.73845.73845,0,0,1,.79223.72021v.09009c-.03613.39624-.10815.82837-.16211,1.27832H3.169V.90039A.80709.80709,0,0,1,4.0332.09009a.8071.8071,0,0,1,.86426.8103L4.87939,3.88916H6.13977A.7647.7647,0,0,1,6.932,4.6814a.76022.76022,0,0,1-.7743.79223H4.87939L4.86133,7.85034c1.15234-.57617,1.22436-.61206,1.36841-.61206a.7035.7035,0,0,1,.64819.738c0,.52222-.198.63037-2.0166,1.54858l-.01795,5.85181a.78958.78958,0,0,1-.86425.77417.78958.78958,0,0,1-.86426-.77417ZM6.86,7.04028A.74337.74337,0,0,1,6.06775,6.302.73345.73345,0,0,1,6.86,5.56372h3.16894V3.94312H7.67017a.73319.73319,0,1,1,0-1.45826H10.011V.91821A.78958.78958,0,0,1,10.87524.144a.78958.78958,0,0,1,.86426.77417V2.48486h2.6648a.73044.73044,0,1,1,0,1.45826H11.72144v1.6206h3.655a.71281.71281,0,0,1,.75635.73828.72244.72244,0,0,1-.75635.73828Zm6.734,3.06079.01807,1.09839.072,2.52075v.072c0,.99023-.59424,2.25048-2.66479,2.25048-1.60254,0-1.92664-.396-1.92664-.97216a.7994.7994,0,0,1,.79224-.84619.67324.67324,0,0,1,.18.01806,5.16574,5.16574,0,0,0,.97229.126c.54016,0,.90027-.21607.90027-.97241l-.01807-3.29493H6.86a.74337.74337,0,0,1-.79224-.73828.73326.73326,0,0,1,.79224-.738h5.05944l-.01794-.66626a.7684.7684,0,0,1,.84631-.73829.76236.76236,0,0,1,.82813.73829l.01806.66626h1.89063a.71241.71241,0,0,1,.7561.738.72223.72223,0,0,1-.7561.73828Zm-4.30322,3.0608a4.84461,4.84461,0,0,0-1.49451-1.26026.61811.61811,0,0,1-.378-.5581.80213.80213,0,0,1,.82813-.75635c.46826,0,2.48486,1.04443,2.48486,1.98071a.91364.91364,0,0,1-.82837.93628A.77492.77492,0,0,1,9.29077,13.16187Z"/>
    <path d="M22.14038,15.71875a.99453.99453,0,0,1-.66626.28809.92767.92767,0,0,1-.93628-.8462.7585.7585,0,0,1,.25208-.55835c2.0166-2.05249,2.82678-5.0415,3.04284-7.94018-1.58447,0-2.05249-.66626-2.10656-1.60254-.01795-.41406-.036-.90015-.036-1.36841,0-.48608.01806-.95434.036-1.31445A1.58112,1.58112,0,0,1,23.31067.90039c.61218-.03613,1.24231-.054,1.85461-.054.61206,0,1.22437.01782,1.80054.054A1.58486,1.58486,0,0,1,28.60425,2.2688c.036.37793.036.88232.036,1.38623,0,2.377-.072,3.0249-3.11487,3.0249-.03613.4502-.10815.93653-.18018,1.40454.34217-.01806.68433-.01806.99036-.01806,1.26038,0,2.30469.072,2.30469,1.47656v.09009c-.09,2.5747-.3241,6.15771-3.09693,6.15771-.39611,0-1.71057-.10791-1.71057-1.06225a.82949.82949,0,0,1,.81031-.86426,1.15156,1.15156,0,0,1,.50415.126.79539.79539,0,0,0,.39611.09009c.95423,0,1.35047-1.83667,1.38636-4.21338,0-.41406-.126-.41406-1.81848-.41406A12.07683,12.07683,0,0,1,22.14038,15.71875ZM24.85913,2.34082c-1.60254,0-1.60254,0-1.60254,1.45825,0,.34229,0,.66626.01807.91846.01806.37793.23413.50415,1.65649.50415,1.74658,0,2.07056-.01807,2.10669-.57617.01795-.2522.03589-.55835.03589-.88233,0-1.02636-.03589-1.38647-.57617-1.38647C26.01147,2.35864,25.41724,2.34082,24.85913,2.34082Zm5.45557,0a.79258.79258,0,0,1,.84631-.8103.80207.80207,0,0,1,.84631.8103v9.18262a.7838.7838,0,0,1-.84631.77417.77449.77449,0,0,1-.84631-.77417ZM35.71631,13.54v.03613c0,1.08032-.72022,2.35864-2.91675,2.35864-1.74658,0-2.08862-.396-2.08862-1.02636a.8337.8337,0,0,1,.77417-.90015.7456.7456,0,0,1,.198.01782,6.19817,6.19817,0,0,0,1.22436.19825.89316.89316,0,0,0,1.02637-.97242c.01806-.66626.01806-5.67163.01806-9.02075V1.38647a.865.865,0,0,1,1.72852,0v9.9751Z"/>
    <path d="M56.92065,9.957l-3.56518-.03589a7.55518,7.55518,0,0,0,3.79919,3.979.88039.88039,0,0,1,.55823.8103.92577.92577,0,0,1-.93628.91821c-1.1344,0-3.74512-2.37671-4.51941-4.82544-1.76452,4.42945-6.788,5.2395-6.89612,5.2395a.806.806,0,0,1-.79223-.82812.85035.85035,0,0,1,.73828-.82813c3.36694-.66626,4.86145-2.521,5.4917-4.46533l-3.061.03589a.83784.83784,0,0,1-.50415-.144c0,.28808-.01794.57617-.01794.84619-.036,1.53052-1.04431,1.69263-2.57483,1.69263-.36011,0-.70215-.01807-1.02625-.03614a1.52128,1.52128,0,0,1-1.38635-1.67431c-.01806-1.2605-.01806-2.93506-.01806-4.50147,0-1.15234,0-2.25073.01806-3.09692A1.4323,1.4323,0,0,1,43.57861,1.4585c.28809-.01807.59424-.01807.91822-.01807.45019,0,.88232,0,1.24243.01807A1.51419,1.51419,0,0,1,47.2157,2.971c.01794,1.2063.036,2.68286.036,4.12329V8.64258a.82606.82606,0,0,1,.48608-.16187H48.224c0-3.52929.01794-3.88916.01794-3.99731A1.65952,1.65952,0,0,1,50.1145,2.80884c.32422-.01807.72022-.01807,1.1344-.01807,0-.5581-.01794-1.11621-.01794-1.67431V1.09839a.799.799,0,0,1,.81018-.86426.86209.86209,0,0,1,.8822.84619c0,.59424.01807,1.15235.01807,1.71045.41406,0,.8103,0,1.17041.01807,1.2063.03613,1.87256.68432,1.8905,1.53052.01794.61206.036,1.80053.036,2.86279,0,.46826,0,.91821-.01807,1.27856h.90039a.71748.71748,0,0,1,.73816.738.70347.70347,0,0,1-.72021.73828ZM45.70325,5.97778c0-.9541-.036-1.87256-.05408-2.61084-.03589-.5039-.48608-.54-.93628-.54-.79224,0-.93628.18018-.93628.55811-.01794.66626-.03589,1.60254-.03589,2.59277ZM43.74072,7.38232c0,1.11622.01795,2.17847.03589,2.95289,0,.324.09009.54.93628.54a2.78658,2.78658,0,0,0,.41419-.01806c.57617-.054.57617-.08985.57617-3.47486ZM51.1228,8.48071a11.74364,11.74364,0,0,0,.1261-1.89062V4.24927c-1.18835,0-1.40442.10815-1.44043.68432-.01794.37818-.036,1.13428-.036,1.92652,0,.57617.01807,1.15234.01807,1.6206Zm3.259,0c.01806-.43213.01806-1.02636.01806-1.6206,0-.81031,0-1.62061-.01806-1.98047-.01807-.55835-.27-.63037-1.44043-.63037V6.67993a15.10128,15.10128,0,0,1-.108,1.80078Z"/>
    <path d="M64.20654,15.34058,64.44067,6.158c-1.27844,1.53027-1.6206,1.54834-1.89062,1.54834a.79639.79639,0,0,1-.54016-1.42236A16.87315,16.87315,0,0,0,66.04309.64819a.74907.74907,0,0,1,.70227-.468,1.02253,1.02253,0,0,1,1.02625.93628c0,.144-.01795.48608-1.60242,2.7727l-.23413,11.45142a.849.849,0,0,1-.90027.8103.78349.78349,0,0,1-.82825-.79224Zm8.19239-7.88623q-.43214.35082-.81018.64819a5.37229,5.37229,0,0,1,2.34069,4.59131c0,3.2771-2.59277,3.42114-3.15088,3.42114-.88232,0-1.60253-.16211-1.60253-.95435a.71812.71812,0,0,1,.72021-.75634.874.874,0,0,1,.21606.01806,2.75728,2.75728,0,0,0,.54017.054c1.15234,0,1.71057-.6482,1.71057-2.19653v-.21607a12.03372,12.03372,0,0,1-5.23963,2.88086.71025.71025,0,0,1-.6842-.75635.6565.6565,0,0,1,.48608-.68408,12.19959,12.19959,0,0,0,5.14966-2.791,3.45984,3.45984,0,0,0-.28808-.57617,12.62276,12.62276,0,0,1-4.55542,2.32276.691.691,0,0,1-.68421-.72022.66533.66533,0,0,1,.50415-.666,10.42137,10.42137,0,0,0,3.92517-1.81861,3.15528,3.15528,0,0,0-.57617-.342,10.2419,10.2419,0,0,1-3.09692,1.26026.71346.71346,0,0,1-.72022-.73829.59914.59914,0,0,1,.48609-.63012A10.68493,10.68493,0,0,0,70.4364,7.49023h-.84631c-1.83643-.01782-1.83643-.72021-1.83643-2.10669a1.55535,1.55535,0,0,1-.82837.4502.73767.73767,0,0,1-.72021-.73828.78071.78071,0,0,1,.36011-.63013A10.8935,10.8935,0,0,0,69.82422.4502.75936.75936,0,0,1,70.52637,0a.778.778,0,0,1,.8103.70239,1.282,1.282,0,0,1-.27.648c.54-.01782,1.38635-.01782,1.90845-.01782.41418,0,1.42248,0,1.42248.90015,0,.10815,0,.46826-.70227,1.27832.63025,0,1.22437.01806,1.7826.01806,1.67443,0,1.72851.97241,1.72851,1.81861,0,1.2063-.036,2.12475-1.72851,2.14257-.21607,0-.43213.01807-.68421.01807a11.01869,11.01869,0,0,0,.30615,1.92651A12.25294,12.25294,0,0,0,76.8103,8.30054a.68881.68881,0,0,1,.4502-.18018.93645.93645,0,0,1,.84619.91846c0,.324-.198.79223-2.55676,1.74658a6.291,6.291,0,0,0,2.37671,2.84473.76423.76423,0,0,1,.378.64819.91272.91272,0,0,1-.91822.86426c-.88232,0-3.529-2.16065-4.05126-7.67017-.5221-.01806-.88221-.01806-.88221-.01806Zm-.75611-2.61084H69.96826c-.45019,0-.72021.10791-.72021.72021,0,.396.072.70215.75622.70215.50415,0,1.06238.01807,1.63855.01807Zm.37805-1.31446a2.41159,2.41159,0,0,0,.55823-.82812c0-.126-.1261-.18018-.23413-.18018-.198,0-1.40442.01807-2.07056.03613-.23413.342-.4862.6482-.73828.97217Zm1.04432,2.75489c.66626,0,1.33239-.01807,1.94458-.01807.5581,0,.66626-.198.66626-.72022,0-.64819-.21607-.70214-.70228-.70214-.61218,0-1.26037-.01807-1.90856-.01807Z"/>
  </g>
</svg>
